<svg id="Air_Button" data-name="Air Button" xmlns="http://www.w3.org/2000/svg" xmlns:xlink="http://www.w3.org/1999/xlink" viewBox="0 0 313 307"><defs><linearGradient id="linear-gradient" x1="-916.68" y1="-197.39" x2="-816.2" y2="-197.39" gradientTransform="translate(-633.4 -24.99) rotate(180)" gradientUnits="userSpaceOnUse"><stop offset="0" stop-color="#fff" stop-opacity="0"/><stop offset="1" stop-color="#fff"/></linearGradient><linearGradient id="linear-gradient-2" x1="-916.52" y1="-135.31" x2="-823.64" y2="-135.31" xlink:href="#linear-gradient"/><linearGradient id="linear-gradient-3" x1="-916.83" y1="-150.95" x2="-794.73" y2="-150.95" xlink:href="#linear-gradient"/><linearGradient id="linear-gradient-4" x1="283.12" y1="125.96" x2="161.22" y2="125.96" gradientTransform="matrix(1, 0, 0, 1, 0, 0)" xlink:href="#linear-gradient"/><linearGradient id="linear-gradient-5" x1="283.12" y1="110.32" x2="192.52" y2="110.32" gradientTransform="matrix(1, 0, 0, 1, 0, 0)" xlink:href="#linear-gradient"/><linearGradient id="linear-gradient-6" x1="283.28" y1="172.4" x2="182.61" y2="172.4" gradientTransform="matrix(1, 0, 0, 1, 0, 0)" xlink:href="#linear-gradient"/><linearGradient id="linear-gradient-7" x1="26.57" y1="67.33" x2="127.05" y2="67.33" gradientTransform="matrix(1, 0, 0, 1, 0, 0)" xlink:href="#linear-gradient"/><linearGradient id="linear-gradient-8" x1="26.73" y1="129.41" x2="119.61" y2="129.41" gradientTransform="matrix(1, 0, 0, 1, 0, 0)" xlink:href="#linear-gradient"/><linearGradient id="linear-gradient-9" x1="26.42" y1="113.77" x2="148.52" y2="113.77" gradientTransform="matrix(1, 0, 0, 1, 0, 0)" xlink:href="#linear-gradient"/><linearGradient id="linear-gradient-10" x1="26.73" y1="113.77" x2="148.64" y2="113.77" gradientTransform="matrix(1, 0, 0, 1, 0, 0)" xlink:href="#linear-gradient"/><linearGradient id="linear-gradient-11" x1="26.73" y1="129.41" x2="117.33" y2="129.41" gradientTransform="matrix(1, 0, 0, 1, 0, 0)" xlink:href="#linear-gradient"/><linearGradient id="linear-gradient-12" x1="26.57" y1="67.33" x2="127.24" y2="67.33" gradientTransform="matrix(1, 0, 0, 1, 0, 0)" xlink:href="#linear-gradient"/></defs><title>Air Button</title><path id="Button_Back_2" data-name="Button Back 2" d="M304.93,6.86C203.86.29,101.88-5.82,1.06,14.36c.46,105.1,6.18,204.25,15.3,276,88.17,7.6,184.43,13,281.93,16C321.92,215.32,309.87,117.12,304.93,6.86Z" style="fill:#a44dff;fill-rule:evenodd"/><path id="Button_Back_1" data-name="Button Back 1" d="M287.93,16.86c-101.07-6.57-176-5.68-276.87,14.5.46,105.1,13.18,177.25,22.3,249,88.17,7.6,157.43,6,254.93,9C311.92,198.32,292.87,127.12,287.93,16.86Z" style="fill:#c797fc;fill-rule:evenodd"/><g id="Content"><path id="Backdrop" d="M119.46,247.87c52.26,27.82,3.86-16.37,31.68-68.64S272.46,86.42,220.2,58.6A107.21,107.21,0,0,0,119.46,247.87Z" style="fill:#fff;opacity:0.2"/><path id="Label_Back" data-name="Label Back" d="M128.45,207.36a109,109,0,0,0,27.28,6.91,140.58,140.58,0,0,0,30.18.19l9.55,44.07a190.4,190.4,0,0,1-39.32,8.3A165.93,165.93,0,0,1,114,265.62Z" style="fill:#a44dff"/><g id="Label"><path d="M146.55,226.31q3.47,15.23,5.5,24.64v0a7.51,7.51,0,0,1-1.51.14,4.56,4.56,0,0,1-.8-.07,4.77,4.77,0,0,1-.81-.14h0c-.17-.46-.39-1.27-.67-2.41-.35-1.38-.66-2.51-.94-3.4-1.08,0-2.49-.07-4.24-.07h-1.47s-.08.5-.24,1.44c-.21,1.28-.41,2.34-.6,3.17s-.39,1.26-.63,1.31a1.14,1.14,0,0,1-.35,0l-.93,0c-.45,0-1,0-1.55,0h-.39v0a10.85,10.85,0,0,0,.32-1.85q.87-5.53,2-11.22a92,92,0,0,1,3.14-11.36,4.07,4.07,0,0,1,.56,0h.77C144.63,226.45,145.57,226.4,146.55,226.31Zm-3.18,16q2.24,0,4,0-2-11-2.35-11.41a1.73,1.73,0,0,0-.52-.11c-.28,0-.52.23-.7.68a20.87,20.87,0,0,0-.77,3.07c-.33,1.58-.71,3.59-1.16,6l-.31,1.75h.7C142.71,242.27,143.09,242.28,143.37,242.3Z" style="fill:#fff"/><path d="M154.85,233.31a5,5,0,0,1,1,0c.7,0,1.47.07,2.31.07v.1c0,1.05,0,2.67-.07,4.87s-.11,4.5-.11,6.79,0,4.06.14,5.74a7.65,7.65,0,0,1-1.47.1h-1.19a3.86,3.86,0,0,0-.77,0c0-.68,0-1.71,0-3.08v-6.09c-.05-1.63-.07-2.9-.07-3.78,0-1.61.07-3.19.21-4.73Zm-.14-7.53c1.44.05,2.54.07,3.29.07l.1,4.62a3,3,0,0,1-1.26.18,6,6,0,0,1-.84,0h-.49a3.71,3.71,0,0,0-.66,0c0-.35,0-.92-.07-1.71C154.71,227.36,154.68,226.32,154.71,225.78Z" style="fill:#fff"/><path d="M165,233.59c0,.28,0,.49,0,.65s0,.33,0,.54a5,5,0,0,1,.68-.32l1-.35a9.3,9.3,0,0,1,1.94-.4,19.72,19.72,0,0,1,2-.12c.56,0,.84,0,.84.07l0,2.9q0,.7,0,1.05a11.19,11.19,0,0,0-1.19-.38,7.34,7.34,0,0,0-1.68-.18,9.75,9.75,0,0,0-2.13.28,2.23,2.23,0,0,0-1.33.74,3.22,3.22,0,0,0-.32,1.85q.13,4.8.14,10.89V251a5.5,5.5,0,0,1-1.22.14l-.79,0a10.14,10.14,0,0,0-1.1,0l0-6c0-2.76-.07-4.82-.07-6.2,0-1.12,0-2.89.07-5.32a4.6,4.6,0,0,0,.75,0l.72,0c.28,0,.65,0,1.12,0S165,233.54,165,233.59Z" style="fill:#fff"/></g><g id="Air_2" data-name="Air 2"><path d="M283,155.06c-3.8-.26-7.56-.46-11.32-.62s-7.53-.23-11.29-.27c-7.51,0-15,.16-22.46.79-3.72.32-7.42.71-11.09,1.26s-7.28,1.24-10.81,2.11a69.6,69.6,0,0,0-10.18,3.28,29.45,29.45,0,0,0-8.39,5,14.44,14.44,0,0,0-1.49,1.56c-.2.28-.43.54-.6.82l-.28.42-.3.51A17.31,17.31,0,0,0,193,174a11.15,11.15,0,0,0,.49,7.62,13.83,13.83,0,0,0,5.35,6,14.61,14.61,0,0,0,8.4,2.17,12.92,12.92,0,0,0,8.13-3.4,7.69,7.69,0,0,0,2.83-7.62,7.61,7.61,0,0,0-6.54-5.79,8.53,8.53,0,0,0-4.94,1.14,15.44,15.44,0,0,0-4.2,3.65A15,15,0,0,1,206,173.1a11,11,0,0,1,2.57-1.68,9.69,9.69,0,0,1,3.08-.83,10.1,10.1,0,0,1,6.36,1.55,11.5,11.5,0,0,1,5.08,12.21,14.89,14.89,0,0,1-3.11,6.29,20.09,20.09,0,0,1-11.66,6.9,22.92,22.92,0,0,1-13.67-1.76,20.62,20.62,0,0,1-10.28-10,18.53,18.53,0,0,1-1.72-7.35,21.24,21.24,0,0,1,1.08-7.25,26.42,26.42,0,0,1,3-6.22l.45-.7.53-.74c.36-.52.75-1,1.14-1.43a23.53,23.53,0,0,1,2.52-2.48,37.8,37.8,0,0,1,11.25-6.28,78.27,78.27,0,0,1,11.63-3.18c3.87-.77,7.75-1.33,11.61-1.74s7.72-.76,11.57-1c15.38-.92,30.73-.49,45.92-.12Z" style="opacity:0.8;fill:url(#linear-gradient)"/><path d="M283.12,143.65c-1.91-.23-4-.4-6-.57L271,142.6c-4.12-.32-8.25-.63-12.37-1a240.35,240.35,0,0,1-24.74-3.44q-3.09-.59-6.17-1.35t-6.15-1.68a65.26,65.26,0,0,1-12.09-4.91,35.47,35.47,0,0,1-10.76-8.65,27.11,27.11,0,0,1-5.89-13.29,26.4,26.4,0,0,1,2.12-14.56A29.25,29.25,0,0,1,204,82.29,26,26,0,0,1,218,77a22.44,22.44,0,0,1,7.76.93,23,23,0,0,1,6.88,3.44,25.67,25.67,0,0,1,5.32,5.19,21.12,21.12,0,0,1,3.53,6.77,18.64,18.64,0,0,1,.7,7.71,17.6,17.6,0,0,1-2.53,7.16,16.12,16.12,0,0,1-5.25,5.27,13.54,13.54,0,0,1-7,2.05,12.63,12.63,0,0,1-6.62-1.91,15.1,15.1,0,0,1-4.54-4.46,17.91,17.91,0,0,0,5.42,2.4,10,10,0,0,0,5.26-.07,10.36,10.36,0,0,0,6.65-6.44,11.35,11.35,0,0,0-.37-8.73,14.18,14.18,0,0,0-2.55-3.69,18.85,18.85,0,0,0-3.66-3,13.75,13.75,0,0,0-8.36-2.09,17.12,17.12,0,0,0-8.48,3.14,19.84,19.84,0,0,0-6.26,7.17,16.19,16.19,0,0,0-1.74,9.13,17.46,17.46,0,0,0,3.71,8.74,28.43,28.43,0,0,0,8,6.68c6.32,3.7,13.89,6,21.59,7.26A117.2,117.2,0,0,0,247.12,131c3.95.29,7.92.34,11.89.33s8-.23,12-.54c2-.13,4-.35,6-.54l6.15-.7Z" style="opacity:0.8;fill:url(#linear-gradient-2)"/><g style="opacity:0.8"><path d="M283.12,145.62c-15.26-.8-30.51-.58-45.79-.3-7.64.17-15.29.32-23,.28a165.82,165.82,0,0,1-23.24-1.48,78,78,0,0,1-11.66-2.63c-1-.3-1.93-.61-2.88-1l-1.44-.54c-.49-.21-1-.4-1.48-.64a26.58,26.58,0,0,1-5.65-3.48,20.12,20.12,0,0,1-4.57-5.35,17,17,0,0,1-2.16-7,16.57,16.57,0,0,1,5-13.23,14.61,14.61,0,0,1,6.32-3.56,13.36,13.36,0,0,1,7.13.11,15.89,15.89,0,0,1,5.88,3.19,10.74,10.74,0,0,1,3.72,5.74,8.76,8.76,0,0,1-1.15,6.62,9.23,9.23,0,0,1-5,3.93,8,8,0,0,1-6-.5,11.38,11.38,0,0,1-4.22-4,10.9,10.9,0,0,0,4.55,3.19,6.64,6.64,0,0,0,5.11-.3,7.11,7.11,0,0,0,3.37-3.54,5.8,5.8,0,0,0,.13-4.47,7,7,0,0,0-3-3.28,11.29,11.29,0,0,0-4.43-1.61,7.65,7.65,0,0,0-4.16.66,8.64,8.64,0,0,0-3.24,2.55,10.39,10.39,0,0,0-2.3,7.76A11.49,11.49,0,0,0,173,130a20.21,20.21,0,0,0,3.94,2.72c.36.2.75.37,1.12.56l1.22.54c.81.37,1.65.68,2.48,1a72.84,72.84,0,0,0,10.53,3,179.32,179.32,0,0,0,22.31,3.1c7.56.66,15.19,1,22.82,1.43C252.64,143.08,268,143.84,283.12,145.62Z" style="fill:url(#linear-gradient-3)"/></g><path d="M175.92,108.87a10.73,10.73,0,0,1,2.93.4,9.18,9.18,0,0,0-1.17-.07,10.27,10.27,0,0,0-4.29.94,11.26,11.26,0,0,0-4.17,3.28,13,13,0,0,0-2.87,9.7,14.1,14.1,0,0,0,4.91,8.83,22.29,22.29,0,0,0,4.41,3c.29.17.58.31.83.43l.36.17.13.07,1.17.51c.77.36,1.55.65,2.3.94l.36.14a73.82,73.82,0,0,0,10.88,3.1,157.9,157.9,0,0,0,16.78,2.59,149.59,149.59,0,0,1-17-1.36A76,76,0,0,1,180.24,139l-.31-.09c-.85-.27-1.65-.53-2.45-.85l-1.39-.52-.43-.18c-.29-.12-.59-.24-.87-.38l-.06,0a23.31,23.31,0,0,1-5.07-3.11,17.29,17.29,0,0,1-4-4.64,14.39,14.39,0,0,1-1.85-5.92A14,14,0,0,1,168,112.16a12,12,0,0,1,5.2-2.94,10.6,10.6,0,0,1,2.71-.35m0-2.57a13.18,13.18,0,0,0-3.36.43,14.61,14.61,0,0,0-6.32,3.56,16.57,16.57,0,0,0-5,13.23,17,17,0,0,0,2.16,7,20.12,20.12,0,0,0,4.57,5.35,26.58,26.58,0,0,0,5.65,3.48c.49.24,1,.43,1.48.64l1.44.54c1,.37,1.92.68,2.88,1a78,78,0,0,0,11.66,2.63,165.82,165.82,0,0,0,23.24,1.48h2.39c6.89,0,13.74-.14,20.59-.29,7.35-.13,14.69-.25,22-.25,7.92,0,15.84.14,23.76.55-15.17-1.78-30.48-2.54-45.74-3.25-7.63-.4-15.26-.77-22.82-1.43a179.32,179.32,0,0,1-22.31-3.1,72.84,72.84,0,0,1-10.53-3c-.83-.32-1.67-.63-2.48-1L178,133.3c-.37-.19-.76-.36-1.12-.56A20.21,20.21,0,0,1,173,130a11.49,11.49,0,0,1-4.05-7.22,10.39,10.39,0,0,1,2.3-7.76,8.64,8.64,0,0,1,3.24-2.55,7.59,7.59,0,0,1,3.23-.71,7.44,7.44,0,0,1,.93,0,11.29,11.29,0,0,1,4.43,1.61,7,7,0,0,1,3,3.28,5.8,5.8,0,0,1-.13,4.47,7.11,7.11,0,0,1-3.37,3.54,6.36,6.36,0,0,1-2.89.67,6.85,6.85,0,0,1-2.22-.37,10.9,10.9,0,0,1-4.55-3.19,11.38,11.38,0,0,0,4.22,4,8,8,0,0,0,6,.5,9.23,9.23,0,0,0,5-3.93,8.76,8.76,0,0,0,1.15-6.62,10.74,10.74,0,0,0-3.72-5.74,15.89,15.89,0,0,0-5.88-3.19,13.17,13.17,0,0,0-3.77-.54Z" style="fill:url(#linear-gradient-4)"/><path d="M219.23,79.56a19.68,19.68,0,0,1,5.78.86,20.24,20.24,0,0,1,6.09,3,23.17,23.17,0,0,1,4.8,4.68,18.68,18.68,0,0,1,3.12,6,16,16,0,0,1,.59,6.62,15,15,0,0,1-2.15,6.12,13.66,13.66,0,0,1-4.41,4.44,11.38,11.38,0,0,1-1.78.89A13.38,13.38,0,0,0,236,106a14,14,0,0,0-.44-10.7,17.31,17.31,0,0,0-3-4.39,21.37,21.37,0,0,0-4.18-3.38,16.35,16.35,0,0,0-8.66-2.5c-.4,0-.82,0-1.19,0a19.49,19.49,0,0,0-9.81,3.61,22.32,22.32,0,0,0-7.08,8.1,18.77,18.77,0,0,0-2,10.6,20.27,20.27,0,0,0,4.25,10,30.81,30.81,0,0,0,8.67,7.3c6,3.52,13.56,6.07,22.47,7.58,3.91.64,7.94,1.09,12,1.34,3.13.23,6.56.33,10.78.33h1.33c4.29-.07,8.25-.24,12.09-.54,1.52-.1,3.06-.25,4.54-.4l1.53-.14h.05l3.29-.37v8.33l-2.74-.24-.5,0-6.16-.47-1.36-.11c-3.6-.28-7.32-.57-11-.93a239.66,239.66,0,0,1-24.49-3.4c-2-.38-4-.83-6-1.33s-4-1-6-1.64a61.39,61.39,0,0,1-11.62-4.71,33.2,33.2,0,0,1-10-8,24.52,24.52,0,0,1-5.33-12,24,24,0,0,1,1.91-13.13,26.76,26.76,0,0,1,8.29-10.38,23.2,23.2,0,0,1,12.59-4.76q.56,0,1.11,0m0-2.57L218,77a26,26,0,0,0-14,5.27,29.25,29.25,0,0,0-9.08,11.39,26.4,26.4,0,0,0-2.12,14.56,27.11,27.11,0,0,0,5.89,13.29,35.47,35.47,0,0,0,10.76,8.65,65.26,65.26,0,0,0,12.09,4.91q3.07.94,6.15,1.68t6.17,1.35a240.35,240.35,0,0,0,24.74,3.44c4.12.41,8.25.72,12.37,1l6.16.48c2,.17,4.1.34,6,.57V129.57l-6.15.7c-2,.19-4,.41-6,.54-4,.31-8,.48-12,.54h-1.29c-3.54,0-7.08-.07-10.6-.33a117.2,117.2,0,0,1-11.73-1.31c-7.7-1.3-15.27-3.56-21.59-7.26a28.43,28.43,0,0,1-8-6.68,17.46,17.46,0,0,1-3.71-8.74,16.19,16.19,0,0,1,1.74-9.13,19.84,19.84,0,0,1,6.26-7.17,17.12,17.12,0,0,1,8.48-3.14c.35,0,.7,0,1,0A13.83,13.83,0,0,1,227,89.68a18.85,18.85,0,0,1,3.66,3,14.18,14.18,0,0,1,2.55,3.69,11.35,11.35,0,0,1,.37,8.73,10.36,10.36,0,0,1-6.65,6.44,9,9,0,0,1-2.67.39,11.06,11.06,0,0,1-2.59-.32,17.91,17.91,0,0,1-5.42-2.4,15.1,15.1,0,0,0,4.54,4.46,12.61,12.61,0,0,0,6.59,1.91h0a13.44,13.44,0,0,0,7-2.05,16.12,16.12,0,0,0,5.25-5.27,17.6,17.6,0,0,0,2.53-7.16,18.64,18.64,0,0,0-.7-7.71,21.12,21.12,0,0,0-3.53-6.77,25.67,25.67,0,0,0-5.32-5.19A23,23,0,0,0,225.74,78a22.45,22.45,0,0,0-6.51-1Z" style="fill:url(#linear-gradient-5)"/><path d="M257.77,146.9v2.57h0c7.62,0,15.34.18,22.82.37l-.1,2.48c-2.81-.17-5.7-.32-8.77-.45-3.91-.14-7.72-.23-11.38-.27-6.25,0-14.48.1-22.68.8-4.39.38-8,.78-11.25,1.28-4,.6-7.59,1.3-11,2.15a72.21,72.21,0,0,0-10.56,3.41,32,32,0,0,0-9.11,5.46,17.06,17.06,0,0,0-1.75,1.84l-.08.09-.15.21a6.84,6.84,0,0,0-.56.76l-.25.39-.08.12-.3.52a19.5,19.5,0,0,0-2,4.7,13.61,13.61,0,0,0,.61,9.34,16.52,16.52,0,0,0,6.35,7.14,17.21,17.21,0,0,0,9,2.58l.88,0a15.56,15.56,0,0,0,9.74-4.05,11.13,11.13,0,0,0,3.65-6,10.23,10.23,0,0,1-.19,1.46A12.27,12.27,0,0,1,218,189a17.46,17.46,0,0,1-10.13,6,19.72,19.72,0,0,1-3.53.32,20.92,20.92,0,0,1-8.61-1.89,18,18,0,0,1-9-8.73,16,16,0,0,1-1.48-6.34,19,19,0,0,1,1-6.39,24.28,24.28,0,0,1,2.67-5.61l.42-.65.52-.73a12.42,12.42,0,0,1,.78-1l.19-.23a22.84,22.84,0,0,1,2.23-2.18,34.84,34.84,0,0,1,10.48-5.84,76,76,0,0,1,11.24-3.07c3.58-.71,7.3-1.27,11.4-1.71,3.75-.42,7.59-.74,11.43-1,6.14-.36,12.77-.54,20.26-.54V146.9m0,0c-6.79,0-13.6.14-20.41.55q-5.78.31-11.57,1c-3.86.41-7.74,1-11.61,1.74a78.27,78.27,0,0,0-11.63,3.18,37.8,37.8,0,0,0-11.25,6.28,23.53,23.53,0,0,0-2.52,2.48c-.39.46-.78.91-1.14,1.43l-.53.74-.45.7a26.42,26.42,0,0,0-3,6.22,21.24,21.24,0,0,0-1.08,7.25,18.53,18.53,0,0,0,1.72,7.35,20.62,20.62,0,0,0,10.28,10,23.35,23.35,0,0,0,9.67,2.13,21.5,21.5,0,0,0,4-.37,20.09,20.09,0,0,0,11.66-6.9,14.89,14.89,0,0,0,3.11-6.29A11.5,11.5,0,0,0,218,172.14a10.2,10.2,0,0,0-5.43-1.6c-.31,0-.62,0-.93.05a9.69,9.69,0,0,0-3.08.83A11,11,0,0,0,206,173.1a15,15,0,0,0-3.46,4.68,15.44,15.44,0,0,1,4.2-3.65A8.83,8.83,0,0,1,211,173c.23,0,.47,0,.7,0a7.61,7.61,0,0,1,6.54,5.79,7.69,7.69,0,0,1-2.83,7.62,12.92,12.92,0,0,1-8.13,3.4l-.77,0a14.66,14.66,0,0,1-7.63-2.19,13.83,13.83,0,0,1-5.35-6A11.15,11.15,0,0,1,193,174a17.31,17.31,0,0,1,1.76-4.1l.3-.51.28-.42c.17-.28.4-.54.6-.82a14.44,14.44,0,0,1,1.49-1.56,29.45,29.45,0,0,1,8.39-5A69.6,69.6,0,0,1,216,158.33c3.53-.87,7.15-1.55,10.81-2.11s7.37-.94,11.09-1.26c7.44-.63,15-.78,22.46-.79q5.64.06,11.29.27c3.76.16,7.52.36,11.32.62l.32-7.73c-8.46-.21-17-.43-25.51-.43Z" style="fill:url(#linear-gradient-6)"/></g><g id="Air_1" data-name="Air 1"><path d="M26.89,84.68c3.81.25,7.56.45,11.33.61s7.52.23,11.28.27c7.52,0,15-.15,22.47-.79,3.71-.32,7.42-.71,11.08-1.26s7.28-1.24,10.81-2.1A69.62,69.62,0,0,0,104,78.12a29.31,29.31,0,0,0,8.39-5,13.58,13.58,0,0,0,1.49-1.56,9.56,9.56,0,0,0,.6-.82l.28-.42.3-.51a16.91,16.91,0,0,0,1.76-4.1,11.1,11.1,0,0,0-.49-7.62,13.8,13.8,0,0,0-5.35-6,14.59,14.59,0,0,0-8.39-2.18,13.06,13.06,0,0,0-8.14,3.4A7.68,7.68,0,0,0,91.67,61a7.6,7.6,0,0,0,6.53,5.79,8.45,8.45,0,0,0,4.94-1.14A15.45,15.45,0,0,0,107.35,62a15,15,0,0,1-3.47,4.68,11.48,11.48,0,0,1-2.56,1.69,9.75,9.75,0,0,1-3.09.83,10,10,0,0,1-6.35-1.56,11.51,11.51,0,0,1-4.41-5.15,11.7,11.7,0,0,1-.67-7,14.72,14.72,0,0,1,3.11-6.29,20.06,20.06,0,0,1,11.65-6.91A23,23,0,0,1,115.24,44a20.6,20.6,0,0,1,10.27,10,18.59,18.59,0,0,1,1.73,7.36,21.68,21.68,0,0,1-1.08,7.24,26.85,26.85,0,0,1-3,6.22l-.45.7-.53.75c-.35.51-.75,1-1.14,1.43a23.44,23.44,0,0,1-2.52,2.47A37.38,37.38,0,0,1,107.3,86.4a76.9,76.9,0,0,1-11.62,3.17c-3.88.77-7.75,1.33-11.62,1.75s-7.71.75-11.56,1c-15.39.92-30.74.49-45.93.11Z" style="opacity:0.8;fill:url(#linear-gradient-7)"/><path d="M26.73,96.08c1.91.24,4,.41,6,.58l6.17.47c4.12.32,8.24.63,12.37,1A243.33,243.33,0,0,1,76,101.61c2.06.39,4.12.85,6.17,1.35s4.11,1.05,6.15,1.68a65,65,0,0,1,12.09,4.92,35.6,35.6,0,0,1,10.77,8.64,27.13,27.13,0,0,1,5.88,13.29A26.48,26.48,0,0,1,115,146.05a29.2,29.2,0,0,1-9.09,11.39,25.88,25.88,0,0,1-14,5.27,22.36,22.36,0,0,1-7.75-.93,22.72,22.72,0,0,1-6.89-3.44,26.13,26.13,0,0,1-5.32-5.18,21.69,21.69,0,0,1-3.53-6.78,18.6,18.6,0,0,1-.69-7.7,17.63,17.63,0,0,1,2.52-7.17,16.22,16.22,0,0,1,5.25-5.27,13.44,13.44,0,0,1,7-2,12.65,12.65,0,0,1,6.62,1.9,15.3,15.3,0,0,1,4.53,4.46,18,18,0,0,0-5.42-2.4,10.05,10.05,0,0,0-5.26.07,10.31,10.31,0,0,0-6.64,6.45,11.28,11.28,0,0,0,.36,8.72,14.43,14.43,0,0,0,2.55,3.69,19.34,19.34,0,0,0,3.67,3,13.73,13.73,0,0,0,8.35,2.08A17,17,0,0,0,99.71,149a19.79,19.79,0,0,0,6.27-7.17,16.32,16.32,0,0,0,1.74-9.12A17.64,17.64,0,0,0,104,124a28.33,28.33,0,0,0-7.94-6.67c-6.32-3.71-13.9-6-21.6-7.26a116.88,116.88,0,0,0-11.73-1.32c-3.94-.28-7.92-.34-11.89-.32s-8,.22-12,.53c-2,.13-4,.35-6,.54l-6.15.7Z" style="opacity:0.8;fill:url(#linear-gradient-8)"/><g style="opacity:0.8"><path d="M26.73,94.11c15.26.8,30.52.58,45.79.3,7.64-.17,15.29-.32,23-.28a168.76,168.76,0,0,1,23.23,1.48,79,79,0,0,1,11.66,2.63c1,.31,1.93.61,2.88,1l1.44.54c.49.22,1,.41,1.48.65a25.94,25.94,0,0,1,5.65,3.48,19.79,19.79,0,0,1,4.57,5.35,17,17,0,0,1,2.17,7,16.61,16.61,0,0,1-5,13.24A14.84,14.84,0,0,1,137.3,133a13.6,13.6,0,0,1-7.14-.11,16.11,16.11,0,0,1-5.88-3.19,10.8,10.8,0,0,1-3.72-5.75,8.82,8.82,0,0,1,1.15-6.62,9.21,9.21,0,0,1,5-3.92,7.91,7.91,0,0,1,6,.5,11.36,11.36,0,0,1,4.22,4,11,11,0,0,0-4.54-3.19,6.67,6.67,0,0,0-5.11.3,7,7,0,0,0-3.37,3.55,5.77,5.77,0,0,0-.14,4.46,7.07,7.07,0,0,0,3,3.29,11.1,11.1,0,0,0,4.44,1.6,7.66,7.66,0,0,0,4.16-.66,8.61,8.61,0,0,0,3.23-2.55,10.43,10.43,0,0,0,2.31-7.76,11.56,11.56,0,0,0-4.06-7.22A20.17,20.17,0,0,0,133,107c-.36-.21-.75-.38-1.12-.57l-1.22-.53c-.8-.37-1.64-.69-2.48-1a72.81,72.81,0,0,0-10.53-3,177.46,177.46,0,0,0-22.31-3.1c-7.56-.67-15.18-1-22.81-1.44C57.22,96.66,41.91,95.89,26.73,94.11Z" style="fill:url(#linear-gradient-9)"/></g><path d="M101.37,96.8a147.54,147.54,0,0,1,17,1.35,76.55,76.55,0,0,1,11.26,2.54l.3.1c.85.27,1.65.52,2.46.84l1.38.52.44.18c.29.13.58.25.87.39l.05,0a23.45,23.45,0,0,1,5.07,3.11,17.5,17.5,0,0,1,4,4.64,14.57,14.57,0,0,1,1.84,5.92,14,14,0,0,1-4.17,11.17,12.2,12.2,0,0,1-5.21,2.94,10.52,10.52,0,0,1-2.7.34,10.8,10.8,0,0,1-2.94-.4,9.34,9.34,0,0,0,1.18.07,10.22,10.22,0,0,0,4.28-.94,11.29,11.29,0,0,0,4.18-3.28,13,13,0,0,0,2.86-9.69,14.09,14.09,0,0,0-4.9-8.84,22.79,22.79,0,0,0-4.42-3c-.29-.17-.58-.3-.83-.43l-.35-.17-.13-.06-1.18-.52c-.77-.35-1.55-.65-2.3-.94l-.36-.14a74.7,74.7,0,0,0-10.88-3.1,157,157,0,0,0-16.78-2.58M26.73,94.11c15.18,1.78,30.49,2.55,45.75,3.25,7.63.4,15.25.77,22.81,1.44a177.46,177.46,0,0,1,22.31,3.1,72.81,72.81,0,0,1,10.53,3c.84.32,1.68.64,2.48,1l1.22.53c.37.19.76.36,1.12.57a20.17,20.17,0,0,1,3.94,2.71,11.56,11.56,0,0,1,4.06,7.22,10.43,10.43,0,0,1-2.31,7.76,8.61,8.61,0,0,1-3.23,2.55,7.63,7.63,0,0,1-3.23.72,7.26,7.26,0,0,1-.93-.06,11.1,11.1,0,0,1-4.44-1.6,7.07,7.07,0,0,1-3-3.29,5.77,5.77,0,0,1,.14-4.46,7,7,0,0,1,3.37-3.55,6.45,6.45,0,0,1,2.88-.67,6.91,6.91,0,0,1,2.23.37,11,11,0,0,1,4.54,3.19,11.36,11.36,0,0,0-4.22-4,7.92,7.92,0,0,0-3.64-.88,7.64,7.64,0,0,0-2.41.38,9.21,9.21,0,0,0-5,3.92,8.82,8.82,0,0,0-1.15,6.62,10.8,10.8,0,0,0,3.72,5.75,16.11,16.11,0,0,0,5.88,3.19,13.54,13.54,0,0,0,3.78.54,13.23,13.23,0,0,0,3.36-.43,14.84,14.84,0,0,0,6.31-3.56,16.61,16.61,0,0,0,5-13.24,17,17,0,0,0-2.17-7,19.79,19.79,0,0,0-4.57-5.35,25.94,25.94,0,0,0-5.65-3.48c-.49-.24-1-.43-1.48-.65l-1.44-.54c-.95-.37-1.92-.67-2.88-1a79,79,0,0,0-11.66-2.63,168.76,168.76,0,0,0-23.23-1.48H93.12c-6.89,0-13.75.14-20.6.29-7.35.14-14.69.26-22,.26-7.92,0-15.84-.14-23.76-.56Z" style="fill:url(#linear-gradient-10)"/><path d="M29.3,98.94l2.75.24.5,0,6.15.47,1.36.11c3.6.28,7.32.57,11,.94a233.82,233.82,0,0,1,24.49,3.4c2,.38,4,.82,6.06,1.33s3.94,1,6,1.63a62,62,0,0,1,11.62,4.72,33,33,0,0,1,10,8,24.31,24.31,0,0,1,5.33,12A24,24,0,0,1,112.61,145a26.7,26.7,0,0,1-8.29,10.39,23.19,23.19,0,0,1-12.59,4.75q-.56,0-1.11,0a19.62,19.62,0,0,1-5.77-.86,20.15,20.15,0,0,1-6.1-3,23.69,23.69,0,0,1-4.8-4.68,18.86,18.86,0,0,1-3.11-6,16.08,16.08,0,0,1-.6-6.63,15.24,15.24,0,0,1,2.15-6.12,13.79,13.79,0,0,1,4.42-4.44,12.21,12.21,0,0,1,1.77-.89,13.49,13.49,0,0,0-4.7,6.25,13.94,13.94,0,0,0,.45,10.7,16.6,16.6,0,0,0,3,4.38,21.32,21.32,0,0,0,4.17,3.38,16.37,16.37,0,0,0,8.66,2.5c.41,0,.82,0,1.19,0a19.56,19.56,0,0,0,9.82-3.61,22.21,22.21,0,0,0,7.07-8.1,18.72,18.72,0,0,0,2-10.59,20.05,20.05,0,0,0-4.25-10,30.6,30.6,0,0,0-8.66-7.3c-6-3.53-13.57-6.08-22.48-7.58a117.58,117.58,0,0,0-12-1.34c-3.14-.23-6.56-.34-10.79-.34H50.8c-4.29.06-8.25.24-12.09.53-1.52.11-3.05.26-4.54.4l-1.53.15h0l-3.29.38V98.94m-2.57-2.86v14.08l6.15-.7c2-.19,4-.41,6-.54,4-.31,8-.47,12-.53h1.29c3.55,0,7.08.07,10.6.32A116.88,116.88,0,0,1,74.46,110c7.7,1.3,15.28,3.55,21.6,7.26A28.33,28.33,0,0,1,104,124a17.64,17.64,0,0,1,3.72,8.75,16.32,16.32,0,0,1-1.74,9.12A19.79,19.79,0,0,1,99.71,149a17,17,0,0,1-8.48,3.14c-.35,0-.69,0-1,0a13.85,13.85,0,0,1-7.31-2.12,19.34,19.34,0,0,1-3.67-3,14.43,14.43,0,0,1-2.55-3.69,11.28,11.28,0,0,1-.36-8.72,10.31,10.31,0,0,1,6.64-6.45,9,9,0,0,1,2.68-.39,11,11,0,0,1,2.58.32,18,18,0,0,1,5.42,2.4,15.3,15.3,0,0,0-4.53-4.46,12.64,12.64,0,0,0-6.59-1.91h-.06a13.48,13.48,0,0,0-7,2,16.22,16.22,0,0,0-5.25,5.27,17.63,17.63,0,0,0-2.52,7.17,18.6,18.6,0,0,0,.69,7.7,21.69,21.69,0,0,0,3.53,6.78,26.13,26.13,0,0,0,5.32,5.18,22.72,22.72,0,0,0,6.89,3.44,22.05,22.05,0,0,0,6.5,1c.42,0,.84,0,1.25,0a25.88,25.88,0,0,0,14-5.27A29.2,29.2,0,0,0,115,146.05a26.48,26.48,0,0,0,2.11-14.56,27.13,27.13,0,0,0-5.88-13.29,35.6,35.6,0,0,0-10.77-8.64,65,65,0,0,0-12.09-4.92q-3.06-.94-6.15-1.68c-2.05-.5-4.11-1-6.17-1.35a243.33,243.33,0,0,0-24.73-3.44c-4.13-.41-8.25-.72-12.37-1l-6.17-.47c-2-.17-4.1-.34-6-.58Z" style="fill:url(#linear-gradient-11)"/><path d="M105.57,44.4a21,21,0,0,1,8.61,1.9,17.9,17.9,0,0,1,9,8.73,16,16,0,0,1,1.48,6.33,19,19,0,0,1-1,6.4,24.63,24.63,0,0,1-2.67,5.6l-.43.66-.52.73a12.35,12.35,0,0,1-.78,1l-.19.23a20.7,20.7,0,0,1-2.22,2.18A34.8,34.8,0,0,1,106.41,84a74.35,74.35,0,0,1-11.23,3.07c-3.58.71-7.31,1.27-11.4,1.71-3.75.42-7.6.74-11.44,1-6.14.37-12.76.55-20.26.55s-15.34-.19-22.83-.37l.1-2.49c2.81.17,5.7.32,8.77.46,3.91.14,7.73.23,11.38.26,6.25,0,14.48-.09,22.69-.8,4.38-.37,8-.78,11.25-1.27,4-.61,7.58-1.31,11-2.16A71.25,71.25,0,0,0,105,80.49,31.42,31.42,0,0,0,114.15,75a17,17,0,0,0,1.76-1.83l.07-.1.16-.2c.16-.21.36-.47.55-.77l.25-.38a.83.83,0,0,0,.08-.12l.31-.52a19.68,19.68,0,0,0,2-4.71,13.61,13.61,0,0,0-.61-9.34,16.39,16.39,0,0,0-6.35-7.14,17.3,17.3,0,0,0-9-2.58l-.88,0a15.53,15.53,0,0,0-9.73,4,11.16,11.16,0,0,0-3.66,6,9,9,0,0,1,.2-1.46,12.3,12.3,0,0,1,2.58-5.19,17.53,17.53,0,0,1,10.14-6,19.72,19.72,0,0,1,3.53-.32m0-2.57a22.56,22.56,0,0,0-4,.36A20.06,20.06,0,0,0,89.91,49.1a14.72,14.72,0,0,0-3.11,6.29,11.7,11.7,0,0,0,.67,7,11.51,11.51,0,0,0,4.41,5.15,10.17,10.17,0,0,0,5.42,1.6c.31,0,.62,0,.93,0a9.75,9.75,0,0,0,3.09-.83,11.48,11.48,0,0,0,2.56-1.69A15,15,0,0,0,107.35,62a15.45,15.45,0,0,1-4.21,3.65,8.84,8.84,0,0,1-4.23,1.18c-.24,0-.48,0-.71,0A7.6,7.6,0,0,1,91.67,61a7.68,7.68,0,0,1,2.82-7.62,13.06,13.06,0,0,1,8.14-3.4l.76,0a14.58,14.58,0,0,1,7.63,2.2,13.8,13.8,0,0,1,5.35,6,11.1,11.1,0,0,1,.49,7.62,16.91,16.91,0,0,1-1.76,4.1l-.3.51-.28.42a9.56,9.56,0,0,1-.6.82,13.58,13.58,0,0,1-1.49,1.56,29.31,29.31,0,0,1-8.39,5,69.62,69.62,0,0,1-10.18,3.29c-3.53.86-7.15,1.55-10.81,2.1s-7.37.94-11.08,1.26c-7.44.64-14.95.79-22.47.79q-5.64-.06-11.28-.27c-3.77-.16-7.52-.36-11.33-.61l-.32,7.72c8.46.21,17,.44,25.51.44,6.79,0,13.6-.14,20.42-.55q5.77-.33,11.56-1c3.87-.42,7.74-1,11.62-1.75A76.9,76.9,0,0,0,107.3,86.4a37.38,37.38,0,0,0,11.25-6.29,23.44,23.44,0,0,0,2.52-2.47c.39-.47.79-.92,1.14-1.43l.53-.75.45-.7a26.85,26.85,0,0,0,3-6.22,21.68,21.68,0,0,0,1.08-7.24,18.59,18.59,0,0,0-1.73-7.36,20.6,20.6,0,0,0-10.27-10,23.38,23.38,0,0,0-9.67-2.12ZM107.35,62Z" style="fill:url(#linear-gradient-12)"/></g></g></svg>