<svg id="C_Label_-_On" data-name="C Label - On" xmlns="http://www.w3.org/2000/svg" viewBox="0 0 28 27"><title>C Label On</title><g id="C_Label" data-name="C Label"><path d="M6.27,12.22a10,10,0,0,1-1.79.17,7.49,7.49,0,0,1-2.17-.31A3,3,0,0,1,.77,10.64a4.76,4.76,0,0,1-.21-1c0-.21-.05-.51-.07-.89s0-.73,0-1A7.64,7.64,0,0,1,.67,5.85a2.78,2.78,0,0,1,1-1.38,3.66,3.66,0,0,1,1.68-.72l.45,0c.35,0,.81,0,1.37,0a5.13,5.13,0,0,1,1.43.17l.63.25a2.71,2.71,0,0,1,1,.59A2.52,2.52,0,0,1,9,6.34a4.22,4.22,0,0,1,.07.91v.63Q9.1,11.27,7,12A4.15,4.15,0,0,1,6.27,12.22Zm.28-6.79a5.89,5.89,0,0,0-1.72-.21,7.89,7.89,0,0,0-1.64.14A1.63,1.63,0,0,0,2.07,6.65C2,7.17,2,7.55,2,7.81L2,9.28a1.7,1.7,0,0,0,.35,1.07,1.33,1.33,0,0,0,1,.5,11.34,11.34,0,0,0,2.31-.07.43.43,0,0,0,.17,0,.34.34,0,0,1,.18,0H6a1.25,1.25,0,0,0,1-.47,2.87,2.87,0,0,0,.42-1.1,4.92,4.92,0,0,0,.11-.67c0-.25,0-.47.07-.66a5.36,5.36,0,0,0,.07-.63A1.77,1.77,0,0,0,7.21,6,1.72,1.72,0,0,0,6.55,5.43Z" style="fill:#fff"/><path d="M15.12,15.23c0,1.21-.07,2.05-.07,2.52a10.92,10.92,0,0,0,.45,3.53,3,3,0,0,0,1.79,1.79,8,8,0,0,0,1.71.21,4,4,0,0,0,3.57-1.75,8.93,8.93,0,0,0,1.12-5,6,6,0,0,0,.72,0c.22,0,.42,0,.58,0s.5,0,.87,0a4.93,4.93,0,0,1,.95.07,9.2,9.2,0,0,1,.31,2.35,8.48,8.48,0,0,1-.91,3.9,7.32,7.32,0,0,1-2.57,2.89,7.15,7.15,0,0,1-3.76,1.15,8.74,8.74,0,0,1-1.37.11,8.19,8.19,0,0,1-4.42-1.19,4.55,4.55,0,0,1-2.16-3.57q-.16-3.5-.17-7.49,0-1.86,0-2.91l0-4.23a7,7,0,0,1,1.1-3.87,5.11,5.11,0,0,1,3-2.22A8.93,8.93,0,0,1,18.72,1,7.93,7.93,0,0,1,23,2.16,8.65,8.65,0,0,1,26,5.34a8.76,8.76,0,0,1,1.14,4.39,9.85,9.85,0,0,1-.21,2,10.27,10.27,0,0,1-1.68.17,8.16,8.16,0,0,1-1.68-.21V10.57a9.72,9.72,0,0,0-.39-3,3.28,3.28,0,0,0-1.75-1.86A5,5,0,0,0,18.62,5c-.37,0-.67,0-.88,0-.93,0-1.61.73-2,2a22,22,0,0,0-.56,6.37Z" style="fill:#fff"/></g></svg>