<svg id="Coconut_Button" data-name="Coconut Button" xmlns="http://www.w3.org/2000/svg" xmlns:xlink="http://www.w3.org/1999/xlink" viewBox="0 0 319 325"><defs><linearGradient id="linear-gradient" x1="119.71" y1="116.61" x2="194.17" y2="116.61" gradientUnits="userSpaceOnUse"><stop offset="0" stop-color="#fcd960" stop-opacity="0.2"/><stop offset="0.19" stop-color="#feedb3" stop-opacity="0.1"/><stop offset="0.38" stop-color="#fffaeb" stop-opacity="0.03"/><stop offset="0.51" stop-color="#fff" stop-opacity="0"/><stop offset="0.66" stop-color="#e4f3fa" stop-opacity="0.02"/><stop offset="0.82" stop-color="#97ceea" stop-opacity="0.09"/><stop offset="1" stop-color="#1691d0" stop-opacity="0.2"/><stop offset="1" stop-color="#1390cf" stop-opacity="0.2"/></linearGradient><linearGradient id="linear-gradient-2" x1="126.34" y1="119.77" x2="144.08" y2="119.77" gradientUnits="userSpaceOnUse"><stop offset="0" stop-color="#fff"/><stop offset="0.05" stop-color="#fff" stop-opacity="0.95"/><stop offset="0.53" stop-color="#fff" stop-opacity="0.44"/><stop offset="0.85" stop-color="#fff" stop-opacity="0.12"/><stop offset="1" stop-color="#fff" stop-opacity="0"/></linearGradient><linearGradient id="linear-gradient-3" x1="169.71" y1="119.72" x2="190.62" y2="119.72" gradientUnits="userSpaceOnUse"><stop offset="0" stop-color="#fff" stop-opacity="0"/><stop offset="1" stop-color="#fff"/></linearGradient><radialGradient id="radial-gradient" cx="145.28" cy="127.17" fx="138.54907220012802" fy="119.54339981601777" r="15.6" gradientUnits="userSpaceOnUse"><stop offset="0.05" stop-color="#c26d34"/><stop offset="0.77" stop-color="#8c4d0e"/></radialGradient><linearGradient id="linear-gradient-4" x1="174.81" y1="110.52" x2="177.74" y2="114.02" gradientUnits="userSpaceOnUse"><stop offset="0" stop-color="#9dd168"/><stop offset="1" stop-color="#377734"/></linearGradient><linearGradient id="linear-gradient-5" x1="154.69" y1="111.24" x2="163.28" y2="121.47" xlink:href="#linear-gradient-4"/><linearGradient id="linear-gradient-6" x1="164.33" y1="108.4" x2="166.78" y2="122.28" xlink:href="#linear-gradient-4"/><linearGradient id="linear-gradient-7" x1="153.45" y1="110.59" x2="161.21" y2="124.04" xlink:href="#linear-gradient-4"/><linearGradient id="linear-gradient-8" x1="156.86" y1="151.54" x2="160.21" y2="145.73" gradientUnits="userSpaceOnUse"><stop offset="0.3" stop-color="#9dd168"/><stop offset="1" stop-color="#377734"/></linearGradient><linearGradient id="linear-gradient-9" x1="147.07" y1="151.67" x2="160.04" y2="140.79" gradientUnits="userSpaceOnUse"><stop offset="0.29" stop-color="#9dd168"/><stop offset="1" stop-color="#377734"/></linearGradient><linearGradient id="linear-gradient-10" x1="138.21" y1="141.76" x2="159.43" y2="149.48" gradientUnits="userSpaceOnUse"><stop offset="0.16" stop-color="#9dd168"/><stop offset="1" stop-color="#377734"/></linearGradient><linearGradient id="linear-gradient-11" x1="133.61" y1="134.76" x2="152.15" y2="150.32" gradientUnits="userSpaceOnUse"><stop offset="0.36" stop-color="#9dd168"/><stop offset="1" stop-color="#377734"/></linearGradient><linearGradient id="linear-gradient-12" x1="128.21" y1="137.45" x2="155.25" y2="137.45" gradientUnits="userSpaceOnUse"><stop offset="0.04" stop-color="#9dd168"/><stop offset="1" stop-color="#377734"/></linearGradient><linearGradient id="linear-gradient-13" x1="125.96" y1="134.66" x2="152.58" y2="134.66" gradientUnits="userSpaceOnUse"><stop offset="0.19" stop-color="#9dd168"/><stop offset="1" stop-color="#377734"/></linearGradient><linearGradient id="linear-gradient-14" x1="134.98" y1="133.3" x2="150.47" y2="133.3" gradientUnits="userSpaceOnUse"><stop offset="0.25" stop-color="#9dd168"/><stop offset="1" stop-color="#377734"/></linearGradient><linearGradient id="linear-gradient-15" x1="151.33" y1="141.22" x2="187.21" y2="128.16" gradientUnits="userSpaceOnUse"><stop offset="0" stop-color="#a95f2c"/><stop offset="0.51" stop-color="#8c4d0e"/><stop offset="1" stop-color="#966323"/></linearGradient><linearGradient id="linear-gradient-16" x1="149.56" y1="128.7" x2="183.3" y2="128.7" gradientUnits="userSpaceOnUse"><stop offset="0" stop-color="#d1d6d2"/><stop offset="1" stop-color="#fff"/></linearGradient><linearGradient id="linear-gradient-17" x1="169.09" y1="113.82" x2="163.94" y2="143.07" gradientUnits="userSpaceOnUse"><stop offset="0" stop-color="#fff" stop-opacity="0"/><stop offset="0.23" stop-color="#fff"/><stop offset="0.55" stop-color="#fff" stop-opacity="0"/><stop offset="0.81" stop-color="#fff"/><stop offset="1" stop-color="#fff" stop-opacity="0"/></linearGradient><linearGradient id="linear-gradient-18" x1="149.95" y1="134.52" x2="182.93" y2="122.52" gradientUnits="userSpaceOnUse"><stop offset="0" stop-color="#fff"/><stop offset="0.3" stop-color="#fff" stop-opacity="0"/></linearGradient><linearGradient id="linear-gradient-20" x1="154.34" y1="128.2" x2="178.82" y2="128.2" gradientUnits="userSpaceOnUse"><stop offset="0" stop-color="#e6e6e6"/><stop offset="1" stop-color="#b5b29d"/></linearGradient><linearGradient id="linear-gradient-21" x1="168.46" y1="117.37" x2="164.73" y2="138.5" xlink:href="#linear-gradient-3"/><radialGradient id="radial-gradient-2" cx="166.58" cy="128.2" fy="137.86238417155647" r="18.26" gradientUnits="userSpaceOnUse"><stop offset="0.22" stop-color="#fff" stop-opacity="0.6"/><stop offset="0.57" stop-color="#989785"/></radialGradient><linearGradient id="linear-gradient-22" x1="168.48" y1="117.26" x2="164.71" y2="138.6" gradientUnits="userSpaceOnUse"><stop offset="0" stop-color="#515254"/><stop offset="1" stop-color="#fff"/></linearGradient><linearGradient id="linear-gradient-23" x1="119.21" y1="129.08" x2="196.12" y2="129.08" gradientUnits="userSpaceOnUse"><stop offset="0" stop-color="#ffc42c" stop-opacity="0"/><stop offset="0.01" stop-color="#ffc83a" stop-opacity="0.07"/><stop offset="0.03" stop-color="#ffd66d" stop-opacity="0.31"/><stop offset="0.05" stop-color="#ffe39a" stop-opacity="0.52"/><stop offset="0.07" stop-color="#ffedbe" stop-opacity="0.69"/><stop offset="0.09" stop-color="#fff5da" stop-opacity="0.83"/><stop offset="0.11" stop-color="#fffaef" stop-opacity="0.92"/><stop offset="0.13" stop-color="#fffefb" stop-opacity="0.98"/><stop offset="0.14" stop-color="#fff"/><stop offset="0.21" stop-color="#fcfbfa" stop-opacity="0.99"/><stop offset="0.29" stop-color="#f1efed" stop-opacity="0.94"/><stop offset="0.37" stop-color="#e0dbd7" stop-opacity="0.87"/><stop offset="0.46" stop-color="#c8bfb7" stop-opacity="0.77"/><stop offset="0.54" stop-color="#aa9a8f" stop-opacity="0.65"/><stop offset="0.63" stop-color="#846e5d" stop-opacity="0.49"/><stop offset="0.72" stop-color="#593b24" stop-opacity="0.31"/><stop offset="0.77" stop-color="#3d1a00" stop-opacity="0.2"/><stop offset="0.91" stop-color="#268195" stop-opacity="0.51"/><stop offset="1" stop-color="#17c2f2" stop-opacity="0.7"/></linearGradient><linearGradient id="linear-gradient-24" x1="134.19" y1="55.78" x2="180.81" y2="81.63" gradientUnits="userSpaceOnUse"><stop offset="0" stop-opacity="0.5"/><stop offset="0.22" stop-color="#231f20" stop-opacity="0.1"/><stop offset="0.99" stop-opacity="0.5"/></linearGradient><linearGradient id="linear-gradient-25" x1="128.51" y1="69.64" x2="186.49" y2="69.64" gradientUnits="userSpaceOnUse"><stop offset="0" stop-color="#fff" stop-opacity="0.4"/><stop offset="0" stop-color="#fff" stop-opacity="0.43"/><stop offset="0.04" stop-color="#fff" stop-opacity="0.63"/><stop offset="0.07" stop-color="#fff" stop-opacity="0.79"/><stop offset="0.1" stop-color="#fff" stop-opacity="0.91"/><stop offset="0.13" stop-color="#fff" stop-opacity="0.98"/><stop offset="0.15" stop-color="#fff"/><stop offset="0.18" stop-color="#fff" stop-opacity="0.98"/><stop offset="0.22" stop-color="#fff" stop-opacity="0.93"/><stop offset="0.26" stop-color="#fff" stop-opacity="0.84"/><stop offset="0.29" stop-color="#fff" stop-opacity="0.71"/><stop offset="0.33" stop-color="#fff" stop-opacity="0.55"/><stop offset="0.38" stop-color="#fff" stop-opacity="0.36"/><stop offset="0.4" stop-color="#fff" stop-opacity="0.2"/><stop offset="0.48" stop-color="#fff" stop-opacity="0.21"/><stop offset="0.54" stop-color="#fff" stop-opacity="0.26"/><stop offset="0.61" stop-color="#fff" stop-opacity="0.33"/><stop offset="0.67" stop-color="#fff" stop-opacity="0.44"/><stop offset="0.73" stop-color="#fff" stop-opacity="0.57"/><stop offset="0.79" stop-color="#fff" stop-opacity="0.73"/><stop offset="0.85" stop-color="#fff" stop-opacity="0.92"/><stop offset="0.87" stop-color="#fff"/><stop offset="1" stop-color="#fff" stop-opacity="0.7"/></linearGradient><linearGradient id="linear-gradient-26" x1="132.96" y1="62.09" x2="142.62" y2="62.09" gradientUnits="userSpaceOnUse"><stop offset="0" stop-color="#fff"/><stop offset="0.35" stop-color="#fff" stop-opacity="0.61"/><stop offset="0.67" stop-color="#fff" stop-opacity="0.28"/><stop offset="0.89" stop-color="#fff" stop-opacity="0.08"/><stop offset="1" stop-color="#fff" stop-opacity="0"/></linearGradient><linearGradient id="linear-gradient-27" x1="-133.66" y1="61.88" x2="-148.5" y2="61.88" gradientTransform="matrix(-1, 0, 0, 1, 36.12, 0)" xlink:href="#linear-gradient-3"/><linearGradient id="linear-gradient-28" x1="156.45" y1="57.28" x2="158.83" y2="43.75" gradientUnits="userSpaceOnUse"><stop offset="0" stop-color="#fff"/><stop offset="0.11" stop-color="#fff" stop-opacity="0.98"/><stop offset="0.23" stop-color="#fff" stop-opacity="0.93"/><stop offset="0.36" stop-color="#fff" stop-opacity="0.84"/><stop offset="0.5" stop-color="#fff" stop-opacity="0.71"/><stop offset="0.64" stop-color="#fff" stop-opacity="0.55"/><stop offset="0.78" stop-color="#fff" stop-opacity="0.36"/><stop offset="0.92" stop-color="#fff" stop-opacity="0.13"/><stop offset="0.99" stop-color="#fff" stop-opacity="0"/></linearGradient><linearGradient id="linear-gradient-29" x1="141.66" y1="200.05" x2="184.26" y2="200.05" gradientUnits="userSpaceOnUse"><stop offset="0" stop-color="#b3b3b3"/><stop offset="0.02" stop-color="#b9b9b9"/><stop offset="0.11" stop-color="#d8d8d8"/><stop offset="0.19" stop-color="#ebebeb"/><stop offset="0.24" stop-color="#f2f2f2"/><stop offset="0.52" stop-color="#a3a3a3"/><stop offset="0.65" stop-color="gray"/><stop offset="0.74" stop-color="#868686"/><stop offset="0.86" stop-color="#969698"/><stop offset="0.99" stop-color="#b2b2b5"/><stop offset="1" stop-color="#b3b3b7"/></linearGradient><linearGradient id="linear-gradient-30" x1="185.05" y1="197.81" x2="232.8" y2="157.74" gradientUnits="userSpaceOnUse"><stop offset="0" stop-color="#999"/><stop offset="0.12" stop-color="#cacaca"/><stop offset="0.24" stop-color="#fff"/><stop offset="0.28" stop-color="#f6f6f6"/><stop offset="0.56" stop-color="#c4c4c4"/><stop offset="0.77" stop-color="#a5a5a5"/><stop offset="0.89" stop-color="#999"/><stop offset="1" stop-color="#ccc"/></linearGradient><linearGradient id="linear-gradient-31" x1="156.28" y1="181.02" x2="169.61" y2="204.1" gradientUnits="userSpaceOnUse"><stop offset="0" stop-color="#ccc"/><stop offset="0.15" stop-color="#dadada"/><stop offset="0.4" stop-color="#ececec"/><stop offset="0.58" stop-color="#f2f2f2"/><stop offset="1" stop-color="#666"/></linearGradient><linearGradient id="linear-gradient-32" x1="150.83" y1="196.96" x2="154.76" y2="203.76" gradientUnits="userSpaceOnUse"><stop offset="0" stop-color="#fff" stop-opacity="0"/><stop offset="0.07" stop-color="#fff" stop-opacity="0.19"/><stop offset="0.16" stop-color="#fff" stop-opacity="0.44"/><stop offset="0.25" stop-color="#fff" stop-opacity="0.64"/><stop offset="0.33" stop-color="#fff" stop-opacity="0.79"/><stop offset="0.4" stop-color="#fff" stop-opacity="0.91"/><stop offset="0.47" stop-color="#fff" stop-opacity="0.98"/><stop offset="0.51" stop-color="#fff"/><stop offset="1" stop-color="#fff" stop-opacity="0"/></linearGradient><linearGradient id="linear-gradient-33" x1="157.5" y1="180.23" x2="169.89" y2="201.68" gradientUnits="userSpaceOnUse"><stop offset="0.25" stop-color="#fff"/><stop offset="0.35" stop-color="#fdfdfd" stop-opacity="0.98"/><stop offset="0.44" stop-color="#f9f9f9" stop-opacity="0.94"/><stop offset="0.54" stop-color="#f1f1f1" stop-opacity="0.86"/><stop offset="0.63" stop-color="#e6e6e6" stop-opacity="0.75"/><stop offset="0.72" stop-color="#d8d8d8" stop-opacity="0.62"/><stop offset="0.81" stop-color="#c6c6c6" stop-opacity="0.45"/><stop offset="0.9" stop-color="#b2b2b2" stop-opacity="0.24"/><stop offset="0.99" stop-color="#9b9b9b" stop-opacity="0.02"/><stop offset="1" stop-color="#999" stop-opacity="0"/></linearGradient><radialGradient id="radial-gradient-3" cx="157.36" cy="183.74" fy="174.31486957282362" r="10.03" gradientTransform="translate(-64.34 104.9) rotate(-28.45) scale(1 0.95)" gradientUnits="userSpaceOnUse"><stop offset="0.21" stop-color="#fff" stop-opacity="0"/><stop offset="1" stop-color="#989785" stop-opacity="0.3"/></radialGradient><radialGradient id="radial-gradient-4" cx="-136.56" cy="189.94" fy="183.44727871768234" r="6.57" gradientTransform="matrix(-0.62, 0.78, 1.18, 0.93, -141.71, 119.99)" gradientUnits="userSpaceOnUse"><stop offset="0" stop-color="#fff" stop-opacity="0"/><stop offset="0.29" stop-color="#c6c5bc" stop-opacity="0.11"/><stop offset="0.61" stop-color="#a3a292" stop-opacity="0.18"/><stop offset="1" stop-color="#989785" stop-opacity="0.2"/></radialGradient><linearGradient id="linear-gradient-34" x1="165.84" y1="179.94" x2="173.74" y2="193.63" gradientUnits="userSpaceOnUse"><stop offset="0" stop-color="#fff"/><stop offset="0.09" stop-color="#fdfefe" stop-opacity="0.97"/><stop offset="0.23" stop-color="#f9f9fa" stop-opacity="0.9"/><stop offset="0.41" stop-color="#f2f3f3" stop-opacity="0.77"/><stop offset="0.6" stop-color="#e9eaea" stop-opacity="0.6"/><stop offset="0.8" stop-color="#dedfe0" stop-opacity="0.4"/><stop offset="1" stop-color="#fff"/></linearGradient><radialGradient id="radial-gradient-5" cx="160.63" cy="197.59" fy="189.810854516552" r="7.87" gradientTransform="translate(293.8 -112.56) rotate(51.65) scale(1 1.5)" xlink:href="#radial-gradient-4"/></defs><title>Coconut Button</title><path id="Button_Back_2" data-name="Button Back 2" d="M308.34,6.36C215-2.57,117.7-2.1,17,20.25.68,121.5-5.89,215.49,10.27,322.57c99.32,2.38,198.88,2.35,291.49-.21C324.63,241.64,319.87,128,308.34,6.36Z" style="fill:#94ad00;fill-rule:evenodd"/><path id="Button_Back_1" data-name="Button Back 1" d="M298.34,23.36C205,14.43,134.7,7.9,34,30.25,16.54,134.07,3.86,203.91,23.27,302.57c99.32,2.38,168.88,12.35,261.49,9.79C307.63,231.64,309.87,145,298.34,23.36Z" style="fill:#bfcd6c;fill-rule:evenodd"/><g id="Content"><path id="Backdrop" d="M267.67,93.71a107.21,107.21,0,0,1-202,72C45.83,110,91.88,172.8,147.65,152.91S247.78,38,267.67,93.71Z" style="fill:#fff;opacity:0.2"/><path id="Label_Back" data-name="Label Back" d="M75.87,245.78a276,276,0,0,1,38.85-10.28,313.58,313.58,0,0,1,39.76-4.92,309.77,309.77,0,0,1,40.41.19,274.16,274.16,0,0,1,40.84,5.94l-16.5,57.72a214.43,214.43,0,0,0-31.46-8.8,257.59,257.59,0,0,0-33.25-4.46,266.25,266.25,0,0,0-33.9-.18,233.36,233.36,0,0,0-33.48,4.37Z" style="fill:#94ad00"/><g id="Label"><path d="M103.3,260.46c0,1.22-.07,2.06-.07,2.52a11,11,0,0,0,.45,3.54,3,3,0,0,0,1.79,1.78,8,8,0,0,0,1.71.21,4,4,0,0,0,3.57-1.75,8.89,8.89,0,0,0,1.12-5,4.45,4.45,0,0,0,.72,0l.58,0q.31,0,.87,0a4.22,4.22,0,0,1,.95.07,9.07,9.07,0,0,1,.31,2.34,8.55,8.55,0,0,1-.91,3.91,7.27,7.27,0,0,1-6.33,4,8.84,8.84,0,0,1-1.37.1,8.1,8.1,0,0,1-4.42-1.19,4.51,4.51,0,0,1-2.16-3.57q-.17-3.5-.17-7.49c0-1.23,0-2.2,0-2.9l0-4.24a7,7,0,0,1,1.1-3.86,5.09,5.09,0,0,1,3-2.23,8.92,8.92,0,0,1,2.8-.45,8,8,0,0,1,4.24,1.17,8.6,8.6,0,0,1,3.06,3.19,8.74,8.74,0,0,1,1.14,4.39,9.76,9.76,0,0,1-.21,2,10.47,10.47,0,0,1-1.68.18,8.16,8.16,0,0,1-1.68-.21v-1.12a9.79,9.79,0,0,0-.39-3.05,3.27,3.27,0,0,0-1.75-1.85,4.94,4.94,0,0,0-2.83-.67c-.38,0-.67,0-.88,0-.93.05-1.61.72-2,2a22,22,0,0,0-.56,6.37Z" style="fill:#fff"/><path d="M117.47,260.29a16.19,16.19,0,0,1,.13-2.24,11.86,11.86,0,0,1,.61-2.35,3.05,3.05,0,0,1,1.94-1.52,10.13,10.13,0,0,1,3.31-.51,4.16,4.16,0,0,0,.7,0l1.4,0a6.21,6.21,0,0,1,4.51,1.54,2.77,2.77,0,0,1,1,1.58,13.62,13.62,0,0,1,.4,3.1c0,1.29.07,2,.07,2.25-.1,2.34-.21,4.19-.33,5.57a4.7,4.7,0,0,1-.79,2.66,3.35,3.35,0,0,1-1.84,1.29,9.55,9.55,0,0,1-2.78.35c-.42,0-1,0-1.89-.07l-1.61,0a5.15,5.15,0,0,1-3.1-1.51,5.52,5.52,0,0,1-1.33-2.69,19.72,19.72,0,0,1-.3-3.71v-1.82A17.23,17.23,0,0,0,117.47,260.29Zm7.14-3.33a4.29,4.29,0,0,0-3.43,1.23,2.81,2.81,0,0,0-.57,1.42,12.18,12.18,0,0,0-.09,2.22,9.66,9.66,0,0,0,0,1.4c0,.58,0,1,0,1.36l.07,1.47a2.72,2.72,0,0,0,.79,2,3.69,3.69,0,0,0,1.73.79,9.54,9.54,0,0,0,1.43.1,5.35,5.35,0,0,0,2.38-.49,2.31,2.31,0,0,0,1.3-1.61,10.37,10.37,0,0,0,.14-1.43c.11-1.64.17-2.74.17-3.33a7.18,7.18,0,0,0-.84-3.71A3.37,3.37,0,0,0,124.61,257Z" style="fill:#fff"/><path d="M144.77,264.8a4.4,4.4,0,0,0,.77.07l1.23,0a4.1,4.1,0,0,1,1,.1c-.12,1.61-.24,2.86-.37,3.75a3.26,3.26,0,0,1-.61,1.75,3.35,3.35,0,0,1-1.84,1.29,9.55,9.55,0,0,1-2.78.35c-.42,0-1.05,0-1.89-.07l-1.61,0a4.92,4.92,0,0,1-3.08-1.56,5.85,5.85,0,0,1-1.31-2.85,32,32,0,0,1-.41-4.34c0-1.31,0-2.26,0-2.87a15.62,15.62,0,0,1,.77-4.59,3.05,3.05,0,0,1,1.94-1.52,10.13,10.13,0,0,1,3.31-.51,5.43,5.43,0,0,0,.8,0l.79,0c.32,0,.69,0,1.14,0a6.21,6.21,0,0,1,3.88,1.47,2.67,2.67,0,0,1,1,1.78,25.55,25.55,0,0,1,.29,3.68l0,.84a5.33,5.33,0,0,1-1,.1,9.9,9.9,0,0,1-1.86-.17,5.14,5.14,0,0,0-.89-3.4,3.6,3.6,0,0,0-2.71-.91c-.26,0-.71,0-1.37.07a7.07,7.07,0,0,0-1.41.18,1.66,1.66,0,0,0-.9.66,3.94,3.94,0,0,0-.56,1.61,22.18,22.18,0,0,0-.1,2.63v2.8a4.63,4.63,0,0,0,.56,2.4,2.87,2.87,0,0,0,2.52,1.41,7.9,7.9,0,0,0,.94,0,3.93,3.93,0,0,0,2.45-.63,2.87,2.87,0,0,0,1-1.45A9.91,9.91,0,0,0,144.77,264.8Z" style="fill:#fff"/><path d="M150,260.29a18.11,18.11,0,0,1,.12-2.24,12.74,12.74,0,0,1,.62-2.35,3.05,3.05,0,0,1,1.94-1.52,10.13,10.13,0,0,1,3.31-.51,4.16,4.16,0,0,0,.7,0l1.4,0a6.21,6.21,0,0,1,4.51,1.54,2.72,2.72,0,0,1,1,1.58,13,13,0,0,1,.41,3.1c0,1.29.07,2,.07,2.25-.1,2.34-.21,4.19-.34,5.57a4.64,4.64,0,0,1-.78,2.66,3.35,3.35,0,0,1-1.84,1.29,9.55,9.55,0,0,1-2.78.35c-.42,0-1,0-1.89-.07l-1.61,0a5.15,5.15,0,0,1-3.1-1.51,5.52,5.52,0,0,1-1.33-2.69,19.72,19.72,0,0,1-.3-3.71v-1.82A17.23,17.23,0,0,0,150,260.29Zm7.14-3.33a4.29,4.29,0,0,0-3.43,1.23,2.91,2.91,0,0,0-.58,1.42,13.31,13.31,0,0,0-.08,2.22,11,11,0,0,0,0,1.4c0,.58.06,1,.06,1.36l.07,1.47a2.76,2.76,0,0,0,.78,2,3.78,3.78,0,0,0,1.74.79,9.54,9.54,0,0,0,1.43.1,5.35,5.35,0,0,0,2.38-.49,2.31,2.31,0,0,0,1.3-1.61,10.37,10.37,0,0,0,.14-1.43c.11-1.64.17-2.74.17-3.33a7.18,7.18,0,0,0-.84-3.71A3.37,3.37,0,0,0,157.16,257Z" style="fill:#fff"/><path d="M170.15,254.27a6.39,6.39,0,0,1,.07,1v.87a15,15,0,0,1,2.8-1.24,10,10,0,0,1,3.22-.54,5.15,5.15,0,0,1,3.15,1.08q.84.73.84,6c0,.89,0,2.26-.07,4.13s-.07,3.06-.07,3.85c0,1,0,1.76,0,2.2a13,13,0,0,1-1.92.11H177c0-.37-.07-1-.07-2v-1.51l0-2.24c0-1.51.05-2.6,0-3.25q0-.21-.09-1.44a8.56,8.56,0,0,0-.4-2.17c-.07-.81-.64-1.19-1.71-1.12a8,8,0,0,0-3.56.67A2.65,2.65,0,0,0,170,261c0,.31,0,.88,0,1.72,0,1.31,0,2.71.07,4.2.05.89.07,1.54.07,2,0,.86,0,1.75-.1,2.66v.14a6,6,0,0,1-1.32.12l-.92,0a6.73,6.73,0,0,0-.88,0l0-6q-.08-4.12-.07-6.2c0-1.12,0-2.89.07-5.32a9.37,9.37,0,0,0,1,0,7.67,7.67,0,0,0,.91,0l.49,0a5.09,5.09,0,0,1,.56,0C170,254.16,170.15,254.2,170.15,254.27Z" style="fill:#fff"/><path d="M193.42,271.66c0-.44,0-.81,0-1.1s0-.54,0-.75l-.56.38a4.27,4.27,0,0,1-1.57.6,11.6,11.6,0,0,1-4,.73,4.49,4.49,0,0,1-3.25-1,2.7,2.7,0,0,1-.74-1.76c-.09-.83-.15-2.16-.17-4v-1.08c0-.72,0-1.79.07-3.19s.1-2.73.1-4c0-.6,0-1.35-.07-2.24.42,0,1-.07,1.72-.07h1.15c.07.7.11,1.53.11,2.49l0,2.83c0,.94,0,1.61,0,2l0,1c0,.84,0,1.82.11,2.94a3.42,3.42,0,0,0,.47,1.75A2,2,0,0,0,188,268a8.56,8.56,0,0,0,1.29.1,4.24,4.24,0,0,0,3.17-1.12,4.3,4.3,0,0,0,1.14-3c0-.84,0-2.37-.11-4.59,0-1.12-.07-1.85-.07-2.2,0-.63,0-1.53.07-2.7v-.14a6.23,6.23,0,0,1,1.07-.17l.61,0q.74,0,1.26,0l0,6c0,2.75.07,4.82.07,6.19,0,1.12,0,2.9-.07,5.32a15.73,15.73,0,0,0-1.72.11l-.44,0a3.12,3.12,0,0,1-.54,0C193.54,271.77,193.42,271.73,193.42,271.66Z" style="fill:#fff"/><path d="M205.71,247.69V253l0,2q2.28-.06,5.64-.24a1.87,1.87,0,0,1,.21,1.05l0,.8a5.59,5.59,0,0,0,0,1.12c-2.55,0-4.45,0-5.71,0v6.54c0,1.05,0,1.8.07,2.24a4.11,4.11,0,0,0,.28,1.16,3.23,3.23,0,0,0,2.26.87,19.64,19.64,0,0,0,3.1.11c.11.93.17,1.53.17,1.78a5,5,0,0,1-.17,1.26c-.49,0-1.26,0-2.31,0a10.89,10.89,0,0,1-4.27-.67,3.42,3.42,0,0,1-2-2.66,80.58,80.58,0,0,1-.39-8.85v-1.68a10.48,10.48,0,0,1-1.05,0l-2.66,0L199,255c.51,0,1.74.07,3.67.07l0-3.68v-1.64a19.67,19.67,0,0,1,.07-2.07,12,12,0,0,1,1.5,0l1,0A3.78,3.78,0,0,0,205.71,247.69Z" style="fill:#fff"/></g><g id="Coconut"><path d="M189.15,71.35a4.94,4.94,0,0,0,1.7-2.89c0-1-.68-1.45-1.92-2.32-.05-.76-.1-1.86-.1-2.66h-5.15c-6.11-1.93-15.57-1.67-26.2-1.67s-20.08-.43-26.19,1.5l-5.47-.06c0,.89,0,1.75-.08,2.59a3.4,3.4,0,0,0-1.6,2.53,4.23,4.23,0,0,0,1,2.7c-1.4,8.46-4.72,15.27-4.72,22v54.41c0,12.69,9,21.12,23.06,23.06,12.18,1.68,15.82,1.72,28.35,0s23.06-10.37,23.06-23.06V93C194.9,86.88,190.72,80.09,189.15,71.35Z" style="fill:#d8d8d8"/><path d="M188.42,71.35a4.94,4.94,0,0,0,1.7-2.89c0-1-.68-1.45-1.92-2.32,0-.76-.1-1.86-.1-2.66H183c-6.1-1.93-15.56-1.67-26.19-1.67s-20.09-.43-26.2,1.5l-5.47-.06c0,.89,0,1.75-.08,2.59a3.38,3.38,0,0,0-1.59,2.53,4.22,4.22,0,0,0,1,2.7c-1.4,8.46-4.71,15.27-4.71,22v54.41c0,12.69,9,20.94,23,23.06a108.44,108.44,0,0,0,28.35,0c12.55-1.59,23.06-10.37,23.06-23.06V93C194.17,86.88,190,80.09,188.42,71.35Z" style="fill:url(#linear-gradient)"/><path d="M190.54,70.94a3.22,3.22,0,0,0,1.37-2.38c0-1-.7-2-2-2.87,0-.79-.07-1.59-.07-2.42h-5.32c-6.3-2-16.07-3.26-27.05-3.26s-20.75,1.27-27,3.26h-5.66c0,.92,0,1.81-.08,2.67A3.5,3.5,0,0,0,123,68.56a3.07,3.07,0,0,0,1.11,2.16c-1.44,8.74-4.94,14.62-4.94,21.54v56.2c0,13.1,9.29,21.81,23.82,23.82a106.62,106.62,0,0,0,29.27,0c12.95-1.72,23.82-10.72,23.82-23.82V92.26C196.12,85.89,192.17,80,190.54,70.94ZM193,147.05c0,12.3-9.6,19.83-21.75,21.55-10.51,1.48-17.75,1.7-27.33.32-13.63-2-21.81-10-21.81-22.28V92.14c0-6.51,3.35-13,4.71-21.21a3.44,3.44,0,0,1-1.12-2.26,3.07,3.07,0,0,1,1.46-2.4c0-.82.14-2,.14-2.82l4.78,0c5.93-1.87,15.11,0,25.42,0s19.49-1.89,25.41,0l4.37.26c0,.78.06,2.07.1,2.8,1.21.85,1.53,1.31,1.53,2.26a2.73,2.73,0,0,1-1.13,2.17c1.53,8.48,5.14,15.14,5.14,21.13Z" style="fill:gray"/><path d="M133.23,72.71c-.53,0-6.86,13.52-6.86,21.16s-.7,54,3.95,63.44c4.32,8.79,14.64,10.58,13.71,9-7.95-13.25-4.91-60.18-3.65-73.34.69-7.16,2.92-19.06,1.29-19.39A81.44,81.44,0,0,0,133.23,72.71Z" style="opacity:0.5;fill:url(#linear-gradient-2)"/><path d="M129.73,71.88c-.53,0-5.3,13.84-5.3,21.48s-2.15,54.39,2.5,63.84c4.32,8.8,21.22,11.31,20.29,9.76-7.95-13.25-16.75-63-15.49-76.2.68-7.16,5.34-17.51,4.48-17.64C133.57,72.72,132,72.07,129.73,71.88Z" style="fill:#fff;opacity:0.30000000000000004"/><path d="M184.64,72.26c.53,0,6,14.79,5.82,19.47-.28,7.63,1.62,56.4-3,65.85-4.33,8.8-18.51,10.66-17.58,9.11,7.95-13.25,5.46-61.41,4.2-74.58-.68-7.16-6.12-18.3-3.76-18.35C175,73.68,182.39,72.45,184.64,72.26Z" style="opacity:0.7000000000000001;fill:url(#linear-gradient-3)"/><path d="M157.29,108.16a112.49,112.49,0,0,1-37-6.67v48.88c9.13,7.86,63.47,8.62,74.38,0l.19-47.93C188.49,104.72,173.9,108.16,157.29,108.16Z" style="fill:#f2f279"/><path d="M157.82,105.76c-17.46,0-32.41-2.7-38.61-6.1v51.63c9,9,66.72,10.19,76.91,0V99.83C189.74,103.15,175,105.76,157.82,105.76Zm35,43.55c-10.41,8.22-62.08,7.61-70.8.11V103.5a112.46,112.46,0,0,0,35.31,5.63c15.85,0,29.53-2.25,35.61-4.42Z" style="fill:#8e8730"/><g id="Layer_18_copy_3" data-name="Layer 18 copy 3"><path d="M146.08,141.83c-9.23,0-16.73-6.51-16.73-14.51a2.72,2.72,0,0,0-.86-1.57c-.29-.34-.69-.81-.65-1,.09-.44.75-1,1.33-1.47a4.89,4.89,0,0,0,1.43-1.51c2.54-5.62,8.61-9.24,15.48-9.24,9.18,0,16.64,6.57,16.64,14.66S155.26,141.83,146.08,141.83Z" style="fill:url(#radial-gradient)"/><path d="M146.08,112.94c8.94,0,16.22,6.38,16.22,14.23S155,141.4,146.08,141.4s-16.3-6.32-16.3-14.08a3,3,0,0,0-1-1.85,4.64,4.64,0,0,1-.53-.71,4.75,4.75,0,0,1,1.17-1.17,5.12,5.12,0,0,0,1.54-1.67c2.47-5.46,8.39-9,15.09-9m0-.86c-7.2,0-13.35,3.93-15.87,9.49-.45,1-2.59,2-2.79,3.08-.15.8,1.51,1.83,1.51,2.67,0,8.33,7.71,14.94,17.15,14.94s17.07-6.76,17.07-15.09-7.64-15.09-17.07-15.09Z" style="fill:#7c3d13"/><path d="M177.05,108.64c.3,1-.32,6.58-.77,6.58s-2.36-.78-2.07-1S176.69,109.31,177.05,108.64Z" style="stroke:#349934;stroke-miterlimit:10;stroke-width:0.428810672370077px;fill:url(#linear-gradient-4)"/><path d="M163.06,121.08c-2.38-4.32-4.37-11.19-5.75-12,.12,3.85,2.63,12.35,2.91,14S163.06,121.08,163.06,121.08Z" style="stroke:#349934;stroke-miterlimit:10;stroke-width:0.428810672370077px;fill:url(#linear-gradient-5)"/><path d="M168.65,121.15c0-.82-.78-9.81-4.29-12.75.12,3.84-.21,11.85.08,13.53S168.65,121.15,168.65,121.15Z" style="stroke:#349934;stroke-miterlimit:10;stroke-width:0.428810672370077px;fill:url(#linear-gradient-6)"/><path d="M162.08,122.41c-2.38-3.3-4.83-8-7.49-12.48.54,3.92,4.72,12.64,5,14.31S162.08,122.41,162.08,122.41Z" style="stroke:#349934;stroke-miterlimit:10;stroke-width:0.428810672370077px;fill:url(#linear-gradient-7)"/><path d="M157,144.62a21.94,21.94,0,0,1-.31,6.79c1.61-.13,2.61,1.07,6.49-4" style="stroke:#349934;stroke-miterlimit:10;stroke-width:0.428810672370077px;fill:url(#linear-gradient-8)"/><path d="M154,142.36c-1.18,4.67-6.17,7.33-6.48,9.88,1.55-1,10.06-4.65,13.94-9.71" style="stroke:#349934;stroke-miterlimit:10;stroke-width:0.428810672370077px;fill:url(#linear-gradient-9)"/><path d="M154.76,137.86c-3.92,2.26-18.48,10.11-19.73,12.66,4.63-.12,21.35-6.12,27.18-8.69" style="stroke:#349934;stroke-miterlimit:10;stroke-width:0.428810672370077px;fill:url(#linear-gradient-10)"/><path d="M152.74,137.23c-4.09,1.79-24,3.47-25.82,5.49,3.82.55,24.44,3.1,31.13.57" style="stroke:#349934;stroke-miterlimit:10;stroke-width:0.428810672370077px;fill:url(#linear-gradient-11)"/><path d="M154.85,138.53c-2.29-1.57-20.43-7.23-26.64-3.57,3.81.55,19.68,5,26.14,6.18C156,141.44,154.85,138.53,154.85,138.53Z" style="stroke:#349934;stroke-miterlimit:10;stroke-width:0.428810672370077px;fill:url(#linear-gradient-12)"/><path d="M151.71,135c-2.29-1.57-21.37-6.2-25.75-5.76,3.09,1.65,19.31,9.44,25.92,10.79C153.54,140.4,151.71,135,151.71,135Z" style="stroke:#349934;stroke-miterlimit:10;stroke-width:0.428810672370077px;fill:url(#linear-gradient-13)"/><path d="M149.79,133.52c-2.29-1.58-10-4.43-14.81-4.37,3.08,1.35,14.24,7.37,15,8.12C151.18,138.47,149.79,133.52,149.79,133.52Z" style="stroke:#349934;stroke-miterlimit:10;stroke-width:0.428810672370077px;fill:url(#linear-gradient-14)"/><path d="M168.23,147.62c-7.48-.12-14.64-3.85-18-9.34,5.71-3.84,25.05-17.4,30.5-21.83,3.67,3.18,5.48,7.21,5.69,12.66a18,18,0,0,1-4.71,13.37c-3.24,3.36-7.78,5.14-13.13,5.14Z" style="fill:url(#linear-gradient-15)"/><path d="M180.75,117c3.39,3.06,5.07,6.93,5.28,12.12a17.56,17.56,0,0,1-4.6,13.05c-3.16,3.28-7.59,5-12.82,5h-.37c-7.18-.11-14.06-3.61-17.4-8.78,6-4.06,24.2-16.83,29.91-21.4m0-1.12c-5.07,4.19-25.8,18.73-31.09,22.26,3.38,5.92,10.81,9.78,18.54,9.9h.39c11.88,0,18.68-8.64,18.27-19-.22-5.49-2-9.81-6.11-13.21Z" style="fill:#7c3d13"/><path d="M169.57,112.75a17.63,17.63,0,0,0-3.6.5,1,1,0,0,1-.65.19,9.39,9.39,0,0,0-1.85.54c-.4.18-3.09,2-3.45,2.25s-1.31.73-1.53.87-1.81.91-2.07,1.13a9.82,9.82,0,0,1-1.59,1.27c-.26,0-2.51,3.34-2.76,3.41a5.3,5.3,0,0,0-1.64,1.64,28.44,28.44,0,0,0-2,4.21c0,.44-.87,3.92-.79,4.39a29,29,0,0,0,2,5,38.61,38.61,0,0,0,5.34,4.18c.36,0,2.76.87,3.05.84s4.1,1,4.61,1.12a41.11,41.11,0,0,0,5.74-.69,41.85,41.85,0,0,0,4-2,20.54,20.54,0,0,1,1.78-1.71c.29-.11,2.36-.9,2.58-1s.5-.69.76-.77a3.74,3.74,0,0,0,1.27-.87,32,32,0,0,1,2.54-3.37,17.92,17.92,0,0,0,1.67-2,7.83,7.83,0,0,0,1-1.63,2.4,2.4,0,0,1,.11-.91,25.14,25.14,0,0,0,.91-4.86,18.54,18.54,0,0,0-.76-4c-.11-.21-1.09-2.07-1.28-2.25s-1.92-2.28-2.28-2.5a21.87,21.87,0,0,0-2.76-1.71c-.33,0-1.6-.73-1.75-.65a2,2,0,0,1-.65,0c-.14,0-.58-.18-.73-.18s-1.12-.26-1.27-.26a9.77,9.77,0,0,0-1.81-.29,2.11,2.11,0,0,1-.8.18Z" style="fill:#6b3800"/><path d="M165.79,114.64a19.9,19.9,0,0,0-2.37,1.22,10.45,10.45,0,0,0-1.92.81c-.41.24-1.39,1.06-1.75,1.06a3.85,3.85,0,0,0-1.58.46,9.91,9.91,0,0,1-.93,1.08c-.37.29-1.16.3-1.44.68s-2.11,3.44-2.47,3.74-1.43.32-1.77.79-2.38,4.65-1.94,7.82,1.23,5.66,3.7,7.16,3,2.19,3.5,2.19c1.58,0,2.4.54,3.29.54s1.93.71,3.17.71a39.49,39.49,0,0,0,8-2,24.47,24.47,0,0,0,4-2,8.44,8.44,0,0,1,2.21-1.25c.57-.24,1.46-2.25,1.73-2.43s3.64-5.48,3.91-7.16.08-6-1.41-8-1.77-2.82-3.35-3.87a9.37,9.37,0,0,0-5.11-1.33c-.8.18-3.79-.35-4.24-.26S166.32,114.54,165.79,114.64Z" style="fill:url(#linear-gradient-16)"/><path d="M169.24,114.94c.25,0,.79.06,1.35.12.78.09,1.66.19,2.27.19a2.75,2.75,0,0,0,.56,0,1.55,1.55,0,0,1,.35,0,9.58,9.58,0,0,1,4.43,1.29,7.69,7.69,0,0,1,2.3,2.45c.26.38.56.82.94,1.33,1.38,1.86,1.6,6,1.33,7.7-.24,1.51-3.34,6.43-3.75,6.89a3.2,3.2,0,0,0-.63.92,6.12,6.12,0,0,1-1,1.44,8.92,8.92,0,0,0-2.32,1.33,14.72,14.72,0,0,1-2.86,1.47l-1.09.49a40.66,40.66,0,0,1-7.84,2,5.31,5.31,0,0,1-1.72-.38,4.66,4.66,0,0,0-1.45-.33,4.26,4.26,0,0,1-1-.19,7.62,7.62,0,0,0-2.25-.35h0a3.14,3.14,0,0,1-.86-.53c-.5-.35-1.26-.89-2.42-1.6-2.31-1.4-3.06-3.75-3.49-6.84s1.44-7,1.85-7.52a2.63,2.63,0,0,1,1-.45,2,2,0,0,0,.66-.26,19.39,19.39,0,0,0,1.91-2.82c.3-.47.55-.88.64-1a1.46,1.46,0,0,1,.57-.25,2.37,2.37,0,0,0,.78-.34,4.76,4.76,0,0,0,.71-.79l.26-.32a4,4,0,0,1,1.28-.35,3.37,3.37,0,0,0,1.51-.79,4.45,4.45,0,0,1,.46-.32,9.76,9.76,0,0,1,1.83-.77,5.27,5.27,0,0,0,.88-.48,7.2,7.2,0,0,1,1.44-.73,16.46,16.46,0,0,1,1.67-.06,12.89,12.89,0,0,0,1.63-.06h.07m0-.43h-.15c-.44.09-2.77,0-3.3.12a19.9,19.9,0,0,0-2.37,1.22,10.45,10.45,0,0,0-1.92.81c-.41.24-1.39,1.06-1.75,1.06a3.85,3.85,0,0,0-1.58.46,9.91,9.91,0,0,1-.93,1.08c-.37.29-1.16.3-1.44.68s-2.11,3.44-2.47,3.74-1.43.32-1.77.79-2.38,4.65-1.94,7.82,1.23,5.66,3.7,7.16,3,2.19,3.5,2.19h0c1.56,0,2.37.54,3.25.54s1.93.71,3.17.71a39.49,39.49,0,0,0,8-2,24.47,24.47,0,0,0,4-2,8.44,8.44,0,0,1,2.21-1.25c.57-.24,1.46-2.25,1.73-2.43s3.64-5.48,3.91-7.16.08-6-1.41-8-1.77-2.82-3.35-3.87a9.91,9.91,0,0,0-4.67-1.36,2.59,2.59,0,0,0-.44,0,2.05,2.05,0,0,1-.47,0c-1,0-3-.31-3.62-.31Z" style="fill:url(#linear-gradient-17)"/><path d="M165.79,114.64a19.9,19.9,0,0,0-2.37,1.22,10.45,10.45,0,0,0-1.92.81c-.41.24-1.39,1.06-1.75,1.06a3.85,3.85,0,0,0-1.58.46,9.91,9.91,0,0,1-.93,1.08c-.37.29-1.16.3-1.44.68s-2.11,3.44-2.47,3.74-1.43.32-1.77.79-2.38,4.65-1.94,7.82,1.23,5.66,3.7,7.16,3,2.19,3.5,2.19c1.58,0,2.4.54,3.29.54s1.93.71,3.17.71a39.49,39.49,0,0,0,8-2,24.47,24.47,0,0,0,4-2,8.44,8.44,0,0,1,2.21-1.25c.57-.24,1.46-2.25,1.73-2.43s3.64-5.48,3.91-7.16.08-6-1.41-8-1.77-2.82-3.35-3.87a9.37,9.37,0,0,0-5.11-1.33c-.8.18-3.79-.35-4.24-.26S166.32,114.54,165.79,114.64Z" style="fill:url(#linear-gradient-18)"/><path d="M169.24,114.94c.25,0,.79.06,1.35.12.78.09,1.66.19,2.27.19a2.75,2.75,0,0,0,.56,0,1.55,1.55,0,0,1,.35,0,9.58,9.58,0,0,1,4.43,1.29,7.69,7.69,0,0,1,2.3,2.45c.26.38.56.82.94,1.33,1.38,1.86,1.6,6,1.33,7.7-.24,1.51-3.34,6.43-3.75,6.89a3.2,3.2,0,0,0-.63.92,6.12,6.12,0,0,1-1,1.44,8.92,8.92,0,0,0-2.32,1.33,14.72,14.72,0,0,1-2.86,1.47l-1.09.49a40.66,40.66,0,0,1-7.84,2,5.31,5.31,0,0,1-1.72-.38,4.66,4.66,0,0,0-1.45-.33,4.26,4.26,0,0,1-1-.19,7.62,7.62,0,0,0-2.25-.35h0a3.14,3.14,0,0,1-.86-.53c-.5-.35-1.26-.89-2.42-1.6-2.31-1.4-3.06-3.75-3.49-6.84s1.44-7,1.85-7.52a2.63,2.63,0,0,1,1-.45,2,2,0,0,0,.66-.26,19.39,19.39,0,0,0,1.91-2.82c.3-.47.55-.88.64-1a1.46,1.46,0,0,1,.57-.25,2.37,2.37,0,0,0,.78-.34,4.76,4.76,0,0,0,.71-.79l.26-.32a4,4,0,0,1,1.28-.35,3.37,3.37,0,0,0,1.51-.79,4.45,4.45,0,0,1,.46-.32,9.76,9.76,0,0,1,1.83-.77,5.27,5.27,0,0,0,.88-.48,7.2,7.2,0,0,1,1.44-.73,16.46,16.46,0,0,1,1.67-.06,12.89,12.89,0,0,0,1.63-.06h.07m0-.43h-.15c-.44.09-2.77,0-3.3.12a19.9,19.9,0,0,0-2.37,1.22,10.45,10.45,0,0,0-1.92.81c-.41.24-1.39,1.06-1.75,1.06a3.85,3.85,0,0,0-1.58.46,9.91,9.91,0,0,1-.93,1.08c-.37.29-1.16.3-1.44.68s-2.11,3.44-2.47,3.74-1.43.32-1.77.79-2.38,4.65-1.94,7.82,1.23,5.66,3.7,7.16,3,2.19,3.5,2.19h0c1.56,0,2.37.54,3.25.54s1.93.71,3.17.71a39.49,39.49,0,0,0,8-2,24.47,24.47,0,0,0,4-2,8.44,8.44,0,0,1,2.21-1.25c.57-.24,1.46-2.25,1.73-2.43s3.64-5.48,3.91-7.16.08-6-1.41-8-1.77-2.82-3.35-3.87a9.91,9.91,0,0,0-4.67-1.36,2.59,2.59,0,0,0-.44,0,2.05,2.05,0,0,1-.47,0c-1,0-3-.31-3.62-.31Z" style="fill:url(#linear-gradient-17)"/><path d="M174.4,118.63c-1,0-2.5-.39-2.7-.13a.83.83,0,0,1-.66.4c-.26,0-2.57-.27-2.84-.27s-2.17-.06-2.44,0a10.66,10.66,0,0,0-1.45.66c-.2.13-.26,1-.59.86a7.52,7.52,0,0,0-1.92.2s-1.38,1-1.38,1.05-.92.27-1.12.6-1.52,1.45-1.65,1.71-.4,1.52-.59,1.52-1.92,2.11-2.11,2.17-.47,1.13-.4,1.46-.26,2-.2,2.24.6,1.52.6,1.52v1s.85,1.72,1.38,1.78,1.58.86,1.85.86,2.11,1.05,2.77,1.19,1.51.39,2,.46a16.2,16.2,0,0,0,1.71,0c.33,0,1.52-.33,1.78-.27a4.27,4.27,0,0,0,.93.14,23.2,23.2,0,0,0,2.7-1.06c.26-.13.4-.53.79-.53a11.38,11.38,0,0,0,2.44-1.18,3.79,3.79,0,0,0,1.12-.73c.14-.2.66-1.05.93-1.12s1-1.91,1.25-2.11,1.06-2.44,1.25-2.44.4-.93.4-1.19.59-.86.59-1.19a38,38,0,0,0-1.45-3.82c-.13-.27-1.65-2.64-1.65-2.64S174.47,118.63,174.4,118.63Z" style="stroke-miterlimit:10;stroke-width:0.428810672370077px;fill:url(#linear-gradient-20);stroke:url(#linear-gradient-21)"/><path d="M174.4,118.63c-1,0-2.5-.39-2.7-.13a.83.83,0,0,1-.66.4c-.26,0-2.57-.27-2.84-.27s-2.17-.06-2.44,0a10.66,10.66,0,0,0-1.45.66c-.2.13-.26,1-.59.86a7.52,7.52,0,0,0-1.92.2s-1.38,1-1.38,1.05-.92.27-1.12.6-1.52,1.45-1.65,1.71-.4,1.52-.59,1.52-1.92,2.11-2.11,2.17-.47,1.13-.4,1.46-.26,2-.2,2.24.6,1.52.6,1.52v1s.85,1.72,1.38,1.78,1.58.86,1.85.86,2.11,1.05,2.77,1.19,1.51.39,2,.46a16.2,16.2,0,0,0,1.71,0c.33,0,1.52-.33,1.78-.27a4.27,4.27,0,0,0,.93.14,23.2,23.2,0,0,0,2.7-1.06c.26-.13.4-.53.79-.53a11.38,11.38,0,0,0,2.44-1.18,3.79,3.79,0,0,0,1.12-.73c.14-.2.66-1.05.93-1.12s1-1.91,1.25-2.11,1.06-2.44,1.25-2.44.4-.93.4-1.19.59-.86.59-1.19a38,38,0,0,0-1.45-3.82c-.13-.27-1.65-2.64-1.65-2.64S174.47,118.63,174.4,118.63Z" style="stroke-miterlimit:10;stroke-width:0.643216008555115px;opacity:0.5;fill:url(#radial-gradient-2);stroke:url(#linear-gradient-22)"/></g><g style="opacity:0.45"><path d="M157.82,105.76c-17.46,0-32.41-2.7-38.61-6.1v51.63c9,9,66.72,10.19,76.91,0V99.83C189.74,103.15,175,105.76,157.82,105.76Z" style="fill:url(#linear-gradient-23)"/></g><path d="M129.28,68.62c19.7,2.59,38.13,2.77,56.44.16" style="fill:none;stroke-linecap:round;stroke-miterlimit:10;stroke-width:3.86587522838289px;opacity:0.7000000000000001;stroke:url(#linear-gradient-24)"/><path d="M129.28,68.62c19.7,2.59,38.13,2.77,56.44.16" style="fill:none;stroke-linecap:round;stroke-miterlimit:10;stroke-width:1.54052696720106px;opacity:0.7000000000000001;stroke:url(#linear-gradient-25)"/><path d="M138.34,66.47c.21,1-6.82-.22-7.88-.73s0-8.71.58-8.57,6.62.83,7.15,1S138.05,65,138.34,66.47Z" style="fill:#fff;opacity:0.5"/><path d="M142.44,66.89c0,.56-7.82-.08-9-.34s-.05-9.64.52-9.49,7.87.94,8.4,1.1S142.41,64.93,142.44,66.89Z" style="opacity:0.5;fill:url(#linear-gradient-26)"/><path d="M170.41,67.05c0,.56,12.08-.77,13.85-1,.83-.1.08-9.63-.8-9.49s-12.6.91-13.41,1.06S170.47,65.09,170.41,67.05Z" style="opacity:0.7000000000000001;fill:url(#linear-gradient-27)"/><path d="M191,50.18c0-1.84-14.86-3.3-33.52-3.3s-33.79,1.49-33.79,3.34l.1,10.7c0,2.2,15,3.92,33.67,3.92S191,62.37,191,60.17C191,59.06,191,50.18,191,50.18Z" style="fill:#b59e28"/><ellipse cx="157.64" cy="50.51" rx="34.11" ry="3.53" style="fill:#fff;opacity:0.4"/><ellipse cx="157.64" cy="50.51" rx="34.11" ry="3.53" style="opacity:0.5;fill:url(#linear-gradient-28)"/><ellipse cx="157.23" cy="50.93" rx="23.64" ry="1.29" style="fill:#c1a840"/><path d="M191.33,50c.27.18.42.37.42.55,0,.76-2.28,1.45-6.16,2V63l5.62-1.84.6-7.81Z" style="fill:#fff;opacity:0.1"/><path d="M128.11,52.28V63.47L145.67,65V53.82A142,142,0,0,1,128.11,52.28Z" style="fill:#fff;opacity:0.30000000000000004"/><path d="M131.64,52.79l0,11.54,8.1.78V53.51C136.66,53.32,133.94,53.07,131.64,52.79Z" style="fill:#fff;opacity:0.4"/><path d="M157.49,45.76c-19.34,0-35,1.7-35,3.81V61.85c0,2.51,15.67,4.54,35,4.54s35-2,35-4.54V49.57C192.49,47.46,176.82,45.76,157.49,45.76Zm32.17,14.1c0,1.93-14.19,4-32.2,4S125,62.4,125,60.47l-.09-9.4c0-1.62,14.59-2.93,32.6-2.93s32.33,1.28,32.33,2.9C189.82,51,189.66,58.88,189.66,59.86Z" style="fill:#8c7e18"/><g id="Layer_20_copy_2" data-name="Layer 20 copy 2"><path d="M145.54,193.53c.42.21.86.41,1.32.61,4.29,1.85,9.89,2.77,16,2.77s11.86-.81,16.15-2.67c3-1.28,4.76-2.45,5.45-4a11.83,11.83,0,0,0,.15-3.66c-.23-1.07-1.57-1.48-1.57-2.11s-.75-4.55-1.36-4.87-.42-1.39-2-1.7c-1.21-.23-1.35-1.16-1.88-1a5.73,5.73,0,0,1-1.35.19c-.31,0-1.18-1-1.83-1.08-.45,0-1.88.21-2.56.21s-1.22-1.74-3.88-2.29c-1.14-.24-1.57,1.34-2.56,1.18s-1.66-.77-2.57,0a2.56,2.56,0,0,1-2.17.54c-.61-.15-1.29.41-2.28.65-.82.19-3.06,1.69-3.74,1.85s-1.92-.36-2.43.16-2.65.43-2.95,1-.34.31-1,.68c-.42.24-1.05,1.88-1.58,1.88s-.91,1.47-1.59,2.45a9.44,9.44,0,0,1-1.43,1.94c-.72.48-.08,4.11-.16,4.56A4.6,4.6,0,0,0,145.54,193.53Z" style="fill:#adadad"/><path d="M241.58,165.11c-2.15-1.33-6.26-3.36-10.6-2.74-4.53.65-37.69,9.08-51.45,20.26-1.53,1.25-4.28.15-6.89-.37a32,32,0,0,0-9.89-.5c-10,.47-24.65,2.28-23,12.45,1.46,9,11.38,15.12,23.32,15.12,14.18,0,23.4-7.39,24.17-15.43a6,6,0,0,0-.62-3.26c-.06-.62.21-1.25,1.57-2.32,9.27-7.25,38.43-13.42,45.15-14.83,3.42-.72,8.54.88,11.14-.16C250.93,170.75,244.26,166.77,241.58,165.11Z" style="fill:#666"/><path d="M184.26,193.64c-1.51,7.25-10.38,12.82-21.25,12.82S143.28,201,141.66,193.8C143.84,194.49,182,193.82,184.26,193.64Z" style="fill:url(#linear-gradient-29)"/><path d="M175.73,185.64c1.32-.22,2,1.26,6.23-2,13.58-10.45,44.88-18.26,48.42-18.94s5.48.6,7.73,1.77c1.34.7,4.82,2.48,4.34,3.12-1.37,1.86-4.71,0-9.66,1-6.73,1.34-36.81,8.44-46.48,15.17-1.33.93-2.47,1.84-2.64,2.73a8.22,8.22,0,0,0,.62,3.65c.38,1.16-3.79-2.7-4.72-3.5s-4.11-.87-3.31-1.8C176.53,186.5,175.36,185.76,175.73,185.64Z" style="fill:url(#linear-gradient-30)"/><ellipse cx="163.01" cy="192.55" rx="21.07" ry="8.54" style="fill:#b3b3b3"/><path d="M177.47,187.47c3.28,1.37,5.32,3.24,5.32,4.85s-2.13,3.48-5.41,4.85c-3.86,1.61-9,2.31-14.5,2.31a38.35,38.35,0,0,1-14.41-2.4c-3.28-1.37-5.42-3-5.42-4.57s1.95-3.57,5.23-4.94c3.85-1.61,10.66-2.55,14.6-2.55S173.62,185.86,177.47,187.47Zm-14.55-3.94c-11.87,0-21.5,4-21.5,9s9.68,9.32,21.55,9.32,21.44-4.36,21.44-9.32-9.62-9-21.49-9Z" style="fill:url(#linear-gradient-31)"/><path d="M147.75,199a35.06,35.06,0,0,0,10.12,2.53" style="fill:none;stroke-miterlimit:10;stroke-width:0.857621344740155px;stroke:url(#linear-gradient-32)"/><path d="M146.77,196.17c.38.2.79.4,1.21.59a36.41,36.41,0,0,0,14.85,2.72c5.69,0,11-.79,14.95-2.61,2.74-1.26,4.4-2.41,5-4a12.35,12.35,0,0,0,.14-3.59c-.21-1.06-1.46-1.46-1.46-2.07s-.69-4.47-1.26-4.78-.38-1.37-1.85-1.67c-1.12-.22-1.24-1.13-1.73-1a5.51,5.51,0,0,1-1.26.19c-.28,0-1.08-1-1.69-1.06-.42,0-1.73.2-2.37.2s-1.13-1.7-3.59-2.24c-1.05-.23-1.45,1.31-2.37,1.16s-1.53-.76-2.38-.05a2.25,2.25,0,0,1-2,.54c-.57-.15-1.2.4-2.11.63-.76.19-2.83,1.66-3.47,1.82s-1.77-.36-2.24.15-2.46.43-2.74,1-.3.32-.88.67c-.39.24-1,1.84-1.46,1.84s-.85,1.45-1.48,2.41a9.21,9.21,0,0,1-1.32,1.91c-.66.47-.07,4-.15,4.47A4.62,4.62,0,0,0,146.77,196.17Z" style="fill:#f4f4f4"/><path d="M147.29,196.55c.37.18.77.36,1.18.53a38.35,38.35,0,0,0,14.41,2.4c5.52,0,10.64-.7,14.5-2.31,2.66-1.11,4.57-2.55,5.19-3.92a7.64,7.64,0,0,0-.16-2.73c-.21-.94-1.44-1.48-1.44-2s-1-3.89-1.55-4.16.39-1.51-1-1.77c-1.08-.2-1.62-.57-2.1-.48a5.94,5.94,0,0,1-1.21.17c-.28,0-1.06-.9-1.65-.94-.4,0-1.68.18-2.3.18s-1.09-1.51-3.48-2c-1-.21-1.41,1.16-2.3,1s-1.49-.66-2.31,0a2.36,2.36,0,0,1-2,.31A4.64,4.64,0,0,0,159,181c-.74.17-2.67,2-3.28,2.12s-1.73-.32-2.18.13-2.38.38-2.65.86-.3.28-.86.59c-.38.21-.94,1.63-1.42,1.63s-.48.95-1.09,1.8c-.46.64-.67,1.69-1.06,1.94-.65.41-.64,3.63-.71,4A4,4,0,0,0,147.29,196.55Z" style="fill:url(#linear-gradient-33)"/><path d="M165.84,180.44a.82.82,0,0,1-.49.09c-.89-.14-1.49-.66-2.31,0a2.36,2.36,0,0,1-2,.31A4.64,4.64,0,0,0,159,181c-.74.17-2.67,2-3.28,2.12s-1.73-.32-2.18.13-2.38.38-2.65.86-.3.28-.86.59c-.3.17-.72,1.1-1.12,1.47,1.05-.24,1.54-.69,2.47-.43a12.31,12.31,0,0,1,2.23,1.45c.35.2,4.82.05,5-.65s2.26-3.61,2.9-3.56c.35,0,.43-.9.74-1.08a23.59,23.59,0,0,1,3.15-1.13C165.47,180.78,165.65,180.63,165.84,180.44Z" style="fill:url(#radial-gradient-3)"/><path d="M158.34,186.74c.15.07.15-.41.33-.43a3.38,3.38,0,0,1,2.71.27,2,2,0,0,0,1.85.26c.55-.13,1.1.41,2,.61.73.17,2.66,2,3.28,2.12s1.72-.32,2.17.14,2.38.38,2.66.85.29.28.85.59c.3.17.72,1.1,1.13,1.47-1.05-.24-1.55-.69-2.47-.42a12.09,12.09,0,0,0-2.24,1.44c-.35.2-4.81.05-5-.65s-2.26-3.61-2.91-3.56c-.35,0-.42-.9-.73-1.08a22.77,22.77,0,0,0-3-1.22A1.4,1.4,0,0,1,158.34,186.74Z" style="fill:url(#radial-gradient-4)"/><path d="M158.55,186.55c.46-.8,2.53-3.76,2.9-3.56s.45-.52.59-.8a9.56,9.56,0,0,1,3-1.29c.39,0,1.64-1.38,2.18-1.38a4.62,4.62,0,0,1,2.62,1,5.58,5.58,0,0,1,1.11.91s-.3.91.06.91,2.55-.58,2.55-.58l1.56.53s.47,1.35.86,1.35,1.05,1.16,1.05,1.16a13.73,13.73,0,0,1,2.16,0,1.62,1.62,0,0,1,1,.72,2.53,2.53,0,0,1,.11.78,4.73,4.73,0,0,0-1.66-.45c-.39.11-1.22.28-1.28.61s-.94.33-1.1.56-2.16-.67-2.55-.56-2.76-.38-2.87-.11-.61.39-.89.78-1.6.49-1.83.66-1.21.33-1.21.5-.45.05-.45.05a3.2,3.2,0,0,0-1.2-.85,12.18,12.18,0,0,0-2.06-.58c-.44,0-1.11.38-1.27.11s-.89-.78-1.17-.61a3.89,3.89,0,0,1-1.32.27A7.77,7.77,0,0,1,158.55,186.55Z" style="fill:url(#linear-gradient-34)"/><path d="M162.88,199.48a50.89,50.89,0,0,0,8.71-.7c-.6-.59-3.13-.62-3.13-.79,0-1-.49-1.06-1-1.09-.52-.18-1.26-.87-1.61-.91-.63-.07-.58.12-1-.21s-2.12.51-2.79.24-1.43.61-2,.72-3.1-.81-3.85-.68c-.9.16-1.61-.13-2.06.21a2,2,0,0,1-1.81.48,3.32,3.32,0,0,0-2.57.78A40.4,40.4,0,0,0,162.88,199.48Z" style="fill:url(#radial-gradient-5)"/></g></g></g></svg>