<svg id="Concord_Logo" data-name="Concord Logo" xmlns="http://www.w3.org/2000/svg" viewBox="0 0 108 39"><title>Concord Logo</title><path id="Back" d="M108,31.34C82.9,37.55,34.06,41,8.07,34.68,2.63,25.31.8,7.53.8,0H108Z" style="fill:#fff"/><path id="Title" d="M90.15,9.8a2.13,2.13,0,0,1,1.61-1.22,2.31,2.31,0,0,1,.5.07v1.58a1.29,1.29,0,0,0-.53-.11c-1,0-1.54,1.09-1.54,2.23V15H88.72v-5h-.84V8.65h1.33c.5,0,1,.25,1,.77V9.8Zm-21.1-.39a2.51,2.51,0,0,1,2-.91c1.43,0,2.1.87,2.1,2.45V13.6h.77v1.25H72.59c-.5,0-.92-.24-.92-.77V11.15c0-.8-.14-1.29-.87-1.29a1.89,1.89,0,0,0-1.72,2.06v2.93h-1.5V9.9h-.77V8.61h1.33a.78.78,0,0,1,.91.59ZM40.32,7.91a.47.47,0,0,1,.5.45v1H40V8.67h-.78v4.54h-.94V8.75h-.77v.56h-.84V8.47c0-.31.14-.59.49-.59h3.23v0Zm2,1.92a1.55,1.55,0,0,1,1.19-.52c.91,0,1.33.52,1.33,1.53v1.67h.56v.81H44V11c0-.49-.11-.77-.56-.77a1.15,1.15,0,0,0-1,1.29v1.85h-.92V8.75h-.31V7.91h1.26l0,1.92Zm5.28,3.53a2,2,0,0,1-2-1.92V11.3a1.91,1.91,0,0,1,1.9-2.06,1.66,1.66,0,0,1,1.64,1.86c0,.11,0,.38,0,.38H46.59a1.07,1.07,0,0,0,1.09,1A1.58,1.58,0,0,0,48.76,12l.42.73c0,.07-.11.1-.17.14A2,2,0,0,1,47.64,13.36Zm-.1-3.28a.86.86,0,0,0-.87.7h1.61a.74.74,0,0,0-.74-.7Zm8,4.85a4.37,4.37,0,0,1-4.34-4.54A4.28,4.28,0,0,1,55.47,6c1,0,3.25.38,3.25,1.85V9H57.29V8.19c0-.63-1.33-.77-1.75-.77a2.75,2.75,0,0,0-2.76,3,2.9,2.9,0,0,0,2.84,3.14,3.07,3.07,0,0,0,2.56-1.22l.73,1A4.13,4.13,0,0,1,55.54,14.93Zm7.39.14a3.24,3.24,0,0,1-3.29-3.18v-.14a3.29,3.29,0,0,1,6.57,0A3.23,3.23,0,0,1,63,15.07Zm0-5.24a1.82,1.82,0,0,0-1.79,1.86v.07a1.8,1.8,0,0,0,1.72,1.92h.08a1.83,1.83,0,0,0,1.78-1.88v0A1.8,1.8,0,0,0,63,9.84Zm14.84,5.24A3.19,3.19,0,0,1,74.48,12v-.22A3.17,3.17,0,0,1,77.7,8.46c.87,0,2.45.35,2.45,1.58v.63H78.79v-.36c0-.35-.81-.45-1.05-.45A1.72,1.72,0,0,0,76,11.78a1.76,1.76,0,0,0,1.82,1.93,2.79,2.79,0,0,0,1.89-.87l.59,1.22a3.86,3.86,0,0,1-2.51,1Zm6.22,0a3.24,3.24,0,0,1-3.29-3.18v-.14a3.29,3.29,0,0,1,6.58,0,3.24,3.24,0,0,1-3.18,3.32Zm0-5.24a1.81,1.81,0,0,0-1.78,1.86v.07a1.8,1.8,0,0,0,1.72,1.92H84a1.84,1.84,0,0,0,1.79-1.88v0a1.8,1.8,0,0,0-1.68-1.92Zm13.12-.77V7.56h-.7V6.27h2.18v7.34h.8v1.25H98.06a.81.81,0,0,1-.87-.59,2.15,2.15,0,0,1-1.75.73c-1.68,0-2.7-1.39-2.7-3.28s1.12-3.28,2.79-3.28a2.45,2.45,0,0,1,1.58.62Zm-1.39.8c-.78,0-1.48.64-1.48,1.92s.64,1.93,1.43,1.93,1.48-.53,1.48-1.93c0-1.08-.52-1.92-1.43-1.92Zm-42.8,8.85a2.26,2.26,0,0,1,1.89-.87c1.37,0,2,.8,2,2.3v2.52h.84v1.22h-1.4c-.5,0-.87-.25-.87-.7V20.39c0-.77-.14-1.22-.81-1.22a1.77,1.77,0,0,0-1.61,1.95v2.79h-1.4V19.19h-.73V18h1.26C52.61,18,52.92,18.21,52.92,18.71Zm-5.46,5.34a3.11,3.11,0,1,1,3.09-3.14v0a3.09,3.09,0,0,1-3,3.11Zm0-4.89a1.67,1.67,0,0,0-1.64,1.71V21a1.65,1.65,0,1,0,3.29,0,1.67,1.67,0,0,0-1.65-1.79ZM60.1,24.05a3,3,0,0,1-2.2-1.12l.77-.94a1.92,1.92,0,0,0,1.47.81c.59,0,.92-.25.92-.53,0-.49-.87-.7-1.23-.81-.77-.27-1.78-.69-1.78-1.88s1.22-1.75,2.17-1.75c.73,0,2,.31,2,1.33v.59H61v-.28c0-.14-.25-.39-.77-.39s-.78.22-.78.45c0,.45.81.67,1.12.78.81.27,1.89.66,1.89,1.85S61.36,24.05,60.1,24.05Zm6.19,0a3.11,3.11,0,1,1,3.08-3.14v0a3.07,3.07,0,0,1-3,3.11Zm0-4.89a1.66,1.66,0,0,0-1.64,1.71V21a1.65,1.65,0,1,0,3.28,0,1.66,1.66,0,0,0-1.53-1.78s-.08,0-.11,0Zm5.77-.07a2.05,2.05,0,0,1,1.51-1.15c.14,0,.45,0,.45,0V19.4a2.62,2.62,0,0,0-.5-.07c-1,0-1.43,1-1.43,2.09V23.9H70.7V19.18h-.87V18h1.39c.5,0,.87.24.87.69a2.22,2.22,0,0,0,0,.44ZM77.38,24a2.07,2.07,0,0,1-2.23-2.28V19.19h-.78V18h.78V16.43h1.36V18H77.8v1.22H76.51V21.6c0,.95.59,1.06.95,1.06a4.2,4.2,0,0,0,.42,0v1.29A2.62,2.62,0,0,1,77.38,24ZM81,17.24H79.55V15.77H81Zm.67,6.67H80.18c-.36,0-.64-.28-.64-.87V19.2h-.87V18H80.1a.74.74,0,0,1,.84.66v4h.7v1.24Zm5-.7a2.27,2.27,0,0,1-1.86.84c-1.29,0-2-.77-2-2.31V19.19h-.73V18h1.43a.69.69,0,0,1,.7.66V21.5c0,.73.14,1.22.81,1.22.91,0,1.53-.91,1.53-2V18H88v4.68s0,0,0,0h.67v1.19H87.49a.71.71,0,0,1-.8-.59v-.07Zm4.9-4.47a2.22,2.22,0,0,1,1.72-.87,1.59,1.59,0,0,1,1.64,1,2.26,2.26,0,0,1,1.89-1c1.34,0,1.93.8,1.93,2.31v2.51h.65v1.19H97.33v-3.5c0-.77-.14-1.22-.78-1.22-.83,0-1.39.91-1.39,2v2.73h-1.4v-3.5c0-.73-.11-1.22-.73-1.22-.84,0-1.43.94-1.43,2v2.69H90.2V19.2h-.87V18h1.4a.74.74,0,0,1,.87.63.66.66,0,0,0,0,.13ZM40.57,24a4.09,4.09,0,0,1-4.06-4.26,4,4,0,0,1,4-4.15c.94,0,3,.35,3,1.74v1.12H42.21v-.8c0-.59-1.26-.73-1.65-.73A2.56,2.56,0,0,0,38,19.69a2.68,2.68,0,0,0,2.66,2.93A2.82,2.82,0,0,0,43,21.51l.7,1A3.41,3.41,0,0,1,40.57,24Z" style="fill:#231f20"/><g id="Lightbulb"><path d="M32.1,11.33C33.61,12.45,35,14.09,35,15c0,.53-1.89,2.42-3.92,3.15.49,1.86.53,4.06-.08,4.72-.31.35-2.75.58-4.73-.09A4.06,4.06,0,0,1,23.39,20a12.12,12.12,0,0,1-.59-3.83c-.06-1-2.44-1.33-2.35.12s1.13,2.53,1.14,3.79c0,1.86-1.78,2.55-2.56,2.92-1.58.69-3.53,1.08-4.2.63-.42-.28-1.08-2.9-.66-5.1C12.41,18,10.52,17,10.24,16.07c-.14-.5.95-2.93,2.66-4.37C11.84,10.11,11,8.05,11.39,7.25c.22-.5,2.56-1.61,4.76-1.61.14-1.89.84-4,1.62-4.4.45-.25,3,.45,4.62,2C23.68,1.83,25.5.68,26.34.88c.5.11,2,2.34,2.35,4.58,1.81-.17,3.95.18,4.48.87C33.47,6.69,33.22,9.37,32.1,11.33Z" style="fill:#e75300"/><path d="M25.07,15.81c1.51.17,3-1.08,4.59-.14a4.38,4.38,0,0,1,1.4,2.48,4.32,4.32,0,0,1-2.2.25A7.9,7.9,0,0,1,25.07,15.81Zm-6-1.58c-.87,1.29-.64,3.25-2.21,4.2a3.62,3.62,0,0,1-2.69,0,4.77,4.77,0,0,1,.8-2.14A8.79,8.79,0,0,1,19.06,14.23Zm.17-2.55c-1.47.38-2.52,2.13-4.27,1.81a3.62,3.62,0,0,1-2.06-1.81,4.24,4.24,0,0,1,1.92-1A7.78,7.78,0,0,1,19.23,11.68ZM21,9.86c-1.37-.66-3.26,0-4.42-1.47a4.48,4.48,0,0,1-.42-2.75,3.72,3.72,0,0,1,2.07.49A8.28,8.28,0,0,1,21,9.86Zm2.45-.24c-.63-1.47-2.49-2.2-2.49-4A4.3,4.3,0,0,1,22.38,3.2,4.19,4.19,0,0,1,23.63,5a8.58,8.58,0,0,1-.24,4.68h0Zm2.65,3.91c1.26-.87,1.62-2.89,3.4-3.22a4.07,4.07,0,0,1,2.62,1A4.94,4.94,0,0,1,30.57,13,7.6,7.6,0,0,1,26.08,13.53Zm2.59-8.07a4.6,4.6,0,0,1-.17,2.17,7.88,7.88,0,0,1-3.07,3.42c.42-1.53-.56-3.25.59-4.67A4,4,0,0,1,28.67,5.46Z" style="fill:#ad441d"/><path d="M19.93,23.94a1.27,1.27,0,0,1-.73-.55,4.28,4.28,0,0,1-.53-2.1c-.08-2.44-3.12-4.05-3.12-8.35,0-4,3.85-7,7-7s7,2.93,7,7c0,4.3-3,5.91-3.12,8.35a3.83,3.83,0,0,1-.56,2.17,1.37,1.37,0,0,1-.66.53h-.08l-5.26,0Z" style="fill:#ffd26c"/><path d="M24,14c.1-.13.87,0,1.58-.17a2.37,2.37,0,0,0,.55-.28c-1.11-.14-1.95-.41-2-.66s.69-.53,1.08-1.22a5.91,5.91,0,0,0,.25-.6c-1,.64-1.75,1-1.93.81s.22-.87.11-1.64a3,3,0,0,0-.17-.59c-.31,1.08-.73,1.92-1,1.92s-.38-.81-.94-1.33c-.18-.14-.36-.25-.53-.36.45,1.06.63,2,.42,2.14s-.81-.35-1.54-.39a3.4,3.4,0,0,0-.63.08c1,.52,1.67,1.05,1.64,1.36s-.84.25-1.4.73a1.73,1.73,0,0,0-.41.45c1.08-.25,2-.31,2.09-.07s-.49.73-.63,1.5a4.43,4.43,0,0,0,0,.63c.66-.91,1.33-1.53,1.53-1.47s.11.87.45,1.58a3.45,3.45,0,0,0,.39.53c-.07-1.12.08-2.07.28-2.14s.63.59,1.33.87a1.65,1.65,0,0,0,.59.14C24.3,15,23.81,14.2,24,14Z" style="fill:#fff"/><path d="M25.48,18.57a14.83,14.83,0,0,1-2.62-1.64,10.12,10.12,0,0,0,.53,3,4.05,4.05,0,0,0,2.84,2.83h0a3.73,3.73,0,0,0,.24-1.49,3.77,3.77,0,0,1,.15-.89A3.3,3.3,0,0,0,25.48,18.57Z" style="fill:#ffc656"/><path d="M25.07,15.81a9.85,9.85,0,0,0,2.85,2.27,10.6,10.6,0,0,0,1.3-2.61C27.8,15,26.44,16,25.07,15.81Z" style="fill:#ffc656"/><path d="M29.09,10.42c-1.46.52-1.84,2.31-3,3.11a9.07,9.07,0,0,0,3.52-.16c0-.14,0-.28,0-.43A6.21,6.21,0,0,0,29.09,10.42Z" style="fill:#ffc656"/><path d="M28,8.64a8,8,0,0,0-2.25-1.82c-.69,1.33.07,2.85-.31,4.23A10.87,10.87,0,0,0,28,8.64Z" style="fill:#ffc656"/><path d="M23.85,6.1A5.57,5.57,0,0,0,22.58,6,5.77,5.77,0,0,0,21,6.17c.35,1.41,1.82,2.14,2.39,3.4A11,11,0,0,0,23.85,6.1Z" style="fill:#ffc656"/><path d="M19.2,7A7.77,7.77,0,0,0,17,8.83c1.15.86,2.76.44,4,1A11,11,0,0,0,19.2,7Z" style="fill:#ffc656"/><path d="M16,10.61a6.44,6.44,0,0,0-.44,2.33c0,.21,0,.4,0,.59,1.4-.12,2.37-1.51,3.65-1.84A9.48,9.48,0,0,0,16,10.61Z" style="fill:#ffc656"/><path d="M16,15.49a11.66,11.66,0,0,0,1.31,2.62c1.11-1,1-2.72,1.79-3.88A12,12,0,0,0,16,15.49Z" style="fill:#ffc656"/><path d="M18.63,20.86a3,3,0,0,1,0,.42A4.37,4.37,0,0,0,19,22.93h0c.78-.36,2.57-1.05,2.56-2.91,0-1.24-1-2.3-1.09-3.72A8.84,8.84,0,0,0,18.63,20.86Z" style="fill:#ffc656"/><path d="M25.17,26.39v.35a.51.51,0,0,1,.45.53.46.46,0,0,1-.42.49h0l-1.72.45a.63.63,0,0,1,.17.42.5.5,0,0,1-.45.53H21.91a.55.55,0,0,1-.45-.63.57.57,0,0,1,.25-.36l-1.78-.42a.57.57,0,0,1-.42-.63.56.56,0,0,1,.42-.42h4.23v-.11l-4.23-.24a.59.59,0,0,1-.42-.64.54.54,0,0,1,.42-.41h4.2v-.11l-4.2-.25a.57.57,0,0,1-.42-.63.53.53,0,0,1,.42-.42h5.24a.59.59,0,0,1,.42.63.53.53,0,0,1-.42.42h0v.36h0a.49.49,0,0,1,.45.52C25.63,26.14,25.45,26.39,25.17,26.39Z" style="fill:#00758d"/></g></svg>