<svg id="F_Label_-_Off" data-name="F Label - Off" xmlns="http://www.w3.org/2000/svg" viewBox="0 0 29 26"><title>F Label On</title><g id="F_Label" data-name="F Label"><path d="M6.46,11.22a10,10,0,0,1-1.79.17,7.54,7.54,0,0,1-2.17-.31A3.07,3.07,0,0,1,1,9.64a4.76,4.76,0,0,1-.21-1c0-.21,0-.51-.07-.89s0-.73,0-1A7.64,7.64,0,0,1,.86,4.85a2.78,2.78,0,0,1,1-1.38,3.66,3.66,0,0,1,1.68-.72l.45,0c.35,0,.81,0,1.37,0a5.13,5.13,0,0,1,1.43.17l.63.25a2.71,2.71,0,0,1,1,.59,2.43,2.43,0,0,1,.84,1.65,4.22,4.22,0,0,1,.07.91v.63q0,3.39-2.13,4.16A4.15,4.15,0,0,1,6.46,11.22Zm.28-6.79A5.89,5.89,0,0,0,5,4.22a7.89,7.89,0,0,0-1.64.14A1.63,1.63,0,0,0,2.26,5.65c0,.52-.07.9-.07,1.16l0,1.47a1.7,1.7,0,0,0,.35,1.07,1.35,1.35,0,0,0,1,.5,11.34,11.34,0,0,0,2.31-.07.4.4,0,0,0,.17,0,.34.34,0,0,1,.18,0h0a1.23,1.23,0,0,0,1-.47,2.87,2.87,0,0,0,.42-1.1,4.92,4.92,0,0,0,.11-.67c0-.25,0-.47.07-.66a5.36,5.36,0,0,0,.07-.63A1.72,1.72,0,0,0,7.4,5,1.72,1.72,0,0,0,6.74,4.43Z" style="fill:#fff"/><path d="M23.26,15.28l-.07,0c-.52,0-1.44.1-2.77.14-.91.05-2.27.11-4.09.18h0l-.1,6c0,.86,0,2.11,0,3.74l-2,.14c-.21,0-.56,0-1.07-.05a3,3,0,0,1-.78-.09l0,0q0-7,0-10.29l0-13.41v0c.84-.14,2.17-.28,4-.4S19.93,1,21.68,1A28.15,28.15,0,0,1,28,1.56V3.13c0,.8,0,1.33,0,1.61l-2.62,0c-1.19,0-2.43,0-3.71.1-1,.05-2.85.16-5.39.32-.12,1.8-.18,3.3-.18,4.51A10.74,10.74,0,0,0,16.17,11c.06.46.13.7.23.7,1.65,0,3.38,0,5.18,0,.79,0,1.34,0,1.64,0a2.61,2.61,0,0,1,.11.91l0,1.29A9.83,9.83,0,0,0,23.26,15.28Z" style="fill:#fff"/></g></svg>