<svg id="Label_Oil_A" data-name="Label Oil A" xmlns="http://www.w3.org/2000/svg" xmlns:xlink="http://www.w3.org/1999/xlink" viewBox="0 0 285 141"><defs><linearGradient id="linear-gradient" x1="24.63" y1="69.41" x2="67.66" y2="69.41" gradientUnits="userSpaceOnUse"><stop offset="0" stop-color="#9e9600"/><stop offset="0.42" stop-color="#fff" stop-opacity="0"/><stop offset="1" stop-color="#9e9600"/></linearGradient><linearGradient id="linear-gradient-2" x1="29.99" y1="70.22" x2="62.59" y2="70.22" gradientUnits="userSpaceOnUse"><stop offset="0.12" stop-color="#fff" stop-opacity="0.7"/><stop offset="0.5" stop-color="#fff" stop-opacity="0"/><stop offset="0.54" stop-color="#fff" stop-opacity="0.04"/><stop offset="0.6" stop-color="#fff" stop-opacity="0.16"/><stop offset="0.69" stop-color="#fff" stop-opacity="0.34"/><stop offset="0.75" stop-color="#fff" stop-opacity="0.5"/><stop offset="0.8" stop-color="#f8f8f8" stop-opacity="0.49"/><stop offset="0.85" stop-color="#e2e2e2" stop-opacity="0.45"/><stop offset="0.89" stop-color="#bfbfbf" stop-opacity="0.39"/><stop offset="0.95" stop-color="#8e8e8e" stop-opacity="0.31"/><stop offset="1" stop-color="#4f4f4f" stop-opacity="0.2"/><stop offset="1" stop-color="#4d4d4d" stop-opacity="0.2"/></linearGradient><linearGradient id="linear-gradient-3" x1="47.74" y1="105.66" x2="65.08" y2="105.66" gradientUnits="userSpaceOnUse"><stop offset="0" stop-color="#fff" stop-opacity="0"/><stop offset="0.77" stop-color="#fff"/><stop offset="1" stop-color="#fff" stop-opacity="0"/></linearGradient><linearGradient id="linear-gradient-4" x1="45.77" y1="29.14" x2="65.27" y2="29.14" xlink:href="#linear-gradient-3"/><linearGradient id="linear-gradient-5" x1="47.28" y1="54.09" x2="62.77" y2="54.09" xlink:href="#linear-gradient-3"/><linearGradient id="linear-gradient-6" x1="46.34" y1="88.97" x2="62.64" y2="88.97" xlink:href="#linear-gradient-3"/><linearGradient id="linear-gradient-7" x1="53.99" y1="99.97" x2="103.89" y2="99.97" gradientUnits="userSpaceOnUse"><stop offset="0" stop-color="#8ed8ce"/><stop offset="0.51" stop-color="#8ed8ce" stop-opacity="0"/><stop offset="1" stop-color="#8ed8ce"/></linearGradient><radialGradient id="radial-gradient" cx="248.94" cy="1027.76" r="21.45" gradientTransform="translate(-112.85 31.6) scale(0.77 0.09)" gradientUnits="userSpaceOnUse"><stop offset="0" stop-color="#a38507" stop-opacity="0.4"/><stop offset="1" stop-color="#a38507"/></radialGradient><linearGradient id="linear-gradient-8" x1="87.01" y1="75.56" x2="93.48" y2="75.22" gradientUnits="userSpaceOnUse"><stop offset="0" stop-color="#fff" stop-opacity="0"/><stop offset="0.14" stop-color="#fff" stop-opacity="0.15"/><stop offset="0.38" stop-color="#fff" stop-opacity="0.39"/><stop offset="0.56" stop-color="#fff" stop-opacity="0.54"/><stop offset="0.66" stop-color="#fff" stop-opacity="0.6"/><stop offset="0.71" stop-color="#fff" stop-opacity="0.54"/><stop offset="0.8" stop-color="#fff" stop-opacity="0.39"/><stop offset="0.93" stop-color="#fff" stop-opacity="0.15"/><stop offset="1" stop-color="#fff" stop-opacity="0"/></linearGradient><linearGradient id="linear-gradient-9" x1="85.26" y1="101.14" x2="94.61" y2="100.65" xlink:href="#linear-gradient-8"/><radialGradient id="radial-gradient-2" cx="78.66" cy="118" r="13.11" gradientTransform="translate(0 104.07) scale(1 0.12)" gradientUnits="userSpaceOnUse"><stop offset="0" stop-opacity="0.4"/><stop offset="1" stop-color="#a38507"/></radialGradient><linearGradient id="linear-gradient-10" x1="78" y1="99.7" x2="79.41" y2="107.73" gradientUnits="userSpaceOnUse"><stop offset="0" stop-color="#a38507"/><stop offset="0.07" stop-color="#b2920b" stop-opacity="0.84"/><stop offset="0.28" stop-color="#dbb617" stop-opacity="0.39"/><stop offset="0.43" stop-color="#f5cc1f" stop-opacity="0.11"/><stop offset="0.5" stop-color="#ffd522" stop-opacity="0"/><stop offset="0.57" stop-color="#f6cd1f" stop-opacity="0.1"/><stop offset="0.71" stop-color="#deb818" stop-opacity="0.36"/><stop offset="0.9" stop-color="#b8970d" stop-opacity="0.77"/><stop offset="1" stop-color="#a38507"/></linearGradient><linearGradient id="linear-gradient-11" x1="78.72" y1="100.94" x2="78.72" y2="106.49" gradientUnits="userSpaceOnUse"><stop offset="0" stop-color="#a38507" stop-opacity="0"/><stop offset="0.1" stop-color="#a38507" stop-opacity="0.22"/><stop offset="0.23" stop-color="#a38507" stop-opacity="0.46"/><stop offset="0.37" stop-color="#a38507" stop-opacity="0.65"/><stop offset="0.51" stop-color="#a38507" stop-opacity="0.81"/><stop offset="0.66" stop-color="#a38507" stop-opacity="0.91"/><stop offset="0.82" stop-color="#a38507" stop-opacity="0.98"/><stop offset="1" stop-color="#a38507"/></linearGradient><linearGradient id="linear-gradient-12" x1="-988.24" y1="103.05" x2="-1000.62" y2="103.05" gradientTransform="matrix(-1, 0, 0, 1, -900, 0)" gradientUnits="userSpaceOnUse"><stop offset="0" stop-color="#fff" stop-opacity="0"/><stop offset="1" stop-color="#fff"/></linearGradient><linearGradient id="linear-gradient-13" x1="69.67" y1="102.97" x2="57.73" y2="102.97" gradientTransform="matrix(1, 0, 0, 1, 0, 0)" xlink:href="#linear-gradient-12"/><linearGradient id="linear-gradient-14" x1="59.09" y1="116.06" x2="98.4" y2="116.06" gradientUnits="userSpaceOnUse"><stop offset="0" stop-color="#9e9600"/><stop offset="0.42" stop-color="#ffd522" stop-opacity="0"/><stop offset="1" stop-color="#9e9600"/></linearGradient><linearGradient id="linear-gradient-15" x1="54.94" y1="75.72" x2="102.54" y2="75.72" gradientUnits="userSpaceOnUse"><stop offset="0" stop-color="#fff" stop-opacity="0.8"/><stop offset="0.4" stop-color="#fff" stop-opacity="0.35"/><stop offset="1" stop-color="#fff"/></linearGradient><linearGradient id="linear-gradient-16" x1="66.6" y1="125.37" x2="75.27" y2="125.21" gradientUnits="userSpaceOnUse"><stop offset="0.08" stop-color="#fff" stop-opacity="0"/><stop offset="0.15" stop-color="#fff" stop-opacity="0.21"/><stop offset="0.27" stop-color="#fff" stop-opacity="0.54"/><stop offset="0.37" stop-color="#fff" stop-opacity="0.79"/><stop offset="0.45" stop-color="#fff" stop-opacity="0.94"/><stop offset="0.48" stop-color="#fff"/><stop offset="0.52" stop-color="#fff" stop-opacity="0.94"/><stop offset="0.6" stop-color="#fff" stop-opacity="0.79"/><stop offset="0.7" stop-color="#fff" stop-opacity="0.54"/><stop offset="0.82" stop-color="#fff" stop-opacity="0.21"/><stop offset="0.89" stop-color="#fff" stop-opacity="0"/></linearGradient><linearGradient id="linear-gradient-17" x1="62.46" y1="101.99" x2="73.65" y2="101.2" xlink:href="#linear-gradient-16"/><linearGradient id="linear-gradient-18" x1="60.61" y1="76.36" x2="69.94" y2="79.39" xlink:href="#linear-gradient-16"/><linearGradient id="linear-gradient-19" x1="59.48" y1="78.11" x2="73.7" y2="78.11" gradientUnits="userSpaceOnUse"><stop offset="0" stop-color="#fff" stop-opacity="0"/><stop offset="0.09" stop-color="#fff" stop-opacity="0.21"/><stop offset="0.23" stop-color="#fff" stop-opacity="0.54"/><stop offset="0.35" stop-color="#fff" stop-opacity="0.79"/><stop offset="0.44" stop-color="#fff" stop-opacity="0.94"/><stop offset="0.48" stop-color="#fff"/><stop offset="0.53" stop-color="#fff" stop-opacity="0.94"/><stop offset="0.62" stop-color="#fff" stop-opacity="0.79"/><stop offset="0.75" stop-color="#fff" stop-opacity="0.54"/><stop offset="0.91" stop-color="#fff" stop-opacity="0.21"/><stop offset="1" stop-color="#fff" stop-opacity="0"/></linearGradient><linearGradient id="linear-gradient-20" x1="86.02" y1="71.54" x2="95.13" y2="74.5" xlink:href="#linear-gradient-16"/></defs><title>label-a-oil</title><circle id="Backdrop_A" data-name="Backdrop A" cx="62.43" cy="78.52" r="62.18" style="fill:#8ed8ce"/><path id="Label_A_Back" data-name="Label A Back" d="M93.08,56.52a222,222,0,0,1,53.19-10.89,248.9,248.9,0,0,1,54.82,1.81l-12.63,55.28a197.16,197.16,0,0,0-42.37-9.64,178.93,178.93,0,0,0-44,.56Z" style="fill:#ebd900"/><g id="Label_A" data-name="Label A"><path d="M125.23,57.88q3.46,15.23,5.5,24.64v0a7.51,7.51,0,0,1-1.51.14,4.56,4.56,0,0,1-.8-.07,4.77,4.77,0,0,1-.81-.14h0c-.17-.46-.39-1.27-.67-2.41-.35-1.38-.66-2.51-.94-3.4-1.08,0-2.49-.07-4.24-.07h-1.47s-.08.51-.24,1.44c-.21,1.28-.41,2.34-.6,3.17s-.39,1.26-.63,1.31a1.14,1.14,0,0,1-.35,0l-.92,0q-.69,0-1.56,0h-.39v0a10.62,10.62,0,0,0,.32-1.85q.87-5.53,2-11.22a90.2,90.2,0,0,1,3.13-11.36,4.07,4.07,0,0,1,.56,0h.77C123.31,58,124.25,58,125.23,57.88Zm-3.18,16q2.24,0,4,0-2-11-2.35-11.41a1.73,1.73,0,0,0-.52-.11c-.28,0-.51.23-.7.69a20.26,20.26,0,0,0-.77,3.06c-.33,1.59-.71,3.59-1.16,6l-.31,1.75h.7C121.39,73.84,121.77,73.85,122.05,73.87Z" style="fill:#fff"/><path d="M136.26,70.79l-2.7,0h-.1a10.06,10.06,0,0,1-.11-1.61l0-1.72c0-.21,0-.45,0-.73a4.8,4.8,0,0,1,1.68-.25,4.23,4.23,0,0,1,1.44.18c0,.12,0,.75-.11,1.89s-.1,1.88-.1,2.2v.07Zm0,11.76-2.66,0h-.1a10.06,10.06,0,0,1-.11-1.61l0-1.72c0-.21,0-.45,0-.73a4.8,4.8,0,0,1,1.68-.25,3.85,3.85,0,0,1,1.4.18c0,.12,0,.75-.1,1.89s-.11,1.88-.11,2.2v.07Z" style="fill:#fff"/><path d="M150.64,59.07a10.77,10.77,0,0,1,4.76-1,9.39,9.39,0,0,1,4.25.93,4.85,4.85,0,0,1,2.54,2.85,9.73,9.73,0,0,1,.67,4c0,.75,0,1.3,0,1.65,0,.82-.07,2-.07,3.6,0,.4,0,.9,0,1.49s0,1.29-.08,2.08l-.11,1.16a10.45,10.45,0,0,1-1.33,4.72,5.4,5.4,0,0,1-2.71,1.89,11.43,11.43,0,0,1-3.8.63q-.73,0-1.08,0a6,6,0,0,1-4-1.63q-1.36-1.41-1.43-4.71l-.11-2.2c0-.47-.06-1.28-.1-2.43s-.07-2.21-.07-3.17,0-2.14.1-3.19a14.07,14.07,0,0,1,.63-4A4.48,4.48,0,0,1,150.64,59.07Zm9.17,11.34,0-2.8c-.1-1.59-.18-2.67-.25-3.24a4.47,4.47,0,0,0-1.05-2.05,4.33,4.33,0,0,0-6.84,1.16,18.11,18.11,0,0,0-1.07,7.14c0,2,0,3.48.12,4.57a9.94,9.94,0,0,0,.51,2.62,3.31,3.31,0,0,0,1.19,1.56,4.14,4.14,0,0,0,2.42.59,5.25,5.25,0,0,0,3.6-1,4.13,4.13,0,0,0,1.23-3c0-.7,0-1.52.07-2.48s.08-1.58.1-1.86Z" style="fill:#fff"/><path d="M166.71,64.88a7.5,7.5,0,0,1,1,0c.7.05,1.47.07,2.31.07v.1c0,1,0,2.68-.07,4.87s-.11,4.5-.11,6.79.05,4.06.14,5.74a7.58,7.58,0,0,1-1.47.1H167.3a4.91,4.91,0,0,0-.77,0c0-.68,0-1.7,0-3.08V73.42c0-1.63-.07-2.89-.07-3.78,0-1.61.07-3.19.21-4.73Zm-.14-7.53c1.44,0,2.54.07,3.29.07L170,62a3,3,0,0,1-1.26.18,6,6,0,0,1-.84,0h-.49a5,5,0,0,0-.66,0c0-.35,0-.92-.07-1.71C166.57,58.93,166.54,57.89,166.57,57.35Z" style="fill:#fff"/><path d="M174.58,57.11l3.19.1c0,1,0,3.33-.07,7.11q-.07,7-.07,11,0,4.41.1,7c-.14.17-.52.25-1.15.25l-1.09,0c-.21,0-.47,0-.77,0a1.19,1.19,0,0,0-.35,0q.21-2.83.21-5.7,0-2.17-.14-6.51c-.09-2.89-.14-5.08-.14-6.55Q174.3,60.09,174.58,57.11Z" style="fill:#fff"/></g><g id="Oil_A" data-name="Oil A"><path d="M66.06,92.28c.75,1.39,1.54,2.4,1.54,4.09,0,0,0,14.46-.12,16-.16,3.29-9.85,6.37-21.14,6.37s-21.71-2.79-21.71-6.08c0-1.63.06-15.92.06-15.92,0-1.9,1.19-4,2-5.62a3.21,3.21,0,0,0,.46-1.2l-.46-38.47a3.68,3.68,0,0,0-.51-1.37,7.13,7.13,0,0,1-1.19-4l.91-9.66C25.94,29,38.23,21.79,40.6,9.93l11.77.39C55.2,21.84,67,29.65,67.2,36.35l.46,9.84a8.06,8.06,0,0,1-1.14,4.15c-.19.3-.62.77-.63,1.13L65.78,91A3.89,3.89,0,0,0,66.06,92.28Z" style="fill:#fff;opacity:0.4"/><ellipse cx="46.34" cy="115.3" rx="21.55" ry="2.99" style="fill:#a38507;stroke:#8e7300;stroke-miterlimit:10;stroke-width:1.21723983599883px"/><path d="M66.06,92.28c.75,1.39,1.54,2.4,1.54,4.09,0,0,0,14.46-.12,16-.16,3.29-9.85,6.37-21.14,6.37s-21.71-2.79-21.71-6.08c0-1.63.06-15.92.06-15.92,0-1.9,1.19-4,2-5.62a3.21,3.21,0,0,0,.46-1.2l-.46-38.47a3.68,3.68,0,0,0-.51-1.37,7.13,7.13,0,0,1-1.19-4l.91-9.66c0-5,5.64-10,10-16.31a171.86,171.86,0,0,0,21.13.1c4.41,6.46,10,11.56,10.11,16.15l.46,9.84a8.06,8.06,0,0,1-1.14,4.15c-.19.3-.62.77-.63,1.13L65.78,91A3.89,3.89,0,0,0,66.06,92.28Z" style="fill:#ffd522;opacity:0.8"/><path d="M66.06,92.28c.75,1.39,1.54,2.4,1.54,4.09,0,0,0,14.46-.12,16-.16,3.29-9.85,6.37-21.14,6.37s-21.71-2.79-21.71-6.08c0-1.63.06-15.92.06-15.92,0-1.9,1.19-4,2-5.62a3.21,3.21,0,0,0,.46-1.2l-.46-38.47a3.68,3.68,0,0,0-.51-1.37,7.13,7.13,0,0,1-1.19-4l.91-9.66c0-5,5.64-10,10-16.31a171.86,171.86,0,0,0,21.13.1c4.41,6.46,10,11.56,10.11,16.15l.46,9.84a8.06,8.06,0,0,1-1.14,4.15c-.19.3-.62.77-.63,1.13L65.78,91A3.89,3.89,0,0,0,66.06,92.28Z" style="opacity:0.5;fill:url(#linear-gradient)"/><path d="M36.22,19.76a70.33,70.33,0,0,0,20.65.09" style="fill:none;stroke:#bca43f;stroke-miterlimit:10;stroke-width:0.694673289239525px"/><path d="M69.28,96.7a10.37,10.37,0,0,0-1-4.42,3.87,3.87,0,0,1-.37-1.71l-.46-38.75a6.06,6.06,0,0,1,.92-2.15,8.29,8.29,0,0,0,.89-3.75L68.72,37c0-8.1-12.57-16-15.77-27.54L39.83,9.3C37.14,21.16,24.15,29.16,24.15,36.61l-.88,9.31A8.27,8.27,0,0,0,24.36,50,4.31,4.31,0,0,1,25,52.18V89.89a4.08,4.08,0,0,1-.49,1.94,10.35,10.35,0,0,0-1.21,4.86V114.3c0,3.29,10.26,6,23,6s23-2.67,23-6ZM65,92.41a9.35,9.35,0,0,1,1.48,4.45s-.34,13.22-.42,14.73c-.17,3.28-8.41,5.69-19.7,5.69s-20.4-1.87-20.4-5.16c0-1.63.07-15.43.07-15.43a12.08,12.08,0,0,1,1.63-5.46,2.07,2.07,0,0,0,.26-1l-.39-38.72a2.06,2.06,0,0,0-.3-1A9.09,9.09,0,0,1,26,45.92l.78-9.31C26.77,29.16,39,22,41.33,10.17l10.29.11C54.46,21.8,65.79,30.37,66,37.08l.75,8.84c0,1.49-.95,3-1.7,4.2a2,2,0,0,0-.28,1l0,39.8A4.55,4.55,0,0,0,65,92.41Z" style="fill:#8e7300"/><path d="M46.26,85a96.22,96.22,0,0,1-13.63-1A2.16,2.16,0,0,1,30.69,82V60.41a2.07,2.07,0,0,1,1.91-2.08,17.08,17.08,0,0,0,5.22-1.28,21.56,21.56,0,0,1,8.35-1.6A22.5,22.5,0,0,1,54.23,57a20.23,20.23,0,0,0,5.68,1.33,2.11,2.11,0,0,1,2,2.08V81.94a2.17,2.17,0,0,1-2,2.08A96.73,96.73,0,0,1,46.26,85Z" style="fill:#a5ce4a"/><path d="M46.17,56.14A21.85,21.85,0,0,1,54,57.63,21.31,21.31,0,0,0,59.86,59a1.42,1.42,0,0,1,1.34,1.39V81.94a1.47,1.47,0,0,1-1.36,1.39,95.33,95.33,0,0,1-13.58,1,96.31,96.31,0,0,1-13.53-1A1.45,1.45,0,0,1,31.38,82V60.41A1.36,1.36,0,0,1,32.64,59a18.56,18.56,0,0,0,5.42-1.32,20.89,20.89,0,0,1,8.11-1.57m0-1.39c-7,0-9,2.6-13.61,2.89A2.77,2.77,0,0,0,30,60.41V82a2.85,2.85,0,0,0,2.54,2.77,98.07,98.07,0,0,0,13.73,1,97.47,97.47,0,0,0,13.77-1,2.86,2.86,0,0,0,2.56-2.77V60.38A2.8,2.8,0,0,0,60,57.61c-4.88-.32-7.22-2.86-13.78-2.86Z" style="fill:#f2f1eb"/><path d="M62.59,73.7V66c-3.45.89-7.9.41-12.73-2.63C43.87,59.61,35,62.13,30,64.71v7c4.16-1.82,7.66-.48,10.6,2.15C47.5,80,57.06,76.77,62.59,73.7Z" style="fill:#89a835"/><g style="opacity:0.6000000000000001"><path d="M60,84.71a96.7,96.7,0,0,1-27.5,0A2.85,2.85,0,0,1,30,82V60.41a2.77,2.77,0,0,1,2.57-2.77c4.6-.29,6.57-2.89,13.61-2.89,6.56,0,8.9,2.54,13.78,2.86a2.8,2.8,0,0,1,2.64,2.77V81.94A2.86,2.86,0,0,1,60,84.71Z" style="fill:url(#linear-gradient-2)"/></g><path d="M42.7,11.27C40.22,22.42,30.46,29.8,29,35.77c-.81,3.39-1.12,9.95-.33,10.35s2.64.84,5.81.84c.91,0-1-8.47.58-11.85,3.46-7.56,7-15,8.53-23.69C43.77,10.67,42.82,10.71,42.7,11.27Z" style="fill:#fff;opacity:0.5"/><path d="M63.56,49.83c-1.15,1.16-33.25,1.31-34.07,0-.45-.73-1.46-2.6,0-2.25,5.08,1.23,28.9,1,34.07,0C65.28,47.24,64.72,48.66,63.56,49.83Z" style="fill:#8e7300;opacity:0.30000000000000004"/><path d="M30,51.73c.07.71.23,3.06.25,4.57,0,.59,5.32.2,5.46-.86s1.28-3.55.08-3.55S29.93,50.8,30,51.73Z" style="fill:#fff;opacity:0.5"/><path d="M30.84,86.9c0,1.81.4,3.7-.05,4.45s-2.51,1.72-2.51,3.82-.18,16-.08,16.79,5.82,3.59,5.52,1.34-1.23-15.41-.34-17.38A14,14,0,0,0,34.54,92a23.42,23.42,0,0,0-.26-4.81C34.19,86.63,30.84,85.69,30.84,86.9Z" style="fill:#fff;opacity:0.5"/><path d="M61.26,92.54c-5.85.94-23.53,1.33-30.22-.19-1.29-.3-3,1.63-1.55,2.12,5.61,1.94,28.23,1.6,33.51.25C64.7,94.29,63.57,92.16,61.26,92.54Z" style="fill:#8e7300;opacity:0.30000000000000004"/><path d="M64.17,95.76c2-.58,0,15.34.09,16.14.18,1.74-15.79,5.2-15.49,2.94s-2.34-18.08-.17-18C50.19,96.87,60.38,96.83,64.17,95.76Z" style="opacity:0.6000000000000001;fill:url(#linear-gradient-3)"/><path d="M50.83,11.21C53.3,22.37,63,29.43,64.4,35.4c.81,3.39,1.27,10.48.43,10.74-3.5,1.08-16.33,1.53-19,1.16-.9-.12,5-8.85,4.54-16-.58-8.29-1.16-10.62-2.52-20.1C47.82,10.79,50.71,10.66,50.83,11.21Z" style="opacity:0.6000000000000001;fill:url(#linear-gradient-4)"/><path d="M62.67,51.75c.3.64-.23,3.06-.25,4.56,0,.6-5.44-.44-6.46-.78a35.5,35.5,0,0,0-7.65-1.93C47.26,53.53,47,52,47.57,52,53.12,52.57,62.53,51.45,62.67,51.75Z" style="opacity:0.6000000000000001;fill:url(#linear-gradient-5)"/><path d="M62.05,85.61c1.11-.35.28,4.35.48,5.14s-12.1,2-14.69,1.44c-2.23-.48-1.85-5.08.32-5C49.75,87.22,58.4,86.75,62.05,85.61Z" style="opacity:0.6000000000000001;fill:url(#linear-gradient-6)"/><path d="M54,10.21a76.3,76.3,0,0,1-15.41,0A.7.7,0,0,1,38,9.49,33.89,33.89,0,0,1,38.08,6c.15-.63.59-3.58.59-3.58A1.38,1.38,0,0,1,40,1a102.83,102.83,0,0,1,12.78,0,1.4,1.4,0,0,1,1.32,1.36s.33,2.81.48,3.25a37.15,37.15,0,0,1,.08,3.83A.71.71,0,0,1,54,10.21Z" style="fill:#1e7512"/><path d="M52.67,8.34a71.57,71.57,0,0,1-13.14.2l0-2.51.4-3.7a89.37,89.37,0,0,1,12.22.08L52.62,6Z" style="fill:#549b3d"/><path d="M46.9,2.18c-2.06-.05-4,0-6.25.11v5.5a54.59,54.59,0,0,0,6.25.08Z" style="fill:#71b252"/><path d="M44.57,2.16c-.74,0-1.49,0-2.27,0V7.88c.76,0,1.52,0,2.27,0Z" style="fill:#89c967"/><path d="M52.62,6l-.45-3.58-1-.06V7.62l1.46-.12Z" style="fill:#71b252"/><path d="M39.53,8.54a71.57,71.57,0,0,0,13.14-.2l-.05-2.28H39.55Z" style="fill:#549b3d"/><path d="M51.22,7.34l0,.95c0,.06,0,.11,0,.17l1.48-.12,0-1.94h-.47C51.27,6.4,51.22,6.25,51.22,7.34Z" style="fill:#71b252"/><path d="M45.51,8.75s0-.06,0-.1l-.1-1.22c0-.51-.32-.9-1.29-.9H42.79a.94.94,0,0,0-.94.94l0,1c0,.11,0,.2,0,.28C43.08,8.76,44.29,8.77,45.51,8.75Z" style="fill:#97d375"/></g><g id="Cup_A" data-name="Cup A"><path d="M103.77,75.48c-.69-1.85-2.35-3-8.29-3.76a140.41,140.41,0,0,0-16.61-.86,139.62,139.62,0,0,0-16.58.86c-4,.52-7.52,1.42-8.2,3.8-.37,1.33.2,2.37,2.27,3.2l3.41,41.33c0,.36.74.61,1.07.7l.42,4.06c.5,2.44,7.19,4.26,17.44,4.26s16.56-1.91,17.45-4.26l.5-4c.31-.1,1-.44,1.06-.85l3.8-41.17C103.41,77.93,104.24,76.76,103.77,75.48Z" style="opacity:0.8;fill:url(#linear-gradient-7)"/><path d="M94.73,124.6c0,1.1-7,3-16.07,3s-16.36-1.91-16.36-3,7.39-2.52,16.45-2.52S94.73,123.51,94.73,124.6Z" style="opacity:0.5;fill:url(#radial-gradient)"/><path d="M93.46,74.85c-2-.18-3.64-.35-6.45-.46,0,.66,0,1.45.06,2.34,2.6-.14,4.71-.34,6.43-.56C93.49,75.68,93.48,75.23,93.46,74.85Z" style="opacity:0.30000000000000004;fill:url(#linear-gradient-8)"/><path d="M87.11,79.65c.08,9.17-.14,24.77-.82,37.52-.26,4.94.15,5.46,2.94,5.28,1.25-.09,1.08-2.41,1.42-4.94,1.14-8.52,2.63-28.33,2.83-38.33C91.6,79.39,89.45,79.55,87.11,79.65Z" style="opacity:0.30000000000000004;fill:url(#linear-gradient-9)"/><path d="M60.74,119.57c0-1.58,8.93-2.58,18-2.58s17.85,1.14,17.85,2.58" style="fill:none;stroke-miterlimit:10;stroke-width:1.1149077481622px;opacity:0.35000000000000003;stroke:url(#radial-gradient-2)"/><path d="M96.77,119.54l-1.19.32c-.37.1-.43,4.87-.78,5-10.39,4.69-21.79,4.25-32.47.35-.42-.15-.23-4.89-.67-5l-1-.22-1.55-16.21c3.57-3.73,38.44-3.25,39.28.31Z" style="fill:#ffd522;opacity:0.7000000000000001"/><g style="opacity:0.9"><ellipse cx="78.7" cy="103.71" rx="18.86" ry="2.46" style="fill:url(#linear-gradient-10)"/><path d="M97.86,103.71a.91.91,0,0,1-.47.71,3.35,3.35,0,0,1-.59.31,9.11,9.11,0,0,1-1.19.38c-.8.21-1.6.35-2.4.48-1.6.25-3.21.42-4.82.55-3.23.24-6.46.33-9.69.33s-6.45-.11-9.68-.37c-1.61-.13-3.22-.29-4.82-.55-.8-.12-1.6-.27-2.39-.47a10.27,10.27,0,0,1-1.19-.38,4.09,4.09,0,0,1-.58-.31.86.86,0,0,1-.45-.68A.89.89,0,0,1,60,103a3.21,3.21,0,0,1,.58-.3,7.81,7.81,0,0,1,1.19-.38c.79-.2,1.59-.35,2.39-.47,1.61-.25,3.22-.4,4.83-.53,3.22-.25,6.45-.35,9.67-.36s6.46.08,9.68.33c1.62.12,3.23.28,4.83.52.8.13,1.6.27,2.4.47a10.93,10.93,0,0,1,1.19.38,3.06,3.06,0,0,1,.59.31A.91.91,0,0,1,97.86,103.71Zm-.58,0a.56.56,0,0,0-.22-.23,4.3,4.3,0,0,0-.48-.25,9.17,9.17,0,0,0-1.12-.35c-.76-.2-1.55-.34-2.34-.47-1.58-.25-3.18-.41-4.78-.54-3.2-.25-6.42-.36-9.64-.37s-6.43.09-9.64.33c-1.6.13-3.2.3-4.78.54-.79.13-1.58.27-2.35.47a8,8,0,0,0-1.11.36c-.34.12-.74.4-.73.51s.39.39.73.51a6.64,6.64,0,0,0,1.12.35,22.51,22.51,0,0,0,2.34.46c1.58.25,3.18.4,4.79.53,3.2.24,6.42.33,9.63.33s6.44-.11,9.64-.37c1.6-.12,3.2-.28,4.78-.52.79-.12,1.58-.27,2.34-.46a10.4,10.4,0,0,0,1.12-.35,3.09,3.09,0,0,0,.48-.25A.5.5,0,0,0,97.28,103.71Z" style="fill:url(#linear-gradient-11)"/></g><polygon points="88.24 127.57 95.25 125.31 100.62 78.54 90.12 79.97 88.24 127.57" style="opacity:0.4;fill:url(#linear-gradient-12)"/><path d="M95.76,125.06c-10.82,4-22,3.86-34.18-.06L57.73,78.62c14.64,2.18,28.56,2.5,42.33.18Z" style="fill:#fff;opacity:0.15"/><polygon points="69.67 127.07 61.65 125.06 57.73 78.86 67.54 80.04 69.67 127.07" style="opacity:0.4;fill:url(#linear-gradient-13)"/><path d="M96.77,119.54l-1.19.32c-.37.1-.43,4.87-.78,5-10.39,4.69-21.79,4.25-32.47.35-.42-.15-.23-4.89-.67-5l-1-.22-1.55-16.21c7.6,3.66,33.85,2.77,39.31,0Z" style="opacity:0.7000000000000001;fill:url(#linear-gradient-14)"/><path d="M58.55,75.24c15.56-3,27.51-1.54,40.55,0A117.5,117.5,0,0,1,58.55,75.24Z" style="fill:#fff;opacity:0.30000000000000004"/><path d="M102.48,75.47s-.1-.34-.11-.36c-.26-.82-1.05-1.84-7.18-2.63a134.74,134.74,0,0,0-16.35-.87,137.89,137.89,0,0,0-16.41.8c-6.2.79-6.8,1.85-7.09,2.66,0,0-.29.05,0,.21l0,.09c-.16-.18,0-.05,0-.05-.55-.17-.15.48-.16.57,0,1.06,2.08,2.3,7.49,3a130.49,130.49,0,0,0,16.35.93A130,130,0,0,0,95,79C100.8,78.22,102.93,76.59,102.48,75.47ZM78.86,73.56c11.22,0,18.22.56,20.73,1.45-.54.1-1,.24,0,.09-1,.15-6.42,1.85-20.76,1.85-13.08,0-19.54-1.51-20.73-1.88.82.26,0,0,0,0C60.59,74.17,67.45,73.56,78.86,73.56Z" style="opacity:0.5;fill:url(#linear-gradient-15)"/><path d="M57.49,75v0c.89.87,8.3,2.15,21.38,2.15C93.21,77.18,99.3,75.74,100,75c0,0,0,0,0-.06-2.51-.89-9.93-1.83-21.16-1.83C67.46,73.15,60,74.12,57.49,75Zm21.38,1.62a114.47,114.47,0,0,1-18.68-1.21,114.47,114.47,0,0,1,18.68-1.21A115.21,115.21,0,0,1,97.6,75.42,115.21,115.21,0,0,1,78.87,76.63Z" style="fill:#4e8b9b"/><path d="M103.77,75.48c-.69-1.85-2.35-3-8.29-3.76a140.41,140.41,0,0,0-16.61-.86,139.62,139.62,0,0,0-16.58.86c-4,.52-7.52,1.42-8.2,3.8-.37,1.33.2,2.37,2.27,3.2l3.41,41.33c0,.36.74.61,1.07.7l.42,4.06c.5,2.44,7.19,4.26,17.44,4.26s16.56-1.91,17.45-4.26l.5-4c.31-.1,1-.44,1.06-.85l3.8-41.17C103.41,77.93,104.24,76.76,103.77,75.48Zm-10,48.43c-2.41,2.34-8.22,3.16-13.43,3.16-4.45,0-13.33-.26-17-2.73-.56-.38-.56-2-.67-3.29a76.16,76.16,0,0,0,17.71,2,59,59,0,0,0,14-2C94.17,122.22,94.15,123.57,93.79,123.91Zm1.27-4.51c-1.45,1-6.55,2.63-16.44,2.63s-15-1.32-16.48-2.29c-1.08-.72-3-30.6-3.43-40.33,1,.22,2.09.42,3.42.6a122.34,122.34,0,0,0,16.42,1.18,148.41,148.41,0,0,0,17-.8,27.06,27.06,0,0,0,3.22-.59C98.41,91.36,96.13,118.69,95.06,119.4ZM95,78.56a129.86,129.86,0,0,1-16.12.85,132.26,132.26,0,0,1-16.23-.85c-5.41-.71-7.24-1.72-7.27-2.77,0-.1.05-.31.06-.37h0c.3-.81.84-1.85,7-2.65a138.85,138.85,0,0,1,16.4-.84,136.9,136.9,0,0,1,16.32.84c6.14.8,6.64,1.78,6.9,2.6a.25.25,0,0,1,0,.07C102.56,76.57,100.78,77.78,95,78.56Z" style="fill:#4e8b9b"/><path d="M75.06,123.33a58,58,0,0,1-8.51-1,24.89,24.89,0,0,0,.32,4.73,37.25,37.25,0,0,0,8.45,1.09C75.33,127.46,75.18,126.26,75.06,123.33Z" style="opacity:0.6000000000000001;fill:url(#linear-gradient-16)"/><path d="M72.91,120.15a280.75,280.75,0,0,1-.63-38.56,87.19,87.19,0,0,1-10.77-1c0,9.76,1.15,30.08,3.3,38.81a13.57,13.57,0,0,0,.78,2.31,74.65,74.65,0,0,0,7.45,1A25.45,25.45,0,0,0,72.91,120.15Z" style="opacity:0.6000000000000001;fill:url(#linear-gradient-17)"/><path d="M69.32,80c.29-1.45.3-2.1,1.39-3-3.22-.16-6.5-.46-9.47-.9-1.29,1.18-.93,1.39-1,2.77A57.51,57.51,0,0,0,69.32,80Z" style="opacity:0.6000000000000001;fill:url(#linear-gradient-18)"/><path d="M59.59,77.49a89.21,89.21,0,0,0,14.1,1.23" style="fill:none;stroke-miterlimit:10;stroke-width:1.1149077481622px;opacity:0.5;stroke:url(#linear-gradient-19)"/><path d="M94.66,74.59a2.68,2.68,0,0,1,1.2-2.35c-3.24-.39-6.18-.65-9.39-.75a2.64,2.64,0,0,0-1,2.38C87.78,74,91.88,74.23,94.66,74.59Z" style="opacity:0.4;fill:url(#linear-gradient-20)"/></g></svg>