<svg id="Label_Wood_A" data-name="Label Wood A" xmlns="http://www.w3.org/2000/svg" xmlns:xlink="http://www.w3.org/1999/xlink" viewBox="0 0 285 141"><defs><radialGradient id="radial-gradient" cx="102.59" cy="59.64" r="31.6" gradientUnits="userSpaceOnUse"><stop offset="0" stop-color="#ecc8a1"/><stop offset="0.35" stop-color="#ecc69d"/><stop offset="0.67" stop-color="#ecbf93"/><stop offset="0.97" stop-color="#edb481"/><stop offset="1" stop-color="#edb27e"/></radialGradient><radialGradient id="radial-gradient-2" cx="79.38" cy="85.53" r="0.01" gradientUnits="userSpaceOnUse"><stop offset="0" stop-color="#ecc8a1"/><stop offset="0.35" stop-color="#ecc69d"/><stop offset="0.66" stop-color="#ecbf93"/><stop offset="0.95" stop-color="#edb481"/><stop offset="1" stop-color="#edb27d"/></radialGradient><linearGradient id="linear-gradient" x1="63.87" y1="90.44" x2="67.88" y2="74.38" gradientUnits="userSpaceOnUse"><stop offset="0" stop-color="#faf9d7"/><stop offset="0.12" stop-color="#ebe7c5"/><stop offset="0.38" stop-color="#c2b797"/><stop offset="0.73" stop-color="#826c4e"/><stop offset="0.82" stop-color="#71573a"/></linearGradient><linearGradient id="linear-gradient-2" x1="39.9" y1="116.9" x2="67.68" y2="83.79" gradientUnits="userSpaceOnUse"><stop offset="0" stop-color="#a67c52"/><stop offset="0.08" stop-color="#b18c63"/><stop offset="0.28" stop-color="#cbb38d"/><stop offset="0.48" stop-color="#e0d2ad"/><stop offset="0.67" stop-color="#eee7c4"/><stop offset="0.85" stop-color="#f7f4d2"/><stop offset="1" stop-color="#faf9d7"/></linearGradient><linearGradient id="linear-gradient-3" x1="80.77" y1="100.56" x2="103.6" y2="108.87" gradientUnits="userSpaceOnUse"><stop offset="0" stop-color="#71573a"/><stop offset="0.84" stop-color="#71573a" stop-opacity="0.6"/><stop offset="1" stop-color="#4ec9f5" stop-opacity="0.99"/></linearGradient><linearGradient id="linear-gradient-4" x1="82.26" y1="86.11" x2="24.41" y2="86.11" gradientUnits="userSpaceOnUse"><stop offset="0" stop-color="#faf9d7"/><stop offset="0.25" stop-color="#faf9d7"/><stop offset="1" stop-color="#faf9d7" stop-opacity="0"/></linearGradient><linearGradient id="linear-gradient-5" x1="49.63" y1="92.53" x2="57.04" y2="79.69" gradientUnits="userSpaceOnUse"><stop offset="0" stop-color="#faf9d7" stop-opacity="0.4"/><stop offset="1" stop-color="#faf9d7" stop-opacity="0.4"/></linearGradient><linearGradient id="linear-gradient-6" x1="81.45" y1="94.64" x2="81.45" y2="125.68" gradientUnits="userSpaceOnUse"><stop offset="0" stop-color="#faf9d7"/><stop offset="0.42" stop-color="#faf9d7"/><stop offset="0.7" stop-color="#faf9d7" stop-opacity="0"/><stop offset="1" stop-color="#faf9d7"/></linearGradient><linearGradient id="linear-gradient-7" x1="74.33" y1="122.49" x2="88.57" y2="97.83" gradientUnits="userSpaceOnUse"><stop offset="0" stop-color="#faf9d7" stop-opacity="0.4"/><stop offset="0.42" stop-color="#faf9d7" stop-opacity="0.4"/><stop offset="0.7" stop-color="#faf9d7" stop-opacity="0.4"/><stop offset="1" stop-color="#faf9d7" stop-opacity="0.4"/></linearGradient><linearGradient id="linear-gradient-8" x1="80.43" y1="95.86" x2="102.3" y2="83.23" gradientUnits="userSpaceOnUse"><stop offset="0" stop-color="#faf9d7"/><stop offset="0.32" stop-color="#faf9d7"/><stop offset="1" stop-color="#faf9d7" stop-opacity="0"/></linearGradient><linearGradient id="linear-gradient-9" x1="85.58" y1="99.65" x2="97.24" y2="79.45" xlink:href="#linear-gradient-5"/><linearGradient id="linear-gradient-10" x1="25.01" y1="73.83" x2="25.01" y2="104.87" xlink:href="#linear-gradient-6"/><linearGradient id="linear-gradient-11" x1="17.81" y1="101.64" x2="32.05" y2="76.98" xlink:href="#linear-gradient-7"/><linearGradient id="linear-gradient-12" x1="30.82" y1="60.02" x2="68.22" y2="73.63" xlink:href="#linear-gradient-3"/><linearGradient id="linear-gradient-13" x1="17.8" y1="74.38" x2="32.24" y2="57.17" gradientUnits="userSpaceOnUse"><stop offset="0" stop-color="#a67c52" stop-opacity="0.3"/><stop offset="0.13" stop-color="#b8976e" stop-opacity="0.45"/><stop offset="0.29" stop-color="#ccb48e" stop-opacity="0.62"/><stop offset="0.44" stop-color="#dccda8" stop-opacity="0.75"/><stop offset="0.6" stop-color="#e9e0bd" stop-opacity="0.86"/><stop offset="0.74" stop-color="#f3eecb" stop-opacity="0.94"/><stop offset="0.88" stop-color="#f8f6d4" stop-opacity="0.98"/><stop offset="1" stop-color="#faf9d7"/></linearGradient><linearGradient id="linear-gradient-14" x1="29.52" y1="29.56" x2="29.52" y2="59.37" gradientTransform="matrix(1, 0.02, -0.02, 1.02, -9.52, 13.56)" xlink:href="#linear-gradient-6"/><linearGradient id="linear-gradient-15" x1="11.87" y1="71.74" x2="26.18" y2="47.48" xlink:href="#linear-gradient-7"/><linearGradient id="linear-gradient-16" x1="217.17" y1="-54.94" x2="204.34" y2="-65.22" gradientTransform="matrix(0.93, 0.36, -0.36, 0.93, -192.98, 29.9)" gradientUnits="userSpaceOnUse"><stop offset="0" stop-color="#faf9d7"/><stop offset="0.25" stop-color="#faf9d7"/><stop offset="1" stop-color="#faf9d7"/></linearGradient><linearGradient id="linear-gradient-17" x1="22.82" y1="52.35" x2="27.59" y2="48.52" xlink:href="#linear-gradient-5"/><linearGradient id="linear-gradient-18" x1="31.36" y1="54.67" x2="31.36" y2="85.71" gradientUnits="userSpaceOnUse"><stop offset="0" stop-color="#faf9d7"/><stop offset="0.42" stop-color="#faf9d7"/><stop offset="0.7" stop-color="#faf9d7" stop-opacity="0.3"/><stop offset="1" stop-color="#faf9d7"/></linearGradient><linearGradient id="linear-gradient-19" x1="24.24" y1="82.52" x2="38.48" y2="57.86" xlink:href="#linear-gradient-7"/><linearGradient id="linear-gradient-20" x1="147.93" y1="9.85" x2="169.81" y2="-2.78" gradientTransform="translate(-111.66 13.57) rotate(12.83)" xlink:href="#linear-gradient-8"/><linearGradient id="linear-gradient-21" x1="34.57" y1="60.85" x2="50.43" y2="43.75" xlink:href="#linear-gradient-5"/><linearGradient id="linear-gradient-22" x1="142.12" y1="-5.31" x2="162.21" y2="-16.91" gradientTransform="matrix(0.97, 0.23, -0.23, 0.97, -121, 17.27)" xlink:href="#linear-gradient-8"/><linearGradient id="linear-gradient-23" x1="22.26" y1="49.61" x2="37" y2="34.03" xlink:href="#linear-gradient-5"/><radialGradient id="radial-gradient-3" cx="97.27" cy="38.23" r="64.48" gradientUnits="userSpaceOnUse"><stop offset="0" stop-color="#eaa569"/><stop offset="0.26" stop-color="#eaa76c"/><stop offset="0.49" stop-color="#ebae77"/><stop offset="0.71" stop-color="#ecb889"/><stop offset="0.92" stop-color="#edc8a2"/><stop offset="1" stop-color="#eecfae"/></radialGradient><linearGradient id="linear-gradient-24" x1="54.17" y1="27.96" x2="75.25" y2="35.64" xlink:href="#linear-gradient-3"/><linearGradient id="linear-gradient-25" x1="55.21" y1="21.52" x2="55.21" y2="51.65" xlink:href="#linear-gradient-6"/><linearGradient id="linear-gradient-26" x1="48.22" y1="48.6" x2="62.08" y2="24.59" xlink:href="#linear-gradient-7"/><linearGradient id="linear-gradient-27" x1="391.38" y1="-271.19" x2="379.16" y2="-246.83" gradientTransform="matrix(0.7, 0.71, -0.78, 0.77, -428.52, -42.03)" gradientUnits="userSpaceOnUse"><stop offset="0" stop-color="#faf9d7"/><stop offset="0.33" stop-color="#faf9d7"/><stop offset="0.6" stop-color="#faf9d7" stop-opacity="0"/><stop offset="1" stop-color="#faf9d7"/></linearGradient><linearGradient id="linear-gradient-28" x1="28.79" y1="37.64" x2="58.21" y2="28.76" xlink:href="#linear-gradient-7"/><linearGradient id="linear-gradient-29" x1="54.19" y1="22.82" x2="74.29" y2="11.22" xlink:href="#linear-gradient-8"/><linearGradient id="linear-gradient-30" x1="58.92" y1="26.31" x2="69.65" y2="7.74" xlink:href="#linear-gradient-5"/><linearGradient id="linear-gradient-31" x1="39.91" y1="52.49" x2="61.66" y2="26.57" xlink:href="#linear-gradient-2"/><radialGradient id="radial-gradient-4" cx="98.34" cy="21.55" r="0.77" gradientUnits="userSpaceOnUse"><stop offset="0" stop-color="#ecc8a1"/><stop offset="0.32" stop-color="#ecc69d"/><stop offset="0.6" stop-color="#ecbf93"/><stop offset="0.87" stop-color="#ecb481"/><stop offset="1" stop-color="#ecad75"/></radialGradient><linearGradient id="linear-gradient-32" x1="65.32" y1="54.54" x2="98.75" y2="54.54" gradientUnits="userSpaceOnUse"><stop offset="0.19" stop-color="#faf9d7"/><stop offset="0.28" stop-color="#e3debd"/><stop offset="0.48" stop-color="#a89879"/><stop offset="0.65" stop-color="#71573a"/><stop offset="0.73" stop-color="#705b40" stop-opacity="0.97"/><stop offset="0.8" stop-color="#6c6755" stop-opacity="0.89"/><stop offset="0.86" stop-color="#667c76" stop-opacity="0.74"/><stop offset="0.92" stop-color="#5d99a6" stop-opacity="0.54"/><stop offset="0.98" stop-color="#52bee2" stop-opacity="0.28"/><stop offset="1" stop-color="#4ec9f5" stop-opacity="0.2"/></linearGradient><linearGradient id="linear-gradient-33" x1="82.69" y1="25.76" x2="81.51" y2="14.45" gradientUnits="userSpaceOnUse"><stop offset="0" stop-color="#faf9d7" stop-opacity="0.5"/><stop offset="1" stop-color="#fff"/></linearGradient><linearGradient id="linear-gradient-34" x1="65.64" y1="22.61" x2="99.48" y2="22.61" gradientUnits="userSpaceOnUse"><stop offset="0.1" stop-color="#faf9d7" stop-opacity="0.8"/><stop offset="0.25" stop-color="#faf9d7" stop-opacity="0.58"/><stop offset="0.41" stop-color="#faf9d7" stop-opacity="0.38"/><stop offset="0.53" stop-color="#faf9d7" stop-opacity="0.25"/><stop offset="0.6" stop-color="#faf9d7" stop-opacity="0.2"/><stop offset="0.67" stop-color="#f9f9d8" stop-opacity="0.21"/><stop offset="0.72" stop-color="#f4f7d9" stop-opacity="0.25"/><stop offset="0.78" stop-color="#edf5dc" stop-opacity="0.32"/><stop offset="0.83" stop-color="#e3f2e0" stop-opacity="0.42"/><stop offset="0.88" stop-color="#d6ede6" stop-opacity="0.54"/><stop offset="0.92" stop-color="#c5e8ec" stop-opacity="0.69"/><stop offset="0.97" stop-color="#b3e2f4" stop-opacity="0.87"/><stop offset="1" stop-color="#a5def9"/></linearGradient><linearGradient id="linear-gradient-35" x1="65.49" y1="22.76" x2="99.38" y2="22.76" gradientUnits="userSpaceOnUse"><stop offset="0" stop-color="#faf9d7" stop-opacity="0"/><stop offset="0.26" stop-color="#faf9d7"/><stop offset="0.34" stop-color="#faf9d7" stop-opacity="0.67"/><stop offset="0.42" stop-color="#faf9d7" stop-opacity="0.39"/><stop offset="0.48" stop-color="#faf9d7" stop-opacity="0.18"/><stop offset="0.53" stop-color="#faf9d7" stop-opacity="0.05"/><stop offset="0.56" stop-color="#faf9d7" stop-opacity="0"/></linearGradient></defs><title>label-a-wood</title><circle id="Backdrop_A" data-name="Backdrop A" cx="62.43" cy="78.52" r="62.18" style="fill:#fba0a1"/><path id="Label_A_Back" data-name="Label A Back" d="M93.64,53.39A378.38,378.38,0,0,1,162.4,42a421,421,0,0,1,70.2.85l-11.06,64.51a361.43,361.43,0,0,0-59.29-10.59,328,328,0,0,0-60.68,0Z" style="fill:#ebd900"/><g id="Label_A" data-name="Label A"><path d="M125.23,57.88q3.46,15.23,5.5,24.64v0a7.51,7.51,0,0,1-1.51.14,4.56,4.56,0,0,1-.8-.07,4.77,4.77,0,0,1-.81-.14h0c-.17-.46-.39-1.27-.67-2.41-.35-1.38-.66-2.51-.94-3.4-1.08,0-2.49-.07-4.24-.07h-1.47s-.08.51-.24,1.44c-.21,1.28-.41,2.34-.6,3.17s-.39,1.26-.63,1.31a1.14,1.14,0,0,1-.35,0l-.92,0q-.69,0-1.56,0h-.39v0a10.62,10.62,0,0,0,.32-1.85q.87-5.53,2-11.22a90.2,90.2,0,0,1,3.13-11.36,4.07,4.07,0,0,1,.56,0h.77C123.31,58,124.25,58,125.23,57.88Zm-3.18,16q2.24,0,4,0-2-11-2.35-11.41a1.73,1.73,0,0,0-.52-.11c-.28,0-.51.23-.7.69a20.26,20.26,0,0,0-.77,3.06c-.33,1.59-.71,3.59-1.16,6l-.31,1.75h.7C121.39,73.84,121.77,73.85,122.05,73.87Z" style="fill:#fff"/><path d="M136.26,70.79l-2.7,0h-.1a10.06,10.06,0,0,1-.11-1.61l0-1.72c0-.21,0-.45,0-.73a4.8,4.8,0,0,1,1.68-.25,4.23,4.23,0,0,1,1.44.18c0,.12,0,.75-.11,1.89s-.1,1.88-.1,2.2v.07Zm0,11.76-2.66,0h-.1a10.06,10.06,0,0,1-.11-1.61l0-1.72c0-.21,0-.45,0-.73a4.8,4.8,0,0,1,1.68-.25,3.85,3.85,0,0,1,1.4.18c0,.12,0,.75-.1,1.89s-.11,1.88-.11,2.2v.07Z" style="fill:#fff"/><path d="M162.47,58.16l0,0q-.31,3.75-1.09,11.24-.13,1.57-.54,5.62c-.27,2.69-.5,5.14-.68,7.33a2,2,0,0,1-.67.07h-2.2a8.86,8.86,0,0,1-.75-2c-.2-.74-.43-1.7-.69-2.87-.07-.32-.16-.71-.26-1.17s-.23-1-.37-1.52h0l-.88,3.67c-.18.84-.37,1.62-.54,2.33a6.27,6.27,0,0,1-.47,1.42,9.66,9.66,0,0,1-1.72.17,10.56,10.56,0,0,1-1.33-.1h0l-.42-2.91q-1-6.72-1.51-11.6c-.35-3.25-.56-6.47-.63-9.64v0c.38,0,.94-.09,1.68-.14.49,0,1.09,0,1.79.07.07.68.14,2.1.21,4.27.16,3.57.33,6.53.5,8.86a31.76,31.76,0,0,0,.79,5.46c.35-1.24.67-2.46,1-3.66s.7-3.11,1.26-5.72l0-.14a47.67,47.67,0,0,1,1.54,5.18c.54,2,.83,3.07.88,3.18a10.32,10.32,0,0,0,.42,1.37c.32-3.57.58-6.84.75-9.8s.27-4.67.3-5.11q.1-2.65.21-3.75v0a6.72,6.72,0,0,1,1.61-.18C161.08,58.05,161.7,58.09,162.47,58.16Z" style="fill:#fff"/><path d="M164.4,71.18a18.11,18.11,0,0,1,.12-2.24,12.6,12.6,0,0,1,.61-2.35,3.08,3.08,0,0,1,2-1.52,10.11,10.11,0,0,1,3.3-.51,4.31,4.31,0,0,0,.7,0l1.4,0A6.23,6.23,0,0,1,177,66.1a2.72,2.72,0,0,1,1,1.58,13.08,13.08,0,0,1,.4,3.1c0,1.29.07,2,.07,2.25-.09,2.34-.2,4.19-.33,5.57a4.62,4.62,0,0,1-.79,2.66,3.29,3.29,0,0,1-1.83,1.29,9.62,9.62,0,0,1-2.79.35c-.42,0-1.05,0-1.89-.07l-1.61,0a5.12,5.12,0,0,1-3.09-1.51,5.43,5.43,0,0,1-1.33-2.69,19.72,19.72,0,0,1-.3-3.71V73.07C164.47,72.21,164.44,71.58,164.4,71.18Zm7.14-3.33a4.28,4.28,0,0,0-3.43,1.23,2.77,2.77,0,0,0-.58,1.42,14.31,14.31,0,0,0-.09,2.22,13.79,13.79,0,0,0,0,1.4c0,.58,0,1,0,1.36l.07,1.47a2.76,2.76,0,0,0,.79,2,3.74,3.74,0,0,0,1.73.79,9.77,9.77,0,0,0,1.44.1,5.38,5.38,0,0,0,2.38-.49,2.3,2.3,0,0,0,1.29-1.61,9,9,0,0,0,.14-1.43q.18-2.45.18-3.33a7.18,7.18,0,0,0-.84-3.71A3.37,3.37,0,0,0,171.54,67.85Z" style="fill:#fff"/><path d="M180.78,71.18a18.11,18.11,0,0,1,.12-2.24,12.6,12.6,0,0,1,.61-2.35,3.08,3.08,0,0,1,2-1.52,10.11,10.11,0,0,1,3.3-.51,4.31,4.31,0,0,0,.7,0l1.4,0a6.23,6.23,0,0,1,4.52,1.54,2.72,2.72,0,0,1,1,1.58,13.08,13.08,0,0,1,.4,3.1c0,1.29.07,2,.07,2.25-.09,2.34-.2,4.19-.33,5.57a4.62,4.62,0,0,1-.79,2.66,3.29,3.29,0,0,1-1.83,1.29,9.62,9.62,0,0,1-2.79.35c-.42,0-1,0-1.89-.07l-1.61,0a5.12,5.12,0,0,1-3.09-1.51,5.43,5.43,0,0,1-1.33-2.69,19.72,19.72,0,0,1-.3-3.71V73.07C180.85,72.21,180.82,71.58,180.78,71.18Zm7.14-3.33a4.28,4.28,0,0,0-3.43,1.23,2.77,2.77,0,0,0-.58,1.42,14.31,14.31,0,0,0-.09,2.22,13.79,13.79,0,0,0,0,1.4c0,.58,0,1,0,1.36L184,77a2.76,2.76,0,0,0,.79,2,3.74,3.74,0,0,0,1.73.79,9.77,9.77,0,0,0,1.44.1,5.38,5.38,0,0,0,2.38-.49,2.3,2.3,0,0,0,1.29-1.61,9,9,0,0,0,.14-1.43q.18-2.45.18-3.33a7.18,7.18,0,0,0-.84-3.71A3.37,3.37,0,0,0,187.92,67.85Z" style="fill:#fff"/><path d="M208.08,58.4V58q.06-.18,1.68-.18a10.88,10.88,0,0,1,1.36.07v2.31q0,3.33.14,9.7c0,1,.05,2.3.07,3.76s0,3.12,0,5,0,3,0,3.85c-.74,0-1.36.07-1.85.07a9.57,9.57,0,0,1-1.4-.07,3,3,0,0,1,0-.74,4.62,4.62,0,0,0-.17-1.4,3.68,3.68,0,0,1-.82,1.12,2.27,2.27,0,0,1-1.18.67,6.62,6.62,0,0,1-2.1.31q-.56,0-.84,0a5.38,5.38,0,0,1-3.74-1.56,6.86,6.86,0,0,1-1.66-3.39,29.21,29.21,0,0,1-.48-4.92,12.91,12.91,0,0,1,.79-4.85,4,4,0,0,1,2.75-2.43,11.4,11.4,0,0,1,2.94-.35,9.89,9.89,0,0,1,2.06.17,3,3,0,0,1,1.26.48,3.4,3.4,0,0,1,.88.77,2,2,0,0,1,.35.57l0-3c0-.61,0-1.15,0-1.63a10.21,10.21,0,0,1,0-1.14,1.44,1.44,0,0,0,0-.43c0-.18,0-.34,0-.48v-.73A10.73,10.73,0,0,1,208.08,58.4Zm-3.4,9.17-.66,0A3.61,3.61,0,0,0,200,71.35a18.55,18.55,0,0,0-.11,2.31,11,11,0,0,0,.58,3.59,3.44,3.44,0,0,0,1.4,1.79,4.75,4.75,0,0,0,2.36.5,3.59,3.59,0,0,0,2.52-.78,3.77,3.77,0,0,0,1.09-2.09,19.24,19.24,0,0,0,.24-3.39,22.79,22.79,0,0,0-.22-3.12,3.32,3.32,0,0,0-.91-1.82A3.37,3.37,0,0,0,204.68,67.57Z" style="fill:#fff"/></g><g id="Wood_Blocks_A" data-name="Wood Blocks A"><g id="Rectangle"><polygon points="23.78 74.5 23.61 104.47 81.44 125.81 102.18 113.44 102.01 83.47 46.39 66.2 23.78 74.5" style="fill:#fff;opacity:0.5"/><path d="M56.47,80.52c-10.83-1.24-21.59-3.3-32.5-3.81V80.1c2.71.39,5.42.8,8.12,1.25,7.67,1.31,16,1.72,24,2.25C61.67,84,66.26,88,71.81,88.27c2.09.12,4,.19,5,.36l2.5.71C71,87.89,65,81.49,56.47,80.52Z" style="fill:#edb27d"/><path d="M72.12,89.44c-1.18-.35-9.45-1.29-12.19-1.82s-20.54-.7-23-.83c-1-.06-6.58-1.26-13-2.68v2.34c2.49.62,4.58,1.15,5.85,1.51,5.46,1.53,23.69,1.67,26,1.79s10,1.36,13.27,1.54S79,93.47,81,94l.34.09.73-.32C77.62,92.85,74.4,90.11,72.12,89.44Z" style="fill:#edb27d"/><path d="M79.38,85.53c-2.5.64-4.69,2.41-6.77,2.3-5.56-.29-9.7-3-16-4.69-7.73-2.06-16.81-.48-24.48-1.79-2.7-.45-5.41-.86-8.12-1.25v4c6.39,1.42,12,2.62,13,2.68,2.45.13,20.25.29,23,.83s11,1.75,12.19,1.82c.6,0,5.39,3.44,9.81,4.35l1.34-.66C82.25,93,79.47,85.56,79.38,85.53Z" style="fill:#ecc8a1"/><path d="M76.44,99.55c-2.88-1-19.4-2.69-21.35-2.79s-14.71.87-19.93,1A33.72,33.72,0,0,1,24,96.52v4.56a73.86,73.86,0,0,0,9.28,1.85c3.09.17,23,.66,24.83-.37s8.48-1.23,10.25-1.14c1.18.06,8,1.43,13,2.37l1.2.07,2.27-10.17-.07-1.25-1.63-.87-.74,0,1.53,1.27,0,1.37L82,100.44h-.68A33.69,33.69,0,0,1,76.44,99.55Z" style="fill:#e2a471"/><path d="M65.61,94.83c-1.94-.1-24.77.34-28.71,1-2,.31-7.69-1-12.93-2.34v3.07a33.72,33.72,0,0,0,11.19,1.25c5.22-.14,18-1.12,19.93-1s18.47,1.81,21.35,2.79a33.69,33.69,0,0,0,4.87.89l.73.06L84,94.26l-.09-1.39-1.55-1.36-2.66-.19,3.48,1.85v1.42l-1.33,3.09-.53,0C75.73,96.5,67.06,94.91,65.61,94.83Z" style="fill:#edb27d"/><path d="M81,94c-1.93-.52-8.66-2.53-11.91-2.7s-11-1.42-13.27-1.54-20.51-.26-26-1.79c-1.27-.36-3.36-.89-5.85-1.51v2.17c2.91,1.22,8.43,3.62,11.8,3.8,4.23.22,21.51-.1,25.43-.31s7.77.83,9.4.92c.88,0,5.84,1,10.71,2.1h.55l.07-1.34-.62.28Z" style="fill:#e2a471"/><path d="M70.6,93c-1.63-.09-5.48-1.12-9.4-.92s-21.2.53-25.43.31c-3.37-.18-8.89-2.58-11.8-3.8v4.83c5.24,1.39,10.93,2.65,12.93,2.34,3.94-.62,26.77-1.06,28.71-1,1.45.08,10.12,1.67,15.7,2.9h.51l1.43-3-.09-1.49-1.24.55-.08,1.39h-.53C76.44,94.07,71.48,93.07,70.6,93Z" style="fill:#ecc8a1"/><path d="M81.31,71.39v-1.9c-3.3-.27-6.6-.62-9.83-.79-15.83-.84-31.7-1.45-47.51-2.58V72.8c19.13.9,38.21,1.36,57.34,2.3V72.34c-1.39-.08-2.78-.15-4.17-.19A10.49,10.49,0,0,1,81.31,71.39Z" style="fill:#ecc8a1"/><path d="M77.14,72.15c1.39,0,2.78.11,4.17.19v-1A10.49,10.49,0,0,0,77.14,72.15Z" style="fill:url(#radial-gradient)"/><path d="M79.38,85.53h0Z" style="fill:url(#radial-gradient-2)"/><path d="M24,76.71c10.91.51,21.79-.36,32.62.88,8.52,1,16.42,1.8,24.72,3.25V75.1C62.18,74.16,43.1,73.7,24,72.8Z" style="fill:#edb27d"/><path d="M68.33,101.42c-1.77-.09-8.42.11-10.25,1.14s-21.74.54-24.83.37A73.86,73.86,0,0,1,24,101.08l.08,4.2c3.06.06,8.54,4,10.38,3.72,6.25-.8,11.3,5.82,13.72,5.43,4.67-.75,17.26.36,20.32,1.08a71.86,71.86,0,0,0,12.84.94l.81-.13L85.47,92l-1.71-.5h-.87l1.74.9,0,1.42-2.15,9.93H81.31C76.37,102.85,69.51,101.48,68.33,101.42Z" style="fill:#ecc8a1"/><path d="M68.47,115.51c-3.06-.72-15.84-2.59-20.32-1.08-.28.1,15.4,5.89,16,5.81,2.3-.29,12.15.43,14.8-.26l2.37-.58h.77l4.3-27.8-1.21-.11-1.33.06,1.57.5-3.3,24.21-.8.18A71.86,71.86,0,0,1,68.47,115.51Z" style="fill:#edb27d"/><path d="M78.94,120a71.63,71.63,0,0,1-12.45.13c-1.78-.09.64,1.32,3.22,1.87a78.81,78.81,0,0,0,11.6,1.15l.81-.13,5.36-32-2.25.53,1.14.05-4.32,27.75-.74,0Z" style="fill:#e2a471"/><path d="M69.71,122c-2.58-.55,9.37,3.57,11.6,3.57l2.2.3L88.45,90.1l-.86.05-5.54,32.78-.74.2A78.81,78.81,0,0,1,69.71,122Z" style="fill:#ecc8a1"/><path d="M64.82,81.92c-10.11-4.08-21.43-8.08-32.34-8.58v3.39c2.71.38,5.42.79,8.12,1.25,7.67,1.3,14.95,1.76,22.39,4.72,5.5,2.18,6.43,3.72,12,4,2.08.11,3.89,1.16,4.91,1.33l8-2.09C79.55,84.52,73.57,85.45,64.82,81.92Z" style="fill:#e2a471"/><path d="M69.19,79.8c-10.11-4.08-22.2-6-33.11-6.52v3.39c2.72.39,10.74.22,13.44.67,7.67,1.31,9.63,2.34,17.07,5.3,5.5,2.19,6.43,3.72,12,4,2.09.11,3.9,1.17,4.92,1.34l8-2.09C83.15,84.46,77.93,83.33,69.19,79.8Z" style="fill:#ecc8a1"/><polygon points="88.31 90.44 83.65 123.69 86.13 121.89 89.63 89.8 88.31 90.44" style="fill:#edb27d"/><polygon points="89.51 89.68 85.42 122.5 86.38 122.18 90.36 89.29 89.51 89.68" style="fill:#e2a471"/><polygon points="90.29 89.16 86.14 121.94 88.62 120.14 92.67 88 90.29 89.16" style="fill:#ecc8a1"/><polygon points="92.37 87.92 88.22 120.71 89.57 119.75 94.42 87.13 92.37 87.92" style="fill:#edb27d"/><polygon points="94.15 86.93 89.44 120.01 90.24 119.44 95.63 86.42 94.15 86.93" style="fill:#e2a471"/><polygon points="95.34 86.24 90.02 119.72 91.89 118.64 97.72 85.08 95.34 86.24" style="fill:#ecc8a1"/><polygon points="97.12 85.52 91.8 118.99 92.98 118.17 98.25 84.78 97.12 85.52" style="fill:#edb27d"/><polygon points="98.18 85.15 92.86 118.62 93.7 117.86 99.76 84.63 98.18 85.15" style="fill:#e2a471"/><polygon points="99.67 82.93 93.61 117.68 96.41 116.12 101.63 84 99.67 82.93" style="fill:#ecc8a1"/><polygon points="101.17 85.5 95.42 117.89 96.62 116.53 102.11 87.61 101.17 85.5" style="fill:#edb27d"/><polygon points="100.83 92.36 96.43 117.06 97.71 115.59 101.78 94.47 100.83 92.36" style="fill:#e2a471"/><polygon points="101.27 95.96 97.49 116.23 101.7 113.83 102.22 98.06 101.27 95.96" style="fill:#ecc8a1"/><path d="M80.72,94.61,32.65,77.83c-2.55-.94-1.18-5.34,1.51-5.74l13.45-2a2.76,2.76,0,0,1,1.07.06l47,11.19c2.28.62,7.78,2.12,5.71,3.28L83.19,94.7A3.31,3.31,0,0,1,80.72,94.61Z" style="opacity:0.6000000000000001;fill:url(#linear-gradient)"/><path d="M82.12,125.37,25.25,104.43a2.44,2.44,0,0,1-1.59-2.31L23.92,78a2.43,2.43,0,0,1,3.24-2.27L79.59,94.33c1,.35,2.58,1.19,2.59,2.22Z" style="opacity:0.6000000000000001;fill:url(#linear-gradient-2)"/><path d="M101.37,113.65,82.11,125.32c-.27-10.21-.37-19.24.08-28.14a2.44,2.44,0,0,1,1-2.08l19.18-10.94v27.69A2.09,2.09,0,0,1,101.37,113.65Z" style="opacity:0.6000000000000001;fill:url(#linear-gradient-3)"/><g style="opacity:0.7000000000000001"><path d="M81.32,96.45a.79.79,0,0,1-.3,0c-19.26-6.72-38-13-56-18.81a.93.93,0,1,1,.6-1.77q28,10.74,56,18.81a.93.93,0,0,1-.3,1.82Z" style="fill:url(#linear-gradient-4)"/><path d="M25.35,75.77a.79.79,0,0,1,.3,0q28,10.74,56,18.81a.93.93,0,0,1-.3,1.82.79.79,0,0,1-.3,0c-19.26-6.72-38-13-56-18.81a.93.93,0,0,1-.59-1.18.94.94,0,0,1,.89-.64m0-.63a1.57,1.57,0,0,0-.5,3C42.17,83.75,61,90.08,80.81,97a1.52,1.52,0,0,0,.51.09A1.56,1.56,0,0,0,82.8,96a1.58,1.58,0,0,0-1-2c-18.43-5.31-37.25-11.64-55.95-18.8a1.63,1.63,0,0,0-.52-.09Z" style="fill:url(#linear-gradient-5)"/></g><g style="opacity:0.7000000000000001"><path d="M81.35,125.68h0a.93.93,0,0,1-.93-.94c.31-9.08.36-18.84.19-29.17a.93.93,0,0,1,.93-.93h0a.92.92,0,0,1,.93.94c-.79,3.59-.82,13.6-.19,29.17A.94.94,0,0,1,81.35,125.68Z" style="fill:url(#linear-gradient-6)"/><path d="M81.55,94.64a.92.92,0,0,1,.93.94c-.79,3.59-.82,13.6-.19,29.17a.94.94,0,0,1-.94.93h0a.93.93,0,0,1-.93-.94c.31-9.08.36-18.84.19-29.17a.93.93,0,0,1,.93-.93h0m0-.63h0A1.58,1.58,0,0,0,80,95.57c.18,10.59.11,20.39-.19,29.15a1.57,1.57,0,1,0,3.13,0c-.65-15.84-.59-25.6.17-29l0-.07v-.06a1.58,1.58,0,0,0-.45-1.11A1.6,1.6,0,0,0,81.55,94Z" style="fill:url(#linear-gradient-7)"/></g><g style="opacity:0.7000000000000001"><path d="M81.2,96.21c-.33,0-.74-.13-.82-.47-.18-.86.59-1.28,1-1.53a164.2,164.2,0,0,0,19.9-11.11c.45-.26.73-.32,1,.13a.94.94,0,0,1-.35,1.28L81.66,96.09A.93.93,0,0,1,81.2,96.21Z" style="fill:url(#linear-gradient-8)"/><path d="M101.86,82.9c.17,0,.31.1.45.33a.94.94,0,0,1-.35,1.28L81.66,96.09a.93.93,0,0,1-.46.12c-.33,0-.74-.13-.82-.47-.18-.86.59-1.28,1-1.53a164.2,164.2,0,0,0,19.9-11.11,1.2,1.2,0,0,1,.54-.2m0-.63a1.82,1.82,0,0,0-.85.28A164.8,164.8,0,0,1,81.16,93.64h0l0,0a2.06,2.06,0,0,0-1.35,2.2,1.37,1.37,0,0,0,1.43,1,1.49,1.49,0,0,0,.77-.21l20.3-11.57a1.58,1.58,0,0,0,.73-1,1.55,1.55,0,0,0-.15-1.19,1.14,1.14,0,0,0-1-.65Z" style="fill:url(#linear-gradient-9)"/></g><g style="opacity:0.7000000000000001"><path d="M24.91,104.87h0a.94.94,0,0,1-.94-.94c.31-9.08.36-18.84.19-29.17a1,1,0,0,1,.94-.93h0a1,1,0,0,1,.93,1c-.8,3.58-1.24,13.73-.61,29.3C25.43,104.6,25.43,104.87,24.91,104.87Z" style="fill:url(#linear-gradient-10)"/><path d="M25.11,73.83a1,1,0,0,1,.93,1c-.8,3.58-1.24,13.73-.61,29.3,0,.52,0,.79-.52.79h0a.94.94,0,0,1-.94-.94c.31-9.08.36-18.84.19-29.17a1,1,0,0,1,.94-.93h0m0-.62h0a1.56,1.56,0,0,0-1.56,1.55c.17,10.59.11,20.39-.19,29.15A1.57,1.57,0,0,0,23.8,105a1.52,1.52,0,0,0,1.1.47c1.15,0,1.16-1,1.16-1.41-.68-16.54-.1-26,.59-29.18v-.13a1.56,1.56,0,0,0-1.55-1.57Z" style="fill:url(#linear-gradient-11)"/></g><path d="M103.2,84.4A2.49,2.49,0,0,0,101.43,82L46.56,65.25l-24,8.55-.09,30.48a2.49,2.49,0,0,0,1.64,2.36l56,20.35a2.52,2.52,0,0,0,2.14-.21l19.79-11.85a2.51,2.51,0,0,0,1.21-2.15Zm-2.68,27a2.38,2.38,0,0,1-1.15,2l-17,10a2.37,2.37,0,0,1-2,.19L26.58,104.31A2.37,2.37,0,0,1,25,102.09l0-26.95,22.53-8L99.12,82.87a2.35,2.35,0,0,1,1.67,2.24Z" style="fill:#9b5c31"/></g><g id="Rectangle_back" data-name="Rectangle back"><path d="M20.15,76.24a10.34,10.34,0,0,0-2.65-4.35c-.71-.52-.31-4.86.6-3.71a69.4,69.4,0,0,1,5.08,10.6C23.41,80.08,20.87,78.35,20.15,76.24Z" style="fill:#edb27d"/><path d="M21.7,76.93c-.71-2.1-2.23-6.5-2.95-7s-.95-4.19,0-3a99.82,99.82,0,0,1,5.81,12.89C24.76,81.05,22.42,79,21.7,76.93Z" style="fill:#ecc8a1"/><path d="M25.14,81.18c-.72-2.1-6.57-14.79-7.29-15.32s-1-4.19,0-3,8.8,18.82,9,20.12S25.86,83.29,25.14,81.18Z" style="fill:#e2a471"/><path d="M25.92,81c-.71-2.11-7.87-17.7-8.59-18.23s-.13-4,.77-2.83S27.86,81.72,28.1,83,26.64,83.09,25.92,81Z" style="fill:#edb27d"/><path d="M27.55,82.54c-.72-2.1-9.18-22.27-9.9-22.8s-.14-3,.77-1.83,10.9,24.37,11.14,25.68S28.26,84.65,27.55,82.54Z" style="fill:#ecc8a1"/><path d="M75.14,42.33l0-3.63L72,39.54c-4,1.09-28.61,6.41-44.66,11.56-1,.32-.93,1.71-.84,2.86l2.16,3c-.08,1.37,3.59,1.07,4.23.88C49.13,53.12,68.34,45.05,72.55,44,73.13,43.9,73.78,42.67,75.14,42.33Z" style="fill:#e2a471"/><path d="M73.24,40l0-3.63-3.2.84c-4,1.09-28.6,6.41-44.65,11.56-1,.33-.93,1.71-.84,2.86L27.1,53.9c-.13-1.24.32-2.26,1-2.44,16.27-4.74,38-9.71,42.22-10.72Z" style="fill:#edb27d"/><path d="M67.94,34l-2.22-.71L31,40.47,18.26,44l0,2c8.33-2,17.8-4.19,18.73-4.38S52.72,37.81,67.94,34Z" style="fill:#ecc8a1"/><path d="M73.25,33.58l-6-1.91C52,35.46,37,39.17,36.21,39.33S25.8,41.75,17.47,43.72l1.18,2.65L21.56,49c.26-.39.43-2.44,1-2.58C34.8,43.06,51.08,39.09,56,37.87,58,37.39,64.55,35.76,73.25,33.58Z" style="fill:#e2a471"/><path d="M49.73,68.76c-9.47,1.07-12.15.11-12.26-.42s.62-.6,1.48-1.26A81.5,81.5,0,0,1,50,61.71c3-1,14.55-5.38,15.95-5.82.93-.3,4.47-1.31,8-2.32v-2C62.49,55.46,42.86,62.15,32.21,65.93a4.34,4.34,0,0,1-2.5,0c-1.52-.35-9.86-20.3-10.6-19.78-.35.25-1.49.1-1.12.73,4.07,7,10.91,25.45,11.85,25.86a5.18,5.18,0,0,0,2.39.12c1.73,0,3.71,0,5.89-.15C46.5,72.36,68.41,69,70.57,68.6c.38-.07,1.57-.23,3.31-.46V66Z" style="fill:#edb27d"/><path d="M73.26,36.37V33.59h0C64.55,35.76,58,37.39,56,37.87c-4.94,1.22-21.28,4.76-33.44,8.53-.65.2-1.11,2.12-1,2.53l3.07,2.75c-.12-1.06.07-2.7.62-2.87C41.4,43.92,66,38.31,70.06,37.21Z" style="fill:#ecc8a1"/><path d="M66,55.89c-1.4.44-12.93,4.8-15.95,5.82A81.5,81.5,0,0,0,39,67.08c-.86.66-1.59.73-1.48,1.26s2.79,1.49,12.26.42L73.88,66l.06-12.47C70.44,54.58,66.9,55.59,66,55.89Z" style="fill:#ecc8a1"/><path d="M79.9,52.68c-1.4.45-11.33,4-14.35,5a72.11,72.11,0,0,0-9.91,4.89c-1.26.73-5.37,2.15-5.18,2.65s3.73,1.4,13.2.32l24.16-2.71.05-12.48C84.37,51.38,80.83,52.39,79.9,52.68Z" style="fill:#e2a471"/><path d="M89.91,50.37c-1.4.45-11.33,4-14.35,5a78.27,78.27,0,0,0-9.85,4.09c-1.26.73-5.56,3-5.24,3.46.82,1.11,3.73,1.4,13.2.32l24.15-2.72.06-12.47C94.38,49.06,90.84,50.07,89.91,50.37Z" style="fill:#edb27d"/><path d="M65.35,76c-9.64,1.58-22.65,3.7-33.26,5.41a4.54,4.54,0,0,1-2.29-.15c-.89-.29-10.18-25.08-11-24.94l-.33,1.41L30.46,86Z" style="fill:#e2a471"/><path d="M71,43.09c-4,1-22.9,9.43-38.8,13.66a3.9,3.9,0,0,1-2.48,0,4.9,4.9,0,0,1-2.62-2.88S24.41,51,24.59,51.73s3.33,7.8,5.11,8a6.76,6.76,0,0,0,2.54-.32c2.07-.55,3.92-1.09,5.07-1.53C41,56.5,65.42,49.57,71.71,47.56c.53-.17,1.3-.4,2.26-.68l0-4.53Z" style="fill:#edb27d"/><path d="M71.71,47.56c-6.29,2-30.71,8.94-34.4,10.33-1.16.44-3,1-5.1,1.54a5.62,5.62,0,0,1-2.49.31c-.48-.1-4.28-5-5.11-8.16l-3.15-2.73c1.38,3.61,6.79,12.17,8.29,12.36A5.6,5.6,0,0,0,32.26,61c6.05-1.91,12.1-3.77,18.26-5.69,1.15-.37,3.17-.52,4.66-1.22,1.83-1,5.39-1.64,8.48-2.54l10.3-3V46.88C73,47.16,72.24,47.39,71.71,47.56Z" style="fill:#ecc8a1"/><path d="M21.53,48.79c1,2.43,6.46,12.12,8.17,12.38A5.26,5.26,0,0,0,32.15,61c6.09-1.92,12.17-3.79,18.37-5.72,1.15-.37,3.17-.52,4.66-1.22,1.83-1,5.39-1.64,8.48-2.54l10.3-3v3.1C62.45,55.48,42.75,62.18,32.12,66a4.82,4.82,0,0,1-2.29.1C28.31,66,19.73,46.13,18.9,46.45Z" style="fill:#e2a471"/><path d="M18.81,48c.36.26,10.68,24.7,11.13,24.71,2.25.06,4.86.16,8.18,0C46.5,72.36,68.41,69,70.57,68.6c.38-.07,1.57-.23,3.31-.46l0,2.84c-1.45.24-2.91.46-4.42.65-1.2.12-2.83.19-4,.43-11.32,2.33-22.35,4-33.22,5.36-.83.1-1.84.39-2.55,0-2-1.25-9.55-27.88-11.78-27.66Z" style="fill:#e2a471"/><path d="M67.39,73.83c-9,1.48-23.85,3.18-35.19,4.74-.88.12-1.57,0-2.41.16C28,79,20.31,53.8,18.78,54.05l-.24,1.63S29,81.15,29.72,81.46a3.9,3.9,0,0,0,2.4.07l24.09-3.75Z" style="fill:#edb27d"/><path d="M73.86,71c-1.45.24-2.91.46-4.42.65-1.2.12-2.83.19-4,.43-11.29,2.33-22.34,3.86-33.19,5.09a8.49,8.49,0,0,1-2.61,0c-1.4-.32-9-27.13-11.28-26.9l.46,3.79c1.48,2.84,9.59,24.83,10.91,24.86a12.87,12.87,0,0,0,2.48-.15C44,76.94,55.8,76.54,65.31,75l8.54-1.45Z" style="fill:#ecc8a1"/><path d="M67.24,76.09,32,86.91c-.27-10.2-.51-20.6-.06-29.5a2.44,2.44,0,0,1,1-2.07l34.56-8.42.1,23.88C67.62,71.53,67.87,75.71,67.24,76.09Z" style="opacity:0.6000000000000001;fill:url(#linear-gradient-12)"/><path d="M31.57,85.93,18.89,73.82a2.44,2.44,0,0,1-1.59-2.31l.23-21.84c0-1.66-.16-4.21,1.41-3.65l10,8.76c1.41,1,2.61,1.8,2.62,2.83Z" style="opacity:0.7000000000000001;fill:url(#linear-gradient-13)"/><path d="M29.66,55.23l-8.44-7.18c-2.58-1.89-4.43-4.13-1.74-4.54l35.21-9.78c2.28.61,21.52,10,19.46,11.15l-42,10.44A2.57,2.57,0,0,1,29.66,55.23Z" style="fill:#fff;opacity:0.5"/><g style="opacity:0.7000000000000001"><path d="M18.71,74.91h0a.93.93,0,0,1-.91-1c.49-8.92.72-18.51.75-28.66a.94.94,0,0,1,1-.9h0a.93.93,0,0,1,.91,1c-.87,3.51-1.3,13.15-1,28.47C19.44,74.33,19.23,74.92,18.71,74.91Z" style="fill:url(#linear-gradient-14)"/><path d="M19.48,44.4h0a.93.93,0,0,1,.91,1c-.87,3.51-1.3,13.15-1,28.47,0,.51-.22,1.09-.73,1.09h0a.93.93,0,0,1-.91-1c.49-8.92.72-18.51.75-28.66a.94.94,0,0,1,.94-.9m0-.62a1.55,1.55,0,0,0-1.56,1.5c0,10.42-.28,20-.75,28.65a1.53,1.53,0,0,0,.43,1.12,1.55,1.55,0,0,0,1.09.48h0c.8,0,1.36-.7,1.38-1.69-.31-14.31,0-24.64.95-28.34l0-.07v-.07a1.52,1.52,0,0,0-.43-1.1,1.55,1.55,0,0,0-1.09-.48h0Z" style="fill:url(#linear-gradient-15)"/></g><g style="opacity:0.7000000000000001"><path d="M30.78,56.3a.76.76,0,0,1-.26-.15c-3.6-3.15-7.66-6.61-11.84-10a.94.94,0,1,1,1.2-1.44,79.68,79.68,0,0,0,11.84,10A.94.94,0,0,1,31.84,56,.92.92,0,0,1,30.78,56.3Z" style="fill:url(#linear-gradient-16)"/><path d="M19.28,44.5a.89.89,0,0,1,.6.22,79.68,79.68,0,0,0,11.84,10,.94.94,0,0,1-.6,1.66.83.83,0,0,1-.34-.07.76.76,0,0,1-.26-.15c-3.6-3.15-7.66-6.61-11.84-10a.94.94,0,0,1-.12-1.32,1,1,0,0,1,.72-.34m0-.62h0a1.56,1.56,0,0,0-1,2.76c3.66,3,7.64,6.32,11.83,10a1.46,1.46,0,0,0,1,.37,1.54,1.54,0,0,0,1.2-.56,1.57,1.57,0,0,0-.2-2.2l0,0h0a79.34,79.34,0,0,1-11.75-9.92l0,0,0,0a1.57,1.57,0,0,0-1-.36Z" style="fill:url(#linear-gradient-17)"/></g><g style="opacity:0.7000000000000001"><path d="M31.26,85.71h0a.94.94,0,0,1-.93-.94c.31-9.08.36-18.84.19-29.17a1,1,0,0,1,.94-.93h0a1,1,0,0,1,.93.95c-.8,3.58-.83,13.59-.19,29.16A.94.94,0,0,1,31.26,85.71Z" style="fill:url(#linear-gradient-18)"/><path d="M31.46,54.67a1,1,0,0,1,.93.95c-.8,3.58-.83,13.59-.19,29.16a.94.94,0,0,1-.94.93h0a.94.94,0,0,1-.93-.94c.31-9.08.36-18.84.19-29.17a1,1,0,0,1,.94-.93h0m0-.62h0a1.55,1.55,0,0,0-1.56,1.55C30.06,66.19,30,76,29.7,84.75a1.56,1.56,0,1,0,3.12,0c-.64-15.85-.58-25.61.18-29v-.13a1.56,1.56,0,0,0-1.55-1.57Z" style="fill:url(#linear-gradient-19)"/></g><g style="opacity:0.7000000000000001"><path d="M31.06,56.53c-.31-.07-.69-.29-.69-.64,0-.88.86-1.11,1.36-1.26A164.38,164.38,0,0,0,53.6,48.21c.49-.15.77-.14.92.35a.94.94,0,0,1-.62,1.17L31.54,56.51A.87.87,0,0,1,31.06,56.53Z" style="fill:url(#linear-gradient-20)"/><path d="M54,48.13c.23,0,.39.11.48.43a.94.94,0,0,1-.62,1.17L31.54,56.51a.84.84,0,0,1-.27,0,.75.75,0,0,1-.21,0c-.31-.07-.69-.29-.69-.64,0-.88.86-1.11,1.36-1.26A164.38,164.38,0,0,0,53.6,48.21a1.65,1.65,0,0,1,.44-.08m0-.63h0a2.36,2.36,0,0,0-.63.11A164.26,164.26,0,0,1,31.59,54h0c-.56.17-1.78.53-1.8,1.85a1.36,1.36,0,0,0,1.17,1.26,1.39,1.39,0,0,0,.35,0,1.37,1.37,0,0,0,.45-.07l22.36-6.78a1.56,1.56,0,0,0,.93-.76,1.59,1.59,0,0,0,.11-1.19A1.08,1.08,0,0,0,54,47.5Z" style="fill:url(#linear-gradient-21)"/></g><g style="opacity:0.7000000000000001"><path d="M19.11,45.54c-.32-.07-.69-.3-.68-.65,0-.88.87-1.1,1.36-1.24a137.7,137.7,0,0,0,20-5.42c.5-.15.78-.14.92.36a.93.93,0,0,1-.63,1.16L19.59,45.53A.87.87,0,0,1,19.11,45.54Z" style="fill:url(#linear-gradient-22)"/><path d="M40.25,38.15c.23,0,.39.11.48.44a.93.93,0,0,1-.63,1.16L19.59,45.53a.82.82,0,0,1-.26,0,.78.78,0,0,1-.22,0c-.32-.07-.69-.3-.68-.65,0-.88.87-1.1,1.36-1.24a137.7,137.7,0,0,0,20-5.42,1.58,1.58,0,0,1,.44-.08m0-.63h0a2.08,2.08,0,0,0-.62.11,135,135,0,0,1-20,5.4h-.05c-.56.16-1.78.51-1.82,1.83A1.36,1.36,0,0,0,19,46.15a1.5,1.5,0,0,0,.37,0,1.72,1.72,0,0,0,.44-.06l20.5-5.78a1.55,1.55,0,0,0,.93-.75,1.5,1.5,0,0,0,.13-1.19,1.08,1.08,0,0,0-1.08-.89Z" style="fill:url(#linear-gradient-23)"/></g><path d="M72.44,34.07,61.35,31.52a3,3,0,0,0-1.52,0L19,42.57a3.12,3.12,0,0,0-2.31,3l-.3,27.18A3.16,3.16,0,0,0,17.34,75L29.2,86.57c.81.81,2.49.84,3.59.52l40-12c1.33-.39,1.85-.91,1.86-2.29l.19-35.63A3.12,3.12,0,0,0,72.44,34.07Zm.49,36.12a2.49,2.49,0,0,1-1.8,2.37l-39,11.51a2.5,2.5,0,0,1-2.48-.63L19.5,73.24a2.51,2.51,0,0,1-.72-1.81l.49-24.94a2.5,2.5,0,0,1,1.8-2.35L59.93,32.85a2.6,2.6,0,0,1,1.27,0l10.06,2.37a2.49,2.49,0,0,1,1.93,2.45Z" style="fill:#9b5c31"/></g><g id="Triangle"><path d="M50.93,25.45l-1.24,1.13c.69.28,4.67,11.13,4.86,11.12.45,0,1,.16,1.42-.05,8.39-4.32,14.59-7.58,15.91-8.26.39-.2,1-.55,1.87-1l0-3L56,34.64a1.59,1.59,0,0,1-1.25,0C54.33,34.57,51.2,26.34,50.93,25.45Z" style="fill:#e2a471"/><path d="M71.88,29.39c-1.32.68-7.55,3.91-16,8.25a1.35,1.35,0,0,1-1.11,0c-.44-.3-3.21-7.38-4.66-11.52L49,27c1.3,1.49,5.55,13.81,5.7,13.86A1.48,1.48,0,0,0,56,40.74l17.73-9.23,0-3.13C72.91,28.84,72.27,29.19,71.88,29.39Z" style="fill:#edb27d"/><path d="M65,27.45c-1,.49-4.31,2.19-9.08,4.59-.4.2-.78,0-1.18,0-.13,0-2.57-6.73-3.63-7.61a1.27,1.27,0,0,1-.46.91c.22.27,3.59,9.41,4.09,9.37s.7.15,1.12-.07L73.8,25.4l0-2.66Z" style="fill:#ecc8a1"/><path d="M51.94,23.87c-.09-.11-.73.49-.72.76,1.89,2.9,2.73,6.82,3.51,7.43A1.4,1.4,0,0,0,56,32L65,27.45l8.82-4.71,0-3.18c-5.67,3-12,6.38-17.92,9.57a1.71,1.71,0,0,1-1.26,0C54.32,29.1,53.51,25.64,51.94,23.87Z" style="fill:#edb27d"/><path d="M66.78,19.54l-10.85,5.9a3.36,3.36,0,0,1-1.21.2c-.22,0-1.19-2-1.7-2.5l-1.09.7c.13-.07,2.39,5.46,2.8,5.43s.77.11,1.18-.11c6-3.2,12.29-6.57,18-9.6L73.94,16C70.47,17.7,67.6,19.12,66.78,19.54Z" style="fill:#e2a471"/><path d="M49.28,26.69l-.82,1.37c1.56,4.1,5.87,15.16,6.27,15.18A2.35,2.35,0,0,0,56,43.11L73.67,34l0-2.44L56,40.75a1.6,1.6,0,0,1-1.2.09C54.6,40.8,51.05,30.43,49.28,26.69Z" style="fill:#ecc8a1"/><path d="M48.43,27.87,46.85,29c.87,1.23,7.32,17.14,7.88,17.25s.79.23,1.21,0C61.12,43.53,67.58,40.1,73.63,37l0-3C68,36.9,61.91,40.05,55.94,43.13a1.63,1.63,0,0,1-1.23,0C54.23,43.05,49.36,29.47,48.43,27.87Z" style="fill:#e2a471"/><path d="M56.09,51.25,73.58,40.31l0-1.18c-5.07,2.68-11.17,5.93-17.7,9.4a1.54,1.54,0,0,1-1.12.1c-.47-.08-7.8-19.2-8.23-19s-.19.42-.76.73l8.3,21A2.81,2.81,0,0,0,56.09,51.25Z" style="fill:#ecc8a1"/><path d="M47.59,28.51l-1.07,1.24c.56.87,7.73,18.81,8.24,18.92a1.52,1.52,0,0,0,1.18-.16L73.6,39.13l0-2.16L55.89,46.15a1.43,1.43,0,0,1-1.11,0C54.25,46.08,48.45,30.22,47.59,28.51Z" style="fill:#edb27d"/><path d="M73.26,11.36c-5.48,2.92-12,6.37-18.64,9.89L52.75,23c.8.08,1.48,1.1,1.92,1A4.12,4.12,0,0,0,56,23.69c.38-.21.7-.39,1-.55,3.78-2.24,10.82-6,17-9.36L74,12C74,11.77,73.66,11.53,73.26,11.36Z" style="fill:#edb27d"/><path d="M56.94,23.14l-1,.56a2.77,2.77,0,0,1-1.25.16c-.34,0-.5-.65-1-1.43l-.85.67c.93,1.68,1.49,2.62,1.87,2.56a3.32,3.32,0,0,0,1.19-.23c6-3.24,10.2-5.56,10.84-5.89.82-.42,3.69-1.84,7.16-3.56l0-2.2C67.76,17.13,60.72,20.9,56.94,23.14Z" style="fill:#ecc8a1"/><path d="M71.93,11.18,55.2,20.68l-.58.57c6.69-3.52,13.16-7,18.64-9.89A2,2,0,0,0,71.93,11.18Z" style="fill:url(#radial-gradient-3)"/><polygon points="54.21 51.14 52.93 50.72 44.68 30.95 45.81 29.88 54.21 51.14" style="fill:#e2a471"/><polygon points="53.28 51.53 52.44 51.05 43.75 31.33 44.88 30.26 53.28 51.53" style="fill:#edb27d"/><polygon points="52.34 50.72 51.34 50.47 42.95 32.9 44.17 31.83 52.34 50.72" style="fill:#ecc8a1"/><polygon points="51.15 50.2 50.49 50.2 42.4 33.62 43.62 32.54 51.15 50.2" style="fill:#e2a471"/><polygon points="50.67 50.2 49.45 50.27 41.55 34.52 42.76 33.44 50.67 50.2" style="fill:#edb27d"/><polygon points="49.65 50.23 48.25 50.1 40.06 35.74 41.61 34.34 49.65 50.23" style="fill:#ecc8a1"/><polygon points="48.27 49.94 47.27 49.73 39.51 36.46 40.72 35.38 48.27 49.94" style="fill:#e2a471"/><polygon points="47.77 49.74 46.03 48.91 39.37 36.83 40 35.85 47.77 49.74" style="fill:#edb27d"/><polygon points="46.58 49.81 44.84 49.2 38.18 37.14 39.37 36.16 46.58 49.81" style="fill:#ecc8a1"/><polygon points="45.52 49.23 44.18 49.36 37.4 37.99 38.62 36.91 45.52 49.23" style="fill:#e2a471"/><polygon points="45.09 49.29 43.75 49.25 37.22 37.96 37.86 36.98 45.09 49.29" style="fill:#edb27d"/><polygon points="43.82 49.13 42.28 48.12 36.17 38.72 37.3 37.4 43.82 49.13" style="fill:#ecc8a1"/><polygon points="42.87 48.76 41.66 48.44 35.79 39.74 36.6 38.71 42.87 48.76" style="fill:#e2a471"/><polygon points="42.1 48.37 40.22 47.85 35.21 40.27 36.07 39.07 42.1 48.37" style="fill:#edb27d"/><polygon points="40.84 48.22 39.41 47.86 34.34 41 35.47 39.67 40.84 48.22" style="fill:#ecc8a1"/><polygon points="39.75 48.25 38.88 48.03 33.55 42.06 34.77 40.99 39.75 48.25" style="fill:#e2a471"/><polygon points="38.43 47.41 36.89 46.96 33.38 42.55 34.42 41.61 38.43 47.41" style="fill:#edb27d"/><polygon points="36.49 46.34 34.42 46.54 32.26 43.18 33.39 41.85 36.49 46.34" style="fill:#ecc8a1"/><path d="M73,41.25,55.93,51.12c-.27-10.21-.43-18.76,0-27.66A2.23,2.23,0,0,1,57,21.55l16.65-9,0,26.16C73.62,39.44,73.63,40.87,73,41.25Z" style="opacity:0.6000000000000001;fill:url(#linear-gradient-24)"/><g style="opacity:0.7000000000000001"><path d="M55.15,51.49l-.22.16c-.52,0-.72-.59-.72-1.11.31-9.08.28-17.77.11-28.09a.94.94,0,0,1,.94-.93h0a.93.93,0,0,1,.93.94c-.8,3.59-.75,12.52-.11,28.09A.94.94,0,0,1,55.15,51.49Z" style="fill:url(#linear-gradient-25)"/><path d="M55.27,21.52a.93.93,0,0,1,.93.94c-.8,3.59-.75,12.52-.11,28.09a.94.94,0,0,1-.94.94l-.22.16c-.52,0-.72-.59-.72-1.11.31-9.08.28-17.77.11-28.09a.94.94,0,0,1,.94-.93h0m0-.63h0a1.56,1.56,0,0,0-1.56,1.55c.14,8.76.23,18.2-.11,28.08,0,1,.54,1.75,1.33,1.76a.66.66,0,0,0,.46-.19,1.55,1.55,0,0,0,1.33-1.53c-.67-16.54-.64-24.63.1-28v-.14a1.56,1.56,0,0,0-1.55-1.57Z" style="fill:url(#linear-gradient-26)"/></g><g style="opacity:0.7000000000000001"><path d="M31.93,44.63l-.29,0c-.36-.38,0-1,.37-1.37,7.27-6.74,14-13.44,21.9-21.49a1,1,0,0,1,1.38,0h0a1,1,0,0,1-.08,1.39C51.87,25.27,45,32.17,33.32,44.58A1,1,0,0,1,31.93,44.63Z" style="fill:url(#linear-gradient-27)"/><path d="M54.65,21.44a.86.86,0,0,1,.64.26h0a1,1,0,0,1-.08,1.39C51.87,25.27,45,32.17,33.32,44.58a1.11,1.11,0,0,1-.75.31.93.93,0,0,1-.64-.26l-.29,0c-.36-.38,0-1,.37-1.37,7.27-6.74,14-13.44,21.9-21.49a1.08,1.08,0,0,1,.74-.3m0-.66h0a1.69,1.69,0,0,0-1.19.5c-6.7,6.82-14,14.13-21.9,21.48-.81.79-1,1.7-.39,2.29a.75.75,0,0,0,.5.21,1.57,1.57,0,0,0,.9.28,1.75,1.75,0,0,0,1.2-.49C46.15,31.87,52.46,25.67,55.58,23.64l.05,0,0,0a1.64,1.64,0,0,0,.09-2.31,1.53,1.53,0,0,0-1.12-.47Z" style="fill:url(#linear-gradient-28)"/></g><g style="opacity:0.7000000000000001"><path d="M54.92,23.09c-.33,0-.75-.13-.82-.47-.18-.87.59-1.28,1-1.53a137.09,137.09,0,0,0,18.21-9.92c.45-.26.73-.32,1,.13A.94.94,0,0,1,74,12.58L55.38,23A1,1,0,0,1,54.92,23.09Z" style="fill:url(#linear-gradient-29)"/><path d="M73.89,11c.17,0,.31.09.44.33A.94.94,0,0,1,74,12.58L55.38,23a1,1,0,0,1-.46.12c-.33,0-.75-.13-.82-.47-.18-.87.59-1.28,1-1.53a137.09,137.09,0,0,0,18.21-9.92,1.09,1.09,0,0,1,.54-.2m0-.63a1.75,1.75,0,0,0-.85.28,135.85,135.85,0,0,1-18.16,9.9h-.05a2.07,2.07,0,0,0-1.34,2.2,1.37,1.37,0,0,0,1.43,1,1.61,1.61,0,0,0,.77-.2l18.6-10.38a1.56,1.56,0,0,0,.74-1A1.6,1.6,0,0,0,74.88,11a1.14,1.14,0,0,0-1-.65Z" style="fill:url(#linear-gradient-30)"/></g><path d="M56,51.64,31,45c-1-.35,23.46-23.9,23.46-23.9,1.11-.05,1.55.67,1.55,1.69Z" style="opacity:0.6000000000000001;fill:url(#linear-gradient-31)"/><path d="M73.33,9.49,54.88,19.8l-.13.1L30.22,44a1.25,1.25,0,0,0,.52,2.09l23,6.79a2.49,2.49,0,0,0,2-.23l18.93-11,.52-31A1.25,1.25,0,0,0,73.33,9.49ZM72.94,40,55.82,50.46a2.23,2.23,0,0,1-1.73.21L33.68,44.59a.75.75,0,0,1-.32-1.25l22-22L72,12.19a.68.68,0,0,1,1,.6Z" style="fill:#9b5c31"/></g><g id="Cylinder"><path d="M72.15,24.11c-.75-1.18-4.76-6.54-5-6.61s-.3.63-.52.55,3,4.42,3.59,5.42a.75.75,0,0,1,.1.36c.15,4.51.34,9.85.34,11.08,0,.72-.45,4.11-1,8.33C68.91,48.6,68,55.3,67.43,59.48c-.23,1.85-.38,3.22-.38,3.75,0,1.92,0,15.34-.1,23.47a9.35,9.35,0,0,0,1.76,1.11c.23-7.94.47-15.88.42-23.81a29.53,29.53,0,0,1,.37-4.52,50.29,50.29,0,0,0,.64-6,110.49,110.49,0,0,1,.94-11.11c.23-1.88.46-3.75.66-5.61a113,113,0,0,0,.53-12.22A.72.72,0,0,0,72.15,24.11Z" style="fill:#e2a471"/><path d="M81.91,25.81a.45.45,0,0,0-.18-.35c-1-.76-6.21-5.36-9-8a20.07,20.07,0,0,1-1.87-1.85c-.32-.73-1.59.75-1.67.75s1.51,1.34,3.51,3c2.64,2.2,6,5,7.48,6a.67.67,0,0,1,.29.54c.17,8.74.45,21.43.62,24.11.15,2.31.13,6.13,0,9.49a49.16,49.16,0,0,1-.5,6c-.39,2-.63,15.53-.52,24.79l1.3,0h.29c.08-8.07.28-20.6.48-23.41S82,39.12,81.91,25.81Z" style="fill:#edb27d"/><path d="M69.5,59.48A29.53,29.53,0,0,0,69.13,64c.05,7.93-.19,15.87-.42,23.81a15.73,15.73,0,0,0,1.83.78c0-4.11.13-8.21.41-12.28.16-2.33-.12-4.6.4-6.91.75-3.33,3.27-6.27,4.11-9.47,0-.14.06-.3.09-.45h0a29.51,29.51,0,0,0,0-4.8c0-4.3-.8-8.45-1-12.73-.31-5.67-.22-11.4-.12-17.12-.08-.15-.85-1.06-1.84-2.2-2-2.31-5-5.61-5.15-5.65s-.19.38-.44.32,4.4,5.74,5.15,6.83a.55.55,0,0,1,.1.32,114.08,114.08,0,0,1-.53,12.28c-.2,1.86-.43,3.73-.66,5.61a110.49,110.49,0,0,0-.94,11.11,43.77,43.77,0,0,1-.55,5.38S69.51,59.49,69.5,59.48Z" style="fill:#ecc8a1"/><path d="M70.69,59.07a13.59,13.59,0,0,0,.51-2l1.29-2.45c0-1.26-.73-5.34.52-6.3,1.46,1.84,1.17,7,.79,9.15a9.93,9.93,0,0,1-.6,2h0a8.49,8.49,0,0,1-2.52,3.57c-.83-.62-.51-2.15-.11-3.57" style="fill:#ecc8a1"/><path d="M78.28,59.48c-.28,1.67-.82,3.31-1.13,5-.61,3.25-.52,6.79-1,10.12-.39,2.84-1.18,5.67-1.08,8.56a67.24,67.24,0,0,0,.72,6.72c-.6-.09-1.18-.19-1.73-.31q0-3.12,0-6.24a76.39,76.39,0,0,1,1.83-17.63,46.86,46.86,0,0,0,1-6.2l.06-.77a45.33,45.33,0,0,0-.32-9.87,126.23,126.23,0,0,1-1-18.05A53,53,0,0,1,76,25.42a.68.68,0,0,0-.19-.56c-.51-.53-1.8-1.81-3.2-3.18-2.28-2.25-4.84-4.77-4.76-4.76s.41-.06.4-.2a37.13,37.13,0,0,1,4.38,3.65,48.75,48.75,0,0,1,4.66,4.74.76.76,0,0,1,.16.44c.08,10.48.34,20.94,1,31.35a10.57,10.57,0,0,1-.07,2Z" style="fill:#edb27d"/><path d="M79.72,59c1-6.19-.14-12.66-.5-18.84-.27-4.8-.2-9.64-.11-14.47a.55.55,0,0,0-.17-.42c-.77-.69-3.73-3.24-6.29-5.4-2.12-1.78-4-3.31-4-3.32s-.15.14-.35.12,2.11,2,4.37,4.11c2,1.85,4.08,3.76,4.66,4.33a.58.58,0,0,1,.17.39c.08,10.49.34,21,1,31.39a9.87,9.87,0,0,1-.07,2c0,.33-.1.62-.1.62-.28,1.67-.82,3.31-1.13,5-.61,3.25-.52,6.79-1,10.12-.39,2.84-1.18,5.67-1.08,8.56a67.24,67.24,0,0,0,.72,6.72c.7.1,1.43.19,2.18.26C77.55,80.06,77.53,70,79.54,60c0-.19.07-.37.1-.56C79.64,59.48,79.68,59.28,79.72,59Z" style="fill:#ecc8a1"/><path d="M81,50c-.17-2.68-.45-15.4-.62-24.14a.69.69,0,0,0-.25-.5c-1-.77-4.71-4-7.51-6.33-1.8-1.52-3.22-2.71-3.28-2.72s-.63.37-.75.36,1.83,1.56,4,3.38c2.52,2.08,5.43,4.49,6.25,5.2a.61.61,0,0,1,.22.5c-.09,4.82-.16,9.64.11,14.43.35,6.08,1.46,12.44.54,18.55,0,0-.11.75-.12.76,0,.19-.06.37-.1.56-2,10-2,20-1.56,30.08.66.07,1.34.11,2,.14-.11-9.26.13-22.82.52-24.79a49.16,49.16,0,0,0,.5-6l0-.63C81.17,55.65,81.18,52.16,81,50Z" style="fill:#e2a471"/><path d="M67.54,17.24l0,0C67.45,17.32,67.47,17.3,67.54,17.24Z" style="fill:#e2a471"/><path d="M76.9,59.48a46.86,46.86,0,0,1-1,6.2,76.39,76.39,0,0,0-1.83,17.63q0,3.12,0,6.24a26,26,0,0,1-3.53-1c0-4.11.13-8.21.41-12.28.16-2.33-.12-4.6.4-6.91.75-3.33,3.27-6.27,4.11-9.47,0-.14.06-.3.09-.45l.09-.7c.11-1.31,0-2.79,0-4.1,0-4.3-.8-8.45-1-12.73-.3-5.6-.22-11.26-.12-16.9a.68.68,0,0,0-.14-.42c-.28-.34-.93-1.07-1.7-1.94-1.93-2.16-4.72-5.2-5.07-5.45.1-.1.27-.28.38-.26s2.53,2.41,4.7,4.6c1.43,1.43,2.75,2.78,3.23,3.31a.63.63,0,0,1,.17.5,50.85,50.85,0,0,0-.42,5.4,126.23,126.23,0,0,0,1,18.05,45,45,0,0,1,.31,10S76.92,59.46,76.9,59.48Z" style="fill:#e2a471"/><path d="M65.5,38.17s0,.07,0,.11V19.42a2.79,2.79,0,0,1,.07-.58H65C65.07,24.1,65.28,37.15,65.5,38.17Z" style="fill:#edb27d"/><path d="M66.05,19.19a.72.72,0,0,0,0,.25A1.87,1.87,0,0,1,66.05,19.19Z" style="fill:#ecc8a1"/><path d="M67.71,22.26c-.33-.53-1.37-3-1.51-3.08s-.12-.05-.15,0a1.87,1.87,0,0,0,0,.25c0,.4.11,1.07,0,.83-.24-.4,0-.17,0-.59a1.94,1.94,0,0,1,0-.24.72.72,0,0,1,0-.25,2.35,2.35,0,0,1,.11-.35h-.58a2.79,2.79,0,0,0-.07.58V38.28c0,.25,0,.82,0,1.64V59.48h.16c0-.44.06-.76.09-.94.36-2.31.86-9,1.21-13.63.15-1.87.27-3.38.34-4.09.19-1.8.38-11.92.47-18.32A.48.48,0,0,0,67.71,22.26Z" style="fill:#ecc8a1"/><path d="M65.67,59.48h-.16v4.08C65.56,61.76,65.62,60.37,65.67,59.48Z" style="fill:#ecc8a1"/><path d="M70.34,23.81a.55.55,0,0,0-.07-.28c-.5-.92-3.42-5.3-3.61-5.39-.43-.18-.14,1-.51.76s.76,2,1.54,3.3a.66.66,0,0,1,.09.33c-.09,6.4-.28,16.5-.47,18.29-.07.71-.19,2.22-.34,4.09-.35,4.58-.85,11.32-1.21,13.63,0,.18-.06.5-.09.94,0,.89-.11,2.28-.16,4.08V84.2A3.36,3.36,0,0,0,67,86.7c.1-8.13.1-21.55.1-23.47,0-.53.15-1.9.38-3.75C68,55.3,68.91,48.6,69.65,43.24c.58-4.22,1-7.61,1-8.33C70.68,33.68,70.49,28.32,70.34,23.81Z" style="fill:#edb27d"/><path d="M98.64,20.9a3.28,3.28,0,0,1-.2.31c.07.33.13.66.2,1Z" style="fill:url(#radial-gradient-4)"/><path d="M96.87,80.71c-.37-1.89-2.41-16.45-2.41-18.78s-.37-18.06-.37-21-.56-12.23-.56-13.54c0-.36-.1-1.32-.24-2.5a1.35,1.35,0,0,0-.73-1c-3.08-1.55-16.31-8.77-16.51-8.72s-.58-.18-.84-.11c-.11,0,12.43,7.56,15.55,9.27a1.36,1.36,0,0,1,.7,1.07c.41,5.43.86,11.87.86,13.82,0,3.56.91,24.17.91,27.49,0,2.58.73,13,1.34,19.41.09,1-.09,2.06.77,1.47l1.39-.65a1.11,1.11,0,0,0,.55-1C97.15,83.52,97,81.44,96.87,80.71Z" style="fill:#e2a471"/><path d="M98.2,80.09a71.28,71.28,0,0,1-2.27-12c-.29-3,.16-6,.16-9,0-6.76-1-13.37-1.06-20.19,0-1.36.32-2.61.3-4s-.43-2.75-.45-4.17c0-2.14-.29-4.31-.52-6.46a.7.7,0,0,0-.39-.57c-2.36-1.24-16-8.93-16.14-8.88s-1.48.34-1.69.41c0,0,13.57,7.5,16.46,8.79a1.09,1.09,0,0,1,.55.66c.16,1.33.38,2.41.38,2.81,0,1.31.56,10.63.56,13.54s.37,18.64.37,21,2,16.89,2.41,18.78c.1.55.21,1.88.31,3.51a.73.73,0,0,0,1.46,0V82.37a.37.37,0,0,0,0-.11A17.72,17.72,0,0,0,98.2,80.09Z" style="fill:#edb27d"/><path d="M93.23,66.7c0-3.32-.91-23.93-.91-27.49,0-2-.47-8.57-.88-14a.94.94,0,0,0-.48-.75c-2.54-1.42-15.24-9.2-15.45-9.16s-1-.08-1.3,0c-.08,0,12,7.86,15,9.52a.94.94,0,0,1,.49.77c.47,8.58,1.16,20.66,1.4,22,.38,2.06.38,19.11.38,20.28,0,.93.92,14.07,1.31,20.41,0,.64.62.34,1.21.11l.11-.07c.4-.15.64-.36.59-.79C94.07,81.17,93.23,69.47,93.23,66.7Z" style="fill:#ecc8a1"/><path d="M98.05,56.17c0-2.78-.77-5.55-1.06-8.3a111.16,111.16,0,0,1-1-11.5c0-4.11.17-8.3-.07-12.43a1.28,1.28,0,0,0-.73-1.07c-3.18-1.5-16.45-8.28-16.62-8.2s-.3.08-.57.18c0,0,12.46,7,15.75,8.65a1.27,1.27,0,0,1,.7,1c.22,2.05.46,4.12.48,6.16,0,1.42.44,2.75.45,4.17s-.3,2.64-.3,4c0,6.82,1.06,13.43,1.06,20.19,0,3-.45,6-.16,9a71.28,71.28,0,0,0,2.27,12,16.76,16.76,0,0,1,.44,2.22V62.86a.75.75,0,0,0,0-.21A38.37,38.37,0,0,1,98.05,56.17Z" style="fill:#ecc8a1"/><path d="M96.08,22.34A1.52,1.52,0,0,1,97,23.47c.19.91.39,1.82.53,2.73.29,1.94-.08,3.91.17,5.85.21,1.65.64,3.25.92,4.89V22.19c-.07-.32-.07,0-.14-.35-.2.27-16.51-7.37-16.81-7.12s-.65-.1-.92.07C80.74,14.81,92.48,21,96.08,22.34Z" style="fill:#edb27d"/><path d="M91.47,67.77c0-1.17,0-18.22-.38-20.28-.24-1.32-.94-13.5-1.41-22.08a.75.75,0,0,0-.37-.61c-2.23-1.35-14.61-9.34-14.74-9.31s-.39,0-.54,0S85.61,23.34,88.22,25a.72.72,0,0,1,.37.58c.57,9,1.41,21.89,1.41,22.87V66.8c0,1,.78,13.71,1.27,21.92,0,.5.53.44,1,.3h0a.76.76,0,0,0,.54-.78C92.47,82.13,91.47,68.74,91.47,67.77Z" style="fill:#edb27d"/><path d="M83.89,88.29c-.77-5.5-.25-16.5-.25-20V43.47c0-1-.19-10.14-.34-17.33a1.15,1.15,0,0,0-.44-.89c-1.68-1.35-7.91-6.64-10.17-8.5-.47-.39-.77-.63-.82-.66-.21-.12-.65,0-.75,0a18.61,18.61,0,0,0,1.56,1.5c2.48,2.27,7.21,6.46,8.76,7.63a1.17,1.17,0,0,1,.47.93c.14,13.4.36,38.05.17,40.71s-.44,15.19-.53,23.25c.46.47.78-.31,1.25.16h0c.7,0,1.36.49,1.28-.21C84.07,89.85,83.93,88.51,83.89,88.29Z" style="fill:#ecc8a1"/><path d="M97.72,32.05c-.25-1.94.12-3.91-.17-5.85-.15-.95-.36-1.9-.55-2.85a1.51,1.51,0,0,0-.82-1.05c-3.06-1.44-15.59-7.68-15.69-7.62s-1.29.14-1.47.23,12.56,6.36,16,7.92a1.47,1.47,0,0,1,.87,1.26c.22,4.07.06,8.22.06,12.28a111.16,111.16,0,0,0,1,11.5c.29,2.75,1,5.52,1.06,8.3a38.43,38.43,0,0,0,.59,6.58V37.08a1.23,1.23,0,0,0,0-.27C98.34,35.22,97.93,33.65,97.72,32.05Z" style="fill:#e2a471"/><path d="M90,66.8V48.43c0-1-.8-13.88-1.37-22.88a.72.72,0,0,0-.34-.57c-2.12-1.33-14.09-9.38-14.24-9.36s-.52,0-.68,0,10.95,7.78,13.57,9.5a.8.8,0,0,1,.34.61c.57,12.9,1.62,35.57,1.62,37.42s.59,17.5.91,25.93c0,.47.45.46.91.36h0a.74.74,0,0,0,.57-.76C90.82,80.44,90,67.86,90,66.8Z" style="fill:#e2a471"/><path d="M88.35,86.25c0-1.34-1.64-42.12-2.39-60.51a.52.52,0,0,0-.24-.44c-1.75-1.2-12.84-9.42-13-9.41h0a3.48,3.48,0,0,1-.36,0,2.48,2.48,0,0,0,.36.32c1.72,1.44,9,7.23,11.28,8.88a1.39,1.39,0,0,1,.56,1.09l.13,10.31c0,11.35,1.3,22.3,1.3,33.73,0,6.45.18,12.83.57,19.22a.58.58,0,0,0,.63.53l.79-.1a.57.57,0,0,0,.48-.59C88.39,87.63,88.35,86.52,88.35,86.25Z" style="fill:#edb27d"/><path d="M88.9,63.13c0-1.85-1-24.56-1.54-37.45a.68.68,0,0,0-.3-.54c-2-1.32-13.52-9.5-13.68-9.48s-.45.17-.66.18,10.37,7.71,12.88,9.42a.66.66,0,0,1,.3.52c.74,18.42,2.45,59.13,2.45,60.47,0,.25,0,1.65.06,3.2,0,.42.42.34.84.26h0a.68.68,0,0,0,.56-.7C89.51,80.64,88.9,65.05,88.9,63.13Z" style="fill:#ecc8a1"/><path d="M86,70.27c0-11.43-1.3-22.38-1.3-33.73L84.53,26a1,1,0,0,0-.38-.76c-1.79-1.36-9.46-7.5-11.45-9-.29-.22-.46-.34-.47-.34-.17,0-.21.16-.38.17,0,0,.3.28.84.74,2.19,1.88,8,6.81,10.14,8.46a1.1,1.1,0,0,1,.43.77c.15,7.21.38,16.45.38,17.43V68.32c0,3.47-.52,14.47.25,20,0,.33.07,1.51.12,1.88s.52.08,1,0l.59,0c.52,0,1,0,1-.53C86.25,83.37,86,76.61,86,70.27Z" style="fill:#e2a471"/><path d="M73,48.37c-1.25,1-.52,5-.52,6.3L71.2,57.12a18.66,18.66,0,0,1-.63,2.36c-.4,1.42-.72,3,.11,3.57a8.49,8.49,0,0,0,2.52-3.57,9.93,9.93,0,0,0,.6-2C74.18,55.38,74.47,50.21,73,48.37Z" style="fill:#edb27d"/><polygon points="81.37 14.45 98.27 22.25 98.9 21.59 83.52 14.45 81.37 14.45" style="fill:#ecc8a1"/><polygon points="82.91 14.21 98.39 21.65 98.64 20.91 86.4 14.9 82.91 14.21" style="fill:#e2a471"/><polygon points="85.61 14.56 98.93 21.23 99.02 20.11 90.38 15.69 85.61 14.56" style="fill:#edb27d"/><polygon points="88.72 15.08 99.08 20.5 97.12 18.04 90.14 15.11 88.72 15.08" style="fill:#ecc8a1"/><path d="M82.56,25.55a40.39,40.39,0,0,1-10-1.17c-4.21-1.11-6.94-2.89-6.94-4.9,0-.09-.32-1.69-.32-.38,0,0,.11,12.6.25,26.69.17,17.89.36,38.19.36,38.19,0,3.37,6.8,6.51,15.94,6.51S98,86.9,98,83.53l.71-62.29C96.65,23.73,90.2,25.55,82.56,25.55Z" style="opacity:0.5;fill:url(#linear-gradient-32)"/><path d="M98.33,19.08c-2.47-2.32-6.84-4.45-16.19-4.45a35.41,35.41,0,0,0-9.43,1.12,14.2,14.2,0,0,0-6.58,3.49c-.24.25-.72.91-.58,1.23.76,1.65,3.37,3.07,7,4a40.37,40.37,0,0,0,9.67,1.09c7.32,0,13.55-1.67,15.91-4A2,2,0,0,0,98.33,19.08Z" style="opacity:0.6000000000000001;fill:url(#linear-gradient-33)"/><path d="M99.22,18.42c-.53,3.18-7.88,5.71-16.89,5.71A40.26,40.26,0,0,1,72.6,23c-3.58-.91-6.14-2.3-6.93-3.91,0,.12,0,1.49,0,1.62,0,2,2.73,3.79,6.92,4.9a40.5,40.5,0,0,0,10,1.17c9.35,0,16.92-2.72,16.92-6.07A10.56,10.56,0,0,0,99.22,18.42Z" style="opacity:0.7000000000000001;fill:url(#linear-gradient-34)"/><path d="M99.31,19.34c-.53,3.18-8,5.65-17,5.65a41.51,41.51,0,0,1-9.67-1.06c-3.62-.88-6.21-2.26-7-3.88,0,.12-.09-.31-.09-.19,0,2,2.8,3.91,7.08,5.09a38.15,38.15,0,0,0,9.92,1.23c9.35,0,16.82-2.68,16.82-6C99.31,19.79,99.48,19.68,99.31,19.34Z" style="fill:url(#linear-gradient-35)"/><path d="M82.07,13.69a44,44,0,0,0-9.35.94c-5,1.1-8.32,3.06-8.32,5.29V86.08c0,3.44,7.91,6.23,17.67,6.23s17.67-2.79,17.67-6.23V19.92C99.74,16.48,91.83,13.69,82.07,13.69Zm15,70.65c0,3.08-6.69,5.47-15.31,5.47s-15-2.3-15-5.15c0,0-.2-21.38-.36-39.4-.12-13.12-.22-24.46-.22-24.47,0-2,2.54-3.74,6.51-4.75a36,36,0,0,1,8.77-1c8.62,0,16.26,2.49,16.26,5.78Z" style="fill:#9b5c31"/></g></g></svg>