<svg id="Label_Soap_B" data-name="Label Soap B" xmlns="http://www.w3.org/2000/svg" xmlns:xlink="http://www.w3.org/1999/xlink" viewBox="0 0 285 141"><defs><linearGradient id="linear-gradient" x1="-843.07" y1="14.52" x2="-840.24" y2="14.52" gradientTransform="translate(1078.53)" gradientUnits="userSpaceOnUse"><stop offset="0" stop-color="#fff"/><stop offset="1" stop-color="#fff" stop-opacity="0.5"/></linearGradient><linearGradient id="linear-gradient-2" x1="-843.7" y1="8.78" x2="-839" y2="8.78" xlink:href="#linear-gradient"/><linearGradient id="linear-gradient-3" x1="-862.73" y1="76.8" x2="-816.92" y2="76.8" gradientTransform="translate(1078.53)" gradientUnits="userSpaceOnUse"><stop offset="0" stop-color="#6d2600"/><stop offset="0.41" stop-color="#fff" stop-opacity="0"/><stop offset="0.78" stop-color="#ff0"/><stop offset="1" stop-color="#9e0000"/></linearGradient><linearGradient id="linear-gradient-4" x1="-843.04" y1="26.32" x2="-839.02" y2="26.32" gradientTransform="translate(1078.53)" gradientUnits="userSpaceOnUse"><stop offset="0" stop-color="#fff"/><stop offset="1" stop-color="#fff" stop-opacity="0.4"/></linearGradient><linearGradient id="linear-gradient-5" x1="-854.8" y1="69.37" x2="-823.71" y2="77.7" gradientTransform="translate(1078.53)" gradientUnits="userSpaceOnUse"><stop offset="0" stop-color="#fff" stop-opacity="0.3"/><stop offset="0.04" stop-color="#fff" stop-opacity="0.43"/><stop offset="0.09" stop-color="#fff" stop-opacity="0.59"/><stop offset="0.14" stop-color="#fff" stop-opacity="0.7"/><stop offset="0.18" stop-color="#fff" stop-opacity="0.77"/><stop offset="0.21" stop-color="#fff" stop-opacity="0.8"/><stop offset="0.45" stop-color="#fff" stop-opacity="0.5"/><stop offset="1" stop-color="#fff" stop-opacity="0"/></linearGradient><linearGradient id="linear-gradient-6" x1="-858.49" y1="36.12" x2="-841.62" y2="36.12" xlink:href="#linear-gradient-4"/><linearGradient id="linear-gradient-7" x1="-857.82" y1="99.57" x2="-847.89" y2="99.57" xlink:href="#linear-gradient-4"/><linearGradient id="linear-gradient-8" x1="-839.05" y1="98.86" x2="-820.62" y2="98.86" gradientTransform="translate(1078.53)" gradientUnits="userSpaceOnUse"><stop offset="0" stop-color="#fff" stop-opacity="0"/><stop offset="1" stop-color="#fff"/></linearGradient><linearGradient id="linear-gradient-9" x1="-858.8" y1="49.11" x2="-822.34" y2="49.75" gradientTransform="translate(1078.53)" gradientUnits="userSpaceOnUse"><stop offset="0" stop-color="#c62f00"/><stop offset="0.4" stop-color="#c62f00" stop-opacity="0.2"/><stop offset="0.61" stop-color="#c62f00" stop-opacity="0.2"/><stop offset="1" stop-color="#c62f00"/></linearGradient><linearGradient id="linear-gradient-10" x1="-839.2" y1="40.17" x2="-823.54" y2="35.08" xlink:href="#linear-gradient-8"/><linearGradient id="linear-gradient-11" x1="-842.33" y1="59.48" x2="-825.55" y2="59.48" xlink:href="#linear-gradient-8"/><linearGradient id="linear-gradient-12" x1="-820.93" y1="99.97" x2="-771.02" y2="99.97" gradientTransform="translate(1002.03)" gradientUnits="userSpaceOnUse"><stop offset="0" stop-color="#8ed8ce"/><stop offset="0.5" stop-color="#8ed8ce" stop-opacity="0"/><stop offset="1" stop-color="#8ed8ce"/></linearGradient><radialGradient id="radial-gradient" cx="-889.21" cy="1027.76" r="21.45" gradientTransform="translate(889.18 31.6) scale(0.77 0.09)" gradientUnits="userSpaceOnUse"><stop offset="0" stop-color="#a38507" stop-opacity="0.4"/><stop offset="1" stop-color="#a38507"/></radialGradient><linearGradient id="linear-gradient-13" x1="-787.9" y1="75.56" x2="-781.44" y2="75.22" gradientTransform="translate(1002.03)" gradientUnits="userSpaceOnUse"><stop offset="0" stop-color="#fff" stop-opacity="0"/><stop offset="0.14" stop-color="#fff" stop-opacity="0.15"/><stop offset="0.38" stop-color="#fff" stop-opacity="0.39"/><stop offset="0.56" stop-color="#fff" stop-opacity="0.54"/><stop offset="0.66" stop-color="#fff" stop-opacity="0.6"/><stop offset="0.71" stop-color="#fff" stop-opacity="0.54"/><stop offset="0.8" stop-color="#fff" stop-opacity="0.39"/><stop offset="0.93" stop-color="#fff" stop-opacity="0.15"/><stop offset="1" stop-color="#fff" stop-opacity="0"/></linearGradient><linearGradient id="linear-gradient-14" x1="-789.66" y1="101.14" x2="-780.31" y2="100.65" xlink:href="#linear-gradient-13"/><radialGradient id="radial-gradient-2" cx="-796.25" cy="118" r="13.11" gradientTransform="translate(1002.03 104.07) scale(1 0.12)" gradientUnits="userSpaceOnUse"><stop offset="0" stop-opacity="0.4"/><stop offset="1" stop-color="#c62f00"/></radialGradient><linearGradient id="linear-gradient-15" x1="-796.92" y1="99.7" x2="-795.5" y2="107.73" gradientTransform="translate(1002.03)" gradientUnits="userSpaceOnUse"><stop offset="0" stop-color="#c62f00"/><stop offset="0.14" stop-color="#d84200" stop-opacity="0.69"/><stop offset="0.31" stop-color="#ed5900" stop-opacity="0.32"/><stop offset="0.44" stop-color="#fa6700" stop-opacity="0.09"/><stop offset="0.5" stop-color="#ff6d00" stop-opacity="0"/><stop offset="0.56" stop-color="#fa6800" stop-opacity="0.08"/><stop offset="0.68" stop-color="#ee5b00" stop-opacity="0.29"/><stop offset="0.84" stop-color="#db4600" stop-opacity="0.63"/><stop offset="1" stop-color="#c62f00"/></linearGradient><linearGradient id="linear-gradient-16" x1="205.84" y1="100.94" x2="205.84" y2="106.49" gradientUnits="userSpaceOnUse"><stop offset="0" stop-color="#c62f00" stop-opacity="0"/><stop offset="0.05" stop-color="#c62f00" stop-opacity="0.12"/><stop offset="0.17" stop-color="#c62f00" stop-opacity="0.35"/><stop offset="0.3" stop-color="#c62f00" stop-opacity="0.55"/><stop offset="0.42" stop-color="#c62f00" stop-opacity="0.71"/><stop offset="0.55" stop-color="#c62f00" stop-opacity="0.84"/><stop offset="0.69" stop-color="#c62f00" stop-opacity="0.93"/><stop offset="0.83" stop-color="#c62f00" stop-opacity="0.98"/><stop offset="1" stop-color="#c62f00"/></linearGradient><linearGradient id="linear-gradient-17" x1="-113.32" y1="103.05" x2="-125.71" y2="103.05" gradientTransform="matrix(-1, 0, 0, 1, 102.03, 0)" xlink:href="#linear-gradient-8"/><linearGradient id="linear-gradient-18" x1="-805.24" y1="102.97" x2="-817.18" y2="102.97" gradientTransform="translate(1002.03)" xlink:href="#linear-gradient-8"/><linearGradient id="linear-gradient-19" x1="-815.82" y1="116.06" x2="-776.52" y2="116.06" gradientTransform="translate(1002.03)" xlink:href="#linear-gradient-3"/><linearGradient id="linear-gradient-20" x1="-819.98" y1="75.72" x2="-772.37" y2="75.72" gradientTransform="translate(1002.03)" gradientUnits="userSpaceOnUse"><stop offset="0" stop-color="#fff" stop-opacity="0.8"/><stop offset="0.4" stop-color="#fff" stop-opacity="0.35"/><stop offset="1" stop-color="#fff"/></linearGradient><linearGradient id="linear-gradient-21" x1="-808.31" y1="125.37" x2="-799.64" y2="125.22" gradientTransform="translate(1002.03)" gradientUnits="userSpaceOnUse"><stop offset="0.08" stop-color="#fff" stop-opacity="0"/><stop offset="0.15" stop-color="#fff" stop-opacity="0.21"/><stop offset="0.27" stop-color="#fff" stop-opacity="0.54"/><stop offset="0.37" stop-color="#fff" stop-opacity="0.79"/><stop offset="0.45" stop-color="#fff" stop-opacity="0.94"/><stop offset="0.48" stop-color="#fff"/><stop offset="0.52" stop-color="#fff" stop-opacity="0.94"/><stop offset="0.6" stop-color="#fff" stop-opacity="0.79"/><stop offset="0.7" stop-color="#fff" stop-opacity="0.54"/><stop offset="0.82" stop-color="#fff" stop-opacity="0.21"/><stop offset="0.89" stop-color="#fff" stop-opacity="0"/></linearGradient><linearGradient id="linear-gradient-22" x1="-812.45" y1="101.99" x2="-801.26" y2="101.2" xlink:href="#linear-gradient-21"/><linearGradient id="linear-gradient-23" x1="-814.3" y1="76.36" x2="-804.98" y2="79.39" xlink:href="#linear-gradient-21"/><linearGradient id="linear-gradient-24" x1="-815.44" y1="78.11" x2="-801.21" y2="78.11" gradientTransform="translate(1002.03)" gradientUnits="userSpaceOnUse"><stop offset="0" stop-color="#fff" stop-opacity="0"/><stop offset="0.09" stop-color="#fff" stop-opacity="0.21"/><stop offset="0.23" stop-color="#fff" stop-opacity="0.54"/><stop offset="0.35" stop-color="#fff" stop-opacity="0.79"/><stop offset="0.44" stop-color="#fff" stop-opacity="0.94"/><stop offset="0.48" stop-color="#fff"/><stop offset="0.53" stop-color="#fff" stop-opacity="0.94"/><stop offset="0.62" stop-color="#fff" stop-opacity="0.79"/><stop offset="0.75" stop-color="#fff" stop-opacity="0.54"/><stop offset="0.91" stop-color="#fff" stop-opacity="0.21"/><stop offset="1" stop-color="#fff" stop-opacity="0"/></linearGradient><linearGradient id="linear-gradient-25" x1="-788.89" y1="71.54" x2="-779.79" y2="74.5" xlink:href="#linear-gradient-21"/></defs><title>label-b-soap</title><circle id="Backdrop_B" data-name="Backdrop B" cx="222.57" cy="78.52" r="62.18" style="fill:#8ed8ce"/><path id="Label_B_Back" data-name="Label B Back" d="M183.48,97.07a347.36,347.36,0,0,0-62.45,0A381.84,381.84,0,0,0,60,107.78L49,42.38a440.81,440.81,0,0,1,71.84-.77,397,397,0,0,1,70.44,11.48Z" style="fill:#00bdff"/><g id="Label_B" data-name="Label B"><path d="M85.38,70.23a.58.58,0,0,0-.07.28.67.67,0,0,0,.25.46,20.28,20.28,0,0,1,1.89,2.69A5.41,5.41,0,0,1,88,76.25a7.46,7.46,0,0,1-.1,1.23,5.22,5.22,0,0,1-2.73,4.13,12.91,12.91,0,0,1-5.67,1.08l-1.68,0c-.66,0-1.15,0-1.47-.07-.94-.07-1.82-.11-2.66-.11a1.08,1.08,0,0,1-.46-.07q-.1-2.76-.1-8.26l0-11q0-3.21,0-4.83l0,0a20.5,20.5,0,0,1,5.39-.77,10.33,10.33,0,0,1,6.13,1.7c1.58,1.13,2.38,3,2.38,5.54A10.62,10.62,0,0,1,85.38,70.23Zm-7.17,9.28c.88,0,1.49.07,1.82.07a5.61,5.61,0,0,0,2.39-.44,3.78,3.78,0,0,0,1.63-1.66,2.72,2.72,0,0,0,.28-1.26A5.71,5.71,0,0,0,84,74.33a2.36,2.36,0,0,0-1.19-1.4,4.26,4.26,0,0,0-1.8-.49l-1.11,0a8.3,8.3,0,0,0-.91,0c-.25,0-1.08,0-2.48.07a3.92,3.92,0,0,0-.32,2,36.52,36.52,0,0,0,.46,5C77.16,79.44,77.69,79.49,78.21,79.51Zm0-10.29c.88,0,1.46.07,1.71.07a5.4,5.4,0,0,0,2.35-.4,2.84,2.84,0,0,0,1.26-1.46,4.77,4.77,0,0,0,.56-2.27,5.35,5.35,0,0,0-.11-1,3.13,3.13,0,0,0-1.33-2.22,5.46,5.46,0,0,0-2.8-.76q-.34,0-1.08,0a5.83,5.83,0,0,0-2.45.31l0,1-.07,2.45v1.43a12.64,12.64,0,0,0,.21,2.8Z" style="fill:#fff"/><path d="M94.06,70.79l-2.69,0h-.11a10.21,10.21,0,0,1-.1-1.61l0-1.72c0-.21,0-.45,0-.73a4.8,4.8,0,0,1,1.68-.25,4.16,4.16,0,0,1,1.43.18c0,.12,0,.75-.1,1.89s-.11,1.88-.11,2.2v.07Zm0,11.76-2.66,0h-.11a10.21,10.21,0,0,1-.1-1.61l0-1.72c0-.21,0-.45,0-.73a4.8,4.8,0,0,1,1.68-.25,3.89,3.89,0,0,1,1.4.18c0,.12,0,.75-.11,1.89s-.1,1.88-.1,2.2v.07Z" style="fill:#fff"/><path d="M120.91,66h0a11.61,11.61,0,0,1-2,.18,5.55,5.55,0,0,1-1.57-.18,5,5,0,0,0,.07-.91,3.29,3.29,0,0,0-.56-1.94A3.24,3.24,0,0,0,115.31,62a4.74,4.74,0,0,0-1.54-.24,5.36,5.36,0,0,0-2.35.54,4.27,4.27,0,0,0-1.75,1.49,3.16,3.16,0,0,0-.52,2.1q.45,2.65,3.67,2.76a9.84,9.84,0,0,1,6.06,1.86,5.47,5.47,0,0,1,2,4.37,8.88,8.88,0,0,1-1,4.31,6.47,6.47,0,0,1-2.6,2.68,7.57,7.57,0,0,1-3.64.89,10.85,10.85,0,0,1-3.89-.72,7.91,7.91,0,0,1-3.15-2.12,5.54,5.54,0,0,1-1.43-3.32v0a3.85,3.85,0,0,1-.11-.94v-.25c.51,0,.91-.07,1.19-.07l1.3,0q.38,0,1.08,0a3.26,3.26,0,0,0,.86,2.38,5.23,5.23,0,0,0,2.71,1.44,4.34,4.34,0,0,0,1.09.14,4.07,4.07,0,0,0,2.1-.56,3.66,3.66,0,0,0,1.43-1.54,4,4,0,0,0,.39-2.17,3,3,0,0,0-.9-2,3.76,3.76,0,0,0-1.75-.87,22.14,22.14,0,0,0-2.74-.35l-1.33-.11a5.83,5.83,0,0,1-3-1.38,5.51,5.51,0,0,1-1.71-2.57,7.19,7.19,0,0,1-.32-2.07,6.89,6.89,0,0,1,.32-2.1,7.91,7.91,0,0,1,1.62-2.95,7.27,7.27,0,0,1,2.72-2,8.4,8.4,0,0,1,3.18-.56,11.05,11.05,0,0,1,4.59.94,5.68,5.68,0,0,1,3.18,5.29A10.24,10.24,0,0,1,120.91,66Z" style="fill:#fff"/><path d="M123.22,71.18a18.11,18.11,0,0,1,.12-2.24,11.86,11.86,0,0,1,.61-2.35,3.05,3.05,0,0,1,1.94-1.52,10.17,10.17,0,0,1,3.31-.51,4.23,4.23,0,0,0,.7,0l1.4,0a6.23,6.23,0,0,1,4.52,1.54,2.72,2.72,0,0,1,1,1.58,13.62,13.62,0,0,1,.4,3.1c0,1.29.07,2,.07,2.25-.09,2.34-.2,4.19-.33,5.57a4.62,4.62,0,0,1-.79,2.66,3.28,3.28,0,0,1-1.84,1.29,9.55,9.55,0,0,1-2.78.35c-.42,0-1,0-1.89-.07l-1.61,0a5.15,5.15,0,0,1-3.1-1.51,5.6,5.6,0,0,1-1.33-2.69,19.8,19.8,0,0,1-.29-3.71V73.07C123.29,72.21,123.26,71.58,123.22,71.18Zm7.14-3.33a4.28,4.28,0,0,0-3.43,1.23,2.77,2.77,0,0,0-.58,1.42,14.31,14.31,0,0,0-.09,2.22,11.36,11.36,0,0,0,0,1.4c0,.58,0,1,0,1.36L126.4,77a2.72,2.72,0,0,0,.79,2,3.69,3.69,0,0,0,1.73.79,9.77,9.77,0,0,0,1.44.1,5.38,5.38,0,0,0,2.38-.49A2.33,2.33,0,0,0,134,77.72a10.37,10.37,0,0,0,.14-1.43q.18-2.45.18-3.33a7.18,7.18,0,0,0-.84-3.71A3.37,3.37,0,0,0,130.36,67.85Z" style="fill:#fff"/><path d="M151.15,65a17.62,17.62,0,0,1,2.06.07l.91.07a6.9,6.9,0,0,1,.07.84v.35c0,.54,0,1.35,0,2.42,0,.89,0,2.19.07,3.92l0,3.92c0,1.68,0,3.21-.14,4.58v.46a2.48,2.48,0,0,1-.07.63.46.46,0,0,1-.38.35h-.6l-1.12,0a3.34,3.34,0,0,0-.49,0l-.38,0c-.24-.07-.35-.32-.35-.77a2.24,2.24,0,0,1,0-.63,3.56,3.56,0,0,0,.06-.59,4.35,4.35,0,0,1-2.66,1.57,15.93,15.93,0,0,1-3.57.42,3.53,3.53,0,0,1-2.86-1.48A9.72,9.72,0,0,1,140,77.48a17.11,17.11,0,0,1-.56-4.24,10.46,10.46,0,0,1,.77-4.09,7.12,7.12,0,0,1,2.12-2.89,4.86,4.86,0,0,1,3-1.1l1.12,0a8,8,0,0,1,2.61.37,2.66,2.66,0,0,1,1.52,1.35,5.52,5.52,0,0,1,.07-.81c0-.46.07-.79.07-1C150.69,65,150.84,65,151.15,65Zm-3.92,3.15a4.74,4.74,0,0,0-3.07.93,3.9,3.9,0,0,0-1.52,2.29,10.53,10.53,0,0,0-.28,2.73c.12,3.76,1.63,5.56,4.55,5.39a4.23,4.23,0,0,0,2.59-.63,2.72,2.72,0,0,0,1-1.78,22.82,22.82,0,0,0,.19-3.47,20.4,20.4,0,0,0-.21-3.55,2,2,0,0,0-.89-1.42A6.08,6.08,0,0,0,147.23,68.13Z" style="fill:#fff"/><path d="M160.53,89.24v.38s-.16.09-.46.13-.64,0-1,0a10.2,10.2,0,0,1-1.51-.11V87.38q0-3.28-.14-9.66c0-1,0-2.28-.07-3.76s0-3.15,0-5,0-3,0-3.85l2.28,0c.46,0,.8,0,1,0a.74.74,0,0,1,.05.3c0,.17,0,.35,0,.54s0,.2,0,.31a3,3,0,0,1,0,.49c0,.12.06.17.12.16s.14-.1.23-.26a3.47,3.47,0,0,1,1.72-1.16,7.18,7.18,0,0,1,2.2-.35,5.91,5.91,0,0,1,.77,0,5.5,5.5,0,0,1,3.69,1.5,6.73,6.73,0,0,1,1.7,3.36,29,29,0,0,1,.49,5,14.23,14.23,0,0,1-.68,4.62,3.68,3.68,0,0,1-2.15,2.48,7.24,7.24,0,0,1-2.1.46q-.39,0-1.23,0a17.41,17.41,0,0,1-3.25-.28c-1-.18-1.53-.42-1.58-.7l.07,4.27c0,.52,0,1.15-.07,1.89Zm3.18-9.31a14.24,14.24,0,0,0,2.5-.16,2.85,2.85,0,0,0,1.47-.73,4.23,4.23,0,0,0,1-1.88,12.49,12.49,0,0,0,.28-2.55,10.76,10.76,0,0,0-1-4.83q-1-2-3.83-1.82a3.82,3.82,0,0,0-2.47.93,3.7,3.7,0,0,0-1,2.08,24.14,24.14,0,0,0-.21,3.64,20.72,20.72,0,0,0,.21,3.55,1.91,1.91,0,0,0,.85,1.42A5,5,0,0,0,163.71,79.93Z" style="fill:#fff"/></g><g id="Soap_B" data-name="Soap B"><path d="M259.81,76.09c-1.13-6.23-4.4-12.3-4.4-19.3,0-4.42,6.83-10.64,5.59-14.54-2.56-8-11.08-13.48-16.86-15-.68-.18-.65-2.42-1-2.64-.29-.44.48-2.25-.24-2.79-1.89-1.42-9.24-1.91-9.59.24-.13.79-.11,4.39-.24,4.47a17,17,0,0,1-1.92.64A23.66,23.66,0,0,0,216,42.33c-1.21,3.91,5.51,9.87,5.51,14.3,0,6.3-2.3,12.76-3.19,18.55-2.1,13.65-2.44,23.76,1.76,41.25,1.24,2.51,7.84,3.66,19.82,3.66s19.31-1.59,20.21-4.35C263.56,98.94,261.91,87.63,259.81,76.09Z" style="fill:#fff;opacity:0.30000000000000004"/><path d="M232.94,9.54c0,1,1.45,1.68,1.45,2.46s-.11,4.16-.11,4.16l8,.16s0-3.68,0-4.38c0-.91,1.28-1.69,1.24-2.52,0-.52-3.41-2.53-4-2.53l-2.44,0C236.52,6.93,232.94,9,232.94,9.54Z" style="fill:#c62f00"/><path d="M238.06,11.9a11.08,11.08,0,0,1-2.22-.15c-.48,0-.4,3.57-.34,4.38.09,1.36,2.76,1.52,2.75.47C238.23,15.2,238.44,11.87,238.06,11.9Z" style="opacity:0.4;fill:url(#linear-gradient)"/><path d="M241.27,11.9c-.16,0-.4-.05-.38.07.08.51,0,3.63,0,4.44.09,1.36.55,1.24.53.19C241.44,15.2,241.65,11.88,241.27,11.9Z" style="fill:#fff;opacity:0.1"/><path d="M238.58,7.71c-.89.17-1.13-.11-1.56.11s-2.81,1.47-2,1.69,3.44.59,4.39.13C239.91,9.38,238.85,7.65,238.58,7.71Z" style="opacity:0.4;fill:url(#linear-gradient-2)"/><path d="M239.64,7.75s.05-.15.48.07,2.79,1.43,2,1.69a2.22,2.22,0,0,1-.32.1C241.26,9.74,240.36,8.16,239.64,7.75Z" style="fill:#fff;opacity:0.1"/><ellipse cx="239.27" cy="114.87" rx="20.26" ry="2.92" style="fill:#dd863e;stroke:#823500;stroke-miterlimit:10;stroke-width:1.38934657847905px;opacity:0.6000000000000001"/><path d="M259.81,76.09c-1.13-6.23-4.4-12.3-4.4-19.3,0-4.42,6.83-10.64,5.59-14.54-.9-2.79-2.08-8.6-5.07-7.87C250,35.84,242,36,238.74,36a158.63,158.63,0,0,1-18.34-1.31c-3-.45-3.57,4.76-4.45,7.6-1.21,3.91,5.51,9.87,5.51,14.3,0,6.3-2.3,12.76-3.19,18.55-2.1,13.65-2.92,23.24,1.28,40.73,1.25,2.51,8.56,3.23,20.54,3.23s18.22-1.45,19.12-4.21C262.71,98.13,261.91,87.63,259.81,76.09Z" style="fill:#ff6d00;opacity:0.8"/><path d="M221,34.85a110.57,110.57,0,0,0,34.44-.27" style="fill:none;stroke:#e55c00;stroke-miterlimit:10;stroke-width:0.694673289239525px"/><path d="M259.81,76.09c-1.13-6.23-4.4-12.3-4.4-19.3,0-4.42,6.83-10.64,5.59-14.54-.94-2.92-2.2-8.53-5.35-7.73-5.53,1.4-12.42,1.52-16.91,1.52a116,116,0,0,1-18.12-1.38c-3-.58-3.79,4.83-4.67,7.67-1.21,3.91,5.51,9.87,5.51,14.3,0,6.3-2.3,12.76-3.19,18.55-2.1,13.65-2.92,23.24,1.28,40.73,1.25,2.51,8.56,3.23,20.54,3.23s18.22-1.45,19.12-4.21C262.71,98.13,261.91,87.63,259.81,76.09Z" style="opacity:0.2;fill:url(#linear-gradient-3)"/><path d="M260.81,75.85c-1.13-6.18-3.48-12.51-3.48-19.45,0-4.4,6.1-10.73,4.87-14.59-2.54-7.94-9-12.5-16-15.28a8.94,8.94,0,0,0-1.39-.41v-1L242.72,25c.11,1.06-.25,2.54-.05,2.85a15.05,15.05,0,0,0,2.14.65,20.84,20.84,0,0,1,14,13.6c1.16,3.63-4.83,10.48-4.83,14.6,0,6.52,2.91,13.9,4,19.69,2,10.76,3.49,21.3.24,36.94-.85,2.58-7.67,4.06-18.83,4.06S222,116.31,220.84,114c-3.91-16.29-3.59-25.72-1.64-38.43.83-5.4,3.3-12.61,3.3-18.48,0-4.13-5.85-11-4.73-14.59,2.41-7.82,8-12.65,13-14.14,1.06-.31,2.17-.7,2.95-.83a14.78,14.78,0,0,0,.15-2.39l-2.27,0,0,.81a11.24,11.24,0,0,0-2,.58c-5.12,1.95-12,6.95-14.59,15.28-1.2,3.88,4.86,10.88,4.86,15.28,0,6.25-1.89,13-2.78,18.76-2.08,13.54-3.47,23.62.7,41,0,2.31,9.64,4.17,21.53,4.17s21.54-1.86,21.54-4.17C264.28,100.16,262.89,87.31,260.81,75.85Z" style="fill:#c62f00"/><path d="M233.4,27.18a32.89,32.89,0,0,1,10.11.52" style="fill:none;stroke:#c62f00;stroke-miterlimit:10;stroke-width:0.694673289239525px"/><path d="M239.29,27.67c-1.41-.1-3-.12-3.76-.09a13.37,13.37,0,0,1,.26-2.51l3.66-.1S239.65,27.7,239.29,27.67Z" style="opacity:0.7000000000000001;fill:url(#linear-gradient-4)"/><path d="M245.91,25.17a76.21,76.21,0,0,1-15.4,0,.71.71,0,0,1-.63-.72l.23-7.11a1.4,1.4,0,0,1,1.3-1.35,119.37,119.37,0,0,1,13.64,0,1.4,1.4,0,0,1,1.32,1.36l.17,7.09A.7.7,0,0,1,245.91,25.17Z" style="fill:#6d6d6d"/><path d="M244.59,23.31a73.41,73.41,0,0,1-13.14.2l0-6.3a103.28,103.28,0,0,1,13,.21Z" style="fill:#d6d6d6"/><path d="M232.56,17.16v6.43a54.62,54.62,0,0,0,6.25.08V17.14C236.72,17.07,234.71,17.05,232.56,17.16Z" style="fill:#eaeaea"/><path d="M234.21,17.1v6.58c.77,0,1.53.05,2.27.05V17.09C235.73,17.08,235,17.08,234.21,17.1Z" style="fill:#fff"/><path d="M243.1,23.42l1.49-.11-.13-5.89-1.36-.07Z" style="fill:#e8e8e8"/><path d="M238.72,87.36c-4.37,0-10.2-.74-13.18-4.24-1.79-2.11-2.39-5-1.79-8.73,1-6.29,2.94-18,7.49-18q1.81,0,4.25,2.27a20.56,20.56,0,0,0,9.17,4.92c4.09,1.24,7.05,2.13,8.62,10.95.7,3.92.29,6.8-1.27,8.78-1.79,2.3-5.17,3.58-10.32,3.93C240.67,87.33,239.67,87.36,238.72,87.36Z" style="fill:#ff9d00"/><path d="M231.24,57.1h0c1,0,2.31.73,3.77,2.09a21.48,21.48,0,0,0,9.44,5.07c4,1.21,6.65,2,8.15,10.41.66,3.72.29,6.41-1.13,8.24-1.67,2.13-4.88,3.32-9.83,3.66-1,.06-2,.1-2.92.1-4.22,0-9.84-.7-12.65-4-1.65-1.94-2.2-4.69-1.63-8.17.92-5.65,2.84-17.4,6.8-17.4m0-1.39c-4.73,0-6.67,9.4-8.17,18.56-1.84,11.22,7.28,13.79,15.65,13.79,1,0,2,0,3-.11,11-.74,13.62-5.75,12.24-13.52-2.67-15-9.46-8.26-18-16.25-1.83-1.72-3.39-2.47-4.72-2.47Z" style="fill:#eac69b"/><g style="opacity:0.6000000000000001"><path d="M254,74.43c1.38,7.77-1.2,12.78-12.24,13.52-9,.6-20.72-1.09-18.66-13.68C225,62.52,227.64,50.39,236,58.18,244.51,66.17,251.3,59.47,254,74.43Z" style="fill:url(#linear-gradient-5)"/></g><path d="M220.05,41.94c-.27.87,5.46,2.22,5.59,1.4,1.23-7.79,7.23-12.34,10.82-14.05,1.84-.87-2.27-1.28-7.29,1.58A18.93,18.93,0,0,0,220.05,41.94Z" style="opacity:0.5;fill:url(#linear-gradient-6)"/><path d="M230.61,113.83c-.34,1.21-7.91-.39-8.06-2.63-.08-1.34-3.46-20.18-.85-26.31,2.49,5.26,8.21,4.78,7.93,7C228.32,102.86,231,112.61,230.61,113.83Z" style="opacity:0.5;fill:url(#linear-gradient-7)"/><path d="M240.61,114.44c4,1.45,14-.42,15.56-1.81,1-.87,3.25-17.38.2-29.88-2.21,9.54-16.11,8.16-16.39,10.4C239.09,100.29,239.44,114,240.61,114.44Z" style="opacity:0.30000000000000004;fill:url(#linear-gradient-8)"/><path d="M224.8,53.13c10.66-1.7,23.22.1,26.49,1.48,1.41.6,6.15-10,4.7-9.51-4.58,1.65-25.11,2.64-36-.94C218.72,43.73,224,53.25,224.8,53.13Z" style="opacity:0.4;fill:url(#linear-gradient-9)"/><path d="M256.79,43.43c-1.47.84-16,2.42-15.87,1.6.53-4.66,5-11.84,2.24-14.55-1.44-1.44,4.75.21,9.4,4C255.27,36.68,258.33,42.55,256.79,43.43Z" style="opacity:0.30000000000000004;fill:url(#linear-gradient-10)"/><path d="M243,59.87c2.68.43,7.73,2.1,9.79,4.33.9,1-1.1-5.15-.88-7.41.09-.88-16.48-3.43-15.62-1.34C236.81,56.84,241.72,59.67,243,59.87Z" style="opacity:0.30000000000000004;fill:url(#linear-gradient-11)"/></g><g id="Cup_B" data-name="Cup B"><path d="M230.89,75.48c-.69-1.85-2.35-3-8.29-3.76A140.41,140.41,0,0,0,206,70.86a139.62,139.62,0,0,0-16.58.86c-4,.52-7.52,1.42-8.2,3.8-.37,1.33.19,2.37,2.27,3.2l3.41,41.33c0,.36.74.61,1.07.7l.41,4.06c.51,2.44,7.2,4.26,17.45,4.26s16.56-1.91,17.45-4.26l.5-4c.31-.1,1-.44,1.06-.85l3.8-41.17C230.53,77.93,231.35,76.76,230.89,75.48Z" style="opacity:0.8;fill:url(#linear-gradient-12)"/><path d="M221.84,124.6c0,1.1-7,3-16.06,3s-16.36-1.91-16.36-3,7.39-2.52,16.44-2.52S221.84,123.51,221.84,124.6Z" style="opacity:0.5;fill:url(#radial-gradient)"/><path d="M220.58,74.85c-2.05-.18-3.64-.35-6.45-.46,0,.66.05,1.45.06,2.34,2.6-.14,4.71-.34,6.43-.56C220.61,75.68,220.6,75.23,220.58,74.85Z" style="opacity:0.30000000000000004;fill:url(#linear-gradient-13)"/><path d="M214.23,79.65c.08,9.17-.14,24.77-.82,37.52-.26,4.94.15,5.46,2.94,5.28,1.25-.09,1.08-2.41,1.42-4.94,1.13-8.52,2.63-28.33,2.83-38.33C218.72,79.39,216.57,79.55,214.23,79.65Z" style="opacity:0.30000000000000004;fill:url(#linear-gradient-14)"/><path d="M187.86,119.57c0-1.58,8.93-2.58,18-2.58s17.85,1.14,17.85,2.58" style="fill:none;stroke-miterlimit:10;stroke-width:1.1149077481622px;opacity:0.35000000000000003;stroke:url(#radial-gradient-2)"/><path d="M223.88,119.54l-1.18.32c-.37.1-.43,4.87-.78,5-10.39,4.69-21.79,4.25-32.47.35-.42-.15-.23-4.89-.67-5l-1-.22-1.55-16.21c3.57-3.73,38.44-3.25,39.28.31Z" style="fill:#ff6d00;opacity:0.7000000000000001"/><g style="opacity:0.9"><ellipse cx="205.82" cy="103.71" rx="18.86" ry="2.46" style="fill:url(#linear-gradient-15)"/><path d="M225,103.71a.91.91,0,0,1-.47.71,3.35,3.35,0,0,1-.59.31,9.11,9.11,0,0,1-1.19.38c-.8.21-1.6.35-2.4.48-1.6.25-3.21.42-4.82.55-3.23.24-6.46.33-9.69.33s-6.46-.11-9.68-.37c-1.61-.13-3.22-.29-4.82-.55-.8-.12-1.6-.27-2.39-.47a10.27,10.27,0,0,1-1.19-.38,4.09,4.09,0,0,1-.58-.31.73.73,0,0,1,0-1.35,3.21,3.21,0,0,1,.58-.3,9.11,9.11,0,0,1,1.19-.38c.79-.2,1.59-.35,2.39-.47,1.61-.24,3.21-.4,4.83-.53,3.22-.25,6.45-.35,9.67-.36s6.46.08,9.68.33c1.62.12,3.23.28,4.83.52.8.13,1.6.27,2.4.47a10.93,10.93,0,0,1,1.19.38,3.06,3.06,0,0,1,.59.31A.91.91,0,0,1,225,103.71Zm-.58,0a.56.56,0,0,0-.22-.23,4.3,4.3,0,0,0-.48-.25,9.17,9.17,0,0,0-1.12-.35c-.76-.2-1.55-.34-2.34-.47-1.58-.25-3.18-.41-4.78-.54-3.2-.25-6.42-.36-9.64-.37s-6.43.09-9.64.33c-1.6.13-3.2.3-4.78.54-.79.13-1.58.27-2.35.47a8,8,0,0,0-1.11.36c-.34.12-.74.4-.73.51s.39.39.73.51a6.64,6.64,0,0,0,1.12.35,22.51,22.51,0,0,0,2.34.46c1.58.25,3.18.4,4.79.53,3.2.24,6.42.33,9.63.33s6.44-.11,9.64-.37c1.6-.12,3.2-.28,4.78-.52.79-.12,1.58-.27,2.34-.46a9.58,9.58,0,0,0,1.11-.35,2.81,2.81,0,0,0,.49-.25A.5.5,0,0,0,224.4,103.71Z" style="fill:url(#linear-gradient-16)"/></g><polygon points="215.36 127.57 222.37 125.31 227.74 78.54 217.24 79.97 215.36 127.57" style="opacity:0.4;fill:url(#linear-gradient-17)"/><path d="M222.88,125.06c-10.82,4-21.95,3.86-34.18-.06l-3.85-46.38c14.64,2.18,28.56,2.5,42.33.18Z" style="fill:#fff;opacity:0.15"/><polygon points="196.79 127.07 188.76 125.06 184.85 78.86 194.66 80.04 196.79 127.07" style="opacity:0.4;fill:url(#linear-gradient-18)"/><path d="M223.88,119.54l-1.18.32c-.37.1-.43,4.87-.78,5-10.39,4.69-21.79,4.25-32.47.35-.42-.15-.23-4.89-.67-5l-1-.22-1.55-16.21c7.6,3.66,33.85,2.77,39.31,0Z" style="opacity:0.2;fill:url(#linear-gradient-19)"/><path d="M185.67,75.24c15.56-3,27.51-1.54,40.55,0A117.5,117.5,0,0,1,185.67,75.24Z" style="fill:#fff;opacity:0.30000000000000004"/><path d="M229.6,75.47s-.1-.34-.11-.36c-.26-.82-1.05-1.84-7.18-2.63A134.74,134.74,0,0,0,206,71.61a137.89,137.89,0,0,0-16.41.8c-6.2.79-6.8,1.85-7.09,2.66,0,0-.29.05,0,.21l-.05.09c-.16-.18,0-.05,0-.05-.55-.17-.15.48-.16.57,0,1.06,2.08,2.3,7.49,3a130.49,130.49,0,0,0,16.35.93,130,130,0,0,0,16.1-.83C227.92,78.22,230.05,76.59,229.6,75.47ZM206,73.56c11.22,0,18.22.56,20.73,1.45-.54.1-1,.24,0,.1-1,.14-6.42,1.84-20.76,1.84-13.08,0-19.54-1.51-20.73-1.88.82.26,0,0,0,0C187.71,74.17,194.56,73.56,206,73.56Z" style="opacity:0.5;fill:url(#linear-gradient-20)"/><path d="M184.61,75v0c.89.87,8.3,2.15,21.38,2.15,14.34,0,20.43-1.44,21.14-2.14,0,0,0,0,0-.06-2.51-.89-9.93-1.83-21.16-1.83C194.58,73.15,187.07,74.12,184.61,75ZM206,76.63a114.47,114.47,0,0,1-18.68-1.21A114.47,114.47,0,0,1,206,74.21a115.21,115.21,0,0,1,18.73,1.21A115.31,115.31,0,0,1,206,76.63Z" style="fill:#4e8b9b"/><path d="M230.89,75.48c-.69-1.85-2.35-3-8.29-3.76A140.41,140.41,0,0,0,206,70.86a139.62,139.62,0,0,0-16.58.86c-4,.52-7.52,1.42-8.2,3.8-.37,1.33.19,2.37,2.27,3.2l3.41,41.33c0,.36.74.61,1.07.7l.41,4.06c.51,2.44,7.2,4.26,17.45,4.26s16.56-1.91,17.45-4.26l.5-4c.31-.1,1-.44,1.06-.85l3.8-41.17C230.53,77.93,231.35,76.76,230.89,75.48Zm-10,48.43c-2.41,2.34-8.22,3.16-13.43,3.16-4.45,0-13.33-.26-17-2.73-.56-.38-.56-2-.67-3.29a76.16,76.16,0,0,0,17.71,2,59,59,0,0,0,14-2C221.29,122.22,221.27,123.57,220.91,123.91Zm1.27-4.51c-1.45,1-6.55,2.63-16.44,2.63s-15-1.32-16.49-2.29c-1.07-.72-3-30.6-3.42-40.33,1,.22,2.09.42,3.42.6a122.31,122.31,0,0,0,16.41,1.18,148.48,148.48,0,0,0,17-.8,27.06,27.06,0,0,0,3.22-.59C225.53,91.36,223.25,118.69,222.18,119.4Zm-.07-40.84a129.86,129.86,0,0,1-16.12.85,132.44,132.44,0,0,1-16.24-.85c-5.4-.71-7.23-1.72-7.26-2.77,0-.1,0-.31.06-.37h0c.3-.81.84-1.85,7-2.64a136.48,136.48,0,0,1,16.4-.85,134.57,134.57,0,0,1,16.32.85c6.14.79,6.64,1.77,6.9,2.59a.25.25,0,0,1,0,.07C229.68,76.57,227.9,77.78,222.11,78.56Z" style="fill:#4e8b9b"/><path d="M202.18,123.33a58,58,0,0,1-8.51-1,24.89,24.89,0,0,0,.32,4.73,37.25,37.25,0,0,0,8.45,1.09C202.45,127.46,202.3,126.26,202.18,123.33Z" style="opacity:0.6000000000000001;fill:url(#linear-gradient-21)"/><path d="M200,120.15a280.75,280.75,0,0,1-.63-38.56,87.19,87.19,0,0,1-10.77-1c0,9.76,1.15,30.08,3.3,38.81a13.57,13.57,0,0,0,.78,2.31c2.9.57,6.25.93,7.45,1A25.5,25.5,0,0,0,200,120.15Z" style="opacity:0.6000000000000001;fill:url(#linear-gradient-22)"/><path d="M196.44,80c.29-1.45.3-2.1,1.39-3-3.23-.16-6.5-.46-9.47-.9-1.29,1.18-.93,1.39-1,2.77A57.51,57.51,0,0,0,196.44,80Z" style="opacity:0.6000000000000001;fill:url(#linear-gradient-23)"/><path d="M186.71,77.49a89.21,89.21,0,0,0,14.1,1.23" style="fill:none;stroke-miterlimit:10;stroke-width:1.1149077481622px;opacity:0.5;stroke:url(#linear-gradient-24)"/><path d="M221.78,74.59a2.68,2.68,0,0,1,1.2-2.35c-3.24-.39-6.18-.65-9.39-.75a2.64,2.64,0,0,0-1,2.38C214.9,74,219,74.23,221.78,74.59Z" style="opacity:0.4;fill:url(#linear-gradient-25)"/></g></svg>