<svg id="Solid_Label" data-name="Solid Label" xmlns="http://www.w3.org/2000/svg" viewBox="0 0 128 65"><title>one-view-label-solid</title><g id="Solid_Label-2" data-name="Solid Label"><g id="Label_Back" data-name="Label Back" style="opacity:0.2"><path d="M.48,18.55A115.51,115.51,0,0,1,32.07,5.18,133.24,133.24,0,0,1,64.31.9,124.92,124.92,0,0,1,96.54,4.7a95.85,95.85,0,0,1,31,13.88L106,53.21a54.68,54.68,0,0,0-18-4.6,79.56,79.56,0,0,0-20.21.82A82.1,82.1,0,0,0,48.4,55.15a59.77,59.77,0,0,0-15.58,9.71Z" style="fill:#fff"/></g><g id="Label" style="opacity:0.7000000000000001"><path d="M46.84,21.61h0a11.7,11.7,0,0,1-2,.18,5.62,5.62,0,0,1-1.58-.18,4.22,4.22,0,0,0,.07-.91,3.27,3.27,0,0,0-.56-1.94,3.08,3.08,0,0,0-1.54-1.14,4.74,4.74,0,0,0-1.54-.24,5.28,5.28,0,0,0-2.34.54,4.27,4.27,0,0,0-1.75,1.49,3.17,3.17,0,0,0-.53,2.1q.45,2.65,3.68,2.76,4,.14,6.05,1.86a5.47,5.47,0,0,1,2,4.37,9,9,0,0,1-1,4.31,6.35,6.35,0,0,1-2.61,2.67,7.47,7.47,0,0,1-3.64.9,10.8,10.8,0,0,1-3.88-.72,8,8,0,0,1-3.15-2.12,5.61,5.61,0,0,1-1.44-3.32v0a3.87,3.87,0,0,1-.1-.94V31c.51,0,.91-.07,1.19-.07l1.29,0c.26,0,.62,0,1.09,0a3.27,3.27,0,0,0,.85,2.38,5.41,5.41,0,0,0,2.72,1.44,4.32,4.32,0,0,0,1.08.14,4.07,4.07,0,0,0,2.1-.56,3.75,3.75,0,0,0,1.44-1.54,4.05,4.05,0,0,0,.38-2.17,3,3,0,0,0-.89-2,3.81,3.81,0,0,0-1.75-.87,22.35,22.35,0,0,0-2.75-.35l-1.33-.11a6,6,0,0,1-3-1.38,5.58,5.58,0,0,1-1.72-2.57,7.17,7.17,0,0,1-.31-2.07,6.79,6.79,0,0,1,.31-2.1,8,8,0,0,1,1.63-3,7.32,7.32,0,0,1,2.71-2,8.23,8.23,0,0,1,3.19-.56,11,11,0,0,1,4.58.94,5.8,5.8,0,0,1,2.33,2.08A5.88,5.88,0,0,1,47,20,9.34,9.34,0,0,1,46.84,21.61Z" style="fill:#fff"/><path d="M49.15,26.83a18,18,0,0,1,.12-2.24,11.81,11.81,0,0,1,.62-2.35,3,3,0,0,1,1.94-1.52,10.13,10.13,0,0,1,3.31-.51,5.61,5.61,0,0,0,.7,0l1.4,0a6.17,6.17,0,0,1,4.51,1.54,2.72,2.72,0,0,1,1,1.58,13.52,13.52,0,0,1,.41,3.09c0,1.3.07,2,.07,2.26-.1,2.33-.21,4.19-.34,5.57a4.67,4.67,0,0,1-.78,2.66,3.35,3.35,0,0,1-1.84,1.29,9.9,9.9,0,0,1-2.78.35c-.42,0-1.05,0-1.89-.07l-1.61,0a5.2,5.2,0,0,1-3.1-1.51,5.56,5.56,0,0,1-1.33-2.69,19.79,19.79,0,0,1-.3-3.71V28.72A17,17,0,0,0,49.15,26.83Zm7.14-3.33a4.28,4.28,0,0,0-3.43,1.23,2.91,2.91,0,0,0-.58,1.41,13.49,13.49,0,0,0-.08,2.23,11,11,0,0,0,0,1.4c0,.58.06,1,.06,1.36l.07,1.47a2.8,2.8,0,0,0,.78,2,3.88,3.88,0,0,0,1.74.79,9.54,9.54,0,0,0,1.43.1A5.38,5.38,0,0,0,58.67,35,2.33,2.33,0,0,0,60,33.37a10.52,10.52,0,0,0,.14-1.43c.11-1.64.17-2.75.17-3.33a7.15,7.15,0,0,0-.84-3.71A3.37,3.37,0,0,0,56.29,23.5Z" style="fill:#fff"/><path d="M66.83,12.76l3.18.1q0,1.44-.07,7.11c0,4.66-.07,8.33-.07,11q0,4.41.11,7c-.14.16-.53.25-1.16.25l-1.08,0c-.21,0-.47,0-.77,0a1.14,1.14,0,0,0-.35,0q.21-2.84.21-5.7,0-2.17-.14-6.51c-.1-2.9-.14-5.08-.14-6.55Q66.55,15.73,66.83,12.76Z" style="fill:#fff"/><path d="M74.81,20.53a5,5,0,0,1,1,0c.7,0,1.47.07,2.31.07v.1c0,1.05,0,2.67-.07,4.87s-.11,4.5-.11,6.79,0,4.06.14,5.74a7.72,7.72,0,0,1-1.47.1H75.4a3.79,3.79,0,0,0-.77,0c0-.68,0-1.71,0-3.08V29.07c0-1.64-.07-2.9-.07-3.78,0-1.61.07-3.19.21-4.73ZM74.67,13c1.44.05,2.54.07,3.29.07l.1,4.62a3,3,0,0,1-1.26.18,8.06,8.06,0,0,1-.84,0,4.44,4.44,0,0,1-.49,0,5.14,5.14,0,0,0-.66,0c0-.35,0-.92-.07-1.71C74.67,14.58,74.64,13.54,74.67,13Z" style="fill:#fff"/><path d="M92.3,14.05v-.38q.08-.18,1.68-.18a9.28,9.28,0,0,1,1.37.07v2.31q0,3.33.14,9.7c0,1.05.05,2.3.07,3.76s0,3.12,0,5,0,3,0,3.85c-.75,0-1.37.07-1.85.07a11.45,11.45,0,0,1-1.41-.07,4.33,4.33,0,0,1,0-.74,4.24,4.24,0,0,0-.18-1.4,3.48,3.48,0,0,1-.82,1.12,2.28,2.28,0,0,1-1.17.67,6.62,6.62,0,0,1-2.1.31q-.56,0-.84,0a5.38,5.38,0,0,1-3.75-1.56,6.94,6.94,0,0,1-1.66-3.4,29.3,29.3,0,0,1-.47-4.91,12.71,12.71,0,0,1,.79-4.85A3.93,3.93,0,0,1,84.81,21a11.08,11.08,0,0,1,2.94-.35,9.28,9.28,0,0,1,2.07.17,3.14,3.14,0,0,1,1.26.47A3.79,3.79,0,0,1,92,22a1.8,1.8,0,0,1,.34.58l0-3c0-.61,0-1.15,0-1.63s0-.86,0-1.14a2,2,0,0,0,0-.44c0-.17,0-.33,0-.47v-.73C92.27,14.67,92.28,14.28,92.3,14.05Zm-3.39,9.17-.66,0a4.15,4.15,0,0,0-2.91.92A4.17,4.17,0,0,0,84.18,27a18.76,18.76,0,0,0-.1,2.31,11,11,0,0,0,.58,3.59,3.33,3.33,0,0,0,1.4,1.78,4.72,4.72,0,0,0,2.36.51,3.54,3.54,0,0,0,2.52-.79A3.67,3.67,0,0,0,92,32.32a18.2,18.2,0,0,0,.25-3.39A21,21,0,0,0,92,25.81,3.23,3.23,0,0,0,91.13,24,3.31,3.31,0,0,0,88.91,23.22Z" style="fill:#fff"/></g></g></svg>