<svg id="Label_Water_B" data-name="Label Water B" xmlns="http://www.w3.org/2000/svg" xmlns:xlink="http://www.w3.org/1999/xlink" viewBox="0 0 285 141"><defs><radialGradient id="radial-gradient" cx="279.85" cy="69.9" r="12.45" gradientTransform="translate(-26.09 38.86) scale(0.95 1.11)" gradientUnits="userSpaceOnUse"><stop offset="0" stop-color="#fff" stop-opacity="0"/><stop offset="1" stop-color="#136999"/></radialGradient><linearGradient id="linear-gradient" x1="238.56" y1="119.36" x2="238.56" y2="18.74" gradientUnits="userSpaceOnUse"><stop offset="0" stop-color="#61e9ff"/><stop offset="1" stop-color="#61e9ff" stop-opacity="0"/></linearGradient><linearGradient id="linear-gradient-2" x1="238.56" y1="119.36" x2="238.56" y2="17.43" gradientUnits="userSpaceOnUse"><stop offset="0" stop-color="#136999"/><stop offset="0.05" stop-color="#1f719e" stop-opacity="0.95"/><stop offset="0.13" stop-color="#4085ac" stop-opacity="0.81"/><stop offset="0.23" stop-color="#75a7c3" stop-opacity="0.58"/><stop offset="0.34" stop-color="#bed6e3" stop-opacity="0.27"/><stop offset="0.42" stop-color="#fff" stop-opacity="0"/><stop offset="1" stop-color="#136999" stop-opacity="0.9"/></linearGradient><linearGradient id="linear-gradient-3" x1="217.13" y1="68.4" x2="260" y2="68.4" gradientUnits="userSpaceOnUse"><stop offset="0.42" stop-color="#fff" stop-opacity="0"/><stop offset="1" stop-color="#136999" stop-opacity="0.7"/></linearGradient><linearGradient id="linear-gradient-4" x1="240.33" y1="13.38" x2="243.02" y2="13.38" gradientUnits="userSpaceOnUse"><stop offset="0" stop-color="#fff" stop-opacity="0"/><stop offset="0.77" stop-color="#fff"/></linearGradient><linearGradient id="linear-gradient-5" x1="239.72" y1="105.07" x2="257.23" y2="105.07" xlink:href="#linear-gradient-4"/><linearGradient id="linear-gradient-6" x1="241.06" y1="25.18" x2="256.24" y2="25.18" xlink:href="#linear-gradient-4"/><linearGradient id="linear-gradient-7" x1="239.66" y1="62.55" x2="255.79" y2="62.55" xlink:href="#linear-gradient-4"/><linearGradient id="linear-gradient-8" x1="242.09" y1="79.18" x2="255.02" y2="79.18" xlink:href="#linear-gradient-4"/><linearGradient id="linear-gradient-9" x1="216.51" y1="47.13" x2="261.26" y2="47.13" gradientUnits="userSpaceOnUse"><stop offset="0" stop-opacity="0"/><stop offset="0.02" stop-color="#2f2f2f" stop-opacity="0.19"/><stop offset="0.05" stop-color="#666" stop-opacity="0.4"/><stop offset="0.08" stop-color="#959595" stop-opacity="0.58"/><stop offset="0.11" stop-color="#bbb" stop-opacity="0.73"/><stop offset="0.13" stop-color="#d9d9d9" stop-opacity="0.85"/><stop offset="0.16" stop-color="#eee" stop-opacity="0.93"/><stop offset="0.19" stop-color="#fbfbfb" stop-opacity="0.98"/><stop offset="0.21" stop-color="#fff"/><stop offset="0.22" stop-color="#fff" stop-opacity="0.95"/><stop offset="0.34" stop-color="#fff" stop-opacity="0.55"/><stop offset="0.42" stop-color="#fff" stop-opacity="0.25"/><stop offset="0.49" stop-color="#fff" stop-opacity="0.07"/><stop offset="0.52" stop-color="#fff" stop-opacity="0"/><stop offset="0.68" stop-color="#fff" stop-opacity="0.34"/><stop offset="0.83" stop-color="#fff" stop-opacity="0.7"/><stop offset="0.85" stop-color="#f8f8f8" stop-opacity="0.68"/><stop offset="0.88" stop-color="#e2e2e2" stop-opacity="0.62"/><stop offset="0.91" stop-color="#bfbfbf" stop-opacity="0.52"/><stop offset="0.94" stop-color="#8d8d8d" stop-opacity="0.39"/><stop offset="0.97" stop-color="#4d4d4d" stop-opacity="0.21"/><stop offset="1" stop-color="#010101" stop-opacity="0"/><stop offset="1" stop-opacity="0"/></linearGradient><linearGradient id="linear-gradient-10" x1="-815.7" y1="99.97" x2="-765.79" y2="99.97" gradientTransform="translate(996.81)" gradientUnits="userSpaceOnUse"><stop offset="0" stop-color="#f9bb96"/><stop offset="0.5" stop-color="#f9bb96" stop-opacity="0"/><stop offset="1" stop-color="#f9bb96"/></linearGradient><radialGradient id="radial-gradient-2" cx="-882.41" cy="1027.76" r="21.45" gradientTransform="translate(883.96 31.6) scale(0.77 0.09)" gradientUnits="userSpaceOnUse"><stop offset="0" stop-color="#fff" stop-opacity="0.4"/><stop offset="1"/></radialGradient><linearGradient id="linear-gradient-11" x1="-782.67" y1="75.56" x2="-776.21" y2="75.22" gradientTransform="translate(996.81)" gradientUnits="userSpaceOnUse"><stop offset="0" stop-color="#fff" stop-opacity="0"/><stop offset="0.14" stop-color="#fff" stop-opacity="0.15"/><stop offset="0.38" stop-color="#fff" stop-opacity="0.39"/><stop offset="0.56" stop-color="#fff" stop-opacity="0.54"/><stop offset="0.66" stop-color="#fff" stop-opacity="0.6"/><stop offset="0.71" stop-color="#fff" stop-opacity="0.54"/><stop offset="0.8" stop-color="#fff" stop-opacity="0.39"/><stop offset="0.93" stop-color="#fff" stop-opacity="0.15"/><stop offset="1" stop-color="#fff" stop-opacity="0"/></linearGradient><linearGradient id="linear-gradient-12" x1="-784.43" y1="101.14" x2="-775.08" y2="100.65" xlink:href="#linear-gradient-11"/><radialGradient id="radial-gradient-3" cx="-791.03" cy="118" r="13.11" gradientTransform="translate(996.81 104.07) scale(1 0.12)" gradientUnits="userSpaceOnUse"><stop offset="0" stop-opacity="0.4"/><stop offset="1" stop-color="#136999"/></radialGradient><linearGradient id="linear-gradient-13" x1="-791.23" y1="128.29" x2="-791.23" y2="92.13" gradientTransform="translate(996.81)" gradientUnits="userSpaceOnUse"><stop offset="0.28" stop-color="#136999"/><stop offset="1" stop-color="#fff" stop-opacity="0"/></linearGradient><linearGradient id="linear-gradient-14" x1="205.84" y1="91.9" x2="205.84" y2="97.8" gradientUnits="userSpaceOnUse"><stop offset="0" stop-color="#136999" stop-opacity="0"/><stop offset="0.08" stop-color="#136999" stop-opacity="0.17"/><stop offset="0.21" stop-color="#136999" stop-opacity="0.42"/><stop offset="0.35" stop-color="#136999" stop-opacity="0.63"/><stop offset="0.5" stop-color="#136999" stop-opacity="0.79"/><stop offset="0.65" stop-color="#136999" stop-opacity="0.91"/><stop offset="0.81" stop-color="#136999" stop-opacity="0.98"/><stop offset="1" stop-color="#136999"/></linearGradient><linearGradient id="linear-gradient-15" x1="-118.55" y1="103.05" x2="-130.93" y2="103.05" gradientTransform="matrix(-1, 0, 0, 1, 96.81, 0)" gradientUnits="userSpaceOnUse"><stop offset="0" stop-color="#fff" stop-opacity="0"/><stop offset="1" stop-color="#fff"/></linearGradient><linearGradient id="linear-gradient-16" x1="-800.01" y1="102.97" x2="-811.96" y2="102.97" gradientTransform="translate(996.81)" xlink:href="#linear-gradient-15"/><linearGradient id="linear-gradient-17" x1="-814.75" y1="75.72" x2="-767.15" y2="75.72" gradientTransform="translate(996.81)" gradientUnits="userSpaceOnUse"><stop offset="0" stop-color="#fff" stop-opacity="0.8"/><stop offset="0.4" stop-color="#fff" stop-opacity="0.35"/><stop offset="1" stop-color="#fff"/></linearGradient><linearGradient id="linear-gradient-18" x1="-803.09" y1="125.37" x2="-794.42" y2="125.22" gradientTransform="translate(996.81)" gradientUnits="userSpaceOnUse"><stop offset="0.08" stop-color="#fff" stop-opacity="0"/><stop offset="0.15" stop-color="#fff" stop-opacity="0.21"/><stop offset="0.27" stop-color="#fff" stop-opacity="0.54"/><stop offset="0.37" stop-color="#fff" stop-opacity="0.79"/><stop offset="0.45" stop-color="#fff" stop-opacity="0.94"/><stop offset="0.48" stop-color="#fff"/><stop offset="0.52" stop-color="#fff" stop-opacity="0.94"/><stop offset="0.6" stop-color="#fff" stop-opacity="0.79"/><stop offset="0.7" stop-color="#fff" stop-opacity="0.54"/><stop offset="0.82" stop-color="#fff" stop-opacity="0.21"/><stop offset="0.89" stop-color="#fff" stop-opacity="0"/></linearGradient><linearGradient id="linear-gradient-19" x1="-807.23" y1="101.99" x2="-796.03" y2="101.2" xlink:href="#linear-gradient-18"/><linearGradient id="linear-gradient-20" x1="-809.08" y1="76.36" x2="-799.75" y2="79.39" xlink:href="#linear-gradient-18"/><linearGradient id="linear-gradient-21" x1="-810.21" y1="78.11" x2="-795.98" y2="78.11" gradientTransform="translate(996.81)" gradientUnits="userSpaceOnUse"><stop offset="0" stop-color="#fff" stop-opacity="0"/><stop offset="0.09" stop-color="#fff" stop-opacity="0.21"/><stop offset="0.23" stop-color="#fff" stop-opacity="0.54"/><stop offset="0.35" stop-color="#fff" stop-opacity="0.79"/><stop offset="0.44" stop-color="#fff" stop-opacity="0.94"/><stop offset="0.48" stop-color="#fff"/><stop offset="0.53" stop-color="#fff" stop-opacity="0.94"/><stop offset="0.62" stop-color="#fff" stop-opacity="0.79"/><stop offset="0.75" stop-color="#fff" stop-opacity="0.54"/><stop offset="0.91" stop-color="#fff" stop-opacity="0.21"/><stop offset="1" stop-color="#fff" stop-opacity="0"/></linearGradient><linearGradient id="linear-gradient-22" x1="-783.67" y1="71.54" x2="-774.56" y2="74.5" xlink:href="#linear-gradient-18"/></defs><title>label-b-water</title><circle id="Backdrop_B" data-name="Backdrop B" cx="222.57" cy="78.52" r="62.18" style="fill:#f9bb96"/><path id="Label_B_Back" data-name="Label B Back" d="M183.54,97.46a371.36,371.36,0,0,0-64.75.11A408.56,408.56,0,0,0,55.4,108.36L44.64,41.8a470.07,470.07,0,0,1,74-.66A423,423,0,0,1,191.26,52.7Z" style="fill:#00bdff"/><g id="Label_B" data-name="Label B"><path d="M77.42,70.23a.58.58,0,0,0-.07.28.67.67,0,0,0,.25.46,20.28,20.28,0,0,1,1.89,2.69,5.41,5.41,0,0,1,.59,2.59,7.46,7.46,0,0,1-.1,1.23,5.22,5.22,0,0,1-2.73,4.13,12.91,12.91,0,0,1-5.67,1.08l-1.68,0c-.66,0-1.15,0-1.47-.07-.94-.07-1.82-.11-2.66-.11a1.08,1.08,0,0,1-.46-.07q-.11-2.76-.1-8.26l0-11q0-3.21,0-4.83l0,0a20.5,20.5,0,0,1,5.39-.77,10.33,10.33,0,0,1,6.13,1.7c1.58,1.13,2.38,3,2.38,5.54A10.62,10.62,0,0,1,77.42,70.23Zm-7.17,9.28c.88,0,1.49.07,1.82.07a5.61,5.61,0,0,0,2.39-.44,3.78,3.78,0,0,0,1.63-1.66,2.72,2.72,0,0,0,.28-1.26A5.71,5.71,0,0,0,76,74.33a2.36,2.36,0,0,0-1.19-1.4,4.26,4.26,0,0,0-1.8-.49l-1.11,0a8.3,8.3,0,0,0-.91,0c-.25,0-1.08,0-2.48.07a3.92,3.92,0,0,0-.32,2,36.52,36.52,0,0,0,.46,5C69.2,79.44,69.73,79.49,70.25,79.51Zm0-10.29c.88,0,1.46.07,1.71.07a5.4,5.4,0,0,0,2.35-.4,2.84,2.84,0,0,0,1.26-1.46,4.77,4.77,0,0,0,.56-2.27,5.35,5.35,0,0,0-.11-1,3.13,3.13,0,0,0-1.33-2.22,5.46,5.46,0,0,0-2.8-.76q-.35,0-1.08,0a5.83,5.83,0,0,0-2.45.31l0,1-.07,2.45v1.43a12.64,12.64,0,0,0,.21,2.8Z" style="fill:#fff"/><path d="M86.1,70.79l-2.69,0H83.3a10.21,10.21,0,0,1-.1-1.61l0-1.72c0-.21,0-.45,0-.73A4.8,4.8,0,0,1,85,66.45a4.16,4.16,0,0,1,1.43.18c0,.12,0,.75-.1,1.89s-.11,1.88-.11,2.2v.07Zm0,11.76-2.66,0H83.3a10.21,10.21,0,0,1-.1-1.61l0-1.72c0-.21,0-.45,0-.73A4.8,4.8,0,0,1,85,78.21a3.89,3.89,0,0,1,1.4.18c0,.12,0,.75-.11,1.89s-.1,1.88-.1,2.2v.07Z" style="fill:#fff"/><path d="M112.32,58.16l0,0q-.31,3.75-1.08,11.24-.15,1.57-.55,5.62c-.26,2.69-.49,5.14-.68,7.33a2,2,0,0,1-.66.07h-2.21a9.93,9.93,0,0,1-.75-2c-.2-.74-.43-1.7-.68-2.87q-.1-.48-.27-1.17c-.1-.45-.22-1-.36-1.52h0l-.87,3.67c-.19.84-.37,1.62-.55,2.33a5.79,5.79,0,0,1-.47,1.42,9.47,9.47,0,0,1-1.71.17,10.43,10.43,0,0,1-1.33-.1h0l-.42-2.91q-1-6.72-1.5-11.6c-.35-3.25-.56-6.47-.63-9.64v0c.37,0,.93-.09,1.68-.14.49,0,1.08,0,1.78.07.07.68.14,2.1.21,4.27.16,3.57.33,6.53.51,8.86a30.8,30.8,0,0,0,.79,5.46c.35-1.24.66-2.46.94-3.66s.7-3.11,1.26-5.72l0-.14a50.19,50.19,0,0,1,1.54,5.18q.8,3,.87,3.18c0,.24.19.69.42,1.37q.5-5.36.75-9.8c.18-3,.28-4.67.3-5.11q.1-2.65.21-3.75v0a6.78,6.78,0,0,1,1.61-.18C110.93,58.05,111.55,58.09,112.32,58.16Z" style="fill:#fff"/><path d="M125.65,65a17.72,17.72,0,0,1,2.07.07l.91.07c0,.38.07.66.07.84v.35c0,.54,0,1.35,0,2.42,0,.89,0,2.19.07,3.92l0,3.92c0,1.68-.05,3.21-.14,4.58v.46a3,3,0,0,1-.07.63.47.47,0,0,1-.39.35h-.59l-1.12,0a3.34,3.34,0,0,0-.49,0l-.39,0c-.23-.07-.35-.32-.35-.77a2.28,2.28,0,0,1,0-.63,4.84,4.84,0,0,0,0-.59,4.35,4.35,0,0,1-2.66,1.57,15.8,15.8,0,0,1-3.57.42,3.51,3.51,0,0,1-2.85-1.48,9.72,9.72,0,0,1-1.73-3.66,16.65,16.65,0,0,1-.56-4.24,10.28,10.28,0,0,1,.77-4.09,7.2,7.2,0,0,1,2.11-2.89,4.88,4.88,0,0,1,3-1.1l1.12,0a7.92,7.92,0,0,1,2.6.37,2.68,2.68,0,0,1,1.53,1.35,5.52,5.52,0,0,1,.07-.81c0-.46.07-.79.07-1C125.2,65,125.35,65,125.65,65Zm-3.92,3.15a4.73,4.73,0,0,0-3.06.93,3.85,3.85,0,0,0-1.52,2.29,10.53,10.53,0,0,0-.28,2.73q.16,5.64,4.55,5.39a4.23,4.23,0,0,0,2.59-.63,2.71,2.71,0,0,0,1-1.78,22.54,22.54,0,0,0,.2-3.47A20.4,20.4,0,0,0,125,70a2,2,0,0,0-.9-1.42A6,6,0,0,0,121.73,68.13Z" style="fill:#fff"/><path d="M137.87,58.58v5.35l0,2q2.28-.06,5.64-.24a1.87,1.87,0,0,1,.21,1l0,.8a5.59,5.59,0,0,0,0,1.12c-2.55,0-4.45,0-5.71,0v6.54c0,1.05,0,1.8.07,2.24a4.11,4.11,0,0,0,.28,1.16,3.23,3.23,0,0,0,2.26.87,19.64,19.64,0,0,0,3.1.11c.11.93.17,1.53.17,1.78a5,5,0,0,1-.17,1.26c-.49,0-1.26,0-2.31,0a10.89,10.89,0,0,1-4.27-.67,3.42,3.42,0,0,1-2-2.66,80.58,80.58,0,0,1-.39-8.85V68.73a10.48,10.48,0,0,1-1.05,0l-2.66,0,.11-2.87c.51,0,1.74.07,3.67.07l0-3.68V60.61a19.67,19.67,0,0,1,.07-2.07,12,12,0,0,1,1.5,0l.95,0A3.78,3.78,0,0,0,137.87,58.58Z" style="fill:#fff"/><path d="M148.72,73.7v.63l0,1c0,2.9,1.42,4.34,4.27,4.34a3.59,3.59,0,0,0,2.54-.78,2.86,2.86,0,0,0,.82-2.16,6.71,6.71,0,0,0-.07-.77,9.71,9.71,0,0,1,1.37-.1q.55,0,.84,0l.5,0a4.14,4.14,0,0,0,.69,0,21.81,21.81,0,0,1-.14,3.19,6.08,6.08,0,0,1-.84,2.27,3.58,3.58,0,0,1-2.19,1.35,13.57,13.57,0,0,1-3.41.4A15.17,15.17,0,0,1,151.5,83a3.66,3.66,0,0,1-.89-.14,5.1,5.1,0,0,1-4-3.44,15.92,15.92,0,0,1-1.05-6.85c0-.18.06-.57.11-1.17s.11-1.21.19-1.84a8.11,8.11,0,0,1,.47-1.85,4.69,4.69,0,0,1,2.42-2.38,8.83,8.83,0,0,1,3.88-.84,10.38,10.38,0,0,1,2.35.28q4.75.81,4.76,7.17c0,.35,0,.86-.07,1.51a22.81,22.81,0,0,1-3.92.35q-.39,0-1.68,0c-1.85,0-3.21,0-4.1-.07A5.85,5.85,0,0,1,148.72,73.7Zm8.5-2.63a5.16,5.16,0,0,0-.54-2.13,3.94,3.94,0,0,0-1.45-1.65,4.26,4.26,0,0,0-.91-.31,5.4,5.4,0,0,0-1-.07,3.77,3.77,0,0,0-4.45,3.64,3.81,3.81,0,0,0-.07.56.55.55,0,0,0,.4.56,6.81,6.81,0,0,0,1.74.14c.86,0,1.59,0,2.2,0q3.36,0,3.78,0a.42.42,0,0,0,.23-.09.29.29,0,0,0,.05-.19Z" style="fill:#fff"/><path d="M165.55,65.16c0,.28,0,.5,0,.65s0,.33,0,.54a6.57,6.57,0,0,1,.68-.32l1-.35a9.16,9.16,0,0,1,1.94-.4,19.72,19.72,0,0,1,2.05-.12c.56,0,.84,0,.84.07l0,2.9q0,.7,0,1.05a11.19,11.19,0,0,0-1.19-.38,7.34,7.34,0,0,0-1.68-.18,9.75,9.75,0,0,0-2.13.28,2.23,2.23,0,0,0-1.33.74,3.24,3.24,0,0,0-.32,1.85q.14,4.8.14,10.89v.14a5.5,5.5,0,0,1-1.22.14l-.79,0c-.36,0-.73,0-1.1,0l0-6q-.08-4.12-.07-6.2c0-1.12,0-2.89.07-5.32a4.57,4.57,0,0,0,.75,0l.72,0c.28,0,.65,0,1.12,0S165.55,65.11,165.55,65.16Z" style="fill:#fff"/></g><g id="Water_Bottle_B" data-name="Water Bottle B"><path d="M257.15,114.43c-3.39,4.06-9.06,4.93-18.54,4.93-8.64,0-16.76-1.85-19.2-5.7S217,99.49,217.22,97s2.36-11.76,2.8-16.2,1.36-14.55-.49-16.56-1.62-20.37-1.62-28.95c0-11.91,15.32-20.19,15.32-21.11,0-.65.11-3.06.11-4l11-.36v4.29c0,.93,14.82,8.88,14.82,21.18,0,9,.5,25.81-1.62,28.1s-1.12,12.48-.73,16.48,2.79,14.12,3,16.93C260.05,99.26,260.53,110.37,257.15,114.43Z" style="fill:#fff;opacity:0.2"/><path d="M254.84,116.19c0,1.82-5.43,3.3-16.09,3.3S222,118,222,116.19s6.07-3.31,16.73-3.31S254.84,114.36,254.84,116.19Z" style="stroke:#136999;stroke-miterlimit:10;stroke-width:1.21178645321594px;fill:url(#radial-gradient)"/><path d="M257.15,114.43c-3.39,4.06-9.06,4.93-18.54,4.93-8.64,0-16.76-1.85-19.2-5.7S217,99.49,217.22,97s2.36-11.76,2.8-16.2,1.36-14.55-.49-16.56-1.62-20.37-1.62-28.95c0-11.91,8.84-14.67,8.84-15.59,0-.65,7.65.84,7.65-.11l5.9-.87c0,.67,10.38.66,10.38,1.2,0,.93,8.53,3.07,8.53,15.37,0,9,.5,25.81-1.62,28.1s-1.12,12.48-.73,16.48,2.79,14.12,3,16.93C260.05,99.26,260.53,110.37,257.15,114.43Z" style="opacity:0.5;fill:url(#linear-gradient)"/><path d="M229.78,17.55c3.95,2,13.33,2,18,.09" style="fill:none;stroke:#545454;stroke-miterlimit:10;stroke-width:0.648002099099335px;opacity:0.7000000000000001"/><path d="M232.06,16.46l1.1-1.87a81.66,81.66,0,0,0,11.6.09l.41,1.53C243.79,14.87,234.29,14.85,232.06,16.46Z" style="fill:#136999"/><path d="M257.15,114.43c-3.39,4.06-9.06,4.93-18.54,4.93-8.64,0-16.76-1.85-19.2-5.7S217,99.49,217.22,97s2.36-11.76,2.8-16.2,1.36-14.55-.49-16.56-1.62-20.37-1.62-28.95c0-9.61,10.59-17,11.5-17.88,5.19,2.4,14.46,2,18.59.06.91.87,11.21,6.56,11.21,17.82,0,9,.5,25.81-1.62,28.1s-1.12,12.48-.73,16.48,2.79,14.12,3,16.93C260.05,99.26,260.53,110.37,257.15,114.43Z" style="opacity:0.5;fill:url(#linear-gradient-2)"/><path d="M257.15,114.43c-3.39,4.06-9.06,4.93-18.54,4.93-8.64,0-16.76-1.85-19.2-5.7S217,99.49,217.22,97s2.36-11.76,2.8-16.2,1.36-14.55-.49-16.56-1.62-20.37-1.62-28.95c0-9.61,10.59-17,11.5-17.88,5.19,2.4,14.46,2,18.59.06.91.87,11.21,6.56,11.21,17.82,0,9,.5,25.81-1.62,28.1s-1.12,12.48-.73,16.48,2.79,14.12,3,16.93C260.05,99.26,260.53,110.37,257.15,114.43Z" style="opacity:0.5;fill:url(#linear-gradient-3)"/><path d="M261.79,98c-.25-2.9-2.61-13.2-3.05-17.34s-1.78-15.09.58-17.45,1.9-18,1.9-27.28c0-12.71-15.77-20.86-15.77-21.82V10.72l-13.12-.16v3.51c0,.95-15.68,9.11-15.68,21.43,0,8.87-.78,26.78,1.3,28.86s1.14,12.41.66,17S216,95.46,215.78,98s0,13.63,2.78,17.61,10.55,6,20.23,6c10.61,0,16.42-1.76,20.22-6S262,100.49,261.79,98Zm-5.38,15.13c-3.32,4-8.49,5.3-17.8,5.3-8.49,0-15.91-1.94-18.31-5.72s-2.19-13.7-2-16.13,2.22-11.58,2.65-16,1.46-14.4-.36-16.37-1.71-20.1-1.71-28.53c0-11.7,14.79-19.75,14.79-20.65,0-.64.11-3,.11-3.93l10-.32V15c0,.91,14.37,8.6,14.37,20.68,0,8.83.41,25.13-1.67,27.38s-1,12.82-.6,16.75,2.31,13.67,2.53,16.43C258.63,98.65,259.74,109.11,256.41,113.09Z" style="fill:#136999"/><path d="M233.28,16.39a42.94,42.94,0,0,0-9.09,9.19c-2.89,4-3.52,8-3.17,8.14a29.46,29.46,0,0,0,6.89.63c1.15,0-.32-2.72,1.67-8.74a28.87,28.87,0,0,1,6.53-9.76C236.32,15.63,233.75,16.07,233.28,16.39Z" style="fill:#fff;opacity:0.5"/><path d="M253.36,67.07c-5.4,2.23-25.28,2.5-30.06,0-.76-.39-1.42-2.74,0-2.24,6.39,2.23,23.14,2,30.06,0C255.05,64.35,254.88,66.45,253.36,67.07Z" style="fill:#136999;opacity:0.30000000000000004"/><path d="M221.85,59.68c-.27-.09.19,3.16.51,3.62s5,1.41,6.29,1.41c.47,0,.92-4.3.42-4.3A53.35,53.35,0,0,1,221.85,59.68Z" style="fill:#fff;opacity:0.5"/><path d="M234.84,12.08c-.26-.1-.28,2.29-.06,2.34a7.32,7.32,0,0,0,1.89.1c.21,0,.39-2.3.08-2.3A7.87,7.87,0,0,1,234.84,12.08Z" style="fill:#fff;opacity:0.5"/><path d="M240.41,12.25c-.28,0,.21,2.18.42,2.23a4.74,4.74,0,0,0,2.11-.09,10,10,0,0,0,.06-2.17C243,12.13,241.43,12.29,240.41,12.25Z" style="opacity:0.6000000000000001;fill:url(#linear-gradient-4)"/><path d="M223.39,69.26c.33,4-1.07,14.88-1.5,17.18-.1.59,3.58,1.83,4.88,1.83.47,0,2.26-18.47,1.76-18.47C226.13,69.8,223.37,69,223.39,69.26Z" style="fill:#fff;opacity:0.5"/><path d="M220.94,92a22.93,22.93,0,0,0-1.08,6.26A43.64,43.64,0,0,0,221,109.36c.74,3.48,7.05,7.15,6.46,5a47.12,47.12,0,0,1-1.53-13.61c0-2,.83-6.57.12-6.74C222.31,93.05,221.24,91.31,220.94,92Z" style="fill:#fff;opacity:0.5"/><path d="M253.76,88.94a54,54,0,0,1-30.21-.19c-1.28-.38-2.86,1.38-1.55,2.13,7.13,4.09,25.09,3.9,33.51.25C257.11,90.43,256,88.29,253.76,88.94Z" style="fill:#136999;opacity:0.2"/><path d="M255.69,93.16c2-.57,2,13.71.28,17.52-2.05,4.62-8.28,5.92-15,6.33-2.27.13-1.18-21.71,1.4-21.82A72.43,72.43,0,0,0,255.69,93.16Z" style="opacity:0.6000000000000001;fill:url(#linear-gradient-5)"/><path d="M244.18,16.4c2.69,2.12,8.07,5.91,10.5,11.55.82,1.92,2.14,5.6,1.28,5.75a64.23,64.23,0,0,1-13.63.58c-.89-.13.32-4.67,0-8-.23-2.48-.77-8-1.27-10C241,15.82,243.34,15.74,244.18,16.4Z" style="opacity:0.6000000000000001;fill:url(#linear-gradient-6)"/><path d="M255.53,59.89c.71-.09-.17,2.56-.69,3.33-.32.49-3.75,1.11-6.4,1.45a47.71,47.71,0,0,1-7.92.51c-1.05-.07-1.05-4-.48-3.94C246,61.58,254.75,60,255.53,59.89Z" style="opacity:0.6000000000000001;fill:url(#linear-gradient-7)"/><path d="M253.67,69.15c-.4,5.39,1.15,17.18,1.35,18s-7.67,2.75-10.27,2.19c-2.22-.48-3.78-19.69-1.63-19.42C248,70.52,253.73,68.27,253.67,69.15Z" style="opacity:0.6000000000000001;fill:url(#linear-gradient-8)"/><path d="M246.5,11.47a75.49,75.49,0,0,1-15.4,0,.71.71,0,0,1-.63-.72,32,32,0,0,1,.12-3.54c.14-.62.58-3.57.58-3.57a1.39,1.39,0,0,1,1.3-1.34,103,103,0,0,1,12.79,0,1.39,1.39,0,0,1,1.31,1.35s.34,2.82.48,3.26a34.51,34.51,0,0,1,.08,3.83A.69.69,0,0,1,246.5,11.47Z" style="fill:#1a64ad"/><path d="M245.17,9.61a73.29,73.29,0,0,1-13.13.2V7.3l.4-3.7a90.94,90.94,0,0,1,12.22.07l.46,3.59Z" style="fill:#347bb7"/><path d="M239.4,3.45c-2.05-.05-4,0-6.25.11v5.5a57,57,0,0,0,6.25.08Z" style="fill:#4d99ce"/><path d="M237.07,3.43c-.74,0-1.49,0-2.27,0V9.15c.77,0,1.52,0,2.27,0Z" style="fill:#6ab3db"/><path d="M245.13,7.26l-.46-3.59-1,0V8.89l1.47-.12Z" style="fill:#4d99ce"/><path d="M232,9.81a73.29,73.29,0,0,0,13.13-.2l0-2.28H232.05Z" style="fill:#347bb7"/><path d="M243.72,8.61l0,1v.16l1.48-.11,0-1.94h-.47C243.77,7.67,243.72,7.51,243.72,8.61Z" style="fill:#4d99ce"/><path d="M238,10s0-.07,0-.11l-.09-1.21c0-.52-.33-.9-1.3-.9h-1.34a.94.94,0,0,0-.94.94l0,.95c0,.11,0,.19,0,.28C235.58,10,236.8,10,238,10Z" style="fill:#80c6e5"/><path d="M238.18,58.92c-9.5,0-17.47-.91-20.66-2.34l0-20.95c4,.81,13.37,1.18,21.53,1.18,7.67,0,16.88-.33,21.18-1.22l-.27,21C256,58,247.56,58.92,238.18,58.92Z" style="fill:#b6f8ff"/><path d="M239.57,53.78c6.28,2.16,13.76.44,20.59-3L260,56.74c-4.79,1.35-13.21,2.17-20.88,2.17-8.16,0-17.21-.53-21.22-2.12l-.33-10.34C225.38,43.65,231.5,51,239.57,53.78Z" style="fill:#79d8e2"/><path d="M234.7,48.92c-5.55-2.29-10.2-8.1-17.17-7.05l.09-6c3.44.29,10.95.78,20.45.78a190.18,190.18,0,0,0,21.9-1l.1,8.31C252.23,50.62,242.17,52,234.7,48.92Z" style="fill:#1ab1c1"/><path d="M261.22,35.89c0-.47,0-.94-.07-1.4h0l-.64.17-.23.05-.58.12-.11,0c-4.11.75-12.31,1.1-20.5,1.1a164.8,164.8,0,0,1-20.17-1h0a15.63,15.63,0,0,1-2.19-.46h-.05c0,.33,0,.66,0,1,0,5.68-.32,15,0,21.62h0c3.24,1.78,12.27,2.67,21.53,2.67,8.84,0,17.88-.82,22.27-2.45l.41-.15C261.43,51.18,261.22,42.12,261.22,35.89Zm-42,20.39c-.37-6.1-.36-14.27-.35-19.55a172.75,172.75,0,0,0,20.19,1,178.09,178.09,0,0,0,19.11-.87c0,5.68.13,13.74-.28,19.49-4.34,1.08-11.66,1.75-19.74,1.75S222.94,57.36,219.25,56.28Z" style="fill:#0092aa"/><g style="opacity:0.45"><path d="M261.22,35.89c0-.47,0-.94-.07-1.4h0c-.19.06-.41.11-.65.17l-.23.05-.6.13-.11,0c-8.16,1.47-32.15,1.4-40.64.13h0a17.68,17.68,0,0,1-2-.41l-.21-.06h0c0,.33,0,.66,0,1,0,5.68-.32,15,0,21.62h0c6.33,3.48,34.78,3.56,43.78.23l.43-.16C261.43,51.18,261.22,42.12,261.22,35.89Z" style="fill:url(#linear-gradient-9)"/></g></g><g id="Cup_B" data-name="Cup B"><path d="M230.89,75.48c-.69-1.85-2.35-3-8.29-3.76A140.41,140.41,0,0,0,206,70.86a139.62,139.62,0,0,0-16.58.86c-4,.52-7.52,1.42-8.2,3.8-.37,1.33.19,2.37,2.27,3.2l3.41,41.33c0,.36.74.61,1.07.7l.41,4.06c.51,2.44,7.2,4.26,17.45,4.26s16.56-1.91,17.45-4.26l.5-4c.31-.1,1-.44,1.06-.85l3.8-41.17C230.53,77.93,231.35,76.76,230.89,75.48Z" style="opacity:0.8;fill:url(#linear-gradient-10)"/><path d="M221.84,124.6c0,1.1-7,3-16.06,3s-16.36-1.91-16.36-3,7.39-2.52,16.44-2.52S221.84,123.51,221.84,124.6Z" style="opacity:0.35000000000000003;fill:url(#radial-gradient-2)"/><path d="M220.58,74.85c-2.05-.18-3.64-.35-6.45-.46,0,.66.05,1.45.06,2.34,2.6-.14,4.71-.34,6.43-.56C220.61,75.68,220.6,75.23,220.58,74.85Z" style="opacity:0.30000000000000004;fill:url(#linear-gradient-11)"/><path d="M214.23,79.65c.08,9.17-.14,24.77-.82,37.52-.26,4.94.15,5.46,2.94,5.28,1.25-.09,1.08-2.41,1.42-4.94,1.13-8.52,2.63-28.33,2.83-38.33C218.72,79.39,216.57,79.55,214.23,79.65Z" style="opacity:0.30000000000000004;fill:url(#linear-gradient-12)"/><path d="M187.86,119.57c0-1.58,8.93-2.58,18-2.58s17.85,1.14,17.85,2.58" style="fill:none;stroke-miterlimit:10;stroke-width:1.1149077481622px;opacity:0.35000000000000003;stroke:url(#radial-gradient-3)"/><path d="M223.88,119.54l-1.18.32c-.37.1-.43,4.87-.78,5-10.39,4.69-21.79,4.25-32.47.35-.42-.15-.23-4.89-.67-5l-1-.22-2-25.08c5-4,38.64-3.51,39.64,0Z" style="opacity:0.5;fill:url(#linear-gradient-13)"/><g style="opacity:0.7000000000000001"><ellipse cx="205.82" cy="94.85" rx="20.07" ry="2.62" style="fill:#85a4b5"/><path d="M226.2,94.85a1,1,0,0,1-.5.75,3.81,3.81,0,0,1-.63.33,10.2,10.2,0,0,1-1.26.4,25.56,25.56,0,0,1-2.55.51c-1.71.27-3.42.45-5.14.58-3.43.26-6.86.36-10.3.36s-6.87-.12-10.3-.39c-1.71-.14-3.42-.32-5.13-.59-.85-.13-1.7-.29-2.54-.5a11.57,11.57,0,0,1-1.26-.41,3.32,3.32,0,0,1-.62-.32,1,1,0,0,1-.49-.72.94.94,0,0,1,.49-.72,2.81,2.81,0,0,1,.62-.32,10.2,10.2,0,0,1,1.26-.4,25,25,0,0,1,2.55-.5c1.7-.26,3.41-.43,5.13-.56,3.42-.28,6.86-.38,10.29-.39s6.87.09,10.3.35c1.72.13,3.43.3,5.14.56a25.5,25.5,0,0,1,2.55.5,10.2,10.2,0,0,1,1.26.4,3.74,3.74,0,0,1,.63.32A1,1,0,0,1,226.2,94.85Zm-.62,0s-.07-.15-.23-.25a3.48,3.48,0,0,0-.51-.26,7.86,7.86,0,0,0-1.19-.38c-.81-.21-1.65-.37-2.49-.5-1.68-.26-3.38-.44-5.08-.58-3.41-.27-6.83-.37-10.26-.38s-6.84.09-10.25.35c-1.71.13-3.41.31-5.09.57-.84.13-1.68.29-2.5.5a9.69,9.69,0,0,0-1.19.38,4.25,4.25,0,0,0-.52.27.56.56,0,0,0-.25.28.5.5,0,0,0,.26.27,3.17,3.17,0,0,0,.52.27,8.69,8.69,0,0,0,1.19.37c.81.21,1.65.36,2.49.49,1.68.26,3.39.43,5.09.56,3.41.26,6.83.35,10.25.35s6.85-.12,10.25-.39c1.71-.13,3.41-.3,5.09-.56.84-.13,1.68-.28,2.49-.49a9.15,9.15,0,0,0,1.19-.37,3.48,3.48,0,0,0,.51-.26A.48.48,0,0,0,225.58,94.85Z" style="fill:url(#linear-gradient-14)"/></g><polygon points="215.36 127.57 222.37 125.31 227.74 78.54 217.24 79.97 215.36 127.57" style="opacity:0.4;fill:url(#linear-gradient-15)"/><path d="M222.88,125.06c-10.82,4-21.95,3.86-34.18-.06l-3.85-46.38c14.64,2.18,28.56,2.5,42.33.18Z" style="fill:#fff;opacity:0.15"/><polygon points="196.79 127.07 188.76 125.06 184.85 78.86 194.66 80.04 196.79 127.07" style="opacity:0.4;fill:url(#linear-gradient-16)"/><path d="M185.67,75.24c15.56-3,27.51-1.54,40.55,0A117.5,117.5,0,0,1,185.67,75.24Z" style="fill:#fff;opacity:0.30000000000000004"/><path d="M229.6,75.47s-.1-.34-.11-.36c-.26-.82-1.05-1.84-7.18-2.63A134.74,134.74,0,0,0,206,71.61a137.89,137.89,0,0,0-16.41.8c-6.2.79-6.8,1.85-7.09,2.66,0,0-.29.05,0,.21l-.05.09c-.16-.18,0-.05,0-.05-.55-.17-.15.48-.16.57,0,1.06,2.08,2.3,7.49,3a130.49,130.49,0,0,0,16.35.93,130,130,0,0,0,16.1-.83C227.92,78.22,230.05,76.59,229.6,75.47ZM206,73.56c11.22,0,18.22.56,20.73,1.45-.54.1-1,.24,0,.1-1,.14-6.42,1.84-20.76,1.84-13.08,0-19.54-1.51-20.73-1.88.82.26,0,0,0,0C187.71,74.17,194.56,73.56,206,73.56Z" style="opacity:0.5;fill:url(#linear-gradient-17)"/><path d="M184.61,75v0c.89.87,8.3,2.15,21.38,2.15,14.34,0,20.43-1.44,21.14-2.14,0,0,0,0,0-.06-2.51-.89-9.93-1.83-21.16-1.83C194.58,73.15,187.07,74.12,184.61,75ZM206,76.63a114.47,114.47,0,0,1-18.68-1.21A114.47,114.47,0,0,1,206,74.21a115.21,115.21,0,0,1,18.73,1.21A115.31,115.31,0,0,1,206,76.63Z" style="fill:#4e8b9b"/><path d="M230.89,75.48c-.69-1.85-2.35-3-8.29-3.76A140.41,140.41,0,0,0,206,70.86a139.62,139.62,0,0,0-16.58.86c-4,.52-7.52,1.42-8.2,3.8-.37,1.33.19,2.37,2.27,3.2l3.41,41.33c0,.36.74.61,1.07.7l.41,4.06c.51,2.44,7.2,4.26,17.45,4.26s16.56-1.91,17.45-4.26l.5-4c.31-.1,1-.44,1.06-.85l3.8-41.17C230.53,77.93,231.35,76.76,230.89,75.48Zm-10,48.43c-2.41,2.34-8.22,3.16-13.43,3.16-4.45,0-13.33-.26-17-2.73-.56-.38-.56-2-.67-3.29a76.16,76.16,0,0,0,17.71,2,59,59,0,0,0,14-2C221.29,122.22,221.27,123.57,220.91,123.91Zm1.27-4.51c-1.45,1-6.55,2.63-16.44,2.63s-15-1.32-16.49-2.29c-1.07-.72-3-30.6-3.42-40.33,1,.22,2.09.42,3.42.6a122.31,122.31,0,0,0,16.41,1.18,148.48,148.48,0,0,0,17-.8,27.06,27.06,0,0,0,3.22-.59C225.53,91.36,223.25,118.69,222.18,119.4Zm-.07-40.84a129.86,129.86,0,0,1-16.12.85,132.44,132.44,0,0,1-16.24-.85c-5.4-.71-7.23-1.72-7.26-2.77,0-.1,0-.31.06-.37h0c.3-.81.84-1.85,7-2.64a136.48,136.48,0,0,1,16.4-.85,134.57,134.57,0,0,1,16.32.85c6.14.79,6.64,1.77,6.9,2.59a.25.25,0,0,1,0,.07C229.68,76.57,227.9,77.78,222.11,78.56Z" style="fill:#4e8b9b"/><path d="M202.18,123.33a58,58,0,0,1-8.51-1,24.89,24.89,0,0,0,.32,4.73,37.25,37.25,0,0,0,8.45,1.09C202.45,127.46,202.3,126.26,202.18,123.33Z" style="opacity:0.6000000000000001;fill:url(#linear-gradient-18)"/><path d="M200,120.15a280.75,280.75,0,0,1-.63-38.56,87.19,87.19,0,0,1-10.77-1c0,9.76,1.15,30.08,3.3,38.81a13.57,13.57,0,0,0,.78,2.31c2.9.57,6.25.93,7.45,1A25.5,25.5,0,0,0,200,120.15Z" style="opacity:0.6000000000000001;fill:url(#linear-gradient-19)"/><path d="M196.44,80c.29-1.45.3-2.1,1.39-3-3.23-.16-6.5-.46-9.47-.9-1.29,1.18-.93,1.39-1,2.77A57.51,57.51,0,0,0,196.44,80Z" style="opacity:0.6000000000000001;fill:url(#linear-gradient-20)"/><path d="M186.71,77.49a89.21,89.21,0,0,0,14.1,1.23" style="fill:none;stroke-miterlimit:10;stroke-width:1.1149077481622px;opacity:0.5;stroke:url(#linear-gradient-21)"/><path d="M221.78,74.59a2.68,2.68,0,0,1,1.2-2.35c-3.24-.39-6.18-.65-9.39-.75a2.64,2.64,0,0,0-1,2.38C214.9,74,219,74.23,221.78,74.59Z" style="opacity:0.4;fill:url(#linear-gradient-22)"/></g></svg>