<svg id="Label_Air_A" data-name="Label Air A" xmlns="http://www.w3.org/2000/svg" xmlns:xlink="http://www.w3.org/1999/xlink" viewBox="0 0 285 141"><defs><linearGradient id="linear-gradient" x1="0.64" y1="-287.25" x2="91.07" y2="-287.25" gradientTransform="matrix(1, 0, 0, -1, 0, -190.99)" gradientUnits="userSpaceOnUse"><stop offset="0" stop-color="#fff" stop-opacity="0"/><stop offset="1" stop-color="#fff"/></linearGradient><linearGradient id="linear-gradient-2" x1="0.78" y1="-231.37" x2="84.37" y2="-231.37" xlink:href="#linear-gradient"/><linearGradient id="linear-gradient-3" x1="0.51" y1="-245.45" x2="110.39" y2="-245.45" xlink:href="#linear-gradient"/><linearGradient id="linear-gradient-4" x1="0.79" y1="54.46" x2="110.5" y2="54.46" gradientTransform="matrix(1, 0, 0, 1, 0, 0)" xlink:href="#linear-gradient"/><linearGradient id="linear-gradient-5" x1="0.78" y1="40.39" x2="82.33" y2="40.39" gradientTransform="matrix(1, 0, 0, 1, 0, 0)" xlink:href="#linear-gradient"/><linearGradient id="linear-gradient-6" x1="0.64" y1="96.26" x2="91.25" y2="96.26" gradientTransform="matrix(1, 0, 0, 1, 0, 0)" xlink:href="#linear-gradient"/></defs><title>label-a-air</title><circle id="Backdrop_A" data-name="Backdrop A" cx="62.43" cy="78.52" r="62.18" style="fill:#d1aefb"/><path id="Label_A_Back" data-name="Label A Back" d="M93.16,56.13a237.55,237.55,0,0,1,55-11,265.61,265.61,0,0,1,56.57,1.69l-12.42,56.42A213.71,213.71,0,0,0,148,93.53a193.81,193.81,0,0,0-45.9.5Z" style="fill:#ebd900"/><g id="Label_A" data-name="Label A"><path d="M125.23,57.88q3.46,15.23,5.5,24.64v0a7.51,7.51,0,0,1-1.51.14,4.56,4.56,0,0,1-.8-.07,4.77,4.77,0,0,1-.81-.14h0c-.17-.46-.39-1.27-.67-2.41-.35-1.38-.66-2.51-.94-3.4-1.08,0-2.49-.07-4.24-.07h-1.47s-.08.51-.24,1.44c-.21,1.28-.41,2.34-.6,3.17s-.39,1.26-.63,1.31a1.14,1.14,0,0,1-.35,0l-.92,0q-.69,0-1.56,0h-.39v0a10.62,10.62,0,0,0,.32-1.85q.87-5.53,2-11.22a90.2,90.2,0,0,1,3.13-11.36,4.07,4.07,0,0,1,.56,0h.77C123.31,58,124.25,58,125.23,57.88Zm-3.18,16q2.24,0,4,0-2-11-2.35-11.41a1.73,1.73,0,0,0-.52-.11c-.28,0-.51.23-.7.69a20.26,20.26,0,0,0-.77,3.06c-.33,1.59-.71,3.59-1.16,6l-.31,1.75h.7C121.39,73.84,121.77,73.85,122.05,73.87Z" style="fill:#fff"/><path d="M136.26,70.79l-2.7,0h-.1a10.06,10.06,0,0,1-.11-1.61l0-1.72c0-.21,0-.45,0-.73a4.8,4.8,0,0,1,1.68-.25,4.23,4.23,0,0,1,1.44.18c0,.12,0,.75-.11,1.89s-.1,1.88-.1,2.2v.07Zm0,11.76-2.66,0h-.1a10.06,10.06,0,0,1-.11-1.61l0-1.72c0-.21,0-.45,0-.73a4.8,4.8,0,0,1,1.68-.25,3.85,3.85,0,0,1,1.4.18c0,.12,0,.75-.1,1.89s-.11,1.88-.11,2.2v.07Z" style="fill:#fff"/><path d="M156.14,57.88q3.47,15.23,5.49,24.64v0a7.48,7.48,0,0,1-1.5.14,9.34,9.34,0,0,1-1.61-.21h0c-.16-.46-.38-1.27-.66-2.41-.35-1.38-.67-2.51-.95-3.4-1.07,0-2.48-.07-4.23-.07h-1.47s-.08.51-.25,1.44c-.21,1.28-.41,2.34-.59,3.17s-.4,1.26-.63,1.31a1.23,1.23,0,0,1-.35,0l-.93,0q-.67,0-1.56,0h-.38v0a11.19,11.19,0,0,0,.31-1.85q.89-5.53,2.05-11.22A91.92,91.92,0,0,1,152,58.05a4.17,4.17,0,0,1,.56,0h.77C154.21,58,155.16,58,156.14,57.88Zm-3.19,16q2.25,0,4,0c-1.3-7.35-2.09-11.15-2.34-11.41a1.78,1.78,0,0,0-.53-.11c-.28,0-.51.23-.7.69a23.19,23.19,0,0,0-.77,3.06c-.32,1.59-.71,3.59-1.15,6l-.32,1.75h.7C152.3,73.84,152.67,73.85,153,73.87Z" style="fill:#fff"/><path d="M164.43,64.88a7.53,7.53,0,0,1,1,0c.7.05,1.47.07,2.31.07v.1c0,1,0,2.68-.07,4.87s-.1,4.5-.1,6.79,0,4.06.14,5.74a7.72,7.72,0,0,1-1.47.1H165a4.81,4.81,0,0,0-.77,0c0-.68,0-1.7,0-3.08V73.42c0-1.63-.07-2.89-.07-3.78,0-1.61.07-3.19.21-4.73Zm-.14-7.53c1.45,0,2.55.07,3.29.07l.11,4.62a3.09,3.09,0,0,1-1.26.18,5.79,5.79,0,0,1-.84,0h-.49a5.14,5.14,0,0,0-.67,0c0-.35,0-.92-.07-1.71C164.29,58.93,164.27,57.89,164.29,57.35Z" style="fill:#fff"/><path d="M174.62,65.16c0,.28,0,.5,0,.65a4.36,4.36,0,0,1,0,.54c.17-.09.39-.2.68-.32l1-.35a9,9,0,0,1,1.94-.4,19.72,19.72,0,0,1,2-.12c.56,0,.84,0,.84.07l0,2.9a9.14,9.14,0,0,0,0,1.05,11.19,11.19,0,0,0-1.19-.38,7.46,7.46,0,0,0-1.68-.18,9.91,9.91,0,0,0-2.14.28,2.3,2.3,0,0,0-1.33.74,3.25,3.25,0,0,0-.31,1.85q.14,4.8.14,10.89v.14a5.59,5.59,0,0,1-1.23.14l-.79,0c-.36,0-.72,0-1.1,0l0-6q-.08-4.12-.07-6.2c0-1.12,0-2.89.07-5.32a4.57,4.57,0,0,0,.75,0l.72,0c.28,0,.65,0,1.12,0S174.62,65.11,174.62,65.16Z" style="fill:#fff"/></g><g id="Air_A" data-name="Air A"><path d="M.93,80.65c3.42-.23,6.8-.41,10.19-.56s6.78-.2,10.16-.24c6.76,0,13.52.14,20.22.71,3.34.29,6.68.64,10,1.14s6.55,1.12,9.74,1.89a62.45,62.45,0,0,1,9.16,3,26.57,26.57,0,0,1,7.55,4.5,13.48,13.48,0,0,1,1.34,1.4c.18.25.38.49.54.74l.25.38.27.46a15.53,15.53,0,0,1,1.59,3.69,10,10,0,0,1-.45,6.85A12.37,12.37,0,0,1,76.65,110a13.09,13.09,0,0,1-7.56,2,11.67,11.67,0,0,1-7.32-3.06A6.93,6.93,0,0,1,59.23,102a6.85,6.85,0,0,1,5.88-5.21,7.67,7.67,0,0,1,4.45,1,14,14,0,0,1,3.78,3.28,13.5,13.5,0,0,0-3.12-4.21,10.27,10.27,0,0,0-2.31-1.52,8.94,8.94,0,0,0-2.77-.74A9.06,9.06,0,0,0,59.42,96a10.35,10.35,0,0,0-4.57,11,13.27,13.27,0,0,0,2.79,5.66,18,18,0,0,0,10.5,6.21,20.62,20.62,0,0,0,12.3-1.58,18.49,18.49,0,0,0,9.25-9,16.67,16.67,0,0,0,1.55-6.62,19.3,19.3,0,0,0-1-6.52,24.1,24.1,0,0,0-2.67-5.6l-.41-.63-.47-.67c-.32-.46-.68-.87-1-1.29a20.64,20.64,0,0,0-2.27-2.22A33.86,33.86,0,0,0,73.3,79.1a71.39,71.39,0,0,0-10.46-2.86c-3.49-.69-7-1.19-10.46-1.57S45.44,74,42,73.8C28.13,73,14.31,73.36.64,73.7Z" style="opacity:0.8;fill:url(#linear-gradient)"/><path d="M.78,70.39c1.72-.22,3.58-.37,5.42-.52l5.54-.43c3.71-.29,7.43-.57,11.14-.94a217.28,217.28,0,0,0,22.26-3.09q2.78-.52,5.55-1.22t5.54-1.51a59,59,0,0,0,10.88-4.42,32.06,32.06,0,0,0,9.69-7.78,24.4,24.4,0,0,0,5.29-12,23.73,23.73,0,0,0-1.9-13.11A26.3,26.3,0,0,0,72,15.16a23.3,23.3,0,0,0-12.6-4.74,19.92,19.92,0,0,0-7,.84,20.53,20.53,0,0,0-6.19,3.09A23.31,23.31,0,0,0,41.45,19a19.14,19.14,0,0,0-3.18,6.09,16.83,16.83,0,0,0-.63,6.94,15.83,15.83,0,0,0,2.28,6.45,14.64,14.64,0,0,0,4.72,4.74A12.09,12.09,0,0,0,51,45.08a11.32,11.32,0,0,0,6-1.71,13.85,13.85,0,0,0,4.08-4,15.94,15.94,0,0,1-4.88,2.16,8.94,8.94,0,0,1-4.74-.06,9.34,9.34,0,0,1-6-5.8,10.23,10.23,0,0,1,.33-7.85A12.93,12.93,0,0,1,48,24.48a16.87,16.87,0,0,1,3.3-2.67,12.32,12.32,0,0,1,7.51-1.88,15.39,15.39,0,0,1,7.64,2.83,17.88,17.88,0,0,1,5.64,6.45,14.55,14.55,0,0,1,1.56,8.21,15.69,15.69,0,0,1-3.34,7.87,25.49,25.49,0,0,1-7.15,6c-5.69,3.34-12.51,5.37-19.43,6.53A103,103,0,0,1,33.19,59c-3.55.26-7.13.31-10.71.29s-7.16-.2-10.75-.48c-1.8-.12-3.6-.31-5.41-.48L.78,57.72Z" style="opacity:0.8;fill:url(#linear-gradient-2)"/><g style="opacity:0.8"><path d="M.79,72.16c13.73-.72,27.46-.52,41.21-.27,6.87.15,13.76.29,20.68.25A150.82,150.82,0,0,0,83.6,70.81a71.37,71.37,0,0,0,10.49-2.37c.87-.27,1.74-.54,2.59-.88l1.3-.49c.44-.19.89-.36,1.33-.58a23.44,23.44,0,0,0,5.09-3.13,17.94,17.94,0,0,0,4.11-4.81,15.48,15.48,0,0,0,1.95-6.28A14.92,14.92,0,0,0,106,40.36a13.29,13.29,0,0,0-5.68-3.21,12.18,12.18,0,0,0-6.43.1,14.43,14.43,0,0,0-5.29,2.87,9.69,9.69,0,0,0-3.34,5.17,7.87,7.87,0,0,0,1,6,8.26,8.26,0,0,0,4.5,3.53,7.13,7.13,0,0,0,5.45-.45A10.12,10.12,0,0,0,100,50.75a9.82,9.82,0,0,1-4.09,2.88,6,6,0,0,1-4.6-.27,6.43,6.43,0,0,1-3-3.19,5.21,5.21,0,0,1-.12-4,6.24,6.24,0,0,1,2.69-3,10.14,10.14,0,0,1,4-1.44,6.9,6.9,0,0,1,3.74.59,7.76,7.76,0,0,1,2.91,2.3,9.34,9.34,0,0,1,2.08,7,10.42,10.42,0,0,1-3.65,6.5,17.67,17.67,0,0,1-3.55,2.44c-.32.19-.67.34-1,.51l-1.09.48c-.72.34-1.48.62-2.24.91a63.68,63.68,0,0,1-9.47,2.69,161.19,161.19,0,0,1-20.08,2.79c-6.81.6-13.67.93-20.53,1.29C28.22,69.87,14.45,70.56.79,72.16Z" style="fill:url(#linear-gradient-3)"/></g><path d="M97.27,39.08a9.83,9.83,0,0,1,2.44.31A11,11,0,0,1,104.39,42a12.62,12.62,0,0,1,3.76,10.05,13,13,0,0,1-1.66,5.32,15.52,15.52,0,0,1-3.56,4.16,21.22,21.22,0,0,1-4.59,2.82l0,0c-.26.13-.52.24-.79.35l-.39.17-1.27.47c-.7.28-1.42.51-2.18.75l-.26.08a68,68,0,0,1-10.13,2.29A133,133,0,0,1,68,69.74a142,142,0,0,0,15.09-2.32,66.79,66.79,0,0,0,9.82-2.8l.31-.12c.68-.26,1.37-.53,2-.83l1.1-.48.12-.06.31-.15c.26-.13.51-.25.75-.39a20.38,20.38,0,0,0,4-2.74,12.63,12.63,0,0,0,4.4-7.92,11.65,11.65,0,0,0-2.56-8.74,10.18,10.18,0,0,0-3.76-3,9.23,9.23,0,0,0-4.92-.79,9.72,9.72,0,0,1,2.64-.36m0-2.31a12,12,0,0,0-3.4.48,14.43,14.43,0,0,0-5.29,2.87,9.69,9.69,0,0,0-3.34,5.17,7.87,7.87,0,0,0,1,6,8.26,8.26,0,0,0,4.5,3.53,7,7,0,0,0,2.16.34,7.1,7.1,0,0,0,3.29-.79A10.12,10.12,0,0,0,100,50.75a9.82,9.82,0,0,1-4.09,2.88,6.3,6.3,0,0,1-2,.33,5.77,5.77,0,0,1-2.6-.6,6.43,6.43,0,0,1-3-3.19,5.21,5.21,0,0,1-.12-4,6.24,6.24,0,0,1,2.69-3,10.14,10.14,0,0,1,4-1.44,5.92,5.92,0,0,1,.84,0,6.87,6.87,0,0,1,2.9.64,7.76,7.76,0,0,1,2.91,2.3,9.34,9.34,0,0,1,2.08,7,10.42,10.42,0,0,1-3.65,6.5,17.67,17.67,0,0,1-3.55,2.44c-.32.19-.67.34-1,.51l-1.09.48c-.72.34-1.48.62-2.24.91a63.68,63.68,0,0,1-9.47,2.69,161.19,161.19,0,0,1-20.08,2.79c-6.81.6-13.67.93-20.53,1.29-13.74.64-27.51,1.33-41.17,2.93,7.12-.37,14.25-.5,21.38-.5,6.61,0,13.22.11,19.83.23,6.16.14,12.33.26,18.53.26h2.15A150.82,150.82,0,0,0,83.6,70.81a71.37,71.37,0,0,0,10.49-2.37c.87-.27,1.74-.54,2.59-.88l1.3-.49c.44-.19.89-.36,1.33-.58a23.44,23.44,0,0,0,5.09-3.13,17.94,17.94,0,0,0,4.11-4.81,15.48,15.48,0,0,0,1.95-6.28A14.92,14.92,0,0,0,106,40.36a13.29,13.29,0,0,0-5.68-3.21,12,12,0,0,0-3-.38Z" style="fill:url(#linear-gradient-4)"/><path d="M58.29,12.71h0l1,0A21,21,0,0,1,70.62,17a24.16,24.16,0,0,1,7.46,9.35A21.6,21.6,0,0,1,79.8,38.2,22,22,0,0,1,75,49a29.62,29.62,0,0,1-9,7.21,56,56,0,0,1-10.46,4.25c-1.84.56-3.66,1.06-5.42,1.47s-3.64.85-5.44,1.2a212.34,212.34,0,0,1-22,3.06c-3.28.32-6.63.59-9.87.84l-1.21.09L6,67.56l-.43,0c-.82.07-1.65.13-2.47.21v-7.5l3,.34,1.37.13c1.34.13,2.72.27,4.07.36,3.47.27,7,.43,10.92.49h1.18c3.8,0,6.88-.1,9.68-.3,3.65-.23,7.28-.63,10.8-1.21A59.62,59.62,0,0,0,64.35,53.3a27.61,27.61,0,0,0,7.79-6.57,18,18,0,0,0,3.83-9,16.86,16.86,0,0,0-1.79-9.51,20.11,20.11,0,0,0-6.4-7.32A17.58,17.58,0,0,0,59,17.62c-.37,0-.74,0-1.11,0a14.72,14.72,0,0,0-7.79,2.25,19.65,19.65,0,0,0-3.78,3.07,15,15,0,0,0-2.7,3.92,12.56,12.56,0,0,0-.41,9.63,12.1,12.1,0,0,0,4.22,5.62,10.75,10.75,0,0,1-1.59-.8,12.24,12.24,0,0,1-4-4,13.73,13.73,0,0,1-1.94-5.49,14.56,14.56,0,0,1,.55-6,16.61,16.61,0,0,1,2.8-5.36,20.7,20.7,0,0,1,4.31-4.2,18,18,0,0,1,5.51-2.76,17.5,17.5,0,0,1,5.18-.76m0-2.32a20,20,0,0,0-5.86.87,20.53,20.53,0,0,0-6.19,3.09A23.31,23.31,0,0,0,41.45,19a19.14,19.14,0,0,0-3.18,6.09,16.83,16.83,0,0,0-.63,6.94,15.83,15.83,0,0,0,2.28,6.45,14.64,14.64,0,0,0,4.72,4.74,12.14,12.14,0,0,0,6.29,1.84h0a11.43,11.43,0,0,0,5.94-1.71,13.85,13.85,0,0,0,4.08-4,15.94,15.94,0,0,1-4.88,2.16,9.91,9.91,0,0,1-2.33.29,8.31,8.31,0,0,1-2.41-.35,9.34,9.34,0,0,1-6-5.8,10.23,10.23,0,0,1,.33-7.85A12.93,12.93,0,0,1,48,24.48a16.87,16.87,0,0,1,3.3-2.67A12.36,12.36,0,0,1,57.9,19.9q.47,0,.93,0a15.39,15.39,0,0,1,7.64,2.83,17.88,17.88,0,0,1,5.64,6.45,14.55,14.55,0,0,1,1.56,8.21,15.69,15.69,0,0,1-3.34,7.87,25.49,25.49,0,0,1-7.15,6c-5.69,3.34-12.51,5.37-19.43,6.53A103,103,0,0,1,33.19,59c-3.17.23-6.35.29-9.54.29H22.48c-3.58-.05-7.16-.2-10.75-.48-1.8-.12-3.6-.31-5.41-.48L.78,57.72V70.39c1.72-.22,3.58-.37,5.42-.52l5.54-.43c3.71-.29,7.43-.57,11.14-.94a217.28,217.28,0,0,0,22.26-3.09q2.78-.52,5.55-1.22t5.54-1.51a59,59,0,0,0,10.88-4.42,32.06,32.06,0,0,0,9.69-7.78,24.4,24.4,0,0,0,5.29-12,23.73,23.73,0,0,0-1.9-13.11A26.3,26.3,0,0,0,72,15.16a23.3,23.3,0,0,0-12.6-4.74c-.37,0-.75,0-1.12,0Z" style="fill:url(#linear-gradient-5)"/><path d="M23.6,75.62c6.75,0,12.71.16,18.24.49,3.45.2,6.91.49,10.3.87,3.67.39,7,.89,10.24,1.53a68.38,68.38,0,0,1,10.11,2.76,31.52,31.52,0,0,1,9.44,5.26,20.58,20.58,0,0,1,2,2l.17.21c.26.31.5.6.72.91l.45.64.37.57a22.31,22.31,0,0,1,2.42,5.07,17.41,17.41,0,0,1,.86,5.75,14.31,14.31,0,0,1-1.35,5.7,16.12,16.12,0,0,1-8.1,7.86,18.92,18.92,0,0,1-7.74,1.7,17.55,17.55,0,0,1-3.17-.29,15.78,15.78,0,0,1-9.13-5.4,11.09,11.09,0,0,1-2.33-4.68,8.24,8.24,0,0,1-.17-1.31,10,10,0,0,0,3.29,5.37A14,14,0,0,0,69,114.23c.27,0,.55,0,.82,0a15.56,15.56,0,0,0,8.1-2.32,14.79,14.79,0,0,0,5.7-6.42,12.24,12.24,0,0,0,.56-8.4,17.84,17.84,0,0,0-1.83-4.26l-.26-.46a.61.61,0,0,1-.07-.1l-.23-.35a7.84,7.84,0,0,0-.5-.69l-.14-.18L81,91a15.26,15.26,0,0,0-1.56-1.64,28.69,28.69,0,0,0-8.21-4.92,64.59,64.59,0,0,0-9.51-3.07c-3.11-.76-6.36-1.4-9.94-1.94-3-.45-6.18-.81-10.12-1.15-7.39-.63-14.79-.72-20.45-.72-3.26,0-6.7.11-10.23.24-2.75.12-5.35.25-7.88.41L3.05,76c6.74-.16,13.69-.33,20.55-.33m0-2.31c-7.68,0-15.34.2-23,.39l.29,7c3.42-.23,6.8-.41,10.19-.56s6.78-.2,10.16-.24c6.76,0,13.52.14,20.22.71,3.34.29,6.68.64,10,1.14s6.55,1.12,9.74,1.89a62.45,62.45,0,0,1,9.16,3,26.57,26.57,0,0,1,7.55,4.5,13.48,13.48,0,0,1,1.34,1.4c.18.25.38.49.54.74l.25.38.27.46a15.53,15.53,0,0,1,1.59,3.69,10,10,0,0,1-.45,6.85A12.37,12.37,0,0,1,76.65,110a13.14,13.14,0,0,1-6.87,2l-.69,0a11.67,11.67,0,0,1-7.32-3.06A6.93,6.93,0,0,1,59.23,102a6.85,6.85,0,0,1,5.88-5.21q.31,0,.63,0a7.93,7.93,0,0,1,3.82,1.06,14,14,0,0,1,3.78,3.28,13.5,13.5,0,0,0-3.12-4.21,10.27,10.27,0,0,0-2.31-1.52,8.94,8.94,0,0,0-2.77-.74,7.87,7.87,0,0,0-.84,0A9.18,9.18,0,0,0,59.42,96a10.35,10.35,0,0,0-4.57,11,13.17,13.17,0,0,0,2.8,5.66,18,18,0,0,0,10.49,6.21,18.91,18.91,0,0,0,3.6.33,21,21,0,0,0,8.7-1.91,18.49,18.49,0,0,0,9.25-9,16.67,16.67,0,0,0,1.55-6.62,19.3,19.3,0,0,0-1-6.52,24.1,24.1,0,0,0-2.67-5.6l-.41-.63-.47-.67c-.32-.46-.68-.87-1-1.29a20.64,20.64,0,0,0-2.27-2.22A33.86,33.86,0,0,0,73.3,79.1a71,71,0,0,0-10.46-2.86c-3.49-.69-7-1.19-10.46-1.57S45.44,74,42,73.8c-6.13-.37-12.26-.49-18.37-.49Z" style="fill:url(#linear-gradient-6)"/></g></svg>