<svg id="Label_Stone_B" data-name="Label Stone B" xmlns="http://www.w3.org/2000/svg" xmlns:xlink="http://www.w3.org/1999/xlink" viewBox="0 0 285 141"><defs><linearGradient id="linear-gradient" x1="-817" y1="81.28" x2="-767.33" y2="99.36" gradientTransform="translate(1026.14)" gradientUnits="userSpaceOnUse"><stop offset="0" stop-opacity="0.6"/><stop offset="0.87" stop-opacity="0.2"/><stop offset="1" stop-color="#4ec9f5" stop-opacity="0.2"/></linearGradient></defs><title>label-b-stone</title><circle id="Backdrop_B" data-name="Backdrop B" cx="222.57" cy="78.52" r="62.18" style="fill:#fba0a1"/><path id="Label_B_Back" data-name="Label B Back" d="M182.7,97.81a327.55,327.55,0,0,0-131.88,11l-13.9-67.5a385.22,385.22,0,0,1,155.18,11Z" style="fill:#00bdff"/><g id="Label_B" data-name="Label B"><path d="M73,70.23a.58.58,0,0,0-.07.28.67.67,0,0,0,.25.46,20.28,20.28,0,0,1,1.89,2.69,5.41,5.41,0,0,1,.59,2.59,7.46,7.46,0,0,1-.1,1.23,5.22,5.22,0,0,1-2.73,4.13,12.91,12.91,0,0,1-5.67,1.08l-1.68,0c-.66,0-1.15,0-1.47-.07-.94-.07-1.82-.11-2.66-.11a1.08,1.08,0,0,1-.46-.07q-.11-2.76-.1-8.26l0-11q0-3.21,0-4.83l0,0a20.5,20.5,0,0,1,5.39-.77,10.33,10.33,0,0,1,6.13,1.7c1.58,1.13,2.38,3,2.38,5.54A10.62,10.62,0,0,1,73,70.23Zm-7.17,9.28c.88,0,1.49.07,1.82.07A5.61,5.61,0,0,0,70,79.14a3.78,3.78,0,0,0,1.63-1.66A2.72,2.72,0,0,0,72,76.22a5.71,5.71,0,0,0-.38-1.89,2.36,2.36,0,0,0-1.19-1.4,4.26,4.26,0,0,0-1.8-.49l-1.11,0a8.3,8.3,0,0,0-.91,0c-.25,0-1.08,0-2.48.07a3.92,3.92,0,0,0-.32,2,36.52,36.52,0,0,0,.46,5C64.78,79.44,65.31,79.49,65.83,79.51Zm0-10.29c.88,0,1.46.07,1.71.07a5.4,5.4,0,0,0,2.35-.4,2.84,2.84,0,0,0,1.26-1.46,4.77,4.77,0,0,0,.56-2.27,5.35,5.35,0,0,0-.11-1,3.13,3.13,0,0,0-1.33-2.22,5.46,5.46,0,0,0-2.8-.76q-.34,0-1.08,0a5.83,5.83,0,0,0-2.45.31l0,1-.07,2.45v1.43a12.64,12.64,0,0,0,.21,2.8Z" style="fill:#fff"/><path d="M81.68,70.79l-2.69,0h-.11a10.21,10.21,0,0,1-.1-1.61l0-1.72c0-.21,0-.45,0-.73a4.8,4.8,0,0,1,1.68-.25,4.16,4.16,0,0,1,1.43.18c0,.12,0,.75-.1,1.89s-.11,1.88-.11,2.2v.07Zm0,11.76-2.66,0h-.11a10.21,10.21,0,0,1-.1-1.61l0-1.72c0-.21,0-.45,0-.73a4.8,4.8,0,0,1,1.68-.25,3.89,3.89,0,0,1,1.4.18c0,.12,0,.75-.11,1.89s-.1,1.88-.1,2.2v.07Z" style="fill:#fff"/><path d="M108.53,66h0a11.61,11.61,0,0,1-2,.18A5.55,5.55,0,0,1,105,66a5,5,0,0,0,.07-.91,3.29,3.29,0,0,0-.56-1.94A3.24,3.24,0,0,0,102.93,62a4.74,4.74,0,0,0-1.54-.24,5.36,5.36,0,0,0-2.35.54,4.27,4.27,0,0,0-1.75,1.49,3.16,3.16,0,0,0-.52,2.1q.45,2.65,3.67,2.76a9.84,9.84,0,0,1,6.06,1.86,5.47,5.47,0,0,1,2,4.37,8.88,8.88,0,0,1-1,4.31,6.47,6.47,0,0,1-2.6,2.68,7.57,7.57,0,0,1-3.64.89A10.85,10.85,0,0,1,97.43,82a7.91,7.91,0,0,1-3.15-2.12,5.54,5.54,0,0,1-1.43-3.32v0a3.85,3.85,0,0,1-.11-.94v-.25c.51,0,.91-.07,1.19-.07l1.3,0q.38,0,1.08,0a3.26,3.26,0,0,0,.86,2.38,5.23,5.23,0,0,0,2.71,1.44,4.34,4.34,0,0,0,1.09.14,4.07,4.07,0,0,0,2.1-.56,3.66,3.66,0,0,0,1.43-1.54,4,4,0,0,0,.39-2.17,3,3,0,0,0-.9-2,3.76,3.76,0,0,0-1.75-.87,22.14,22.14,0,0,0-2.74-.35l-1.33-.11a5.83,5.83,0,0,1-3-1.38,5.51,5.51,0,0,1-1.71-2.57,7.19,7.19,0,0,1-.32-2.07,6.89,6.89,0,0,1,.32-2.1A7.91,7.91,0,0,1,95,60.63a7.27,7.27,0,0,1,2.72-2,8.4,8.4,0,0,1,3.18-.56,11.05,11.05,0,0,1,4.59.94,5.68,5.68,0,0,1,3.18,5.29A10.24,10.24,0,0,1,108.53,66Z" style="fill:#fff"/><path d="M117.24,58.58v5.35l0,2c1.51,0,3.39-.12,5.63-.24a1.87,1.87,0,0,1,.21,1l0,.8a6.77,6.77,0,0,0,0,1.12q-3.81,0-5.7,0v6.54c0,1.05,0,1.8.07,2.24a3.8,3.8,0,0,0,.28,1.16,3.2,3.2,0,0,0,2.25.87,19.68,19.68,0,0,0,3.1.11c.12.93.18,1.53.18,1.78a4.57,4.57,0,0,1-.18,1.26c-.49,0-1.26,0-2.31,0a10.92,10.92,0,0,1-4.27-.67,3.42,3.42,0,0,1-2-2.66,81,81,0,0,1-.38-8.85V68.73a10.48,10.48,0,0,1-1,0l-2.66,0,.1-2.87c.51,0,1.74.07,3.68.07l0-3.68V60.61a19.67,19.67,0,0,1,.07-2.07,12.16,12.16,0,0,1,1.51,0l.94,0A3.69,3.69,0,0,0,117.24,58.58Z" style="fill:#fff"/><path d="M125.08,71.18a18.11,18.11,0,0,1,.12-2.24,12,12,0,0,1,.62-2.35,3.05,3.05,0,0,1,1.94-1.52,10.13,10.13,0,0,1,3.31-.51,4.16,4.16,0,0,0,.7,0l1.4,0a6.21,6.21,0,0,1,4.51,1.54,2.72,2.72,0,0,1,1,1.58,13.54,13.54,0,0,1,.41,3.1c0,1.29.07,2,.07,2.25-.1,2.34-.21,4.19-.34,5.57a4.72,4.72,0,0,1-.78,2.66,3.35,3.35,0,0,1-1.84,1.29,9.55,9.55,0,0,1-2.78.35c-.42,0-1,0-1.89-.07l-1.61,0a5.15,5.15,0,0,1-3.1-1.51,5.52,5.52,0,0,1-1.33-2.69,19.72,19.72,0,0,1-.3-3.71V73.07A17.23,17.23,0,0,0,125.08,71.18Zm7.14-3.33a4.28,4.28,0,0,0-3.43,1.23,2.85,2.85,0,0,0-.58,1.42,13.31,13.31,0,0,0-.08,2.22,11,11,0,0,0,0,1.4c0,.58.06,1,.06,1.36l.07,1.47a2.76,2.76,0,0,0,.78,2,3.78,3.78,0,0,0,1.74.79,9.54,9.54,0,0,0,1.43.1,5.38,5.38,0,0,0,2.38-.49,2.31,2.31,0,0,0,1.3-1.61,10.37,10.37,0,0,0,.14-1.43c.11-1.63.17-2.74.17-3.33a7.18,7.18,0,0,0-.84-3.71A3.37,3.37,0,0,0,132.22,67.85Z" style="fill:#fff"/><path d="M145.21,65.16a6.39,6.39,0,0,1,.07,1V67a15,15,0,0,1,2.8-1.24,10,10,0,0,1,3.22-.54,5.15,5.15,0,0,1,3.15,1.08q.84.73.84,6c0,.89,0,2.26-.07,4.13s-.07,3.06-.07,3.85c0,1,0,1.76,0,2.2a13,13,0,0,1-1.92.11H152.1a17.51,17.51,0,0,1-.07-2V79.12l0-2.24c0-1.51.05-2.6,0-3.25q0-.21-.09-1.44a9,9,0,0,0-.4-2.17c-.07-.81-.64-1.19-1.71-1.12a8,8,0,0,0-3.56.67,2.63,2.63,0,0,0-1.27,2.27c0,.31,0,.88,0,1.72,0,1.31,0,2.71.07,4.2.05.89.07,1.54.07,2,0,.86,0,1.75-.1,2.66v.14a6,6,0,0,1-1.32.12l-.92,0c-.38,0-.67,0-.88,0l0-6q-.07-4.12-.07-6.2c0-1.12,0-2.89.07-5.32a9.37,9.37,0,0,0,1,0,7.67,7.67,0,0,0,.91,0l.49,0a5.09,5.09,0,0,1,.56,0C145.09,65.05,145.21,65.09,145.21,65.16Z" style="fill:#fff"/><path d="M160.92,73.7v.63l0,1c0,2.9,1.42,4.34,4.27,4.34a3.57,3.57,0,0,0,2.53-.78,2.86,2.86,0,0,0,.83-2.16c0-.14,0-.39-.07-.77a9.58,9.58,0,0,1,1.36-.1q.56,0,.84,0l.51,0a4,4,0,0,0,.68,0,20.49,20.49,0,0,1-.14,3.19,6.08,6.08,0,0,1-.84,2.27,3.58,3.58,0,0,1-2.19,1.35,13.52,13.52,0,0,1-3.41.4A15.17,15.17,0,0,1,163.7,83a3.77,3.77,0,0,1-.89-.14,5.07,5.07,0,0,1-3.95-3.44,15.92,15.92,0,0,1-1.05-6.85c0-.18.05-.57.1-1.17s.11-1.21.19-1.84a7.64,7.64,0,0,1,.48-1.85A4.66,4.66,0,0,1,161,65.37a8.87,8.87,0,0,1,3.89-.84,10.36,10.36,0,0,1,2.34.28Q172,65.62,172,72c0,.35,0,.86-.07,1.51a22.68,22.68,0,0,1-3.92.35q-.39,0-1.68,0c-1.84,0-3.21,0-4.09-.07A5.89,5.89,0,0,1,160.92,73.7Zm8.51-2.63a5.34,5.34,0,0,0-.55-2.13,3.94,3.94,0,0,0-1.45-1.65,4.08,4.08,0,0,0-.91-.31,5.33,5.33,0,0,0-1-.07,3.76,3.76,0,0,0-4.44,3.64,3.81,3.81,0,0,0-.07.56.54.54,0,0,0,.4.56,6.72,6.72,0,0,0,1.73.14c.86,0,1.6,0,2.21,0q3.36,0,3.78,0a.38.38,0,0,0,.22-.09.24.24,0,0,0,.06-.19Z" style="fill:#fff"/></g><g id="Stone_A" data-name="Stone A"><polygon points="256.32 109.65 212.9 119.8 187.8 103.13 186.75 54.54 230.12 45.06 256.03 60.08 256.32 109.65" style="fill:#7a7a7a"/><g id="Layer_16_copy_9" data-name="Layer 16 copy 9"><g style="opacity:0.8"><path d="M191.3,92.9a1.58,1.58,0,1,0-2.24,0A1.6,1.6,0,0,0,191.3,92.9Z" style="fill:#aaa"/><path d="M208,95.08a1.58,1.58,0,1,0,2.24,0A1.58,1.58,0,0,0,208,95.08Z" style="fill:#aaa"/><path d="M199.19,95.54a1.58,1.58,0,1,0,2.24,0A1.58,1.58,0,0,0,199.19,95.54Z" style="fill:#aaa"/><path d="M205.24,83.27a1.58,1.58,0,1,0,2.24,0A1.58,1.58,0,0,0,205.24,83.27Z" style="fill:#aaa"/><path d="M200.54,111.45a1.58,1.58,0,0,0,2.24,2.24,1.6,1.6,0,0,0,0-2.24A1.58,1.58,0,0,0,200.54,111.45Z" style="fill:#aaa"/><path d="M224.81,95.12a1.58,1.58,0,0,0,0,2.24,1.6,1.6,0,0,0,2.24,0,1.58,1.58,0,0,0-2.24-2.24Z" style="fill:#aaa"/><path d="M216,84.11a1.6,1.6,0,0,0,0,2.24,1.58,1.58,0,1,0,0-2.24Z" style="fill:#aaa"/><path d="M214.49,67.58a1.58,1.58,0,1,0,0,2.24A1.58,1.58,0,0,0,214.49,67.58Z" style="fill:#aaa"/><path d="M198.94,73.71a1.58,1.58,0,1,0-2.24,0A1.58,1.58,0,0,0,198.94,73.71Z" style="fill:#aaa"/><path d="M206.44,73.31a1.58,1.58,0,0,0-2.24-2.24,1.6,1.6,0,0,0,0,2.24A1.58,1.58,0,0,0,206.44,73.31Z" style="fill:#aaa"/><path d="M190.87,82.16a1.58,1.58,0,0,0,2.24,2.24,1.58,1.58,0,0,0-2.24-2.24Z" style="fill:#aaa"/><path d="M208.86,106.54a1.58,1.58,0,1,0,2.24,0A1.58,1.58,0,0,0,208.86,106.54Z" style="fill:#aaa"/><path d="M218.62,115a1.58,1.58,0,1,0,2.24,0A1.58,1.58,0,0,0,218.62,115Z" style="fill:#aaa"/><path d="M238.34,90.78a1.58,1.58,0,1,0,2.24,0A1.58,1.58,0,0,0,238.34,90.78Z" style="fill:#aaa"/><path d="M230.53,80.38a1.58,1.58,0,1,0,2.24,0A1.58,1.58,0,0,0,230.53,80.38Z" style="fill:#aaa"/><path d="M222.26,74.21a1.58,1.58,0,0,0,0,2.24,1.6,1.6,0,0,0,2.24,0,1.58,1.58,0,0,0-2.24-2.24Z" style="fill:#aaa"/><path d="M222.29,105.47a1.58,1.58,0,1,0,2.24,0A1.58,1.58,0,0,0,222.29,105.47Z" style="fill:#aaa"/><path d="M212.69,86.87a1.58,1.58,0,1,0,2.24,2.24,1.6,1.6,0,0,0,0-2.24A1.58,1.58,0,0,0,212.69,86.87Z" style="fill:#aaa"/><path d="M211.05,74.52a1.58,1.58,0,0,0,0,2.24,1.6,1.6,0,0,0,2.24,0,1.58,1.58,0,1,0-2.24-2.24Z" style="fill:#aaa"/><path d="M210.93,62.83a1.6,1.6,0,0,0,0-2.24,1.58,1.58,0,1,0,0,2.24Z" style="fill:#aaa"/><path d="M192.17,101.81a1.58,1.58,0,1,0,2.24,2.24,1.6,1.6,0,0,0,0-2.24A1.58,1.58,0,0,0,192.17,101.81Z" style="fill:#aaa"/></g><g style="opacity:0.8"><path d="M197.43,97.63a1.2,1.2,0,0,0,1.7,0,1.21,1.21,0,0,0,0-1.71,1.2,1.2,0,0,0-1.7,0A1.21,1.21,0,0,0,197.43,97.63Z" style="fill:#6d6d6d"/><path d="M197.78,104.33a1.2,1.2,0,1,0,0-1.7A1.2,1.2,0,0,0,197.78,104.33Z" style="fill:#6d6d6d"/><path d="M188.46,99.74a1.2,1.2,0,0,0,1.7,0,1.21,1.21,0,0,0,0-1.71,1.2,1.2,0,0,0-1.7,0A1.21,1.21,0,0,0,188.46,99.74Z" style="fill:#6d6d6d"/><path d="M209.86,103.31a1.2,1.2,0,1,0,0-1.7A1.2,1.2,0,0,0,209.86,103.31Z" style="fill:#6d6d6d"/><path d="M197.45,84.87a1.2,1.2,0,1,0,0-1.7A1.2,1.2,0,0,0,197.45,84.87Z" style="fill:#6d6d6d"/><path d="M189.09,91.54a1.2,1.2,0,1,0,0-1.7A1.2,1.2,0,0,0,189.09,91.54Z" style="fill:#6d6d6d"/><path d="M224.2,116.48a1.2,1.2,0,0,0,1.7,0,1.21,1.21,0,0,0,0-1.71,1.2,1.2,0,0,0-1.7,0A1.21,1.21,0,0,0,224.2,116.48Z" style="fill:#6d6d6d"/><path d="M220.39,111.18a1.2,1.2,0,1,0,0-1.7A1.2,1.2,0,0,0,220.39,111.18Z" style="fill:#6d6d6d"/><path d="M208.51,109.23a1.2,1.2,0,1,0,1.7,0A1.2,1.2,0,0,0,208.51,109.23Z" style="fill:#6d6d6d"/><path d="M206.13,97a1.21,1.21,0,1,0,0-1.71A1.21,1.21,0,0,0,206.13,97Z" style="fill:#6d6d6d"/><path d="M215.06,91.45a1.21,1.21,0,0,0,1.71,0,1.2,1.2,0,0,0,0-1.7,1.21,1.21,0,0,0-1.71,0A1.2,1.2,0,0,0,215.06,91.45Z" style="fill:#6d6d6d"/><path d="M216.45,101.4a1.2,1.2,0,1,0,0-1.7A1.2,1.2,0,0,0,216.45,101.4Z" style="fill:#6d6d6d"/><path d="M194.16,74.59a1.2,1.2,0,1,0,0-1.7A1.2,1.2,0,0,0,194.16,74.59Z" style="fill:#6d6d6d"/><path d="M205.32,86.78a1.2,1.2,0,1,0,0-1.7A1.2,1.2,0,0,0,205.32,86.78Z" style="fill:#6d6d6d"/><path d="M191.19,94.08a1.2,1.2,0,1,0,0-1.7A1.2,1.2,0,0,0,191.19,94.08Z" style="fill:#6d6d6d"/><path d="M202.54,109.67a1.2,1.2,0,1,0,0-1.7A1.2,1.2,0,0,0,202.54,109.67Z" style="fill:#6d6d6d"/></g><g style="opacity:0.8"><path d="M215.17,115.09a1.2,1.2,0,1,0,0,1.7A1.2,1.2,0,0,0,215.17,115.09Z" style="fill:#6d6d6d"/><path d="M216.83,102.39a1.21,1.21,0,1,0,0-1.71A1.21,1.21,0,0,0,216.83,102.39Z" style="fill:#6d6d6d"/><path d="M217.18,109.09a1.2,1.2,0,1,0,0-1.7A1.2,1.2,0,0,0,217.18,109.09Z" style="fill:#6d6d6d"/><path d="M207.86,104.5a1.2,1.2,0,0,0,1.7,0,1.21,1.21,0,0,0,0-1.71,1.2,1.2,0,0,0-1.7,0A1.21,1.21,0,0,0,207.86,104.5Z" style="fill:#6d6d6d"/><path d="M229.27,108.07a1.2,1.2,0,1,0,0-1.7A1.2,1.2,0,0,0,229.27,108.07Z" style="fill:#6d6d6d"/><path d="M216.86,89.63a1.2,1.2,0,1,0,0-1.7A1.2,1.2,0,0,0,216.86,89.63Z" style="fill:#6d6d6d"/><path d="M208.5,96.3a1.2,1.2,0,1,0,0-1.7A1.2,1.2,0,0,0,208.5,96.3Z" style="fill:#6d6d6d"/><path d="M195.94,97.47a1.2,1.2,0,1,0,1.7,0A1.2,1.2,0,0,0,195.94,97.47Z" style="fill:#6d6d6d"/><path d="M200.6,109.28a1.2,1.2,0,0,0-1.7,0,1.21,1.21,0,0,0,0,1.71,1.2,1.2,0,0,0,1.7,0A1.21,1.21,0,0,0,200.6,109.28Z" style="fill:#6d6d6d"/><path d="M200.29,103.58a1.2,1.2,0,1,0,0,1.7A1.2,1.2,0,0,0,200.29,103.58Z" style="fill:#6d6d6d"/><path d="M207,115.41a1.2,1.2,0,1,0,0-1.7A1.2,1.2,0,0,0,207,115.41Z" style="fill:#6d6d6d"/><path d="M227.91,114a1.2,1.2,0,1,0,1.7,0A1.2,1.2,0,0,0,227.91,114Z" style="fill:#6d6d6d"/><path d="M225.54,101.75a1.2,1.2,0,0,0,1.7,0,1.21,1.21,0,0,0,0-1.71,1.2,1.2,0,0,0-1.7,0A1.21,1.21,0,0,0,225.54,101.75Z" style="fill:#6d6d6d"/><path d="M234.47,96.21a1.2,1.2,0,1,0,0-1.7A1.2,1.2,0,0,0,234.47,96.21Z" style="fill:#6d6d6d"/><path d="M235.85,106.16a1.2,1.2,0,1,0,0-1.7A1.2,1.2,0,0,0,235.85,106.16Z" style="fill:#6d6d6d"/><path d="M213.56,79.35a1.21,1.21,0,0,0,1.71,0,1.2,1.2,0,0,0,0-1.7,1.21,1.21,0,0,0-1.71,0A1.2,1.2,0,0,0,213.56,79.35Z" style="fill:#6d6d6d"/><path d="M209,82a1.2,1.2,0,1,0,0-1.7A1.2,1.2,0,0,0,209,82Z" style="fill:#6d6d6d"/><path d="M201,91.57a1.2,1.2,0,1,0,0-1.7A1.2,1.2,0,0,0,201,91.57Z" style="fill:#6d6d6d"/><path d="M224.73,91.54a1.2,1.2,0,1,0,0-1.7A1.2,1.2,0,0,0,224.73,91.54Z" style="fill:#6d6d6d"/><path d="M210.59,98.84a1.21,1.21,0,0,0,1.71,0,1.2,1.2,0,0,0,0-1.7,1.21,1.21,0,0,0-1.71,0A1.2,1.2,0,0,0,210.59,98.84Z" style="fill:#6d6d6d"/><path d="M201.21,100.08a1.2,1.2,0,1,0,0-1.7A1.2,1.2,0,0,0,201.21,100.08Z" style="fill:#6d6d6d"/><path d="M192.33,100.18a1.2,1.2,0,1,0,0,1.7A1.2,1.2,0,0,0,192.33,100.18Z" style="fill:#6d6d6d"/><path d="M221.94,114.43a1.2,1.2,0,1,0,0-1.7A1.2,1.2,0,0,0,221.94,114.43Z" style="fill:#6d6d6d"/></g><g style="opacity:0.8"><path d="M247.63,86.58a1.2,1.2,0,1,0,1.7,0A1.2,1.2,0,0,0,247.63,86.58Z" style="fill:#6d6d6d"/><path d="M245.62,91.49a1.2,1.2,0,1,0,1.7,0A1.2,1.2,0,0,0,245.62,91.49Z" style="fill:#6d6d6d"/><path d="M232.92,89.82a1.2,1.2,0,1,0-1.7,0A1.2,1.2,0,0,0,232.92,89.82Z" style="fill:#6d6d6d"/><path d="M239.62,89.48a1.21,1.21,0,0,0,0-1.71,1.2,1.2,0,0,0-1.7,0,1.21,1.21,0,0,0,0,1.71A1.2,1.2,0,0,0,239.62,89.48Z" style="fill:#6d6d6d"/><path d="M235,98.8a1.21,1.21,0,0,0,0-1.71,1.2,1.2,0,0,0-1.7,0,1.21,1.21,0,0,0,0,1.71A1.2,1.2,0,0,0,235,98.8Z" style="fill:#6d6d6d"/><path d="M238.6,77.39a1.2,1.2,0,1,0-1.7,0A1.2,1.2,0,0,0,238.6,77.39Z" style="fill:#6d6d6d"/><path d="M220.16,89.8a1.2,1.2,0,1,0-1.7,0A1.2,1.2,0,0,0,220.16,89.8Z" style="fill:#6d6d6d"/><path d="M226.84,98.16a1.2,1.2,0,0,0,0-1.7,1.21,1.21,0,0,0-1.71,0,1.2,1.2,0,0,0,0,1.7A1.21,1.21,0,0,0,226.84,98.16Z" style="fill:#6d6d6d"/><path d="M228,110.72a1.2,1.2,0,0,0,1.7,0,1.21,1.21,0,0,0,0-1.71,1.2,1.2,0,0,0-1.7,0A1.21,1.21,0,0,0,228,110.72Z" style="fill:#6d6d6d"/><path d="M239.82,106.06a1.2,1.2,0,1,0,1.7,0A1.2,1.2,0,0,0,239.82,106.06Z" style="fill:#6d6d6d"/><path d="M234.11,106.37a1.2,1.2,0,0,0,0,1.7,1.21,1.21,0,0,0,1.71,0,1.2,1.2,0,0,0,0-1.7A1.21,1.21,0,0,0,234.11,106.37Z" style="fill:#6d6d6d"/><path d="M245.94,99.65a1.21,1.21,0,0,0,0-1.71,1.2,1.2,0,0,0-1.7,0,1.21,1.21,0,0,0,0,1.71A1.2,1.2,0,0,0,245.94,99.65Z" style="fill:#6d6d6d"/><path d="M244.52,78.75a1.2,1.2,0,0,0,1.7,0,1.21,1.21,0,0,0,0-1.71,1.2,1.2,0,0,0-1.7,0A1.21,1.21,0,0,0,244.52,78.75Z" style="fill:#6d6d6d"/><path d="M232.28,81.12a1.2,1.2,0,1,0-1.7,0A1.2,1.2,0,0,0,232.28,81.12Z" style="fill:#6d6d6d"/><path d="M226.74,72.19a1.2,1.2,0,1,0-1.7,0A1.2,1.2,0,0,0,226.74,72.19Z" style="fill:#6d6d6d"/><path d="M236.69,70.81a1.21,1.21,0,0,0,0-1.71,1.2,1.2,0,0,0-1.7,0,1.21,1.21,0,0,0,0,1.71A1.2,1.2,0,0,0,236.69,70.81Z" style="fill:#6d6d6d"/><path d="M209.88,93.09a1.2,1.2,0,1,0-1.7,0A1.2,1.2,0,0,0,209.88,93.09Z" style="fill:#6d6d6d"/><path d="M239.71,54.08a1.2,1.2,0,0,0,0-1.7,1.21,1.21,0,0,0-1.71,0,1.2,1.2,0,0,0,0,1.7A1.21,1.21,0,0,0,239.71,54.08Z" style="fill:#6d6d6d"/><path d="M222.1,105.69a1.21,1.21,0,0,0,0-1.71,1.2,1.2,0,0,0-1.7,0,1.21,1.21,0,0,0,0,1.71A1.2,1.2,0,0,0,222.1,105.69Z" style="fill:#6d6d6d"/><path d="M222.08,81.93a1.2,1.2,0,0,0,0-1.7,1.21,1.21,0,0,0-1.71,0,1.2,1.2,0,0,0,0,1.7A1.21,1.21,0,0,0,222.08,81.93Z" style="fill:#6d6d6d"/><path d="M229.37,96.06a1.2,1.2,0,1,0-1.7,0A1.2,1.2,0,0,0,229.37,96.06Z" style="fill:#6d6d6d"/><path d="M230.61,105.45a1.2,1.2,0,1,0-1.7,0A1.2,1.2,0,0,0,230.61,105.45Z" style="fill:#6d6d6d"/><path d="M230.71,114.33a1.2,1.2,0,1,0,1.7,0A1.2,1.2,0,0,0,230.71,114.33Z" style="fill:#6d6d6d"/><path d="M245,84.72A1.21,1.21,0,0,0,245,83a1.2,1.2,0,0,0-1.7,0,1.21,1.21,0,0,0,0,1.71A1.2,1.2,0,0,0,245,84.72Z" style="fill:#6d6d6d"/></g><g style="opacity:0.7000000000000001"><path d="M206.12,94.13a1.79,1.79,0,0,0,3.45-.95,1.79,1.79,0,1,0-3.45.95Z" style="fill:#8e8e8e"/><path d="M201.63,103.06a1.79,1.79,0,1,0,1.25-2.2A1.79,1.79,0,0,0,201.63,103.06Z" style="fill:#8e8e8e"/><path d="M193,90.26a1.79,1.79,0,1,0,1.25-2.2A1.79,1.79,0,0,0,193,90.26Z" style="fill:#8e8e8e"/><path d="M218,110.64a1.79,1.79,0,1,0,1.25-2.2A1.79,1.79,0,0,0,218,110.64Z" style="fill:#8e8e8e"/><path d="M215.53,77.65a1.79,1.79,0,0,0,3.46-1,1.79,1.79,0,0,0-3.46,1Z" style="fill:#8e8e8e"/><path d="M199.8,80.13a1.79,1.79,0,1,0,1.26-2.21A1.8,1.8,0,0,0,199.8,80.13Z" style="fill:#8e8e8e"/><path d="M217.85,99.71a1.79,1.79,0,1,0,3.45-.95,1.79,1.79,0,0,0-3.45.95Z" style="fill:#8e8e8e"/><path d="M233.48,99.12a1.79,1.79,0,1,0,1.25-2.21A1.79,1.79,0,0,0,233.48,99.12Z" style="fill:#8e8e8e"/><path d="M227.94,113a1.79,1.79,0,1,0,1.26-2.2A1.8,1.8,0,0,0,227.94,113Z" style="fill:#8e8e8e"/><path d="M218.84,61.92a1.79,1.79,0,1,0,3.45-1,1.79,1.79,0,0,0-3.45,1Z" style="fill:#8e8e8e"/><path d="M204.25,63.78a1.79,1.79,0,1,0,1.25-2.2A1.79,1.79,0,0,0,204.25,63.78Z" style="fill:#8e8e8e"/><path d="M193.55,68.46a1.79,1.79,0,1,0,1.26-2.2A1.8,1.8,0,0,0,193.55,68.46Z" style="fill:#8e8e8e"/><path d="M224.31,85.91a1.79,1.79,0,1,0,1.25-2.2A1.79,1.79,0,0,0,224.31,85.91Z" style="fill:#8e8e8e"/><path d="M200.65,85a1.79,1.79,0,1,0,1.25-2.2A1.79,1.79,0,0,0,200.65,85Z" style="fill:#8e8e8e"/><path d="M187.59,79.65a1.79,1.79,0,0,0,3.46-1,1.79,1.79,0,0,0-3.46,1Z" style="fill:#8e8e8e"/><path d="M190,56.89a1.79,1.79,0,1,0-1.26,2.2A1.8,1.8,0,0,0,190,56.89Z" style="fill:#8e8e8e"/><path d="M203.86,113.48a1.79,1.79,0,1,0,1.25-2.21A1.79,1.79,0,0,0,203.86,113.48Z" style="fill:#8e8e8e"/></g><g style="opacity:0.8"><path d="M199.08,76.37a1.2,1.2,0,1,0-1.7,0A1.2,1.2,0,0,0,199.08,76.37Z" style="fill:#6d6d6d"/><path d="M201.09,71.46a1.2,1.2,0,1,0-1.7,0A1.2,1.2,0,0,0,201.09,71.46Z" style="fill:#6d6d6d"/><path d="M213.79,73.12a1.2,1.2,0,1,0,1.7,0A1.2,1.2,0,0,0,213.79,73.12Z" style="fill:#6d6d6d"/><path d="M207.08,73.47a1.2,1.2,0,0,0,0,1.7,1.21,1.21,0,0,0,1.71,0,1.2,1.2,0,0,0,0-1.7A1.21,1.21,0,0,0,207.08,73.47Z" style="fill:#6d6d6d"/><path d="M211.68,64.15a1.2,1.2,0,1,0,1.7,0A1.2,1.2,0,0,0,211.68,64.15Z" style="fill:#6d6d6d"/><path d="M208.11,85.55a1.21,1.21,0,0,0,0,1.71,1.2,1.2,0,0,0,1.7,0,1.21,1.21,0,0,0,0-1.71A1.2,1.2,0,0,0,208.11,85.55Z" style="fill:#6d6d6d"/><path d="M226.54,73.15a1.2,1.2,0,0,0,0,1.7,1.21,1.21,0,0,0,1.71,0,1.2,1.2,0,0,0,0-1.7A1.21,1.21,0,0,0,226.54,73.15Z" style="fill:#6d6d6d"/><path d="M219.87,64.78a1.21,1.21,0,0,0,0,1.71,1.2,1.2,0,0,0,1.7,0,1.21,1.21,0,0,0,0-1.71A1.2,1.2,0,0,0,219.87,64.78Z" style="fill:#6d6d6d"/><path d="M218.71,52.23a1.2,1.2,0,1,0,0,1.7A1.2,1.2,0,0,0,218.71,52.23Z" style="fill:#6d6d6d"/><path d="M206.89,56.88a1.2,1.2,0,1,0-1.7,0A1.2,1.2,0,0,0,206.89,56.88Z" style="fill:#6d6d6d"/><path d="M212.59,56.58a1.21,1.21,0,0,0,0-1.71,1.2,1.2,0,0,0-1.7,0,1.21,1.21,0,0,0,0,1.71A1.2,1.2,0,0,0,212.59,56.58Z" style="fill:#6d6d6d"/><path d="M190.08,71.36a1.2,1.2,0,0,0,0,1.7,1.21,1.21,0,0,0,1.71,0,1.2,1.2,0,0,0,0-1.7A1.21,1.21,0,0,0,190.08,71.36Z" style="fill:#6d6d6d"/><path d="M200.76,63.3a1.2,1.2,0,0,0,0,1.7,1.21,1.21,0,0,0,1.71,0,1.2,1.2,0,0,0,0-1.7A1.21,1.21,0,0,0,200.76,63.3Z" style="fill:#6d6d6d"/><path d="M202.19,84.2a1.2,1.2,0,1,0,0,1.7A1.2,1.2,0,0,0,202.19,84.2Z" style="fill:#6d6d6d"/><path d="M214.43,81.83a1.2,1.2,0,1,0,1.7,0A1.2,1.2,0,0,0,214.43,81.83Z" style="fill:#6d6d6d"/><path d="M220,90.76a1.2,1.2,0,1,0,1.7,0A1.2,1.2,0,0,0,220,90.76Z" style="fill:#6d6d6d"/><path d="M210,92.14a1.2,1.2,0,1,0,1.7,0A1.2,1.2,0,0,0,210,92.14Z" style="fill:#6d6d6d"/><path d="M236.83,69.85a1.2,1.2,0,1,0,1.7,0A1.2,1.2,0,0,0,236.83,69.85Z" style="fill:#6d6d6d"/><path d="M230.89,62a1.2,1.2,0,1,0,1.7,0A1.2,1.2,0,0,0,230.89,62Z" style="fill:#6d6d6d"/><path d="M224.61,57.26a1.2,1.2,0,1,0,1.7,0A1.2,1.2,0,0,0,224.61,57.26Z" style="fill:#6d6d6d"/><path d="M224.63,81a1.21,1.21,0,0,0,0,1.71,1.2,1.2,0,0,0,1.7,0,1.21,1.21,0,0,0,0-1.71A1.2,1.2,0,0,0,224.63,81Z" style="fill:#6d6d6d"/><path d="M217.34,66.88a1.2,1.2,0,1,0,1.7,0A1.2,1.2,0,0,0,217.34,66.88Z" style="fill:#6d6d6d"/><path d="M216.1,57.49a1.21,1.21,0,0,0,0,1.71,1.2,1.2,0,0,0,1.7,0,1.21,1.21,0,0,0,0-1.71A1.2,1.2,0,0,0,216.1,57.49Z" style="fill:#6d6d6d"/><path d="M201.75,78.23a1.2,1.2,0,1,0,1.7,0A1.2,1.2,0,0,0,201.75,78.23Z" style="fill:#6d6d6d"/></g><g style="opacity:0.8"><path d="M219.1,116.23a1.2,1.2,0,1,0-1.7,0A1.2,1.2,0,0,0,219.1,116.23Z" style="fill:#6d6d6d"/><path d="M231.11,94.77a1.2,1.2,0,1,0-1.7,0A1.2,1.2,0,0,0,231.11,94.77Z" style="fill:#6d6d6d"/><path d="M199.1,76.07a1.21,1.21,0,0,0,0,1.71,1.2,1.2,0,0,0,1.7,0,1.21,1.21,0,0,0,0-1.71A1.2,1.2,0,0,0,199.1,76.07Z" style="fill:#6d6d6d"/><path d="M205.82,109.55a1.2,1.2,0,1,0,1.7,0A1.2,1.2,0,0,0,205.82,109.55Z" style="fill:#6d6d6d"/><path d="M214,110.18a1.21,1.21,0,1,0,1.71,0A1.21,1.21,0,0,0,214,110.18Z" style="fill:#6d6d6d"/><path d="M217.49,93.92a1.21,1.21,0,0,0-1.71,0,1.2,1.2,0,0,0,0,1.7,1.21,1.21,0,0,0,1.71,0A1.2,1.2,0,0,0,217.49,93.92Z" style="fill:#6d6d6d"/><path d="M201,102.29a1.21,1.21,0,0,0,0-1.71,1.2,1.2,0,0,0-1.7,0,1.21,1.21,0,0,0,0,1.71A1.2,1.2,0,0,0,201,102.29Z" style="fill:#6d6d6d"/><path d="M206.74,102a1.21,1.21,0,1,0-1.71,0A1.21,1.21,0,0,0,206.74,102Z" style="fill:#6d6d6d"/><path d="M229.45,93.31a1.2,1.2,0,1,0,1.7,0A1.2,1.2,0,0,0,229.45,93.31Z" style="fill:#6d6d6d"/><path d="M235.82,112a1.2,1.2,0,1,0,1.7,0A1.2,1.2,0,0,0,235.82,112Z" style="fill:#6d6d6d"/><path d="M225,107.35a1.2,1.2,0,0,0,0,1.7,1.21,1.21,0,0,0,1.71,0,1.2,1.2,0,0,0,0-1.7A1.21,1.21,0,0,0,225,107.35Z" style="fill:#6d6d6d"/><path d="M214.12,103.59a1.2,1.2,0,1,0,1.7,0A1.2,1.2,0,0,0,214.12,103.59Z" style="fill:#6d6d6d"/><path d="M211.48,112.28a1.21,1.21,0,0,0,0,1.71,1.2,1.2,0,0,0,1.7,0,1.21,1.21,0,0,0,0-1.71A1.2,1.2,0,0,0,211.48,112.28Z" style="fill:#6d6d6d"/><path d="M210.24,102.9a1.2,1.2,0,1,0,1.7,0A1.2,1.2,0,0,0,210.24,102.9Z" style="fill:#6d6d6d"/><path d="M210.14,94a1.2,1.2,0,1,0-1.7,0A1.2,1.2,0,0,0,210.14,94Z" style="fill:#6d6d6d"/></g><g style="opacity:0.8"><path d="M205.48,64.77a1.58,1.58,0,1,0-1.59-1.58A1.58,1.58,0,0,0,205.48,64.77Z" style="fill:#aaa"/><path d="M211.91,62.07a1.58,1.58,0,1,0-1.58-1.58A1.59,1.59,0,0,0,211.91,62.07Z" style="fill:#aaa"/><path d="M222.19,75.44A1.59,1.59,0,1,0,223.77,77,1.59,1.59,0,0,0,222.19,75.44Z" style="fill:#aaa"/><path d="M215.62,69.52a1.59,1.59,0,1,0,1.59,1.59A1.59,1.59,0,0,0,215.62,69.52Z" style="fill:#aaa"/><path d="M228.58,65.13a1.59,1.59,0,1,0,1.58,1.58A1.59,1.59,0,0,0,228.58,65.13Z" style="fill:#aaa"/><path d="M205.32,81.72a1.59,1.59,0,1,0,1.59,1.59A1.59,1.59,0,0,0,205.32,81.72Z" style="fill:#aaa"/><path d="M234,87.34a1.58,1.58,0,1,0,1.58,1.58A1.58,1.58,0,0,0,234,87.34Z" style="fill:#aaa"/><path d="M235.61,73.34a1.59,1.59,0,1,0,1.58,1.59A1.59,1.59,0,0,0,235.61,73.34Z" style="fill:#aaa"/><path d="M246.21,60.57a1.59,1.59,0,1,0-1.58,1.59A1.58,1.58,0,0,0,246.21,60.57Z" style="fill:#aaa"/><path d="M230.88,53.91a1.59,1.59,0,1,0-1.58-1.58A1.58,1.58,0,0,0,230.88,53.91Z" style="fill:#aaa"/><path d="M236.47,58.93a1.59,1.59,0,1,0-1.58-1.58A1.59,1.59,0,0,0,236.47,58.93Z" style="fill:#aaa"/><path d="M201.76,51.74a1.59,1.59,0,1,0,1.59,1.58A1.58,1.58,0,0,0,201.76,51.74Z" style="fill:#aaa"/><path d="M219.21,54.18a1.59,1.59,0,1,0,1.58,1.58A1.59,1.59,0,0,0,219.21,54.18Z" style="fill:#aaa"/><path d="M201.08,75a1.59,1.59,0,1,0-1.58,1.58A1.59,1.59,0,0,0,201.08,75Z" style="fill:#aaa"/><path d="M215.15,105a1.59,1.59,0,1,0,1.58,1.58A1.59,1.59,0,0,0,215.15,105Z" style="fill:#aaa"/><path d="M211.52,97.61a1.58,1.58,0,1,0,1.59,1.58A1.58,1.58,0,0,0,211.52,97.61Z" style="fill:#aaa"/><path d="M201,89.63a1.59,1.59,0,1,0,1.58,1.58A1.59,1.59,0,0,0,201,89.63Z" style="fill:#aaa"/><path d="M246.67,93.84a1.59,1.59,0,1,0,1.59,1.58A1.58,1.58,0,0,0,246.67,93.84Z" style="fill:#aaa"/><path d="M248.5,81a1.59,1.59,0,1,0,1.58,1.59A1.59,1.59,0,0,0,248.5,81Z" style="fill:#aaa"/><path d="M247,70.75a1.59,1.59,0,1,0,1.58,1.58A1.58,1.58,0,0,0,247,70.75Z" style="fill:#aaa"/><path d="M224.93,92.88a1.59,1.59,0,1,0,1.59,1.58A1.58,1.58,0,0,0,224.93,92.88Z" style="fill:#aaa"/><path d="M231.29,72.94a1.58,1.58,0,1,0,1.59,1.58A1.58,1.58,0,0,0,231.29,72.94Z" style="fill:#aaa"/><path d="M238.88,63a1.59,1.59,0,1,0,1.58,1.59A1.59,1.59,0,0,0,238.88,63Z" style="fill:#aaa"/><path d="M206.22,69a1.58,1.58,0,1,0,1.59,1.58A1.58,1.58,0,0,0,206.22,69Z" style="fill:#aaa"/></g><g style="opacity:0.8"><path d="M204.8,82.45a1.21,1.21,0,1,0-1.21,1.2A1.2,1.2,0,0,0,204.8,82.45Z" style="fill:#6d6d6d"/><path d="M202.74,77.56a1.2,1.2,0,1,0-1.2,1.2A1.2,1.2,0,0,0,202.74,77.56Z" style="fill:#6d6d6d"/><path d="M212.9,69.75a1.21,1.21,0,1,0,1.2-1.2A1.21,1.21,0,0,0,212.9,69.75Z" style="fill:#6d6d6d"/><path d="M208.4,74.74a1.21,1.21,0,1,0,1.21-1.2A1.21,1.21,0,0,0,208.4,74.74Z" style="fill:#6d6d6d"/><path d="M205.06,64.9a1.21,1.21,0,1,0,1.21-1.2A1.21,1.21,0,0,0,205.06,64.9Z" style="fill:#6d6d6d"/><path d="M217.67,82.56a1.21,1.21,0,1,0,1.21-1.2A1.21,1.21,0,0,0,217.67,82.56Z" style="fill:#6d6d6d"/><path d="M221.94,60.75a1.2,1.2,0,1,0,1.2-1.2A1.2,1.2,0,0,0,221.94,60.75Z" style="fill:#6d6d6d"/><path d="M211.31,59.56a1.2,1.2,0,1,0,1.2-1.21A1.2,1.2,0,0,0,211.31,59.56Z" style="fill:#6d6d6d"/><path d="M201.6,51.5a1.21,1.21,0,1,0,1.21,1.2A1.2,1.2,0,0,0,201.6,51.5Z" style="fill:#6d6d6d"/><path d="M196.54,63.15a1.2,1.2,0,1,0-1.2,1.2A1.2,1.2,0,0,0,196.54,63.15Z" style="fill:#6d6d6d"/><path d="M200.36,58.9a1.21,1.21,0,1,0-1.21,1.2A1.2,1.2,0,0,0,200.36,58.9Z" style="fill:#6d6d6d"/><path d="M194.89,85.27a1.21,1.21,0,1,0,1.2-1.2A1.2,1.2,0,0,0,194.89,85.27Z" style="fill:#6d6d6d"/><path d="M196.74,72A1.21,1.21,0,1,0,198,70.81,1.21,1.21,0,0,0,196.74,72Z" style="fill:#6d6d6d"/><path d="M212.53,85.79a1.21,1.21,0,1,0,1.2,1.2A1.2,1.2,0,0,0,212.53,85.79Z" style="fill:#6d6d6d"/><path d="M219.51,75.45a1.21,1.21,0,1,0,1.2-1.2A1.21,1.21,0,0,0,219.51,75.45Z" style="fill:#6d6d6d"/><path d="M229.74,77.85a1.21,1.21,0,1,0,1.2-1.2A1.21,1.21,0,0,0,229.74,77.85Z" style="fill:#6d6d6d"/><path d="M223.68,85.87a1.21,1.21,0,1,0,1.2-1.21A1.2,1.2,0,0,0,223.68,85.87Z" style="fill:#6d6d6d"/><path d="M226.88,51.15a1.21,1.21,0,1,0,1.2-1.2A1.2,1.2,0,0,0,226.88,51.15Z" style="fill:#6d6d6d"/><path d="M217.1,49.76a1.2,1.2,0,1,0,1.2-1.2A1.2,1.2,0,0,0,217.1,49.76Z" style="fill:#6d6d6d"/><path d="M209.34,50.89a1.2,1.2,0,1,0,1.2-1.21A1.2,1.2,0,0,0,209.34,50.89Z" style="fill:#6d6d6d"/><path d="M226.15,67.67a1.21,1.21,0,1,0,1.2-1.21A1.2,1.2,0,0,0,226.15,67.67Z" style="fill:#6d6d6d"/><path d="M211,62.83a1.2,1.2,0,1,0,1.2-1.2A1.2,1.2,0,0,0,211,62.83Z" style="fill:#6d6d6d"/><path d="M203.48,57.07a1.21,1.21,0,1,0,1.2-1.2A1.21,1.21,0,0,0,203.48,57.07Z" style="fill:#6d6d6d"/><path d="M198.3,56.11a1.2,1.2,0,1,0-1.2,1.21A1.2,1.2,0,0,0,198.3,56.11Z" style="fill:#6d6d6d"/><path d="M208,81.88a1.2,1.2,0,0,0,2.4,0,1.2,1.2,0,0,0-2.4,0Z" style="fill:#6d6d6d"/></g><g style="opacity:0.8"><path d="M215.15,99.54a1.21,1.21,0,1,0-1.2,1.2A1.21,1.21,0,0,0,215.15,99.54Z" style="fill:#6d6d6d"/><path d="M213.1,94.65a1.21,1.21,0,1,0-1.2,1.2A1.21,1.21,0,0,0,213.1,94.65Z" style="fill:#6d6d6d"/><path d="M223.26,86.84a1.2,1.2,0,1,0,1.2-1.2A1.2,1.2,0,0,0,223.26,86.84Z" style="fill:#6d6d6d"/><path d="M218.76,91.83a1.21,1.21,0,1,0,1.2-1.21A1.2,1.2,0,0,0,218.76,91.83Z" style="fill:#6d6d6d"/><path d="M215.42,82a1.21,1.21,0,1,0,1.2-1.21A1.2,1.2,0,0,0,215.42,82Z" style="fill:#6d6d6d"/><path d="M228,99.65a1.21,1.21,0,1,0,1.2-1.2A1.2,1.2,0,0,0,228,99.65Z" style="fill:#6d6d6d"/><path d="M232.29,77.84a1.21,1.21,0,1,0,1.21-1.21A1.21,1.21,0,0,0,232.29,77.84Z" style="fill:#6d6d6d"/><path d="M221.66,76.64a1.21,1.21,0,1,0,1.21-1.2A1.21,1.21,0,0,0,221.66,76.64Z" style="fill:#6d6d6d"/><path d="M212,68.59a1.2,1.2,0,0,0,0,2.4,1.2,1.2,0,0,0,0-2.4Z" style="fill:#6d6d6d"/><path d="M206.9,80.24a1.21,1.21,0,1,0-1.21,1.2A1.21,1.21,0,0,0,206.9,80.24Z" style="fill:#6d6d6d"/><path d="M210.71,76a1.21,1.21,0,1,0-1.2,1.2A1.21,1.21,0,0,0,210.71,76Z" style="fill:#6d6d6d"/><path d="M205.25,102.36a1.2,1.2,0,1,0,1.2-1.21A1.2,1.2,0,0,0,205.25,102.36Z" style="fill:#6d6d6d"/><path d="M207.1,89.1a1.21,1.21,0,1,0,1.2-1.2A1.21,1.21,0,0,0,207.1,89.1Z" style="fill:#6d6d6d"/><path d="M222.89,102.88a1.2,1.2,0,1,0,1.2,1.2A1.2,1.2,0,0,0,222.89,102.88Z" style="fill:#6d6d6d"/><path d="M229.86,92.54a1.21,1.21,0,1,0,1.21-1.2A1.2,1.2,0,0,0,229.86,92.54Z" style="fill:#6d6d6d"/><path d="M240.1,94.94a1.2,1.2,0,1,0,1.2-1.2A1.2,1.2,0,0,0,240.1,94.94Z" style="fill:#6d6d6d"/><path d="M234,103a1.2,1.2,0,1,0,1.2-1.2A1.2,1.2,0,0,0,234,103Z" style="fill:#6d6d6d"/><path d="M237.23,68.24A1.21,1.21,0,1,0,238.44,67,1.21,1.21,0,0,0,237.23,68.24Z" style="fill:#6d6d6d"/><path d="M232.11,66.85a1.21,1.21,0,1,0,1.2-1.2A1.2,1.2,0,0,0,232.11,66.85Z" style="fill:#6d6d6d"/><path d="M219.69,68a1.21,1.21,0,1,0,1.2-1.2A1.21,1.21,0,0,0,219.69,68Z" style="fill:#6d6d6d"/><path d="M236.5,84.75a1.21,1.21,0,1,0,1.21-1.2A1.21,1.21,0,0,0,236.5,84.75Z" style="fill:#6d6d6d"/><path d="M221.35,79.92a1.21,1.21,0,1,0,1.21-1.2A1.2,1.2,0,0,0,221.35,79.92Z" style="fill:#6d6d6d"/><path d="M213.84,74.16A1.2,1.2,0,1,0,215,73,1.2,1.2,0,0,0,213.84,74.16Z" style="fill:#6d6d6d"/><path d="M207.49,68a1.21,1.21,0,1,0-1.2,1.2A1.2,1.2,0,0,0,207.49,68Z" style="fill:#6d6d6d"/><path d="M217,97.58a1.21,1.21,0,1,0,1.2-1.21A1.2,1.2,0,0,0,217,97.58Z" style="fill:#6d6d6d"/></g><g style="opacity:0.8"><path d="M251.32,99.49a1.2,1.2,0,1,0,0,2.4,1.2,1.2,0,1,0,0-2.4Z" style="fill:#6d6d6d"/><path d="M243.51,89.33a1.21,1.21,0,1,0-1.2-1.2A1.21,1.21,0,0,0,243.51,89.33Z" style="fill:#6d6d6d"/><path d="M248.5,93.83a1.21,1.21,0,1,0-1.2-1.21A1.2,1.2,0,0,0,248.5,93.83Z" style="fill:#6d6d6d"/><path d="M238.66,97.17a1.21,1.21,0,1,0-1.2-1.21A1.21,1.21,0,0,0,238.66,97.17Z" style="fill:#6d6d6d"/><path d="M234.51,80.29a1.2,1.2,0,1,0-1.2-1.2A1.21,1.21,0,0,0,234.51,80.29Z" style="fill:#6d6d6d"/><path d="M233.32,90.92a1.2,1.2,0,1,0-1.21-1.2A1.2,1.2,0,0,0,233.32,90.92Z" style="fill:#6d6d6d"/><path d="M225.26,100.62a1.21,1.21,0,1,0,1.2-1.2A1.21,1.21,0,0,0,225.26,100.62Z" style="fill:#6d6d6d"/><path d="M236.91,105.69a1.2,1.2,0,1,0,1.2,1.2A1.2,1.2,0,0,0,236.91,105.69Z" style="fill:#6d6d6d"/><path d="M232.66,101.87a1.21,1.21,0,1,0,1.2,1.21A1.21,1.21,0,0,0,232.66,101.87Z" style="fill:#6d6d6d"/><path d="M245.78,105.49a1.21,1.21,0,1,0-1.2-1.21A1.21,1.21,0,0,0,245.78,105.49Z" style="fill:#6d6d6d"/><path d="M249.21,82.72a1.21,1.21,0,1,0-1.2-1.2A1.21,1.21,0,0,0,249.21,82.72Z" style="fill:#6d6d6d"/><path d="M251.61,72.49a1.21,1.21,0,1,0-1.2-1.2A1.21,1.21,0,0,0,251.61,72.49Z" style="fill:#6d6d6d"/><path d="M224.91,75.35a1.21,1.21,0,1,0-1.2-1.2A1.2,1.2,0,0,0,224.91,75.35Z" style="fill:#6d6d6d"/><path d="M224.65,92.89a1.2,1.2,0,1,0-1.21-1.2A1.2,1.2,0,0,0,224.65,92.89Z" style="fill:#6d6d6d"/><path d="M241.43,76.08a1.21,1.21,0,1,0-1.21-1.2A1.2,1.2,0,0,0,241.43,76.08Z" style="fill:#6d6d6d"/><path d="M236.59,91.23a1.2,1.2,0,1,0-1.2-1.2A1.2,1.2,0,0,0,236.59,91.23Z" style="fill:#6d6d6d"/><path d="M230.83,98.75a1.21,1.21,0,1,0-1.2-1.2A1.21,1.21,0,0,0,230.83,98.75Z" style="fill:#6d6d6d"/><path d="M224.63,105.09a1.21,1.21,0,1,0,1.2,1.21A1.21,1.21,0,0,0,224.63,105.09Z" style="fill:#6d6d6d"/></g><g style="opacity:0.7000000000000001"><path d="M201.68,83.89a1.79,1.79,0,1,0-2.44.67A1.8,1.8,0,0,0,201.68,83.89Z" style="fill:#8e8e8e"/><path d="M202.63,76.05a1.79,1.79,0,1,0-2.45.67A1.78,1.78,0,0,0,202.63,76.05Z" style="fill:#8e8e8e"/><path d="M221.51,73.42a1.79,1.79,0,1,0,3.12,1.77,1.79,1.79,0,0,0-3.12-1.77Z" style="fill:#8e8e8e"/><path d="M212,76.57a1.79,1.79,0,1,0,2.44-.67A1.79,1.79,0,0,0,212,76.57Z" style="fill:#8e8e8e"/><path d="M215,61.38a1.79,1.79,0,1,0,2.44-.68A1.79,1.79,0,0,0,215,61.38Z" style="fill:#8e8e8e"/><path d="M218.26,93.51a1.79,1.79,0,1,0,2.44-.67A1.78,1.78,0,0,0,218.26,93.51Z" style="fill:#8e8e8e"/><path d="M239.83,68.43a1.79,1.79,0,1,0,2.44-.68A1.79,1.79,0,0,0,239.83,68.43Z" style="fill:#8e8e8e"/><path d="M227,59.06a1.79,1.79,0,1,0,2.45-.68A1.8,1.8,0,0,0,227,59.06Z" style="fill:#8e8e8e"/><path d="M205.21,52.84a1.79,1.79,0,1,0-2.44.67A1.79,1.79,0,0,0,205.21,52.84Z" style="fill:#8e8e8e"/><path d="M213.85,51.31a1.79,1.79,0,1,0-2.44.68A1.79,1.79,0,0,0,213.85,51.31Z" style="fill:#8e8e8e"/><path d="M186.79,80.25a1.79,1.79,0,1,0,2.45-.67A1.79,1.79,0,0,0,186.79,80.25Z" style="fill:#8e8e8e"/><path d="M198.94,64.46a1.8,1.8,0,1,0,2.45-.67A1.8,1.8,0,0,0,198.94,64.46Z" style="fill:#8e8e8e"/><path d="M209.23,93.9a1.79,1.79,0,1,0,.68,2.44A1.79,1.79,0,0,0,209.23,93.9Z" style="fill:#8e8e8e"/><path d="M225.87,85.66a1.79,1.79,0,1,0,2.44-.67A1.8,1.8,0,0,0,225.87,85.66Z" style="fill:#8e8e8e"/><path d="M237.34,96.3a1.79,1.79,0,1,0,2.44-.67A1.79,1.79,0,0,0,237.34,96.3Z" style="fill:#8e8e8e"/><path d="M223.6,102.21a1.79,1.79,0,1,0,2.44-.67A1.79,1.79,0,0,0,223.6,102.21Z" style="fill:#8e8e8e"/><path d="M230.2,47a1.79,1.79,0,1,0,2.44-.67A1.78,1.78,0,0,0,230.2,47Z" style="fill:#8e8e8e"/><path d="M240.19,80.47a1.79,1.79,0,1,0,2.44-.67A1.8,1.8,0,0,0,240.19,80.47Z" style="fill:#8e8e8e"/><path d="M224.14,63.07a1.79,1.79,0,1,0,2.44-.67A1.79,1.79,0,0,0,224.14,63.07Z" style="fill:#8e8e8e"/><path d="M218.66,50.09a1.79,1.79,0,1,0,2.44-.68A1.79,1.79,0,0,0,218.66,50.09Z" style="fill:#8e8e8e"/><path d="M206.24,85.51a1.79,1.79,0,0,0,3.12,1.77,1.79,1.79,0,1,0-3.12-1.77Z" style="fill:#8e8e8e"/></g><g style="opacity:0.8"><path d="M229.1,55.89a1.21,1.21,0,1,0-1.2-1.2A1.2,1.2,0,0,0,229.1,55.89Z" style="fill:#6d6d6d"/><path d="M234,53.84a1.21,1.21,0,1,0-1.2-1.21A1.21,1.21,0,0,0,234,53.84Z" style="fill:#6d6d6d"/><path d="M241.8,64A1.21,1.21,0,1,0,243,65.2,1.2,1.2,0,0,0,241.8,64Z" style="fill:#6d6d6d"/><path d="M236.81,59.5a1.2,1.2,0,1,0,1.2,1.2A1.2,1.2,0,0,0,236.81,59.5Z" style="fill:#6d6d6d"/><path d="M246.65,56.16a1.2,1.2,0,1,0,1.2,1.2A1.2,1.2,0,0,0,246.65,56.16Z" style="fill:#6d6d6d"/><path d="M229,68.77a1.2,1.2,0,1,0,1.2,1.2A1.2,1.2,0,0,0,229,68.77Z" style="fill:#6d6d6d"/><path d="M250.8,73a1.21,1.21,0,1,0,1.2,1.2A1.2,1.2,0,0,0,250.8,73Z" style="fill:#6d6d6d"/><path d="M252,62.4a1.21,1.21,0,1,0,1.21,1.2A1.2,1.2,0,0,0,252,62.4Z" style="fill:#6d6d6d"/><path d="M189.48,64.36a1.21,1.21,0,1,0-1.21,1.21A1.21,1.21,0,0,0,189.48,64.36Z" style="fill:#6d6d6d"/><path d="M224.06,51.58a1.21,1.21,0,1,0-1.2-1.2A1.2,1.2,0,0,0,224.06,51.58Z" style="fill:#6d6d6d"/><path d="M244,56.18a1.2,1.2,0,1,0-1.2-1.2A1.2,1.2,0,0,0,244,56.18Z" style="fill:#6d6d6d"/><path d="M226.28,46a1.21,1.21,0,1,0,1.2,1.21A1.21,1.21,0,0,0,226.28,46Z" style="fill:#6d6d6d"/><path d="M225.76,63.62a1.2,1.2,0,1,0-1.2,1.21A1.2,1.2,0,0,0,225.76,63.62Z" style="fill:#6d6d6d"/><path d="M236.1,70.6a1.21,1.21,0,1,0,1.2,1.21A1.21,1.21,0,0,0,236.1,70.6Z" style="fill:#6d6d6d"/><path d="M233.7,80.83A1.21,1.21,0,1,0,234.9,82,1.21,1.21,0,0,0,233.7,80.83Z" style="fill:#6d6d6d"/><path d="M225.68,74.77A1.21,1.21,0,1,0,226.89,76,1.21,1.21,0,0,0,225.68,74.77Z" style="fill:#6d6d6d"/><path d="M243.88,77.24a1.21,1.21,0,1,0,1.21,1.2A1.2,1.2,0,0,0,243.88,77.24Z" style="fill:#6d6d6d"/><path d="M248.72,62.09a1.21,1.21,0,1,0,1.2,1.2A1.21,1.21,0,0,0,248.72,62.09Z" style="fill:#6d6d6d"/><path d="M229.67,59.09a1.21,1.21,0,1,0,1.2,1.2A1.2,1.2,0,0,0,229.67,59.09Z" style="fill:#6d6d6d"/></g><g style="opacity:0.8"><path d="M192.86,83.85a1.21,1.21,0,1,0-1.21-1.2A1.2,1.2,0,0,0,192.86,83.85Z" style="fill:#6d6d6d"/><path d="M197.75,81.8a1.21,1.21,0,1,0-1.21-1.21A1.21,1.21,0,0,0,197.75,81.8Z" style="fill:#6d6d6d"/><path d="M205.55,92a1.21,1.21,0,1,0,1.21,1.21A1.21,1.21,0,0,0,205.55,92Z" style="fill:#6d6d6d"/><path d="M200.56,87.46a1.21,1.21,0,1,0,1.21,1.2A1.2,1.2,0,0,0,200.56,87.46Z" style="fill:#6d6d6d"/><path d="M210.41,84.12a1.2,1.2,0,1,0,1.2,1.2A1.21,1.21,0,0,0,210.41,84.12Z" style="fill:#6d6d6d"/><path d="M192.74,96.73a1.2,1.2,0,1,0,1.2,1.2A1.2,1.2,0,0,0,192.74,96.73Z" style="fill:#6d6d6d"/><path d="M214.55,101a1.21,1.21,0,1,0,1.21,1.2A1.2,1.2,0,0,0,214.55,101Z" style="fill:#6d6d6d"/><path d="M215.75,90.36a1.21,1.21,0,1,0,1.2,1.2A1.2,1.2,0,0,0,215.75,90.36Z" style="fill:#6d6d6d"/><path d="M229.7,81.31a1.2,1.2,0,1,0-1.2,1.21A1.2,1.2,0,0,0,229.7,81.31Z" style="fill:#6d6d6d"/><path d="M212.16,75.6A1.21,1.21,0,1,0,211,74.39,1.21,1.21,0,0,0,212.16,75.6Z" style="fill:#6d6d6d"/><path d="M216.41,79.41a1.21,1.21,0,1,0-1.21-1.2A1.2,1.2,0,0,0,216.41,79.41Z" style="fill:#6d6d6d"/><path d="M190,74a1.2,1.2,0,1,0,1.2,1.2A1.2,1.2,0,0,0,190,74Z" style="fill:#6d6d6d"/><path d="M203.29,75.8a1.21,1.21,0,1,0,1.2,1.2A1.21,1.21,0,0,0,203.29,75.8Z" style="fill:#6d6d6d"/><path d="M189.52,91.59a1.21,1.21,0,1,0-1.21,1.2A1.21,1.21,0,0,0,189.52,91.59Z" style="fill:#6d6d6d"/><path d="M199.85,98.56a1.21,1.21,0,1,0,1.2,1.21A1.21,1.21,0,0,0,199.85,98.56Z" style="fill:#6d6d6d"/><path d="M217.6,105.93a1.21,1.21,0,1,0,1.2,1.21A1.2,1.2,0,0,0,217.6,105.93Z" style="fill:#6d6d6d"/><path d="M223.69,98a1.21,1.21,0,1,0,1.2,1.21A1.2,1.2,0,0,0,223.69,98Z" style="fill:#6d6d6d"/><path d="M220.49,85.77a1.2,1.2,0,1,0,1.2,1.2A1.21,1.21,0,0,0,220.49,85.77Z" style="fill:#6d6d6d"/><path d="M207.64,105.2a1.21,1.21,0,1,0,1.2,1.21A1.21,1.21,0,0,0,207.64,105.2Z" style="fill:#6d6d6d"/><path d="M212.47,90.05a1.21,1.21,0,1,0,1.2,1.2A1.2,1.2,0,0,0,212.47,90.05Z" style="fill:#6d6d6d"/><path d="M218.23,82.54a1.2,1.2,0,1,0,1.21,1.2A1.2,1.2,0,0,0,218.23,82.54Z" style="fill:#6d6d6d"/><path d="M224.44,76.19a1.21,1.21,0,1,0-1.2-1.2A1.2,1.2,0,0,0,224.44,76.19Z" style="fill:#6d6d6d"/><path d="M193.42,87.05a1.21,1.21,0,1,0,1.21,1.2A1.2,1.2,0,0,0,193.42,87.05Z" style="fill:#6d6d6d"/></g><g style="opacity:0.8"><path d="M200.47,70.81a1.59,1.59,0,1,0-1.59-1.58A1.58,1.58,0,0,0,200.47,70.81Z" style="fill:#aaa"/><path d="M206.91,68.11a1.59,1.59,0,1,0-1.59-1.58A1.58,1.58,0,0,0,206.91,68.11Z" style="fill:#aaa"/><path d="M217.18,81.48a1.59,1.59,0,1,0,1.58,1.58A1.58,1.58,0,0,0,217.18,81.48Z" style="fill:#aaa"/><path d="M210.61,75.56a1.59,1.59,0,1,0,1.59,1.58A1.58,1.58,0,0,0,210.61,75.56Z" style="fill:#aaa"/><path d="M223.57,71.16a1.59,1.59,0,1,0,1.58,1.59A1.59,1.59,0,0,0,223.57,71.16Z" style="fill:#aaa"/><path d="M200.32,87.76a1.59,1.59,0,1,0,1.58,1.58A1.59,1.59,0,0,0,200.32,87.76Z" style="fill:#aaa"/><path d="M229,93.37A1.59,1.59,0,1,0,230.61,95,1.59,1.59,0,0,0,229,93.37Z" style="fill:#aaa"/><path d="M230.6,79.38A1.59,1.59,0,1,0,232.18,81,1.58,1.58,0,0,0,230.6,79.38Z" style="fill:#aaa"/><path d="M241.2,66.61a1.59,1.59,0,1,0-1.58,1.58A1.58,1.58,0,0,0,241.2,66.61Z" style="fill:#aaa"/><path d="M225.87,60a1.59,1.59,0,1,0-1.58-1.59A1.58,1.58,0,0,0,225.87,60Z" style="fill:#aaa"/><path d="M231.46,65a1.59,1.59,0,1,0-1.58-1.59A1.59,1.59,0,0,0,231.46,65Z" style="fill:#aaa"/><path d="M196.76,57.77a1.59,1.59,0,1,0,1.58,1.59A1.59,1.59,0,0,0,196.76,57.77Z" style="fill:#aaa"/><path d="M214.2,60.21a1.59,1.59,0,1,0,1.58,1.59A1.59,1.59,0,0,0,214.2,60.21Z" style="fill:#aaa"/><path d="M196.07,81a1.59,1.59,0,1,0-1.58,1.59A1.58,1.58,0,0,0,196.07,81Z" style="fill:#aaa"/><path d="M209.67,90.18a1.58,1.58,0,1,0,1.59,1.58A1.58,1.58,0,0,0,209.67,90.18Z" style="fill:#aaa"/><path d="M206.52,103.64a1.59,1.59,0,1,0,1.58,1.59A1.59,1.59,0,0,0,206.52,103.64Z" style="fill:#aaa"/><path d="M196,95.66a1.59,1.59,0,1,0,1.58,1.59A1.59,1.59,0,0,0,196,95.66Z" style="fill:#aaa"/><path d="M241.66,99.88a1.58,1.58,0,1,0,1.59,1.58A1.58,1.58,0,0,0,241.66,99.88Z" style="fill:#aaa"/><path d="M243.49,87a1.59,1.59,0,1,0,1.58,1.58A1.58,1.58,0,0,0,243.49,87Z" style="fill:#aaa"/><path d="M242,76.78a1.59,1.59,0,1,0,1.59,1.59A1.59,1.59,0,0,0,242,76.78Z" style="fill:#aaa"/><path d="M219.92,98.91a1.59,1.59,0,1,0,1.59,1.59A1.59,1.59,0,0,0,219.92,98.91Z" style="fill:#aaa"/><path d="M226.29,79a1.59,1.59,0,1,0,1.58,1.58A1.59,1.59,0,0,0,226.29,79Z" style="fill:#aaa"/><path d="M233.87,69.08a1.59,1.59,0,1,0,1.58,1.58A1.59,1.59,0,0,0,233.87,69.08Z" style="fill:#aaa"/><path d="M242,60.73a1.59,1.59,0,1,0-1.58-1.59A1.59,1.59,0,0,0,242,60.73Z" style="fill:#aaa"/><path d="M201.22,75a1.59,1.59,0,1,0,1.58,1.59A1.59,1.59,0,0,0,201.22,75Z" style="fill:#aaa"/></g><g style="opacity:0.8"><path d="M199.79,88.48a1.21,1.21,0,1,0-1.21,1.21A1.21,1.21,0,0,0,199.79,88.48Z" style="fill:#6d6d6d"/><path d="M197.74,83.59a1.21,1.21,0,1,0-1.21,1.21A1.21,1.21,0,0,0,197.74,83.59Z" style="fill:#6d6d6d"/><path d="M207.89,75.79a1.21,1.21,0,1,0,1.21-1.21A1.21,1.21,0,0,0,207.89,75.79Z" style="fill:#6d6d6d"/><path d="M203.4,80.77a1.2,1.2,0,1,0,1.2-1.2A1.21,1.21,0,0,0,203.4,80.77Z" style="fill:#6d6d6d"/><path d="M200.06,70.93a1.2,1.2,0,1,0,1.2-1.2A1.2,1.2,0,0,0,200.06,70.93Z" style="fill:#6d6d6d"/><path d="M212.66,88.6a1.21,1.21,0,1,0,1.21-1.2A1.21,1.21,0,0,0,212.66,88.6Z" style="fill:#6d6d6d"/><path d="M216.93,66.79a1.21,1.21,0,1,0,1.2-1.21A1.2,1.2,0,0,0,216.93,66.79Z" style="fill:#6d6d6d"/><path d="M206.3,65.59a1.2,1.2,0,1,0,1.2-1.2A1.2,1.2,0,0,0,206.3,65.59Z" style="fill:#6d6d6d"/><path d="M196.6,57.53a1.21,1.21,0,1,0,1.2,1.21A1.21,1.21,0,0,0,196.6,57.53Z" style="fill:#6d6d6d"/><path d="M191.53,69.18a1.2,1.2,0,1,0-1.2,1.21A1.2,1.2,0,0,0,191.53,69.18Z" style="fill:#6d6d6d"/><path d="M195.35,64.93a1.21,1.21,0,1,0-1.21,1.21A1.21,1.21,0,0,0,195.35,64.93Z" style="fill:#6d6d6d"/><path d="M189.88,91.3a1.21,1.21,0,1,0,1.21-1.2A1.21,1.21,0,0,0,189.88,91.3Z" style="fill:#6d6d6d"/><path d="M191.74,78.05a1.2,1.2,0,1,0,1.2-1.2A1.21,1.21,0,0,0,191.74,78.05Z" style="fill:#6d6d6d"/><path d="M207.52,91.82A1.21,1.21,0,1,0,208.73,93,1.21,1.21,0,0,0,207.52,91.82Z" style="fill:#6d6d6d"/><path d="M214.5,81.49a1.21,1.21,0,1,0,1.2-1.2A1.2,1.2,0,0,0,214.5,81.49Z" style="fill:#6d6d6d"/><path d="M224.73,83.89a1.21,1.21,0,1,0,1.21-1.2A1.21,1.21,0,0,0,224.73,83.89Z" style="fill:#6d6d6d"/><path d="M218.67,91.9a1.21,1.21,0,1,0,1.21-1.2A1.21,1.21,0,0,0,218.67,91.9Z" style="fill:#6d6d6d"/><path d="M221.87,57.19a1.21,1.21,0,1,0,1.2-1.21A1.2,1.2,0,0,0,221.87,57.19Z" style="fill:#6d6d6d"/><path d="M212.09,55.8a1.2,1.2,0,1,0,1.2-1.21A1.2,1.2,0,0,0,212.09,55.8Z" style="fill:#6d6d6d"/><path d="M204.33,56.92a1.2,1.2,0,1,0,1.2-1.2A1.2,1.2,0,0,0,204.33,56.92Z" style="fill:#6d6d6d"/><path d="M221.14,73.7a1.21,1.21,0,1,0,1.2-1.2A1.21,1.21,0,0,0,221.14,73.7Z" style="fill:#6d6d6d"/><path d="M206,68.87a1.2,1.2,0,0,0,2.4,0,1.2,1.2,0,0,0-2.4,0Z" style="fill:#6d6d6d"/><path d="M198.47,63.11a1.21,1.21,0,1,0,1.21-1.21A1.21,1.21,0,0,0,198.47,63.11Z" style="fill:#6d6d6d"/><path d="M192.13,56.9a1.21,1.21,0,1,0-1.21,1.2A1.2,1.2,0,0,0,192.13,56.9Z" style="fill:#6d6d6d"/><path d="M203,87.92a1.2,1.2,0,1,0,1.2-1.21A1.2,1.2,0,0,0,203,87.92Z" style="fill:#6d6d6d"/></g><g style="opacity:0.8"><path d="M210.14,105.57a1.2,1.2,0,1,0-1.2,1.2A1.2,1.2,0,0,0,210.14,105.57Z" style="fill:#6d6d6d"/><path d="M208.09,100.68a1.21,1.21,0,1,0-1.2,1.2A1.2,1.2,0,0,0,208.09,100.68Z" style="fill:#6d6d6d"/><path d="M218.25,92.87a1.21,1.21,0,1,0,1.2-1.2A1.21,1.21,0,0,0,218.25,92.87Z" style="fill:#6d6d6d"/><path d="M213.75,97.86a1.21,1.21,0,1,0,1.21-1.2A1.21,1.21,0,0,0,213.75,97.86Z" style="fill:#6d6d6d"/><path d="M210.41,88a1.21,1.21,0,1,0,1.2-1.2A1.2,1.2,0,0,0,210.41,88Z" style="fill:#6d6d6d"/><path d="M223,105.69a1.21,1.21,0,1,0,1.2-1.21A1.2,1.2,0,0,0,223,105.69Z" style="fill:#6d6d6d"/><path d="M227.28,83.87a1.21,1.21,0,1,0,1.21-1.2A1.21,1.21,0,0,0,227.28,83.87Z" style="fill:#6d6d6d"/><path d="M216.65,82.68a1.21,1.21,0,1,0,1.21-1.21A1.21,1.21,0,0,0,216.65,82.68Z" style="fill:#6d6d6d"/><path d="M207,74.62a1.21,1.21,0,1,0,1.21,1.21A1.21,1.21,0,0,0,207,74.62Z" style="fill:#6d6d6d"/><path d="M201.89,86.27a1.21,1.21,0,1,0-1.2,1.2A1.2,1.2,0,0,0,201.89,86.27Z" style="fill:#6d6d6d"/><path d="M205.7,82a1.2,1.2,0,1,0-1.2,1.2A1.2,1.2,0,0,0,205.7,82Z" style="fill:#6d6d6d"/><path d="M200.24,108.39a1.21,1.21,0,1,0,1.2-1.2A1.2,1.2,0,0,0,200.24,108.39Z" style="fill:#6d6d6d"/><path d="M202.09,95.14a1.21,1.21,0,1,0,1.21-1.2A1.21,1.21,0,0,0,202.09,95.14Z" style="fill:#6d6d6d"/><path d="M217.88,108.91a1.21,1.21,0,1,0,1.2,1.2A1.2,1.2,0,0,0,217.88,108.91Z" style="fill:#6d6d6d"/><path d="M224.86,98.58a1.2,1.2,0,1,0,1.2-1.21A1.2,1.2,0,0,0,224.86,98.58Z" style="fill:#6d6d6d"/><path d="M235.09,101a1.21,1.21,0,1,0,1.2-1.21A1.2,1.2,0,0,0,235.09,101Z" style="fill:#6d6d6d"/><path d="M229,109a1.2,1.2,0,1,0,1.2-1.2A1.2,1.2,0,0,0,229,109Z" style="fill:#6d6d6d"/><path d="M232.23,74.27a1.2,1.2,0,1,0,1.2-1.2A1.21,1.21,0,0,0,232.23,74.27Z" style="fill:#6d6d6d"/><path d="M227.1,72.88a1.21,1.21,0,1,0,1.21-1.2A1.21,1.21,0,0,0,227.1,72.88Z" style="fill:#6d6d6d"/><path d="M214.68,74a1.21,1.21,0,1,0,1.21-1.21A1.21,1.21,0,0,0,214.68,74Z" style="fill:#6d6d6d"/><path d="M231.5,90.79a1.2,1.2,0,1,0,1.2-1.2A1.2,1.2,0,0,0,231.5,90.79Z" style="fill:#6d6d6d"/><path d="M216.34,86a1.21,1.21,0,1,0,1.21-1.21A1.21,1.21,0,0,0,216.34,86Z" style="fill:#6d6d6d"/><path d="M208.83,80.19A1.21,1.21,0,1,0,210,79,1.21,1.21,0,0,0,208.83,80.19Z" style="fill:#6d6d6d"/><path d="M202.48,74a1.2,1.2,0,1,0-1.2,1.2A1.21,1.21,0,0,0,202.48,74Z" style="fill:#6d6d6d"/><path d="M213.34,105a1.21,1.21,0,1,0,1.21-1.2A1.21,1.21,0,0,0,213.34,105Z" style="fill:#6d6d6d"/></g><g style="opacity:0.8"><path d="M251.2,103.47a1.21,1.21,0,1,0,1.21,1.2A1.2,1.2,0,0,0,251.2,103.47Z" style="fill:#6d6d6d"/><path d="M246.31,105.52a1.21,1.21,0,1,0,1.2,1.2A1.2,1.2,0,0,0,246.31,105.52Z" style="fill:#6d6d6d"/><path d="M238.5,95.36a1.2,1.2,0,1,0-1.2-1.2A1.2,1.2,0,0,0,238.5,95.36Z" style="fill:#6d6d6d"/><path d="M243.49,99.86a1.21,1.21,0,1,0-1.2-1.2A1.21,1.21,0,0,0,243.49,99.86Z" style="fill:#6d6d6d"/><path d="M233.65,103.2a1.21,1.21,0,1,0-1.2-1.2A1.21,1.21,0,0,0,233.65,103.2Z" style="fill:#6d6d6d"/><path d="M251.32,90.59a1.2,1.2,0,1,0-1.21-1.2A1.2,1.2,0,0,0,251.32,90.59Z" style="fill:#6d6d6d"/><path d="M229.5,86.33a1.21,1.21,0,1,0-1.2-1.2A1.21,1.21,0,0,0,229.5,86.33Z" style="fill:#6d6d6d"/><path d="M228.31,97a1.21,1.21,0,1,0-1.21-1.2A1.2,1.2,0,0,0,228.31,97Z" style="fill:#6d6d6d"/><path d="M220.25,106.66a1.21,1.21,0,1,0,1.21-1.2A1.21,1.21,0,0,0,220.25,106.66Z" style="fill:#6d6d6d"/><path d="M231.9,111.72a1.21,1.21,0,1,0,1.21,1.21A1.21,1.21,0,0,0,231.9,111.72Z" style="fill:#6d6d6d"/><path d="M227.65,107.91a1.21,1.21,0,1,0,1.21,1.2A1.2,1.2,0,0,0,227.65,107.91Z" style="fill:#6d6d6d"/><path d="M240.77,111.52a1.21,1.21,0,1,0-1.2-1.2A1.2,1.2,0,0,0,240.77,111.52Z" style="fill:#6d6d6d"/><path d="M244.21,88.76A1.21,1.21,0,1,0,243,87.55,1.21,1.21,0,0,0,244.21,88.76Z" style="fill:#6d6d6d"/><path d="M246.61,78.52a1.2,1.2,0,1,0-1.21-1.2A1.2,1.2,0,0,0,246.61,78.52Z" style="fill:#6d6d6d"/><path d="M254.62,84.59a1.21,1.21,0,1,0-1.2-1.21A1.2,1.2,0,0,0,254.62,84.59Z" style="fill:#6d6d6d"/><path d="M219.9,81.39a1.21,1.21,0,1,0-1.2-1.21A1.21,1.21,0,0,0,219.9,81.39Z" style="fill:#6d6d6d"/><path d="M198.85,53.73a1.2,1.2,0,1,0-1.2-1.2A1.2,1.2,0,0,0,198.85,53.73Z" style="fill:#6d6d6d"/><path d="M219.64,98.93a1.21,1.21,0,1,0-1.2-1.2A1.2,1.2,0,0,0,219.64,98.93Z" style="fill:#6d6d6d"/><path d="M236.42,82.12a1.21,1.21,0,1,0-1.2-1.21A1.21,1.21,0,0,0,236.42,82.12Z" style="fill:#6d6d6d"/><path d="M231.59,97.27a1.21,1.21,0,1,0-1.21-1.2A1.2,1.2,0,0,0,231.59,97.27Z" style="fill:#6d6d6d"/><path d="M225.83,104.78a1.2,1.2,0,1,0-1.21-1.2A1.2,1.2,0,0,0,225.83,104.78Z" style="fill:#6d6d6d"/><path d="M219.62,111.13a1.21,1.21,0,1,0,1.2,1.2A1.21,1.21,0,0,0,219.62,111.13Z" style="fill:#6d6d6d"/><path d="M250.63,100.27a1.21,1.21,0,1,0-1.2-1.2A1.21,1.21,0,0,0,250.63,100.27Z" style="fill:#6d6d6d"/></g><g style="opacity:0.7000000000000001"><path d="M196.68,89.92a1.79,1.79,0,1,0-2.45.67A1.8,1.8,0,0,0,196.68,89.92Z" style="fill:#8e8e8e"/><path d="M197.62,82.08a1.79,1.79,0,1,0-2.44.67A1.79,1.79,0,0,0,197.62,82.08Z" style="fill:#8e8e8e"/><path d="M216.51,79.46a1.79,1.79,0,1,0,2.44-.67A1.79,1.79,0,0,0,216.51,79.46Z" style="fill:#8e8e8e"/><path d="M207,82.6a1.79,1.79,0,1,0,2.44-.67A1.8,1.8,0,0,0,207,82.6Z" style="fill:#8e8e8e"/><path d="M209.94,67.41a1.79,1.79,0,1,0,2.44-.67A1.78,1.78,0,0,0,209.94,67.41Z" style="fill:#8e8e8e"/><path d="M213.25,99.55a1.79,1.79,0,1,0,2.44-.67A1.79,1.79,0,0,0,213.25,99.55Z" style="fill:#8e8e8e"/><path d="M234.82,74.46a1.79,1.79,0,1,0,2.44-.67A1.79,1.79,0,0,0,234.82,74.46Z" style="fill:#8e8e8e"/><path d="M222,65.09a1.79,1.79,0,1,0,2.44-.67A1.79,1.79,0,0,0,222,65.09Z" style="fill:#8e8e8e"/><path d="M215.91,48.11a1.79,1.79,0,1,0,.67,2.45A1.8,1.8,0,0,0,215.91,48.11Z" style="fill:#8e8e8e"/><path d="M200.2,58.88a1.79,1.79,0,1,0-2.44.67A1.8,1.8,0,0,0,200.2,58.88Z" style="fill:#8e8e8e"/><path d="M208.26,56.18a1.79,1.79,0,1,0-2.44.67A1.79,1.79,0,0,0,208.26,56.18Z" style="fill:#8e8e8e"/><path d="M193.93,70.5a1.79,1.79,0,1,0,2.45-.67A1.8,1.8,0,0,0,193.93,70.5Z" style="fill:#8e8e8e"/><path d="M204.23,99.94a1.79,1.79,0,1,0,.67,2.44A1.8,1.8,0,0,0,204.23,99.94Z" style="fill:#8e8e8e"/><path d="M220.86,91.7A1.79,1.79,0,1,0,223.3,91,1.79,1.79,0,0,0,220.86,91.7Z" style="fill:#8e8e8e"/><path d="M232.33,102.33a1.8,1.8,0,1,0,2.45-.67A1.8,1.8,0,0,0,232.33,102.33Z" style="fill:#8e8e8e"/><path d="M218.59,108.24a1.79,1.79,0,1,0,2.45-.67A1.8,1.8,0,0,0,218.59,108.24Z" style="fill:#8e8e8e"/><path d="M248.28,65.68a1.79,1.79,0,1,0,2.44-.67A1.79,1.79,0,0,0,248.28,65.68Z" style="fill:#8e8e8e"/><path d="M236.64,56.68a1.79,1.79,0,1,0,2.45-.67A1.8,1.8,0,0,0,236.64,56.68Z" style="fill:#8e8e8e"/><path d="M225.78,52.42a1.79,1.79,0,1,0,2.44-.67A1.8,1.8,0,0,0,225.78,52.42Z" style="fill:#8e8e8e"/><path d="M235.18,86.51a1.79,1.79,0,1,0,2.44-.67A1.79,1.79,0,0,0,235.18,86.51Z" style="fill:#8e8e8e"/><path d="M219.13,69.1a1.8,1.8,0,1,0,2.45-.67A1.8,1.8,0,0,0,219.13,69.1Z" style="fill:#8e8e8e"/><path d="M213.65,56.12a1.79,1.79,0,1,0,2.44-.67A1.79,1.79,0,0,0,213.65,56.12Z" style="fill:#8e8e8e"/><path d="M201.23,91.54a1.79,1.79,0,1,0,2.45-.67A1.78,1.78,0,0,0,201.23,91.54Z" style="fill:#8e8e8e"/></g><g style="opacity:0.8"><path d="M224.09,61.92a1.2,1.2,0,1,0-1.2-1.2A1.2,1.2,0,0,0,224.09,61.92Z" style="fill:#6d6d6d"/><path d="M229,59.87a1.21,1.21,0,1,0-1.2-1.2A1.21,1.21,0,0,0,229,59.87Z" style="fill:#6d6d6d"/><path d="M236.79,70a1.21,1.21,0,1,0,1.2,1.2A1.2,1.2,0,0,0,236.79,70Z" style="fill:#6d6d6d"/><path d="M231.8,65.53A1.21,1.21,0,1,0,233,66.74,1.21,1.21,0,0,0,231.8,65.53Z" style="fill:#6d6d6d"/><path d="M241.64,62.19a1.21,1.21,0,1,0,1.21,1.21A1.21,1.21,0,0,0,241.64,62.19Z" style="fill:#6d6d6d"/><path d="M224,74.8a1.21,1.21,0,1,0,1.2,1.2A1.21,1.21,0,0,0,224,74.8Z" style="fill:#6d6d6d"/><path d="M245.79,79.06a1.21,1.21,0,1,0,1.2,1.21A1.21,1.21,0,0,0,245.79,79.06Z" style="fill:#6d6d6d"/><path d="M247,68.43a1.21,1.21,0,1,0,1.2,1.21A1.21,1.21,0,0,0,247,68.43Z" style="fill:#6d6d6d"/><path d="M243.39,54.25a1.2,1.2,0,1,0-1.2-1.2A1.21,1.21,0,0,0,243.39,54.25Z" style="fill:#6d6d6d"/><path d="M247.64,57.48a1.2,1.2,0,1,0-1.2-1.2A1.21,1.21,0,0,0,247.64,57.48Z" style="fill:#6d6d6d"/><path d="M221.27,52a1.21,1.21,0,1,0,1.21,1.2A1.2,1.2,0,0,0,221.27,52Z" style="fill:#6d6d6d"/><path d="M234.52,53.87a1.21,1.21,0,1,0,1.21,1.21A1.21,1.21,0,0,0,234.52,53.87Z" style="fill:#6d6d6d"/><path d="M220.75,69.66a1.2,1.2,0,1,0-2.4,0,1.2,1.2,0,1,0,2.4,0Z" style="fill:#6d6d6d"/><path d="M231.09,76.64a1.2,1.2,0,1,0,1.2,1.2A1.21,1.21,0,0,0,231.09,76.64Z" style="fill:#6d6d6d"/><path d="M228.69,86.87a1.21,1.21,0,1,0,1.2,1.2A1.21,1.21,0,0,0,228.69,86.87Z" style="fill:#6d6d6d"/><path d="M220.67,80.81a1.2,1.2,0,1,0,1.21,1.2A1.2,1.2,0,0,0,220.67,80.81Z" style="fill:#6d6d6d"/><path d="M255.39,84a1.2,1.2,0,1,0,1.21,1.2A1.2,1.2,0,0,0,255.39,84Z" style="fill:#6d6d6d"/><path d="M255.66,66.46a1.21,1.21,0,1,0,1.2,1.21A1.21,1.21,0,0,0,255.66,66.46Z" style="fill:#6d6d6d"/><path d="M238.88,83.28a1.2,1.2,0,1,0,1.2,1.2A1.2,1.2,0,0,0,238.88,83.28Z" style="fill:#6d6d6d"/><path d="M243.71,68.12a1.21,1.21,0,1,0,1.2,1.21A1.2,1.2,0,0,0,243.71,68.12Z" style="fill:#6d6d6d"/><path d="M249.47,60.61a1.21,1.21,0,1,0,1.2,1.2A1.2,1.2,0,0,0,249.47,60.61Z" style="fill:#6d6d6d"/><path d="M254.58,66.33a1.21,1.21,0,1,0-1.2-1.2A1.2,1.2,0,0,0,254.58,66.33Z" style="fill:#6d6d6d"/><path d="M224.66,65.12a1.21,1.21,0,1,0,1.2,1.21A1.21,1.21,0,0,0,224.66,65.12Z" style="fill:#6d6d6d"/></g><g style="opacity:0.8"><path d="M187.85,89.88a1.2,1.2,0,1,0-1.21-1.2A1.2,1.2,0,0,0,187.85,89.88Z" style="fill:#6d6d6d"/><path d="M192.74,87.83a1.2,1.2,0,1,0-1.21-1.2A1.2,1.2,0,0,0,192.74,87.83Z" style="fill:#6d6d6d"/><path d="M200.54,98a1.21,1.21,0,1,0,1.21,1.2A1.2,1.2,0,0,0,200.54,98Z" style="fill:#6d6d6d"/><path d="M195.56,93.49a1.21,1.21,0,1,0,1.2,1.21A1.21,1.21,0,0,0,195.56,93.49Z" style="fill:#6d6d6d"/><path d="M205.4,90.15a1.21,1.21,0,1,0,1.2,1.21A1.21,1.21,0,0,0,205.4,90.15Z" style="fill:#6d6d6d"/><path d="M209.55,107a1.2,1.2,0,1,0,1.2,1.2A1.2,1.2,0,0,0,209.55,107Z" style="fill:#6d6d6d"/><path d="M210.74,96.39a1.21,1.21,0,1,0,1.2,1.21A1.21,1.21,0,0,0,210.74,96.39Z" style="fill:#6d6d6d"/><path d="M224.7,87.35a1.21,1.21,0,1,0-1.21,1.2A1.2,1.2,0,0,0,224.7,87.35Z" style="fill:#6d6d6d"/><path d="M207.15,81.63a1.21,1.21,0,1,0-1.21-1.2A1.2,1.2,0,0,0,207.15,81.63Z" style="fill:#6d6d6d"/><path d="M211.4,85.44a1.2,1.2,0,1,0-1.21-1.2A1.2,1.2,0,0,0,211.4,85.44Z" style="fill:#6d6d6d"/><path d="M198.28,81.83a1.21,1.21,0,1,0,1.2,1.21A1.2,1.2,0,0,0,198.28,81.83Z" style="fill:#6d6d6d"/><path d="M194.84,104.6a1.2,1.2,0,1,0,1.21,1.2A1.2,1.2,0,0,0,194.84,104.6Z" style="fill:#6d6d6d"/><path d="M195.86,89.41a1.21,1.21,0,1,0,1.2,1.2A1.21,1.21,0,0,0,195.86,89.41Z" style="fill:#6d6d6d"/><path d="M212.59,112a1.2,1.2,0,0,0,0,2.4,1.2,1.2,0,0,0,0-2.4Z" style="fill:#6d6d6d"/><path d="M220.53,102.18a1.21,1.21,0,1,0,1.21,1.21A1.21,1.21,0,0,0,220.53,102.18Z" style="fill:#6d6d6d"/><path d="M215.48,91.8a1.21,1.21,0,1,0,1.2,1.21A1.21,1.21,0,0,0,215.48,91.8Z" style="fill:#6d6d6d"/><path d="M202.63,111.24a1.2,1.2,0,1,0,1.2,1.2A1.2,1.2,0,0,0,202.63,111.24Z" style="fill:#6d6d6d"/><path d="M207.46,96.08a1.21,1.21,0,1,0,1.21,1.21A1.21,1.21,0,0,0,207.46,96.08Z" style="fill:#6d6d6d"/><path d="M213.22,88.57a1.21,1.21,0,1,0,1.21,1.2A1.2,1.2,0,0,0,213.22,88.57Z" style="fill:#6d6d6d"/><path d="M219.43,82.22a1.2,1.2,0,1,0-1.2-1.2A1.2,1.2,0,0,0,219.43,82.22Z" style="fill:#6d6d6d"/><path d="M188.42,93.08a1.21,1.21,0,1,0,1.2,1.21A1.21,1.21,0,0,0,188.42,93.08Z" style="fill:#6d6d6d"/></g><g style="opacity:0.8"><path d="M236.81,58.25a1.58,1.58,0,1,0,0-2.24A1.58,1.58,0,0,0,236.81,58.25Z" style="fill:#aaa"/><path d="M243.27,60.89a1.58,1.58,0,1,0,0-2.24A1.6,1.6,0,0,0,243.27,60.89Z" style="fill:#aaa"/><path d="M241.09,77.61a1.58,1.58,0,1,0,0,2.24A1.58,1.58,0,0,0,241.09,77.61Z" style="fill:#aaa"/><path d="M240.63,68.78a1.58,1.58,0,1,0,0,2.24A1.58,1.58,0,0,0,240.63,68.78Z" style="fill:#aaa"/><path d="M252.9,74.83a1.58,1.58,0,1,0,0,2.24A1.58,1.58,0,0,0,252.9,74.83Z" style="fill:#aaa"/><path d="M224.72,70.12a1.6,1.6,0,0,0-2.24,0,1.58,1.58,0,1,0,2.24,0Z" style="fill:#aaa"/><path d="M241.05,94.39a1.58,1.58,0,1,0-2.24,2.24,1.58,1.58,0,0,0,2.24-2.24Z" style="fill:#aaa"/><path d="M252.06,85.61a1.58,1.58,0,1,0,0,2.24A1.58,1.58,0,0,0,252.06,85.61Z" style="fill:#aaa"/><path d="M254,60.46a1.58,1.58,0,0,0-2.24,0,1.6,1.6,0,0,0,0,2.24A1.58,1.58,0,0,0,254,60.46Z" style="fill:#aaa"/><path d="M226.51,62.34a1.59,1.59,0,1,0-2.24,0A1.58,1.58,0,0,0,226.51,62.34Z" style="fill:#aaa"/><path d="M215.21,93.53a1.58,1.58,0,1,0,0,2.24A1.58,1.58,0,0,0,215.21,93.53Z" style="fill:#aaa"/><path d="M217.87,85.74a1.58,1.58,0,1,0,0,2.24A1.58,1.58,0,0,0,217.87,85.74Z" style="fill:#aaa"/><path d="M216.06,72.64a1.58,1.58,0,1,0,0,2.24A1.6,1.6,0,0,0,216.06,72.64Z" style="fill:#aaa"/><path d="M245.39,107.93a1.58,1.58,0,1,0,0,2.24A1.58,1.58,0,0,0,245.39,107.93Z" style="fill:#aaa"/><path d="M255.79,100.12a1.58,1.58,0,1,0,0,2.24A1.58,1.58,0,0,0,255.79,100.12Z" style="fill:#aaa"/><path d="M230.7,91.88a1.58,1.58,0,1,0,0,2.24A1.58,1.58,0,0,0,230.7,91.88Z" style="fill:#aaa"/><path d="M249.3,82.27a1.6,1.6,0,0,0-2.24,0,1.58,1.58,0,1,0,2.24,0Z" style="fill:#aaa"/><path d="M234.36,61.75a1.6,1.6,0,0,0-2.24,0,1.58,1.58,0,1,0,2.24,0Z" style="fill:#aaa"/></g><g style="opacity:0.8"><path d="M223.83,70.26a1.2,1.2,0,1,0-1.7,0A1.2,1.2,0,0,0,223.83,70.26Z" style="fill:#6d6d6d"/><path d="M225.84,65.35a1.2,1.2,0,1,0-1.7,0A1.2,1.2,0,0,0,225.84,65.35Z" style="fill:#6d6d6d"/><path d="M238.54,67a1.2,1.2,0,0,0,0,1.7,1.21,1.21,0,0,0,1.71,0,1.2,1.2,0,0,0,0-1.7A1.21,1.21,0,0,0,238.54,67Z" style="fill:#6d6d6d"/><path d="M231.84,67.37a1.2,1.2,0,1,0,1.7,0A1.2,1.2,0,0,0,231.84,67.37Z" style="fill:#6d6d6d"/><path d="M236.43,58a1.21,1.21,0,1,0,1.71,0A1.21,1.21,0,0,0,236.43,58Z" style="fill:#6d6d6d"/><path d="M232.86,79.45a1.2,1.2,0,1,0,1.7,0A1.2,1.2,0,0,0,232.86,79.45Z" style="fill:#6d6d6d"/><path d="M251.3,67a1.2,1.2,0,1,0,1.7,0A1.2,1.2,0,0,0,251.3,67Z" style="fill:#6d6d6d"/><path d="M244.63,58.68a1.2,1.2,0,1,0,1.7,0A1.2,1.2,0,0,0,244.63,58.68Z" style="fill:#6d6d6d"/><path d="M231.65,50.78a1.2,1.2,0,0,0,0-1.7,1.21,1.21,0,0,0-1.71,0,1.2,1.2,0,0,0,0,1.7A1.21,1.21,0,0,0,231.65,50.78Z" style="fill:#6d6d6d"/><path d="M237.35,50.47a1.2,1.2,0,0,0,0-1.7,1.21,1.21,0,0,0-1.71,0,1.2,1.2,0,0,0,0,1.7A1.21,1.21,0,0,0,237.35,50.47Z" style="fill:#6d6d6d"/><path d="M214.84,65.25a1.21,1.21,0,0,0,0,1.71,1.2,1.2,0,0,0,1.7,0,1.21,1.21,0,0,0,0-1.71A1.2,1.2,0,0,0,214.84,65.25Z" style="fill:#6d6d6d"/><path d="M225.52,57.2a1.2,1.2,0,1,0,1.7,0A1.2,1.2,0,0,0,225.52,57.2Z" style="fill:#6d6d6d"/><path d="M226.94,78.1a1.2,1.2,0,1,0,0,1.7A1.2,1.2,0,0,0,226.94,78.1Z" style="fill:#6d6d6d"/><path d="M239.18,75.72a1.2,1.2,0,0,0,0,1.7,1.21,1.21,0,0,0,1.71,0,1.2,1.2,0,0,0,0-1.7A1.21,1.21,0,0,0,239.18,75.72Z" style="fill:#6d6d6d"/><path d="M244.72,84.65a1.21,1.21,0,0,0,0,1.71,1.2,1.2,0,0,0,1.7,0,1.21,1.21,0,0,0,0-1.71A1.2,1.2,0,0,0,244.72,84.65Z" style="fill:#6d6d6d"/><path d="M234.77,86a1.21,1.21,0,0,0,0,1.71,1.2,1.2,0,0,0,1.7,0,1.21,1.21,0,0,0,0-1.71A1.2,1.2,0,0,0,234.77,86Z" style="fill:#6d6d6d"/><path d="M249.38,74.91a1.2,1.2,0,0,0,0,1.7,1.21,1.21,0,0,0,1.71,0,1.2,1.2,0,0,0,0-1.7A1.21,1.21,0,0,0,249.38,74.91Z" style="fill:#6d6d6d"/><path d="M242.09,60.78a1.2,1.2,0,1,0,1.7,0A1.2,1.2,0,0,0,242.09,60.78Z" style="fill:#6d6d6d"/><path d="M240.85,51.39a1.2,1.2,0,1,0,1.7,0A1.2,1.2,0,0,0,240.85,51.39Z" style="fill:#6d6d6d"/><path d="M226.5,72.12a1.21,1.21,0,0,0,0,1.71,1.2,1.2,0,0,0,1.7,0,1.21,1.21,0,0,0,0-1.71A1.2,1.2,0,0,0,226.5,72.12Z" style="fill:#6d6d6d"/></g><g style="opacity:0.8"><path d="M219.07,89.67a1.2,1.2,0,1,0-1.7,0A1.2,1.2,0,0,0,219.07,89.67Z" style="fill:#6d6d6d"/><path d="M221.08,84.76a1.2,1.2,0,1,0-1.7,0A1.2,1.2,0,0,0,221.08,84.76Z" style="fill:#6d6d6d"/><path d="M233.78,86.42a1.2,1.2,0,0,0,0,1.7,1.21,1.21,0,0,0,1.71,0,1.2,1.2,0,0,0,0-1.7A1.21,1.21,0,0,0,233.78,86.42Z" style="fill:#6d6d6d"/><path d="M227.08,86.77a1.2,1.2,0,1,0,1.7,0A1.2,1.2,0,0,0,227.08,86.77Z" style="fill:#6d6d6d"/><path d="M231.67,77.45a1.2,1.2,0,0,0,0,1.7,1.21,1.21,0,0,0,1.71,0,1.2,1.2,0,0,0,0-1.7A1.21,1.21,0,0,0,231.67,77.45Z" style="fill:#6d6d6d"/><path d="M228.1,98.86a1.2,1.2,0,1,0,1.7,0A1.2,1.2,0,0,0,228.1,98.86Z" style="fill:#6d6d6d"/><path d="M246.54,86.45a1.2,1.2,0,1,0,1.7,0A1.2,1.2,0,0,0,246.54,86.45Z" style="fill:#6d6d6d"/><path d="M239.87,78.08a1.21,1.21,0,0,0,0,1.71,1.2,1.2,0,0,0,1.7,0,1.21,1.21,0,0,0,0-1.71A1.2,1.2,0,0,0,239.87,78.08Z" style="fill:#6d6d6d"/><path d="M238.7,65.53a1.2,1.2,0,1,0,0,1.7A1.2,1.2,0,0,0,238.7,65.53Z" style="fill:#6d6d6d"/><path d="M226.89,70.19a1.21,1.21,0,1,0-1.71,0A1.21,1.21,0,0,0,226.89,70.19Z" style="fill:#6d6d6d"/><path d="M232.59,69.88a1.2,1.2,0,0,0,0-1.7,1.21,1.21,0,0,0-1.71,0,1.2,1.2,0,0,0,0,1.7A1.21,1.21,0,0,0,232.59,69.88Z" style="fill:#6d6d6d"/><path d="M210.08,84.66a1.2,1.2,0,1,0,1.7,0A1.2,1.2,0,0,0,210.08,84.66Z" style="fill:#6d6d6d"/><path d="M220.76,76.6a1.2,1.2,0,1,0,1.7,0A1.2,1.2,0,0,0,220.76,76.6Z" style="fill:#6d6d6d"/><path d="M222.18,97.5a1.2,1.2,0,1,0,0,1.7A1.2,1.2,0,0,0,222.18,97.5Z" style="fill:#6d6d6d"/><path d="M234.42,95.13a1.2,1.2,0,0,0,0,1.7,1.21,1.21,0,0,0,1.71,0,1.2,1.2,0,0,0,0-1.7A1.21,1.21,0,0,0,234.42,95.13Z" style="fill:#6d6d6d"/><path d="M240,104.06a1.2,1.2,0,1,0,1.7,0A1.2,1.2,0,0,0,240,104.06Z" style="fill:#6d6d6d"/><path d="M230,105.44a1.2,1.2,0,1,0,1.7,0A1.2,1.2,0,0,0,230,105.44Z" style="fill:#6d6d6d"/><path d="M254.18,78.55a1.2,1.2,0,1,0,1.7,0A1.2,1.2,0,0,0,254.18,78.55Z" style="fill:#6d6d6d"/><path d="M244.6,70.56a1.2,1.2,0,1,0,1.7,0A1.2,1.2,0,0,0,244.6,70.56Z" style="fill:#6d6d6d"/><path d="M244.63,94.32a1.2,1.2,0,1,0,1.7,0A1.2,1.2,0,0,0,244.63,94.32Z" style="fill:#6d6d6d"/><path d="M237.33,80.18a1.21,1.21,0,0,0,0,1.71,1.2,1.2,0,0,0,1.7,0,1.21,1.21,0,0,0,0-1.71A1.2,1.2,0,0,0,237.33,80.18Z" style="fill:#6d6d6d"/><path d="M236.09,70.8a1.2,1.2,0,1,0,1.7,0A1.2,1.2,0,0,0,236.09,70.8Z" style="fill:#6d6d6d"/><path d="M236,61.92a1.2,1.2,0,1,0-1.7,0A1.2,1.2,0,0,0,236,61.92Z" style="fill:#6d6d6d"/><path d="M221.74,89.56a1.21,1.21,0,0,0,0,1.71,1.2,1.2,0,0,0,1.7,0,1.21,1.21,0,0,0,0-1.71A1.2,1.2,0,0,0,221.74,89.56Z" style="fill:#6d6d6d"/></g><g style="opacity:0.8"><path d="M244.74,109.86a1.2,1.2,0,1,0,0,1.7A1.2,1.2,0,0,0,244.74,109.86Z" style="fill:#6d6d6d"/><path d="M246.35,102.51a1.2,1.2,0,0,0,1.7,0,1.21,1.21,0,0,0,0-1.71,1.2,1.2,0,0,0-1.7,0A1.21,1.21,0,0,0,246.35,102.51Z" style="fill:#6d6d6d"/><path d="M246.69,109.21a1.21,1.21,0,0,0,1.71,0,1.2,1.2,0,0,0,0-1.7,1.21,1.21,0,0,0-1.71,0A1.2,1.2,0,0,0,246.69,109.21Z" style="fill:#6d6d6d"/><path d="M237.37,104.62a1.21,1.21,0,1,0,0-1.71A1.21,1.21,0,0,0,237.37,104.62Z" style="fill:#6d6d6d"/><path d="M246.37,89.75a1.2,1.2,0,1,0,0-1.7A1.2,1.2,0,0,0,246.37,89.75Z" style="fill:#6d6d6d"/><path d="M238,96.42a1.2,1.2,0,1,0,0-1.7A1.2,1.2,0,0,0,238,96.42Z" style="fill:#6d6d6d"/><path d="M225.45,97.59a1.2,1.2,0,1,0,1.7,0A1.2,1.2,0,0,0,225.45,97.59Z" style="fill:#6d6d6d"/><path d="M230.11,109.4a1.2,1.2,0,0,0-1.7,0,1.21,1.21,0,0,0,0,1.71,1.2,1.2,0,0,0,1.7,0A1.21,1.21,0,0,0,230.11,109.4Z" style="fill:#6d6d6d"/><path d="M229.8,103.7a1.2,1.2,0,0,0-1.7,0,1.21,1.21,0,0,0,0,1.71,1.2,1.2,0,0,0,1.7,0A1.21,1.21,0,0,0,229.8,103.7Z" style="fill:#6d6d6d"/><path d="M236.82,110.12a1.2,1.2,0,1,0,1.7,0A1.2,1.2,0,0,0,236.82,110.12Z" style="fill:#6d6d6d"/><path d="M243.08,79.47a1.2,1.2,0,1,0,0-1.7A1.2,1.2,0,0,0,243.08,79.47Z" style="fill:#6d6d6d"/><path d="M242,58.83a1.2,1.2,0,1,0,0-1.7A1.2,1.2,0,0,0,242,58.83Z" style="fill:#6d6d6d"/><path d="M230.48,91.69a1.21,1.21,0,0,0,1.71,0,1.2,1.2,0,0,0,0-1.7,1.21,1.21,0,0,0-1.71,0A1.2,1.2,0,0,0,230.48,91.69Z" style="fill:#6d6d6d"/><path d="M254.24,91.67a1.21,1.21,0,1,0,0-1.71A1.21,1.21,0,0,0,254.24,91.67Z" style="fill:#6d6d6d"/><path d="M240.11,99a1.2,1.2,0,1,0,0-1.7A1.2,1.2,0,0,0,240.11,99Z" style="fill:#6d6d6d"/><path d="M230.72,100.2a1.2,1.2,0,1,0,0-1.7A1.2,1.2,0,0,0,230.72,100.2Z" style="fill:#6d6d6d"/><path d="M221.84,100.3a1.2,1.2,0,1,0,0,1.7A1.2,1.2,0,0,0,221.84,100.3Z" style="fill:#6d6d6d"/></g><g style="opacity:0.7000000000000001"><path d="M220.62,69.08a1.79,1.79,0,1,0-2.21-1.25A1.79,1.79,0,0,0,220.62,69.08Z" style="fill:#8e8e8e"/><path d="M226.83,64.21A1.79,1.79,0,1,0,224.62,63,1.8,1.8,0,0,0,226.83,64.21Z" style="fill:#8e8e8e"/><path d="M242,75.7a1.79,1.79,0,1,0,2.2,1.26A1.79,1.79,0,0,0,242,75.7Z" style="fill:#8e8e8e"/><path d="M233.1,71.22a1.79,1.79,0,1,0,2.21,1.25A1.79,1.79,0,0,0,233.1,71.22Z" style="fill:#8e8e8e"/><path d="M245.91,62.54a1.79,1.79,0,1,0,2.2,1.25A1.79,1.79,0,0,0,245.91,62.54Z" style="fill:#8e8e8e"/><path d="M225.53,87.61a1.79,1.79,0,1,0,2.2,1.25A1.79,1.79,0,0,0,225.53,87.61Z" style="fill:#8e8e8e"/><path d="M254.88,69.39a1.79,1.79,0,0,0,1,3.46,1.79,1.79,0,0,0-1-3.46Z" style="fill:#8e8e8e"/><path d="M193.79,60.46a1.79,1.79,0,1,0-1.25,2.2A1.79,1.79,0,0,0,193.79,60.46Z" style="fill:#8e8e8e"/><path d="M251.05,59.82a1.79,1.79,0,1,0-2.2-1.25A1.79,1.79,0,0,0,251.05,59.82Z" style="fill:#8e8e8e"/><path d="M212.66,56a1.79,1.79,0,1,0,2.2,1.25A1.79,1.79,0,0,0,212.66,56Z" style="fill:#8e8e8e"/><path d="M232.41,53.41a1.79,1.79,0,0,0,1,3.45,1.79,1.79,0,1,0-1-3.45Z" style="fill:#8e8e8e"/><path d="M218.88,81.5a1.79,1.79,0,1,0-1.26,2.2A1.8,1.8,0,0,0,218.88,81.5Z" style="fill:#8e8e8e"/><path d="M236.46,87.44a1.79,1.79,0,1,0,2.2,1.25A1.79,1.79,0,0,0,236.46,87.44Z" style="fill:#8e8e8e"/><path d="M237.05,103.07a1.79,1.79,0,1,0,2.21,1.25A1.79,1.79,0,0,0,237.05,103.07Z" style="fill:#8e8e8e"/><path d="M223.16,97.53a1.79,1.79,0,1,0,2.2,1.26A1.79,1.79,0,0,0,223.16,97.53Z" style="fill:#8e8e8e"/><path d="M189,64.89a1.79,1.79,0,1,0,2.2,1.26A1.79,1.79,0,0,0,189,64.89Z" style="fill:#8e8e8e"/><path d="M250.26,93.9a1.79,1.79,0,1,0,2.2,1.25A1.79,1.79,0,0,0,250.26,93.9Z" style="fill:#8e8e8e"/><path d="M251.22,70.24a1.79,1.79,0,1,0,2.2,1.25A1.79,1.79,0,0,0,251.22,70.24Z" style="fill:#8e8e8e"/><path d="M194,56.5A1.79,1.79,0,0,0,193,53,1.79,1.79,0,0,0,194,56.5Z" style="fill:#8e8e8e"/><path d="M222.69,73.45a1.79,1.79,0,1,0,2.21,1.25A1.79,1.79,0,0,0,222.69,73.45Z" style="fill:#8e8e8e"/></g><g style="opacity:0.8"><path d="M203.79,59.18a1.2,1.2,0,1,0,0,1.7A1.2,1.2,0,0,0,203.79,59.18Z" style="fill:#6d6d6d"/><path d="M250.62,77.69a1.21,1.21,0,1,0,0,1.71A1.21,1.21,0,0,0,250.62,77.69Z" style="fill:#6d6d6d"/><path d="M252,71.78a1.2,1.2,0,1,0-1.7,0A1.2,1.2,0,0,0,252,71.78Z" style="fill:#6d6d6d"/><path d="M254.34,84a1.2,1.2,0,1,0,0,1.7A1.2,1.2,0,0,0,254.34,84Z" style="fill:#6d6d6d"/><path d="M245.41,89.56a1.2,1.2,0,1,0,0,1.7A1.2,1.2,0,0,0,245.41,89.56Z" style="fill:#6d6d6d"/><path d="M244,79.61a1.2,1.2,0,1,0,0,1.7A1.2,1.2,0,0,0,244,79.61Z" style="fill:#6d6d6d"/><path d="M255.16,94.22a1.21,1.21,0,0,0-1.71,0,1.2,1.2,0,0,0,0,1.7,1.21,1.21,0,0,0,1.71,0A1.2,1.2,0,0,0,255.16,94.22Z" style="fill:#6d6d6d"/></g><g style="opacity:0.8"><path d="M214.4,62.81a1.2,1.2,0,1,0,0-1.7A1.2,1.2,0,0,0,214.4,62.81Z" style="fill:#6d6d6d"/><path d="M219.31,64.82a1.2,1.2,0,1,0,0-1.7A1.2,1.2,0,0,0,219.31,64.82Z" style="fill:#6d6d6d"/><path d="M217.65,77.52a1.2,1.2,0,1,0,0,1.7A1.2,1.2,0,0,0,217.65,77.52Z" style="fill:#6d6d6d"/><path d="M217.3,70.81a1.2,1.2,0,0,0-1.7,0,1.21,1.21,0,0,0,0,1.71,1.2,1.2,0,0,0,1.7,0A1.21,1.21,0,0,0,217.3,70.81Z" style="fill:#6d6d6d"/><path d="M226.62,75.41a1.2,1.2,0,1,0,0,1.7A1.2,1.2,0,0,0,226.62,75.41Z" style="fill:#6d6d6d"/><path d="M205.21,71.84a1.2,1.2,0,1,0,0,1.7A1.2,1.2,0,0,0,205.21,71.84Z" style="fill:#6d6d6d"/><path d="M217.62,90.27a1.21,1.21,0,1,0,0,1.71A1.21,1.21,0,0,0,217.62,90.27Z" style="fill:#6d6d6d"/><path d="M226,83.6a1.21,1.21,0,1,0,0,1.71A1.21,1.21,0,0,0,226,83.6Z" style="fill:#6d6d6d"/><path d="M242.25,87.07a1.2,1.2,0,1,0-1.7,0A1.2,1.2,0,0,0,242.25,87.07Z" style="fill:#6d6d6d"/><path d="M233.88,70.62a1.21,1.21,0,0,0,1.71,0,1.2,1.2,0,0,0,0-1.7,1.21,1.21,0,0,0-1.71,0A1.2,1.2,0,0,0,233.88,70.62Z" style="fill:#6d6d6d"/><path d="M234.19,76.32a1.2,1.2,0,1,0,0-1.7A1.2,1.2,0,0,0,234.19,76.32Z" style="fill:#6d6d6d"/><path d="M219.41,53.81a1.2,1.2,0,0,0-1.7,0,1.21,1.21,0,0,0,0,1.71,1.2,1.2,0,0,0,1.7,0A1.21,1.21,0,0,0,219.41,53.81Z" style="fill:#6d6d6d"/><path d="M227.47,64.49a1.2,1.2,0,0,0-1.7,0,1.21,1.21,0,0,0,0,1.71,1.2,1.2,0,0,0,1.7,0A1.21,1.21,0,0,0,227.47,64.49Z" style="fill:#6d6d6d"/><path d="M206.57,65.92a1.2,1.2,0,1,0-1.7,0A1.2,1.2,0,0,0,206.57,65.92Z" style="fill:#6d6d6d"/><path d="M208.94,78.16a1.2,1.2,0,1,0,0,1.7A1.2,1.2,0,0,0,208.94,78.16Z" style="fill:#6d6d6d"/><path d="M200,83.7a1.2,1.2,0,1,0,0,1.7A1.2,1.2,0,0,0,200,83.7Z" style="fill:#6d6d6d"/><path d="M198.63,73.75a1.2,1.2,0,1,0,0,1.7A1.2,1.2,0,0,0,198.63,73.75Z" style="fill:#6d6d6d"/><path d="M216.28,95.92a1.2,1.2,0,1,0,0,1.7A1.2,1.2,0,0,0,216.28,95.92Z" style="fill:#6d6d6d"/><path d="M226.19,94.62a1.2,1.2,0,1,0,0,1.7A1.2,1.2,0,0,0,226.19,94.62Z" style="fill:#6d6d6d"/><path d="M232.58,83.7a1.2,1.2,0,0,0-1.7,0,1.21,1.21,0,0,0,0,1.71,1.2,1.2,0,0,0,1.7,0A1.21,1.21,0,0,0,232.58,83.7Z" style="fill:#6d6d6d"/><path d="M209.75,88.36a1.2,1.2,0,1,0,0,1.7A1.2,1.2,0,0,0,209.75,88.36Z" style="fill:#6d6d6d"/><path d="M223.89,81.07a1.21,1.21,0,0,0-1.71,0,1.2,1.2,0,0,0,0,1.7,1.21,1.21,0,0,0,1.71,0A1.2,1.2,0,0,0,223.89,81.07Z" style="fill:#6d6d6d"/><path d="M233.27,79.83a1.2,1.2,0,1,0,0,1.7A1.2,1.2,0,0,0,233.27,79.83Z" style="fill:#6d6d6d"/><path d="M242.15,79.73a1.2,1.2,0,1,0,0-1.7A1.2,1.2,0,0,0,242.15,79.73Z" style="fill:#6d6d6d"/><path d="M212.54,65.48a1.2,1.2,0,1,0,0,1.7A1.2,1.2,0,0,0,212.54,65.48Z" style="fill:#6d6d6d"/></g></g><path d="M255.63,61.61c2,2.16,4.11,44.91-1,47.63s-41.4,10.17-41.4,10.17-1.57-47.63-.37-48.1C215.81,70.12,253.62,59.44,255.63,61.61Z" style="opacity:0.5;fill:url(#linear-gradient)"/><path d="M212.16,119.42s-22.39-12.84-24-18.44-1.2-44.4-1.2-44.4,23.5,12.71,24.42,15S212.16,119.42,212.16,119.42Z" style="fill:#777;opacity:0.4"/><path d="M186.35,55s39.05-11.07,44.53-9.09,25,14.1,25,14.1-38.85,11-44.4,9.62C207.39,68.63,186.35,55,186.35,55Z" style="fill:#d1d1d1;opacity:0.5"/><path d="M229.36,45.29l-42.75,9.2L188,101.12s2,2.59,3.45,3.21c-2.08-7.83-3.31-33.63-1.84-45.08a.71.71,0,0,1,1.08-.5l19,12.07c.84.54,2.56.9,3.1.06s-.25-1.77-1-2.28L192.74,57a.71.71,0,0,1,.13-1.27c10.25-3.81,32.08-8.63,40.86-8.56C231.23,46.06,229.36,45.29,229.36,45.29Z" style="fill:#ccc;opacity:0.5"/><path d="M213.49,74.38l.61,44.5-1.72.61-1.87-45.67c0-.93.43-2.09,1.36-2.09h0C212.87,71.73,213.5,73.37,213.49,74.38Z" style="fill:#5b5b5b;opacity:0.7000000000000001"/><path d="M212.22,73.5l.6,44.5-1.72.62-1.87-45.68c0-.93.43-2.09,1.36-2.09h0C211.59,70.86,212.22,72.5,212.22,73.5Z" style="fill:#9e9e9e;opacity:0.2"/><path d="M214.25,68.37l41.2-9.13L256,61,214.35,71.4c-.91.19-2.14,0-2.34-.88h0C211.81,69.53,213.27,68.57,214.25,68.37Z" style="fill:#a0a0a0;opacity:0.7000000000000001"/><path d="M213.67,69.8,256,60.1v1.62L213.76,72.83c-.91.2-2.14,0-2.33-.88h0C211.22,71,212.69,70,213.67,69.8Z" style="fill:#565656;opacity:0.2"/><path d="M256.54,60.07C254,56.91,234,45.3,230,44.91s-42.17,8-43.73,9.67c-2.58,2.76-.38,45.76,1.59,49.7S206,119,211.72,120.55s43.38-7.56,45.19-10.37C258.58,107.59,259.1,63.22,256.54,60.07Zm-3.28,47.25c-1.63,2.52-35.8,11.54-40.92,10.12s-20.2-12.3-22-15.84-4.11-43.62-1.8-46.09c1.4-1.49,37.82-9.15,41.35-8.79s21.67,10.72,24,13.55S254.75,105,253.26,107.32Z" style="fill:#595959"/><path d="M212.12,70.89c-2.57-.76-21.24-12.78-22.55-13.68s0-2,1.07-1,20.08,12.55,21.72,13.26C213.58,70,212.7,71.06,212.12,70.89Z" style="fill:#fff;opacity:0.2"/><path d="M251,61.38c-.57.19-35.31,9.33-36.86,9.66s-1.45-1.35,0-1.4,34.74-8.15,36.38-8.86C251.77,60.26,251.57,61.19,251,61.38Z" style="fill:#fff;opacity:0.30000000000000004"/></g></svg>