<svg id="Liquid_Label" data-name="Liquid Label" xmlns="http://www.w3.org/2000/svg" viewBox="0 0 143 67"><title>one-view-label-liquid</title><g id="Liquid_Label-2" data-name="Liquid Label"><g id="Label_Back" data-name="Label Back" style="opacity:0.2"><path d="M.4,21.71A117,117,0,0,1,35.61,5.45,134.16,134.16,0,0,1,72.09.63a128.7,128.7,0,0,1,36.12,5.23,99.68,99.68,0,0,1,33.91,17.3l-24,33A58.14,58.14,0,0,0,97.7,49.34a84.88,84.88,0,0,0-45.39,6A61.6,61.6,0,0,0,34.72,66.57Z" style="fill:#fff"/></g><g id="Label" style="opacity:0.7000000000000001"><path d="M45.78,36.27a8.27,8.27,0,0,1-.06.86,4.87,4.87,0,0,0,0,.93,5.12,5.12,0,0,1-.09,1.17c-.06.22-.13.35-.23.39a1.92,1.92,0,0,1-.52.05,5.1,5.1,0,0,0-.69,0l-.75,0q-3.15.11-6.12.1l-4.8,0c-.3,0-.79,0-1.47,0v-.63c.19-4.38.28-8.26.28-11.62q0-3.18-.1-7.07c0-.88,0-2.66-.07-5.32a4.64,4.64,0,0,1,1.47-.17,6.33,6.33,0,0,1,2.34.35c-.05,1.82-.07,3.2-.07,4.13,0,1.12,0,2.82.07,5.11l0,5.07v2.21c0,1.8,0,3.24-.07,4.34v0l1.43-.07,2,0c.72,0,2,0,3.74.14,1.59.09,2.6.14,3,.14A2.83,2.83,0,0,0,45.78,36.27Z" style="fill:#fff"/><path d="M48.82,22a7.53,7.53,0,0,1,1,0c.7.05,1.47.07,2.31.07v.11c0,1,0,2.67-.07,4.86s-.1,4.51-.1,6.79,0,4.06.14,5.74a7.55,7.55,0,0,1-1.47.11H49.42a5.42,5.42,0,0,0-.77,0c0-.67,0-1.7,0-3.08V30.53c0-1.63-.07-2.89-.07-3.78,0-1.61.07-3.18.21-4.72Zm-.14-7.52c1.45,0,2.55.07,3.29.07l.11,4.62a3.13,3.13,0,0,1-1.26.17q-.57,0-.84,0l-.49,0a5.34,5.34,0,0,0-.67,0c0-.35,0-.92-.07-1.72C48.68,16,48.66,15,48.68,14.47Z" style="fill:#fff"/><path d="M64.71,39.46a17.11,17.11,0,0,1-3.25.28,12.47,12.47,0,0,1-1.26,0,7.44,7.44,0,0,1-2.1-.45,3.71,3.71,0,0,1-2.16-2.49,14.15,14.15,0,0,1-.68-4.62,16.83,16.83,0,0,1,1.21-7q1.2-2.57,4.67-2.82c.37,0,.68-.07.91-.07a5.7,5.7,0,0,1,2.56.56,6.94,6.94,0,0,1,1,.58,1.6,1.6,0,0,1,.55.51l0-.81c0-.18,0-.36,0-.54a.84.84,0,0,1,0-.3q.31,0,1,0l2.27,0c0,.84,0,2.13,0,3.85s0,3.55,0,5-.05,2.73-.07,3.76q-.14,6.38-.14,9.66v2.31a10.21,10.21,0,0,1-1.5.1,7.91,7.91,0,0,1-1,0q-.45,0-.45-.12v-.39l-.11-1.43c0-.75-.07-1.38-.07-1.89l.07-4.27C66.2,39,65.69,39.27,64.71,39.46Zm.61-2.77a1.91,1.91,0,0,0,.88-1.41,19.37,19.37,0,0,0,.23-3.56,24.24,24.24,0,0,0-.21-3.64,3.74,3.74,0,0,0-1-2.08,3.93,3.93,0,0,0-2.47-.93q-2.8-.21-3.81,1.79a10.58,10.58,0,0,0-1,4.86,12.51,12.51,0,0,0,.28,2.56,4.39,4.39,0,0,0,1,1.89,2.62,2.62,0,0,0,1.45.73,15.81,15.81,0,0,0,2.52.14A4.72,4.72,0,0,0,65.32,36.69Z" style="fill:#fff"/><path d="M82.88,39.67c0-.44,0-.81,0-1.1s0-.55,0-.76l-.56.39a4.63,4.63,0,0,1-1.58.59,11.56,11.56,0,0,1-4,.74,4.51,4.51,0,0,1-3.26-1.05,2.65,2.65,0,0,1-.73-1.77c-.1-.83-.16-2.15-.18-4V31.65c0-.72,0-1.78.07-3.18s.11-2.73.11-4c0-.61,0-1.35-.07-2.24a15.43,15.43,0,0,1,1.71-.07h1.16c.07.7.1,1.53.1,2.48l0,2.84c0,.93,0,1.61,0,2l0,1c0,.84,0,1.82.1,2.94a3.66,3.66,0,0,0,.47,1.75,2,2,0,0,0,1.21.8,8.88,8.88,0,0,0,1.3.11,3.91,3.91,0,0,0,4.3-4.17c0-.84,0-2.36-.1-4.58,0-1.12-.07-1.86-.07-2.21,0-.63,0-1.52.07-2.69v-.14A7.35,7.35,0,0,1,84,22.13l.62,0c.49,0,.91,0,1.26,0l0,6c0,2.76.07,4.82.07,6.2,0,1.12,0,2.89-.07,5.32a15.52,15.52,0,0,0-1.71.1,4.2,4.2,0,0,0-.44,0l-.54,0C83,39.77,82.88,39.74,82.88,39.67Z" style="fill:#fff"/><path d="M90.12,22a7.5,7.5,0,0,1,1,0c.7.05,1.47.07,2.31.07v.11c0,1,0,2.67-.07,4.86s-.1,4.51-.1,6.79,0,4.06.14,5.74a7.55,7.55,0,0,1-1.47.11H90.72a5.42,5.42,0,0,0-.77,0c0-.67,0-1.7,0-3.08V30.53c0-1.63-.07-2.89-.07-3.78,0-1.61.07-3.18.21-4.72ZM90,14.47c1.45,0,2.54.07,3.29.07l.11,4.62a3.13,3.13,0,0,1-1.26.17q-.57,0-.84,0l-.49,0a5.34,5.34,0,0,0-.67,0c0-.35,0-.92-.07-1.72C90,16,90,15,90,14.47Z" style="fill:#fff"/><path d="M107.62,15.52v-.39c0-.11.61-.17,1.68-.17a9.37,9.37,0,0,1,1.37.07v2.31c0,2.22,0,5.45.14,9.69,0,1,0,2.31.07,3.77s0,3.12,0,5,0,3,0,3.85c-.75,0-1.37.07-1.86.07a9.57,9.57,0,0,1-1.4-.07,4.08,4.08,0,0,1,0-.73,4.24,4.24,0,0,0-.18-1.4,3.63,3.63,0,0,1-.82,1.12,2.34,2.34,0,0,1-1.17.66,6.61,6.61,0,0,1-2.1.32,5.79,5.79,0,0,1-.84,0A5.34,5.34,0,0,1,98.73,38a7,7,0,0,1-1.66-3.4,28.31,28.31,0,0,1-.47-4.92,12.87,12.87,0,0,1,.78-4.84,4,4,0,0,1,2.75-2.44,11.4,11.4,0,0,1,2.94-.35,9.18,9.18,0,0,1,2.07.18,3.25,3.25,0,0,1,1.26.47,3.72,3.72,0,0,1,.87.77,1.7,1.7,0,0,1,.35.58l0-3c0-.6,0-1.14,0-1.62a9.8,9.8,0,0,1,0-1.14,1.55,1.55,0,0,0,0-.44c0-.17,0-.33,0-.47v-.74C107.59,16.14,107.6,15.75,107.62,15.52Zm-3.39,9.17-.67,0a4.13,4.13,0,0,0-2.9.93,4.13,4.13,0,0,0-1.16,2.89,18.76,18.76,0,0,0-.1,2.31,11,11,0,0,0,.57,3.59,3.42,3.42,0,0,0,1.4,1.78,4.79,4.79,0,0,0,2.37.51,3.54,3.54,0,0,0,2.52-.79,3.67,3.67,0,0,0,1.08-2.08,19.23,19.23,0,0,0,.25-3.4,22.35,22.35,0,0,0-.23-3.11,3.23,3.23,0,0,0-.91-1.82A3.31,3.31,0,0,0,104.23,24.69Z" style="fill:#fff"/></g></g></svg>