<svg id="Label_Air_B" data-name="Label Air B" xmlns="http://www.w3.org/2000/svg" xmlns:xlink="http://www.w3.org/1999/xlink" viewBox="0 0 285 141"><defs><linearGradient id="linear-gradient" x1="-903.76" y1="33.35" x2="-813.32" y2="33.35" gradientTransform="matrix(-1, 0, 0, 1, -619.4, 0)" gradientUnits="userSpaceOnUse"><stop offset="0" stop-color="#fff" stop-opacity="0"/><stop offset="1" stop-color="#fff"/></linearGradient><linearGradient id="linear-gradient-2" x1="-903.61" y1="89.22" x2="-820.02" y2="89.22" xlink:href="#linear-gradient"/><linearGradient id="linear-gradient-3" x1="-903.89" y1="75.14" x2="-794" y2="75.14" xlink:href="#linear-gradient"/><linearGradient id="linear-gradient-4" x1="284.22" y1="75.14" x2="174.5" y2="75.14" gradientTransform="matrix(1, 0, 0, 1, 0, 0)" xlink:href="#linear-gradient"/><linearGradient id="linear-gradient-5" x1="284.21" y1="89.22" x2="202.67" y2="89.22" gradientTransform="matrix(1, 0, 0, 1, 0, 0)" xlink:href="#linear-gradient"/><linearGradient id="linear-gradient-6" x1="284.36" y1="33.35" x2="193.75" y2="33.35" gradientTransform="matrix(1, 0, 0, 1, 0, 0)" xlink:href="#linear-gradient"/></defs><title>label-b-air</title><circle id="Backdrop_B" data-name="Backdrop B" cx="222.57" cy="78.52" r="62.18" style="fill:#d1aefb"/><path id="Label_B_Back" data-name="Label B Back" d="M183,94a193.81,193.81,0,0,0-45.9-.5,213.71,213.71,0,0,0-44.32,9.76L80.31,46.87a265.61,265.61,0,0,1,56.57-1.69,237.55,237.55,0,0,1,55,11Z" style="fill:#00bdff"/><g id="Label_B" data-name="Label B"><path d="M117.7,70.23a.49.49,0,0,0-.07.28.69.69,0,0,0,.24.46,20.28,20.28,0,0,1,1.89,2.69,5.3,5.3,0,0,1,.6,2.59,7.49,7.49,0,0,1-.11,1.23,5.22,5.22,0,0,1-2.73,4.13,12.91,12.91,0,0,1-5.67,1.08l-1.68,0c-.65,0-1.14,0-1.47-.07-.93-.07-1.82-.11-2.66-.11a1,1,0,0,1-.45-.07q-.11-2.76-.11-8.26l0-11c0-2.14,0-3.75,0-4.83l0,0a20.39,20.39,0,0,1,5.39-.77,10.32,10.32,0,0,1,6.12,1.7q2.39,1.7,2.38,5.54A10.7,10.7,0,0,1,117.7,70.23Zm-7.18,9.28c.89,0,1.49.07,1.82.07a5.69,5.69,0,0,0,2.4-.44,3.83,3.83,0,0,0,1.63-1.66,2.85,2.85,0,0,0,.28-1.26,5.5,5.5,0,0,0-.39-1.89,2.36,2.36,0,0,0-1.19-1.4,4.18,4.18,0,0,0-1.8-.49l-1.1,0a8.43,8.43,0,0,0-.91,0c-.26,0-1.09,0-2.49.07a4,4,0,0,0-.31,2,37.87,37.87,0,0,0,.45,5C109.47,79.44,110,79.49,110.52,79.51Zm0-10.29c.89,0,1.46.07,1.72.07a5.38,5.38,0,0,0,2.34-.4,2.76,2.76,0,0,0,1.26-1.46,4.77,4.77,0,0,0,.56-2.27,5.33,5.33,0,0,0-.1-1A3.16,3.16,0,0,0,115,61.89a5.49,5.49,0,0,0-2.8-.76c-.24,0-.6,0-1.09,0a5.86,5.86,0,0,0-2.45.31l0,1-.07,2.45v1.43a12.64,12.64,0,0,0,.21,2.8Z" style="fill:#fff"/><path d="M126.38,70.79l-2.7,0h-.1a10.06,10.06,0,0,1-.11-1.61l0-1.72c0-.21,0-.45,0-.73a4.8,4.8,0,0,1,1.68-.25,4.26,4.26,0,0,1,1.44.18c0,.12,0,.75-.11,1.89s-.1,1.88-.1,2.2v.07Zm0,11.76-2.66,0h-.1a10.06,10.06,0,0,1-.11-1.61l0-1.72c0-.21,0-.45,0-.73a4.8,4.8,0,0,1,1.68-.25,3.89,3.89,0,0,1,1.4.18c0,.12,0,.75-.1,1.89s-.11,1.88-.11,2.2v.07Z" style="fill:#fff"/><path d="M146.26,57.88q3.47,15.23,5.49,24.64v0a7.48,7.48,0,0,1-1.5.14,9.34,9.34,0,0,1-1.61-.21h0c-.16-.46-.38-1.27-.66-2.41-.35-1.38-.67-2.51-.95-3.4-1.07,0-2.48-.07-4.23-.07h-1.47s-.09.51-.25,1.44c-.21,1.28-.41,2.34-.59,3.17s-.4,1.26-.63,1.31a1.23,1.23,0,0,1-.35,0l-.93,0q-.69,0-1.56,0h-.38v0a11.19,11.19,0,0,0,.31-1.85q.87-5.53,2.05-11.22a90.2,90.2,0,0,1,3.13-11.36,4.17,4.17,0,0,1,.56,0h.77C144.33,58,145.28,58,146.26,57.88Zm-3.19,16q2.24,0,4,0-2-11-2.34-11.41a1.78,1.78,0,0,0-.53-.11c-.28,0-.51.23-.7.69a21.62,21.62,0,0,0-.77,3.06c-.33,1.59-.71,3.59-1.15,6l-.32,1.75h.7C142.42,73.84,142.79,73.85,143.07,73.87Z" style="fill:#fff"/><path d="M154.55,64.88a7.5,7.5,0,0,1,1,0c.7.05,1.47.07,2.31.07v.1c0,1,0,2.68-.07,4.87s-.1,4.5-.1,6.79,0,4.06.14,5.74a7.72,7.72,0,0,1-1.47.1h-1.19a4.81,4.81,0,0,0-.77,0c0-.68,0-1.7,0-3.08V73.42c0-1.63-.07-2.89-.07-3.78,0-1.61.07-3.19.21-4.73Zm-.14-7.53c1.45,0,2.54.07,3.29.07l.11,4.62a3.09,3.09,0,0,1-1.26.18,5.79,5.79,0,0,1-.84,0h-.49a5.14,5.14,0,0,0-.67,0c0-.35,0-.92-.07-1.71C154.41,58.93,154.39,57.89,154.41,57.35Z" style="fill:#fff"/><path d="M164.74,65.16c0,.28,0,.5,0,.65s0,.33,0,.54a6.57,6.57,0,0,1,.68-.32l1-.35a9,9,0,0,1,1.94-.4,19.72,19.72,0,0,1,2-.12c.56,0,.84,0,.84.07l0,2.9a9.14,9.14,0,0,0,0,1.05,11.19,11.19,0,0,0-1.19-.38,7.46,7.46,0,0,0-1.68-.18,9.83,9.83,0,0,0-2.14.28,2.27,2.27,0,0,0-1.33.74,3.25,3.25,0,0,0-.31,1.85q.14,4.8.14,10.89v.14a5.59,5.59,0,0,1-1.23.14l-.79,0c-.36,0-.73,0-1.1,0l0-6q-.08-4.12-.07-6.2c0-1.12,0-2.89.07-5.32a4.57,4.57,0,0,0,.75,0l.72,0c.28,0,.65,0,1.12,0S164.74,65.11,164.74,65.16Z" style="fill:#fff"/></g><g id="Air_B" data-name="Air B"><path d="M284.07,49c-3.42.24-6.8.42-10.19.56s-6.78.21-10.16.24c-6.76,0-13.52-.14-20.22-.71-3.34-.29-6.68-.64-10-1.13S227,46.79,223.79,46a63.65,63.65,0,0,1-9.16-2.95,26.59,26.59,0,0,1-7.55-4.51,12.55,12.55,0,0,1-1.34-1.4c-.18-.25-.39-.48-.54-.74L205,36l-.27-.45a15.71,15.71,0,0,1-1.59-3.69,10,10,0,0,1,.45-6.86,12.42,12.42,0,0,1,4.81-5.39,13.16,13.16,0,0,1,7.56-1.95,11.61,11.61,0,0,1,7.32,3.06,6.91,6.91,0,0,1,2.54,6.85,6.84,6.84,0,0,1-5.88,5.21,7.66,7.66,0,0,1-4.45-1,14,14,0,0,1-3.78-3.29,13.38,13.38,0,0,0,3.12,4.21,9.63,9.63,0,0,0,2.31,1.52,8.68,8.68,0,0,0,2.77.75,9.13,9.13,0,0,0,5.72-1.4,10.33,10.33,0,0,0,4.57-11,13.27,13.27,0,0,0-2.8-5.67,18,18,0,0,0-10.49-6.21,20.7,20.7,0,0,0-12.3,1.58,18.58,18.58,0,0,0-9.25,9,16.71,16.71,0,0,0-1.55,6.62,19.26,19.26,0,0,0,1,6.52A23.72,23.72,0,0,0,197.4,40l.41.63.47.67c.32.46.68.87,1,1.29a20.74,20.74,0,0,0,2.27,2.23A33.61,33.61,0,0,0,211.7,50.5a69.83,69.83,0,0,0,10.46,2.86c3.49.7,7,1.2,10.46,1.57s6.94.68,10.41.87c13.84.83,27.66.45,41.33.11Z" style="opacity:0.8;fill:url(#linear-gradient)"/><path d="M284.21,59.22c-1.71.21-3.57.36-5.41.52l-5.54.42c-3.71.29-7.43.57-11.14.94a217.28,217.28,0,0,0-22.26,3.09q-2.78.54-5.55,1.22c-1.85.44-3.7,1-5.54,1.51a59.06,59.06,0,0,0-10.88,4.43,32.06,32.06,0,0,0-9.69,7.78,24.32,24.32,0,0,0-5.29,12,23.7,23.7,0,0,0,1.9,13.1A26.23,26.23,0,0,0,213,114.44a23.22,23.22,0,0,0,12.6,4.74,20.15,20.15,0,0,0,7-.83,20.56,20.56,0,0,0,6.19-3.1,23.26,23.26,0,0,0,4.79-4.66,19.19,19.19,0,0,0,3.18-6.1,16.81,16.81,0,0,0,.63-6.94,15.84,15.84,0,0,0-2.28-6.44,14.67,14.67,0,0,0-4.72-4.75,12.21,12.21,0,0,0-6.31-1.84,11.41,11.41,0,0,0-6,1.72,13.82,13.82,0,0,0-4.08,4,16.44,16.44,0,0,1,4.88-2.16,9,9,0,0,1,4.74.06,9.33,9.33,0,0,1,6,5.81,10.24,10.24,0,0,1-.33,7.85,13.1,13.1,0,0,1-2.3,3.32,17.24,17.24,0,0,1-3.3,2.67,12.38,12.38,0,0,1-7.51,1.87,15.28,15.28,0,0,1-7.64-2.82,17.88,17.88,0,0,1-5.64-6.45,14.58,14.58,0,0,1-1.56-8.22,15.69,15.69,0,0,1,3.34-7.87,25.49,25.49,0,0,1,7.15-6c5.69-3.33,12.51-5.36,19.43-6.53a105.9,105.9,0,0,1,10.56-1.18c3.55-.26,7.13-.31,10.71-.29s7.16.2,10.75.48c1.8.12,3.6.31,5.41.48l5.53.63Z" style="opacity:0.8;fill:url(#linear-gradient-2)"/><g style="opacity:0.8"><path d="M284.21,57.44c-13.73.73-27.46.53-41.21.28-6.87-.16-13.76-.29-20.68-.26A152.4,152.4,0,0,0,201.4,58.8a70.07,70.07,0,0,0-10.49,2.36c-.87.28-1.74.55-2.59.89l-1.3.48c-.44.19-.89.37-1.33.58a23.83,23.83,0,0,0-5.09,3.13,18.14,18.14,0,0,0-4.11,4.82,15.43,15.43,0,0,0-2,6.28A14.93,14.93,0,0,0,179,89.25a13.27,13.27,0,0,0,5.68,3.2,12.18,12.18,0,0,0,6.43-.1,14.43,14.43,0,0,0,5.29-2.87,9.61,9.61,0,0,0,3.34-5.17,7.88,7.88,0,0,0-1-6,8.3,8.3,0,0,0-4.5-3.53,7.18,7.18,0,0,0-5.45.45A10.2,10.2,0,0,0,185,78.85,9.71,9.71,0,0,1,189.08,76a6,6,0,0,1,4.6.26,6.41,6.41,0,0,1,3,3.2,5.21,5.21,0,0,1,.12,4,6.26,6.26,0,0,1-2.69,3,10,10,0,0,1-4,1.45,6.9,6.9,0,0,1-3.74-.59A7.76,7.76,0,0,1,183.5,85a9.35,9.35,0,0,1-2.08-7,10.37,10.37,0,0,1,3.65-6.5A17.7,17.7,0,0,1,188.62,69c.32-.18.67-.33,1-.5l1.1-.49c.72-.33,1.48-.61,2.24-.9a64.92,64.92,0,0,1,9.47-2.7,161.19,161.19,0,0,1,20.08-2.79c6.81-.6,13.67-.93,20.53-1.29C256.78,59.74,270.55,59.05,284.21,57.44Z" style="fill:url(#linear-gradient-3)"/></g><path d="M217,59.86A142.07,142.07,0,0,0,202,62.19a65.58,65.58,0,0,0-9.82,2.8l-.31.12c-.68.25-1.38.52-2,.82l-1.1.49-.12,0-.31.16c-.26.12-.51.25-.75.38a20,20,0,0,0-4,2.75,12.6,12.6,0,0,0-4.4,7.92,11.67,11.67,0,0,0,2.56,8.74,10.28,10.28,0,0,0,3.76,3,9.31,9.31,0,0,0,4.92.78,9.72,9.72,0,0,1-2.64.36,9.38,9.38,0,0,1-2.44-.31,11,11,0,0,1-4.68-2.64,12.63,12.63,0,0,1-3.76-10,13,13,0,0,1,1.66-5.32A15.71,15.71,0,0,1,182.07,68a21.22,21.22,0,0,1,4.59-2.82l.05,0c.26-.13.52-.23.78-.34l.4-.17,1.27-.48c.7-.27,1.42-.5,2.19-.75l.25-.08a69.27,69.27,0,0,1,10.13-2.28A133.15,133.15,0,0,1,217,59.86m67.17-2.42h0Zm0,0c-7.12.38-14.25.51-21.38.51-6.61,0-13.22-.11-19.83-.23-6.16-.14-12.33-.26-18.53-.26h-2.15A152.4,152.4,0,0,0,201.4,58.8a70.07,70.07,0,0,0-10.49,2.36c-.87.28-1.74.55-2.59.89l-1.3.48c-.44.19-.89.37-1.33.58a23.83,23.83,0,0,0-5.09,3.13,18.14,18.14,0,0,0-4.11,4.82,15.43,15.43,0,0,0-2,6.28A14.93,14.93,0,0,0,179,89.25a13.27,13.27,0,0,0,5.68,3.2,12,12,0,0,0,6.43-.1,14.43,14.43,0,0,0,5.29-2.87,9.61,9.61,0,0,0,3.34-5.17,7.88,7.88,0,0,0-1-6,8.3,8.3,0,0,0-4.5-3.53,7,7,0,0,0-2.16-.34,7.22,7.22,0,0,0-3.29.79A10.2,10.2,0,0,0,185,78.85,9.71,9.71,0,0,1,189.08,76a6,6,0,0,1,2-.34,5.91,5.91,0,0,1,2.6.6,6.41,6.41,0,0,1,3,3.2,5.21,5.21,0,0,1,.12,4,6.26,6.26,0,0,1-2.69,3,10,10,0,0,1-4,1.45,7.89,7.89,0,0,1-.84,0,6.87,6.87,0,0,1-2.9-.64A7.76,7.76,0,0,1,183.5,85a9.35,9.35,0,0,1-2.08-7,10.37,10.37,0,0,1,3.65-6.5A17.7,17.7,0,0,1,188.62,69c.32-.18.67-.33,1-.5l1.1-.49c.72-.33,1.48-.61,2.24-.9a64.92,64.92,0,0,1,9.47-2.7,161.19,161.19,0,0,1,20.08-2.79c6.81-.6,13.67-.93,20.53-1.29,13.74-.63,27.51-1.32,41.17-2.93Z" style="fill:url(#linear-gradient-4)"/><path d="M281.9,61.79V69.3l-3-.35-1.38-.13c-1.33-.13-2.71-.26-4.06-.35-3.47-.27-7-.43-10.92-.49h-1.18c-3.8,0-6.88.09-9.68.29-3.65.23-7.28.64-10.8,1.22-8,1.35-14.81,3.64-20.22,6.82a27.42,27.42,0,0,0-7.79,6.56,18.11,18.11,0,0,0-3.83,9,16.85,16.85,0,0,0,1.79,9.51,20,20,0,0,0,6.4,7.32A17.4,17.4,0,0,0,226,112c.37,0,.74,0,1.11,0a14.64,14.64,0,0,0,7.79-2.25,19.23,19.23,0,0,0,3.78-3.06,15.39,15.39,0,0,0,2.7-3.92,12.59,12.59,0,0,0,.41-9.64,12.12,12.12,0,0,0-4.22-5.61,9.86,9.86,0,0,1,1.59.8,12.31,12.31,0,0,1,4,4,13.78,13.78,0,0,1,1.94,5.49,14.59,14.59,0,0,1-.55,6,16.81,16.81,0,0,1-2.8,5.36,21,21,0,0,1-4.31,4.2,18,18,0,0,1-5.51,2.75,17.51,17.51,0,0,1-5.18.77q-.5,0-1,0a20.84,20.84,0,0,1-11.34-4.28,24.13,24.13,0,0,1-7.46-9.34,21.62,21.62,0,0,1-1.72-11.84A22,22,0,0,1,210,80.59a29.77,29.77,0,0,1,9-7.21,55.32,55.32,0,0,1,10.46-4.24c1.84-.57,3.66-1.06,5.42-1.48s3.64-.85,5.44-1.19a212.34,212.34,0,0,1,22-3.06c3.28-.33,6.63-.59,9.87-.84l1.21-.1,5.57-.42.43,0,2.47-.22m2.31-2.57c-1.71.21-3.57.36-5.41.52l-5.54.42c-3.71.29-7.43.57-11.14.94a217.28,217.28,0,0,0-22.26,3.09q-2.78.54-5.55,1.22c-1.85.44-3.7,1-5.54,1.51a59.06,59.06,0,0,0-10.88,4.43,32.06,32.06,0,0,0-9.69,7.78,24.32,24.32,0,0,0-5.29,12,23.7,23.7,0,0,0,1.9,13.1A26.23,26.23,0,0,0,213,114.44a23.22,23.22,0,0,0,12.6,4.74c.37,0,.75,0,1.12,0a20,20,0,0,0,5.86-.86,20.56,20.56,0,0,0,6.19-3.1,23.26,23.26,0,0,0,4.79-4.66,19.19,19.19,0,0,0,3.18-6.1,16.64,16.64,0,0,0,.62-6.94,15.68,15.68,0,0,0-2.27-6.44,14.67,14.67,0,0,0-4.72-4.75,12.23,12.23,0,0,0-6.29-1.84h0a11.34,11.34,0,0,0-5.94,1.72,13.82,13.82,0,0,0-4.08,4,16.44,16.44,0,0,1,4.88-2.16,9.89,9.89,0,0,1,2.33-.28,8.31,8.31,0,0,1,2.41.34,9.33,9.33,0,0,1,6,5.81,10.24,10.24,0,0,1-.33,7.85,13.1,13.1,0,0,1-2.3,3.32,17.24,17.24,0,0,1-3.3,2.67,12.45,12.45,0,0,1-6.58,1.91c-.31,0-.62,0-.93,0a15.28,15.28,0,0,1-7.64-2.82,17.88,17.88,0,0,1-5.64-6.45,14.58,14.58,0,0,1-1.56-8.22,15.69,15.69,0,0,1,3.34-7.87,25.49,25.49,0,0,1,7.15-6c5.69-3.33,12.51-5.36,19.43-6.53a105.9,105.9,0,0,1,10.56-1.18c3.17-.23,6.35-.3,9.54-.3h1.17c3.58,0,7.16.2,10.75.48,1.8.12,3.6.31,5.41.48l5.53.63V59.22Z" style="fill:url(#linear-gradient-5)"/><path d="M213.26,12.71h0a16.69,16.69,0,0,1,3.17.29,15.67,15.67,0,0,1,9.13,5.4,11,11,0,0,1,2.33,4.68,8.12,8.12,0,0,1,.17,1.3A10,10,0,0,0,224.77,19,13.9,13.9,0,0,0,216,15.38c-.27,0-.55,0-.82,0a15.57,15.57,0,0,0-8.1,2.33,14.68,14.68,0,0,0-5.7,6.42,12.23,12.23,0,0,0-.56,8.4,18.31,18.31,0,0,0,1.82,4.25l.27.46.07.11.23.34a5.67,5.67,0,0,0,.5.69l.14.19.07.08a15.38,15.38,0,0,0,1.56,1.65,28.69,28.69,0,0,0,8.21,4.92,64.59,64.59,0,0,0,9.51,3.07c3.11.76,6.36,1.39,9.94,1.94,3,.44,6.18.81,10.12,1.15,7.39.63,14.79.71,20.45.72,3.26,0,6.7-.12,10.23-.25,2.75-.11,5.35-.25,7.88-.4l.09,2.23c-6.74.17-13.69.33-20.55.33s-12.71-.16-18.24-.49c-3.45-.19-6.91-.48-10.3-.86-3.67-.4-7-.9-10.24-1.54a66,66,0,0,1-10.11-2.76,31.29,31.29,0,0,1-9.44-5.25,19.6,19.6,0,0,1-2-2l-.17-.21c-.26-.3-.5-.6-.72-.91l-.45-.63-.37-.57a22.17,22.17,0,0,1-2.42-5.08,17.35,17.35,0,0,1-.86-5.74,14.32,14.32,0,0,1,1.35-5.71,16.11,16.11,0,0,1,8.1-7.85,18.92,18.92,0,0,1,7.74-1.7m0-2.32a21,21,0,0,0-8.7,1.91,18.58,18.58,0,0,0-9.25,9,16.71,16.71,0,0,0-1.55,6.62,19.26,19.26,0,0,0,1,6.52A23.72,23.72,0,0,0,197.4,40l.41.63.47.67c.32.46.68.87,1,1.29a20.74,20.74,0,0,0,2.27,2.23A33.61,33.61,0,0,0,211.7,50.5a69.83,69.83,0,0,0,10.46,2.86c3.49.7,7,1.2,10.46,1.57s6.94.68,10.41.87c6.13.37,12.26.5,18.37.5,7.68,0,15.34-.2,23-.39l-.29-7c-3.42.24-6.8.42-10.19.56s-6.78.21-10.16.24c-6.76,0-13.52-.14-20.22-.71-3.34-.29-6.68-.64-10-1.13S227,46.79,223.79,46a63.65,63.65,0,0,1-9.16-2.95,26.59,26.59,0,0,1-7.55-4.51,12.55,12.55,0,0,1-1.34-1.4c-.18-.25-.39-.48-.54-.74L205,36l-.27-.45a15.71,15.71,0,0,1-1.59-3.69,10,10,0,0,1,.45-6.86,12.42,12.42,0,0,1,4.81-5.39,13.22,13.22,0,0,1,6.87-2c.23,0,.46,0,.69,0a11.61,11.61,0,0,1,7.32,3.06,6.91,6.91,0,0,1,2.54,6.85,6.84,6.84,0,0,1-5.88,5.21l-.63,0a8,8,0,0,1-3.82-1.05,14,14,0,0,1-3.78-3.29,13.38,13.38,0,0,0,3.12,4.21,9.63,9.63,0,0,0,2.31,1.52,8.68,8.68,0,0,0,2.77.75,7.87,7.87,0,0,0,.84,0,9.11,9.11,0,0,0,4.88-1.44,10.33,10.33,0,0,0,4.57-11,13.27,13.27,0,0,0-2.8-5.67,18,18,0,0,0-10.49-6.21,19.76,19.76,0,0,0-3.6-.33Z" style="fill:url(#linear-gradient-6)"/></g></svg>