<svg id="Gas_Label" data-name="Gas Label" xmlns="http://www.w3.org/2000/svg" viewBox="0 0 104 61"><title>one-view-label-gas</title><g id="Gas_Label-2" data-name="Gas Label"><g id="Label_Back" data-name="Label Back" style="opacity:0.2"><path d="M.69,8.61A135.56,135.56,0,0,1,26.67,2,129.08,129.08,0,0,1,53.28.82,127.76,127.76,0,0,1,79.13,5a133.44,133.44,0,0,1,23.87,9L87.87,52A84.72,84.72,0,0,0,54,49.47,79.56,79.56,0,0,0,23.67,60.21Z" style="fill:#fff"/></g><g id="Label" style="opacity:0.7000000000000001"><path d="M35.58,25.49s0,0,0,0,0,0,.08,0a5.86,5.86,0,0,1,2.6-.35c1,0,2.17.05,3.43.14l1.15.07.11,0c.18,1.87.28,3.34.28,4.41a19.92,19.92,0,0,1-.28,3.5,4.76,4.76,0,0,1-1,2.66,5.27,5.27,0,0,1-2.31,1.51,16.17,16.17,0,0,1-4.58.77,7,7,0,0,1-2.84-.53,5.13,5.13,0,0,1-2.61-2.31,11.77,11.77,0,0,1-1.1-4.27c-.14-1.33-.24-2.4-.3-3.22s-.09-1.72-.09-2.73,0-1.55,0-2.06a42.42,42.42,0,0,1,.33-4.85A6.44,6.44,0,0,1,30,15a6.12,6.12,0,0,1,4-1.86,12.19,12.19,0,0,1,1.58-.1,8.15,8.15,0,0,1,5.35,1.73A6,6,0,0,1,43,19.64c0,.24,0,.61-.07,1.12l0,.21a6.21,6.21,0,0,0-1,0c-.56,0-1,.07-1.37.07a4.48,4.48,0,0,1-.8-.07s-.08-.06-.08-.18,0-.35,0-.7,0-.76,0-1.22a2.12,2.12,0,0,0-.52-1.17,4.15,4.15,0,0,0-1.28-1,3.78,3.78,0,0,0-1.66-.45l-.63,0a3.74,3.74,0,0,0-2.49.72,4,4,0,0,0-1.19,2.12,27.93,27.93,0,0,0-.63,6.72c0,1.24,0,2.16.07,2.76a22.84,22.84,0,0,0,.51,3.33,4.69,4.69,0,0,0,.8,1.78,3.58,3.58,0,0,0,1.49,1,6.51,6.51,0,0,0,1.89.28,4.86,4.86,0,0,0,1.93-.39l.52-.22a2.19,2.19,0,0,0,.75-.55,3.8,3.8,0,0,0,.72-1.47c.07-.81.11-1.49.11-2a8.61,8.61,0,0,0-.13-1.68,2,2,0,0,0-.19-.63c-.09,0-.56,0-1.4,0a8.47,8.47,0,0,0-1,0l-.61,0a4.49,4.49,0,0,1-1-.07,7.2,7.2,0,0,1-.07-1.12c0-.17,0-.57-.07-1.23Z" style="fill:#fff"/><path d="M57.1,20a17.72,17.72,0,0,1,2.07.07l.91.07a6.62,6.62,0,0,1,.07.84v.35c0,.53,0,1.34,0,2.41,0,.89,0,2.2.07,3.92l0,3.92c0,1.68,0,3.21-.14,4.59v.45a2.38,2.38,0,0,1-.07.63.46.46,0,0,1-.39.35H59l-1.12,0a3.48,3.48,0,0,0-.49,0,1.84,1.84,0,0,1-.39,0c-.23-.07-.35-.33-.35-.77a2.72,2.72,0,0,1,0-.63,3.45,3.45,0,0,0,0-.6,4.33,4.33,0,0,1-2.66,1.58,15.8,15.8,0,0,1-3.57.42,3.52,3.52,0,0,1-2.85-1.49,9.72,9.72,0,0,1-1.73-3.66,17,17,0,0,1-.56-4.23,10.51,10.51,0,0,1,.77-4.1,7.09,7.09,0,0,1,2.12-2.88,4.87,4.87,0,0,1,3-1.11l1.12,0a7.76,7.76,0,0,1,2.61.37,2.61,2.61,0,0,1,1.52,1.34,5.4,5.4,0,0,1,.07-.8c.05-.47.07-.79.07-1S56.8,20,57.1,20Zm-3.92,3.15a4.67,4.67,0,0,0-3.06.93A3.87,3.87,0,0,0,48.6,26.4a10.53,10.53,0,0,0-.28,2.73c.12,3.76,1.63,5.55,4.55,5.39a4.23,4.23,0,0,0,2.59-.63,2.75,2.75,0,0,0,1-1.79,22.67,22.67,0,0,0,.19-3.46,20.32,20.32,0,0,0-.21-3.55,2,2,0,0,0-.89-1.42A6,6,0,0,0,53.18,23.18Z" style="fill:#fff"/><path d="M77.26,24.65c0,.11-.4.17-1.22.17-.61,0-1.05,0-1.33,0l-.56,0a1.63,1.63,0,0,0-.46,0V23.58c0-.78-.67-1.25-2-1.42a10.76,10.76,0,0,0-1.36-.07,10.59,10.59,0,0,0-1.77.14,3.38,3.38,0,0,0-1.17.39,2.18,2.18,0,0,0-.7,1,3.88,3.88,0,0,0-.25,1.3,1.11,1.11,0,0,0,.14.66,2.3,2.3,0,0,0,1,1.12,6,6,0,0,0,1.71.6,11.33,11.33,0,0,0,2.35.38,8.11,8.11,0,0,1,2.54.44,4.34,4.34,0,0,1,1.73,1.1,5.86,5.86,0,0,1,.93,1.53,4.32,4.32,0,0,1,.29,1.62A8.37,8.37,0,0,1,76.6,35a4.84,4.84,0,0,1-2.45,2.41,8.66,8.66,0,0,1-3.82.74,10.85,10.85,0,0,1-4.13-.61,5.89,5.89,0,0,1-2.76-2,5.41,5.41,0,0,1-1-3.22V32.1c.42,0,1-.07,1.85-.07a4.52,4.52,0,0,1,1.47.11,3.21,3.21,0,0,1,.3.79,4.67,4.67,0,0,0,.82,1.45,2.77,2.77,0,0,0,2,.84l1.33.07a3.38,3.38,0,0,0,.93-.11,5.83,5.83,0,0,0,1-.38,2.48,2.48,0,0,0,1.75-2.35,1.94,1.94,0,0,0-.54-1.57,2.89,2.89,0,0,0-1.45-.75,22.58,22.58,0,0,0-2.38-.37c-.72-.07-1.31-.14-1.75-.21a4.6,4.6,0,0,1-1.19-.35,5.53,5.53,0,0,1-2.78-1.87,4.51,4.51,0,0,1-1-2.79,5,5,0,0,1,1-3,4.45,4.45,0,0,1,2.64-1.77,14.87,14.87,0,0,1,3.67-.38c.35,0,.88,0,1.58.07a11.69,11.69,0,0,1,2.8.52,4.22,4.22,0,0,1,2,1.81A5.35,5.35,0,0,1,77.26,24.65Z" style="fill:#fff"/></g></g></svg>