<svg id="Oil_Soap_Button_-_hover" data-name="Oil Soap Button - hover" xmlns="http://www.w3.org/2000/svg" xmlns:xlink="http://www.w3.org/1999/xlink" viewBox="0 0 306 305"><defs><linearGradient id="linear-gradient" x1="194.22" y1="53.69" x2="197.72" y2="53.69" gradientUnits="userSpaceOnUse"><stop offset="0" stop-color="#fff"/><stop offset="1" stop-color="#fff" stop-opacity="0.5"/></linearGradient><linearGradient id="linear-gradient-2" x1="193.45" y1="46.6" x2="199.24" y2="46.6" xlink:href="#linear-gradient"/><linearGradient id="linear-gradient-3" x1="169.96" y1="130.57" x2="226.51" y2="130.57" gradientUnits="userSpaceOnUse"><stop offset="0" stop-color="#6d2600"/><stop offset="0.41" stop-color="#fff" stop-opacity="0"/><stop offset="0.78" stop-color="#ff0"/><stop offset="1" stop-color="#9e0000"/></linearGradient><linearGradient id="linear-gradient-4" x1="194.26" y1="68.25" x2="199.22" y2="68.25" gradientUnits="userSpaceOnUse"><stop offset="0" stop-color="#fff"/><stop offset="1" stop-color="#fff" stop-opacity="0.4"/></linearGradient><linearGradient id="linear-gradient-5" x1="179.74" y1="121.4" x2="218.12" y2="131.68" gradientUnits="userSpaceOnUse"><stop offset="0" stop-color="#fff" stop-opacity="0.3"/><stop offset="0.04" stop-color="#fff" stop-opacity="0.43"/><stop offset="0.09" stop-color="#fff" stop-opacity="0.59"/><stop offset="0.14" stop-color="#fff" stop-opacity="0.7"/><stop offset="0.18" stop-color="#fff" stop-opacity="0.77"/><stop offset="0.21" stop-color="#fff" stop-opacity="0.8"/><stop offset="0.45" stop-color="#fff" stop-opacity="0.5"/><stop offset="1" stop-color="#fff" stop-opacity="0"/></linearGradient><linearGradient id="linear-gradient-6" x1="175.18" y1="80.35" x2="196.01" y2="80.35" xlink:href="#linear-gradient-4"/><linearGradient id="linear-gradient-7" x1="176.01" y1="158.68" x2="188.27" y2="158.68" xlink:href="#linear-gradient-4"/><linearGradient id="linear-gradient-8" x1="199.18" y1="157.81" x2="221.94" y2="157.81" gradientUnits="userSpaceOnUse"><stop offset="0" stop-color="#fff" stop-opacity="0"/><stop offset="1" stop-color="#fff"/></linearGradient><linearGradient id="linear-gradient-9" x1="174.8" y1="96.39" x2="219.81" y2="97.17" gradientUnits="userSpaceOnUse"><stop offset="0" stop-color="#c62f00"/><stop offset="0.4" stop-color="#c62f00" stop-opacity="0.2"/><stop offset="0.61" stop-color="#c62f00" stop-opacity="0.2"/><stop offset="1" stop-color="#c62f00"/></linearGradient><linearGradient id="linear-gradient-10" x1="199" y1="85.35" x2="218.34" y2="79.07" xlink:href="#linear-gradient-8"/><linearGradient id="linear-gradient-11" x1="195.14" y1="109.19" x2="215.85" y2="109.19" xlink:href="#linear-gradient-8"/><linearGradient id="linear-gradient-12" x1="76.72" y1="122.77" x2="129.83" y2="122.77" gradientUnits="userSpaceOnUse"><stop offset="0" stop-color="#9e9600"/><stop offset="0.42" stop-color="#fff" stop-opacity="0"/><stop offset="1" stop-color="#9e9600"/></linearGradient><linearGradient id="linear-gradient-13" x1="83.33" y1="123.78" x2="123.57" y2="123.78" gradientUnits="userSpaceOnUse"><stop offset="0.12" stop-color="#fff" stop-opacity="0.7"/><stop offset="0.5" stop-color="#fff" stop-opacity="0"/><stop offset="0.54" stop-color="#fff" stop-opacity="0.04"/><stop offset="0.6" stop-color="#fff" stop-opacity="0.16"/><stop offset="0.69" stop-color="#fff" stop-opacity="0.34"/><stop offset="0.75" stop-color="#fff" stop-opacity="0.5"/><stop offset="0.8" stop-color="#f8f8f8" stop-opacity="0.49"/><stop offset="0.85" stop-color="#e2e2e2" stop-opacity="0.45"/><stop offset="0.89" stop-color="#bfbfbf" stop-opacity="0.39"/><stop offset="0.95" stop-color="#8e8e8e" stop-opacity="0.31"/><stop offset="1" stop-color="#4f4f4f" stop-opacity="0.2"/><stop offset="1" stop-color="#4d4d4d" stop-opacity="0.2"/></linearGradient><linearGradient id="linear-gradient-14" x1="105.24" y1="167.53" x2="126.65" y2="167.53" gradientUnits="userSpaceOnUse"><stop offset="0" stop-color="#fff" stop-opacity="0"/><stop offset="0.77" stop-color="#fff"/><stop offset="1" stop-color="#fff" stop-opacity="0"/></linearGradient><linearGradient id="linear-gradient-15" x1="102.81" y1="73.05" x2="126.89" y2="73.05" xlink:href="#linear-gradient-14"/><linearGradient id="linear-gradient-16" x1="104.67" y1="103.86" x2="123.79" y2="103.86" xlink:href="#linear-gradient-14"/><linearGradient id="linear-gradient-17" x1="103.52" y1="146.92" x2="123.64" y2="146.92" xlink:href="#linear-gradient-14"/></defs><title>Oil Soap Button hover</title><path id="Button_Back_2" data-name="Button Back 2" d="M3.89,287.37c115.33,14.36,219.25,25.66,301,9.2.73-96.76-2.44-195.25-9.68-279.8C232.4,9.66,132.8,3.68,17.64.48-3.39,72.9-1.42,177.78,3.89,287.37Z" style="fill:#06b299;fill-rule:evenodd"/><path id="Button_Back_1" data-name="Button Back 1" d="M13.89,270.37c115.33,14.36,192.25,32.66,274,16.2.73-96.76,4.56-168.25-2.68-252.8C222.4,26.66,149.8,13.68,34.64,10.48,13.61,82.9,8.58,160.78,13.89,270.37Z" style="fill:#8ed8ce;fill-rule:evenodd"/><g id="Content"><path id="Backdrop" d="M58.68,79.55c23.47-54.35,37.71-5.2,92.07,18.26S279,110.17,255.53,164.53a107.2,107.2,0,1,1-196.85-85Z" style="fill:#fff;opacity:0.2"/><path id="Label_Back" data-name="Label Back" d="M66.63,221.36c28.15-3.89,56.64-7.07,85.42-9a855.16,855.16,0,0,1,87-1.4l-5.78,59.75a803.61,803.61,0,0,0-81-8.76c-27.33-1.61-54.91-2-82.69-1.59Z" style="fill:#06b299"/><g id="Label"><path d="M87.77,226.62a10.9,10.9,0,0,1,4.76-1,9.46,9.46,0,0,1,4.26.93,4.81,4.81,0,0,1,2.53,2.85,9.73,9.73,0,0,1,.67,4c0,.74,0,1.29,0,1.64,0,.82-.07,2-.07,3.61,0,.39,0,.89,0,1.49s-.05,1.28-.09,2.08l-.11,1.15a10.49,10.49,0,0,1-1.33,4.73A5.4,5.4,0,0,1,95.63,250a11.43,11.43,0,0,1-3.8.63,9.52,9.52,0,0,1-1.08,0,6,6,0,0,1-4-1.63q-1.36-1.41-1.43-4.7L85.18,242c0-.46-.06-1.27-.1-2.43s-.07-2.21-.07-3.17,0-2.13.1-3.18a14.15,14.15,0,0,1,.63-4A4.51,4.51,0,0,1,87.77,226.62ZM96.94,238l0-2.8c-.1-1.58-.18-2.66-.25-3.23a4.38,4.38,0,0,0-1-2.05,3.72,3.72,0,0,0-3.11-1.19A3.77,3.77,0,0,0,88.77,231a18.18,18.18,0,0,0-1.07,7.14c0,2,0,3.49.13,4.57a9.67,9.67,0,0,0,.5,2.63,3.33,3.33,0,0,0,1.19,1.55,4.14,4.14,0,0,0,2.42.6,5.25,5.25,0,0,0,3.6-1,4.1,4.1,0,0,0,1.23-3c0-.7,0-1.53.07-2.49s.08-1.57.1-1.85Z" style="fill:#fff"/><path d="M103.84,232.43a7.5,7.5,0,0,1,1,0c.7,0,1.47.07,2.31.07v.11c0,1,0,2.67-.07,4.86S107,242,107,244.26s0,4.06.14,5.74a7.41,7.41,0,0,1-1.47.11h-1.19a5.52,5.52,0,0,0-.77,0c0-.67,0-1.7,0-3.08V241c0-1.63-.07-2.89-.07-3.78,0-1.61.07-3.18.21-4.72Zm-.14-7.52c1.44,0,2.54.07,3.29.07l.1,4.62a3.07,3.07,0,0,1-1.26.17q-.56,0-.84,0l-.49,0a5.19,5.19,0,0,0-.66,0c0-.35,0-.92-.07-1.72C103.7,226.48,103.67,225.44,103.7,224.91Z" style="fill:#fff"/><path d="M111.71,224.66l3.19.11c0,.95,0,3.32-.07,7.1q-.08,7-.07,11,0,4.41.1,7c-.14.16-.52.24-1.15.24l-1.09,0a5.69,5.69,0,0,0-.77,0,.84.84,0,0,0-.35,0c.14-1.89.21-3.79.21-5.71q0-2.16-.14-6.51t-.14-6.54C111.43,228.87,111.52,226.65,111.71,224.66Z" style="fill:#fff"/><path d="M142.79,245.59c1.38,1.68,2.07,3,2.07,4.06a1.87,1.87,0,0,1,0,.39,16.16,16.16,0,0,1-1.92.1h-1.19a1.17,1.17,0,0,1-.79-.29,5.34,5.34,0,0,1-.79-1,8.42,8.42,0,0,0-.77-1,7.59,7.59,0,0,1-1.84,1.48,4.89,4.89,0,0,1-1.82.6c-.64.08-1.59.15-2.85.19a6.43,6.43,0,0,1-3.8-1.12,7.17,7.17,0,0,1-2.41-2.88,8.71,8.71,0,0,1-.82-3.73,7,7,0,0,1,1-3.5,13.09,13.09,0,0,1,2.51-3.15,20.79,20.79,0,0,1-1.93-3,6.39,6.39,0,0,1-.77-2.9,4.19,4.19,0,0,1,1-2.66,6.68,6.68,0,0,1,2.54-1.93,7.94,7.94,0,0,1,3.24-.7,6.47,6.47,0,0,1,3.09.74,5.55,5.55,0,0,1,2.16,2,4.85,4.85,0,0,1,.77,2.62,9.23,9.23,0,0,1-2.14,5.39,2.21,2.21,0,0,0-.35.63,5.42,5.42,0,0,0,.49,1,13.69,13.69,0,0,0,1.12,1.72,3.05,3.05,0,0,0,1.19,1,3.12,3.12,0,0,0,.33-.81,8.37,8.37,0,0,0,.2-.84,3.47,3.47,0,0,1,.49-1.24c.18-.25.54-.33,1.08-.26.19,0,.45,0,.79,0s.64,0,.91.07a1,1,0,0,1,.61.26.61.61,0,0,1,.14.42,2.38,2.38,0,0,1-.1.63,6.32,6.32,0,0,1-.2,1.32,15.21,15.21,0,0,1-.5,1.48l-.74,1.68a17.53,17.53,0,0,0-.84,2,1.41,1.41,0,0,0,.35.62c.23.29.42.52.56.68ZM133.45,247a7,7,0,0,0,1.85-.28,5.09,5.09,0,0,0,.91-.39,2.8,2.8,0,0,0,.63-.42,3.93,3.93,0,0,0,.81-2.55,5.36,5.36,0,0,0-.55-2.35,4.72,4.72,0,0,0-1.55-1.87,4,4,0,0,0-2.38-.72c-.17,0-.44,0-.81.07a3.14,3.14,0,0,0-2.22,1.52,5,5,0,0,0-.89,2.82,3.11,3.11,0,0,0,.24,1.3,11,11,0,0,0,.91,1.59,3.11,3.11,0,0,0,1.14.93A4.43,4.43,0,0,0,133.45,247Zm2.48-18.27a2.73,2.73,0,0,0-1-1.19,3.1,3.1,0,0,0-1.65-.39,3.65,3.65,0,0,0-2.33.77,2.75,2.75,0,0,0-1.06,2,4.37,4.37,0,0,0,.29,1.68,4.58,4.58,0,0,0,1,1.66,2.42,2.42,0,0,0,1.66.79v0a2.92,2.92,0,0,0,2.42-1.19,4.57,4.57,0,0,0,.84-2.77A6.06,6.06,0,0,0,135.93,228.69Z" style="fill:#fff"/><path d="M169.57,233.52h0a11.55,11.55,0,0,1-2,.17,5.6,5.6,0,0,1-1.57-.17,5,5,0,0,0,.07-.91,3.27,3.27,0,0,0-.56-1.94,3.12,3.12,0,0,0-1.54-1.14,4.48,4.48,0,0,0-1.54-.25,5.23,5.23,0,0,0-2.35.55,4.25,4.25,0,0,0-1.75,1.48,3.16,3.16,0,0,0-.52,2.1q.45,2.67,3.67,2.77a9.77,9.77,0,0,1,6.06,1.85,5.51,5.51,0,0,1,2,4.38,9,9,0,0,1-1,4.3,6.41,6.41,0,0,1-2.6,2.68,7.46,7.46,0,0,1-3.64.89,10.85,10.85,0,0,1-3.89-.72,7.89,7.89,0,0,1-3.15-2.11,5.56,5.56,0,0,1-1.43-3.33v0a3.93,3.93,0,0,1-.11-1v-.24c.51-.05.91-.07,1.19-.07l1.3,0a10,10,0,0,0,1.08,0,3.29,3.29,0,0,0,.86,2.38,5.29,5.29,0,0,0,2.71,1.43,3.93,3.93,0,0,0,1.09.14,4,4,0,0,0,2.1-.56,3.61,3.61,0,0,0,1.43-1.54,3.93,3.93,0,0,0,.39-2.17,3,3,0,0,0-.9-2,3.69,3.69,0,0,0-1.75-.88,24.27,24.27,0,0,0-2.74-.35l-1.33-.1a6,6,0,0,1-3.05-1.38,5.59,5.59,0,0,1-1.71-2.58,7.17,7.17,0,0,1-.32-2.06,6.79,6.79,0,0,1,.32-2.1,7.81,7.81,0,0,1,1.62-3,7.49,7.49,0,0,1,2.72-2,8.4,8.4,0,0,1,3.18-.56,11.06,11.06,0,0,1,4.59,1,5.7,5.7,0,0,1,2.32,2.08,5.86,5.86,0,0,1,.86,3.2A10.35,10.35,0,0,1,169.57,233.52Z" style="fill:#fff"/><path d="M171.88,238.73a18.11,18.11,0,0,1,.12-2.24,11.62,11.62,0,0,1,.61-2.34,3,3,0,0,1,1.94-1.52,10.17,10.17,0,0,1,3.31-.51,6.16,6.16,0,0,0,.7,0l1.4,0a6.19,6.19,0,0,1,4.52,1.54,2.69,2.69,0,0,1,1,1.57,13.7,13.7,0,0,1,.4,3.1c0,1.3.07,2,.07,2.26-.09,2.33-.2,4.19-.33,5.56a4.6,4.6,0,0,1-.79,2.66,3.38,3.38,0,0,1-1.84,1.3,9.9,9.9,0,0,1-2.78.35c-.42,0-1,0-1.89-.07l-1.61,0a5.14,5.14,0,0,1-3.1-1.5,5.55,5.55,0,0,1-1.33-2.7,19.73,19.73,0,0,1-.29-3.71v-1.82C172,239.76,171.92,239.13,171.88,238.73Zm7.14-3.32a4.31,4.31,0,0,0-3.43,1.22,2.8,2.8,0,0,0-.58,1.42,14.31,14.31,0,0,0-.09,2.22,11.36,11.36,0,0,0,0,1.4c0,.59.05,1,.05,1.37l.07,1.47a2.76,2.76,0,0,0,.79,2,3.78,3.78,0,0,0,1.73.78,9.76,9.76,0,0,0,1.44.11,5.38,5.38,0,0,0,2.38-.49,2.37,2.37,0,0,0,1.29-1.61,10.64,10.64,0,0,0,.14-1.44c.12-1.63.18-2.74.18-3.32a7.15,7.15,0,0,0-.84-3.71A3.35,3.35,0,0,0,179,235.41Z" style="fill:#fff"/><path d="M199.81,232.54a15.65,15.65,0,0,1,2.06.07l.91.07a6.62,6.62,0,0,1,.07.84v.35c0,.53,0,1.34,0,2.41,0,.89,0,2.2.07,3.92l0,3.92c0,1.68,0,3.21-.14,4.59v.45a2.38,2.38,0,0,1-.07.63.45.45,0,0,1-.38.35h-.6l-1.12,0a3.48,3.48,0,0,0-.49,0,1.82,1.82,0,0,1-.38,0c-.24-.07-.35-.33-.35-.77a2.24,2.24,0,0,1,0-.63,3.57,3.57,0,0,0,.06-.6,4.36,4.36,0,0,1-2.66,1.58,15.93,15.93,0,0,1-3.57.42,3.54,3.54,0,0,1-2.86-1.49,9.72,9.72,0,0,1-1.73-3.66,17,17,0,0,1-.56-4.23,10.51,10.51,0,0,1,.77-4.1,7.19,7.19,0,0,1,2.12-2.89,4.92,4.92,0,0,1,3-1.1l1.12,0a7.76,7.76,0,0,1,2.61.37,2.61,2.61,0,0,1,1.52,1.34,5.29,5.29,0,0,1,.07-.8c.05-.47.07-.79.07-1S199.5,232.54,199.81,232.54Zm-3.92,3.15a4.63,4.63,0,0,0-3.07.93,3.87,3.87,0,0,0-1.52,2.29,10.43,10.43,0,0,0-.28,2.73c.12,3.75,1.63,5.55,4.55,5.39a4.23,4.23,0,0,0,2.59-.63,2.75,2.75,0,0,0,1-1.79,22.67,22.67,0,0,0,.19-3.46,20.32,20.32,0,0,0-.21-3.55,2,2,0,0,0-.89-1.42A5.9,5.9,0,0,0,195.89,235.69Z" style="fill:#fff"/><path d="M209.19,256.79v.39s-.16.08-.46.12a7.84,7.84,0,0,1-1,.05,10.25,10.25,0,0,1-1.51-.1v-2.31q0-3.3-.14-9.66c0-1,0-2.28-.07-3.77s0-3.15,0-5c0-1.72,0-3,0-3.85l2.28,0c.46,0,.8,0,1,0a.79.79,0,0,1,.05.3c0,.18,0,.36,0,.54s0,.2,0,.32a3,3,0,0,1,0,.49c0,.11.06.17.12.16s.14-.1.23-.27a3.46,3.46,0,0,1,1.72-1.15,7.18,7.18,0,0,1,2.2-.35,6.51,6.51,0,0,1,.77,0,5.45,5.45,0,0,1,3.69,1.51,6.65,6.65,0,0,1,1.7,3.36,28.8,28.8,0,0,1,.49,5,14.15,14.15,0,0,1-.68,4.62,3.7,3.7,0,0,1-2.15,2.49,7.6,7.6,0,0,1-2.1.45,12.29,12.29,0,0,1-1.23,0,18.3,18.3,0,0,1-3.25-.28c-1-.19-1.53-.42-1.58-.7l.07,4.27c0,.51,0,1.14-.07,1.89Zm3.18-9.31a15.53,15.53,0,0,0,2.5-.15,2.94,2.94,0,0,0,1.47-.74,4.18,4.18,0,0,0,1-1.87,12.51,12.51,0,0,0,.28-2.56,10.82,10.82,0,0,0-1-4.83q-1-2-3.83-1.82a3.93,3.93,0,0,0-2.47.93,3.73,3.73,0,0,0-1,2.08,24.24,24.24,0,0,0-.21,3.64,20.94,20.94,0,0,0,.21,3.56,1.89,1.89,0,0,0,.85,1.41A4.84,4.84,0,0,0,212.37,247.48Z" style="fill:#fff"/></g><g id="Soap"><path d="M224.28,129.69c-1.39-7.68-5.43-15.18-5.43-23.82,0-5.46,8.43-13.14,6.9-17.94-3.16-9.88-13.67-16.65-20.81-18.54-.85-.23-.8-3-1.28-3.26-.35-.55.6-2.78-.29-3.45C201,60.93,192,60.32,191.53,63c-.16,1-.13,5.42-.29,5.52a22.82,22.82,0,0,1-2.37.79A29.19,29.19,0,0,0,170.13,88c-1.49,4.83,6.81,12.18,6.81,17.65,0,7.78-2.84,15.75-3.94,22.91-2.59,16.84-3,29.33,2.17,50.92,1.54,3.1,9.69,4.52,24.47,4.52s23.84-2,25-5.38C228.91,157.91,226.88,143.94,224.28,129.69Z" style="fill:#fff;opacity:0.30000000000000004"/><path d="M191.11,47.53c0,1.26,1.79,2.08,1.79,3s-.13,5.14-.13,5.14l9.91.19s0-4.54,0-5.4c0-1.13,1.59-2.09,1.54-3.12,0-.64-4.21-3.12-5-3.12s-2.3.05-3,.05S191.11,46.9,191.11,47.53Z" style="fill:#c62f00"/><path d="M197.44,50.45a14.46,14.46,0,0,1-2.75-.18c-.59,0-.49,4.4-.42,5.4.12,1.69,3.41,1.88,3.39.58C197.64,54.53,197.9,50.41,197.44,50.45Z" style="opacity:0.4;fill:url(#linear-gradient)"/><path d="M201.4,50.45c-.2,0-.5-.06-.47.09.1.63,0,4.48,0,5.47.12,1.69.68,1.54.66.24C201.6,54.53,201.86,50.42,201.4,50.45Z" style="fill:#fff;opacity:0.1"/><path d="M198.08,45.27c-1.1.22-1.41-.12-1.93.14s-3.47,1.82-2.51,2.09,4.24.72,5.42.16C199.72,47.34,198.41,45.21,198.08,45.27Z" style="opacity:0.4;fill:url(#linear-gradient-2)"/><path d="M199.39,45.33c-.07,0,.06-.18.59.08s3.44,1.76,2.5,2.09a2.34,2.34,0,0,1-.39.12C201.38,47.78,200.27,45.83,199.39,45.33Z" style="fill:#fff;opacity:0.1"/><ellipse cx="198.92" cy="177.57" rx="25.01" ry="3.6" style="fill:#dd863e;stroke:#823500;stroke-miterlimit:10;stroke-width:1.71524268948031px;opacity:0.6000000000000001"/><path d="M224.28,129.69c-1.39-7.68-5.43-15.18-5.43-23.82,0-5.46,8.43-13.14,6.9-17.94-1.1-3.46-2.56-10.63-6.25-9.73-7.38,1.8-17.26,2-21.22,2a193.58,193.58,0,0,1-22.65-1.62c-3.7-.55-4.41,5.89-5.5,9.39-1.49,4.83,6.81,12.18,6.81,17.65,0,7.78-2.84,15.75-3.94,22.91-2.59,16.84-3.6,28.68,1.58,50.28,1.54,3.09,10.57,4,25.35,4s22.5-1.79,23.62-5.21C227.87,156.91,226.88,143.94,224.28,129.69Z" style="fill:#ff6d00;opacity:0.8"/><path d="M176.38,78.78a136.35,136.35,0,0,0,42.52-.33" style="fill:none;stroke:#e55c00;stroke-miterlimit:10;stroke-width:0.857621344740155px"/><path d="M224.28,129.69c-1.39-7.68-5.43-15.18-5.43-23.82,0-5.46,8.43-13.14,6.9-17.94-1.16-3.62-2.72-10.54-6.6-9.55-6.82,1.73-15.34,1.87-20.87,1.87-6.25,0-16.51-.56-22.38-1.7-3.68-.71-4.68,6-5.77,9.47-1.49,4.83,6.81,12.18,6.81,17.65,0,7.78-2.84,15.75-3.94,22.91-2.59,16.84-3.6,28.68,1.58,50.28,1.54,3.09,10.57,4,25.35,4s22.5-1.79,23.62-5.21C227.87,156.91,226.88,143.94,224.28,129.69Z" style="opacity:0.2;fill:url(#linear-gradient-3)"/><path d="M225.52,129.4c-1.39-7.63-4.29-15.44-4.29-24,0-5.43,7.53-13.25,6-18-3.13-9.81-11.15-15.44-19.72-18.87a10.67,10.67,0,0,0-1.72-.5V66.79l-2.61-.18c.15,1.31-.3,3.14-.06,3.52a18.49,18.49,0,0,0,2.65.81A25.72,25.72,0,0,1,223,87.72c1.43,4.48-6,12.94-6,18,0,8,3.59,17.15,4.89,24.31,2.41,13.28,4.31,26.29.29,45.6-1,3.19-9.47,5-23.25,5s-21.37-1.32-22.8-4.21c-4.83-20.11-4.43-31.75-2-47.44,1-6.67,4.07-15.57,4.07-22.81,0-5.1-7.22-13.53-5.84-18,3-9.64,9.85-15.61,16.09-17.44a37.64,37.64,0,0,1,3.64-1,18.33,18.33,0,0,0,.19-3l-2.8,0-.05,1a13.14,13.14,0,0,0-2.53.71c-6.32,2.41-14.83,8.59-18,18.87-1.48,4.79,6,13.43,6,18.86,0,7.72-2.34,16.05-3.43,23.16-2.58,16.72-4.29,29.16.85,50.6,0,2.84,11.91,5.14,26.59,5.14s26.59-2.3,26.59-5.14C229.8,159.42,228.09,143.55,225.52,129.4Z" style="fill:#c62f00"/><path d="M191.68,69.31c4.69-.5,7.45-.15,12.48.65" style="fill:none;stroke:#c62f00;stroke-miterlimit:10;stroke-width:0.857621344740155px"/><path d="M199,69.92c-1.74-.13-3.73-.15-4.65-.12a17.17,17.17,0,0,1,.33-3.09l4.52-.13S199.4,70,199,69.92Z" style="opacity:0.7000000000000001;fill:url(#linear-gradient-4)"/><path d="M207.13,66.83a93.72,93.72,0,0,1-19,0,.86.86,0,0,1-.77-.89l.28-8.77a1.71,1.71,0,0,1,1.6-1.66,143.52,143.52,0,0,1,16.85,0,1.72,1.72,0,0,1,1.62,1.67l.22,8.75A.86.86,0,0,1,207.13,66.83Z" style="fill:#6d6d6d"/><path d="M205.49,64.53a90.16,90.16,0,0,1-16.22.25l0-7.77a125.59,125.59,0,0,1,16,.26Z" style="fill:#d6d6d6"/><path d="M190.64,56.94v7.94a69,69,0,0,0,7.72.1V56.92C195.78,56.83,193.29,56.81,190.64,56.94Z" style="fill:#eaeaea"/><path d="M192.68,56.87V65c.95,0,1.88,0,2.81,0v-8.2C194.56,56.84,193.63,56.85,192.68,56.87Z" style="fill:#fff"/><path d="M203.65,64.67l1.84-.14-.15-7.26-1.69-.09Z" style="fill:#e8e8e8"/><path d="M198.24,143.61c-5.39,0-12.59-.91-16.26-5.23-2.21-2.6-3-6.23-2.21-10.79,1.27-7.75,3.63-22.19,9.24-22.19,1.49,0,3.25.94,5.25,2.81,4.17,3.91,8,5.05,11.32,6.06,5,1.53,8.7,2.64,10.65,13.52.86,4.85.35,8.4-1.57,10.85-2.22,2.83-6.39,4.42-12.75,4.85C200.66,143.57,199.42,143.61,198.24,143.61Z" style="fill:#ff9d00"/><path d="M189,106.26h0c1.25,0,2.86.89,4.66,2.57a26.53,26.53,0,0,0,11.66,6.27c4.94,1.49,8.2,2.47,10,12.85.82,4.58.36,7.91-1.4,10.16-2,2.63-6,4.11-12.13,4.52-1.23.08-2.44.12-3.61.12-5.21,0-12.15-.85-15.61-4.93-2-2.4-2.72-5.79-2-10.09,1.15-7,3.52-21.47,8.4-21.47m0-1.72c-5.83,0-8.24,11.6-10.09,22.92-2.26,13.84,9,17,19.32,17,1.27,0,2.52-.05,3.73-.13,13.63-.91,16.81-7.1,15.1-16.7-3.3-18.46-11.68-10.19-22.23-20.06-2.26-2.11-4.18-3-5.83-3Z" style="fill:#eac69b"/><g style="opacity:0.6000000000000001"><path d="M217.07,127.64c1.71,9.6-1.47,15.79-15.1,16.7-11.09.74-25.59-1.34-23.05-16.88C181.3,113,184.57,98,194.84,107.58,205.39,117.45,213.77,109.18,217.07,127.64Z" style="fill:url(#linear-gradient-5)"/></g><path d="M175.19,87.54c-.32,1.08,6.75,2.74,6.91,1.72C183.62,79.64,191,74,195.46,71.92c2.27-1.08-2.8-1.58-9,2A23.5,23.5,0,0,0,175.19,87.54Z" style="opacity:0.5;fill:url(#linear-gradient-6)"/><path d="M188.23,176.28c-.41,1.5-9.77-.48-9.94-3.24-.11-1.66-4.28-24.91-1.06-32.47,3.09,6.49,10.14,5.89,9.8,8.7C185.41,162.74,188.65,174.79,188.23,176.28Z" style="opacity:0.5;fill:url(#linear-gradient-7)"/><path d="M200.58,177c4.94,1.79,17.23-.51,19.21-2.24,1.24-1.07,4-21.45.24-36.88-2.72,11.78-19.88,10.07-20.23,12.84C198.7,159.58,199.14,176.52,200.58,177Z" style="opacity:0.30000000000000004;fill:url(#linear-gradient-8)"/><path d="M181.06,101.35c13.17-2.09,28.67.13,32.7,1.83,1.75.74,7.6-12.38,5.81-11.74-5.65,2-31,3.26-44.42-1.17C173.56,89.75,180.13,101.49,181.06,101.35Z" style="opacity:0.4;fill:url(#linear-gradient-9)"/><path d="M220.55,89.37c-1.81,1-19.71,3-19.59,2,.66-5.75,6.12-14.62,2.77-18-1.77-1.77,5.86.27,11.61,4.94C218.68,81,222.46,88.29,220.55,89.37Z" style="opacity:0.30000000000000004;fill:url(#linear-gradient-10)"/><path d="M203.47,109.67c3.31.53,9.54,2.6,12.09,5.35,1.11,1.2-1.36-6.36-1.09-9.15.11-1.09-20.35-4.23-19.29-1.65C195.88,105.94,202,109.43,203.47,109.67Z" style="opacity:0.30000000000000004;fill:url(#linear-gradient-11)"/></g><g id="Oil"><path d="M127.87,151c.91,1.72,1.89,3,1.89,5.06,0,0,0,17.85-.14,19.71-.21,4.06-12.17,7.86-26.1,7.86s-26.8-3.44-26.8-7.51c0-2,.07-19.64.07-19.64,0-2.35,1.47-5,2.52-6.95a3.73,3.73,0,0,0,.56-1.47l-.56-47.5a4.63,4.63,0,0,0-.63-1.69A8.75,8.75,0,0,1,77.21,94L78.33,82c0-9.19,15.17-18.05,18.1-32.7l14.53.5C114.46,64,129.06,73.68,129.27,82l.56,12.14a9.87,9.87,0,0,1-1.4,5.12c-.23.38-.77,1-.77,1.41l-.14,48.76A4.39,4.39,0,0,0,127.87,151Z" style="fill:#fff;opacity:0.4"/><ellipse cx="103.51" cy="179.42" rx="26.6" ry="3.69" style="fill:#a38507;stroke:#8e7300;stroke-miterlimit:10;stroke-width:1.50276522962818px"/><path d="M127.87,151c.91,1.72,1.89,3,1.89,5.06,0,0,0,17.85-.14,19.71-.21,4.06-12.17,7.86-26.1,7.86s-26.8-3.44-26.8-7.51c0-2,.07-19.64.07-19.64,0-2.35,1.47-5,2.52-6.95a3.73,3.73,0,0,0,.56-1.47l-.56-47.5a4.63,4.63,0,0,0-.63-1.69A8.75,8.75,0,0,1,77.21,94L78.33,82c0-6.23,7-12.3,12.37-20.13a210.6,210.6,0,0,0,26.08.11c5.46,8,12.35,14.28,12.49,19.95l.56,12.14a9.87,9.87,0,0,1-1.4,5.12c-.23.38-.77,1-.77,1.41l-.14,48.76A4.39,4.39,0,0,0,127.87,151Z" style="fill:#ffd522;opacity:0.8"/><path d="M127.87,151c.91,1.72,1.89,3,1.89,5.06,0,0,0,17.85-.14,19.71-.21,4.06-12.17,7.86-26.1,7.86s-26.8-3.44-26.8-7.51c0-2,.07-19.64.07-19.64,0-2.35,1.47-5,2.52-6.95a3.73,3.73,0,0,0,.56-1.47l-.56-47.5a4.63,4.63,0,0,0-.63-1.69A8.75,8.75,0,0,1,77.21,94L78.33,82c0-6.23,7-12.3,12.37-20.13a210.6,210.6,0,0,0,26.08.11c5.46,8,12.35,14.28,12.49,19.95l.56,12.14a9.87,9.87,0,0,1-1.4,5.12c-.23.38-.77,1-.77,1.41l-.14,48.76A4.39,4.39,0,0,0,127.87,151Z" style="opacity:0.5;fill:url(#linear-gradient-12)"/><path d="M91,61.47a87,87,0,0,0,25.49.12" style="fill:none;stroke:#bca43f;stroke-miterlimit:10;stroke-width:0.857621344740155px"/><path d="M131.84,156.46a12.73,12.73,0,0,0-1.22-5.45,5,5,0,0,1-.46-2.11l-.56-47.84a7.5,7.5,0,0,1,1.14-2.66,10.26,10.26,0,0,0,1.1-4.63l-.7-11c-.06-10-15.51-19.79-19.46-34l-16.2-.2C92.16,63.2,76.12,73.08,76.12,82.27L75,93.77a10.2,10.2,0,0,0,1.34,5.07,5.34,5.34,0,0,1,.75,2.66v46.56a5.1,5.1,0,0,1-.6,2.39,12.76,12.76,0,0,0-1.49,6v21.74c0,4.07,12.66,7.36,28.41,7.36s28.39-3.29,28.39-7.36Zm-5.34-5.29a11.5,11.5,0,0,1,1.83,5.49s-.42,16.32-.51,18.18c-.21,4.06-10.39,7-24.32,7s-25.19-2.31-25.19-6.37c0-2,.08-19.05.08-19.05a14.9,14.9,0,0,1,2-6.74,2.64,2.64,0,0,0,.31-1.23l-.47-47.81a2.64,2.64,0,0,0-.37-1.29,11.1,11.1,0,0,1-1.49-5.61l1-11.5c0-9.19,15-18,18-32.64l12.72.14c3.5,14.22,17.49,24.8,17.7,33.08l.92,10.92c0,1.84-1.17,3.67-2.09,5.19a2.41,2.41,0,0,0-.35,1.25l0,49.14A5.61,5.61,0,0,0,126.5,151.17Z" style="fill:#8e7300"/><path d="M103.42,142a119.18,119.18,0,0,1-16.83-1.2,2.67,2.67,0,0,1-2.4-2.57V111.66a2.55,2.55,0,0,1,2.36-2.56A21.71,21.71,0,0,0,93,107.52a26.45,26.45,0,0,1,10.3-2,27.58,27.58,0,0,1,10,1.89,25.55,25.55,0,0,0,7,1.64,2.61,2.61,0,0,1,2.45,2.57v26.61a2.69,2.69,0,0,1-2.42,2.57A119.57,119.57,0,0,1,103.42,142Z" style="fill:#a5ce4a"/><path d="M103.3,106.39a26.86,26.86,0,0,1,9.67,1.84,27,27,0,0,0,7.24,1.68,1.75,1.75,0,0,1,1.65,1.72v26.61a1.83,1.83,0,0,1-1.68,1.72,117.88,117.88,0,0,1-16.76,1.2A119,119,0,0,1,86.71,140a1.8,1.8,0,0,1-1.66-1.72V111.66A1.7,1.7,0,0,1,86.61,110a22.41,22.41,0,0,0,6.68-1.63,25.84,25.84,0,0,1,10-1.93m0-1.72c-8.68,0-11.11,3.22-16.8,3.57a3.41,3.41,0,0,0-3.17,3.42v26.59a3.52,3.52,0,0,0,3.14,3.42,119.92,119.92,0,0,0,17,1.21,119.26,119.26,0,0,0,17-1.22,3.53,3.53,0,0,0,3.15-3.42V111.63a3.45,3.45,0,0,0-3.25-3.43c-6-.4-8.91-3.53-17-3.53Z" style="fill:#f2f1eb"/><path d="M123.57,128.07v-9.49c-4.25,1.11-9.75.51-15.71-3.24-7.39-4.67-18.4-1.56-24.53,1.63v8.61c5.14-2.24,9.46-.59,13.09,2.66C105,135.87,116.75,131.85,123.57,128.07Z" style="fill:#89a835"/><g style="opacity:0.6000000000000001"><path d="M120.42,141.66a119.18,119.18,0,0,1-33.95,0,3.52,3.52,0,0,1-3.14-3.42V111.66a3.41,3.41,0,0,1,3.17-3.42c5.69-.35,8.12-3.57,16.8-3.57,8.11,0,11,3.13,17,3.53a3.45,3.45,0,0,1,3.25,3.43v26.61A3.53,3.53,0,0,1,120.42,141.66Z" style="fill:url(#linear-gradient-13)"/></g><path d="M99,51C96,64.76,83.91,73.88,82.15,81.24c-1,4.18-1.38,12.29-.41,12.78s3.27,1,7.18,1c1.12,0-1.2-10.45.71-14.62,4.28-9.33,8.65-18.56,10.55-29.25C100.34,50.25,99.17,50.31,99,51Z" style="fill:#fff;opacity:0.5"/><path d="M124.78,98.59c-1.42,1.44-41,1.63-42.06,0-.56-.89-1.81-3.21,0-2.77,6.26,1.52,35.67,1.26,42.06,0C126.9,95.4,126.2,97.15,124.78,98.59Z" style="fill:#8e7300;opacity:0.30000000000000004"/><path d="M83.38,101c.09.87.28,3.77.31,5.63,0,.73,6.56.25,6.74-1.06s1.58-4.38.1-4.38S83.26,99.79,83.38,101Z" style="fill:#fff;opacity:0.5"/><path d="M84.38,144.36c0,2.24.5,4.57-.06,5.5s-3.1,2.12-3.1,4.72-.22,19.73-.1,20.72,7.19,4.44,6.82,1.65-1.52-19-.42-21.46A17.3,17.3,0,0,0,89,150.7a29.21,29.21,0,0,0-.32-5.94C88.51,144,84.38,142.87,84.38,144.36Z" style="fill:#fff;opacity:0.5"/><path d="M121.93,151.32c-7.22,1.17-29.05,1.65-37.3-.23-1.6-.36-3.67,2-1.91,2.62,6.92,2.39,34.84,2,41.37.31C126.18,153.49,124.78,150.86,121.93,151.32Z" style="fill:#8e7300;opacity:0.30000000000000004"/><path d="M125.53,155.3c2.5-.71,0,18.94.11,19.93.23,2.14-19.49,6.42-19.12,3.63s-2.89-22.32-.21-22.24C108.27,156.68,120.85,156.62,125.53,155.3Z" style="opacity:0.6000000000000001;fill:url(#linear-gradient-14)"/><path d="M109.06,50.92c3,13.78,15,22.5,16.75,29.86,1,4.18,1.57,12.94.53,13.26-4.31,1.33-20.16,1.89-23.42,1.44-1.1-.15,6.22-10.93,5.61-19.75-.72-10.23-1.44-13.11-3.11-24.81C105.35,50.4,108.91,50.24,109.06,50.92Z" style="opacity:0.6000000000000001;fill:url(#linear-gradient-15)"/><path d="M123.68,101c.37.79-.28,3.77-.31,5.63,0,.73-6.72-.55-8-1-2-.69-6.36-2.17-9.44-2.38-1.3-.09-1.61-2-.91-2C111.88,102,123.51,100.59,123.68,101Z" style="opacity:0.6000000000000001;fill:url(#linear-gradient-16)"/><path d="M122.91,142.77c1.37-.43.35,5.38.59,6.35s-14.93,2.47-18.14,1.78c-2.75-.59-2.27-6.27.4-6.2C107.72,144.76,118.41,144.18,122.91,142.77Z" style="opacity:0.6000000000000001;fill:url(#linear-gradient-17)"/><path d="M113,49.68a93.72,93.72,0,0,1-19,0,.87.87,0,0,1-.77-.89,40.35,40.35,0,0,1,.14-4.37C93.5,43.66,94,40,94,40a1.72,1.72,0,0,1,1.61-1.66,127.87,127.87,0,0,1,15.78,0,1.71,1.71,0,0,1,1.63,1.67s.41,3.48.59,4a44,44,0,0,1,.1,4.73A.86.86,0,0,1,113,49.68Z" style="fill:#1e7512"/><path d="M111.33,47.38a90.16,90.16,0,0,1-16.22.25l0-3.11L95.62,40a110.55,110.55,0,0,1,15.09.09l.56,4.43Z" style="fill:#549b3d"/><path d="M104.21,39.77c-2.54-.06-4.91,0-7.72.14V46.7a68.93,68.93,0,0,0,7.72.1Z" style="fill:#71b252"/><path d="M101.33,39.75c-.92,0-1.84,0-2.8.06v7c.94,0,1.88.06,2.8.06Z" style="fill:#89c967"/><path d="M111.27,44.48l-.56-4.43L109.5,40v6.5l1.81-.15Z" style="fill:#71b252"/><path d="M95.11,47.63a90.16,90.16,0,0,0,16.22-.25l-.06-2.82H95.13Z" style="fill:#549b3d"/><path d="M109.54,46.14l-.05,1.17a1.55,1.55,0,0,1,0,.21l1.83-.14,0-2.4h-.58C109.6,45,109.54,44.79,109.54,46.14Z" style="fill:#71b252"/><path d="M102.49,47.88s0-.08,0-.13l-.12-1.49c0-.64-.4-1.11-1.59-1.11H99.13A1.15,1.15,0,0,0,98,46.3l0,1.18c0,.13,0,.24,0,.34C99.49,47.89,101,47.91,102.49,47.88Z" style="fill:#97d375"/></g></g></svg>