<svg id="Label_Stone_A" data-name="Label Stone A" xmlns="http://www.w3.org/2000/svg" xmlns:xlink="http://www.w3.org/1999/xlink" viewBox="0 0 285 141"><defs><linearGradient id="linear-gradient" x1="50.82" y1="81.28" x2="100.49" y2="99.36" gradientUnits="userSpaceOnUse"><stop offset="0" stop-opacity="0.6"/><stop offset="0.87" stop-opacity="0.2"/><stop offset="1" stop-color="#4ec9f5" stop-opacity="0.2"/></linearGradient></defs><title>one-view-label-a-stone</title><g id="Label_Stone_A-2" data-name="Label Stone A"><circle id="Backdrop" cx="62.54" cy="78.52" r="62.18" style="fill:#8dcae4"/><path id="Label_Back" data-name="Label Back" d="M93,52.34a385.22,385.22,0,0,1,155.18-11l-13.9,67.5a327.6,327.6,0,0,0-131.89-11Z" style="fill:#ebd900"/><g id="Label"><path d="M125.34,57.88q3.47,15.23,5.49,24.64v0a7.48,7.48,0,0,1-1.5.14,9.34,9.34,0,0,1-1.61-.21h0c-.16-.46-.38-1.27-.66-2.41-.35-1.38-.67-2.51-1-3.4-1.07,0-2.48-.07-4.23-.07h-1.47s-.08.51-.25,1.44c-.21,1.28-.41,2.34-.59,3.17s-.4,1.26-.63,1.31a1.23,1.23,0,0,1-.35,0l-.93,0c-.46,0-1,0-1.56,0h-.38v0a11.19,11.19,0,0,0,.31-1.85q.89-5.53,2.05-11.22a91.92,91.92,0,0,1,3.13-11.36,4.17,4.17,0,0,1,.56,0h.77C123.41,58,124.36,58,125.34,57.88Zm-3.19,16q2.25,0,4,0c-1.3-7.35-2.09-11.15-2.34-11.41a1.78,1.78,0,0,0-.53-.11c-.28,0-.51.23-.7.69a23.19,23.19,0,0,0-.77,3.06c-.32,1.59-.71,3.59-1.15,6l-.32,1.75h.7C121.5,73.84,121.87,73.85,122.15,73.87Z" style="fill:#fff"/><path d="M136.36,70.79l-2.69,0h-.11a10.21,10.21,0,0,1-.1-1.61l0-1.72a5.25,5.25,0,0,0,0-.73,4.8,4.8,0,0,1,1.68-.25,4.16,4.16,0,0,1,1.43.18c0,.12,0,.75-.1,1.89s-.11,1.88-.11,2.2v.07Zm0,11.76-2.66,0h-.11a10.21,10.21,0,0,1-.1-1.61l0-1.72a5.25,5.25,0,0,0,0-.73,4.8,4.8,0,0,1,1.68-.25,3.89,3.89,0,0,1,1.4.18c0,.12,0,.75-.11,1.89s-.1,1.88-.1,2.2v.07Z" style="fill:#fff"/><path d="M163.21,66h0a11.61,11.61,0,0,1-2,.18,5.55,5.55,0,0,1-1.57-.18,5,5,0,0,0,.07-.91,3.29,3.29,0,0,0-.56-1.94A3.24,3.24,0,0,0,157.61,62a4.74,4.74,0,0,0-1.54-.24,5.36,5.36,0,0,0-2.35.54A4.27,4.27,0,0,0,152,63.76a3.16,3.16,0,0,0-.52,2.1q.45,2.65,3.67,2.76a9.84,9.84,0,0,1,6.06,1.86,5.47,5.47,0,0,1,2,4.37,8.88,8.88,0,0,1-1,4.31,6.47,6.47,0,0,1-2.6,2.68,7.57,7.57,0,0,1-3.64.89,10.85,10.85,0,0,1-3.89-.72A7.91,7.91,0,0,1,149,79.89a5.54,5.54,0,0,1-1.43-3.32v0a3.85,3.85,0,0,1-.11-.94v-.25c.51,0,.91-.07,1.19-.07l1.3,0q.38,0,1.08,0a3.26,3.26,0,0,0,.86,2.38,5.23,5.23,0,0,0,2.71,1.44,4.34,4.34,0,0,0,1.09.14,4.07,4.07,0,0,0,2.1-.56,3.66,3.66,0,0,0,1.43-1.54,4,4,0,0,0,.39-2.17,3,3,0,0,0-.9-2,3.76,3.76,0,0,0-1.75-.87,22.14,22.14,0,0,0-2.74-.35l-1.33-.11a5.83,5.83,0,0,1-3-1.38,5.51,5.51,0,0,1-1.71-2.57,7.19,7.19,0,0,1-.32-2.07,6.89,6.89,0,0,1,.32-2.1,7.91,7.91,0,0,1,1.62-2.95,7.27,7.27,0,0,1,2.72-2,8.4,8.4,0,0,1,3.18-.56,11.05,11.05,0,0,1,4.59.94,5.68,5.68,0,0,1,3.18,5.29A10.24,10.24,0,0,1,163.21,66Z" style="fill:#fff"/><path d="M171.92,58.58v5.35l0,2c1.51,0,3.39-.12,5.63-.24a1.87,1.87,0,0,1,.21,1l0,.8a6.77,6.77,0,0,0,0,1.12q-3.81,0-5.7,0v6.54c0,1.05,0,1.8.07,2.24a3.8,3.8,0,0,0,.28,1.16,3.2,3.2,0,0,0,2.25.87,19.68,19.68,0,0,0,3.1.11c.12.93.18,1.53.18,1.78a4.57,4.57,0,0,1-.18,1.26c-.49,0-1.26,0-2.31,0a10.92,10.92,0,0,1-4.27-.67,3.42,3.42,0,0,1-2-2.66,81,81,0,0,1-.38-8.85V68.73a10.48,10.48,0,0,1-1.05,0l-2.66,0,.1-2.87c.51,0,1.74.07,3.68.07l0-3.68V60.61a19.67,19.67,0,0,1,.07-2.07,12.16,12.16,0,0,1,1.51,0l.94,0A3.69,3.69,0,0,0,171.92,58.58Z" style="fill:#fff"/><path d="M179.76,71.18a18.11,18.11,0,0,1,.12-2.24,12,12,0,0,1,.62-2.35,3.05,3.05,0,0,1,1.94-1.52,10.13,10.13,0,0,1,3.31-.51,4.16,4.16,0,0,0,.7,0l1.4,0a6.21,6.21,0,0,1,4.51,1.54,2.72,2.72,0,0,1,1,1.58,13.54,13.54,0,0,1,.41,3.1c0,1.29.07,2,.07,2.25-.1,2.34-.21,4.19-.34,5.57a4.72,4.72,0,0,1-.78,2.66,3.35,3.35,0,0,1-1.84,1.29,9.55,9.55,0,0,1-2.78.35c-.42,0-1.05,0-1.89-.07l-1.61,0a5.15,5.15,0,0,1-3.1-1.51,5.52,5.52,0,0,1-1.33-2.69,19.72,19.72,0,0,1-.3-3.71V73.07A17.23,17.23,0,0,0,179.76,71.18Zm7.14-3.33a4.28,4.28,0,0,0-3.43,1.23,3,3,0,0,0-.58,1.42,13.31,13.31,0,0,0-.08,2.22,11,11,0,0,0,0,1.4c0,.58.06,1,.06,1.36L183,77a2.76,2.76,0,0,0,.78,2,3.78,3.78,0,0,0,1.74.79,9.54,9.54,0,0,0,1.43.1,5.38,5.38,0,0,0,2.38-.49,2.31,2.31,0,0,0,1.3-1.61,10.37,10.37,0,0,0,.14-1.43c.11-1.63.17-2.74.17-3.33a7.18,7.18,0,0,0-.84-3.71A3.37,3.37,0,0,0,186.9,67.85Z" style="fill:#fff"/><path d="M199.89,65.16a6.39,6.39,0,0,1,.07,1V67a15,15,0,0,1,2.8-1.24,10,10,0,0,1,3.22-.54,5.15,5.15,0,0,1,3.15,1.08q.84.73.84,6c0,.89,0,2.26-.07,4.13s-.07,3.06-.07,3.85c0,1,0,1.76,0,2.2a13,13,0,0,1-1.92.11h-1.16a17.51,17.51,0,0,1-.07-2V79.12l0-2.24c0-1.51.05-2.6,0-3.25q0-.21-.09-1.44a8.56,8.56,0,0,0-.4-2.17c-.07-.81-.64-1.19-1.71-1.12a8,8,0,0,0-3.56.67,2.65,2.65,0,0,0-1.27,2.27c0,.31,0,.88,0,1.72,0,1.31,0,2.71.07,4.2.05.89.07,1.54.07,2,0,.86,0,1.75-.1,2.66v.14a6,6,0,0,1-1.32.12l-.92,0c-.38,0-.67,0-.88,0l0-6q-.07-4.12-.07-6.2c0-1.12,0-2.89.07-5.32a9.37,9.37,0,0,0,1,0,7.67,7.67,0,0,0,.91,0l.49,0a5.09,5.09,0,0,1,.56,0C199.77,65.05,199.89,65.09,199.89,65.16Z" style="fill:#fff"/><path d="M215.6,73.7v.63l0,1c0,2.9,1.42,4.34,4.27,4.34a3.55,3.55,0,0,0,2.53-.78,2.86,2.86,0,0,0,.83-2.16c0-.14,0-.39-.07-.77a9.58,9.58,0,0,1,1.36-.1q.56,0,.84,0l.51,0a4,4,0,0,0,.68,0,20.49,20.49,0,0,1-.14,3.19,6.08,6.08,0,0,1-.84,2.27,3.58,3.58,0,0,1-2.19,1.35,13.52,13.52,0,0,1-3.41.4,15.17,15.17,0,0,1-1.56-.07,3.77,3.77,0,0,1-.89-.14,5.07,5.07,0,0,1-4-3.44,15.92,15.92,0,0,1-1-6.85c0-.18,0-.57.1-1.17s.11-1.21.19-1.84a7.64,7.64,0,0,1,.48-1.85,4.66,4.66,0,0,1,2.41-2.38,8.87,8.87,0,0,1,3.89-.84,10.36,10.36,0,0,1,2.34.28q4.75.81,4.76,7.17c0,.35,0,.86-.07,1.51a22.68,22.68,0,0,1-3.92.35q-.39,0-1.68,0c-1.84,0-3.21,0-4.09-.07A5.89,5.89,0,0,1,215.6,73.7Zm8.51-2.63a5.34,5.34,0,0,0-.55-2.13,3.88,3.88,0,0,0-1.45-1.65,4.08,4.08,0,0,0-.91-.31,5.33,5.33,0,0,0-1-.07,3.76,3.76,0,0,0-4.44,3.64,3.81,3.81,0,0,0-.07.56.54.54,0,0,0,.4.56,6.72,6.72,0,0,0,1.73.14c.86,0,1.6,0,2.21,0q3.36,0,3.78,0a.38.38,0,0,0,.22-.09.24.24,0,0,0,.06-.19Z" style="fill:#fff"/></g><g id="Stone_A" data-name="Stone A"><polygon points="98 109.65 54.58 119.8 29.48 103.13 28.42 54.54 71.8 45.06 97.71 60.08 98 109.65" style="fill:#7a7a7a"/><g id="Layer_16_copy_7" data-name="Layer 16 copy 7"><g style="opacity:0.8"><path d="M33,92.9a1.58,1.58,0,1,0-2.24,0A1.6,1.6,0,0,0,33,92.9Z" style="fill:#aaa"/><path d="M49.7,95.08a1.58,1.58,0,1,0,2.24,0A1.58,1.58,0,0,0,49.7,95.08Z" style="fill:#aaa"/><path d="M40.87,95.54a1.58,1.58,0,1,0,2.24,0A1.58,1.58,0,0,0,40.87,95.54Z" style="fill:#aaa"/><path d="M46.92,83.27a1.58,1.58,0,1,0,2.24,0A1.58,1.58,0,0,0,46.92,83.27Z" style="fill:#aaa"/><path d="M42.22,111.45a1.58,1.58,0,0,0,2.24,2.24,1.6,1.6,0,0,0,0-2.24A1.58,1.58,0,0,0,42.22,111.45Z" style="fill:#aaa"/><path d="M66.49,95.12a1.58,1.58,0,0,0,0,2.24,1.58,1.58,0,1,0,2.24-2.24A1.58,1.58,0,0,0,66.49,95.12Z" style="fill:#aaa"/><path d="M57.7,84.11a1.6,1.6,0,0,0,0,2.24,1.58,1.58,0,1,0,0-2.24Z" style="fill:#aaa"/><path d="M56.17,67.58a1.58,1.58,0,1,0,0,2.24A1.58,1.58,0,0,0,56.17,67.58Z" style="fill:#aaa"/><path d="M40.62,73.71a1.58,1.58,0,1,0-2.24,0A1.58,1.58,0,0,0,40.62,73.71Z" style="fill:#aaa"/><path d="M48.12,73.31a1.58,1.58,0,0,0-2.24-2.24,1.6,1.6,0,0,0,0,2.24A1.58,1.58,0,0,0,48.12,73.31Z" style="fill:#aaa"/><path d="M32.55,82.16a1.58,1.58,0,0,0,2.24,2.24,1.58,1.58,0,1,0-2.24-2.24Z" style="fill:#aaa"/><path d="M50.54,106.54a1.58,1.58,0,1,0,2.24,0A1.58,1.58,0,0,0,50.54,106.54Z" style="fill:#aaa"/><path d="M60.3,115a1.58,1.58,0,1,0,2.24,0A1.58,1.58,0,0,0,60.3,115Z" style="fill:#aaa"/><path d="M80,90.78a1.58,1.58,0,1,0,2.24,0A1.58,1.58,0,0,0,80,90.78Z" style="fill:#aaa"/><path d="M72.21,80.38a1.58,1.58,0,1,0,2.24,0A1.58,1.58,0,0,0,72.21,80.38Z" style="fill:#aaa"/><path d="M63.94,74.21a1.58,1.58,0,0,0,0,2.24,1.6,1.6,0,0,0,2.24,0,1.58,1.58,0,0,0-2.24-2.24Z" style="fill:#aaa"/><path d="M64,105.47a1.58,1.58,0,1,0,2.24,0A1.58,1.58,0,0,0,64,105.47Z" style="fill:#aaa"/><path d="M54.37,86.87a1.58,1.58,0,1,0,2.24,2.24,1.6,1.6,0,0,0,0-2.24A1.58,1.58,0,0,0,54.37,86.87Z" style="fill:#aaa"/><path d="M52.73,74.52a1.58,1.58,0,0,0,0,2.24,1.6,1.6,0,0,0,2.24,0,1.58,1.58,0,0,0-2.24-2.24Z" style="fill:#aaa"/><path d="M52.61,62.83a1.6,1.6,0,0,0,0-2.24,1.58,1.58,0,1,0,0,2.24Z" style="fill:#aaa"/><path d="M33.85,101.81a1.58,1.58,0,1,0,2.24,2.24,1.6,1.6,0,0,0,0-2.24A1.58,1.58,0,0,0,33.85,101.81Z" style="fill:#aaa"/></g><g style="opacity:0.8"><path d="M39.11,97.63a1.2,1.2,0,0,0,1.7,0,1.21,1.21,0,0,0,0-1.71,1.2,1.2,0,0,0-1.7,0A1.21,1.21,0,0,0,39.11,97.63Z" style="fill:#6d6d6d"/><path d="M39.46,104.33a1.2,1.2,0,1,0,0-1.7A1.2,1.2,0,0,0,39.46,104.33Z" style="fill:#6d6d6d"/><path d="M30.14,99.74a1.2,1.2,0,0,0,1.7,0,1.21,1.21,0,0,0,0-1.71,1.2,1.2,0,0,0-1.7,0A1.21,1.21,0,0,0,30.14,99.74Z" style="fill:#6d6d6d"/><path d="M51.54,103.31a1.2,1.2,0,1,0,0-1.7A1.2,1.2,0,0,0,51.54,103.31Z" style="fill:#6d6d6d"/><path d="M39.13,84.87a1.2,1.2,0,1,0,0-1.7A1.2,1.2,0,0,0,39.13,84.87Z" style="fill:#6d6d6d"/><path d="M30.77,91.54a1.2,1.2,0,1,0,0-1.7A1.2,1.2,0,0,0,30.77,91.54Z" style="fill:#6d6d6d"/><path d="M65.88,116.48a1.2,1.2,0,0,0,1.7,0,1.21,1.21,0,0,0,0-1.71,1.2,1.2,0,0,0-1.7,0A1.21,1.21,0,0,0,65.88,116.48Z" style="fill:#6d6d6d"/><path d="M62.07,111.18a1.2,1.2,0,1,0,0-1.7A1.2,1.2,0,0,0,62.07,111.18Z" style="fill:#6d6d6d"/><path d="M50.19,109.23a1.2,1.2,0,1,0,1.7,0A1.2,1.2,0,0,0,50.19,109.23Z" style="fill:#6d6d6d"/><path d="M47.81,97a1.2,1.2,0,0,0,1.7,0,1.21,1.21,0,0,0,0-1.71,1.2,1.2,0,0,0-1.7,0A1.21,1.21,0,0,0,47.81,97Z" style="fill:#6d6d6d"/><path d="M56.74,91.45a1.21,1.21,0,0,0,1.71,0,1.2,1.2,0,0,0,0-1.7,1.21,1.21,0,0,0-1.71,0A1.2,1.2,0,0,0,56.74,91.45Z" style="fill:#6d6d6d"/><path d="M58.13,101.4a1.2,1.2,0,1,0,0-1.7A1.2,1.2,0,0,0,58.13,101.4Z" style="fill:#6d6d6d"/><path d="M35.84,74.59a1.2,1.2,0,1,0,0-1.7A1.2,1.2,0,0,0,35.84,74.59Z" style="fill:#6d6d6d"/><path d="M47,86.78a1.2,1.2,0,1,0,0-1.7A1.2,1.2,0,0,0,47,86.78Z" style="fill:#6d6d6d"/><path d="M32.87,94.08a1.2,1.2,0,1,0,0-1.7A1.2,1.2,0,0,0,32.87,94.08Z" style="fill:#6d6d6d"/><path d="M44.22,109.67a1.2,1.2,0,1,0,0-1.7A1.2,1.2,0,0,0,44.22,109.67Z" style="fill:#6d6d6d"/></g><g style="opacity:0.8"><path d="M56.85,115.09a1.2,1.2,0,1,0,0,1.7A1.2,1.2,0,0,0,56.85,115.09Z" style="fill:#6d6d6d"/><path d="M58.51,102.39a1.21,1.21,0,1,0,0-1.71A1.21,1.21,0,0,0,58.51,102.39Z" style="fill:#6d6d6d"/><path d="M58.86,109.09a1.2,1.2,0,1,0,0-1.7A1.2,1.2,0,0,0,58.86,109.09Z" style="fill:#6d6d6d"/><path d="M49.54,104.5a1.2,1.2,0,0,0,1.7,0,1.21,1.21,0,0,0,0-1.71,1.2,1.2,0,0,0-1.7,0A1.21,1.21,0,0,0,49.54,104.5Z" style="fill:#6d6d6d"/><path d="M71,108.07a1.2,1.2,0,1,0,0-1.7A1.2,1.2,0,0,0,71,108.07Z" style="fill:#6d6d6d"/><path d="M58.54,89.63a1.2,1.2,0,1,0,0-1.7A1.2,1.2,0,0,0,58.54,89.63Z" style="fill:#6d6d6d"/><path d="M50.18,96.3a1.2,1.2,0,1,0,0-1.7A1.2,1.2,0,0,0,50.18,96.3Z" style="fill:#6d6d6d"/><path d="M37.62,97.47a1.2,1.2,0,1,0,1.7,0A1.2,1.2,0,0,0,37.62,97.47Z" style="fill:#6d6d6d"/><path d="M42.28,109.28a1.2,1.2,0,0,0-1.7,0,1.21,1.21,0,0,0,0,1.71,1.2,1.2,0,0,0,1.7,0A1.21,1.21,0,0,0,42.28,109.28Z" style="fill:#6d6d6d"/><path d="M42,103.58a1.2,1.2,0,1,0,0,1.7A1.2,1.2,0,0,0,42,103.58Z" style="fill:#6d6d6d"/><path d="M48.69,115.41a1.2,1.2,0,1,0,0-1.7A1.2,1.2,0,0,0,48.69,115.41Z" style="fill:#6d6d6d"/><path d="M69.59,114a1.2,1.2,0,1,0,1.7,0A1.2,1.2,0,0,0,69.59,114Z" style="fill:#6d6d6d"/><path d="M67.22,101.75a1.2,1.2,0,0,0,1.7,0,1.21,1.21,0,0,0,0-1.71,1.2,1.2,0,0,0-1.7,0A1.21,1.21,0,0,0,67.22,101.75Z" style="fill:#6d6d6d"/><path d="M76.15,96.21a1.2,1.2,0,1,0,0-1.7A1.2,1.2,0,0,0,76.15,96.21Z" style="fill:#6d6d6d"/><path d="M77.53,106.16a1.2,1.2,0,1,0,0-1.7A1.2,1.2,0,0,0,77.53,106.16Z" style="fill:#6d6d6d"/><path d="M55.24,79.35a1.21,1.21,0,0,0,1.71,0,1.2,1.2,0,0,0,0-1.7,1.21,1.21,0,0,0-1.71,0A1.2,1.2,0,0,0,55.24,79.35Z" style="fill:#6d6d6d"/><path d="M50.64,82a1.2,1.2,0,1,0,0-1.7A1.2,1.2,0,0,0,50.64,82Z" style="fill:#6d6d6d"/><path d="M42.65,91.57a1.2,1.2,0,1,0,0-1.7A1.2,1.2,0,0,0,42.65,91.57Z" style="fill:#6d6d6d"/><path d="M66.41,91.54a1.2,1.2,0,1,0,0-1.7A1.2,1.2,0,0,0,66.41,91.54Z" style="fill:#6d6d6d"/><path d="M52.27,98.84a1.21,1.21,0,0,0,1.71,0,1.2,1.2,0,0,0,0-1.7,1.21,1.21,0,0,0-1.71,0A1.2,1.2,0,0,0,52.27,98.84Z" style="fill:#6d6d6d"/><path d="M42.89,100.08a1.2,1.2,0,1,0,0-1.7A1.2,1.2,0,0,0,42.89,100.08Z" style="fill:#6d6d6d"/><path d="M34,100.18a1.2,1.2,0,1,0,0,1.7A1.2,1.2,0,0,0,34,100.18Z" style="fill:#6d6d6d"/><path d="M63.62,114.43a1.2,1.2,0,1,0,0-1.7A1.2,1.2,0,0,0,63.62,114.43Z" style="fill:#6d6d6d"/></g><g style="opacity:0.8"><path d="M89.31,86.58a1.2,1.2,0,1,0,1.7,0A1.2,1.2,0,0,0,89.31,86.58Z" style="fill:#6d6d6d"/><path d="M87.3,91.49a1.2,1.2,0,1,0,1.7,0A1.2,1.2,0,0,0,87.3,91.49Z" style="fill:#6d6d6d"/><path d="M74.6,89.82a1.2,1.2,0,1,0-1.7,0A1.2,1.2,0,0,0,74.6,89.82Z" style="fill:#6d6d6d"/><path d="M81.3,89.48a1.21,1.21,0,0,0,0-1.71,1.2,1.2,0,0,0-1.7,0,1.21,1.21,0,0,0,0,1.71A1.2,1.2,0,0,0,81.3,89.48Z" style="fill:#6d6d6d"/><path d="M76.71,98.8a1.21,1.21,0,0,0,0-1.71,1.2,1.2,0,0,0-1.7,0,1.21,1.21,0,0,0,0,1.71A1.2,1.2,0,0,0,76.71,98.8Z" style="fill:#6d6d6d"/><path d="M80.28,77.39a1.2,1.2,0,1,0-1.7,0A1.2,1.2,0,0,0,80.28,77.39Z" style="fill:#6d6d6d"/><path d="M61.84,89.8a1.2,1.2,0,1,0-1.7,0A1.2,1.2,0,0,0,61.84,89.8Z" style="fill:#6d6d6d"/><path d="M68.52,98.16a1.2,1.2,0,0,0,0-1.7,1.21,1.21,0,0,0-1.71,0,1.2,1.2,0,0,0,0,1.7A1.21,1.21,0,0,0,68.52,98.16Z" style="fill:#6d6d6d"/><path d="M69.68,110.72a1.2,1.2,0,0,0,1.7,0,1.21,1.21,0,0,0,0-1.71,1.2,1.2,0,0,0-1.7,0A1.21,1.21,0,0,0,69.68,110.72Z" style="fill:#6d6d6d"/><path d="M81.5,106.06a1.2,1.2,0,1,0,1.7,0A1.2,1.2,0,0,0,81.5,106.06Z" style="fill:#6d6d6d"/><path d="M75.79,106.37a1.2,1.2,0,0,0,0,1.7,1.21,1.21,0,0,0,1.71,0,1.2,1.2,0,0,0,0-1.7A1.21,1.21,0,0,0,75.79,106.37Z" style="fill:#6d6d6d"/><path d="M87.62,99.65a1.21,1.21,0,0,0,0-1.71,1.2,1.2,0,0,0-1.7,0,1.21,1.21,0,0,0,0,1.71A1.2,1.2,0,0,0,87.62,99.65Z" style="fill:#6d6d6d"/><path d="M86.2,78.75a1.2,1.2,0,0,0,1.7,0,1.21,1.21,0,0,0,0-1.71,1.2,1.2,0,0,0-1.7,0A1.21,1.21,0,0,0,86.2,78.75Z" style="fill:#6d6d6d"/><path d="M74,81.12a1.2,1.2,0,0,0,0-1.7,1.21,1.21,0,0,0-1.71,0,1.2,1.2,0,0,0,0,1.7A1.21,1.21,0,0,0,74,81.12Z" style="fill:#6d6d6d"/><path d="M68.42,72.19a1.2,1.2,0,1,0-1.7,0A1.2,1.2,0,0,0,68.42,72.19Z" style="fill:#6d6d6d"/><path d="M78.37,70.81a1.21,1.21,0,0,0,0-1.71,1.2,1.2,0,0,0-1.7,0,1.21,1.21,0,0,0,0,1.71A1.2,1.2,0,0,0,78.37,70.81Z" style="fill:#6d6d6d"/><path d="M51.56,93.09a1.2,1.2,0,1,0-1.7,0A1.2,1.2,0,0,0,51.56,93.09Z" style="fill:#6d6d6d"/><path d="M81.39,54.08a1.2,1.2,0,0,0,0-1.7,1.21,1.21,0,0,0-1.71,0,1.2,1.2,0,0,0,0,1.7A1.21,1.21,0,0,0,81.39,54.08Z" style="fill:#6d6d6d"/><path d="M63.78,105.69a1.21,1.21,0,0,0,0-1.71,1.2,1.2,0,0,0-1.7,0,1.21,1.21,0,0,0,0,1.71A1.2,1.2,0,0,0,63.78,105.69Z" style="fill:#6d6d6d"/><path d="M63.76,81.93a1.2,1.2,0,0,0,0-1.7,1.21,1.21,0,0,0-1.71,0,1.2,1.2,0,0,0,0,1.7A1.21,1.21,0,0,0,63.76,81.93Z" style="fill:#6d6d6d"/><path d="M71.05,96.06a1.2,1.2,0,1,0-1.7,0A1.2,1.2,0,0,0,71.05,96.06Z" style="fill:#6d6d6d"/><path d="M72.29,105.45a1.2,1.2,0,1,0-1.7,0A1.2,1.2,0,0,0,72.29,105.45Z" style="fill:#6d6d6d"/><path d="M72.39,114.33a1.2,1.2,0,1,0,1.7,0A1.2,1.2,0,0,0,72.39,114.33Z" style="fill:#6d6d6d"/><path d="M86.64,84.72a1.21,1.21,0,0,0,0-1.71,1.2,1.2,0,0,0-1.7,0,1.21,1.21,0,0,0,0,1.71A1.2,1.2,0,0,0,86.64,84.72Z" style="fill:#6d6d6d"/></g><g style="opacity:0.7000000000000001"><path d="M47.79,94.13a1.79,1.79,0,1,0,1.26-2.2A1.79,1.79,0,0,0,47.79,94.13Z" style="fill:#8e8e8e"/><path d="M43.31,103.06a1.79,1.79,0,1,0,1.25-2.2A1.79,1.79,0,0,0,43.31,103.06Z" style="fill:#8e8e8e"/><path d="M34.63,90.26a1.79,1.79,0,1,0,1.25-2.2A1.79,1.79,0,0,0,34.63,90.26Z" style="fill:#8e8e8e"/><path d="M59.7,110.64a1.79,1.79,0,1,0,1.25-2.2A1.79,1.79,0,0,0,59.7,110.64Z" style="fill:#8e8e8e"/><path d="M57.21,77.65a1.79,1.79,0,1,0,1.26-2.2A1.79,1.79,0,0,0,57.21,77.65Z" style="fill:#8e8e8e"/><path d="M41.48,80.13a1.79,1.79,0,1,0,1.26-2.21A1.8,1.8,0,0,0,41.48,80.13Z" style="fill:#8e8e8e"/><path d="M59.53,99.71A1.79,1.79,0,1,0,63,98.76a1.79,1.79,0,0,0-3.45.95Z" style="fill:#8e8e8e"/><path d="M75.16,99.12a1.79,1.79,0,1,0,1.25-2.21A1.79,1.79,0,0,0,75.16,99.12Z" style="fill:#8e8e8e"/><path d="M69.62,113a1.79,1.79,0,1,0,1.26-2.2A1.8,1.8,0,0,0,69.62,113Z" style="fill:#8e8e8e"/><path d="M60.52,61.92a1.79,1.79,0,1,0,1.25-2.2A1.79,1.79,0,0,0,60.52,61.92Z" style="fill:#8e8e8e"/><path d="M45.93,63.78a1.79,1.79,0,1,0,1.25-2.2A1.79,1.79,0,0,0,45.93,63.78Z" style="fill:#8e8e8e"/><path d="M35.23,68.46a1.79,1.79,0,1,0,1.26-2.2A1.8,1.8,0,0,0,35.23,68.46Z" style="fill:#8e8e8e"/><path d="M66,85.91a1.79,1.79,0,1,0,1.25-2.2A1.79,1.79,0,0,0,66,85.91Z" style="fill:#8e8e8e"/><path d="M42.33,85a1.79,1.79,0,1,0,1.25-2.2A1.79,1.79,0,0,0,42.33,85Z" style="fill:#8e8e8e"/><path d="M29.27,79.65a1.79,1.79,0,1,0,1.26-2.2A1.79,1.79,0,0,0,29.27,79.65Z" style="fill:#8e8e8e"/><path d="M31.67,56.89a1.79,1.79,0,1,0-1.26,2.2A1.8,1.8,0,0,0,31.67,56.89Z" style="fill:#8e8e8e"/><path d="M45.54,113.48a1.79,1.79,0,1,0,1.25-2.21A1.79,1.79,0,0,0,45.54,113.48Z" style="fill:#8e8e8e"/></g><g style="opacity:0.8"><path d="M40.76,76.37a1.2,1.2,0,1,0-1.7,0A1.2,1.2,0,0,0,40.76,76.37Z" style="fill:#6d6d6d"/><path d="M42.77,71.46a1.2,1.2,0,1,0-1.7,0A1.2,1.2,0,0,0,42.77,71.46Z" style="fill:#6d6d6d"/><path d="M55.47,73.12a1.2,1.2,0,1,0,1.7,0A1.2,1.2,0,0,0,55.47,73.12Z" style="fill:#6d6d6d"/><path d="M48.76,73.47a1.2,1.2,0,0,0,0,1.7,1.21,1.21,0,0,0,1.71,0,1.2,1.2,0,0,0,0-1.7A1.21,1.21,0,0,0,48.76,73.47Z" style="fill:#6d6d6d"/><path d="M53.36,64.15a1.2,1.2,0,1,0,1.7,0A1.2,1.2,0,0,0,53.36,64.15Z" style="fill:#6d6d6d"/><path d="M49.79,85.55a1.21,1.21,0,0,0,0,1.71,1.2,1.2,0,0,0,1.7,0,1.21,1.21,0,0,0,0-1.71A1.2,1.2,0,0,0,49.79,85.55Z" style="fill:#6d6d6d"/><path d="M68.22,73.15a1.2,1.2,0,0,0,0,1.7,1.21,1.21,0,0,0,1.71,0,1.2,1.2,0,0,0,0-1.7A1.21,1.21,0,0,0,68.22,73.15Z" style="fill:#6d6d6d"/><path d="M61.55,64.78a1.21,1.21,0,0,0,0,1.71,1.2,1.2,0,0,0,1.7,0,1.21,1.21,0,0,0,0-1.71A1.2,1.2,0,0,0,61.55,64.78Z" style="fill:#6d6d6d"/><path d="M60.39,52.23a1.2,1.2,0,1,0,0,1.7A1.2,1.2,0,0,0,60.39,52.23Z" style="fill:#6d6d6d"/><path d="M48.57,56.88a1.2,1.2,0,1,0-1.7,0A1.2,1.2,0,0,0,48.57,56.88Z" style="fill:#6d6d6d"/><path d="M54.27,56.58a1.21,1.21,0,0,0,0-1.71,1.2,1.2,0,0,0-1.7,0,1.21,1.21,0,0,0,0,1.71A1.2,1.2,0,0,0,54.27,56.58Z" style="fill:#6d6d6d"/><path d="M31.76,71.36a1.2,1.2,0,0,0,0,1.7,1.21,1.21,0,0,0,1.71,0,1.2,1.2,0,0,0,0-1.7A1.21,1.21,0,0,0,31.76,71.36Z" style="fill:#6d6d6d"/><path d="M42.44,63.3a1.2,1.2,0,0,0,0,1.7,1.21,1.21,0,0,0,1.71,0,1.2,1.2,0,0,0,0-1.7A1.21,1.21,0,0,0,42.44,63.3Z" style="fill:#6d6d6d"/><path d="M43.87,84.2a1.2,1.2,0,1,0,0,1.7A1.2,1.2,0,0,0,43.87,84.2Z" style="fill:#6d6d6d"/><path d="M56.11,81.83a1.2,1.2,0,1,0,1.7,0A1.2,1.2,0,0,0,56.11,81.83Z" style="fill:#6d6d6d"/><path d="M61.65,90.76a1.2,1.2,0,1,0,1.7,0A1.2,1.2,0,0,0,61.65,90.76Z" style="fill:#6d6d6d"/><path d="M51.7,92.14a1.2,1.2,0,1,0,1.7,0A1.2,1.2,0,0,0,51.7,92.14Z" style="fill:#6d6d6d"/><path d="M78.51,69.85a1.2,1.2,0,1,0,1.7,0A1.2,1.2,0,0,0,78.51,69.85Z" style="fill:#6d6d6d"/><path d="M72.57,62a1.2,1.2,0,1,0,1.7,0A1.2,1.2,0,0,0,72.57,62Z" style="fill:#6d6d6d"/><path d="M66.29,57.26a1.2,1.2,0,1,0,1.7,0A1.2,1.2,0,0,0,66.29,57.26Z" style="fill:#6d6d6d"/><path d="M66.31,81a1.21,1.21,0,0,0,0,1.71,1.2,1.2,0,0,0,1.7,0A1.21,1.21,0,0,0,68,81,1.2,1.2,0,0,0,66.31,81Z" style="fill:#6d6d6d"/><path d="M59,66.88a1.2,1.2,0,1,0,1.7,0A1.2,1.2,0,0,0,59,66.88Z" style="fill:#6d6d6d"/><path d="M57.78,57.49a1.21,1.21,0,0,0,0,1.71,1.2,1.2,0,0,0,1.7,0,1.21,1.21,0,0,0,0-1.71A1.2,1.2,0,0,0,57.78,57.49Z" style="fill:#6d6d6d"/><path d="M43.43,78.23a1.2,1.2,0,1,0,1.7,0A1.2,1.2,0,0,0,43.43,78.23Z" style="fill:#6d6d6d"/></g><g style="opacity:0.8"><path d="M60.78,116.23a1.2,1.2,0,1,0-1.7,0A1.2,1.2,0,0,0,60.78,116.23Z" style="fill:#6d6d6d"/><path d="M72.79,94.77a1.2,1.2,0,1,0-1.7,0A1.2,1.2,0,0,0,72.79,94.77Z" style="fill:#6d6d6d"/><path d="M40.78,76.07a1.21,1.21,0,0,0,0,1.71,1.2,1.2,0,0,0,1.7,0,1.21,1.21,0,0,0,0-1.71A1.2,1.2,0,0,0,40.78,76.07Z" style="fill:#6d6d6d"/><path d="M47.5,109.55a1.2,1.2,0,1,0,1.7,0A1.2,1.2,0,0,0,47.5,109.55Z" style="fill:#6d6d6d"/><path d="M55.69,110.18a1.21,1.21,0,1,0,1.71,0A1.21,1.21,0,0,0,55.69,110.18Z" style="fill:#6d6d6d"/><path d="M59.17,93.92a1.21,1.21,0,0,0-1.71,0,1.2,1.2,0,0,0,0,1.7,1.21,1.21,0,0,0,1.71,0A1.2,1.2,0,0,0,59.17,93.92Z" style="fill:#6d6d6d"/><path d="M42.71,102.29a1.21,1.21,0,0,0,0-1.71,1.2,1.2,0,0,0-1.7,0,1.21,1.21,0,0,0,0,1.71A1.2,1.2,0,0,0,42.71,102.29Z" style="fill:#6d6d6d"/><path d="M48.42,102a1.21,1.21,0,1,0-1.71,0A1.21,1.21,0,0,0,48.42,102Z" style="fill:#6d6d6d"/><path d="M71.13,93.31a1.2,1.2,0,1,0,1.7,0A1.2,1.2,0,0,0,71.13,93.31Z" style="fill:#6d6d6d"/><path d="M77.5,112a1.2,1.2,0,1,0,1.7,0A1.2,1.2,0,0,0,77.5,112Z" style="fill:#6d6d6d"/><path d="M66.71,107.35a1.2,1.2,0,0,0,0,1.7,1.21,1.21,0,0,0,1.71,0,1.2,1.2,0,0,0,0-1.7A1.21,1.21,0,0,0,66.71,107.35Z" style="fill:#6d6d6d"/><path d="M55.8,103.59a1.2,1.2,0,1,0,1.7,0A1.2,1.2,0,0,0,55.8,103.59Z" style="fill:#6d6d6d"/><path d="M53.16,112.28a1.21,1.21,0,0,0,0,1.71,1.2,1.2,0,0,0,1.7,0,1.21,1.21,0,0,0,0-1.71A1.2,1.2,0,0,0,53.16,112.28Z" style="fill:#6d6d6d"/><path d="M51.92,102.9a1.2,1.2,0,1,0,1.7,0A1.2,1.2,0,0,0,51.92,102.9Z" style="fill:#6d6d6d"/><path d="M51.82,94a1.2,1.2,0,1,0-1.7,0A1.2,1.2,0,0,0,51.82,94Z" style="fill:#6d6d6d"/></g><g style="opacity:0.8"><path d="M47.16,64.77a1.58,1.58,0,1,0-1.59-1.58A1.58,1.58,0,0,0,47.16,64.77Z" style="fill:#aaa"/><path d="M53.59,62.07A1.58,1.58,0,1,0,52,60.49,1.59,1.59,0,0,0,53.59,62.07Z" style="fill:#aaa"/><path d="M63.87,75.44A1.59,1.59,0,1,0,65.45,77,1.59,1.59,0,0,0,63.87,75.44Z" style="fill:#aaa"/><path d="M57.3,69.52a1.59,1.59,0,1,0,1.59,1.59A1.59,1.59,0,0,0,57.3,69.52Z" style="fill:#aaa"/><path d="M70.25,65.13a1.59,1.59,0,1,0,1.59,1.58A1.58,1.58,0,0,0,70.25,65.13Z" style="fill:#aaa"/><path d="M47,81.72a1.59,1.59,0,1,0,1.59,1.59A1.59,1.59,0,0,0,47,81.72Z" style="fill:#aaa"/><path d="M75.71,87.34a1.58,1.58,0,1,0,1.59,1.58A1.58,1.58,0,0,0,75.71,87.34Z" style="fill:#aaa"/><path d="M77.29,73.34a1.59,1.59,0,1,0,1.58,1.59A1.59,1.59,0,0,0,77.29,73.34Z" style="fill:#aaa"/><path d="M87.89,60.57a1.59,1.59,0,1,0-1.58,1.59A1.58,1.58,0,0,0,87.89,60.57Z" style="fill:#aaa"/><path d="M72.56,53.91A1.59,1.59,0,1,0,71,52.33,1.58,1.58,0,0,0,72.56,53.91Z" style="fill:#aaa"/><path d="M78.15,58.93a1.59,1.59,0,1,0-1.58-1.58A1.59,1.59,0,0,0,78.15,58.93Z" style="fill:#aaa"/><path d="M43.44,51.74A1.59,1.59,0,1,0,45,53.32,1.58,1.58,0,0,0,43.44,51.74Z" style="fill:#aaa"/><path d="M60.89,54.18a1.59,1.59,0,1,0,1.58,1.58A1.59,1.59,0,0,0,60.89,54.18Z" style="fill:#aaa"/><path d="M42.76,75a1.59,1.59,0,1,0-1.58,1.58A1.59,1.59,0,0,0,42.76,75Z" style="fill:#aaa"/><path d="M56.83,105a1.59,1.59,0,1,0,1.58,1.58A1.59,1.59,0,0,0,56.83,105Z" style="fill:#aaa"/><path d="M53.2,97.61a1.58,1.58,0,1,0,1.59,1.58A1.58,1.58,0,0,0,53.2,97.61Z" style="fill:#aaa"/><path d="M42.66,89.63a1.59,1.59,0,1,0,1.58,1.58A1.59,1.59,0,0,0,42.66,89.63Z" style="fill:#aaa"/><path d="M88.35,93.84a1.59,1.59,0,1,0,1.58,1.58A1.58,1.58,0,0,0,88.35,93.84Z" style="fill:#aaa"/><path d="M90.18,81a1.59,1.59,0,1,0,1.58,1.59A1.59,1.59,0,0,0,90.18,81Z" style="fill:#aaa"/><path d="M88.7,70.75a1.59,1.59,0,1,0,1.58,1.58A1.58,1.58,0,0,0,88.7,70.75Z" style="fill:#aaa"/><path d="M66.61,92.88a1.59,1.59,0,1,0,1.59,1.58A1.58,1.58,0,0,0,66.61,92.88Z" style="fill:#aaa"/><path d="M73,72.94a1.58,1.58,0,1,0,1.59,1.58A1.58,1.58,0,0,0,73,72.94Z" style="fill:#aaa"/><path d="M80.56,63a1.59,1.59,0,1,0,1.58,1.59A1.59,1.59,0,0,0,80.56,63Z" style="fill:#aaa"/><path d="M47.9,69a1.58,1.58,0,1,0,1.59,1.58A1.58,1.58,0,0,0,47.9,69Z" style="fill:#aaa"/></g><g style="opacity:0.8"><path d="M46.48,82.45a1.21,1.21,0,1,0-1.21,1.2A1.2,1.2,0,0,0,46.48,82.45Z" style="fill:#6d6d6d"/><path d="M44.42,77.56a1.2,1.2,0,1,0-1.2,1.2A1.21,1.21,0,0,0,44.42,77.56Z" style="fill:#6d6d6d"/><path d="M54.58,69.75a1.21,1.21,0,1,0,1.2-1.2A1.21,1.21,0,0,0,54.58,69.75Z" style="fill:#6d6d6d"/><path d="M50.08,74.74a1.21,1.21,0,1,0,1.21-1.2A1.21,1.21,0,0,0,50.08,74.74Z" style="fill:#6d6d6d"/><path d="M46.74,64.9A1.21,1.21,0,1,0,48,63.7,1.21,1.21,0,0,0,46.74,64.9Z" style="fill:#6d6d6d"/><path d="M59.35,82.56a1.21,1.21,0,1,0,1.21-1.2A1.21,1.21,0,0,0,59.35,82.56Z" style="fill:#6d6d6d"/><path d="M63.62,60.75a1.2,1.2,0,0,0,2.4,0,1.2,1.2,0,0,0-2.4,0Z" style="fill:#6d6d6d"/><path d="M53,59.56a1.2,1.2,0,1,0,1.2-1.21A1.2,1.2,0,0,0,53,59.56Z" style="fill:#6d6d6d"/><path d="M43.28,51.5a1.21,1.21,0,1,0,1.21,1.2A1.2,1.2,0,0,0,43.28,51.5Z" style="fill:#6d6d6d"/><path d="M38.22,63.15a1.2,1.2,0,1,0-1.2,1.2A1.2,1.2,0,0,0,38.22,63.15Z" style="fill:#6d6d6d"/><path d="M42,58.9a1.21,1.21,0,1,0-1.21,1.2A1.2,1.2,0,0,0,42,58.9Z" style="fill:#6d6d6d"/><path d="M36.57,85.27a1.21,1.21,0,1,0,1.2-1.2A1.2,1.2,0,0,0,36.57,85.27Z" style="fill:#6d6d6d"/><path d="M38.42,72a1.21,1.21,0,1,0,1.21-1.21A1.21,1.21,0,0,0,38.42,72Z" style="fill:#6d6d6d"/><path d="M54.21,85.79a1.21,1.21,0,1,0,1.2,1.2A1.2,1.2,0,0,0,54.21,85.79Z" style="fill:#6d6d6d"/><path d="M61.19,75.45a1.21,1.21,0,1,0,1.2-1.2A1.21,1.21,0,0,0,61.19,75.45Z" style="fill:#6d6d6d"/><path d="M71.42,77.85a1.21,1.21,0,1,0,1.2-1.2A1.21,1.21,0,0,0,71.42,77.85Z" style="fill:#6d6d6d"/><path d="M65.36,85.87a1.21,1.21,0,1,0,1.2-1.21A1.2,1.2,0,0,0,65.36,85.87Z" style="fill:#6d6d6d"/><path d="M68.56,51.15a1.21,1.21,0,1,0,1.2-1.2A1.2,1.2,0,0,0,68.56,51.15Z" style="fill:#6d6d6d"/><path d="M58.77,49.76A1.21,1.21,0,1,0,60,48.56,1.21,1.21,0,0,0,58.77,49.76Z" style="fill:#6d6d6d"/><path d="M51,50.89a1.21,1.21,0,1,0,1.21-1.21A1.21,1.21,0,0,0,51,50.89Z" style="fill:#6d6d6d"/><path d="M67.83,67.67A1.2,1.2,0,1,0,69,66.46,1.2,1.2,0,0,0,67.83,67.67Z" style="fill:#6d6d6d"/><path d="M52.68,62.83a1.2,1.2,0,1,0,1.2-1.2A1.2,1.2,0,0,0,52.68,62.83Z" style="fill:#6d6d6d"/><path d="M45.16,57.07a1.21,1.21,0,1,0,1.2-1.2A1.21,1.21,0,0,0,45.16,57.07Z" style="fill:#6d6d6d"/><path d="M40,56.11a1.21,1.21,0,1,0-1.2,1.21A1.2,1.2,0,0,0,40,56.11Z" style="fill:#6d6d6d"/><path d="M49.68,81.88a1.2,1.2,0,0,0,2.4,0,1.2,1.2,0,0,0-2.4,0Z" style="fill:#6d6d6d"/></g><g style="opacity:0.8"><path d="M56.83,99.54a1.21,1.21,0,1,0-1.2,1.2A1.21,1.21,0,0,0,56.83,99.54Z" style="fill:#6d6d6d"/><path d="M54.78,94.65a1.21,1.21,0,1,0-1.2,1.2A1.21,1.21,0,0,0,54.78,94.65Z" style="fill:#6d6d6d"/><path d="M64.94,86.84a1.2,1.2,0,1,0,1.2-1.2A1.2,1.2,0,0,0,64.94,86.84Z" style="fill:#6d6d6d"/><path d="M60.44,91.83a1.21,1.21,0,1,0,1.2-1.21A1.2,1.2,0,0,0,60.44,91.83Z" style="fill:#6d6d6d"/><path d="M57.1,82a1.21,1.21,0,1,0,1.2-1.21A1.2,1.2,0,0,0,57.1,82Z" style="fill:#6d6d6d"/><path d="M69.71,99.65a1.2,1.2,0,1,0,1.2-1.2A1.2,1.2,0,0,0,69.71,99.65Z" style="fill:#6d6d6d"/><path d="M74,77.84a1.21,1.21,0,1,0,1.21-1.21A1.21,1.21,0,0,0,74,77.84Z" style="fill:#6d6d6d"/><path d="M63.34,76.64a1.21,1.21,0,1,0,1.2-1.2A1.21,1.21,0,0,0,63.34,76.64Z" style="fill:#6d6d6d"/><path d="M53.64,68.59a1.2,1.2,0,1,0,0,2.4,1.2,1.2,0,1,0,0-2.4Z" style="fill:#6d6d6d"/><path d="M48.58,80.24a1.21,1.21,0,1,0-1.21,1.2A1.21,1.21,0,0,0,48.58,80.24Z" style="fill:#6d6d6d"/><path d="M52.39,76a1.21,1.21,0,1,0-1.2,1.2A1.21,1.21,0,0,0,52.39,76Z" style="fill:#6d6d6d"/><path d="M46.93,102.36a1.2,1.2,0,1,0,1.2-1.21A1.2,1.2,0,0,0,46.93,102.36Z" style="fill:#6d6d6d"/><path d="M48.78,89.1A1.21,1.21,0,1,0,50,87.9,1.21,1.21,0,0,0,48.78,89.1Z" style="fill:#6d6d6d"/><path d="M64.57,102.88a1.2,1.2,0,1,0,1.2,1.2A1.2,1.2,0,0,0,64.57,102.88Z" style="fill:#6d6d6d"/><path d="M71.54,92.54a1.21,1.21,0,1,0,1.21-1.2A1.2,1.2,0,0,0,71.54,92.54Z" style="fill:#6d6d6d"/><path d="M81.78,94.94a1.2,1.2,0,0,0,2.4,0,1.2,1.2,0,0,0-2.4,0Z" style="fill:#6d6d6d"/><path d="M75.72,103a1.2,1.2,0,1,0,1.2-1.2A1.2,1.2,0,0,0,75.72,103Z" style="fill:#6d6d6d"/><path d="M78.91,68.24A1.21,1.21,0,1,0,80.12,67,1.21,1.21,0,0,0,78.91,68.24Z" style="fill:#6d6d6d"/><path d="M73.79,66.85a1.21,1.21,0,1,0,1.2-1.2A1.2,1.2,0,0,0,73.79,66.85Z" style="fill:#6d6d6d"/><path d="M61.37,68a1.21,1.21,0,1,0,1.2-1.2A1.21,1.21,0,0,0,61.37,68Z" style="fill:#6d6d6d"/><path d="M78.18,84.75a1.21,1.21,0,1,0,1.21-1.2A1.21,1.21,0,0,0,78.18,84.75Z" style="fill:#6d6d6d"/><path d="M63,79.92a1.21,1.21,0,1,0,1.2-1.2A1.2,1.2,0,0,0,63,79.92Z" style="fill:#6d6d6d"/><path d="M55.52,74.16a1.2,1.2,0,1,0,1.2-1.2A1.2,1.2,0,0,0,55.52,74.16Z" style="fill:#6d6d6d"/><path d="M49.17,68a1.21,1.21,0,1,0-1.2,1.2A1.2,1.2,0,0,0,49.17,68Z" style="fill:#6d6d6d"/><path d="M58.64,97.58a1.21,1.21,0,1,0,1.2-1.21A1.2,1.2,0,0,0,58.64,97.58Z" style="fill:#6d6d6d"/></g><g style="opacity:0.8"><path d="M93,99.49a1.2,1.2,0,0,0,0,2.4,1.2,1.2,0,0,0,0-2.4Z" style="fill:#6d6d6d"/><path d="M85.19,89.33a1.21,1.21,0,1,0-1.2-1.2A1.21,1.21,0,0,0,85.19,89.33Z" style="fill:#6d6d6d"/><path d="M90.18,93.83A1.21,1.21,0,1,0,89,92.62,1.2,1.2,0,0,0,90.18,93.83Z" style="fill:#6d6d6d"/><path d="M80.34,97.17A1.21,1.21,0,1,0,79.14,96,1.21,1.21,0,0,0,80.34,97.17Z" style="fill:#6d6d6d"/><path d="M76.19,80.29a1.2,1.2,0,1,0-1.2-1.2A1.2,1.2,0,0,0,76.19,80.29Z" style="fill:#6d6d6d"/><path d="M75,90.92a1.2,1.2,0,1,0-1.21-1.2A1.2,1.2,0,0,0,75,90.92Z" style="fill:#6d6d6d"/><path d="M66.94,100.62a1.21,1.21,0,1,0,1.2-1.2A1.21,1.21,0,0,0,66.94,100.62Z" style="fill:#6d6d6d"/><path d="M78.59,105.69a1.2,1.2,0,1,0,1.2,1.2A1.2,1.2,0,0,0,78.59,105.69Z" style="fill:#6d6d6d"/><path d="M74.34,101.87a1.21,1.21,0,1,0,1.2,1.21A1.21,1.21,0,0,0,74.34,101.87Z" style="fill:#6d6d6d"/><path d="M87.46,105.49a1.21,1.21,0,1,0-1.2-1.21A1.21,1.21,0,0,0,87.46,105.49Z" style="fill:#6d6d6d"/><path d="M90.89,82.72a1.21,1.21,0,1,0-1.2-1.2A1.21,1.21,0,0,0,90.89,82.72Z" style="fill:#6d6d6d"/><path d="M93.29,72.49a1.21,1.21,0,1,0-1.2-1.2A1.21,1.21,0,0,0,93.29,72.49Z" style="fill:#6d6d6d"/><path d="M66.59,75.35a1.21,1.21,0,1,0-1.2-1.2A1.2,1.2,0,0,0,66.59,75.35Z" style="fill:#6d6d6d"/><path d="M66.33,92.89a1.2,1.2,0,1,0-1.21-1.2A1.2,1.2,0,0,0,66.33,92.89Z" style="fill:#6d6d6d"/><path d="M83.11,76.08a1.21,1.21,0,1,0-1.21-1.2A1.2,1.2,0,0,0,83.11,76.08Z" style="fill:#6d6d6d"/><path d="M78.27,91.23a1.2,1.2,0,1,0-1.2-1.2A1.2,1.2,0,0,0,78.27,91.23Z" style="fill:#6d6d6d"/><path d="M72.51,98.75a1.21,1.21,0,1,0-1.2-1.2A1.21,1.21,0,0,0,72.51,98.75Z" style="fill:#6d6d6d"/><path d="M66.3,105.09a1.21,1.21,0,1,0,1.21,1.21A1.21,1.21,0,0,0,66.3,105.09Z" style="fill:#6d6d6d"/></g><g style="opacity:0.7000000000000001"><path d="M43.36,83.89a1.79,1.79,0,1,0-2.44.67A1.8,1.8,0,0,0,43.36,83.89Z" style="fill:#8e8e8e"/><path d="M44.31,76.05a1.79,1.79,0,1,0-2.45.67A1.78,1.78,0,0,0,44.31,76.05Z" style="fill:#8e8e8e"/><path d="M63.19,73.42a1.79,1.79,0,1,0,2.45-.67A1.8,1.8,0,0,0,63.19,73.42Z" style="fill:#8e8e8e"/><path d="M53.71,76.57a1.79,1.79,0,1,0,2.44-.67A1.79,1.79,0,0,0,53.71,76.57Z" style="fill:#8e8e8e"/><path d="M56.63,61.38a1.79,1.79,0,1,0,2.44-.68A1.79,1.79,0,0,0,56.63,61.38Z" style="fill:#8e8e8e"/><path d="M59.94,93.51a1.79,1.79,0,1,0,2.44-.67A1.78,1.78,0,0,0,59.94,93.51Z" style="fill:#8e8e8e"/><path d="M81.51,68.43A1.79,1.79,0,1,0,84,67.75,1.79,1.79,0,0,0,81.51,68.43Z" style="fill:#8e8e8e"/><path d="M68.63,59.06a1.79,1.79,0,1,0,2.45-.68A1.8,1.8,0,0,0,68.63,59.06Z" style="fill:#8e8e8e"/><path d="M46.89,52.84a1.79,1.79,0,1,0-2.44.67A1.79,1.79,0,0,0,46.89,52.84Z" style="fill:#8e8e8e"/><path d="M55.53,51.31a1.79,1.79,0,1,0-2.44.68A1.79,1.79,0,0,0,55.53,51.31Z" style="fill:#8e8e8e"/><path d="M28.47,80.25a1.79,1.79,0,1,0,2.45-.67A1.79,1.79,0,0,0,28.47,80.25Z" style="fill:#8e8e8e"/><path d="M40.62,64.46a1.8,1.8,0,1,0,2.45-.67A1.8,1.8,0,0,0,40.62,64.46Z" style="fill:#8e8e8e"/><path d="M50.91,93.9a1.79,1.79,0,1,0,.68,2.44A1.79,1.79,0,0,0,50.91,93.9Z" style="fill:#8e8e8e"/><path d="M67.55,85.66A1.79,1.79,0,1,0,70,85,1.8,1.8,0,0,0,67.55,85.66Z" style="fill:#8e8e8e"/><path d="M79,96.3a1.79,1.79,0,1,0,2.44-.67A1.79,1.79,0,0,0,79,96.3Z" style="fill:#8e8e8e"/><path d="M65.28,102.21a1.79,1.79,0,1,0,2.44-.67A1.79,1.79,0,0,0,65.28,102.21Z" style="fill:#8e8e8e"/><path d="M71.88,47a1.79,1.79,0,1,0,2.44-.67A1.78,1.78,0,0,0,71.88,47Z" style="fill:#8e8e8e"/><path d="M81.87,80.47a1.79,1.79,0,1,0,2.44-.67A1.8,1.8,0,0,0,81.87,80.47Z" style="fill:#8e8e8e"/><path d="M65.82,63.07a1.79,1.79,0,1,0,2.44-.67A1.79,1.79,0,0,0,65.82,63.07Z" style="fill:#8e8e8e"/><path d="M60.34,50.09a1.79,1.79,0,1,0,2.44-.68A1.79,1.79,0,0,0,60.34,50.09Z" style="fill:#8e8e8e"/><path d="M47.92,85.51A1.79,1.79,0,0,0,51,87.28a1.79,1.79,0,1,0-3.12-1.77Z" style="fill:#8e8e8e"/></g><g style="opacity:0.8"><path d="M70.78,55.89a1.21,1.21,0,1,0-1.2-1.2A1.2,1.2,0,0,0,70.78,55.89Z" style="fill:#6d6d6d"/><path d="M75.67,53.84a1.21,1.21,0,1,0-1.2-1.21A1.21,1.21,0,0,0,75.67,53.84Z" style="fill:#6d6d6d"/><path d="M83.48,64a1.21,1.21,0,1,0,1.2,1.21A1.21,1.21,0,0,0,83.48,64Z" style="fill:#6d6d6d"/><path d="M78.49,59.5a1.2,1.2,0,1,0,1.2,1.2A1.2,1.2,0,0,0,78.49,59.5Z" style="fill:#6d6d6d"/><path d="M88.33,56.16a1.2,1.2,0,1,0,1.2,1.2A1.2,1.2,0,0,0,88.33,56.16Z" style="fill:#6d6d6d"/><path d="M70.67,68.77a1.2,1.2,0,1,0,1.2,1.2A1.2,1.2,0,0,0,70.67,68.77Z" style="fill:#6d6d6d"/><path d="M92.48,73a1.21,1.21,0,1,0,1.2,1.2A1.2,1.2,0,0,0,92.48,73Z" style="fill:#6d6d6d"/><path d="M93.67,62.4a1.21,1.21,0,1,0,1.21,1.2A1.2,1.2,0,0,0,93.67,62.4Z" style="fill:#6d6d6d"/><path d="M31.16,64.36A1.21,1.21,0,1,0,30,65.57,1.21,1.21,0,0,0,31.16,64.36Z" style="fill:#6d6d6d"/><path d="M65.74,51.58a1.21,1.21,0,1,0-1.2-1.2A1.2,1.2,0,0,0,65.74,51.58Z" style="fill:#6d6d6d"/><path d="M85.67,56.18a1.2,1.2,0,1,0-1.2-1.2A1.2,1.2,0,0,0,85.67,56.18Z" style="fill:#6d6d6d"/><path d="M68,46a1.21,1.21,0,1,0,1.2,1.21A1.21,1.21,0,0,0,68,46Z" style="fill:#6d6d6d"/><path d="M67.44,63.62a1.21,1.21,0,1,0-1.2,1.21A1.2,1.2,0,0,0,67.44,63.62Z" style="fill:#6d6d6d"/><path d="M77.78,70.6A1.21,1.21,0,1,0,79,71.81,1.21,1.21,0,0,0,77.78,70.6Z" style="fill:#6d6d6d"/><path d="M75.38,80.83A1.21,1.21,0,1,0,76.58,82,1.21,1.21,0,0,0,75.38,80.83Z" style="fill:#6d6d6d"/><path d="M67.36,74.77A1.21,1.21,0,1,0,68.57,76,1.21,1.21,0,0,0,67.36,74.77Z" style="fill:#6d6d6d"/><path d="M85.56,77.24a1.21,1.21,0,1,0,1.21,1.2A1.2,1.2,0,0,0,85.56,77.24Z" style="fill:#6d6d6d"/><path d="M90.4,62.09a1.21,1.21,0,1,0,1.2,1.2A1.21,1.21,0,0,0,90.4,62.09Z" style="fill:#6d6d6d"/><path d="M71.35,59.09a1.21,1.21,0,1,0,1.2,1.2A1.2,1.2,0,0,0,71.35,59.09Z" style="fill:#6d6d6d"/></g><g style="opacity:0.8"><path d="M34.54,83.85a1.21,1.21,0,1,0-1.21-1.2A1.2,1.2,0,0,0,34.54,83.85Z" style="fill:#6d6d6d"/><path d="M39.43,81.8a1.21,1.21,0,1,0-1.21-1.21A1.21,1.21,0,0,0,39.43,81.8Z" style="fill:#6d6d6d"/><path d="M47.23,92a1.21,1.21,0,1,0,1.21,1.21A1.21,1.21,0,0,0,47.23,92Z" style="fill:#6d6d6d"/><path d="M42.24,87.46a1.21,1.21,0,1,0,1.21,1.2A1.2,1.2,0,0,0,42.24,87.46Z" style="fill:#6d6d6d"/><path d="M52.09,84.12a1.2,1.2,0,1,0,1.2,1.2A1.21,1.21,0,0,0,52.09,84.12Z" style="fill:#6d6d6d"/><path d="M34.42,96.73a1.2,1.2,0,1,0,1.2,1.2A1.2,1.2,0,0,0,34.42,96.73Z" style="fill:#6d6d6d"/><path d="M56.23,101a1.21,1.21,0,1,0,1.21,1.2A1.2,1.2,0,0,0,56.23,101Z" style="fill:#6d6d6d"/><path d="M57.43,90.36a1.21,1.21,0,1,0,1.2,1.2A1.2,1.2,0,0,0,57.43,90.36Z" style="fill:#6d6d6d"/><path d="M71.38,81.31a1.2,1.2,0,1,0-1.2,1.21A1.2,1.2,0,0,0,71.38,81.31Z" style="fill:#6d6d6d"/><path d="M53.84,75.6a1.21,1.21,0,1,0-1.21-1.21A1.21,1.21,0,0,0,53.84,75.6Z" style="fill:#6d6d6d"/><path d="M58.09,79.41a1.21,1.21,0,1,0-1.21-1.2A1.2,1.2,0,0,0,58.09,79.41Z" style="fill:#6d6d6d"/><path d="M31.72,74a1.2,1.2,0,1,0,1.2,1.2A1.2,1.2,0,0,0,31.72,74Z" style="fill:#6d6d6d"/><path d="M45,75.8a1.21,1.21,0,1,0,1.2,1.2A1.21,1.21,0,0,0,45,75.8Z" style="fill:#6d6d6d"/><path d="M31.2,91.59A1.21,1.21,0,1,0,30,92.79,1.21,1.21,0,0,0,31.2,91.59Z" style="fill:#6d6d6d"/><path d="M41.53,98.56a1.21,1.21,0,1,0,1.2,1.21A1.21,1.21,0,0,0,41.53,98.56Z" style="fill:#6d6d6d"/><path d="M59.28,105.93a1.21,1.21,0,1,0,1.2,1.21A1.2,1.2,0,0,0,59.28,105.93Z" style="fill:#6d6d6d"/><path d="M65.37,98a1.21,1.21,0,1,0,1.2,1.21A1.21,1.21,0,0,0,65.37,98Z" style="fill:#6d6d6d"/><path d="M62.17,85.77a1.2,1.2,0,1,0,1.2,1.2A1.21,1.21,0,0,0,62.17,85.77Z" style="fill:#6d6d6d"/><path d="M49.32,105.2a1.21,1.21,0,1,0,1.2,1.21A1.21,1.21,0,0,0,49.32,105.2Z" style="fill:#6d6d6d"/><path d="M54.15,90.05a1.21,1.21,0,1,0,1.2,1.2A1.2,1.2,0,0,0,54.15,90.05Z" style="fill:#6d6d6d"/><path d="M59.91,82.54a1.2,1.2,0,1,0,1.21,1.2A1.2,1.2,0,0,0,59.91,82.54Z" style="fill:#6d6d6d"/><path d="M66.12,76.19a1.21,1.21,0,1,0-1.2-1.2A1.2,1.2,0,0,0,66.12,76.19Z" style="fill:#6d6d6d"/><path d="M35.1,87.05a1.21,1.21,0,1,0,1.21,1.2A1.2,1.2,0,0,0,35.1,87.05Z" style="fill:#6d6d6d"/></g><g style="opacity:0.8"><path d="M42.15,70.81a1.59,1.59,0,1,0-1.59-1.58A1.58,1.58,0,0,0,42.15,70.81Z" style="fill:#aaa"/><path d="M48.58,68.11A1.59,1.59,0,1,0,47,66.53,1.59,1.59,0,0,0,48.58,68.11Z" style="fill:#aaa"/><path d="M58.86,81.48a1.59,1.59,0,1,0,1.58,1.58A1.58,1.58,0,0,0,58.86,81.48Z" style="fill:#aaa"/><path d="M52.29,75.56a1.59,1.59,0,1,0,1.59,1.58A1.58,1.58,0,0,0,52.29,75.56Z" style="fill:#aaa"/><path d="M65.25,71.16a1.59,1.59,0,1,0,1.58,1.59A1.59,1.59,0,0,0,65.25,71.16Z" style="fill:#aaa"/><path d="M42,87.76a1.59,1.59,0,1,0,1.58,1.58A1.59,1.59,0,0,0,42,87.76Z" style="fill:#aaa"/><path d="M70.71,93.37A1.59,1.59,0,1,0,72.29,95,1.59,1.59,0,0,0,70.71,93.37Z" style="fill:#aaa"/><path d="M72.28,79.38A1.59,1.59,0,1,0,73.86,81,1.58,1.58,0,0,0,72.28,79.38Z" style="fill:#aaa"/><path d="M82.88,66.61a1.59,1.59,0,1,0-1.58,1.58A1.58,1.58,0,0,0,82.88,66.61Z" style="fill:#aaa"/><path d="M67.55,60A1.59,1.59,0,1,0,66,58.36,1.58,1.58,0,0,0,67.55,60Z" style="fill:#aaa"/><path d="M73.14,65a1.59,1.59,0,1,0-1.58-1.59A1.59,1.59,0,0,0,73.14,65Z" style="fill:#aaa"/><path d="M38.44,57.77A1.59,1.59,0,1,0,40,59.36,1.59,1.59,0,0,0,38.44,57.77Z" style="fill:#aaa"/><path d="M55.88,60.21a1.59,1.59,0,1,0,1.58,1.59A1.59,1.59,0,0,0,55.88,60.21Z" style="fill:#aaa"/><path d="M37.75,81a1.59,1.59,0,1,0-1.58,1.59A1.58,1.58,0,0,0,37.75,81Z" style="fill:#aaa"/><path d="M51.35,90.18a1.58,1.58,0,1,0,1.59,1.58A1.58,1.58,0,0,0,51.35,90.18Z" style="fill:#aaa"/><path d="M48.2,103.64a1.59,1.59,0,1,0,1.58,1.59A1.59,1.59,0,0,0,48.2,103.64Z" style="fill:#aaa"/><path d="M37.65,95.66a1.59,1.59,0,1,0,1.58,1.59A1.59,1.59,0,0,0,37.65,95.66Z" style="fill:#aaa"/><path d="M83.34,99.88a1.58,1.58,0,1,0,1.59,1.58A1.58,1.58,0,0,0,83.34,99.88Z" style="fill:#aaa"/><path d="M85.17,87a1.59,1.59,0,1,0,1.58,1.58A1.58,1.58,0,0,0,85.17,87Z" style="fill:#aaa"/><path d="M83.69,76.78a1.59,1.59,0,1,0,1.59,1.59A1.59,1.59,0,0,0,83.69,76.78Z" style="fill:#aaa"/><path d="M61.6,98.91a1.59,1.59,0,1,0,1.59,1.59A1.59,1.59,0,0,0,61.6,98.91Z" style="fill:#aaa"/><path d="M68,79a1.59,1.59,0,1,0,1.58,1.58A1.59,1.59,0,0,0,68,79Z" style="fill:#aaa"/><path d="M75.55,69.08a1.59,1.59,0,1,0,1.58,1.58A1.59,1.59,0,0,0,75.55,69.08Z" style="fill:#aaa"/><path d="M83.72,60.73a1.59,1.59,0,1,0-1.58-1.59A1.59,1.59,0,0,0,83.72,60.73Z" style="fill:#aaa"/><path d="M42.9,75a1.59,1.59,0,1,0,1.58,1.59A1.59,1.59,0,0,0,42.9,75Z" style="fill:#aaa"/></g><g style="opacity:0.8"><path d="M41.47,88.48a1.21,1.21,0,1,0-1.21,1.21A1.21,1.21,0,0,0,41.47,88.48Z" style="fill:#6d6d6d"/><path d="M39.42,83.59a1.21,1.21,0,1,0-1.21,1.21A1.21,1.21,0,0,0,39.42,83.59Z" style="fill:#6d6d6d"/><path d="M49.57,75.79a1.21,1.21,0,1,0,1.21-1.21A1.21,1.21,0,0,0,49.57,75.79Z" style="fill:#6d6d6d"/><path d="M45.08,80.77a1.2,1.2,0,1,0,1.2-1.2A1.21,1.21,0,0,0,45.08,80.77Z" style="fill:#6d6d6d"/><path d="M41.74,70.93a1.2,1.2,0,1,0,1.2-1.2A1.2,1.2,0,0,0,41.74,70.93Z" style="fill:#6d6d6d"/><path d="M54.34,88.6a1.21,1.21,0,1,0,1.21-1.2A1.21,1.21,0,0,0,54.34,88.6Z" style="fill:#6d6d6d"/><path d="M58.61,66.79a1.2,1.2,0,1,0,1.2-1.21A1.2,1.2,0,0,0,58.61,66.79Z" style="fill:#6d6d6d"/><path d="M48,65.59a1.2,1.2,0,1,0,1.2-1.2A1.2,1.2,0,0,0,48,65.59Z" style="fill:#6d6d6d"/><path d="M38.28,57.53a1.21,1.21,0,1,0,1.2,1.21A1.21,1.21,0,0,0,38.28,57.53Z" style="fill:#6d6d6d"/><path d="M33.21,69.18A1.2,1.2,0,1,0,32,70.39,1.2,1.2,0,0,0,33.21,69.18Z" style="fill:#6d6d6d"/><path d="M37,64.93a1.21,1.21,0,1,0-1.21,1.21A1.21,1.21,0,0,0,37,64.93Z" style="fill:#6d6d6d"/><path d="M31.56,91.3a1.21,1.21,0,1,0,1.21-1.2A1.21,1.21,0,0,0,31.56,91.3Z" style="fill:#6d6d6d"/><path d="M33.42,78.05a1.2,1.2,0,1,0,1.2-1.2A1.2,1.2,0,0,0,33.42,78.05Z" style="fill:#6d6d6d"/><path d="M49.2,91.82A1.21,1.21,0,1,0,50.41,93,1.21,1.21,0,0,0,49.2,91.82Z" style="fill:#6d6d6d"/><path d="M56.18,81.49a1.21,1.21,0,1,0,1.2-1.2A1.2,1.2,0,0,0,56.18,81.49Z" style="fill:#6d6d6d"/><path d="M66.41,83.89a1.21,1.21,0,1,0,1.21-1.2A1.21,1.21,0,0,0,66.41,83.89Z" style="fill:#6d6d6d"/><path d="M60.35,91.9a1.21,1.21,0,1,0,1.2-1.2A1.21,1.21,0,0,0,60.35,91.9Z" style="fill:#6d6d6d"/><path d="M63.55,57.19A1.21,1.21,0,1,0,64.75,56,1.2,1.2,0,0,0,63.55,57.19Z" style="fill:#6d6d6d"/><path d="M53.77,55.8A1.2,1.2,0,1,0,55,54.59,1.2,1.2,0,0,0,53.77,55.8Z" style="fill:#6d6d6d"/><path d="M46,56.92a1.2,1.2,0,1,0,1.2-1.2A1.2,1.2,0,0,0,46,56.92Z" style="fill:#6d6d6d"/><path d="M62.82,73.7A1.21,1.21,0,1,0,64,72.5,1.21,1.21,0,0,0,62.82,73.7Z" style="fill:#6d6d6d"/><path d="M47.67,68.87a1.2,1.2,0,1,0,2.4,0,1.2,1.2,0,1,0-2.4,0Z" style="fill:#6d6d6d"/><path d="M40.15,63.11a1.21,1.21,0,1,0,1.21-1.21A1.21,1.21,0,0,0,40.15,63.11Z" style="fill:#6d6d6d"/><path d="M33.81,56.9a1.21,1.21,0,1,0-1.21,1.2A1.2,1.2,0,0,0,33.81,56.9Z" style="fill:#6d6d6d"/><path d="M44.67,87.92a1.2,1.2,0,1,0,1.2-1.21A1.2,1.2,0,0,0,44.67,87.92Z" style="fill:#6d6d6d"/></g><g style="opacity:0.8"><path d="M51.82,105.57a1.2,1.2,0,1,0-1.2,1.2A1.2,1.2,0,0,0,51.82,105.57Z" style="fill:#6d6d6d"/><path d="M49.77,100.68a1.21,1.21,0,1,0-1.2,1.2A1.2,1.2,0,0,0,49.77,100.68Z" style="fill:#6d6d6d"/><path d="M59.93,92.87a1.21,1.21,0,1,0,1.2-1.2A1.21,1.21,0,0,0,59.93,92.87Z" style="fill:#6d6d6d"/><path d="M55.43,97.86a1.21,1.21,0,1,0,1.21-1.2A1.21,1.21,0,0,0,55.43,97.86Z" style="fill:#6d6d6d"/><path d="M52.09,88a1.21,1.21,0,1,0,1.2-1.2A1.2,1.2,0,0,0,52.09,88Z" style="fill:#6d6d6d"/><path d="M64.7,105.69a1.21,1.21,0,1,0,1.2-1.21A1.2,1.2,0,0,0,64.7,105.69Z" style="fill:#6d6d6d"/><path d="M69,83.87a1.21,1.21,0,1,0,1.21-1.2A1.21,1.21,0,0,0,69,83.87Z" style="fill:#6d6d6d"/><path d="M58.33,82.68a1.21,1.21,0,1,0,1.21-1.21A1.21,1.21,0,0,0,58.33,82.68Z" style="fill:#6d6d6d"/><path d="M48.63,74.62a1.21,1.21,0,1,0,1.21,1.21A1.21,1.21,0,0,0,48.63,74.62Z" style="fill:#6d6d6d"/><path d="M43.57,86.27a1.21,1.21,0,1,0-1.2,1.2A1.2,1.2,0,0,0,43.57,86.27Z" style="fill:#6d6d6d"/><path d="M47.38,82A1.2,1.2,0,1,0,45,82a1.2,1.2,0,0,0,2.4,0Z" style="fill:#6d6d6d"/><path d="M41.92,108.39a1.21,1.21,0,1,0,1.2-1.2A1.2,1.2,0,0,0,41.92,108.39Z" style="fill:#6d6d6d"/><path d="M43.77,95.14A1.21,1.21,0,1,0,45,93.94,1.21,1.21,0,0,0,43.77,95.14Z" style="fill:#6d6d6d"/><path d="M59.56,108.91a1.21,1.21,0,1,0,1.2,1.2A1.2,1.2,0,0,0,59.56,108.91Z" style="fill:#6d6d6d"/><path d="M66.54,98.58a1.2,1.2,0,1,0,1.2-1.21A1.2,1.2,0,0,0,66.54,98.58Z" style="fill:#6d6d6d"/><path d="M76.77,101A1.2,1.2,0,1,0,78,99.77,1.2,1.2,0,0,0,76.77,101Z" style="fill:#6d6d6d"/><path d="M70.71,109a1.2,1.2,0,1,0,1.2-1.2A1.2,1.2,0,0,0,70.71,109Z" style="fill:#6d6d6d"/><path d="M73.91,74.27a1.2,1.2,0,1,0,1.2-1.2A1.2,1.2,0,0,0,73.91,74.27Z" style="fill:#6d6d6d"/><path d="M68.78,72.88A1.21,1.21,0,1,0,70,71.68,1.21,1.21,0,0,0,68.78,72.88Z" style="fill:#6d6d6d"/><path d="M56.36,74a1.21,1.21,0,1,0,1.21-1.21A1.21,1.21,0,0,0,56.36,74Z" style="fill:#6d6d6d"/><path d="M73.18,90.79a1.2,1.2,0,1,0,1.2-1.2A1.2,1.2,0,0,0,73.18,90.79Z" style="fill:#6d6d6d"/><path d="M58,86a1.21,1.21,0,1,0,1.21-1.21A1.21,1.21,0,0,0,58,86Z" style="fill:#6d6d6d"/><path d="M50.51,80.19a1.21,1.21,0,1,0,1.2-1.2A1.21,1.21,0,0,0,50.51,80.19Z" style="fill:#6d6d6d"/><path d="M44.16,74a1.2,1.2,0,1,0-1.2,1.2A1.21,1.21,0,0,0,44.16,74Z" style="fill:#6d6d6d"/><path d="M55,105a1.21,1.21,0,1,0,1.21-1.2A1.21,1.21,0,0,0,55,105Z" style="fill:#6d6d6d"/></g><g style="opacity:0.8"><path d="M92.88,103.47a1.21,1.21,0,1,0,1.2,1.2A1.2,1.2,0,0,0,92.88,103.47Z" style="fill:#6d6d6d"/><path d="M88,105.52a1.21,1.21,0,1,0,1.2,1.2A1.2,1.2,0,0,0,88,105.52Z" style="fill:#6d6d6d"/><path d="M80.18,95.36a1.2,1.2,0,1,0-1.2-1.2A1.2,1.2,0,0,0,80.18,95.36Z" style="fill:#6d6d6d"/><path d="M85.17,99.86a1.21,1.21,0,1,0-1.2-1.2A1.21,1.21,0,0,0,85.17,99.86Z" style="fill:#6d6d6d"/><path d="M75.33,103.2a1.21,1.21,0,1,0-1.2-1.2A1.21,1.21,0,0,0,75.33,103.2Z" style="fill:#6d6d6d"/><path d="M93,90.59a1.2,1.2,0,1,0-1.21-1.2A1.2,1.2,0,0,0,93,90.59Z" style="fill:#6d6d6d"/><path d="M71.18,86.33a1.21,1.21,0,1,0-1.2-1.2A1.21,1.21,0,0,0,71.18,86.33Z" style="fill:#6d6d6d"/><path d="M70,97a1.21,1.21,0,1,0-1.21-1.2A1.2,1.2,0,0,0,70,97Z" style="fill:#6d6d6d"/><path d="M61.93,106.66a1.21,1.21,0,1,0,1.21-1.2A1.21,1.21,0,0,0,61.93,106.66Z" style="fill:#6d6d6d"/><path d="M73.58,111.72a1.21,1.21,0,1,0,1.2,1.21A1.21,1.21,0,0,0,73.58,111.72Z" style="fill:#6d6d6d"/><path d="M69.33,107.91a1.21,1.21,0,1,0,1.21,1.2A1.2,1.2,0,0,0,69.33,107.91Z" style="fill:#6d6d6d"/><path d="M82.45,111.52a1.21,1.21,0,1,0-1.2-1.2A1.2,1.2,0,0,0,82.45,111.52Z" style="fill:#6d6d6d"/><path d="M85.89,88.76a1.21,1.21,0,1,0-1.21-1.21A1.21,1.21,0,0,0,85.89,88.76Z" style="fill:#6d6d6d"/><path d="M88.29,78.52a1.2,1.2,0,1,0-1.21-1.2A1.2,1.2,0,0,0,88.29,78.52Z" style="fill:#6d6d6d"/><path d="M96.3,84.59a1.21,1.21,0,1,0-1.2-1.21A1.2,1.2,0,0,0,96.3,84.59Z" style="fill:#6d6d6d"/><path d="M61.58,81.39a1.21,1.21,0,1,0-1.2-1.21A1.21,1.21,0,0,0,61.58,81.39Z" style="fill:#6d6d6d"/><path d="M40.53,53.73a1.2,1.2,0,1,0-1.2-1.2A1.2,1.2,0,0,0,40.53,53.73Z" style="fill:#6d6d6d"/><path d="M61.32,98.93a1.21,1.21,0,1,0-1.2-1.2A1.2,1.2,0,0,0,61.32,98.93Z" style="fill:#6d6d6d"/><path d="M78.1,82.12a1.21,1.21,0,1,0-1.2-1.21A1.21,1.21,0,0,0,78.1,82.12Z" style="fill:#6d6d6d"/><path d="M73.27,97.27a1.21,1.21,0,1,0-1.21-1.2A1.2,1.2,0,0,0,73.27,97.27Z" style="fill:#6d6d6d"/><path d="M67.51,104.78a1.2,1.2,0,1,0-1.21-1.2A1.2,1.2,0,0,0,67.51,104.78Z" style="fill:#6d6d6d"/><path d="M61.3,111.13a1.21,1.21,0,1,0,1.2,1.2A1.21,1.21,0,0,0,61.3,111.13Z" style="fill:#6d6d6d"/><path d="M92.31,100.27a1.21,1.21,0,1,0-1.2-1.2A1.21,1.21,0,0,0,92.31,100.27Z" style="fill:#6d6d6d"/></g><g style="opacity:0.7000000000000001"><path d="M38.35,89.92a1.79,1.79,0,1,0-2.44.67A1.79,1.79,0,0,0,38.35,89.92Z" style="fill:#8e8e8e"/><path d="M39.3,82.08a1.79,1.79,0,1,0-2.44.67A1.79,1.79,0,0,0,39.3,82.08Z" style="fill:#8e8e8e"/><path d="M58.19,79.46a1.79,1.79,0,1,0,2.44-.67A1.79,1.79,0,0,0,58.19,79.46Z" style="fill:#8e8e8e"/><path d="M48.7,82.6a1.79,1.79,0,1,0,2.44-.67A1.8,1.8,0,0,0,48.7,82.6Z" style="fill:#8e8e8e"/><path d="M51.62,67.41a1.79,1.79,0,1,0,2.44-.67A1.78,1.78,0,0,0,51.62,67.41Z" style="fill:#8e8e8e"/><path d="M54.93,99.55a1.79,1.79,0,1,0,2.44-.67A1.79,1.79,0,0,0,54.93,99.55Z" style="fill:#8e8e8e"/><path d="M76.5,74.46a1.79,1.79,0,1,0,2.44-.67A1.79,1.79,0,0,0,76.5,74.46Z" style="fill:#8e8e8e"/><path d="M63.63,65.09a1.79,1.79,0,1,0,2.44-.67A1.79,1.79,0,0,0,63.63,65.09Z" style="fill:#8e8e8e"/><path d="M57.59,48.11a1.8,1.8,0,1,0,.67,2.45A1.8,1.8,0,0,0,57.59,48.11Z" style="fill:#8e8e8e"/><path d="M41.88,58.88a1.79,1.79,0,1,0-2.44.67A1.8,1.8,0,0,0,41.88,58.88Z" style="fill:#8e8e8e"/><path d="M49.94,56.18a1.79,1.79,0,1,0-2.44.67A1.79,1.79,0,0,0,49.94,56.18Z" style="fill:#8e8e8e"/><path d="M35.61,70.5a1.79,1.79,0,1,0,2.45-.67A1.8,1.8,0,0,0,35.61,70.5Z" style="fill:#8e8e8e"/><path d="M45.91,99.94a1.79,1.79,0,1,0,.67,2.44A1.8,1.8,0,0,0,45.91,99.94Z" style="fill:#8e8e8e"/><path d="M62.54,91.7A1.79,1.79,0,1,0,65,91,1.79,1.79,0,0,0,62.54,91.7Z" style="fill:#8e8e8e"/><path d="M74,102.33a1.8,1.8,0,1,0,2.44-.67A1.8,1.8,0,0,0,74,102.33Z" style="fill:#8e8e8e"/><path d="M60.27,108.24a1.79,1.79,0,1,0,2.45-.67A1.8,1.8,0,0,0,60.27,108.24Z" style="fill:#8e8e8e"/><path d="M90,65.68A1.79,1.79,0,1,0,92.4,65,1.79,1.79,0,0,0,90,65.68Z" style="fill:#8e8e8e"/><path d="M78.32,56.68A1.79,1.79,0,1,0,80.77,56,1.8,1.8,0,0,0,78.32,56.68Z" style="fill:#8e8e8e"/><path d="M67.46,52.42a1.79,1.79,0,1,0,2.44-.67A1.8,1.8,0,0,0,67.46,52.42Z" style="fill:#8e8e8e"/><path d="M76.86,86.51a1.79,1.79,0,1,0,2.44-.67A1.79,1.79,0,0,0,76.86,86.51Z" style="fill:#8e8e8e"/><path d="M60.81,69.1a1.8,1.8,0,1,0,2.45-.67A1.8,1.8,0,0,0,60.81,69.1Z" style="fill:#8e8e8e"/><path d="M55.33,56.12a1.79,1.79,0,1,0,2.44-.67A1.79,1.79,0,0,0,55.33,56.12Z" style="fill:#8e8e8e"/><path d="M42.91,91.54a1.79,1.79,0,1,0,2.45-.67A1.78,1.78,0,0,0,42.91,91.54Z" style="fill:#8e8e8e"/></g><g style="opacity:0.8"><path d="M65.77,61.92a1.2,1.2,0,1,0-1.2-1.2A1.2,1.2,0,0,0,65.77,61.92Z" style="fill:#6d6d6d"/><path d="M70.66,59.87a1.21,1.21,0,1,0-1.2-1.2A1.21,1.21,0,0,0,70.66,59.87Z" style="fill:#6d6d6d"/><path d="M78.47,70a1.21,1.21,0,1,0,1.2,1.2A1.2,1.2,0,0,0,78.47,70Z" style="fill:#6d6d6d"/><path d="M73.48,65.53a1.21,1.21,0,1,0,1.21,1.21A1.21,1.21,0,0,0,73.48,65.53Z" style="fill:#6d6d6d"/><path d="M83.32,62.19a1.21,1.21,0,1,0,1.21,1.21A1.21,1.21,0,0,0,83.32,62.19Z" style="fill:#6d6d6d"/><path d="M65.66,74.8a1.21,1.21,0,1,0,1.2,1.2A1.21,1.21,0,0,0,65.66,74.8Z" style="fill:#6d6d6d"/><path d="M87.47,79.06a1.21,1.21,0,1,0,1.2,1.21A1.21,1.21,0,0,0,87.47,79.06Z" style="fill:#6d6d6d"/><path d="M88.67,68.43a1.21,1.21,0,1,0,1.2,1.21A1.21,1.21,0,0,0,88.67,68.43Z" style="fill:#6d6d6d"/><path d="M85.07,54.25a1.2,1.2,0,1,0-1.2-1.2A1.21,1.21,0,0,0,85.07,54.25Z" style="fill:#6d6d6d"/><path d="M89.32,57.48a1.2,1.2,0,1,0-1.2-1.2A1.21,1.21,0,0,0,89.32,57.48Z" style="fill:#6d6d6d"/><path d="M63,52a1.21,1.21,0,1,0,1.21,1.2A1.2,1.2,0,0,0,63,52Z" style="fill:#6d6d6d"/><path d="M76.2,53.87a1.21,1.21,0,1,0,1.21,1.21A1.21,1.21,0,0,0,76.2,53.87Z" style="fill:#6d6d6d"/><path d="M62.43,69.66a1.2,1.2,0,1,0-1.2,1.2A1.2,1.2,0,0,0,62.43,69.66Z" style="fill:#6d6d6d"/><path d="M72.77,76.64a1.2,1.2,0,1,0,1.2,1.2A1.21,1.21,0,0,0,72.77,76.64Z" style="fill:#6d6d6d"/><path d="M70.37,86.87a1.21,1.21,0,1,0,1.2,1.2A1.21,1.21,0,0,0,70.37,86.87Z" style="fill:#6d6d6d"/><path d="M62.35,80.81A1.2,1.2,0,1,0,63.56,82,1.2,1.2,0,0,0,62.35,80.81Z" style="fill:#6d6d6d"/><path d="M97.07,84a1.2,1.2,0,1,0,1.21,1.2A1.2,1.2,0,0,0,97.07,84Z" style="fill:#6d6d6d"/><path d="M97.34,66.46a1.21,1.21,0,1,0,1.2,1.21A1.21,1.21,0,0,0,97.34,66.46Z" style="fill:#6d6d6d"/><path d="M80.55,83.28a1.2,1.2,0,1,0,1.21,1.2A1.2,1.2,0,0,0,80.55,83.28Z" style="fill:#6d6d6d"/><path d="M85.39,68.12a1.21,1.21,0,1,0,1.2,1.21A1.21,1.21,0,0,0,85.39,68.12Z" style="fill:#6d6d6d"/><path d="M91.15,60.61a1.21,1.21,0,1,0,1.2,1.2A1.2,1.2,0,0,0,91.15,60.61Z" style="fill:#6d6d6d"/><path d="M96.26,66.33a1.21,1.21,0,1,0-1.2-1.2A1.2,1.2,0,0,0,96.26,66.33Z" style="fill:#6d6d6d"/><path d="M66.34,65.12a1.21,1.21,0,1,0,1.2,1.21A1.21,1.21,0,0,0,66.34,65.12Z" style="fill:#6d6d6d"/></g><g style="opacity:0.8"><path d="M29.53,89.88a1.2,1.2,0,1,0-1.21-1.2A1.2,1.2,0,0,0,29.53,89.88Z" style="fill:#6d6d6d"/><path d="M34.42,87.83a1.2,1.2,0,1,0-1.21-1.2A1.2,1.2,0,0,0,34.42,87.83Z" style="fill:#6d6d6d"/><path d="M42.22,98a1.21,1.21,0,1,0,1.21,1.2A1.2,1.2,0,0,0,42.22,98Z" style="fill:#6d6d6d"/><path d="M37.24,93.49a1.21,1.21,0,1,0,1.2,1.21A1.21,1.21,0,0,0,37.24,93.49Z" style="fill:#6d6d6d"/><path d="M47.08,90.15a1.21,1.21,0,1,0,1.2,1.21A1.21,1.21,0,0,0,47.08,90.15Z" style="fill:#6d6d6d"/><path d="M51.23,107a1.2,1.2,0,1,0,1.2,1.2A1.2,1.2,0,0,0,51.23,107Z" style="fill:#6d6d6d"/><path d="M52.42,96.39a1.21,1.21,0,1,0,1.2,1.21A1.21,1.21,0,0,0,52.42,96.39Z" style="fill:#6d6d6d"/><path d="M66.38,87.35a1.21,1.21,0,1,0-1.21,1.2A1.2,1.2,0,0,0,66.38,87.35Z" style="fill:#6d6d6d"/><path d="M48.83,81.63a1.21,1.21,0,1,0-1.21-1.2A1.2,1.2,0,0,0,48.83,81.63Z" style="fill:#6d6d6d"/><path d="M53.08,85.44a1.2,1.2,0,1,0-1.21-1.2A1.2,1.2,0,0,0,53.08,85.44Z" style="fill:#6d6d6d"/><path d="M40,81.83A1.21,1.21,0,1,0,41.16,83,1.2,1.2,0,0,0,40,81.83Z" style="fill:#6d6d6d"/><path d="M36.52,104.6a1.2,1.2,0,1,0,1.21,1.2A1.2,1.2,0,0,0,36.52,104.6Z" style="fill:#6d6d6d"/><path d="M37.54,89.41a1.21,1.21,0,1,0,1.2,1.2A1.21,1.21,0,0,0,37.54,89.41Z" style="fill:#6d6d6d"/><path d="M54.27,112a1.2,1.2,0,0,0,0,2.4,1.2,1.2,0,0,0,0-2.4Z" style="fill:#6d6d6d"/><path d="M62.21,102.18a1.21,1.21,0,1,0,1.21,1.21A1.21,1.21,0,0,0,62.21,102.18Z" style="fill:#6d6d6d"/><path d="M57.16,91.8A1.21,1.21,0,1,0,58.36,93,1.21,1.21,0,0,0,57.16,91.8Z" style="fill:#6d6d6d"/><path d="M44.31,111.24a1.2,1.2,0,1,0,1.2,1.2A1.2,1.2,0,0,0,44.31,111.24Z" style="fill:#6d6d6d"/><path d="M49.14,96.08a1.21,1.21,0,1,0,1.21,1.21A1.21,1.21,0,0,0,49.14,96.08Z" style="fill:#6d6d6d"/><path d="M54.9,88.57a1.21,1.21,0,1,0,1.21,1.2A1.2,1.2,0,0,0,54.9,88.57Z" style="fill:#6d6d6d"/><path d="M61.11,82.22a1.2,1.2,0,1,0-1.2-1.2A1.2,1.2,0,0,0,61.11,82.22Z" style="fill:#6d6d6d"/><path d="M30.1,93.08a1.21,1.21,0,1,0,1.2,1.21A1.21,1.21,0,0,0,30.1,93.08Z" style="fill:#6d6d6d"/></g><g style="opacity:0.8"><path d="M78.49,58.25a1.58,1.58,0,1,0,0-2.24A1.58,1.58,0,0,0,78.49,58.25Z" style="fill:#aaa"/><path d="M85,60.89a1.58,1.58,0,1,0,0-2.24A1.6,1.6,0,0,0,85,60.89Z" style="fill:#aaa"/><path d="M82.77,77.61a1.58,1.58,0,1,0,0,2.24A1.6,1.6,0,0,0,82.77,77.61Z" style="fill:#aaa"/><path d="M82.31,68.78a1.58,1.58,0,1,0,0,2.24A1.58,1.58,0,0,0,82.31,68.78Z" style="fill:#aaa"/><path d="M94.58,74.83a1.58,1.58,0,1,0,0,2.24A1.58,1.58,0,0,0,94.58,74.83Z" style="fill:#aaa"/><path d="M66.4,70.12a1.6,1.6,0,0,0-2.24,0,1.58,1.58,0,1,0,2.24,0Z" style="fill:#aaa"/><path d="M82.73,94.39a1.58,1.58,0,1,0-2.24,2.24,1.58,1.58,0,0,0,2.24-2.24Z" style="fill:#aaa"/><path d="M93.74,85.61a1.58,1.58,0,1,0,0,2.24A1.58,1.58,0,0,0,93.74,85.61Z" style="fill:#aaa"/><path d="M95.69,60.46a1.58,1.58,0,0,0-2.24,0,1.6,1.6,0,0,0,0,2.24,1.58,1.58,0,0,0,2.24-2.24Z" style="fill:#aaa"/><path d="M68.18,62.34a1.58,1.58,0,1,0-2.24-2.24,1.6,1.6,0,0,0,0,2.24A1.58,1.58,0,0,0,68.18,62.34Z" style="fill:#aaa"/><path d="M56.89,93.53a1.58,1.58,0,1,0,0,2.24A1.58,1.58,0,0,0,56.89,93.53Z" style="fill:#aaa"/><path d="M59.55,85.74a1.58,1.58,0,1,0,0,2.24A1.58,1.58,0,0,0,59.55,85.74Z" style="fill:#aaa"/><path d="M57.74,72.64a1.58,1.58,0,1,0,0,2.24A1.6,1.6,0,0,0,57.74,72.64Z" style="fill:#aaa"/><path d="M87.07,107.93a1.58,1.58,0,1,0,0,2.24A1.58,1.58,0,0,0,87.07,107.93Z" style="fill:#aaa"/><path d="M97.47,100.12a1.58,1.58,0,1,0,0,2.24A1.58,1.58,0,0,0,97.47,100.12Z" style="fill:#aaa"/><path d="M72.38,91.88a1.58,1.58,0,1,0,0,2.24A1.58,1.58,0,0,0,72.38,91.88Z" style="fill:#aaa"/><path d="M91,82.27a1.6,1.6,0,0,0-2.24,0,1.58,1.58,0,1,0,2.24,0Z" style="fill:#aaa"/><path d="M76,61.75a1.6,1.6,0,0,0-2.24,0,1.58,1.58,0,1,0,2.24,0Z" style="fill:#aaa"/></g><g style="opacity:0.8"><path d="M65.51,70.26a1.2,1.2,0,1,0-1.7,0A1.2,1.2,0,0,0,65.51,70.26Z" style="fill:#6d6d6d"/><path d="M67.52,65.35a1.2,1.2,0,1,0-1.7,0A1.2,1.2,0,0,0,67.52,65.35Z" style="fill:#6d6d6d"/><path d="M80.22,67a1.2,1.2,0,0,0,0,1.7,1.21,1.21,0,0,0,1.71,0,1.2,1.2,0,0,0,0-1.7A1.21,1.21,0,0,0,80.22,67Z" style="fill:#6d6d6d"/><path d="M73.52,67.37a1.2,1.2,0,1,0,1.7,0A1.2,1.2,0,0,0,73.52,67.37Z" style="fill:#6d6d6d"/><path d="M78.11,58a1.21,1.21,0,0,0,0,1.71,1.2,1.2,0,0,0,1.7,0,1.21,1.21,0,0,0,0-1.71A1.2,1.2,0,0,0,78.11,58Z" style="fill:#6d6d6d"/><path d="M74.54,79.45a1.2,1.2,0,1,0,1.7,0A1.2,1.2,0,0,0,74.54,79.45Z" style="fill:#6d6d6d"/><path d="M93,67a1.2,1.2,0,1,0,1.7,0A1.2,1.2,0,0,0,93,67Z" style="fill:#6d6d6d"/><path d="M86.31,58.68a1.2,1.2,0,1,0,1.7,0A1.2,1.2,0,0,0,86.31,58.68Z" style="fill:#6d6d6d"/><path d="M73.33,50.78a1.2,1.2,0,0,0,0-1.7,1.21,1.21,0,0,0-1.71,0,1.2,1.2,0,0,0,0,1.7A1.21,1.21,0,0,0,73.33,50.78Z" style="fill:#6d6d6d"/><path d="M79,50.47a1.2,1.2,0,0,0,0-1.7,1.21,1.21,0,0,0-1.71,0,1.2,1.2,0,0,0,0,1.7A1.21,1.21,0,0,0,79,50.47Z" style="fill:#6d6d6d"/><path d="M56.52,65.25a1.21,1.21,0,0,0,0,1.71,1.2,1.2,0,0,0,1.7,0,1.21,1.21,0,0,0,0-1.71A1.2,1.2,0,0,0,56.52,65.25Z" style="fill:#6d6d6d"/><path d="M67.2,57.2a1.2,1.2,0,1,0,1.7,0A1.2,1.2,0,0,0,67.2,57.2Z" style="fill:#6d6d6d"/><path d="M68.62,78.1a1.2,1.2,0,1,0,0,1.7A1.2,1.2,0,0,0,68.62,78.1Z" style="fill:#6d6d6d"/><path d="M80.86,75.72a1.2,1.2,0,0,0,0,1.7,1.21,1.21,0,0,0,1.71,0,1.2,1.2,0,0,0,0-1.7A1.21,1.21,0,0,0,80.86,75.72Z" style="fill:#6d6d6d"/><path d="M86.4,84.65a1.21,1.21,0,0,0,0,1.71,1.2,1.2,0,0,0,1.7,0,1.21,1.21,0,0,0,0-1.71A1.2,1.2,0,0,0,86.4,84.65Z" style="fill:#6d6d6d"/><path d="M76.45,86a1.21,1.21,0,0,0,0,1.71,1.2,1.2,0,0,0,1.7,0,1.21,1.21,0,0,0,0-1.71A1.2,1.2,0,0,0,76.45,86Z" style="fill:#6d6d6d"/><path d="M91.06,74.91a1.2,1.2,0,0,0,0,1.7,1.21,1.21,0,0,0,1.71,0,1.2,1.2,0,0,0,0-1.7A1.21,1.21,0,0,0,91.06,74.91Z" style="fill:#6d6d6d"/><path d="M83.77,60.78a1.2,1.2,0,1,0,1.7,0A1.2,1.2,0,0,0,83.77,60.78Z" style="fill:#6d6d6d"/><path d="M82.53,51.39a1.2,1.2,0,1,0,1.7,0A1.2,1.2,0,0,0,82.53,51.39Z" style="fill:#6d6d6d"/><path d="M68.18,72.12a1.21,1.21,0,0,0,0,1.71,1.2,1.2,0,0,0,1.7,0,1.21,1.21,0,0,0,0-1.71A1.2,1.2,0,0,0,68.18,72.12Z" style="fill:#6d6d6d"/></g><g style="opacity:0.8"><path d="M60.75,89.67a1.2,1.2,0,1,0-1.7,0A1.2,1.2,0,0,0,60.75,89.67Z" style="fill:#6d6d6d"/><path d="M62.76,84.76a1.2,1.2,0,1,0-1.7,0A1.2,1.2,0,0,0,62.76,84.76Z" style="fill:#6d6d6d"/><path d="M75.46,86.42a1.2,1.2,0,0,0,0,1.7,1.21,1.21,0,0,0,1.71,0,1.2,1.2,0,0,0,0-1.7A1.21,1.21,0,0,0,75.46,86.42Z" style="fill:#6d6d6d"/><path d="M68.76,86.77a1.2,1.2,0,1,0,1.7,0A1.2,1.2,0,0,0,68.76,86.77Z" style="fill:#6d6d6d"/><path d="M73.35,77.45a1.2,1.2,0,0,0,0,1.7,1.21,1.21,0,0,0,1.71,0,1.2,1.2,0,0,0,0-1.7A1.21,1.21,0,0,0,73.35,77.45Z" style="fill:#6d6d6d"/><path d="M69.78,98.86a1.2,1.2,0,1,0,1.7,0A1.2,1.2,0,0,0,69.78,98.86Z" style="fill:#6d6d6d"/><path d="M88.22,86.45a1.2,1.2,0,1,0,1.7,0A1.2,1.2,0,0,0,88.22,86.45Z" style="fill:#6d6d6d"/><path d="M81.55,78.08a1.21,1.21,0,0,0,0,1.71,1.2,1.2,0,0,0,1.7,0,1.21,1.21,0,0,0,0-1.71A1.2,1.2,0,0,0,81.55,78.08Z" style="fill:#6d6d6d"/><path d="M80.38,65.53a1.2,1.2,0,1,0,0,1.7A1.2,1.2,0,0,0,80.38,65.53Z" style="fill:#6d6d6d"/><path d="M68.57,70.19a1.21,1.21,0,1,0-1.71,0A1.21,1.21,0,0,0,68.57,70.19Z" style="fill:#6d6d6d"/><path d="M74.27,69.88a1.2,1.2,0,0,0,0-1.7,1.21,1.21,0,0,0-1.71,0,1.2,1.2,0,0,0,0,1.7A1.21,1.21,0,0,0,74.27,69.88Z" style="fill:#6d6d6d"/><path d="M51.76,84.66a1.2,1.2,0,1,0,1.7,0A1.2,1.2,0,0,0,51.76,84.66Z" style="fill:#6d6d6d"/><path d="M62.44,76.6a1.2,1.2,0,1,0,1.7,0A1.2,1.2,0,0,0,62.44,76.6Z" style="fill:#6d6d6d"/><path d="M63.86,97.5a1.2,1.2,0,1,0,0,1.7A1.2,1.2,0,0,0,63.86,97.5Z" style="fill:#6d6d6d"/><path d="M76.1,95.13a1.2,1.2,0,0,0,0,1.7,1.21,1.21,0,0,0,1.71,0,1.2,1.2,0,0,0,0-1.7A1.21,1.21,0,0,0,76.1,95.13Z" style="fill:#6d6d6d"/><path d="M81.64,104.06a1.2,1.2,0,1,0,1.7,0A1.2,1.2,0,0,0,81.64,104.06Z" style="fill:#6d6d6d"/><path d="M71.69,105.44a1.2,1.2,0,1,0,1.7,0A1.2,1.2,0,0,0,71.69,105.44Z" style="fill:#6d6d6d"/><path d="M95.86,78.55a1.2,1.2,0,1,0,1.7,0A1.2,1.2,0,0,0,95.86,78.55Z" style="fill:#6d6d6d"/><path d="M86.28,70.56a1.2,1.2,0,1,0,1.7,0A1.2,1.2,0,0,0,86.28,70.56Z" style="fill:#6d6d6d"/><path d="M86.3,94.32a1.2,1.2,0,0,0,0,1.7A1.21,1.21,0,0,0,88,96a1.2,1.2,0,0,0,0-1.7A1.21,1.21,0,0,0,86.3,94.32Z" style="fill:#6d6d6d"/><path d="M79,80.18a1.21,1.21,0,0,0,0,1.71,1.2,1.2,0,0,0,1.7,0,1.21,1.21,0,0,0,0-1.71A1.2,1.2,0,0,0,79,80.18Z" style="fill:#6d6d6d"/><path d="M77.77,70.8a1.2,1.2,0,1,0,1.7,0A1.2,1.2,0,0,0,77.77,70.8Z" style="fill:#6d6d6d"/><path d="M77.67,61.92a1.2,1.2,0,1,0-1.7,0A1.2,1.2,0,0,0,77.67,61.92Z" style="fill:#6d6d6d"/><path d="M63.42,89.56a1.21,1.21,0,0,0,0,1.71,1.2,1.2,0,0,0,1.7,0,1.21,1.21,0,0,0,0-1.71A1.2,1.2,0,0,0,63.42,89.56Z" style="fill:#6d6d6d"/></g><g style="opacity:0.8"><path d="M86.42,109.86a1.21,1.21,0,0,0-1.71,0,1.2,1.2,0,0,0,0,1.7,1.21,1.21,0,0,0,1.71,0A1.2,1.2,0,0,0,86.42,109.86Z" style="fill:#6d6d6d"/><path d="M88,102.51a1.2,1.2,0,0,0,1.7,0,1.21,1.21,0,0,0,0-1.71,1.2,1.2,0,0,0-1.7,0A1.21,1.21,0,0,0,88,102.51Z" style="fill:#6d6d6d"/><path d="M88.37,109.21a1.21,1.21,0,0,0,1.71,0,1.2,1.2,0,0,0,0-1.7,1.21,1.21,0,0,0-1.71,0A1.2,1.2,0,0,0,88.37,109.21Z" style="fill:#6d6d6d"/><path d="M79.05,104.62a1.2,1.2,0,0,0,1.7,0,1.21,1.21,0,0,0,0-1.71,1.2,1.2,0,0,0-1.7,0A1.21,1.21,0,0,0,79.05,104.62Z" style="fill:#6d6d6d"/><path d="M88.05,89.75a1.2,1.2,0,1,0,0-1.7A1.2,1.2,0,0,0,88.05,89.75Z" style="fill:#6d6d6d"/><path d="M79.69,96.42a1.2,1.2,0,1,0,0-1.7A1.2,1.2,0,0,0,79.69,96.42Z" style="fill:#6d6d6d"/><path d="M67.13,97.59a1.2,1.2,0,1,0,1.7,0A1.2,1.2,0,0,0,67.13,97.59Z" style="fill:#6d6d6d"/><path d="M71.79,109.4a1.2,1.2,0,0,0-1.7,0,1.21,1.21,0,0,0,0,1.71,1.2,1.2,0,0,0,1.7,0A1.21,1.21,0,0,0,71.79,109.4Z" style="fill:#6d6d6d"/><path d="M71.48,103.7a1.2,1.2,0,0,0-1.7,0,1.21,1.21,0,0,0,0,1.71,1.2,1.2,0,0,0,1.7,0A1.21,1.21,0,0,0,71.48,103.7Z" style="fill:#6d6d6d"/><path d="M78.5,110.12a1.2,1.2,0,1,0,1.7,0A1.2,1.2,0,0,0,78.5,110.12Z" style="fill:#6d6d6d"/><path d="M84.76,79.47a1.2,1.2,0,1,0,0-1.7A1.2,1.2,0,0,0,84.76,79.47Z" style="fill:#6d6d6d"/><path d="M83.71,58.83a1.2,1.2,0,1,0,0-1.7A1.2,1.2,0,0,0,83.71,58.83Z" style="fill:#6d6d6d"/><path d="M72.16,91.69a1.21,1.21,0,0,0,1.71,0,1.2,1.2,0,0,0,0-1.7,1.21,1.21,0,0,0-1.71,0A1.2,1.2,0,0,0,72.16,91.69Z" style="fill:#6d6d6d"/><path d="M95.92,91.67a1.21,1.21,0,1,0,0-1.71A1.21,1.21,0,0,0,95.92,91.67Z" style="fill:#6d6d6d"/><path d="M81.79,99a1.2,1.2,0,1,0,0-1.7A1.2,1.2,0,0,0,81.79,99Z" style="fill:#6d6d6d"/><path d="M72.4,100.2a1.2,1.2,0,1,0,0-1.7A1.2,1.2,0,0,0,72.4,100.2Z" style="fill:#6d6d6d"/><path d="M63.52,100.3a1.2,1.2,0,1,0,0,1.7A1.2,1.2,0,0,0,63.52,100.3Z" style="fill:#6d6d6d"/></g><g style="opacity:0.7000000000000001"><path d="M62.3,69.08a1.79,1.79,0,1,0-2.21-1.25A1.79,1.79,0,0,0,62.3,69.08Z" style="fill:#8e8e8e"/><path d="M68.51,64.21A1.79,1.79,0,1,0,66.3,63,1.8,1.8,0,0,0,68.51,64.21Z" style="fill:#8e8e8e"/><path d="M83.72,75.7A1.79,1.79,0,1,0,85.92,77,1.79,1.79,0,0,0,83.72,75.7Z" style="fill:#8e8e8e"/><path d="M74.78,71.22A1.79,1.79,0,1,0,77,72.47,1.79,1.79,0,0,0,74.78,71.22Z" style="fill:#8e8e8e"/><path d="M87.59,62.54a1.79,1.79,0,1,0,2.2,1.25A1.79,1.79,0,0,0,87.59,62.54Z" style="fill:#8e8e8e"/><path d="M67.21,87.61a1.79,1.79,0,1,0,2.2,1.25A1.79,1.79,0,0,0,67.21,87.61Z" style="fill:#8e8e8e"/><path d="M96.56,69.39a1.79,1.79,0,1,0,2.2,1.25A1.79,1.79,0,0,0,96.56,69.39Z" style="fill:#8e8e8e"/><path d="M35.47,60.46a1.79,1.79,0,1,0-1.25,2.2A1.79,1.79,0,0,0,35.47,60.46Z" style="fill:#8e8e8e"/><path d="M92.73,59.82a1.79,1.79,0,1,0-2.2-1.25A1.79,1.79,0,0,0,92.73,59.82Z" style="fill:#8e8e8e"/><path d="M54.34,56a1.79,1.79,0,1,0,2.2,1.25A1.79,1.79,0,0,0,54.34,56Z" style="fill:#8e8e8e"/><path d="M74.09,53.41a1.79,1.79,0,0,0,1,3.45,1.79,1.79,0,1,0-1-3.45Z" style="fill:#8e8e8e"/><path d="M60.56,81.5a1.79,1.79,0,1,0-1.26,2.2A1.8,1.8,0,0,0,60.56,81.5Z" style="fill:#8e8e8e"/><path d="M78.14,87.44a1.79,1.79,0,1,0,2.2,1.25A1.79,1.79,0,0,0,78.14,87.44Z" style="fill:#8e8e8e"/><path d="M78.73,103.07a1.79,1.79,0,1,0,2.21,1.25A1.79,1.79,0,0,0,78.73,103.07Z" style="fill:#8e8e8e"/><path d="M64.84,97.53A1.79,1.79,0,1,0,67,98.79,1.79,1.79,0,0,0,64.84,97.53Z" style="fill:#8e8e8e"/><path d="M30.65,64.89a1.79,1.79,0,1,0,2.2,1.26A1.79,1.79,0,0,0,30.65,64.89Z" style="fill:#8e8e8e"/><path d="M91.94,93.9a1.79,1.79,0,1,0,2.2,1.25A1.79,1.79,0,0,0,91.94,93.9Z" style="fill:#8e8e8e"/><path d="M92.9,70.24a1.79,1.79,0,1,0,2.2,1.25A1.79,1.79,0,0,0,92.9,70.24Z" style="fill:#8e8e8e"/><path d="M35.63,56.5a1.79,1.79,0,0,0-1-3.46,1.79,1.79,0,0,0,1,3.46Z" style="fill:#8e8e8e"/><path d="M64.37,73.45a1.79,1.79,0,1,0,2.21,1.25A1.79,1.79,0,0,0,64.37,73.45Z" style="fill:#8e8e8e"/></g><g style="opacity:0.8"><path d="M45.47,59.18a1.2,1.2,0,1,0,0,1.7A1.2,1.2,0,0,0,45.47,59.18Z" style="fill:#6d6d6d"/><path d="M92.3,77.69a1.21,1.21,0,1,0,0,1.71A1.21,1.21,0,0,0,92.3,77.69Z" style="fill:#6d6d6d"/><path d="M93.65,71.78a1.2,1.2,0,1,0-1.7,0A1.2,1.2,0,0,0,93.65,71.78Z" style="fill:#6d6d6d"/><path d="M96,84a1.2,1.2,0,1,0,0,1.7A1.2,1.2,0,0,0,96,84Z" style="fill:#6d6d6d"/><path d="M87.09,89.56a1.2,1.2,0,1,0,0,1.7A1.2,1.2,0,0,0,87.09,89.56Z" style="fill:#6d6d6d"/><path d="M85.71,79.61a1.2,1.2,0,1,0,0,1.7A1.2,1.2,0,0,0,85.71,79.61Z" style="fill:#6d6d6d"/><path d="M96.84,94.22a1.21,1.21,0,0,0-1.71,0,1.2,1.2,0,0,0,0,1.7,1.21,1.21,0,0,0,1.71,0A1.2,1.2,0,0,0,96.84,94.22Z" style="fill:#6d6d6d"/></g><g style="opacity:0.8"><path d="M56.08,62.81a1.2,1.2,0,1,0,0-1.7A1.2,1.2,0,0,0,56.08,62.81Z" style="fill:#6d6d6d"/><path d="M61,64.82a1.2,1.2,0,1,0,0-1.7A1.2,1.2,0,0,0,61,64.82Z" style="fill:#6d6d6d"/><path d="M59.33,77.52a1.2,1.2,0,1,0,0,1.7A1.2,1.2,0,0,0,59.33,77.52Z" style="fill:#6d6d6d"/><path d="M59,70.81a1.2,1.2,0,0,0-1.7,0,1.21,1.21,0,0,0,0,1.71,1.2,1.2,0,0,0,1.7,0A1.21,1.21,0,0,0,59,70.81Z" style="fill:#6d6d6d"/><path d="M68.3,75.41a1.2,1.2,0,1,0,0,1.7A1.2,1.2,0,0,0,68.3,75.41Z" style="fill:#6d6d6d"/><path d="M46.89,71.84a1.2,1.2,0,1,0,0,1.7A1.2,1.2,0,0,0,46.89,71.84Z" style="fill:#6d6d6d"/><path d="M59.3,90.27a1.21,1.21,0,1,0,0,1.71A1.21,1.21,0,0,0,59.3,90.27Z" style="fill:#6d6d6d"/><path d="M67.67,83.6a1.21,1.21,0,1,0,0,1.71A1.21,1.21,0,0,0,67.67,83.6Z" style="fill:#6d6d6d"/><path d="M83.93,87.07a1.2,1.2,0,1,0-1.7,0A1.2,1.2,0,0,0,83.93,87.07Z" style="fill:#6d6d6d"/><path d="M75.56,70.62a1.21,1.21,0,0,0,1.71,0,1.2,1.2,0,0,0,0-1.7,1.21,1.21,0,0,0-1.71,0A1.2,1.2,0,0,0,75.56,70.62Z" style="fill:#6d6d6d"/><path d="M75.87,76.32a1.2,1.2,0,1,0,0-1.7A1.2,1.2,0,0,0,75.87,76.32Z" style="fill:#6d6d6d"/><path d="M61.09,53.81a1.2,1.2,0,0,0-1.7,0,1.21,1.21,0,0,0,0,1.71,1.2,1.2,0,0,0,1.7,0A1.21,1.21,0,0,0,61.09,53.81Z" style="fill:#6d6d6d"/><path d="M69.15,64.49a1.2,1.2,0,0,0-1.7,0,1.21,1.21,0,0,0,0,1.71,1.2,1.2,0,0,0,1.7,0A1.21,1.21,0,0,0,69.15,64.49Z" style="fill:#6d6d6d"/><path d="M48.25,65.92a1.2,1.2,0,1,0-1.7,0A1.2,1.2,0,0,0,48.25,65.92Z" style="fill:#6d6d6d"/><path d="M50.62,78.16a1.2,1.2,0,1,0,0,1.7A1.2,1.2,0,0,0,50.62,78.16Z" style="fill:#6d6d6d"/><path d="M41.69,83.7a1.2,1.2,0,1,0,0,1.7A1.2,1.2,0,0,0,41.69,83.7Z" style="fill:#6d6d6d"/><path d="M40.31,73.75a1.2,1.2,0,1,0,0,1.7A1.2,1.2,0,0,0,40.31,73.75Z" style="fill:#6d6d6d"/><path d="M58,95.92a1.2,1.2,0,1,0,0,1.7A1.2,1.2,0,0,0,58,95.92Z" style="fill:#6d6d6d"/><path d="M67.87,94.62a1.2,1.2,0,1,0,0,1.7A1.2,1.2,0,0,0,67.87,94.62Z" style="fill:#6d6d6d"/><path d="M74.26,83.7a1.2,1.2,0,0,0-1.7,0,1.21,1.21,0,0,0,0,1.71,1.2,1.2,0,0,0,1.7,0A1.21,1.21,0,0,0,74.26,83.7Z" style="fill:#6d6d6d"/><path d="M51.43,88.36a1.2,1.2,0,1,0,0,1.7A1.2,1.2,0,0,0,51.43,88.36Z" style="fill:#6d6d6d"/><path d="M65.57,81.07a1.21,1.21,0,0,0-1.71,0,1.2,1.2,0,0,0,0,1.7,1.21,1.21,0,0,0,1.71,0A1.2,1.2,0,0,0,65.57,81.07Z" style="fill:#6d6d6d"/><path d="M75,79.83a1.2,1.2,0,1,0,0,1.7A1.2,1.2,0,0,0,75,79.83Z" style="fill:#6d6d6d"/><path d="M83.83,79.73a1.2,1.2,0,1,0,0-1.7A1.2,1.2,0,0,0,83.83,79.73Z" style="fill:#6d6d6d"/><path d="M54.22,65.48a1.2,1.2,0,1,0,0,1.7A1.2,1.2,0,0,0,54.22,65.48Z" style="fill:#6d6d6d"/></g></g><path d="M97.31,61.61c2,2.16,4.11,44.91-1,47.63s-41.4,10.17-41.4,10.17-1.57-47.63-.37-48.1C57.49,70.12,95.3,59.44,97.31,61.61Z" style="opacity:0.5;fill:url(#linear-gradient)"/><path d="M53.84,119.42s-22.4-12.84-24-18.44-1.2-44.4-1.2-44.4,23.5,12.71,24.42,15S53.84,119.42,53.84,119.42Z" style="fill:#777;opacity:0.4"/><path d="M28,55S67.08,43.92,72.56,45.9,97.6,60,97.6,60,58.75,71,53.2,69.62C49.07,68.63,28,55,28,55Z" style="fill:#d1d1d1;opacity:0.5"/><path d="M71,45.29l-42.74,9.2,1.34,46.63s2,2.59,3.45,3.21C31,96.5,29.77,70.7,31.24,59.25a.71.71,0,0,1,1.08-.5l19,12.07c.84.54,2.56.9,3.1.06s-.25-1.77-1-2.28L34.42,57a.71.71,0,0,1,.13-1.27c10.25-3.81,32.08-8.63,40.86-8.56C72.91,46.06,71,45.29,71,45.29Z" style="fill:#ccc;opacity:0.5"/><path d="M55.17,74.38l.61,44.5-1.72.61L52.19,73.82c0-.93.43-2.09,1.36-2.09h0C54.55,71.73,55.18,73.37,55.17,74.38Z" style="fill:#5b5b5b;opacity:0.7000000000000001"/><path d="M53.9,73.5l.6,44.5-1.72.62L50.91,72.94c0-.93.43-2.09,1.36-2.09h0C53.27,70.86,53.9,72.5,53.9,73.5Z" style="fill:#9e9e9e;opacity:0.2"/><path d="M55.93,68.37l41.2-9.13L97.7,61,56,71.4c-.91.19-2.14,0-2.34-.88h0C53.49,69.53,55,68.57,55.93,68.37Z" style="fill:#a0a0a0;opacity:0.7000000000000001"/><path d="M55.35,69.8,97.7,60.1v1.62L55.44,72.83c-.91.2-2.14,0-2.33-.88h0C52.9,71,54.37,70,55.35,69.8Z" style="fill:#565656;opacity:0.2"/><path d="M98.22,60.07C95.65,56.91,75.65,45.3,71.7,44.91s-42.17,8-43.73,9.67c-2.58,2.76-.38,45.76,1.59,49.7S47.68,119,53.4,120.55,96.78,113,98.59,110.18C100.26,107.59,100.78,63.22,98.22,60.07Zm-3.28,47.25c-1.63,2.52-35.8,11.54-40.92,10.12s-20.2-12.3-22-15.84S27.94,58,30.25,55.51c1.4-1.49,37.82-9.15,41.35-8.79s21.67,10.72,24,13.55S96.43,105,94.94,107.32Z" style="fill:#595959"/><path d="M53.8,70.89c-2.57-.76-21.24-12.78-22.55-13.68s0-2,1.07-1S52.4,68.8,54,69.51C55.26,70,54.38,71.06,53.8,70.89Z" style="fill:#fff;opacity:0.2"/><path d="M92.68,61.38c-.57.19-35.31,9.33-36.86,9.66s-1.45-1.35,0-1.4,34.74-8.15,36.38-8.86C93.45,60.26,93.25,61.19,92.68,61.38Z" style="fill:#fff;opacity:0.30000000000000004"/></g></g></svg>