<svg id="Label_Water_A" data-name="Label Water A" xmlns="http://www.w3.org/2000/svg" xmlns:xlink="http://www.w3.org/1999/xlink" viewBox="0 0 285 141"><defs><radialGradient id="radial-gradient" cx="76.08" cy="69.9" r="12.45" gradientTransform="translate(-26.09 38.86) scale(0.95 1.11)" gradientUnits="userSpaceOnUse"><stop offset="0" stop-color="#fff" stop-opacity="0"/><stop offset="1" stop-color="#136999"/></radialGradient><linearGradient id="linear-gradient" x1="45.96" y1="119.36" x2="45.96" y2="18.74" gradientUnits="userSpaceOnUse"><stop offset="0" stop-color="#61e9ff"/><stop offset="1" stop-color="#61e9ff" stop-opacity="0"/></linearGradient><linearGradient id="linear-gradient-2" x1="45.96" y1="119.36" x2="45.96" y2="17.43" gradientUnits="userSpaceOnUse"><stop offset="0" stop-color="#136999"/><stop offset="0.05" stop-color="#1f719e" stop-opacity="0.95"/><stop offset="0.13" stop-color="#4085ac" stop-opacity="0.81"/><stop offset="0.23" stop-color="#75a7c3" stop-opacity="0.58"/><stop offset="0.34" stop-color="#bed6e3" stop-opacity="0.27"/><stop offset="0.42" stop-color="#fff" stop-opacity="0"/><stop offset="1" stop-color="#136999" stop-opacity="0.9"/></linearGradient><linearGradient id="linear-gradient-3" x1="24.52" y1="68.4" x2="67.39" y2="68.4" gradientUnits="userSpaceOnUse"><stop offset="0.42" stop-color="#fff" stop-opacity="0"/><stop offset="1" stop-color="#136999" stop-opacity="0.7"/></linearGradient><linearGradient id="linear-gradient-4" x1="47.72" y1="13.38" x2="50.42" y2="13.38" gradientUnits="userSpaceOnUse"><stop offset="0" stop-color="#fff" stop-opacity="0"/><stop offset="0.77" stop-color="#fff"/></linearGradient><linearGradient id="linear-gradient-5" x1="47.11" y1="105.07" x2="64.62" y2="105.07" xlink:href="#linear-gradient-4"/><linearGradient id="linear-gradient-6" x1="48.45" y1="25.18" x2="63.63" y2="25.18" xlink:href="#linear-gradient-4"/><linearGradient id="linear-gradient-7" x1="47.06" y1="62.55" x2="63.19" y2="62.55" xlink:href="#linear-gradient-4"/><linearGradient id="linear-gradient-8" x1="49.49" y1="79.18" x2="62.42" y2="79.18" xlink:href="#linear-gradient-4"/><linearGradient id="linear-gradient-9" x1="23.9" y1="47.13" x2="68.65" y2="47.13" gradientUnits="userSpaceOnUse"><stop offset="0" stop-opacity="0"/><stop offset="0.02" stop-color="#2f2f2f" stop-opacity="0.19"/><stop offset="0.05" stop-color="#666" stop-opacity="0.4"/><stop offset="0.08" stop-color="#959595" stop-opacity="0.58"/><stop offset="0.11" stop-color="#bbb" stop-opacity="0.73"/><stop offset="0.13" stop-color="#d9d9d9" stop-opacity="0.85"/><stop offset="0.16" stop-color="#eee" stop-opacity="0.93"/><stop offset="0.19" stop-color="#fbfbfb" stop-opacity="0.98"/><stop offset="0.21" stop-color="#fff"/><stop offset="0.22" stop-color="#fff" stop-opacity="0.95"/><stop offset="0.34" stop-color="#fff" stop-opacity="0.55"/><stop offset="0.42" stop-color="#fff" stop-opacity="0.25"/><stop offset="0.49" stop-color="#fff" stop-opacity="0.07"/><stop offset="0.52" stop-color="#fff" stop-opacity="0"/><stop offset="0.68" stop-color="#fff" stop-opacity="0.34"/><stop offset="0.83" stop-color="#fff" stop-opacity="0.7"/><stop offset="0.85" stop-color="#f8f8f8" stop-opacity="0.68"/><stop offset="0.88" stop-color="#e2e2e2" stop-opacity="0.62"/><stop offset="0.91" stop-color="#bfbfbf" stop-opacity="0.52"/><stop offset="0.94" stop-color="#8d8d8d" stop-opacity="0.39"/><stop offset="0.97" stop-color="#4d4d4d" stop-opacity="0.21"/><stop offset="1" stop-color="#010101" stop-opacity="0"/><stop offset="1" stop-opacity="0"/></linearGradient><linearGradient id="linear-gradient-10" x1="54.09" y1="99.97" x2="104" y2="99.97" gradientUnits="userSpaceOnUse"><stop offset="0" stop-color="#8dcae4"/><stop offset="0.5" stop-color="#8dcae4" stop-opacity="0"/><stop offset="1" stop-color="#8dcae4"/></linearGradient><radialGradient id="radial-gradient-2" cx="249.07" cy="1027.76" r="21.45" gradientTransform="translate(-112.85 31.6) scale(0.77 0.09)" gradientUnits="userSpaceOnUse"><stop offset="0" stop-color="#fff" stop-opacity="0.4"/><stop offset="1"/></radialGradient><linearGradient id="linear-gradient-11" x1="87.12" y1="75.56" x2="93.58" y2="75.22" gradientUnits="userSpaceOnUse"><stop offset="0" stop-color="#fff" stop-opacity="0"/><stop offset="0.14" stop-color="#fff" stop-opacity="0.15"/><stop offset="0.38" stop-color="#fff" stop-opacity="0.39"/><stop offset="0.56" stop-color="#fff" stop-opacity="0.54"/><stop offset="0.66" stop-color="#fff" stop-opacity="0.6"/><stop offset="0.71" stop-color="#fff" stop-opacity="0.54"/><stop offset="0.8" stop-color="#fff" stop-opacity="0.39"/><stop offset="0.93" stop-color="#fff" stop-opacity="0.15"/><stop offset="1" stop-color="#fff" stop-opacity="0"/></linearGradient><linearGradient id="linear-gradient-12" x1="85.36" y1="101.14" x2="94.71" y2="100.65" xlink:href="#linear-gradient-11"/><radialGradient id="radial-gradient-3" cx="78.77" cy="118" r="13.11" gradientTransform="translate(0 104.07) scale(1 0.12)" gradientUnits="userSpaceOnUse"><stop offset="0" stop-opacity="0.4"/><stop offset="1" stop-color="#136999"/></radialGradient><linearGradient id="linear-gradient-13" x1="78.56" y1="128.29" x2="78.56" y2="92.13" gradientUnits="userSpaceOnUse"><stop offset="0.28" stop-color="#136999"/><stop offset="1" stop-color="#fff" stop-opacity="0"/></linearGradient><linearGradient id="linear-gradient-14" x1="78.83" y1="91.9" x2="78.83" y2="97.8" gradientUnits="userSpaceOnUse"><stop offset="0" stop-color="#136999" stop-opacity="0"/><stop offset="0.08" stop-color="#136999" stop-opacity="0.17"/><stop offset="0.21" stop-color="#136999" stop-opacity="0.42"/><stop offset="0.35" stop-color="#136999" stop-opacity="0.63"/><stop offset="0.5" stop-color="#136999" stop-opacity="0.79"/><stop offset="0.65" stop-color="#136999" stop-opacity="0.91"/><stop offset="0.81" stop-color="#136999" stop-opacity="0.98"/><stop offset="1" stop-color="#136999"/></linearGradient><linearGradient id="linear-gradient-15" x1="-988.34" y1="103.05" x2="-1000.72" y2="103.05" gradientTransform="matrix(-1, 0, 0, 1, -900, 0)" gradientUnits="userSpaceOnUse"><stop offset="0" stop-color="#fff" stop-opacity="0"/><stop offset="1" stop-color="#fff"/></linearGradient><linearGradient id="linear-gradient-16" x1="69.78" y1="102.97" x2="57.83" y2="102.97" gradientTransform="matrix(1, 0, 0, 1, 0, 0)" xlink:href="#linear-gradient-15"/><linearGradient id="linear-gradient-17" x1="55.04" y1="75.72" x2="102.65" y2="75.72" gradientUnits="userSpaceOnUse"><stop offset="0" stop-color="#fff" stop-opacity="0.8"/><stop offset="0.4" stop-color="#fff" stop-opacity="0.35"/><stop offset="1" stop-color="#fff"/></linearGradient><linearGradient id="linear-gradient-18" x1="66.7" y1="125.37" x2="75.37" y2="125.22" gradientUnits="userSpaceOnUse"><stop offset="0.08" stop-color="#fff" stop-opacity="0"/><stop offset="0.15" stop-color="#fff" stop-opacity="0.21"/><stop offset="0.27" stop-color="#fff" stop-opacity="0.54"/><stop offset="0.37" stop-color="#fff" stop-opacity="0.79"/><stop offset="0.45" stop-color="#fff" stop-opacity="0.94"/><stop offset="0.48" stop-color="#fff"/><stop offset="0.52" stop-color="#fff" stop-opacity="0.94"/><stop offset="0.6" stop-color="#fff" stop-opacity="0.79"/><stop offset="0.7" stop-color="#fff" stop-opacity="0.54"/><stop offset="0.82" stop-color="#fff" stop-opacity="0.21"/><stop offset="0.89" stop-color="#fff" stop-opacity="0"/></linearGradient><linearGradient id="linear-gradient-19" x1="62.57" y1="101.99" x2="73.76" y2="101.2" xlink:href="#linear-gradient-18"/><linearGradient id="linear-gradient-20" x1="60.71" y1="76.36" x2="70.04" y2="79.39" xlink:href="#linear-gradient-18"/><linearGradient id="linear-gradient-21" x1="59.58" y1="78.11" x2="73.81" y2="78.11" gradientUnits="userSpaceOnUse"><stop offset="0" stop-color="#fff" stop-opacity="0"/><stop offset="0.09" stop-color="#fff" stop-opacity="0.21"/><stop offset="0.23" stop-color="#fff" stop-opacity="0.54"/><stop offset="0.35" stop-color="#fff" stop-opacity="0.79"/><stop offset="0.44" stop-color="#fff" stop-opacity="0.94"/><stop offset="0.48" stop-color="#fff"/><stop offset="0.53" stop-color="#fff" stop-opacity="0.94"/><stop offset="0.62" stop-color="#fff" stop-opacity="0.79"/><stop offset="0.75" stop-color="#fff" stop-opacity="0.54"/><stop offset="0.91" stop-color="#fff" stop-opacity="0.21"/><stop offset="1" stop-color="#fff" stop-opacity="0"/></linearGradient><linearGradient id="linear-gradient-22" x1="86.12" y1="71.54" x2="95.23" y2="74.5" xlink:href="#linear-gradient-18"/></defs><title>one-view-label-a-water</title><g id="Label_Water_A-2" data-name="Label Water A"><circle id="Backdrop" cx="62.54" cy="78.52" r="62.18" style="fill:#8dcae4"/><path id="Label_Back" data-name="Label Back" d="M93.85,52.7a422.69,422.69,0,0,1,72.61-11.56,470.05,470.05,0,0,1,74,.66l-10.75,66.56a408.48,408.48,0,0,0-63.4-10.79,371.36,371.36,0,0,0-64.75-.11Z" style="fill:#ebd900"/><g id="Label"><path d="M125.34,57.88q3.47,15.23,5.49,24.64v0a7.48,7.48,0,0,1-1.5.14,9.34,9.34,0,0,1-1.61-.21h0c-.16-.46-.38-1.27-.66-2.41-.35-1.38-.67-2.51-1-3.4-1.07,0-2.48-.07-4.23-.07h-1.47s-.08.51-.25,1.44c-.21,1.28-.41,2.34-.59,3.17s-.4,1.26-.63,1.31a1.23,1.23,0,0,1-.35,0l-.93,0c-.46,0-1,0-1.56,0h-.38v0a11.19,11.19,0,0,0,.31-1.85q.89-5.53,2.05-11.22a91.92,91.92,0,0,1,3.13-11.36,4.17,4.17,0,0,1,.56,0h.77C123.41,58,124.36,58,125.34,57.88Zm-3.19,16q2.25,0,4,0c-1.3-7.35-2.09-11.15-2.34-11.41a1.78,1.78,0,0,0-.53-.11c-.28,0-.51.23-.7.69a23.19,23.19,0,0,0-.77,3.06c-.32,1.59-.71,3.59-1.15,6l-.32,1.75h.7C121.5,73.84,121.87,73.85,122.15,73.87Z" style="fill:#fff"/><path d="M136.36,70.79l-2.69,0h-.11a10.21,10.21,0,0,1-.1-1.61l0-1.72a5.25,5.25,0,0,0,0-.73,4.8,4.8,0,0,1,1.68-.25,4.16,4.16,0,0,1,1.43.18c0,.12,0,.75-.1,1.89s-.11,1.88-.11,2.2v.07Zm0,11.76-2.66,0h-.11a10.21,10.21,0,0,1-.1-1.61l0-1.72a5.25,5.25,0,0,0,0-.73,4.8,4.8,0,0,1,1.68-.25,3.89,3.89,0,0,1,1.4.18c0,.12,0,.75-.11,1.89s-.1,1.88-.1,2.2v.07Z" style="fill:#fff"/><path d="M162.58,58.16l0,0q-.31,3.75-1.08,11.24-.15,1.57-.55,5.62c-.26,2.69-.49,5.14-.68,7.33a2,2,0,0,1-.66.07h-2.21a9.93,9.93,0,0,1-.75-2c-.2-.74-.43-1.7-.68-2.87q-.1-.48-.27-1.17c-.1-.45-.22-1-.36-1.52h0l-.87,3.67c-.19.84-.37,1.62-.55,2.33a5.79,5.79,0,0,1-.47,1.42,9.47,9.47,0,0,1-1.71.17,10.43,10.43,0,0,1-1.33-.1h0l-.42-2.91q-1-6.72-1.5-11.6c-.35-3.25-.56-6.47-.63-9.64v0c.37,0,.93-.09,1.68-.14.49,0,1.08,0,1.78.07.07.68.14,2.1.21,4.27.16,3.57.33,6.53.51,8.86a30.8,30.8,0,0,0,.79,5.46c.35-1.24.66-2.46.94-3.66s.7-3.11,1.26-5.72l0-.14a50.19,50.19,0,0,1,1.54,5.18q.8,3,.87,3.18c0,.24.19.69.42,1.37q.5-5.36.75-9.8c.18-3,.28-4.67.3-5.11q.1-2.65.21-3.75v0a6.78,6.78,0,0,1,1.61-.18C161.19,58.05,161.81,58.09,162.58,58.16Z" style="fill:#fff"/><path d="M175.91,65a17.72,17.72,0,0,1,2.07.07l.91.07c0,.38.07.66.07.84v.35c0,.54,0,1.35,0,2.42,0,.89,0,2.19.07,3.92l0,3.92c0,1.68-.05,3.21-.14,4.58v.46a3,3,0,0,1-.07.63.47.47,0,0,1-.39.35h-.59l-1.12,0a3.34,3.34,0,0,0-.49,0l-.39,0c-.23-.07-.35-.32-.35-.77a2.28,2.28,0,0,1,0-.63,4.84,4.84,0,0,0,.05-.59,4.35,4.35,0,0,1-2.66,1.57,15.8,15.8,0,0,1-3.57.42,3.51,3.51,0,0,1-2.85-1.48,9.72,9.72,0,0,1-1.73-3.66,16.65,16.65,0,0,1-.56-4.24,10.28,10.28,0,0,1,.77-4.09,7.2,7.2,0,0,1,2.11-2.89,4.88,4.88,0,0,1,3-1.1l1.12,0a7.92,7.92,0,0,1,2.6.37,2.68,2.68,0,0,1,1.53,1.35,5.52,5.52,0,0,1,.07-.81c0-.46.07-.79.07-1C175.46,65,175.61,65,175.91,65ZM172,68.13a4.73,4.73,0,0,0-3.06.93,3.85,3.85,0,0,0-1.52,2.29,10.53,10.53,0,0,0-.28,2.73q.17,5.64,4.55,5.39a4.23,4.23,0,0,0,2.59-.63,2.71,2.71,0,0,0,1-1.78,22.54,22.54,0,0,0,.2-3.47,20.4,20.4,0,0,0-.21-3.55,2,2,0,0,0-.9-1.42A6,6,0,0,0,172,68.13Z" style="fill:#fff"/><path d="M188.13,58.58v5.35l0,2q2.28-.06,5.64-.24a1.87,1.87,0,0,1,.21,1l0,.8a5.59,5.59,0,0,0,0,1.12c-2.55,0-4.45,0-5.71,0v6.54c0,1.05,0,1.8.07,2.24a4.11,4.11,0,0,0,.28,1.16,3.23,3.23,0,0,0,2.26.87,19.64,19.64,0,0,0,3.1.11c.11.93.17,1.53.17,1.78a5,5,0,0,1-.17,1.26c-.49,0-1.26,0-2.31,0a10.89,10.89,0,0,1-4.27-.67,3.42,3.42,0,0,1-2-2.66,80.58,80.58,0,0,1-.39-8.85V68.73a10.48,10.48,0,0,1-1,0l-2.66,0,.11-2.87c.51,0,1.73.07,3.67.07l0-3.68V60.61a19.67,19.67,0,0,1,.07-2.07,12,12,0,0,1,1.5,0l.95,0A3.78,3.78,0,0,0,188.13,58.58Z" style="fill:#fff"/><path d="M199,73.7v.63l0,1c0,2.9,1.42,4.34,4.27,4.34a3.59,3.59,0,0,0,2.54-.78,2.86,2.86,0,0,0,.82-2.16,6.71,6.71,0,0,0-.07-.77,9.71,9.71,0,0,1,1.37-.1q.56,0,.84,0l.5,0a4.14,4.14,0,0,0,.69,0,21.81,21.81,0,0,1-.14,3.19,6.08,6.08,0,0,1-.84,2.27,3.58,3.58,0,0,1-2.19,1.35,13.57,13.57,0,0,1-3.41.4,15.17,15.17,0,0,1-1.56-.07,3.66,3.66,0,0,1-.89-.14,5.1,5.1,0,0,1-4-3.44,16.07,16.07,0,0,1-1-6.85c0-.18.06-.57.11-1.17s.11-1.21.19-1.84a8.11,8.11,0,0,1,.47-1.85,4.69,4.69,0,0,1,2.42-2.38,8.83,8.83,0,0,1,3.88-.84,10.38,10.38,0,0,1,2.35.28Q210,65.62,210,72c0,.35,0,.86-.07,1.51a22.81,22.81,0,0,1-3.92.35q-.39,0-1.68,0c-1.85,0-3.21,0-4.1-.07A5.85,5.85,0,0,1,199,73.7Zm8.5-2.63a5.16,5.16,0,0,0-.54-2.13,3.94,3.94,0,0,0-1.45-1.65,4.26,4.26,0,0,0-.91-.31,5.4,5.4,0,0,0-1-.07,3.77,3.77,0,0,0-4.45,3.64,3.81,3.81,0,0,0-.07.56.55.55,0,0,0,.4.56,6.81,6.81,0,0,0,1.74.14c.86,0,1.59,0,2.2,0q3.36,0,3.78,0a.42.42,0,0,0,.23-.09.29.29,0,0,0,0-.19Z" style="fill:#fff"/><path d="M215.81,65.16c0,.28,0,.5,0,.65s0,.33,0,.54a6.57,6.57,0,0,1,.68-.32l1-.35a9.3,9.3,0,0,1,1.94-.4,19.72,19.72,0,0,1,2-.12c.56,0,.84,0,.84.07l0,2.9q0,.7,0,1.05a11.19,11.19,0,0,0-1.19-.38,7.34,7.34,0,0,0-1.68-.18,9.75,9.75,0,0,0-2.13.28,2.23,2.23,0,0,0-1.33.74,3.24,3.24,0,0,0-.32,1.85q.14,4.8.14,10.89v.14a5.5,5.5,0,0,1-1.22.14l-.79,0c-.36,0-.73,0-1.1,0l0-6q-.07-4.12-.07-6.2c0-1.12,0-2.89.07-5.32a4.57,4.57,0,0,0,.75,0l.72,0c.28,0,.65,0,1.12,0S215.81,65.11,215.81,65.16Z" style="fill:#fff"/></g><g id="Water_Bottle_A" data-name="Water Bottle A"><path d="M64.54,114.43c-3.38,4.06-9.06,4.93-18.54,4.93-8.64,0-16.75-1.85-19.2-5.7S24.4,99.49,24.62,97,27,85.26,27.41,80.82s1.37-14.55-.49-16.56S25.3,43.89,25.3,35.31c0-11.91,15.32-20.19,15.32-21.11,0-.65.11-3.06.11-4l11.06-.36v4.29c0,.93,14.82,8.88,14.82,21.18,0,9,.49,25.81-1.62,28.1s-1.13,12.48-.73,16.48S67,94,67.26,96.82C67.44,99.26,67.93,110.37,64.54,114.43Z" style="fill:#fff;opacity:0.2"/><path d="M62.23,116.19c0,1.82-5.43,3.3-16.09,3.3s-16.72-1.48-16.72-3.3,6.06-3.31,16.72-3.31S62.23,114.36,62.23,116.19Z" style="stroke:#136999;stroke-miterlimit:10;stroke-width:1.21178645321594px;fill:url(#radial-gradient)"/><path d="M64.54,114.43c-3.38,4.06-9.06,4.93-18.54,4.93-8.64,0-16.75-1.85-19.2-5.7S24.4,99.49,24.62,97,27,85.26,27.41,80.82s1.37-14.55-.49-16.56S25.3,43.89,25.3,35.31c0-11.91,8.85-14.67,8.85-15.59,0-.65,7.64.84,7.64-.11l5.9-.87c0,.67,10.38.66,10.38,1.2,0,.93,8.54,3.07,8.54,15.37,0,9,.49,25.81-1.62,28.1s-1.13,12.48-.73,16.48S67,94,67.26,96.82C67.44,99.26,67.93,110.37,64.54,114.43Z" style="opacity:0.5;fill:url(#linear-gradient)"/><path d="M37.17,17.55c3.95,2,13.34,2,18,.09" style="fill:none;stroke:#545454;stroke-miterlimit:10;stroke-width:0.648002099099335px;opacity:0.7000000000000001"/><path d="M39.45,16.46l1.1-1.87a81.68,81.68,0,0,0,11.6.09l.41,1.53C51.18,14.87,41.68,14.85,39.45,16.46Z" style="fill:#136999"/><path d="M64.54,114.43c-3.38,4.06-9.06,4.93-18.54,4.93-8.64,0-16.75-1.85-19.2-5.7S24.4,99.49,24.62,97,27,85.26,27.41,80.82s1.37-14.55-.49-16.56S25.3,43.89,25.3,35.31c0-9.61,10.59-17,11.5-17.88,5.19,2.4,14.46,2,18.59.06.91.87,11.22,6.56,11.22,17.82,0,9,.49,25.81-1.62,28.1s-1.13,12.48-.73,16.48S67,94,67.26,96.82C67.44,99.26,67.93,110.37,64.54,114.43Z" style="opacity:0.5;fill:url(#linear-gradient-2)"/><path d="M64.54,114.43c-3.38,4.06-9.06,4.93-18.54,4.93-8.64,0-16.75-1.85-19.2-5.7S24.4,99.49,24.62,97,27,85.26,27.41,80.82s1.37-14.55-.49-16.56S25.3,43.89,25.3,35.31c0-9.61,10.59-17,11.5-17.88,5.19,2.4,14.46,2,18.59.06.91.87,11.22,6.56,11.22,17.82,0,9,.49,25.81-1.62,28.1s-1.13,12.48-.73,16.48S67,94,67.26,96.82C67.44,99.26,67.93,110.37,64.54,114.43Z" style="opacity:0.5;fill:url(#linear-gradient-3)"/><path d="M69.18,98c-.24-2.9-2.61-13.2-3.05-17.34s-1.78-15.09.59-17.45,1.9-18,1.9-27.28c0-12.71-15.77-20.86-15.77-21.82V10.72l-13.12-.16v3.51c0,.95-15.68,9.11-15.68,21.43,0,8.87-.78,26.78,1.29,28.86s1.15,12.41.66,17S23.41,95.46,23.17,98s0,13.63,2.78,17.61,10.56,6,20.23,6c10.61,0,16.43-1.76,20.22-6S69.39,100.49,69.18,98Zm-5.37,15.13c-3.33,4-8.5,5.3-17.81,5.3-8.49,0-15.9-1.94-18.3-5.72s-2.2-13.7-2-16.13,2.22-11.58,2.64-16,1.47-14.4-.35-16.37-1.72-20.1-1.72-28.53C26.29,24,41.08,15.94,41.08,15c0-.64.11-3,.11-3.93l10-.32V15c0,.91,14.37,8.6,14.37,20.68,0,8.83.4,25.13-1.67,27.38s-1,12.82-.61,16.75,2.32,13.67,2.53,16.43C66,98.65,67.13,109.11,63.81,113.09Z" style="fill:#136999"/><path d="M40.68,16.39a43,43,0,0,0-9.1,9.19c-2.89,4-3.52,8-3.16,8.14a29.42,29.42,0,0,0,6.88.63c1.16,0-.32-2.72,1.68-8.74a29,29,0,0,1,6.52-9.76C43.72,15.63,41.14,16.07,40.68,16.39Z" style="fill:#fff;opacity:0.5"/><path d="M60.76,67.07c-5.41,2.23-25.28,2.5-30.07,0-.75-.39-1.42-2.74,0-2.24,6.4,2.23,23.14,2,30.07,0C62.44,64.35,62.27,66.45,60.76,67.07Z" style="fill:#136999;opacity:0.30000000000000004"/><path d="M29.24,59.68c-.26-.09.2,3.16.52,3.62s5,1.41,6.28,1.41c.47,0,.92-4.3.42-4.3A53.55,53.55,0,0,1,29.24,59.68Z" style="fill:#fff;opacity:0.5"/><path d="M42.24,12.08c-.26-.1-.28,2.29-.07,2.34a7.32,7.32,0,0,0,1.89.1c.21,0,.4-2.3.08-2.3A7.82,7.82,0,0,1,42.24,12.08Z" style="fill:#fff;opacity:0.5"/><path d="M47.81,12.25c-.28,0,.2,2.18.42,2.23a4.7,4.7,0,0,0,2.1-.09,9.18,9.18,0,0,0,.07-2.17C50.4,12.13,48.83,12.29,47.81,12.25Z" style="opacity:0.6000000000000001;fill:url(#linear-gradient-4)"/><path d="M30.79,69.26c.32,4-1.08,14.88-1.5,17.18-.11.59,3.57,1.83,4.87,1.83.48,0,2.26-18.47,1.76-18.47C33.53,69.8,30.76,69,30.79,69.26Z" style="fill:#fff;opacity:0.5"/><path d="M28.33,92a23.32,23.32,0,0,0-1.08,6.26,43.64,43.64,0,0,0,1.09,11.07c.74,3.48,7.05,7.15,6.47,5a46.79,46.79,0,0,1-1.54-13.61c0-2,.83-6.57.12-6.74C29.7,93.05,28.64,91.31,28.33,92Z" style="fill:#fff;opacity:0.5"/><path d="M61.15,88.94a54,54,0,0,1-30.21-.19c-1.27-.38-2.86,1.38-1.55,2.13,7.13,4.09,25.09,3.9,33.51.25C64.51,90.43,63.4,88.29,61.15,88.94Z" style="fill:#136999;opacity:0.2"/><path d="M63.08,93.16c2-.57,2,13.71.29,17.52-2.06,4.62-8.29,5.92-15,6.33-2.28.13-1.19-21.71,1.39-21.82A72.43,72.43,0,0,0,63.08,93.16Z" style="opacity:0.6000000000000001;fill:url(#linear-gradient-5)"/><path d="M51.57,16.4c2.69,2.12,8.07,5.91,10.5,11.55.83,1.92,2.15,5.6,1.28,5.75a64.14,64.14,0,0,1-13.62.58c-.9-.13.32-4.67,0-8-.24-2.48-.77-8-1.27-10C48.36,15.82,50.74,15.74,51.57,16.4Z" style="opacity:0.6000000000000001;fill:url(#linear-gradient-6)"/><path d="M62.92,59.89c.71-.09-.17,2.56-.68,3.33-.33.49-3.76,1.11-6.41,1.45a47.58,47.58,0,0,1-7.91.51c-1.05-.07-1.05-4-.48-3.94C53.36,61.58,62.14,60,62.92,59.89Z" style="opacity:0.6000000000000001;fill:url(#linear-gradient-7)"/><path d="M61.06,69.15c-.4,5.39,1.16,17.18,1.35,18s-7.67,2.75-10.26,2.19c-2.23-.48-3.79-19.69-1.64-19.42C55.37,70.52,61.12,68.27,61.06,69.15Z" style="opacity:0.6000000000000001;fill:url(#linear-gradient-8)"/><path d="M53.9,11.47a75.59,75.59,0,0,1-15.41,0,.71.71,0,0,1-.62-.72A34.13,34.13,0,0,1,38,7.22c.15-.62.58-3.57.58-3.57a1.4,1.4,0,0,1,1.3-1.34,103,103,0,0,1,12.79,0A1.4,1.4,0,0,1,54,3.67s.33,2.82.48,3.26a37.15,37.15,0,0,1,.08,3.83A.7.7,0,0,1,53.9,11.47Z" style="fill:#1a64ad"/><path d="M52.57,9.61a73.39,73.39,0,0,1-13.14.2l0-2.51.39-3.7a91.09,91.09,0,0,1,12.23.07l.45,3.59Z" style="fill:#347bb7"/><path d="M46.8,3.45c-2.06-.05-4,0-6.26.11v5.5a57.19,57.19,0,0,0,6.26.08Z" style="fill:#4d99ce"/><path d="M44.47,3.43c-.74,0-1.49,0-2.27,0V9.15c.76,0,1.52,0,2.27,0Z" style="fill:#6ab3db"/><path d="M52.52,7.26l-.45-3.59-1,0V8.89l1.47-.12Z" style="fill:#4d99ce"/><path d="M39.43,9.81a73.39,73.39,0,0,0,13.14-.2l0-2.28H39.45Z" style="fill:#347bb7"/><path d="M51.12,8.61l0,1c0,.06,0,.11,0,.16l1.48-.11,0-1.94h-.47C51.16,7.67,51.12,7.51,51.12,8.61Z" style="fill:#4d99ce"/><path d="M45.4,10a.43.43,0,0,0,0-.11l-.1-1.21c0-.52-.32-.9-1.29-.9H42.68a.94.94,0,0,0-.93.94l0,.95a2.44,2.44,0,0,0,0,.28C43,10,44.19,10,45.4,10Z" style="fill:#80c6e5"/><path d="M45.57,58.92c-9.5,0-17.46-.91-20.66-2.34L25,35.63c4,.81,13.36,1.18,21.52,1.18,7.68,0,16.88-.33,21.18-1.22l-.27,21C63.39,58,55,58.92,45.57,58.92Z" style="fill:#b6f8ff"/><path d="M47,40.73c6.29-2.15,13.76-.43,20.6,3l.1-8.12c-4.3.89-13.5,1.22-21.18,1.22-8.16,0-17.49-.37-21.52-1.18l0,12.43C32.77,50.87,38.9,43.49,47,40.73Z" style="fill:#1ab1c1"/><path d="M42.1,45.59c-5.56,2.3-10.2,8.11-17.18,7.06v3.93c3.2,1.43,11.16,2.34,20.66,2.34S63.39,58,67.39,56.59l.08-6.09C59.63,43.89,49.56,42.51,42.1,45.59Z" style="fill:#79d8e2"/><path d="M68.62,35.89a13,13,0,0,0-.08-1.4h0l-.63.17-.24.05-.58.12-.1,0c-4.11.75-12.31,1.1-20.51,1.1a164.5,164.5,0,0,1-20.16-1h0a16.29,16.29,0,0,1-2.19-.46h0c0,.33,0,.66,0,1,0,5.68-.32,15,0,21.62h0c3.23,1.78,12.27,2.67,21.52,2.67,8.85,0,17.88-.82,22.27-2.45l.41-.15C68.82,51.18,68.62,42.12,68.62,35.89Zm-42,20.39c-.37-6.1-.36-14.27-.36-19.55a172.86,172.86,0,0,0,20.19,1,178.09,178.09,0,0,0,19.11-.87c0,5.68.14,13.74-.27,19.49C61,57.38,53.65,58.05,45.57,58.05S30.34,57.36,26.65,56.28Z" style="fill:#0092aa"/><g style="opacity:0.45"><path d="M68.62,35.89a13,13,0,0,0-.08-1.4h0l-.64.17-.24.05-.6.13-.11,0c-8.15,1.47-32.14,1.4-40.63.13h0a18.64,18.64,0,0,1-2-.41l-.21-.06h0c0,.33,0,.66,0,1,0,5.68-.32,15,0,21.62h0c6.33,3.48,34.77,3.56,43.78.23.14-.05.29-.1.42-.16C68.82,51.18,68.62,42.12,68.62,35.89Z" style="fill:url(#linear-gradient-9)"/></g></g><g id="Cup_A" data-name="Cup A"><path d="M103.87,75.48c-.68-1.85-2.34-3-8.29-3.76A140.17,140.17,0,0,0,79,70.86a139.44,139.44,0,0,0-16.57.86c-4.06.52-7.53,1.42-8.2,3.8-.38,1.33.19,2.37,2.26,3.2l3.41,41.33c0,.36.75.61,1.07.7l.42,4.06c.51,2.44,7.2,4.26,17.45,4.26s16.55-1.91,17.45-4.26l.5-4c.3-.1,1-.44,1.06-.85l3.79-41.17C103.51,77.93,104.34,76.76,103.87,75.48Z" style="opacity:0.8;fill:url(#linear-gradient-10)"/><path d="M94.83,124.6c0,1.1-7,3-16.06,3s-16.37-1.91-16.37-3,7.4-2.52,16.45-2.52S94.83,123.51,94.83,124.6Z" style="opacity:0.35000000000000003;fill:url(#radial-gradient-2)"/><path d="M93.56,74.85c-2-.18-3.64-.35-6.44-.46,0,.66,0,1.45.06,2.34,2.59-.14,4.71-.34,6.42-.56C93.6,75.68,93.58,75.23,93.56,74.85Z" style="opacity:0.30000000000000004;fill:url(#linear-gradient-11)"/><path d="M87.22,79.65c.07,9.17-.14,24.77-.82,37.52-.26,4.94.14,5.46,2.93,5.28,1.26-.09,1.09-2.41,1.42-4.94,1.14-8.52,2.63-28.33,2.84-38.33C91.7,79.39,89.55,79.55,87.22,79.65Z" style="opacity:0.30000000000000004;fill:url(#linear-gradient-12)"/><path d="M60.84,119.57c0-1.58,8.94-2.58,18-2.58s17.86,1.14,17.86,2.58" style="fill:none;stroke-miterlimit:10;stroke-width:1.1149077481622px;opacity:0.35000000000000003;stroke:url(#radial-gradient-3)"/><path d="M96.87,119.54l-1.19.32c-.37.1-.42,4.87-.77,5-10.4,4.69-21.79,4.25-32.48.35-.41-.15-.23-4.89-.66-5l-1-.22L58.74,95c5-4,38.63-3.51,39.63,0Z" style="opacity:0.5;fill:url(#linear-gradient-13)"/><g style="opacity:0.7000000000000001"><ellipse cx="78.81" cy="94.85" rx="20.07" ry="2.62" style="fill:#85a4b5"/><path d="M99.19,94.85a1,1,0,0,1-.51.75,3.38,3.38,0,0,1-.62.33,9.82,9.82,0,0,1-1.27.4,24.47,24.47,0,0,1-2.55.51c-1.7.27-3.42.45-5.13.58-3.43.26-6.87.36-10.3.36s-6.87-.12-10.3-.39c-1.71-.14-3.43-.32-5.13-.59-.85-.13-1.7-.29-2.55-.5a12.32,12.32,0,0,1-1.26-.41,4.08,4.08,0,0,1-.62-.32,1,1,0,0,1-.48-.72.92.92,0,0,1,.49-.72,3,3,0,0,1,.61-.32,10.2,10.2,0,0,1,1.26-.4,25.5,25.5,0,0,1,2.55-.5c1.71-.26,3.42-.43,5.13-.56,3.43-.28,6.86-.38,10.3-.39s6.87.09,10.3.35c1.71.13,3.42.3,5.13.56a25.5,25.5,0,0,1,2.55.5,10.34,10.34,0,0,1,1.27.4,3.32,3.32,0,0,1,.62.32A1,1,0,0,1,99.19,94.85Zm-.62,0a.54.54,0,0,0-.23-.25,3.15,3.15,0,0,0-.52-.26A7.74,7.74,0,0,0,96.64,94c-.82-.21-1.65-.37-2.49-.5-1.68-.26-3.39-.44-5.09-.58-3.41-.27-6.83-.37-10.25-.38s-6.85.09-10.26.35c-1.7.13-3.4.31-5.09.57-.84.13-1.68.29-2.49.5a9.17,9.17,0,0,0-1.19.38,3.17,3.17,0,0,0-.52.27.56.56,0,0,0-.25.28.51.51,0,0,0,.25.27,3.17,3.17,0,0,0,.52.27,9.15,9.15,0,0,0,1.19.37c.82.21,1.65.36,2.5.49,1.68.26,3.38.43,5.08.56,3.41.26,6.84.35,10.26.35s6.84-.12,10.25-.39c1.7-.13,3.4-.3,5.08-.56.85-.13,1.68-.28,2.5-.49a9,9,0,0,0,1.18-.37,2.7,2.7,0,0,0,.51-.26A.53.53,0,0,0,98.57,94.85Z" style="fill:url(#linear-gradient-14)"/></g><polygon points="88.34 127.57 95.35 125.31 100.72 78.54 90.22 79.97 88.34 127.57" style="opacity:0.4;fill:url(#linear-gradient-15)"/><path d="M95.87,125.06c-10.83,4-22,3.86-34.19-.06L57.84,78.62c14.63,2.18,28.55,2.5,42.32.18Z" style="fill:#fff;opacity:0.15"/><polygon points="69.78 127.07 61.75 125.06 57.83 78.86 67.65 80.04 69.78 127.07" style="opacity:0.4;fill:url(#linear-gradient-16)"/><path d="M58.66,75.24c15.55-3,27.5-1.54,40.55,0A117.5,117.5,0,0,1,58.66,75.24Z" style="fill:#fff;opacity:0.30000000000000004"/><path d="M102.59,75.47s-.11-.34-.12-.36c-.25-.82-1-1.84-7.18-2.63a134.5,134.5,0,0,0-16.35-.87,137.59,137.59,0,0,0-16.4.8c-6.2.79-6.81,1.85-7.1,2.66,0,0-.29.05,0,.21l0,.09c-.16-.18,0-.05,0-.05-.56-.17-.16.48-.17.57,0,1.06,2.09,2.3,7.5,3A130.32,130.32,0,0,0,79,79.83,129.89,129.89,0,0,0,95.11,79C100.91,78.22,103,76.59,102.59,75.47ZM79,73.56c11.23,0,18.22.56,20.74,1.45-.54.1-1,.24,0,.1-1,.14-6.43,1.84-20.77,1.84-13.08,0-19.54-1.51-20.72-1.88.81.26,0,0,0,0C60.69,74.17,67.55,73.56,79,73.56Z" style="opacity:0.5;fill:url(#linear-gradient-17)"/><path d="M57.59,75v0c.88.87,8.29,2.15,21.37,2.15,14.34,0,20.44-1.44,21.14-2.14,0,0,0,0,0-.06-2.51-.89-9.94-1.83-21.17-1.83C67.56,73.15,60.05,74.12,57.59,75ZM79,76.63a114.66,114.66,0,0,1-18.68-1.21A114.66,114.66,0,0,1,79,74.21a115.46,115.46,0,0,1,18.74,1.21A115.46,115.46,0,0,1,79,76.63Z" style="fill:#4e8b9b"/><path d="M103.87,75.48c-.68-1.85-2.34-3-8.29-3.76A140.17,140.17,0,0,0,79,70.86a139.44,139.44,0,0,0-16.57.86c-4.06.52-7.53,1.42-8.2,3.8-.38,1.33.19,2.37,2.26,3.2l3.41,41.33c0,.36.75.61,1.07.7l.42,4.06c.51,2.44,7.2,4.26,17.45,4.26s16.55-1.91,17.45-4.26l.5-4c.3-.1,1-.44,1.06-.85l3.79-41.17C103.51,77.93,104.34,76.76,103.87,75.48Zm-10,48.43c-2.4,2.34-8.21,3.16-13.43,3.16-4.45,0-13.32-.26-17-2.73-.57-.38-.57-2-.68-3.29a76.16,76.16,0,0,0,17.71,2,59,59,0,0,0,14-2C94.27,122.22,94.25,123.57,93.89,123.91Zm1.27-4.51c-1.45,1-6.54,2.63-16.43,2.63s-15-1.32-16.49-2.29c-1.07-.72-3-30.6-3.43-40.33,1,.22,2.1.42,3.42.6a122.47,122.47,0,0,0,16.42,1.18,148.6,148.6,0,0,0,17-.8,27.44,27.44,0,0,0,3.22-.59C98.51,91.36,96.24,118.69,95.16,119.4Zm-.07-40.84A129.75,129.75,0,0,1,79,79.41a132.26,132.26,0,0,1-16.23-.85c-5.41-.71-7.23-1.72-7.26-2.77a2.86,2.86,0,0,1,.06-.37h0c.29-.81.84-1.85,7-2.64A136.18,136.18,0,0,1,79,71.93a134.87,134.87,0,0,1,16.33.85c6.13.79,6.64,1.77,6.89,2.59a.49.49,0,0,0,0,.07C102.66,76.57,100.89,77.78,95.09,78.56Z" style="fill:#4e8b9b"/><path d="M75.17,123.33a57.85,57.85,0,0,1-8.51-1,25.87,25.87,0,0,0,.31,4.73,37.32,37.32,0,0,0,8.45,1.09C75.43,127.46,75.29,126.26,75.17,123.33Z" style="opacity:0.6000000000000001;fill:url(#linear-gradient-18)"/><path d="M73,120.15c-1.31-15.63-1.19-31.76-.63-38.56a87,87,0,0,1-10.77-1c0,9.76,1.14,30.08,3.3,38.81a14.53,14.53,0,0,0,.77,2.31c2.91.57,6.26.93,7.46,1C73.15,122,73.1,121.15,73,120.15Z" style="opacity:0.6000000000000001;fill:url(#linear-gradient-19)"/><path d="M69.42,80c.3-1.45.31-2.1,1.4-3-3.23-.16-6.5-.46-9.48-.9-1.29,1.18-.93,1.39-1,2.77A57.51,57.51,0,0,0,69.42,80Z" style="opacity:0.6000000000000001;fill:url(#linear-gradient-20)"/><path d="M59.69,77.49A89.35,89.35,0,0,0,73.8,78.72" style="fill:none;stroke-miterlimit:10;stroke-width:1.1149077481622px;opacity:0.5;stroke:url(#linear-gradient-21)"/><path d="M94.76,74.59A2.73,2.73,0,0,1,96,72.24c-3.23-.39-6.18-.65-9.38-.75a2.61,2.61,0,0,0-1,2.38C87.88,74,92,74.23,94.76,74.59Z" style="opacity:0.4;fill:url(#linear-gradient-22)"/></g></g></svg>