<svg id="TempGauge_-_One_View" data-name="TempGauge - One View" xmlns="http://www.w3.org/2000/svg" viewBox="0 0 234 155"><title>one-view-tempgauge</title><g id="Dial"><path id="Face_Back" data-name="Face Back" d="M211.34,121.29c.06-1.42.1-2.85.1-4.29a94.34,94.34,0,1,0-188.67,0c0,1.44,0,2.87.1,4.29Z" style="fill:#b4dced"/><path id="Face_Top" data-name="Face Top" d="M202.76,121.29c.07-1.42.11-2.85.11-4.29a85.77,85.77,0,0,0-171.53,0c0,1.44,0,2.87.11,4.29Z" style="fill:#008ac3;opacity:0.7000000000000001"/><g id="Ticks"><path d="M52.5,74.75,39.41,67.19l-4.29,7.43,13.09,7.55A76.86,76.86,0,0,1,52.5,74.75Z" style="fill:#b4dced"/><path d="M82.28,48.1,74.72,35,67.29,39.3l7.57,13.1A77.83,77.83,0,0,1,82.28,48.1Z" style="fill:#b4dced"/><path d="M117.1,39.81c1.44,0,2.87,0,4.29.12V24.81h-8.57V39.93C114.24,39.86,115.66,39.81,117.1,39.81Z" style="fill:#b4dced"/><path d="M186,82.17l13.09-7.55-4.29-7.43-13.1,7.56A77,77,0,0,1,186,82.17Z" style="fill:#b4dced"/><path d="M39.92,117q0-2.16.12-4.29H24.91v8.58H40Q39.92,119.16,39.92,117Z" style="fill:#b4dced"/><path d="M159.35,52.4l7.56-13.1L159.49,35,151.93,48.1A77.83,77.83,0,0,1,159.35,52.4Z" style="fill:#b4dced"/><path d="M194.17,112.71q.12,2.13.12,4.29t-.12,4.29H209.3v-8.58Z" style="fill:#b4dced"/></g><g id="Temperature_Label" data-name="Temperature Label"><path d="M52.44,86.23c.52-.88.9-1.55,1.14-2l1.2-2.11a58.05,58.05,0,0,1,3.43-5.28c.14.06.37.19.7.38a13.1,13.1,0,0,1,1.53,1,8,8,0,0,0-.88,1.36c-.26.49-.52,1-.8,1.46l-.35.59a.46.46,0,0,1,.27.15c.08.07,1.07.66,3,1.78.46.27.84.49,1.15.64q5.89,3.38,8.67,4.9l0,0a8.8,8.8,0,0,1-.66,1.28,8.68,8.68,0,0,0-.69,1.38,1.44,1.44,0,0,1-.3-.17l-.47-.29L68,90.6c-.28-.19-.81-.51-1.58-1s-1.58-.92-2.12-1.21q-3.21-1.82-7.24-4l-.09,0a16.15,16.15,0,0,0-1.65,2.4,7.83,7.83,0,0,1-.48.77,3.87,3.87,0,0,1-.9-.4Z" style="fill:#b4dced"/><path d="M69.78,80.56l.35.31.55.51q2.4,2.09,4.49-.31a2.68,2.68,0,0,0,.81-1.8,2,2,0,0,0-.79-1.51l-.46-.33a8.33,8.33,0,0,1,.61-.82,5,5,0,0,1,.43-.45l.26-.28a3.68,3.68,0,0,0,.33-.39,15.12,15.12,0,0,1,1.69,1.62,4.34,4.34,0,0,1,.85,1.57,2.67,2.67,0,0,1-.32,1.88,10.9,10.9,0,0,1-1.45,2.11c-.28.31-.55.6-.81.84a4.08,4.08,0,0,1-.51.44A3.79,3.79,0,0,1,72,84.5a11.58,11.58,0,0,1-4.3-2.71l-.6-.63q-.47-.47-.93-1A5.59,5.59,0,0,1,65.34,79a3.49,3.49,0,0,1-.14-2.5,6.62,6.62,0,0,1,1.44-2.59,8.28,8.28,0,0,1,1.3-1.18c1.86-1.53,4-1.26,6.31.79.2.17.46.42.8.76a16.84,16.84,0,0,1-1.73,2.38c-.11.15-.38.47-.8,1-.9,1-1.58,1.79-2,2.26A4.18,4.18,0,0,1,69.78,80.56Zm2.72-6a4,4,0,0,0-1.45-.72,2.91,2.91,0,0,0-1.63,0,3.39,3.39,0,0,0-.62.36,4.81,4.81,0,0,0-.52.51A3.47,3.47,0,0,0,67.22,77a3.35,3.35,0,0,0,.9,2,4,4,0,0,0,.28.31.41.41,0,0,0,.51,0,5.15,5.15,0,0,0,.92-.91c.43-.49.78-.9,1.06-1.26,1.1-1.26,1.71-2,1.84-2.14a.38.38,0,0,0,.06-.17.19.19,0,0,0-.08-.12Z" style="fill:#b4dced"/><path d="M75.5,65.79a4.59,4.59,0,0,1,.44.57l.36.54a4.07,4.07,0,0,1,1.26-2.24,8.28,8.28,0,0,1,1.18-1A3.58,3.58,0,0,1,80.53,63a1.35,1.35,0,0,1,1,.18,6,6,0,0,0,.24-.6,3.82,3.82,0,0,1,.51-1,5.17,5.17,0,0,1,1.28-1.17,8.22,8.22,0,0,1,1.76-1,3.18,3.18,0,0,1,1.5-.18c.29,0,.67.32,1.13.85a22.29,22.29,0,0,1,1.65,2.24c.37.55.92,1.41,1.67,2.6s1.26,2,1.59,2.47.6.88,1,1.43a10.8,10.8,0,0,1-1.79,1.31c-.28-.36-.77-1.06-1.45-2.09s-1.27-2-1.67-2.6l-.6-.89c-.09-.11-.25-.31-.46-.6s-.46-.59-.74-.92a2.12,2.12,0,0,0-.81-.64c-.27-.23-.67-.21-1.17.07a3.85,3.85,0,0,0-.66.38,3.22,3.22,0,0,0-1,.92,1.53,1.53,0,0,0-.23,1.07c.18.33.33.59.46.78l.42.58.53.79c.32.49.8,1.24,1.44,2.26l1.4,2.15c.35.53.61.91.78,1.13a10.53,10.53,0,0,1-1.19.88l-.68.45a18.12,18.12,0,0,1-1-1.49l-.76-1.13-1-1.6c-.66-1-1.27-1.84-1.83-2.56a2.23,2.23,0,0,0-1.13-1,1.78,1.78,0,0,0-1.35.42q-2.3,1.53-.77,4.2c.12.22.33.54.6.95s.75,1.09,1.33,1.9l.72,1c.39.59.77,1.21,1.15,1.87l.06.08a3.37,3.37,0,0,1-.57.47l-.73.46a5,5,0,0,0-.51.37l-2.47-3.67c-1.15-1.66-2-2.92-2.57-3.76-.46-.69-1.17-1.78-2.13-3.28l.7-.41.47-.34.26-.21.34-.25C75.39,65.77,75.47,65.75,75.5,65.79Z" style="fill:#b4dced"/><path d="M99.09,72.53l.09.27s-.09.1-.3.19a6,6,0,0,1-.7.28,8.64,8.64,0,0,1-1.09.27l-.54-1.61q-.75-2.3-2.32-6.71l-.91-2.61c-.36-1-.75-2.2-1.18-3.5s-.69-2.1-.86-2.7l1.6-.55a6.23,6.23,0,0,1,.73-.21s0,.07.1.19.1.25.14.38a1.65,1.65,0,0,0,.09.21c0,.08.06.2.1.35s.08.1.12.08.07-.1.1-.24a2.54,2.54,0,0,1,.95-1.2,5.33,5.33,0,0,1,1.48-.76,4.61,4.61,0,0,1,.55-.16,4.12,4.12,0,0,1,3,.19,4.88,4.88,0,0,1,2,2,20.88,20.88,0,0,1,1.5,3.38,10.49,10.49,0,0,1,.58,3.39,2.71,2.71,0,0,1-1,2.23,5.58,5.58,0,0,1-1.38.81c-.18.08-.46.18-.86.31a14,14,0,0,1-2.37.57c-.75.1-1.18.06-1.27-.13l1,3c.12.36.24.8.38,1.34Zm.11-7.24a12.44,12.44,0,0,0,1.74-.69,2.18,2.18,0,0,0,.87-.86,3.14,3.14,0,0,0,.28-1.54,9.56,9.56,0,0,0-.39-1.85,7.94,7.94,0,0,0-1.82-3.14,2.64,2.64,0,0,0-3.13-.38,2.89,2.89,0,0,0-1.54,1.23A2.68,2.68,0,0,0,95,59.74a16,16,0,0,0,.68,2.59,15.44,15.44,0,0,0,1,2.44,1.38,1.38,0,0,0,.93.78A3.58,3.58,0,0,0,99.2,65.29Z" style="fill:#b4dced"/><path d="M107.86,58.42l0,.46,0,.74c.23,2.12,1.39,3.07,3.5,2.85a2.69,2.69,0,0,0,1.82-.77,2.07,2.07,0,0,0,.45-1.64c0-.1,0-.29-.11-.56a6.85,6.85,0,0,1,1-.18,6.13,6.13,0,0,1,.63,0l.38,0a2.49,2.49,0,0,0,.5-.06,14.22,14.22,0,0,1,.14,2.34,4.53,4.53,0,0,1-.45,1.73,2.68,2.68,0,0,1-1.52,1.15,10.31,10.31,0,0,1-2.5.56c-.42,0-.8.06-1.16.07a3,3,0,0,1-.67,0,3.8,3.8,0,0,1-3.2-2.21,11.76,11.76,0,0,1-1.3-4.92c0-.14,0-.43,0-.87s0-.89,0-1.36a6.68,6.68,0,0,1,.21-1.39,3.49,3.49,0,0,1,1.61-1.93,6.7,6.7,0,0,1,2.82-.91,8,8,0,0,1,1.76,0q3.59.23,4.08,4.88,0,.39.06,1.11a18.83,18.83,0,0,1-2.88.56l-1.24.15c-1.37.14-2.38.23-3.05.27A4.57,4.57,0,0,1,107.86,58.42Zm6.1-2.58a3.91,3.91,0,0,0-.56-1.52,3.06,3.06,0,0,0-1.2-1.09,3.53,3.53,0,0,0-.7-.16,5,5,0,0,0-.74,0,3.35,3.35,0,0,0-2.32.94,3.28,3.28,0,0,0-.69,2.06,2.07,2.07,0,0,0,0,.42.4.4,0,0,0,.34.38,5.4,5.4,0,0,0,1.29,0c.64-.06,1.19-.13,1.64-.19,1.66-.17,2.59-.28,2.8-.32a.34.34,0,0,0,.16-.08.22.22,0,0,0,0-.15Z" style="fill:#b4dced"/><path d="M121.38,51.64c0,.2,0,.36,0,.47a3,3,0,0,1,0,.4,4.27,4.27,0,0,1,.53-.19l.73-.2a7.37,7.37,0,0,1,1.47-.18q.85,0,1.53,0c.42,0,.62.07.62.1L126,54.2c0,.34,0,.6,0,.77a8,8,0,0,0-.86-.35,5.81,5.81,0,0,0-1.24-.23,6.93,6.93,0,0,0-1.6.08,1.68,1.68,0,0,0-1,.46,2.45,2.45,0,0,0-.34,1.34c-.12,2.35-.29,5-.53,8v.1a4.67,4.67,0,0,1-.92,0l-.58-.06a7.37,7.37,0,0,0-.82,0l.32-4.42c.13-2,.23-3.53.31-4.54.07-.82.19-2.12.37-3.9a3.2,3.2,0,0,0,.56.06l.53,0c.21,0,.49,0,.83,0S121.38,51.6,121.38,51.64Z" style="fill:#b4dced"/><path d="M138.11,54.67a14.7,14.7,0,0,1,1.47.47l.64.23c0,.27-.08.48-.11.61l-.07.25c-.13.37-.29.94-.51,1.7s-.41,1.56-.72,2.79l-.76,2.78c-.33,1.19-.67,2.26-1,3.22,0,0-.05.16-.1.32a1.54,1.54,0,0,1-.17.43.35.35,0,0,1-.35.17l-.42-.12-.8-.25a1.75,1.75,0,0,0-.36-.07l-.28,0c-.16-.1-.19-.31-.1-.62a1.71,1.71,0,0,1,.14-.44,3.09,3.09,0,0,0,.15-.41,3.27,3.27,0,0,1-2.22.58,12.54,12.54,0,0,1-2.65-.42,2.67,2.67,0,0,1-1.75-1.63,7.21,7.21,0,0,1-.52-2.94,12.49,12.49,0,0,1,.44-3.11,7.74,7.74,0,0,1,1.36-2.74,5.2,5.2,0,0,1,2.1-1.62,3.69,3.69,0,0,1,2.36-.18l.82.2a5.88,5.88,0,0,1,1.79.79,2,2,0,0,1,.83,1.26,3.73,3.73,0,0,1,.21-.56,5.31,5.31,0,0,0,.24-.68S137.9,54.61,138.11,54.67Zm-3.43,1.45a3.55,3.55,0,0,0-2.39,0,2.81,2.81,0,0,0-1.54,1.31,7.75,7.75,0,0,0-.75,1.88c-.66,2.68.08,4.26,2.2,4.73a3.18,3.18,0,0,0,2,.07,2,2,0,0,0,1.07-1.06,16.6,16.6,0,0,0,.82-2.41,14.38,14.38,0,0,0,.55-2.56,1.43,1.43,0,0,0-.35-1.18A4.35,4.35,0,0,0,134.68,56.12Z" style="fill:#b4dced"/><path d="M150.35,54.84l-1.81,3.49-.64,1.3q1.53.73,3.81,1.77a1.38,1.38,0,0,1-.21.76l-.3.51a4.89,4.89,0,0,0-.4.72c-1.68-.87-2.94-1.53-3.76-2l-1.82,3.49-.4.78c-.36.68-.59,1.18-.71,1.48a3,3,0,0,0-.21.85,2.43,2.43,0,0,0,1.2,1.35,15,15,0,0,0,2,1.13c-.23.65-.4,1.06-.48,1.23a3.67,3.67,0,0,1-.55.76c-.33-.15-.84-.41-1.54-.77a8.51,8.51,0,0,1-2.6-1.9,2.51,2.51,0,0,1-.39-2.41,59.24,59.24,0,0,1,2.74-5.91l.57-1.1a6,6,0,0,1-.71-.33l-1.75-.94,1-1.84c.33.21,1.13.65,2.41,1.31l1.22-2.41.56-1.07c.33-.64.58-1.08.74-1.33a9.23,9.23,0,0,1,1,.54l.61.35A2,2,0,0,0,150.35,54.84Z" style="fill:#b4dced"/><path d="M152.91,77.81c.19-.27.35-.48.49-.65s.24-.32.32-.45l-.5,0a3.5,3.5,0,0,1-1.19-.39,8.85,8.85,0,0,1-2.63-1.43A3.43,3.43,0,0,1,148,72.72a1.93,1.93,0,0,1,.39-1.35c.33-.52.91-1.31,1.73-2.36l.5-.62c.34-.41.84-1,1.51-1.79s1.32-1.51,1.9-2.23c.28-.35.61-.79,1-1.32.26.17.6.42,1,.76l.67.54a15.84,15.84,0,0,1-1.08,1.47l-1.33,1.61c-.43.53-.73.93-.91,1.18l-.44.58c-.38.48-.82,1-1.29,1.73a2.46,2.46,0,0,0-.53,1.22,1.48,1.48,0,0,0,.33,1,6.06,6.06,0,0,0,.7.66,3.13,3.13,0,0,0,2.35.84,3.07,3.07,0,0,0,2.07-1.21c.4-.47,1.08-1.36,2-2.67.49-.66.82-1.1,1-1.3.29-.36.72-.86,1.28-1.51l.07-.08a5.14,5.14,0,0,1,.7.4l.37.27q.42.34.75.57L160,72.6q-1.86,2.4-2.82,3.58c-.51.64-1.34,1.64-2.49,3a12.32,12.32,0,0,0-1-.74,2.43,2.43,0,0,0-.27-.19,1.85,1.85,0,0,1-.34-.23C152.93,77.92,152.88,77.85,152.91,77.81Z" style="fill:#b4dced"/><path d="M167.11,74.08l-.35.32-.3.26a5.15,5.15,0,0,1,.51.24c.21.11.42.24.66.38a6.63,6.63,0,0,1,1.16.92c.41.39.76.76,1.06,1.1s.39.49.36.51l-1.64,1.36c-.26.23-.46.4-.57.52a8,8,0,0,0-.36-.86,5.77,5.77,0,0,0-.71-1,7.59,7.59,0,0,0-1.19-1.09,1.65,1.65,0,0,0-1.05-.4,2.33,2.33,0,0,0-1.2.7q-2.61,2.35-6,5.25l-.08.07a4,4,0,0,1-.67-.63l-.37-.45a8,8,0,0,0-.54-.62l3.36-2.89c1.52-1.33,2.67-2.33,3.44-3s1.63-1.36,3-2.49a4.37,4.37,0,0,0,.36.44l.35.4a6.51,6.51,0,0,1,.56.62C167.06,73.94,167.14,74.06,167.11,74.08Z" style="fill:#b4dced"/><path d="M168,85.67l-.41.22-.66.35q-2.78,1.56-1.22,4.34a2.69,2.69,0,0,0,1.44,1.36,2.06,2.06,0,0,0,1.68-.24l.46-.32a6.25,6.25,0,0,1,.57.84,4.72,4.72,0,0,1,.28.56,3.36,3.36,0,0,1,.18.34,3.12,3.12,0,0,0,.26.44,15,15,0,0,1-2.09,1,4.33,4.33,0,0,1-1.77.28A2.69,2.69,0,0,1,165.1,94a10.24,10.24,0,0,1-1.51-2.07c-.2-.36-.38-.71-.52-1a4.21,4.21,0,0,1,.52-4.45,11.59,11.59,0,0,1,4-3.15l.79-.35c.4-.19.81-.37,1.25-.54A5.15,5.15,0,0,1,171,82a3.44,3.44,0,0,1,2.41.71,6.63,6.63,0,0,1,2,2.22,7.43,7.43,0,0,1,.67,1.62q1.23,3.39-2.85,5.68c-.22.13-.55.29-1,.5a18.09,18.09,0,0,1-1.66-2.42q-.17-.24-.63-1.08c-.68-1.2-1.16-2.09-1.46-2.68A4.25,4.25,0,0,1,168,85.67Zm4.79,4.57A3.88,3.88,0,0,0,174,89.12a2.87,2.87,0,0,0,.52-1.54,2.92,2.92,0,0,0-.13-.7,5.23,5.23,0,0,0-.31-.66,3.39,3.39,0,0,0-1.79-1.76,3.33,3.33,0,0,0-2.17.18,3.43,3.43,0,0,0-.39.16.4.4,0,0,0-.21.46,5,5,0,0,0,.55,1.18c.31.56.59,1,.83,1.42.81,1.45,1.28,2.27,1.4,2.44a.41.41,0,0,0,.14.12.17.17,0,0,0,.14,0Z" style="fill:#b4dced"/></g><circle id="Pointer_Dial" data-name="Pointer Dial" cx="117.1" cy="117" r="15.01" style="fill:#b4dced"/></g></svg>