<svg id="Label_Oil_A" data-name="Label Oil A" xmlns="http://www.w3.org/2000/svg" xmlns:xlink="http://www.w3.org/1999/xlink" viewBox="0 0 285 141"><defs><linearGradient id="linear-gradient" x1="24.74" y1="69.41" x2="67.76" y2="69.41" gradientUnits="userSpaceOnUse"><stop offset="0" stop-color="#9e9600"/><stop offset="0.42" stop-color="#fff" stop-opacity="0"/><stop offset="1" stop-color="#9e9600"/></linearGradient><linearGradient id="linear-gradient-2" x1="30.1" y1="70.22" x2="62.69" y2="70.22" gradientUnits="userSpaceOnUse"><stop offset="0.12" stop-color="#fff" stop-opacity="0.7"/><stop offset="0.5" stop-color="#fff" stop-opacity="0"/><stop offset="0.54" stop-color="#fff" stop-opacity="0.04"/><stop offset="0.6" stop-color="#fff" stop-opacity="0.16"/><stop offset="0.69" stop-color="#fff" stop-opacity="0.34"/><stop offset="0.75" stop-color="#fff" stop-opacity="0.5"/><stop offset="0.8" stop-color="#f8f8f8" stop-opacity="0.49"/><stop offset="0.85" stop-color="#e2e2e2" stop-opacity="0.45"/><stop offset="0.89" stop-color="#bfbfbf" stop-opacity="0.39"/><stop offset="0.95" stop-color="#8e8e8e" stop-opacity="0.31"/><stop offset="1" stop-color="#4f4f4f" stop-opacity="0.2"/><stop offset="1" stop-color="#4d4d4d" stop-opacity="0.2"/></linearGradient><linearGradient id="linear-gradient-3" x1="47.84" y1="105.66" x2="65.18" y2="105.66" gradientUnits="userSpaceOnUse"><stop offset="0" stop-color="#fff" stop-opacity="0"/><stop offset="0.77" stop-color="#fff"/><stop offset="1" stop-color="#fff" stop-opacity="0"/></linearGradient><linearGradient id="linear-gradient-4" x1="45.87" y1="29.14" x2="65.38" y2="29.14" xlink:href="#linear-gradient-3"/><linearGradient id="linear-gradient-5" x1="47.38" y1="54.09" x2="62.87" y2="54.09" xlink:href="#linear-gradient-3"/><linearGradient id="linear-gradient-6" x1="46.44" y1="88.97" x2="62.75" y2="88.97" xlink:href="#linear-gradient-3"/><linearGradient id="linear-gradient-7" x1="54.09" y1="99.97" x2="104" y2="99.97" gradientUnits="userSpaceOnUse"><stop offset="0" stop-color="#8dcae4"/><stop offset="0.51" stop-color="#8dcae4" stop-opacity="0"/><stop offset="1" stop-color="#8dcae4"/></linearGradient><radialGradient id="radial-gradient" cx="249.07" cy="1027.76" r="21.45" gradientTransform="translate(-112.85 31.6) scale(0.77 0.09)" gradientUnits="userSpaceOnUse"><stop offset="0" stop-color="#a38507" stop-opacity="0.4"/><stop offset="1" stop-color="#a38507"/></radialGradient><linearGradient id="linear-gradient-8" x1="87.12" y1="75.56" x2="93.58" y2="75.22" gradientUnits="userSpaceOnUse"><stop offset="0" stop-color="#fff" stop-opacity="0"/><stop offset="0.14" stop-color="#fff" stop-opacity="0.15"/><stop offset="0.38" stop-color="#fff" stop-opacity="0.39"/><stop offset="0.56" stop-color="#fff" stop-opacity="0.54"/><stop offset="0.66" stop-color="#fff" stop-opacity="0.6"/><stop offset="0.71" stop-color="#fff" stop-opacity="0.54"/><stop offset="0.8" stop-color="#fff" stop-opacity="0.39"/><stop offset="0.93" stop-color="#fff" stop-opacity="0.15"/><stop offset="1" stop-color="#fff" stop-opacity="0"/></linearGradient><linearGradient id="linear-gradient-9" x1="85.36" y1="101.14" x2="94.71" y2="100.65" xlink:href="#linear-gradient-8"/><radialGradient id="radial-gradient-2" cx="78.77" cy="118" r="13.11" gradientTransform="translate(0 104.07) scale(1 0.12)" gradientUnits="userSpaceOnUse"><stop offset="0" stop-opacity="0.4"/><stop offset="1" stop-color="#a38507"/></radialGradient><linearGradient id="linear-gradient-10" x1="78.1" y1="99.7" x2="79.52" y2="107.73" gradientUnits="userSpaceOnUse"><stop offset="0" stop-color="#a38507"/><stop offset="0.07" stop-color="#b2920b" stop-opacity="0.84"/><stop offset="0.28" stop-color="#dbb617" stop-opacity="0.39"/><stop offset="0.43" stop-color="#f5cc1f" stop-opacity="0.11"/><stop offset="0.5" stop-color="#ffd522" stop-opacity="0"/><stop offset="0.57" stop-color="#f6cd1f" stop-opacity="0.1"/><stop offset="0.71" stop-color="#deb818" stop-opacity="0.36"/><stop offset="0.9" stop-color="#b8970d" stop-opacity="0.77"/><stop offset="1" stop-color="#a38507"/></linearGradient><linearGradient id="linear-gradient-11" x1="78.83" y1="100.94" x2="78.83" y2="106.49" gradientUnits="userSpaceOnUse"><stop offset="0" stop-color="#a38507" stop-opacity="0"/><stop offset="0.1" stop-color="#a38507" stop-opacity="0.22"/><stop offset="0.23" stop-color="#a38507" stop-opacity="0.46"/><stop offset="0.37" stop-color="#a38507" stop-opacity="0.65"/><stop offset="0.51" stop-color="#a38507" stop-opacity="0.81"/><stop offset="0.66" stop-color="#a38507" stop-opacity="0.91"/><stop offset="0.82" stop-color="#a38507" stop-opacity="0.98"/><stop offset="1" stop-color="#a38507"/></linearGradient><linearGradient id="linear-gradient-12" x1="-988.34" y1="103.05" x2="-1000.72" y2="103.05" gradientTransform="matrix(-1, 0, 0, 1, -900, 0)" gradientUnits="userSpaceOnUse"><stop offset="0" stop-color="#fff" stop-opacity="0"/><stop offset="1" stop-color="#fff"/></linearGradient><linearGradient id="linear-gradient-13" x1="69.78" y1="102.97" x2="57.83" y2="102.97" gradientTransform="matrix(1, 0, 0, 1, 0, 0)" xlink:href="#linear-gradient-12"/><linearGradient id="linear-gradient-14" x1="59.2" y1="116.06" x2="98.5" y2="116.06" gradientUnits="userSpaceOnUse"><stop offset="0" stop-color="#9e9600"/><stop offset="0.42" stop-color="#ffd522" stop-opacity="0"/><stop offset="1" stop-color="#9e9600"/></linearGradient><linearGradient id="linear-gradient-15" x1="55.04" y1="75.72" x2="102.65" y2="75.72" gradientUnits="userSpaceOnUse"><stop offset="0" stop-color="#fff" stop-opacity="0.8"/><stop offset="0.4" stop-color="#fff" stop-opacity="0.35"/><stop offset="1" stop-color="#fff"/></linearGradient><linearGradient id="linear-gradient-16" x1="66.7" y1="125.37" x2="75.37" y2="125.21" gradientUnits="userSpaceOnUse"><stop offset="0.08" stop-color="#fff" stop-opacity="0"/><stop offset="0.15" stop-color="#fff" stop-opacity="0.21"/><stop offset="0.27" stop-color="#fff" stop-opacity="0.54"/><stop offset="0.37" stop-color="#fff" stop-opacity="0.79"/><stop offset="0.45" stop-color="#fff" stop-opacity="0.94"/><stop offset="0.48" stop-color="#fff"/><stop offset="0.52" stop-color="#fff" stop-opacity="0.94"/><stop offset="0.6" stop-color="#fff" stop-opacity="0.79"/><stop offset="0.7" stop-color="#fff" stop-opacity="0.54"/><stop offset="0.82" stop-color="#fff" stop-opacity="0.21"/><stop offset="0.89" stop-color="#fff" stop-opacity="0"/></linearGradient><linearGradient id="linear-gradient-17" x1="62.57" y1="101.99" x2="73.76" y2="101.2" xlink:href="#linear-gradient-16"/><linearGradient id="linear-gradient-18" x1="60.71" y1="76.36" x2="70.04" y2="79.39" xlink:href="#linear-gradient-16"/><linearGradient id="linear-gradient-19" x1="59.58" y1="78.11" x2="73.81" y2="78.11" gradientUnits="userSpaceOnUse"><stop offset="0" stop-color="#fff" stop-opacity="0"/><stop offset="0.09" stop-color="#fff" stop-opacity="0.21"/><stop offset="0.23" stop-color="#fff" stop-opacity="0.54"/><stop offset="0.35" stop-color="#fff" stop-opacity="0.79"/><stop offset="0.44" stop-color="#fff" stop-opacity="0.94"/><stop offset="0.48" stop-color="#fff"/><stop offset="0.53" stop-color="#fff" stop-opacity="0.94"/><stop offset="0.62" stop-color="#fff" stop-opacity="0.79"/><stop offset="0.75" stop-color="#fff" stop-opacity="0.54"/><stop offset="0.91" stop-color="#fff" stop-opacity="0.21"/><stop offset="1" stop-color="#fff" stop-opacity="0"/></linearGradient><linearGradient id="linear-gradient-20" x1="86.12" y1="71.54" x2="95.23" y2="74.5" xlink:href="#linear-gradient-16"/></defs><title>one-view-label-a-oil</title><g id="Label_Oil_A-2" data-name="Label Oil A"><circle id="Backdrop" cx="62.54" cy="78.52" r="62.18" style="fill:#8dcae4"/><path id="Label_Back" data-name="Label Back" d="M93.18,56.52a222.14,222.14,0,0,1,53.19-10.89,249,249,0,0,1,54.83,1.81l-12.64,55.28a197.16,197.16,0,0,0-42.37-9.64,178.85,178.85,0,0,0-44,.56Z" style="fill:#ebd900"/><g id="Label"><path d="M125.34,57.88q3.47,15.23,5.49,24.64v0a7.48,7.48,0,0,1-1.5.14,9.34,9.34,0,0,1-1.61-.21h0c-.16-.46-.38-1.27-.66-2.41-.35-1.38-.67-2.51-1-3.4-1.07,0-2.48-.07-4.23-.07h-1.47s-.08.51-.25,1.44c-.21,1.28-.41,2.34-.59,3.17s-.4,1.26-.63,1.31a1.23,1.23,0,0,1-.35,0l-.93,0c-.46,0-1,0-1.56,0h-.38v0a11.19,11.19,0,0,0,.31-1.85q.89-5.53,2.05-11.22a91.92,91.92,0,0,1,3.13-11.36,4.17,4.17,0,0,1,.56,0h.77C123.41,58,124.36,58,125.34,57.88Zm-3.19,16q2.25,0,4,0c-1.3-7.35-2.09-11.15-2.34-11.41a1.78,1.78,0,0,0-.53-.11c-.28,0-.51.23-.7.69a23.19,23.19,0,0,0-.77,3.06c-.32,1.59-.71,3.59-1.15,6l-.32,1.75h.7C121.5,73.84,121.87,73.85,122.15,73.87Z" style="fill:#fff"/><path d="M136.36,70.79l-2.69,0h-.11a10.21,10.21,0,0,1-.1-1.61l0-1.72a5.25,5.25,0,0,0,0-.73,4.8,4.8,0,0,1,1.68-.25,4.16,4.16,0,0,1,1.43.18c0,.12,0,.75-.1,1.89s-.11,1.88-.11,2.2v.07Zm0,11.76-2.66,0h-.11a10.21,10.21,0,0,1-.1-1.61l0-1.72a5.25,5.25,0,0,0,0-.73,4.8,4.8,0,0,1,1.68-.25,3.89,3.89,0,0,1,1.4.18c0,.12,0,.75-.11,1.89s-.1,1.88-.1,2.2v.07Z" style="fill:#fff"/><path d="M150.75,59.07a10.74,10.74,0,0,1,4.76-1,9.45,9.45,0,0,1,4.25.93,4.88,4.88,0,0,1,2.54,2.85,9.92,9.92,0,0,1,.66,4q0,1.13,0,1.65c-.05.82-.07,2-.07,3.6,0,.4,0,.9,0,1.49s0,1.29-.09,2.08l-.1,1.16a10.7,10.7,0,0,1-1.33,4.72,5.43,5.43,0,0,1-2.72,1.89,11.37,11.37,0,0,1-3.79.63c-.49,0-.86,0-1.09,0a6,6,0,0,1-4-1.63q-1.37-1.41-1.44-4.71l-.1-2.2c0-.47-.06-1.28-.11-2.43s-.07-2.21-.07-3.17,0-2.14.11-3.19a13.39,13.39,0,0,1,.63-4A4.41,4.41,0,0,1,150.75,59.07Zm9.17,11.34,0-2.8q-.13-2.39-.24-3.24a4.47,4.47,0,0,0-1-2.05,4.34,4.34,0,0,0-6.85,1.16,18.14,18.14,0,0,0-1.06,7.14c0,2,0,3.48.12,4.57a9.19,9.19,0,0,0,.51,2.62,3.19,3.19,0,0,0,1.19,1.56,4.11,4.11,0,0,0,2.41.59,5.28,5.28,0,0,0,3.61-1,4.16,4.16,0,0,0,1.22-3c0-.7,0-1.52.07-2.48s.08-1.58.11-1.86Z" style="fill:#fff"/><path d="M166.81,64.88a7.5,7.5,0,0,1,1,0c.7.05,1.47.07,2.31.07v.1c0,1,0,2.68-.07,4.87s-.1,4.5-.1,6.79,0,4.06.14,5.74a7.72,7.72,0,0,1-1.47.1h-1.19a4.81,4.81,0,0,0-.77,0c0-.68,0-1.7,0-3.08V73.42c0-1.63-.07-2.89-.07-3.78,0-1.61.07-3.19.21-4.73Zm-.14-7.53c1.45,0,2.54.07,3.29.07l.11,4.62a3.09,3.09,0,0,1-1.26.18,5.79,5.79,0,0,1-.84,0h-.49a5.14,5.14,0,0,0-.67,0c0-.35,0-.92-.07-1.71C166.67,58.93,166.65,57.89,166.67,57.35Z" style="fill:#fff"/><path d="M174.68,57.11l3.19.1q0,1.44-.07,7.11-.08,7-.07,11,0,4.41.11,7c-.14.17-.53.25-1.16.25l-1.08,0c-.21,0-.47,0-.77,0a1.14,1.14,0,0,0-.35,0c.14-1.89.2-3.79.2-5.7q0-2.17-.13-6.51c-.1-2.89-.14-5.08-.14-6.55Q174.41,60.09,174.68,57.11Z" style="fill:#fff"/></g><g id="Oil_A" data-name="Oil A"><path d="M66.17,92.28c.74,1.39,1.53,2.4,1.53,4.09,0,0,0,14.46-.11,16-.17,3.29-9.86,6.37-21.14,6.37s-21.71-2.79-21.71-6.08c0-1.63.05-15.92.05-15.92,0-1.9,1.2-4,2.05-5.62a3.19,3.19,0,0,0,.45-1.2l-.45-38.47a3.86,3.86,0,0,0-.51-1.37,7.06,7.06,0,0,1-1.2-4L26,36.41C26,29,38.33,21.79,40.71,9.93l11.76.39c2.84,11.52,14.67,19.33,14.83,26l.46,9.84a8,8,0,0,1-1.14,4.15c-.18.3-.62.77-.62,1.13L65.88,91A3.67,3.67,0,0,0,66.17,92.28Z" style="fill:#fff;opacity:0.4"/><ellipse cx="46.44" cy="115.3" rx="21.55" ry="2.99" style="fill:#a38507;stroke:#8e7300;stroke-miterlimit:10;stroke-width:1.21723983599883px"/><path d="M66.17,92.28c.74,1.39,1.53,2.4,1.53,4.09,0,0,0,14.46-.11,16-.17,3.29-9.86,6.37-21.14,6.37s-21.71-2.79-21.71-6.08c0-1.63.05-15.92.05-15.92,0-1.9,1.2-4,2.05-5.62a3.19,3.19,0,0,0,.45-1.2l-.45-38.47a3.86,3.86,0,0,0-.51-1.37,7.06,7.06,0,0,1-1.2-4L26,36.41c0-5,5.65-10,10-16.31a171.88,171.88,0,0,0,21.13.1c4.42,6.46,10,11.56,10.11,16.15l.46,9.84a8,8,0,0,1-1.14,4.15c-.18.3-.62.77-.62,1.13L65.88,91A3.67,3.67,0,0,0,66.17,92.28Z" style="fill:#ffd522;opacity:0.8"/><path d="M66.17,92.28c.74,1.39,1.53,2.4,1.53,4.09,0,0,0,14.46-.11,16-.17,3.29-9.86,6.37-21.14,6.37s-21.71-2.79-21.71-6.08c0-1.63.05-15.92.05-15.92,0-1.9,1.2-4,2.05-5.62a3.19,3.19,0,0,0,.45-1.2l-.45-38.47a3.86,3.86,0,0,0-.51-1.37,7.06,7.06,0,0,1-1.2-4L26,36.41c0-5,5.65-10,10-16.31a171.88,171.88,0,0,0,21.13.1c4.42,6.46,10,11.56,10.11,16.15l.46,9.84a8,8,0,0,1-1.14,4.15c-.18.3-.62.77-.62,1.13L65.88,91A3.67,3.67,0,0,0,66.17,92.28Z" style="opacity:0.5;fill:url(#linear-gradient)"/><path d="M36.32,19.76A70.34,70.34,0,0,0,57,19.85" style="fill:none;stroke:#bca43f;stroke-miterlimit:10;stroke-width:0.694673289239525px"/><path d="M69.39,96.7a10.37,10.37,0,0,0-1-4.42A4,4,0,0,1,68,90.57l-.46-38.75a6.06,6.06,0,0,1,.92-2.15,8.3,8.3,0,0,0,.9-3.75L68.82,37c0-8.1-12.56-16-15.77-27.54L39.93,9.3C37.25,21.16,24.25,29.16,24.25,36.61l-.87,9.31A8.27,8.27,0,0,0,24.47,50a4.41,4.41,0,0,1,.6,2.15V89.89a4.08,4.08,0,0,1-.49,1.94,10.46,10.46,0,0,0-1.2,4.86V114.3c0,3.29,10.25,6,23,6s23-2.67,23-6Zm-4.33-4.29a9.24,9.24,0,0,1,1.48,4.45s-.34,13.22-.41,14.73c-.17,3.28-8.42,5.69-19.7,5.69S26,115.41,26,112.12c0-1.63.07-15.43.07-15.43a12.08,12.08,0,0,1,1.63-5.46,2.18,2.18,0,0,0,.25-1L27.6,51.51a2.16,2.16,0,0,0-.3-1,9,9,0,0,1-1.2-4.54l.77-9.31c0-7.45,12.18-14.58,14.56-26.44l10.3.11c2.83,11.52,14.16,20.09,14.33,26.8l.75,8.84c0,1.49-1,3-1.69,4.2a1.94,1.94,0,0,0-.28,1l0,39.8A4.54,4.54,0,0,0,65.06,92.41Z" style="fill:#8e7300"/><path d="M46.37,85a96.36,96.36,0,0,1-13.64-1A2.16,2.16,0,0,1,30.79,82V60.41a2.07,2.07,0,0,1,1.91-2.08,17.08,17.08,0,0,0,5.23-1.28,21.5,21.5,0,0,1,8.34-1.6A22.5,22.5,0,0,1,54.33,57,20.4,20.4,0,0,0,60,58.3a2.12,2.12,0,0,1,2,2.08V81.94A2.17,2.17,0,0,1,60,84,96.58,96.58,0,0,1,46.37,85Z" style="fill:#a5ce4a"/><path d="M46.27,56.14a22,22,0,0,1,7.84,1.49A21.22,21.22,0,0,0,60,59a1.41,1.41,0,0,1,1.33,1.39V81.94a1.47,1.47,0,0,1-1.36,1.39,95.19,95.19,0,0,1-13.57,1,96.45,96.45,0,0,1-13.54-1A1.45,1.45,0,0,1,31.48,82V60.41A1.37,1.37,0,0,1,32.75,59a18.57,18.57,0,0,0,5.41-1.32,21,21,0,0,1,8.11-1.57m0-1.39c-7,0-9,2.6-13.61,2.89a2.76,2.76,0,0,0-2.56,2.77V82a2.85,2.85,0,0,0,2.54,2.77,97.85,97.85,0,0,0,13.73,1,97.68,97.68,0,0,0,13.77-1,2.86,2.86,0,0,0,2.55-2.77V60.38a2.8,2.8,0,0,0-2.63-2.77c-4.89-.32-7.22-2.86-13.79-2.86Z" style="fill:#f2f1eb"/><path d="M62.69,73.7V66c-3.44.89-7.9.41-12.72-2.63-6-3.78-14.91-1.26-19.87,1.32v7c4.16-1.82,7.65-.48,10.6,2.15C47.6,80,57.17,76.77,62.69,73.7Z" style="fill:#89a835"/><g style="opacity:0.6000000000000001"><path d="M60.14,84.71a96.7,96.7,0,0,1-27.5,0A2.85,2.85,0,0,1,30.1,82V60.41a2.76,2.76,0,0,1,2.56-2.77c4.61-.29,6.58-2.89,13.61-2.89,6.57,0,8.9,2.54,13.79,2.86a2.8,2.8,0,0,1,2.63,2.77V81.94A2.86,2.86,0,0,1,60.14,84.71Z" style="fill:url(#linear-gradient-2)"/></g><path d="M42.8,11.27C40.33,22.42,30.56,29.8,29.14,35.77c-.81,3.39-1.12,9.95-.33,10.35s2.65.84,5.81.84c.91,0-1-8.47.58-11.85,3.46-7.56,7-15,8.54-23.69C43.87,10.67,42.92,10.71,42.8,11.27Z" style="fill:#fff;opacity:0.5"/><path d="M63.67,49.83c-1.15,1.16-33.25,1.31-34.07,0-.45-.73-1.47-2.6,0-2.25,5.07,1.23,28.89,1,34.07,0C65.39,47.24,64.82,48.66,63.67,49.83Z" style="fill:#8e7300;opacity:0.30000000000000004"/><path d="M30.13,51.73c.07.71.23,3.06.26,4.57,0,.59,5.31.2,5.45-.86s1.29-3.55.08-3.55S30,50.8,30.13,51.73Z" style="fill:#fff;opacity:0.5"/><path d="M30.94,86.9c0,1.81.41,3.7-.05,4.45s-2.51,1.72-2.51,3.82-.18,16-.07,16.79,5.82,3.59,5.52,1.34-1.23-15.41-.35-17.38A14,14,0,0,0,34.64,92a22.74,22.74,0,0,0-.26-4.81C34.29,86.63,30.94,85.69,30.94,86.9Z" style="fill:#fff;opacity:0.5"/><path d="M61.36,92.54c-5.84.94-23.53,1.33-30.21-.19-1.3-.3-3,1.63-1.55,2.12,5.61,1.94,28.22,1.6,33.51.25C64.8,94.29,63.67,92.16,61.36,92.54Z" style="fill:#8e7300;opacity:0.30000000000000004"/><path d="M64.28,95.76c2-.58,0,15.34.09,16.14.18,1.74-15.79,5.2-15.49,2.94s-2.34-18.08-.18-18C50.29,96.87,60.49,96.83,64.28,95.76Z" style="opacity:0.6000000000000001;fill:url(#linear-gradient-3)"/><path d="M50.94,11.21C53.41,22.37,63.08,29.43,64.51,35.4c.8,3.39,1.26,10.48.42,10.74-3.49,1.08-16.33,1.53-19,1.16-.89-.12,5-8.85,4.54-16C49.92,23,49.34,20.69,48,11.21,47.93,10.79,50.81,10.66,50.94,11.21Z" style="opacity:0.6000000000000001;fill:url(#linear-gradient-4)"/><path d="M62.78,51.75c.3.64-.23,3.06-.26,4.56,0,.6-5.44-.44-6.46-.78a35.34,35.34,0,0,0-7.65-1.93c-1-.07-1.3-1.64-.73-1.59C53.22,52.57,62.64,51.45,62.78,51.75Z" style="opacity:0.6000000000000001;fill:url(#linear-gradient-5)"/><path d="M62.15,85.61c1.11-.35.29,4.35.48,5.14s-12.09,2-14.69,1.44c-2.23-.48-1.84-5.08.32-5C49.85,87.22,58.51,86.75,62.15,85.61Z" style="opacity:0.6000000000000001;fill:url(#linear-gradient-6)"/><path d="M54.1,10.21a76.21,76.21,0,0,1-15.4,0,.7.7,0,0,1-.63-.72A31.73,31.73,0,0,1,38.19,6c.14-.63.58-3.58.58-3.58A1.39,1.39,0,0,1,40.07,1a103,103,0,0,1,12.79,0,1.39,1.39,0,0,1,1.31,1.36s.34,2.81.48,3.25a34.51,34.51,0,0,1,.08,3.83A.7.7,0,0,1,54.1,10.21Z" style="fill:#1e7512"/><path d="M52.78,8.34a71.6,71.6,0,0,1-13.14.2V6l.4-3.7a89.37,89.37,0,0,1,12.22.08L52.73,6Z" style="fill:#549b3d"/><path d="M47,2.18c-2-.05-4,0-6.25.11v5.5A54.62,54.62,0,0,0,47,7.87Z" style="fill:#71b252"/><path d="M44.67,2.16c-.74,0-1.49,0-2.27,0V7.88c.77,0,1.52,0,2.27,0Z" style="fill:#89c967"/><path d="M52.73,6l-.46-3.58-1-.06V7.62l1.47-.12Z" style="fill:#71b252"/><path d="M39.64,8.54a71.6,71.6,0,0,0,13.14-.2l-.05-2.28H39.65Z" style="fill:#549b3d"/><path d="M51.32,7.34l0,.95v.17l1.49-.12L52.73,6.4h-.47C51.37,6.4,51.32,6.25,51.32,7.34Z" style="fill:#71b252"/><path d="M45.61,8.75s0-.06,0-.1l-.09-1.22c0-.51-.33-.9-1.3-.9H42.89a.94.94,0,0,0-.94.94l0,1a2.35,2.35,0,0,0,0,.28C43.18,8.76,44.4,8.77,45.61,8.75Z" style="fill:#97d375"/></g><g id="Cup_A" data-name="Cup A"><path d="M103.87,75.48c-.68-1.85-2.34-3-8.29-3.76A140.17,140.17,0,0,0,79,70.86a139.44,139.44,0,0,0-16.57.86c-4.06.52-7.53,1.42-8.2,3.8-.38,1.33.19,2.37,2.26,3.2l3.41,41.33c0,.36.75.61,1.07.7l.42,4.06c.51,2.44,7.2,4.26,17.45,4.26s16.55-1.91,17.45-4.26l.5-4c.3-.1,1-.44,1.06-.85l3.79-41.17C103.51,77.93,104.34,76.76,103.87,75.48Z" style="opacity:0.8;fill:url(#linear-gradient-7)"/><path d="M94.83,124.6c0,1.1-7,3-16.06,3s-16.37-1.91-16.37-3,7.4-2.52,16.45-2.52S94.83,123.51,94.83,124.6Z" style="opacity:0.5;fill:url(#radial-gradient)"/><path d="M93.56,74.85c-2-.18-3.64-.35-6.44-.46,0,.66,0,1.45.06,2.34,2.59-.14,4.71-.34,6.42-.56C93.6,75.68,93.58,75.23,93.56,74.85Z" style="opacity:0.30000000000000004;fill:url(#linear-gradient-8)"/><path d="M87.22,79.65c.07,9.17-.14,24.77-.82,37.52-.26,4.94.14,5.46,2.93,5.28,1.26-.09,1.09-2.41,1.42-4.94,1.14-8.52,2.63-28.33,2.84-38.33C91.7,79.39,89.55,79.55,87.22,79.65Z" style="opacity:0.30000000000000004;fill:url(#linear-gradient-9)"/><path d="M60.84,119.57c0-1.58,8.94-2.58,18-2.58s17.86,1.14,17.86,2.58" style="fill:none;stroke-miterlimit:10;stroke-width:1.1149077481622px;opacity:0.35000000000000003;stroke:url(#radial-gradient-2)"/><path d="M96.87,119.54l-1.19.32c-.37.1-.42,4.87-.78,5-10.39,4.69-21.78,4.25-32.47.35-.41-.15-.23-4.89-.66-5l-1-.22L59.2,103.83c3.57-3.73,38.43-3.25,39.28.31Z" style="fill:#ffd522;opacity:0.7000000000000001"/><g style="opacity:0.9"><ellipse cx="78.81" cy="103.71" rx="18.86" ry="2.46" style="fill:url(#linear-gradient-10)"/><path d="M98,103.71a.89.89,0,0,1-.47.71,3,3,0,0,1-.59.31,8.65,8.65,0,0,1-1.19.38c-.79.21-1.59.35-2.39.48-1.61.25-3.22.42-4.83.55-3.22.24-6.45.33-9.68.33s-6.46-.11-9.68-.37c-1.61-.13-3.22-.29-4.83-.55-.8-.12-1.6-.27-2.39-.47a10.12,10.12,0,0,1-1.18-.38,4.19,4.19,0,0,1-.59-.31.89.89,0,0,1-.45-.68.87.87,0,0,1,.46-.67,2.91,2.91,0,0,1,.58-.3,7.7,7.7,0,0,1,1.18-.38c.8-.2,1.6-.35,2.4-.47,1.6-.25,3.21-.4,4.82-.53,3.22-.25,6.45-.35,9.68-.36s6.46.08,9.68.33c1.61.12,3.22.28,4.82.52.81.13,1.61.27,2.4.47a10.27,10.27,0,0,1,1.19.38,2.79,2.79,0,0,1,.59.31A.88.88,0,0,1,98,103.71Zm-.58,0a.49.49,0,0,0-.22-.23,3.57,3.57,0,0,0-.48-.25,9.58,9.58,0,0,0-1.11-.35c-.77-.2-1.55-.34-2.34-.47-1.58-.25-3.18-.41-4.78-.54-3.21-.25-6.43-.36-9.64-.37s-6.44.09-9.64.33c-1.6.13-3.2.3-4.79.54-.79.13-1.58.27-2.34.47a8.13,8.13,0,0,0-1.12.36c-.33.12-.74.4-.72.51s.39.39.72.51a7.27,7.27,0,0,0,1.12.35,23.23,23.23,0,0,0,2.35.46c1.58.25,3.18.4,4.78.53,3.2.24,6.42.33,9.64.33s6.43-.11,9.63-.37c1.6-.12,3.2-.28,4.78-.52.79-.12,1.58-.27,2.35-.46a9.58,9.58,0,0,0,1.11-.35,3.09,3.09,0,0,0,.48-.25C97.31,103.85,97.39,103.73,97.38,103.71Z" style="fill:url(#linear-gradient-11)"/></g><polygon points="88.34 127.57 95.35 125.31 100.72 78.54 90.22 79.97 88.34 127.57" style="opacity:0.4;fill:url(#linear-gradient-12)"/><path d="M95.87,125.06c-10.83,4-22,3.86-34.19-.06L57.84,78.62c14.63,2.18,28.55,2.5,42.32.18Z" style="fill:#fff;opacity:0.15"/><polygon points="69.78 127.07 61.75 125.06 57.83 78.86 67.65 80.04 69.78 127.07" style="opacity:0.4;fill:url(#linear-gradient-13)"/><path d="M96.87,119.54l-1.19.32c-.37.1-.42,4.87-.78,5-10.39,4.69-21.78,4.25-32.47.35-.41-.15-.23-4.89-.66-5l-1-.22L59.2,103.83c7.6,3.66,33.84,2.77,39.3,0Z" style="opacity:0.7000000000000001;fill:url(#linear-gradient-14)"/><path d="M58.66,75.24c15.55-3,27.5-1.54,40.55,0A117.5,117.5,0,0,1,58.66,75.24Z" style="fill:#fff;opacity:0.30000000000000004"/><path d="M102.59,75.47s-.11-.34-.12-.36c-.25-.82-1-1.84-7.18-2.63a134.62,134.62,0,0,0-16.35-.87,137.59,137.59,0,0,0-16.4.8c-6.2.79-6.81,1.85-7.1,2.66,0,0-.29.05,0,.21l0,.09c-.16-.18,0-.05,0-.05-.56-.17-.16.48-.17.57,0,1.06,2.09,2.3,7.5,3A130.32,130.32,0,0,0,79,79.83,129.89,129.89,0,0,0,95.11,79C100.91,78.22,103,76.59,102.59,75.47ZM79,73.56c11.23,0,18.22.56,20.74,1.45-.54.1-1,.24,0,.09-1,.15-6.43,1.85-20.77,1.85-13.08,0-19.54-1.51-20.72-1.88.81.26,0,0,0,0C60.69,74.17,67.55,73.56,79,73.56Z" style="opacity:0.5;fill:url(#linear-gradient-15)"/><path d="M57.59,75v0c.88.87,8.29,2.15,21.37,2.15,14.34,0,20.43-1.44,21.14-2.14,0,0,0,0,0-.06-2.51-.89-9.94-1.83-21.17-1.83C67.56,73.15,60.05,74.12,57.59,75ZM79,76.63a114.66,114.66,0,0,1-18.68-1.21A114.66,114.66,0,0,1,79,74.21,115.21,115.21,0,0,1,97.7,75.42,115.21,115.21,0,0,1,79,76.63Z" style="fill:#4e8b9b"/><path d="M103.87,75.48c-.68-1.85-2.34-3-8.29-3.76A140.17,140.17,0,0,0,79,70.86a139.44,139.44,0,0,0-16.57.86c-4.06.52-7.53,1.42-8.2,3.8-.38,1.33.19,2.37,2.26,3.2l3.41,41.33c0,.36.75.61,1.07.7l.42,4.06c.51,2.44,7.2,4.26,17.45,4.26s16.55-1.91,17.45-4.26l.5-4c.3-.1,1-.44,1.06-.85l3.79-41.17C103.51,77.93,104.34,76.76,103.87,75.48Zm-10,48.43c-2.4,2.34-8.21,3.16-13.43,3.16-4.45,0-13.32-.26-17-2.73-.57-.38-.57-2-.68-3.29a76.16,76.16,0,0,0,17.71,2,59,59,0,0,0,14-2C94.27,122.22,94.25,123.57,93.89,123.91Zm1.27-4.51c-1.45,1-6.55,2.63-16.43,2.63s-15-1.32-16.49-2.29c-1.07-.72-3-30.6-3.43-40.33,1,.22,2.1.42,3.42.6a122.47,122.47,0,0,0,16.42,1.18,148.29,148.29,0,0,0,17-.8,27.25,27.25,0,0,0,3.23-.59C98.51,91.36,96.24,118.69,95.16,119.4Zm-.07-40.84A129.75,129.75,0,0,1,79,79.41a132.26,132.26,0,0,1-16.23-.85c-5.41-.71-7.23-1.72-7.26-2.77a2.86,2.86,0,0,1,.06-.37h0c.29-.81.84-1.85,7-2.65A138.54,138.54,0,0,1,79,71.93a137.2,137.2,0,0,1,16.33.84c6.13.8,6.64,1.78,6.89,2.6a.49.49,0,0,0,0,.07C102.66,76.57,100.89,77.78,95.09,78.56Z" style="fill:#4e8b9b"/><path d="M75.17,123.33a57.85,57.85,0,0,1-8.51-1,25.87,25.87,0,0,0,.31,4.73,37.32,37.32,0,0,0,8.45,1.09C75.43,127.46,75.29,126.26,75.17,123.33Z" style="opacity:0.6000000000000001;fill:url(#linear-gradient-16)"/><path d="M73,120.15c-1.31-15.63-1.19-31.76-.63-38.56a87,87,0,0,1-10.77-1c0,9.76,1.14,30.08,3.3,38.81a14.53,14.53,0,0,0,.77,2.31,74.75,74.75,0,0,0,7.46,1C73.15,122,73.1,121.15,73,120.15Z" style="opacity:0.6000000000000001;fill:url(#linear-gradient-17)"/><path d="M69.42,80c.3-1.45.31-2.1,1.4-3-3.23-.16-6.5-.46-9.48-.9-1.29,1.18-.93,1.39-1,2.77A57.51,57.51,0,0,0,69.42,80Z" style="opacity:0.6000000000000001;fill:url(#linear-gradient-18)"/><path d="M59.69,77.49A89.35,89.35,0,0,0,73.8,78.72" style="fill:none;stroke-miterlimit:10;stroke-width:1.1149077481622px;opacity:0.5;stroke:url(#linear-gradient-19)"/><path d="M94.76,74.59A2.73,2.73,0,0,1,96,72.24c-3.23-.39-6.18-.65-9.39-.75a2.63,2.63,0,0,0-.94,2.38C87.88,74,92,74.23,94.76,74.59Z" style="opacity:0.4;fill:url(#linear-gradient-20)"/></g></g></svg>