<svg id="Label_Blank" data-name="Label Blank" xmlns="http://www.w3.org/2000/svg" viewBox="0 0 285 141"><title>one-view-label-a-blank</title><g id="Label_Blank-2" data-name="Label Blank"><circle id="Backdrop" cx="62.54" cy="78.52" r="62.18" style="fill:#8dcae4"/><path id="Label_Back" data-name="Label Back" d="M93.74,53.39A378.34,378.34,0,0,1,162.51,42a420.85,420.85,0,0,1,70.19.85l-11.06,64.51a361.05,361.05,0,0,0-59.29-10.59,328,328,0,0,0-60.68,0Z" style="fill:#ebd900"/><g id="Label"><path d="M125.34,57.88q3.47,15.23,5.49,24.64v0a7.48,7.48,0,0,1-1.5.14,9.34,9.34,0,0,1-1.61-.21h0c-.16-.46-.38-1.27-.66-2.41-.35-1.38-.67-2.51-1-3.4-1.07,0-2.48-.07-4.23-.07h-1.47s-.08.51-.25,1.44c-.21,1.28-.41,2.34-.59,3.17s-.4,1.26-.63,1.31a1.23,1.23,0,0,1-.35,0l-.93,0c-.46,0-1,0-1.56,0h-.38v0a11.19,11.19,0,0,0,.31-1.85q.89-5.53,2.05-11.22a91.92,91.92,0,0,1,3.13-11.36,4.17,4.17,0,0,1,.56,0h.77C123.41,58,124.36,58,125.34,57.88Zm-3.19,16q2.25,0,4,0c-1.3-7.35-2.09-11.15-2.34-11.41a1.78,1.78,0,0,0-.53-.11c-.28,0-.51.23-.7.69a23.19,23.19,0,0,0-.77,3.06c-.32,1.59-.71,3.59-1.15,6l-.32,1.75h.7C121.5,73.84,121.87,73.85,122.15,73.87Z" style="fill:#fff"/><path d="M136.36,70.79l-2.69,0h-.11a10.21,10.21,0,0,1-.1-1.61l0-1.72a5.25,5.25,0,0,0,0-.73,4.8,4.8,0,0,1,1.68-.25,4.16,4.16,0,0,1,1.43.18c0,.12,0,.75-.1,1.89s-.11,1.88-.11,2.2v.07Zm0,11.76-2.66,0h-.11a10.21,10.21,0,0,1-.1-1.61l0-1.72a5.25,5.25,0,0,0,0-.73,4.8,4.8,0,0,1,1.68-.25,3.89,3.89,0,0,1,1.4.18c0,.12,0,.75-.11,1.89s-.1,1.88-.1,2.2v.07Z" style="fill:#fff"/></g></g></svg>