<svg id="Label_Coconut_A" data-name="Label Coconut A" xmlns="http://www.w3.org/2000/svg" xmlns:xlink="http://www.w3.org/1999/xlink" viewBox="0 0 285 141"><defs><linearGradient id="linear-gradient" x1="21.5" y1="64.09" x2="81.81" y2="64.09" gradientUnits="userSpaceOnUse"><stop offset="0" stop-color="#fcd960" stop-opacity="0.2"/><stop offset="0.19" stop-color="#feedb3" stop-opacity="0.1"/><stop offset="0.38" stop-color="#fffaeb" stop-opacity="0.03"/><stop offset="0.51" stop-color="#fff" stop-opacity="0"/><stop offset="0.66" stop-color="#e4f3fa" stop-opacity="0.02"/><stop offset="0.82" stop-color="#97ceea" stop-opacity="0.09"/><stop offset="1" stop-color="#1691d0" stop-opacity="0.2"/><stop offset="1" stop-color="#1390cf" stop-opacity="0.2"/></linearGradient><linearGradient id="linear-gradient-2" x1="26.87" y1="66.66" x2="41.25" y2="66.66" gradientUnits="userSpaceOnUse"><stop offset="0" stop-color="#fff"/><stop offset="0.05" stop-color="#fff" stop-opacity="0.95"/><stop offset="0.53" stop-color="#fff" stop-opacity="0.44"/><stop offset="0.85" stop-color="#fff" stop-opacity="0.12"/><stop offset="1" stop-color="#fff" stop-opacity="0"/></linearGradient><linearGradient id="linear-gradient-3" x1="62" y1="66.62" x2="78.94" y2="66.62" gradientUnits="userSpaceOnUse"><stop offset="0" stop-color="#fff" stop-opacity="0"/><stop offset="1" stop-color="#fff"/></linearGradient><radialGradient id="radial-gradient" cx="42.21" cy="72.65" r="12.63" gradientUnits="userSpaceOnUse"><stop offset="0.05" stop-color="#c26d34"/><stop offset="0.77" stop-color="#8c4d0e"/></radialGradient><linearGradient id="linear-gradient-4" x1="66.13" y1="59.16" x2="68.5" y2="61.99" gradientUnits="userSpaceOnUse"><stop offset="0" stop-color="#9dd168"/><stop offset="1" stop-color="#377734"/></linearGradient><linearGradient id="linear-gradient-5" x1="49.84" y1="59.75" x2="56.79" y2="68.03" xlink:href="#linear-gradient-4"/><linearGradient id="linear-gradient-6" x1="57.64" y1="57.45" x2="59.62" y2="68.68" xlink:href="#linear-gradient-4"/><linearGradient id="linear-gradient-7" x1="48.83" y1="59.22" x2="55.12" y2="70.11" xlink:href="#linear-gradient-4"/><linearGradient id="linear-gradient-8" x1="51.59" y1="92.39" x2="54.31" y2="87.68" gradientUnits="userSpaceOnUse"><stop offset="0.3" stop-color="#9dd168"/><stop offset="1" stop-color="#377734"/></linearGradient><linearGradient id="linear-gradient-9" x1="43.67" y1="92.5" x2="54.17" y2="83.68" gradientUnits="userSpaceOnUse"><stop offset="0.29" stop-color="#9dd168"/><stop offset="1" stop-color="#377734"/></linearGradient><linearGradient id="linear-gradient-10" x1="36.49" y1="84.47" x2="53.67" y2="90.72" gradientUnits="userSpaceOnUse"><stop offset="0.16" stop-color="#9dd168"/><stop offset="1" stop-color="#377734"/></linearGradient><linearGradient id="linear-gradient-11" x1="32.76" y1="78.79" x2="47.78" y2="91.4" gradientUnits="userSpaceOnUse"><stop offset="0.36" stop-color="#9dd168"/><stop offset="1" stop-color="#377734"/></linearGradient><linearGradient id="linear-gradient-12" x1="28.38" y1="80.98" x2="50.29" y2="80.98" gradientUnits="userSpaceOnUse"><stop offset="0.04" stop-color="#9dd168"/><stop offset="1" stop-color="#377734"/></linearGradient><linearGradient id="linear-gradient-13" x1="26.56" y1="78.71" x2="48.12" y2="78.71" gradientUnits="userSpaceOnUse"><stop offset="0.19" stop-color="#9dd168"/><stop offset="1" stop-color="#377734"/></linearGradient><linearGradient id="linear-gradient-14" x1="33.87" y1="77.61" x2="46.41" y2="77.61" gradientUnits="userSpaceOnUse"><stop offset="0.25" stop-color="#9dd168"/><stop offset="1" stop-color="#377734"/></linearGradient><linearGradient id="linear-gradient-15" x1="47.11" y1="84.03" x2="76.18" y2="73.45" gradientUnits="userSpaceOnUse"><stop offset="0" stop-color="#a95f2c"/><stop offset="0.51" stop-color="#8c4d0e"/><stop offset="1" stop-color="#966323"/></linearGradient><linearGradient id="linear-gradient-16" x1="45.68" y1="73.89" x2="73.01" y2="73.89" gradientUnits="userSpaceOnUse"><stop offset="0" stop-color="#d1d6d2"/><stop offset="1" stop-color="#fff"/></linearGradient><linearGradient id="linear-gradient-17" x1="61.5" y1="61.84" x2="57.33" y2="85.53" gradientUnits="userSpaceOnUse"><stop offset="0" stop-color="#fff" stop-opacity="0"/><stop offset="0.23" stop-color="#fff"/><stop offset="0.55" stop-color="#fff" stop-opacity="0"/><stop offset="0.81" stop-color="#fff"/><stop offset="1" stop-color="#fff" stop-opacity="0"/></linearGradient><linearGradient id="linear-gradient-18" x1="46" y1="78.6" x2="72.71" y2="68.88" gradientUnits="userSpaceOnUse"><stop offset="0" stop-color="#fff"/><stop offset="0.3" stop-color="#fff" stop-opacity="0"/></linearGradient><linearGradient id="linear-gradient-20" x1="49.55" y1="73.48" x2="69.38" y2="73.48" gradientUnits="userSpaceOnUse"><stop offset="0" stop-color="#e6e6e6"/><stop offset="1" stop-color="#b5b29d"/></linearGradient><linearGradient id="linear-gradient-21" x1="60.99" y1="64.71" x2="57.97" y2="81.82" xlink:href="#linear-gradient-3"/><radialGradient id="radial-gradient-2" cx="59.47" cy="73.48" fy="81.30949366970603" r="14.79" gradientUnits="userSpaceOnUse"><stop offset="0.22" stop-color="#fff" stop-opacity="0.6"/><stop offset="0.57" stop-color="#989785"/></radialGradient><linearGradient id="linear-gradient-22" x1="61" y1="64.62" x2="57.95" y2="81.91" gradientUnits="userSpaceOnUse"><stop offset="0" stop-color="#515254"/><stop offset="1" stop-color="#fff"/></linearGradient><linearGradient id="linear-gradient-23" x1="21.1" y1="74.19" x2="83.39" y2="74.19" gradientUnits="userSpaceOnUse"><stop offset="0" stop-color="#ffc42c" stop-opacity="0"/><stop offset="0.01" stop-color="#ffc83a" stop-opacity="0.07"/><stop offset="0.03" stop-color="#ffd66d" stop-opacity="0.31"/><stop offset="0.05" stop-color="#ffe39a" stop-opacity="0.52"/><stop offset="0.07" stop-color="#ffedbe" stop-opacity="0.69"/><stop offset="0.09" stop-color="#fff5da" stop-opacity="0.83"/><stop offset="0.11" stop-color="#fffaef" stop-opacity="0.92"/><stop offset="0.13" stop-color="#fffefb" stop-opacity="0.98"/><stop offset="0.14" stop-color="#fff"/><stop offset="0.21" stop-color="#fcfbfa" stop-opacity="0.99"/><stop offset="0.29" stop-color="#f1efed" stop-opacity="0.94"/><stop offset="0.37" stop-color="#e0dbd7" stop-opacity="0.87"/><stop offset="0.46" stop-color="#c8bfb7" stop-opacity="0.77"/><stop offset="0.54" stop-color="#aa9a8f" stop-opacity="0.65"/><stop offset="0.63" stop-color="#846e5d" stop-opacity="0.49"/><stop offset="0.72" stop-color="#593b24" stop-opacity="0.31"/><stop offset="0.77" stop-color="#3d1a00" stop-opacity="0.2"/><stop offset="0.91" stop-color="#268195" stop-opacity="0.51"/><stop offset="1" stop-color="#17c2f2" stop-opacity="0.7"/></linearGradient><linearGradient id="linear-gradient-24" x1="33.23" y1="14.82" x2="70.99" y2="35.76" gradientUnits="userSpaceOnUse"><stop offset="0" stop-opacity="0.5"/><stop offset="0.22" stop-color="#231f20" stop-opacity="0.1"/><stop offset="0.99" stop-opacity="0.5"/></linearGradient><linearGradient id="linear-gradient-25" x1="28.63" y1="26.05" x2="75.59" y2="26.05" gradientUnits="userSpaceOnUse"><stop offset="0" stop-color="#fff" stop-opacity="0.4"/><stop offset="0" stop-color="#fff" stop-opacity="0.43"/><stop offset="0.04" stop-color="#fff" stop-opacity="0.63"/><stop offset="0.07" stop-color="#fff" stop-opacity="0.79"/><stop offset="0.1" stop-color="#fff" stop-opacity="0.91"/><stop offset="0.13" stop-color="#fff" stop-opacity="0.98"/><stop offset="0.15" stop-color="#fff"/><stop offset="0.18" stop-color="#fff" stop-opacity="0.98"/><stop offset="0.22" stop-color="#fff" stop-opacity="0.93"/><stop offset="0.26" stop-color="#fff" stop-opacity="0.84"/><stop offset="0.29" stop-color="#fff" stop-opacity="0.71"/><stop offset="0.33" stop-color="#fff" stop-opacity="0.55"/><stop offset="0.38" stop-color="#fff" stop-opacity="0.36"/><stop offset="0.4" stop-color="#fff" stop-opacity="0.2"/><stop offset="0.48" stop-color="#fff" stop-opacity="0.21"/><stop offset="0.54" stop-color="#fff" stop-opacity="0.26"/><stop offset="0.61" stop-color="#fff" stop-opacity="0.33"/><stop offset="0.67" stop-color="#fff" stop-opacity="0.44"/><stop offset="0.73" stop-color="#fff" stop-opacity="0.57"/><stop offset="0.79" stop-color="#fff" stop-opacity="0.73"/><stop offset="0.85" stop-color="#fff" stop-opacity="0.92"/><stop offset="0.87" stop-color="#fff"/><stop offset="1" stop-color="#fff" stop-opacity="0.7"/></linearGradient><linearGradient id="linear-gradient-26" x1="32.23" y1="19.93" x2="40.06" y2="19.93" gradientUnits="userSpaceOnUse"><stop offset="0" stop-color="#fff"/><stop offset="0.35" stop-color="#fff" stop-opacity="0.61"/><stop offset="0.67" stop-color="#fff" stop-opacity="0.28"/><stop offset="0.89" stop-color="#fff" stop-opacity="0.08"/><stop offset="1" stop-color="#fff" stop-opacity="0"/></linearGradient><linearGradient id="linear-gradient-27" x1="-59.94" y1="19.76" x2="-71.96" y2="19.76" gradientTransform="matrix(-1, 0, 0, 1, 2.12, 0)" xlink:href="#linear-gradient-3"/><linearGradient id="linear-gradient-28" x1="51.26" y1="16.03" x2="53.19" y2="5.08" gradientUnits="userSpaceOnUse"><stop offset="0" stop-color="#fff"/><stop offset="0.11" stop-color="#fff" stop-opacity="0.98"/><stop offset="0.23" stop-color="#fff" stop-opacity="0.93"/><stop offset="0.36" stop-color="#fff" stop-opacity="0.84"/><stop offset="0.5" stop-color="#fff" stop-opacity="0.71"/><stop offset="0.64" stop-color="#fff" stop-opacity="0.55"/><stop offset="0.78" stop-color="#fff" stop-opacity="0.36"/><stop offset="0.92" stop-color="#fff" stop-opacity="0.13"/><stop offset="0.99" stop-color="#fff" stop-opacity="0"/></linearGradient><linearGradient id="linear-gradient-29" x1="39.48" y1="123.96" x2="73.99" y2="123.96" gradientUnits="userSpaceOnUse"><stop offset="0" stop-color="#b3b3b3"/><stop offset="0.02" stop-color="#b9b9b9"/><stop offset="0.11" stop-color="#d8d8d8"/><stop offset="0.19" stop-color="#ebebeb"/><stop offset="0.24" stop-color="#f2f2f2"/><stop offset="0.52" stop-color="#a3a3a3"/><stop offset="0.65" stop-color="gray"/><stop offset="0.74" stop-color="#868686"/><stop offset="0.86" stop-color="#969698"/><stop offset="0.99" stop-color="#b2b2b5"/><stop offset="1" stop-color="#b3b3b7"/></linearGradient><linearGradient id="linear-gradient-30" x1="74.62" y1="122.15" x2="113.3" y2="89.7" gradientUnits="userSpaceOnUse"><stop offset="0" stop-color="#999"/><stop offset="0.12" stop-color="#cacaca"/><stop offset="0.24" stop-color="#fff"/><stop offset="0.28" stop-color="#f6f6f6"/><stop offset="0.56" stop-color="#c4c4c4"/><stop offset="0.77" stop-color="#a5a5a5"/><stop offset="0.89" stop-color="#999"/><stop offset="1" stop-color="#ccc"/></linearGradient><linearGradient id="linear-gradient-31" x1="51.32" y1="108.55" x2="62.12" y2="127.24" gradientUnits="userSpaceOnUse"><stop offset="0" stop-color="#ccc"/><stop offset="0.15" stop-color="#dadada"/><stop offset="0.4" stop-color="#ececec"/><stop offset="0.58" stop-color="#f2f2f2"/><stop offset="1" stop-color="#666"/></linearGradient><linearGradient id="linear-gradient-32" x1="46.91" y1="121.46" x2="50.09" y2="126.97" gradientUnits="userSpaceOnUse"><stop offset="0" stop-color="#fff" stop-opacity="0"/><stop offset="0.07" stop-color="#fff" stop-opacity="0.19"/><stop offset="0.16" stop-color="#fff" stop-opacity="0.44"/><stop offset="0.25" stop-color="#fff" stop-opacity="0.64"/><stop offset="0.33" stop-color="#fff" stop-opacity="0.79"/><stop offset="0.4" stop-color="#fff" stop-opacity="0.91"/><stop offset="0.47" stop-color="#fff" stop-opacity="0.98"/><stop offset="0.51" stop-color="#fff"/><stop offset="1" stop-color="#fff" stop-opacity="0"/></linearGradient><linearGradient id="linear-gradient-33" x1="52.31" y1="107.91" x2="62.34" y2="125.28" gradientUnits="userSpaceOnUse"><stop offset="0.25" stop-color="#fff"/><stop offset="0.35" stop-color="#fdfdfd" stop-opacity="0.98"/><stop offset="0.44" stop-color="#f9f9f9" stop-opacity="0.94"/><stop offset="0.54" stop-color="#f1f1f1" stop-opacity="0.86"/><stop offset="0.63" stop-color="#e6e6e6" stop-opacity="0.75"/><stop offset="0.72" stop-color="#d8d8d8" stop-opacity="0.62"/><stop offset="0.81" stop-color="#c6c6c6" stop-opacity="0.45"/><stop offset="0.9" stop-color="#b2b2b2" stop-opacity="0.24"/><stop offset="0.99" stop-color="#9b9b9b" stop-opacity="0.02"/><stop offset="1" stop-color="#999" stop-opacity="0"/></linearGradient><radialGradient id="radial-gradient-3" cx="52.2" cy="110.75" fy="103.1174147420727" r="8.13" gradientTransform="translate(-43.94 42.91) rotate(-28.45) scale(1 0.95)" gradientUnits="userSpaceOnUse"><stop offset="0.21" stop-color="#fff" stop-opacity="0"/><stop offset="1" stop-color="#989785" stop-opacity="0.3"/></radialGradient><radialGradient id="radial-gradient-4" cx="-63.6" cy="115.77" r="5.32" gradientTransform="matrix(-0.62, 0.78, 1.18, 0.93, -116.01, 57.74)" gradientUnits="userSpaceOnUse"><stop offset="0" stop-color="#fff" stop-opacity="0"/><stop offset="0.29" stop-color="#c6c5bc" stop-opacity="0.11"/><stop offset="0.61" stop-color="#a3a292" stop-opacity="0.18"/><stop offset="1" stop-color="#989785" stop-opacity="0.2"/></radialGradient><linearGradient id="linear-gradient-34" x1="59.07" y1="107.67" x2="65.47" y2="118.76" gradientUnits="userSpaceOnUse"><stop offset="0" stop-color="#fff"/><stop offset="0.09" stop-color="#fdfefe" stop-opacity="0.97"/><stop offset="0.23" stop-color="#f9f9fa" stop-opacity="0.9"/><stop offset="0.41" stop-color="#f2f3f3" stop-opacity="0.77"/><stop offset="0.6" stop-color="#e9eaea" stop-opacity="0.6"/><stop offset="0.8" stop-color="#dedfe0" stop-opacity="0.4"/><stop offset="1" stop-color="#fff"/></linearGradient><radialGradient id="radial-gradient-5" cx="54.84" cy="121.97" fy="115.66916254649344" r="6.37" gradientTransform="translate(164.54 -34.73) rotate(51.65) scale(1 1.5)" xlink:href="#radial-gradient-4"/></defs><title>one-view-label-a-coconut</title><g id="Label_Coconut_A-2" data-name="Label Coconut A"><circle id="Backdrop" cx="62.54" cy="78.52" r="62.18" style="fill:#8dcae4"/><path id="Label_Back" data-name="Label Back" d="M93.24,49.55a566.4,566.4,0,0,1,93.69-15.09,466.29,466.29,0,0,1,97.28,2.93l-15.33,75.38a395.75,395.75,0,0,0-81.5-13.94,508.09,508.09,0,0,0-85.21,1.77Z" style="fill:#ebd900"/><g id="Label"><path d="M125.34,57.88q3.47,15.23,5.49,24.64v0a7.48,7.48,0,0,1-1.5.14,9.34,9.34,0,0,1-1.61-.21h0c-.16-.46-.38-1.27-.66-2.41-.35-1.38-.67-2.51-1-3.4-1.07,0-2.48-.07-4.23-.07h-1.47s-.08.51-.25,1.44c-.21,1.28-.41,2.34-.59,3.17s-.4,1.26-.63,1.31a1.23,1.23,0,0,1-.35,0l-.93,0c-.46,0-1,0-1.56,0h-.38v0a11.19,11.19,0,0,0,.31-1.85q.89-5.53,2.05-11.22a91.92,91.92,0,0,1,3.13-11.36,4.17,4.17,0,0,1,.56,0h.77C123.41,58,124.36,58,125.34,57.88Zm-3.19,16q2.25,0,4,0c-1.3-7.35-2.09-11.15-2.34-11.41a1.78,1.78,0,0,0-.53-.11c-.28,0-.51.23-.7.69a23.19,23.19,0,0,0-.77,3.06c-.32,1.59-.71,3.59-1.15,6l-.32,1.75h.7C121.5,73.84,121.87,73.85,122.15,73.87Z" style="fill:#fff"/><path d="M136.36,70.79l-2.69,0h-.11a10.21,10.21,0,0,1-.1-1.61l0-1.72a5.25,5.25,0,0,0,0-.73,4.8,4.8,0,0,1,1.68-.25,4.16,4.16,0,0,1,1.43.18c0,.12,0,.75-.1,1.89s-.11,1.88-.11,2.2v.07Zm0,11.76-2.66,0h-.11a10.21,10.21,0,0,1-.1-1.61l0-1.72a5.25,5.25,0,0,0,0-.73,4.8,4.8,0,0,1,1.68-.25,3.89,3.89,0,0,1,1.4.18c0,.12,0,.75-.11,1.89s-.1,1.88-.1,2.2v.07Z" style="fill:#fff"/><path d="M151.45,71.35c0,1.22-.07,2.06-.07,2.52a11,11,0,0,0,.45,3.54,2.92,2.92,0,0,0,1.79,1.78,8,8,0,0,0,1.71.21,4,4,0,0,0,3.57-1.75,9,9,0,0,0,1.12-5,4.45,4.45,0,0,0,.72,0l.58,0q.31,0,.87,0a4.28,4.28,0,0,1,.95.07,9.07,9.07,0,0,1,.31,2.34,8.52,8.52,0,0,1-.91,3.91A7.3,7.3,0,0,1,160,81.78a7.16,7.16,0,0,1-3.76,1.16,8.84,8.84,0,0,1-1.37.1,8.16,8.16,0,0,1-4.43-1.19,4.5,4.5,0,0,1-2.15-3.57c-.12-2.33-.17-4.83-.17-7.49,0-1.23,0-2.2,0-2.9l0-4.24a6.89,6.89,0,0,1,1.1-3.86,5.1,5.1,0,0,1,3-2.23,8.87,8.87,0,0,1,2.8-.45,8,8,0,0,1,4.24,1.17,8.87,8.87,0,0,1,4.2,7.58,9.76,9.76,0,0,1-.21,2,10.47,10.47,0,0,1-1.68.18,8.16,8.16,0,0,1-1.68-.21V66.7a9.79,9.79,0,0,0-.39-3.05,3.3,3.3,0,0,0-1.75-1.85,4.94,4.94,0,0,0-2.83-.67c-.38,0-.67,0-.88,0-.93,0-1.61.72-2,2a21.66,21.66,0,0,0-.56,6.37Z" style="fill:#fff"/><path d="M165.62,71.18a18.11,18.11,0,0,1,.12-2.24,12,12,0,0,1,.62-2.35,3.05,3.05,0,0,1,1.94-1.52,10.13,10.13,0,0,1,3.31-.51,4.16,4.16,0,0,0,.7,0l1.4,0a6.21,6.21,0,0,1,4.51,1.54,2.72,2.72,0,0,1,1,1.58,13.54,13.54,0,0,1,.41,3.1c0,1.29.07,2,.07,2.25-.1,2.34-.21,4.19-.34,5.57a4.72,4.72,0,0,1-.78,2.66,3.35,3.35,0,0,1-1.84,1.29,9.55,9.55,0,0,1-2.78.35c-.42,0-1,0-1.89-.07l-1.61,0a5.15,5.15,0,0,1-3.1-1.51A5.52,5.52,0,0,1,166,78.6a19.72,19.72,0,0,1-.3-3.71V73.07A17.23,17.23,0,0,0,165.62,71.18Zm7.14-3.33a4.28,4.28,0,0,0-3.43,1.23,2.85,2.85,0,0,0-.58,1.42,13.31,13.31,0,0,0-.08,2.22,11,11,0,0,0,0,1.4c0,.58.06,1,.06,1.36l.07,1.47a2.76,2.76,0,0,0,.78,2,3.78,3.78,0,0,0,1.74.79,9.54,9.54,0,0,0,1.43.1,5.38,5.38,0,0,0,2.38-.49,2.31,2.31,0,0,0,1.3-1.61,10.37,10.37,0,0,0,.14-1.43c.11-1.63.17-2.74.17-3.33a7.18,7.18,0,0,0-.84-3.71A3.37,3.37,0,0,0,172.76,67.85Z" style="fill:#fff"/><path d="M192.92,75.69a4.4,4.4,0,0,0,.77.07l1.23,0a4.1,4.1,0,0,1,1,.1c-.12,1.61-.24,2.86-.37,3.75a3.26,3.26,0,0,1-.61,1.75,3.35,3.35,0,0,1-1.84,1.29,9.55,9.55,0,0,1-2.78.35c-.42,0-1.05,0-1.89-.07l-1.61,0a4.87,4.87,0,0,1-3.08-1.56,6,6,0,0,1-1.32-2.85,32.27,32.27,0,0,1-.4-4.34c0-1.31,0-2.26,0-2.87a15.62,15.62,0,0,1,.77-4.59,3.05,3.05,0,0,1,1.94-1.52,10.13,10.13,0,0,1,3.31-.51,5.43,5.43,0,0,0,.8,0l.79,0c.31,0,.69,0,1.14,0a6.21,6.21,0,0,1,3.88,1.47,2.62,2.62,0,0,1,1,1.78,26.77,26.77,0,0,1,.3,3.68l0,.84a5.33,5.33,0,0,1-1.05.1,9.9,9.9,0,0,1-1.86-.17,5.14,5.14,0,0,0-.89-3.4,3.6,3.6,0,0,0-2.71-.91c-.26,0-.72,0-1.37.07a7.19,7.19,0,0,0-1.42.18,1.64,1.64,0,0,0-.89.66,3.8,3.8,0,0,0-.56,1.61,22.18,22.18,0,0,0-.1,2.63V76a4.63,4.63,0,0,0,.56,2.4,2.85,2.85,0,0,0,2.52,1.41,7.8,7.8,0,0,0,.94,0,4,4,0,0,0,2.45-.63,2.75,2.75,0,0,0,1-1.45A10.53,10.53,0,0,0,192.92,75.69Z" style="fill:#fff"/><path d="M198.17,71.18a18.11,18.11,0,0,1,.12-2.24,12,12,0,0,1,.62-2.35,3.05,3.05,0,0,1,1.94-1.52,10.13,10.13,0,0,1,3.31-.51,4.16,4.16,0,0,0,.7,0l1.4,0a6.21,6.21,0,0,1,4.51,1.54,2.72,2.72,0,0,1,1,1.58,13.54,13.54,0,0,1,.41,3.1c0,1.29.07,2,.07,2.25-.1,2.34-.21,4.19-.34,5.57a4.72,4.72,0,0,1-.78,2.66,3.35,3.35,0,0,1-1.84,1.29,9.55,9.55,0,0,1-2.78.35c-.42,0-1.05,0-1.89-.07l-1.61,0a5.15,5.15,0,0,1-3.1-1.51,5.52,5.52,0,0,1-1.33-2.69,19.72,19.72,0,0,1-.3-3.71V73.07A17.23,17.23,0,0,0,198.17,71.18Zm7.14-3.33a4.28,4.28,0,0,0-3.43,1.23,2.85,2.85,0,0,0-.58,1.42,13.31,13.31,0,0,0-.08,2.22,11,11,0,0,0,0,1.4c0,.58.06,1,.06,1.36l.07,1.47a2.76,2.76,0,0,0,.78,2,3.78,3.78,0,0,0,1.74.79,9.54,9.54,0,0,0,1.43.1,5.38,5.38,0,0,0,2.38-.49,2.31,2.31,0,0,0,1.3-1.61,10.37,10.37,0,0,0,.14-1.43c.11-1.63.17-2.74.17-3.33a7.18,7.18,0,0,0-.84-3.71A3.37,3.37,0,0,0,205.31,67.85Z" style="fill:#fff"/><path d="M218.29,65.16a5.33,5.33,0,0,1,.07,1V67a15.57,15.57,0,0,1,2.8-1.24,10.12,10.12,0,0,1,3.22-.54,5.16,5.16,0,0,1,3.16,1.08q.83.73.83,6c0,.89,0,2.26-.06,4.13s-.08,3.06-.08,3.85c0,1,0,1.76,0,2.2a13.15,13.15,0,0,1-1.93.11h-1.15a17.51,17.51,0,0,1-.07-2V79.12l0-2.24c0-1.51.06-2.6,0-3.25q0-.21-.09-1.44a9,9,0,0,0-.4-2.17c-.07-.81-.64-1.19-1.72-1.12a8,8,0,0,0-3.55.67,2.66,2.66,0,0,0-1.28,2.27c0,.31,0,.88,0,1.72,0,1.31,0,2.71.07,4.2.05.89.07,1.54.07,2,0,.86,0,1.75-.11,2.66v.14a5.86,5.86,0,0,1-1.31.12l-.93,0c-.37,0-.66,0-.87,0l0-6c0-2.75-.07-4.82-.07-6.2,0-1.12,0-2.89.07-5.32a9.62,9.62,0,0,0,1,0,7.46,7.46,0,0,0,.91,0l.49,0a5.46,5.46,0,0,1,.56,0C218.18,65.05,218.29,65.09,218.29,65.16Z" style="fill:#fff"/><path d="M241.57,82.55c0-.44,0-.81,0-1.1s0-.54,0-.75c-.05,0-.23.15-.56.38a4.34,4.34,0,0,1-1.57.6,11.64,11.64,0,0,1-4,.73,4.49,4.49,0,0,1-3.25-1,2.63,2.63,0,0,1-.74-1.76c-.09-.83-.15-2.16-.17-4V74.54c0-.72,0-1.79.06-3.19s.11-2.73.11-4c0-.6,0-1.35-.07-2.24.42,0,1-.07,1.71-.07h1.16c.07.7.11,1.53.11,2.49l0,2.83c0,.94,0,1.61,0,2l0,1c0,.84,0,1.82.11,2.94a3.42,3.42,0,0,0,.47,1.75,2,2,0,0,0,1.2.81,8.79,8.79,0,0,0,1.3.1,4.24,4.24,0,0,0,3.17-1.12,4.3,4.3,0,0,0,1.14-3c0-.84,0-2.37-.11-4.59,0-1.12-.07-1.85-.07-2.2,0-.63,0-1.53.07-2.7v-.14a6.08,6.08,0,0,1,1.07-.17l.61,0q.74,0,1.26,0l0,6c0,2.75.06,4.82.06,6.19,0,1.12,0,2.9-.06,5.32a15.73,15.73,0,0,0-1.72.11l-.44,0a3.12,3.12,0,0,1-.54,0C241.69,82.66,241.57,82.62,241.57,82.55Z" style="fill:#fff"/><path d="M253.85,58.58v5.35l0,2c1.52,0,3.39-.12,5.63-.24a1.87,1.87,0,0,1,.21,1l0,.8a6.77,6.77,0,0,0,0,1.12q-3.81,0-5.7,0v6.54c0,1.05,0,1.8.07,2.24a4.11,4.11,0,0,0,.28,1.16,3.23,3.23,0,0,0,2.26.87,19.56,19.56,0,0,0,3.09.11c.12.93.18,1.53.18,1.78a4.57,4.57,0,0,1-.18,1.26c-.49,0-1.26,0-2.31,0a10.92,10.92,0,0,1-4.27-.67,3.44,3.44,0,0,1-2-2.66,83.58,83.58,0,0,1-.38-8.85V68.73a10.48,10.48,0,0,1-1.05,0l-2.66,0,.1-2.87c.52,0,1.74.07,3.68.07l0-3.68V60.61c0-1,0-1.67.07-2.07a12.16,12.16,0,0,1,1.51,0l.94,0A3.6,3.6,0,0,0,253.85,58.58Z" style="fill:#fff"/></g><g id="Coconut_Oil_A" data-name="Coconut Oil A"><g id="Jar"><path d="M77.75,27.43a4,4,0,0,0,1.38-2.34c0-.79-.56-1.17-1.56-1.88,0-.61-.08-1.5-.08-2.15H73.32c-4.95-1.56-12.61-1.35-21.22-1.35s-16.27-.35-21.22,1.21l-4.43-.05c0,.73,0,1.42-.07,2.1A2.75,2.75,0,0,0,25.09,25a3.4,3.4,0,0,0,.82,2.18C24.77,34.06,22.09,39.57,22.09,45V89.08c0,10.27,7.28,17.1,18.67,18.68,9.87,1.36,12.82,1.39,23,0S82.4,99.35,82.4,89.08V45C82.4,40,79,34.52,77.75,27.43Z" style="fill:#d8d8d8"/><path d="M77.16,27.43a4,4,0,0,0,1.38-2.34c0-.79-.55-1.17-1.56-1.88,0-.61-.08-1.5-.08-2.15H72.73c-5-1.56-12.61-1.35-21.22-1.35s-16.27-.35-21.22,1.21l-4.43-.05c0,.73,0,1.42-.07,2.1A2.75,2.75,0,0,0,24.5,25a3.4,3.4,0,0,0,.82,2.18C24.19,34.06,21.5,39.57,21.5,45V89.08c0,10.27,7.31,17,18.68,18.68a88.19,88.19,0,0,0,23,0c10.16-1.29,18.67-8.41,18.67-18.68V45C81.81,40,78.43,34.52,77.16,27.43Z" style="fill:url(#linear-gradient)"/><path d="M78.88,27.1A2.66,2.66,0,0,0,80,25.17a3.09,3.09,0,0,0-1.62-2.32c0-.64-.05-1.29-.05-2H74c-5.11-1.61-13-2.64-21.92-2.64s-16.8,1-21.91,2.64H25.6c0,.75,0,1.46-.07,2.17a2.8,2.8,0,0,0-1.33,2.11,2.44,2.44,0,0,0,.9,1.75c-1.17,7.08-4,11.84-4,17.46V89.89c0,10.61,7.52,17.67,19.29,19.29a85.94,85.94,0,0,0,23.71,0c10.49-1.39,19.29-8.68,19.29-19.29V44.38C83.39,39.22,80.19,34.42,78.88,27.1Zm2,61.65c0,10-7.77,16.06-17.61,17.45-8.51,1.21-14.37,1.38-22.13.26-11-1.59-17.67-8.07-17.67-18V44.27c0-5.27,2.71-10.52,3.81-17.18a2.79,2.79,0,0,1-.91-1.82,2.48,2.48,0,0,1,1.19-1.95c0-.66.11-1.58.11-2.29h3.88c4.79-1.51,12.23,0,20.58,0s15.79-1.52,20.59,0l3.53.21c0,.63,0,1.67.09,2.27,1,.68,1.23,1.06,1.23,1.83a2.16,2.16,0,0,1-.91,1.75C77.87,34,80.8,39.35,80.8,44.2Z" style="fill:gray"/><path d="M32.45,28.53c-.43,0-5.55,11-5.55,17.15s-.57,43.73,3.19,51.38c3.51,7.13,11.86,8.57,11.11,7.31-6.44-10.72-4-48.74-3-59.4.55-5.8,2.36-15.44,1-15.7A67.67,67.67,0,0,0,32.45,28.53Z" style="opacity:0.5;fill:url(#linear-gradient-2)"/><path d="M29.62,27.87c-.43,0-4.29,11.2-4.29,17.39s-1.75,44.06,2,51.71c3.5,7.13,17.18,9.16,16.43,7.91C37.34,94.15,30.22,53.82,31.24,43.15c.55-5.79,4.32-14.18,3.63-14.28C32.73,28.55,31.43,28,29.62,27.87Z" style="fill:#fff;opacity:0.30000000000000004"/><path d="M74.09,28.17c.43,0,4.86,12,4.72,15.77-.23,6.18,1.31,45.69-2.45,53.34-3.51,7.13-15,8.63-14.24,7.38,6.44-10.73,4.43-49.75,3.41-60.41-.56-5.8-5-14.83-3.05-14.86C66.31,29.32,72.28,28.33,74.09,28.17Z" style="opacity:0.7000000000000001;fill:url(#linear-gradient-3)"/><path d="M51.94,57.25a91.22,91.22,0,0,1-30-5.4V91.44c7.39,6.37,51.41,7,60.25,0l.15-38.82C77.21,54.47,65.39,57.25,51.94,57.25Z" style="fill:#f2f279"/><path d="M52.37,55.3c-14.15,0-26.25-2.18-31.27-4.93V92.19c7.28,7.28,54,8.25,62.29,0V50.51C78.22,53.19,66.28,55.3,52.37,55.3ZM80.7,90.58c-8.44,6.66-50.29,6.17-57.35.09V53.47A90.79,90.79,0,0,0,52,58c12.84,0,23.91-1.81,28.85-3.58Z" style="fill:#8e8730"/><g id="Layer_18_copy_6" data-name="Layer 18 copy 6"><path d="M42.86,84.52c-7.47,0-13.55-5.27-13.55-11.75a2.17,2.17,0,0,0-.7-1.27c-.23-.28-.55-.65-.52-.83.07-.36.6-.8,1.08-1.19a4,4,0,0,0,1.15-1.22c2.06-4.55,7-7.49,12.54-7.49,7.43,0,13.48,5.33,13.48,11.88S50.29,84.52,42.86,84.52Z" style="fill:url(#radial-gradient)"/><path d="M42.86,61.12C50.1,61.12,56,66.29,56,72.65S50.1,84.17,42.86,84.17s-13.2-5.11-13.2-11.4a2.52,2.52,0,0,0-.78-1.5,3.67,3.67,0,0,1-.44-.57,3.85,3.85,0,0,1,.95-1,4.26,4.26,0,0,0,1.25-1.35c2-4.42,6.8-7.28,12.22-7.28m0-.69C37,60.43,32.05,63.61,30,68.11c-.37.81-2.1,1.62-2.26,2.5-.12.65,1.22,1.48,1.22,2.16,0,6.75,6.25,12.1,13.89,12.1S56.69,79.4,56.69,72.65,50.5,60.43,42.86,60.43Z" style="fill:#7c3d13"/><path d="M68,57.64c.24.77-.26,5.33-.63,5.33s-1.91-.63-1.67-.77S67.65,58.18,68,57.64Z" style="stroke:#349934;stroke-miterlimit:10;stroke-width:0.347336644619762px;fill:url(#linear-gradient-4)"/><path d="M56.61,67.71c-1.92-3.49-3.53-9-4.65-9.74.1,3.11,2.13,10,2.36,11.36S56.61,67.71,56.61,67.71Z" style="stroke:#349934;stroke-miterlimit:10;stroke-width:0.347336644619762px;fill:url(#linear-gradient-5)"/><path d="M61.14,67.77c0-.66-.63-7.94-3.48-10.33.1,3.12-.16,9.61.07,11S61.14,67.77,61.14,67.77Z" style="stroke:#349934;stroke-miterlimit:10;stroke-width:0.347336644619762px;fill:url(#linear-gradient-6)"/><path d="M55.82,68.79c-1.92-2.67-3.91-6.49-6.07-10.1.44,3.17,3.83,10.23,4.06,11.59S55.82,68.79,55.82,68.79Z" style="stroke:#349934;stroke-miterlimit:10;stroke-width:0.347336644619762px;fill:url(#linear-gradient-7)"/><path d="M51.67,86.79a18.22,18.22,0,0,1-.25,5.5c1.3-.11,2.11.86,5.25-3.24" style="stroke:#349934;stroke-miterlimit:10;stroke-width:0.347336644619762px;fill:url(#linear-gradient-8)"/><path d="M49.3,85c-.95,3.79-5,5.94-5.25,8,1.26-.84,8.15-3.76,11.3-7.86" style="stroke:#349934;stroke-miterlimit:10;stroke-width:0.347336644619762px;fill:url(#linear-gradient-9)"/><path d="M49.89,81.31c-3.17,1.83-15,8.19-16,10.25,3.75-.1,17.3-5,22-7" style="stroke:#349934;stroke-miterlimit:10;stroke-width:0.347336644619762px;fill:url(#linear-gradient-10)"/><path d="M48.26,80.8c-3.32,1.44-19.46,2.81-20.92,4.45,3.09.44,19.79,2.5,25.22.46" style="stroke:#349934;stroke-miterlimit:10;stroke-width:0.347336644619762px;fill:url(#linear-gradient-11)"/><path d="M50,81.85C48.11,80.57,33.42,76,28.38,79c3.1.44,16,4.05,21.18,5C50.91,84.21,50,81.85,50,81.85Z" style="stroke:#349934;stroke-miterlimit:10;stroke-width:0.347336644619762px;fill:url(#linear-gradient-12)"/><path d="M47.43,79c-1.86-1.28-17.32-5-20.87-4.67,2.5,1.33,15.65,7.65,21,8.74C48.91,83.37,47.43,79,47.43,79Z" style="stroke:#349934;stroke-miterlimit:10;stroke-width:0.347336644619762px;fill:url(#linear-gradient-13)"/><path d="M45.87,77.79c-1.86-1.28-8.13-3.58-12-3.54A131.84,131.84,0,0,1,46,80.83C47,81.8,45.87,77.79,45.87,77.79Z" style="stroke:#349934;stroke-miterlimit:10;stroke-width:0.347336644619762px;fill:url(#linear-gradient-14)"/><path d="M60.8,89.21c-6.06-.09-11.86-3.12-14.55-7.56C50.77,78.61,66.6,67.5,71,64c3,2.58,4.44,5.85,4.61,10.26a14.54,14.54,0,0,1-3.82,10.83,14.34,14.34,0,0,1-10.63,4.17Z" style="fill:url(#linear-gradient-15)"/><path d="M70.94,64.42c2.75,2.48,4.11,5.61,4.28,9.82a14.25,14.25,0,0,1-3.73,10.57,14,14,0,0,1-10.38,4.06h-.3c-5.82-.09-11.38-2.93-14.09-7.12,4.86-3.29,19.6-13.63,24.22-17.33m0-.91c-4.1,3.4-20.9,15.18-25.18,18,2.73,4.78,8.76,7.91,15,8h.31c9.62,0,15.13-7,14.8-15.35-.18-4.45-1.66-7.95-5-10.7Z" style="fill:#7c3d13"/><path d="M61.89,61a13.85,13.85,0,0,0-2.92.41.82.82,0,0,1-.52.14,7.84,7.84,0,0,0-1.51.45c-.32.14-2.5,1.64-2.79,1.82s-1.06.59-1.23.71-1.48.73-1.68.91a8.36,8.36,0,0,1-1.3,1c-.2,0-2,2.7-2.23,2.76a4.25,4.25,0,0,0-1.32,1.32,22.4,22.4,0,0,0-1.62,3.42c0,.35-.71,3.17-.65,3.56a24.07,24.07,0,0,0,1.62,4,32,32,0,0,0,4.32,3.39c.3,0,2.24.7,2.47.67s3.33.86,3.74.92A35.85,35.85,0,0,0,60.92,86a34.07,34.07,0,0,0,3.2-1.59A15.59,15.59,0,0,1,65.56,83c.24-.09,1.91-.74,2.09-.83s.41-.56.62-.62a3.09,3.09,0,0,0,1-.7,26.14,26.14,0,0,1,2.06-2.74,15.07,15.07,0,0,0,1.35-1.64,6.2,6.2,0,0,0,.79-1.33,1.88,1.88,0,0,1,.09-.73,20.38,20.38,0,0,0,.74-3.94,14.5,14.5,0,0,0-.62-3.27,20.28,20.28,0,0,0-1-1.82c-.15-.15-1.56-1.86-1.85-2A16.78,16.78,0,0,0,68.59,62c-.26,0-1.29-.59-1.41-.53a1.88,1.88,0,0,1-.53,0c-.12,0-.47-.15-.59-.15s-.91-.21-1-.21a7.78,7.78,0,0,0-1.47-.23,1.64,1.64,0,0,1-.64.14Z" style="fill:#6b3800"/><path d="M58.83,62.5a15.43,15.43,0,0,0-1.92,1,8.44,8.44,0,0,0-1.56.65c-.33.2-1.13.86-1.41.86a2.92,2.92,0,0,0-1.28.38,9.28,9.28,0,0,1-.76.87c-.3.24-.94.24-1.16.55s-1.71,2.78-2,3-1.16.26-1.43.64-1.93,3.77-1.57,6.34,1,4.58,3,5.79,2.46,1.78,2.84,1.78a23,23,0,0,1,2.66.44c.72,0,1.57.57,2.57.57a32.1,32.1,0,0,0,6.5-1.64,19.88,19.88,0,0,0,3.28-1.65,6.48,6.48,0,0,1,1.79-1c.46-.2,1.19-1.83,1.4-2s2.95-4.44,3.16-5.8.08-4.85-1.14-6.49-1.42-2.29-2.71-3.14a7.44,7.44,0,0,0-4.14-1.07c-.64.14-3.07-.29-3.43-.22S59.25,62.42,58.83,62.5Z" style="fill:url(#linear-gradient-16)"/><path d="M61.62,62.74c.21,0,.64,0,1.1.1.63.07,1.34.15,1.83.15A1.82,1.82,0,0,0,65,63s.13,0,.29,0a7.67,7.67,0,0,1,3.59,1,6,6,0,0,1,1.86,2c.21.31.46.66.76,1.07,1.12,1.51,1.3,4.87,1.08,6.24s-2.75,5.28-3,5.56c-.15.1-.26.29-.54.77a5.09,5.09,0,0,1-.8,1.17,6.9,6.9,0,0,0-1.89,1.07A12.28,12.28,0,0,1,64,83l-.89.4A32.17,32.17,0,0,1,56.79,85a4.44,4.44,0,0,1-1.39-.3,3.72,3.72,0,0,0-1.18-.27,3.16,3.16,0,0,1-.84-.16A6.15,6.15,0,0,0,51.56,84h0a2.74,2.74,0,0,1-.7-.43c-.4-.29-1-.72-2-1.29-1.86-1.14-2.48-3-2.83-5.55s1.17-5.62,1.51-6.09a2.12,2.12,0,0,1,.83-.36A1.5,1.5,0,0,0,49,70.1a16.26,16.26,0,0,0,1.55-2.29c.25-.38.44-.7.52-.8a1.24,1.24,0,0,1,.46-.21,1.63,1.63,0,0,0,.63-.28,4.07,4.07,0,0,0,.58-.63l.21-.27a3.44,3.44,0,0,1,1-.27c.29,0,.65-.25,1.21-.65l.38-.26A8.8,8.8,0,0,1,57,63.82a4.26,4.26,0,0,0,.72-.39,5.51,5.51,0,0,1,1.16-.59c.19,0,.83,0,1.35-.05a9.18,9.18,0,0,0,1.33,0h0m0-.35H61.5c-.35.07-2.25,0-2.67.1a15.43,15.43,0,0,0-1.92,1,8.44,8.44,0,0,0-1.56.65c-.33.2-1.13.86-1.41.86a2.92,2.92,0,0,0-1.28.38,9.28,9.28,0,0,1-.76.87c-.3.24-.94.24-1.16.55s-1.71,2.78-2,3-1.16.26-1.43.64-1.93,3.77-1.57,6.34,1,4.58,3,5.79,2.46,1.78,2.84,1.78h0a25,25,0,0,1,2.63.44c.72,0,1.57.57,2.57.57a32.1,32.1,0,0,0,6.5-1.64,19.88,19.88,0,0,0,3.28-1.65,6.48,6.48,0,0,1,1.79-1c.46-.2,1.19-1.83,1.4-2s2.95-4.44,3.16-5.8.08-4.85-1.14-6.49-1.42-2.29-2.71-3.14a8,8,0,0,0-3.78-1.11,1.71,1.71,0,0,0-.36,0,2,2,0,0,1-.38,0c-.84,0-2.42-.25-2.93-.25Z" style="fill:url(#linear-gradient-17)"/><path d="M58.83,62.5a15.43,15.43,0,0,0-1.92,1,8.44,8.44,0,0,0-1.56.65c-.33.2-1.13.86-1.41.86a2.92,2.92,0,0,0-1.28.38,9.28,9.28,0,0,1-.76.87c-.3.24-.94.24-1.16.55s-1.71,2.78-2,3-1.16.26-1.43.64-1.93,3.77-1.57,6.34,1,4.58,3,5.79,2.46,1.78,2.84,1.78a23,23,0,0,1,2.66.44c.72,0,1.57.57,2.57.57a32.1,32.1,0,0,0,6.5-1.64,19.88,19.88,0,0,0,3.28-1.65,6.48,6.48,0,0,1,1.79-1c.46-.2,1.19-1.83,1.4-2s2.95-4.44,3.16-5.8.08-4.85-1.14-6.49-1.42-2.29-2.71-3.14a7.44,7.44,0,0,0-4.14-1.07c-.64.14-3.07-.29-3.43-.22S59.25,62.42,58.83,62.5Z" style="fill:url(#linear-gradient-18)"/><path d="M61.62,62.74c.21,0,.64,0,1.1.1.63.07,1.34.15,1.83.15A1.82,1.82,0,0,0,65,63s.13,0,.29,0a7.67,7.67,0,0,1,3.59,1,6,6,0,0,1,1.86,2c.21.31.46.66.76,1.07,1.12,1.51,1.3,4.87,1.08,6.24s-2.75,5.28-3,5.56c-.15.1-.26.29-.54.77a5.09,5.09,0,0,1-.8,1.17,6.9,6.9,0,0,0-1.89,1.07A12.28,12.28,0,0,1,64,83l-.89.4A32.17,32.17,0,0,1,56.79,85a4.44,4.44,0,0,1-1.39-.3,3.72,3.72,0,0,0-1.18-.27,3.16,3.16,0,0,1-.84-.16A6.15,6.15,0,0,0,51.56,84h0a2.74,2.74,0,0,1-.7-.43c-.4-.29-1-.72-2-1.29-1.86-1.14-2.48-3-2.83-5.55s1.17-5.62,1.51-6.09a2.12,2.12,0,0,1,.83-.36A1.5,1.5,0,0,0,49,70.1a16.26,16.26,0,0,0,1.55-2.29c.25-.38.44-.7.52-.8a1.24,1.24,0,0,1,.46-.21,1.63,1.63,0,0,0,.63-.28,4.07,4.07,0,0,0,.58-.63l.21-.27a3.44,3.44,0,0,1,1-.27c.29,0,.65-.25,1.21-.65l.38-.26A8.8,8.8,0,0,1,57,63.82a4.26,4.26,0,0,0,.72-.39,5.51,5.51,0,0,1,1.16-.59c.19,0,.83,0,1.35-.05a9.18,9.18,0,0,0,1.33,0h0m0-.35H61.5c-.35.07-2.25,0-2.67.1a15.43,15.43,0,0,0-1.92,1,8.44,8.44,0,0,0-1.56.65c-.33.2-1.13.86-1.41.86a2.92,2.92,0,0,0-1.28.38,9.28,9.28,0,0,1-.76.87c-.3.24-.94.24-1.16.55s-1.71,2.78-2,3-1.16.26-1.43.64-1.93,3.77-1.57,6.34,1,4.58,3,5.79,2.46,1.78,2.84,1.78h0a25,25,0,0,1,2.63.44c.72,0,1.57.57,2.57.57a32.1,32.1,0,0,0,6.5-1.64,19.88,19.88,0,0,0,3.28-1.65,6.48,6.48,0,0,1,1.79-1c.46-.2,1.19-1.83,1.4-2s2.95-4.44,3.16-5.8.08-4.85-1.14-6.49-1.42-2.29-2.71-3.14a8,8,0,0,0-3.78-1.11,1.71,1.71,0,0,0-.36,0,2,2,0,0,1-.38,0c-.84,0-2.42-.25-2.93-.25Z" style="fill:url(#linear-gradient-17)"/><path d="M65.8,65.73c-.81,0-2-.32-2.19-.1a.66.66,0,0,1-.53.32c-.22,0-2.09-.22-2.3-.22s-1.76,0-2,0a8.35,8.35,0,0,0-1.17.54c-.16.1-.22.8-.48.69a6.29,6.29,0,0,0-1.55.16,14,14,0,0,0-1.12.86s-.75.21-.91.48-1.23,1.17-1.34,1.39-.32,1.23-.48,1.23S50.2,72.79,50,72.84s-.37.91-.32,1.17-.21,1.61-.16,1.82.48,1.23.48,1.23v.85s.7,1.39,1.12,1.45,1.29.69,1.5.69,1.71.86,2.24,1,1.23.32,1.61.38a12.85,12.85,0,0,0,1.39,0c.26,0,1.22-.27,1.44-.22a3.16,3.16,0,0,0,.75.11,20.54,20.54,0,0,0,2.19-.85c.21-.11.32-.43.64-.43a9.74,9.74,0,0,0,2-1,3.06,3.06,0,0,0,.91-.59c.11-.16.54-.86.75-.91s.86-1.55,1-1.71.85-2,1-2,.32-.74.32-1,.48-.69.48-1a32.93,32.93,0,0,0-1.17-3.1c-.11-.21-1.34-2.14-1.34-2.14S65.86,65.73,65.8,65.73Z" style="stroke-miterlimit:10;stroke-width:0.347336644619762px;fill:url(#linear-gradient-20);stroke:url(#linear-gradient-21)"/><path d="M65.8,65.73c-.81,0-2-.32-2.19-.1a.66.66,0,0,1-.53.32c-.22,0-2.09-.22-2.3-.22s-1.76,0-2,0a8.35,8.35,0,0,0-1.17.54c-.16.1-.22.8-.48.69a6.29,6.29,0,0,0-1.55.16,14,14,0,0,0-1.12.86s-.75.21-.91.48-1.23,1.17-1.34,1.39-.32,1.23-.48,1.23S50.2,72.79,50,72.84s-.37.91-.32,1.17-.21,1.61-.16,1.82.48,1.23.48,1.23v.85s.7,1.39,1.12,1.45,1.29.69,1.5.69,1.71.86,2.24,1,1.23.32,1.61.38a12.85,12.85,0,0,0,1.39,0c.26,0,1.22-.27,1.44-.22a3.16,3.16,0,0,0,.75.11,20.54,20.54,0,0,0,2.19-.85c.21-.11.32-.43.64-.43a9.74,9.74,0,0,0,2-1,3.06,3.06,0,0,0,.91-.59c.11-.16.54-.86.75-.91s.86-1.55,1-1.71.85-2,1-2,.32-.74.32-1,.48-.69.48-1a32.93,32.93,0,0,0-1.17-3.1c-.11-.21-1.34-2.14-1.34-2.14S65.86,65.73,65.8,65.73Z" style="stroke-miterlimit:10;stroke-width:0.521004966929645px;opacity:0.5;fill:url(#radial-gradient-2);stroke:url(#linear-gradient-22)"/></g><g style="opacity:0.45"><path d="M52.37,55.3c-14.15,0-26.25-2.18-31.27-4.93V92.19c7.28,7.28,54,8.25,62.29,0V50.51C78.22,53.19,66.28,55.3,52.37,55.3Z" style="fill:url(#linear-gradient-23)"/></g><path d="M29.25,25.22A166.77,166.77,0,0,0,75,25.36" style="fill:none;stroke-linecap:round;stroke-miterlimit:10;stroke-width:3.13135893499014px;opacity:0.7000000000000001;stroke:url(#linear-gradient-24)"/><path d="M29.25,25.22A166.77,166.77,0,0,0,75,25.36" style="fill:none;stroke-linecap:round;stroke-miterlimit:10;stroke-width:1.24782684343285px;opacity:0.7000000000000001;stroke:url(#linear-gradient-25)"/><path d="M36.59,23.48c.17.86-5.52-.18-6.38-.59s0-7.06.47-6.94,5.36.67,5.79.79S36.36,22.3,36.59,23.48Z" style="fill:#fff;opacity:0.5"/><path d="M39.91,23.82c0,.45-6.33-.06-7.27-.27s0-7.81.42-7.69,6.37.76,6.8.89S39.89,22.23,39.91,23.82Z" style="opacity:0.5;fill:url(#linear-gradient-26)"/><path d="M62.57,24c0,.45,9.78-.62,11.22-.8.67-.08.06-7.8-.65-7.69s-10.21.74-10.86.86S62.61,22.36,62.57,24Z" style="opacity:0.7000000000000001;fill:url(#linear-gradient-27)"/><path d="M79.25,10.29c0-1.49-12-2.68-27.15-2.68S24.74,8.82,24.74,10.32L24.81,19c0,1.78,12.16,3.17,27.27,3.17s27.13-2,27.13-3.78C79.21,17.48,79.25,10.29,79.25,10.29Z" style="fill:#b59e28"/><ellipse cx="52.23" cy="10.56" rx="27.63" ry="2.86" style="fill:#fff;opacity:0.4"/><ellipse cx="52.23" cy="10.56" rx="27.63" ry="2.86" style="opacity:0.5;fill:url(#linear-gradient-28)"/><ellipse cx="51.9" cy="10.89" rx="19.15" ry="1.04" style="fill:#c1a840"/><path d="M79.51,10.11c.23.15.34.29.34.45,0,.61-1.85,1.17-5,1.63v8.49l4.55-1.49.49-6.33Z" style="fill:#fff;opacity:0.1"/><path d="M28.31,12v9.06l14.22,1.2v-9A115.57,115.57,0,0,1,28.31,12Z" style="fill:#fff;opacity:0.30000000000000004"/><path d="M31.16,12.4l0,9.35,6.56.63V13C35.23,12.83,33,12.63,31.16,12.4Z" style="fill:#fff;opacity:0.4"/><path d="M52.1,6.7c-15.66,0-28.36,1.38-28.36,3.09v10c0,2,12.7,3.68,28.36,3.68s28.36-1.65,28.36-3.68V9.79C80.46,8.08,67.76,6.7,52.1,6.7ZM78.16,18.13c0,1.56-11.49,3.28-26.08,3.28s-26.31-1.23-26.31-2.79L25.7,11c0-1.32,11.82-2.38,26.4-2.38s26.19,1,26.19,2.35C78.29,11,78.16,17.34,78.16,18.13Z" style="fill:#8c7e18"/></g><g id="Spoon"><path d="M42.63,118.68c.33.17.69.33,1.06.49a33.44,33.44,0,0,0,13,2.25c5,0,9.6-.65,13.08-2.16,2.4-1,3.85-2,4.41-3.26a9.2,9.2,0,0,0,.12-3c-.18-.87-1.27-1.2-1.27-1.72s-.61-3.68-1.1-3.94-.34-1.13-1.62-1.37c-1-.19-1.09-.94-1.52-.85a5,5,0,0,1-1.1.15c-.24,0-1-.84-1.48-.87-.37,0-1.52.16-2.07.16s-1-1.41-3.15-1.85c-.92-.19-1.27,1.08-2.07,1s-1.34-.63-2.08,0a2.05,2.05,0,0,1-1.76.44c-.49-.13-1,.33-1.85.52-.66.16-2.47,1.38-3,1.5s-1.55-.29-2,.13-2.15.36-2.4.8-.26.26-.77.55c-.34.2-.85,1.53-1.28,1.53s-.74,1.19-1.29,2a7.58,7.58,0,0,1-1.16,1.57c-.58.38-.06,3.33-.13,3.69A3.78,3.78,0,0,0,42.63,118.68Z" style="fill:#adadad"/><path d="M120.42,95.67c-1.75-1.09-5.08-2.73-8.59-2.22-3.67.52-30.53,7.35-41.67,16.41-1.25,1-3.47.12-5.58-.31a26.5,26.5,0,0,0-8-.41c-8.11.39-20,1.85-18.63,10.09,1.17,7.26,9.21,12.25,18.88,12.25,11.49,0,19-6,19.58-12.5a4.89,4.89,0,0,0-.5-2.64c-.05-.5.17-1,1.27-1.88,7.51-5.87,31.13-10.87,36.57-12,2.77-.58,6.92.71,9-.13C128,100.23,122.58,97,120.42,95.67Z" style="fill:#666"/><path d="M74,118.77c-1.23,5.88-8.42,10.38-17.22,10.38s-16-4.44-17.29-10.25C41.24,119.46,72.16,118.91,74,118.77Z" style="fill:url(#linear-gradient-29)"/><path d="M67.08,112.29c1.07-.18,1.59,1,5-1.63,11-8.46,36.36-14.79,39.22-15.34s4.44.49,6.26,1.44c1.09.56,3.91,2,3.52,2.52-1.11,1.51-3.82,0-7.82.79-5.46,1.09-29.82,6.85-37.65,12.29-1.08.75-2,1.49-2.14,2.21a6.66,6.66,0,0,0,.5,3c.31.94-3.07-2.18-3.82-2.83s-3.34-.71-2.68-1.46C67.73,113,66.78,112.39,67.08,112.29Z" style="fill:url(#linear-gradient-30)"/><ellipse cx="56.77" cy="117.89" rx="17.06" ry="6.92" style="fill:#b3b3b3"/><path d="M68.49,113.78c2.66,1.11,4.31,2.62,4.31,3.92s-1.73,2.82-4.39,3.93a31.41,31.41,0,0,1-11.74,1.87A31.21,31.21,0,0,1,45,121.56c-2.65-1.11-4.38-2.4-4.38-3.7s1.57-2.9,4.23-4a37.42,37.42,0,0,1,11.83-2.06C59.86,111.79,65.37,112.47,68.49,113.78Zm-11.79-3.2c-9.62,0-17.41,3.26-17.41,7.28s7.84,7.55,17.45,7.55,17.37-3.54,17.37-7.55-7.79-7.28-17.41-7.28Z" style="fill:url(#linear-gradient-31)"/><path d="M44.41,123.14a28.91,28.91,0,0,0,8.2,2" style="fill:none;stroke-miterlimit:10;stroke-width:0.694673289239525px;stroke:url(#linear-gradient-32)"/><path d="M43.62,120.82l1,.48a29.41,29.41,0,0,0,12,2.2,30,30,0,0,0,12.11-2.11c2.22-1,3.56-2,4.08-3.2a10.14,10.14,0,0,0,.11-2.91c-.17-.86-1.18-1.18-1.18-1.68s-.56-3.62-1-3.87-.31-1.11-1.5-1.35c-.9-.18-1-.92-1.4-.83a4.38,4.38,0,0,1-1,.15c-.22,0-.88-.82-1.37-.86-.34,0-1.4.16-1.92.16s-.91-1.38-2.91-1.82c-.85-.18-1.17,1.07-1.92.94s-1.24-.6-1.92,0a1.82,1.82,0,0,1-1.63.43c-.45-.12-1,.33-1.71.51s-2.29,1.35-2.8,1.48-1.44-.29-1.82.12-2,.35-2.22.79-.24.25-.71.54-.79,1.49-1.19,1.49-.68,1.18-1.19,2A7.52,7.52,0,0,1,42.43,115c-.54.37-.06,3.26-.12,3.62A3.71,3.71,0,0,0,43.62,120.82Z" style="fill:#f4f4f4"/><path d="M44,121.13l1,.43a31.21,31.21,0,0,0,11.68,1.94,31.41,31.41,0,0,0,11.74-1.87c2.16-.9,3.71-2.07,4.21-3.17a6,6,0,0,0-.14-2.22c-.16-.76-1.16-1.2-1.16-1.64s-.81-3.15-1.25-3.37.31-1.22-.84-1.43c-.87-.17-1.31-.47-1.7-.39a4.79,4.79,0,0,1-1,.13c-.22,0-.86-.72-1.33-.76s-1.37.15-1.87.15-.88-1.22-2.82-1.61c-.83-.16-1.14.94-1.86.83s-1.2-.54-1.87,0a1.92,1.92,0,0,1-1.64.25,3.69,3.69,0,0,0-1.66.17c-.6.14-2.16,1.61-2.66,1.72s-1.39-.26-1.76.11-1.93.3-2.15.69-.24.23-.69.48-.77,1.32-1.16,1.32-.38.77-.88,1.46c-.37.51-.54,1.37-.86,1.57-.52.33-.51,2.94-.57,3.25A3.18,3.18,0,0,0,44,121.13Z" style="fill:url(#linear-gradient-33)"/><path d="M59.07,108.08a.68.68,0,0,1-.4.07c-.72-.11-1.2-.54-1.87,0a1.92,1.92,0,0,1-1.64.25,3.69,3.69,0,0,0-1.66.17c-.6.14-2.16,1.61-2.66,1.72s-1.39-.26-1.76.11-1.93.3-2.15.69-.24.23-.69.48c-.25.13-.59.88-.91,1.19.85-.2,1.25-.56,2-.35a10.73,10.73,0,0,1,1.81,1.17c.28.17,3.9,0,4-.52s1.83-2.93,2.35-2.89c.28,0,.35-.73.6-.87a19.43,19.43,0,0,1,2.55-.91C58.76,108.36,58.92,108.23,59.07,108.08Z" style="fill:url(#radial-gradient-3)"/><path d="M53,113.18c.12.06.12-.33.27-.35a2.71,2.71,0,0,1,2.19.23,1.6,1.6,0,0,0,1.5.2c.45-.11.89.33,1.61.5s2.16,1.6,2.66,1.71,1.39-.25,1.76.11,1.93.31,2.15.7.24.22.69.48c.25.13.59.88.91,1.18-.85-.19-1.25-.55-2-.34a10.15,10.15,0,0,0-1.81,1.17c-.28.16-3.9,0-4-.53s-1.83-2.92-2.35-2.88c-.28,0-.35-.73-.6-.87a17.86,17.86,0,0,0-2.45-1A1.1,1.1,0,0,1,53,113.18Z" style="fill:url(#radial-gradient-4)"/><path d="M53.16,113c.38-.65,2.05-3,2.35-2.89s.36-.42.48-.65a7.9,7.9,0,0,1,2.4-1c.32,0,1.33-1.12,1.76-1.12a3.67,3.67,0,0,1,2.12.78,4.31,4.31,0,0,1,.9.74s-.24.73,0,.73,2.07-.46,2.07-.46l1.26.42s.38,1.1.7,1.1.85.94.85.94a11,11,0,0,1,1.75,0,1.27,1.27,0,0,1,.8.58,2,2,0,0,1,.09.63,3.78,3.78,0,0,0-1.34-.36c-.31.09-1,.23-1,.49s-.76.27-.9.45-1.75-.53-2.06-.45-2.24-.31-2.33-.08-.49.31-.72.62-1.3.41-1.48.54-1,.27-1,.4-.36,0-.36,0a2.57,2.57,0,0,0-1-.69,11,11,0,0,0-1.67-.48c-.35,0-.89.32-1,.09s-.71-.62-.94-.49a3.15,3.15,0,0,1-1.07.22A6.49,6.49,0,0,1,53.16,113Z" style="fill:url(#linear-gradient-34)"/><path d="M56.67,123.5a40.27,40.27,0,0,0,7-.57c-.48-.47-2.53-.5-2.53-.63,0-.78-.39-.86-.85-.89s-1-.71-1.29-.74c-.52,0-.47.1-.83-.17s-1.71.42-2.25.2-1.17.49-1.67.58-2.51-.65-3.11-.55-1.31-.1-1.68.17a1.58,1.58,0,0,1-1.46.39,2.69,2.69,0,0,0-2.08.63A32.51,32.51,0,0,0,56.67,123.5Z" style="fill:url(#radial-gradient-5)"/></g></g></g></svg>