<svg id="Label_Soap_A" data-name="Label Soap A" xmlns="http://www.w3.org/2000/svg" xmlns:xlink="http://www.w3.org/1999/xlink" viewBox="0 0 285 141"><defs><linearGradient id="linear-gradient" x1="42.84" y1="14.52" x2="45.67" y2="14.52" gradientUnits="userSpaceOnUse"><stop offset="0" stop-color="#fff"/><stop offset="1" stop-color="#fff" stop-opacity="0.5"/></linearGradient><linearGradient id="linear-gradient-2" x1="42.21" y1="8.78" x2="46.9" y2="8.78" xlink:href="#linear-gradient"/><linearGradient id="linear-gradient-3" x1="23.18" y1="76.8" x2="68.99" y2="76.8" gradientUnits="userSpaceOnUse"><stop offset="0" stop-color="#6d2600"/><stop offset="0.41" stop-color="#fff" stop-opacity="0"/><stop offset="0.78" stop-color="#ff0"/><stop offset="1" stop-color="#9e0000"/></linearGradient><linearGradient id="linear-gradient-4" x1="42.87" y1="26.32" x2="46.89" y2="26.32" gradientUnits="userSpaceOnUse"><stop offset="0" stop-color="#fff"/><stop offset="1" stop-color="#fff" stop-opacity="0.4"/></linearGradient><linearGradient id="linear-gradient-5" x1="31.11" y1="69.37" x2="62.19" y2="77.7" gradientUnits="userSpaceOnUse"><stop offset="0" stop-color="#fff" stop-opacity="0.3"/><stop offset="0.04" stop-color="#fff" stop-opacity="0.43"/><stop offset="0.09" stop-color="#fff" stop-opacity="0.59"/><stop offset="0.14" stop-color="#fff" stop-opacity="0.7"/><stop offset="0.18" stop-color="#fff" stop-opacity="0.77"/><stop offset="0.21" stop-color="#fff" stop-opacity="0.8"/><stop offset="0.45" stop-color="#fff" stop-opacity="0.5"/><stop offset="1" stop-color="#fff" stop-opacity="0"/></linearGradient><linearGradient id="linear-gradient-6" x1="27.42" y1="36.12" x2="44.29" y2="36.12" xlink:href="#linear-gradient-4"/><linearGradient id="linear-gradient-7" x1="28.09" y1="99.57" x2="38.02" y2="99.57" xlink:href="#linear-gradient-4"/><linearGradient id="linear-gradient-8" x1="46.86" y1="98.86" x2="65.29" y2="98.86" gradientUnits="userSpaceOnUse"><stop offset="0" stop-color="#fff" stop-opacity="0"/><stop offset="1" stop-color="#fff"/></linearGradient><linearGradient id="linear-gradient-9" x1="27.11" y1="49.11" x2="63.57" y2="49.75" gradientUnits="userSpaceOnUse"><stop offset="0" stop-color="#c62f00"/><stop offset="0.4" stop-color="#c62f00" stop-opacity="0.2"/><stop offset="0.61" stop-color="#c62f00" stop-opacity="0.2"/><stop offset="1" stop-color="#c62f00"/></linearGradient><linearGradient id="linear-gradient-10" x1="46.71" y1="40.17" x2="62.37" y2="35.08" xlink:href="#linear-gradient-8"/><linearGradient id="linear-gradient-11" x1="43.58" y1="59.48" x2="60.35" y2="59.48" xlink:href="#linear-gradient-8"/><linearGradient id="linear-gradient-12" x1="54.09" y1="99.97" x2="104" y2="99.97" gradientUnits="userSpaceOnUse"><stop offset="0" stop-color="#8dcae4"/><stop offset="0.5" stop-color="#8dcae4" stop-opacity="0"/><stop offset="1" stop-color="#8dcae4"/></linearGradient><radialGradient id="radial-gradient" cx="249.07" cy="1027.76" r="21.45" gradientTransform="translate(-112.85 31.6) scale(0.77 0.09)" gradientUnits="userSpaceOnUse"><stop offset="0" stop-color="#a38507" stop-opacity="0.4"/><stop offset="1" stop-color="#a38507"/></radialGradient><linearGradient id="linear-gradient-13" x1="87.12" y1="75.56" x2="93.58" y2="75.22" gradientUnits="userSpaceOnUse"><stop offset="0" stop-color="#fff" stop-opacity="0"/><stop offset="0.14" stop-color="#fff" stop-opacity="0.15"/><stop offset="0.38" stop-color="#fff" stop-opacity="0.39"/><stop offset="0.56" stop-color="#fff" stop-opacity="0.54"/><stop offset="0.66" stop-color="#fff" stop-opacity="0.6"/><stop offset="0.71" stop-color="#fff" stop-opacity="0.54"/><stop offset="0.8" stop-color="#fff" stop-opacity="0.39"/><stop offset="0.93" stop-color="#fff" stop-opacity="0.15"/><stop offset="1" stop-color="#fff" stop-opacity="0"/></linearGradient><linearGradient id="linear-gradient-14" x1="85.36" y1="101.14" x2="94.71" y2="100.65" xlink:href="#linear-gradient-13"/><radialGradient id="radial-gradient-2" cx="78.77" cy="118" r="13.11" gradientTransform="translate(0 104.07) scale(1 0.12)" gradientUnits="userSpaceOnUse"><stop offset="0" stop-opacity="0.4"/><stop offset="1" stop-color="#c62f00"/></radialGradient><linearGradient id="linear-gradient-15" x1="78.1" y1="99.7" x2="79.52" y2="107.73" gradientUnits="userSpaceOnUse"><stop offset="0" stop-color="#c62f00"/><stop offset="0.14" stop-color="#d84200" stop-opacity="0.69"/><stop offset="0.31" stop-color="#ed5900" stop-opacity="0.32"/><stop offset="0.44" stop-color="#fa6700" stop-opacity="0.09"/><stop offset="0.5" stop-color="#ff6d00" stop-opacity="0"/><stop offset="0.56" stop-color="#fa6800" stop-opacity="0.08"/><stop offset="0.68" stop-color="#ee5b00" stop-opacity="0.29"/><stop offset="0.84" stop-color="#db4600" stop-opacity="0.63"/><stop offset="1" stop-color="#c62f00"/></linearGradient><linearGradient id="linear-gradient-16" x1="78.83" y1="100.94" x2="78.83" y2="106.49" gradientUnits="userSpaceOnUse"><stop offset="0" stop-color="#c62f00" stop-opacity="0"/><stop offset="0.05" stop-color="#c62f00" stop-opacity="0.12"/><stop offset="0.17" stop-color="#c62f00" stop-opacity="0.35"/><stop offset="0.3" stop-color="#c62f00" stop-opacity="0.55"/><stop offset="0.42" stop-color="#c62f00" stop-opacity="0.71"/><stop offset="0.55" stop-color="#c62f00" stop-opacity="0.84"/><stop offset="0.69" stop-color="#c62f00" stop-opacity="0.93"/><stop offset="0.83" stop-color="#c62f00" stop-opacity="0.98"/><stop offset="1" stop-color="#c62f00"/></linearGradient><linearGradient id="linear-gradient-17" x1="-988.34" y1="103.05" x2="-1000.72" y2="103.05" gradientTransform="matrix(-1, 0, 0, 1, -900, 0)" xlink:href="#linear-gradient-8"/><linearGradient id="linear-gradient-18" x1="69.78" y1="102.97" x2="57.83" y2="102.97" xlink:href="#linear-gradient-8"/><linearGradient id="linear-gradient-19" x1="59.2" y1="116.06" x2="98.5" y2="116.06" xlink:href="#linear-gradient-3"/><linearGradient id="linear-gradient-20" x1="55.04" y1="75.72" x2="102.65" y2="75.72" gradientUnits="userSpaceOnUse"><stop offset="0" stop-color="#fff" stop-opacity="0.8"/><stop offset="0.4" stop-color="#fff" stop-opacity="0.35"/><stop offset="1" stop-color="#fff"/></linearGradient><linearGradient id="linear-gradient-21" x1="66.7" y1="125.37" x2="75.37" y2="125.22" gradientUnits="userSpaceOnUse"><stop offset="0.08" stop-color="#fff" stop-opacity="0"/><stop offset="0.15" stop-color="#fff" stop-opacity="0.21"/><stop offset="0.27" stop-color="#fff" stop-opacity="0.54"/><stop offset="0.37" stop-color="#fff" stop-opacity="0.79"/><stop offset="0.45" stop-color="#fff" stop-opacity="0.94"/><stop offset="0.48" stop-color="#fff"/><stop offset="0.52" stop-color="#fff" stop-opacity="0.94"/><stop offset="0.6" stop-color="#fff" stop-opacity="0.79"/><stop offset="0.7" stop-color="#fff" stop-opacity="0.54"/><stop offset="0.82" stop-color="#fff" stop-opacity="0.21"/><stop offset="0.89" stop-color="#fff" stop-opacity="0"/></linearGradient><linearGradient id="linear-gradient-22" x1="62.57" y1="101.99" x2="73.76" y2="101.2" xlink:href="#linear-gradient-21"/><linearGradient id="linear-gradient-23" x1="60.71" y1="76.36" x2="70.04" y2="79.39" xlink:href="#linear-gradient-21"/><linearGradient id="linear-gradient-24" x1="59.58" y1="78.11" x2="73.81" y2="78.11" gradientUnits="userSpaceOnUse"><stop offset="0" stop-color="#fff" stop-opacity="0"/><stop offset="0.09" stop-color="#fff" stop-opacity="0.21"/><stop offset="0.23" stop-color="#fff" stop-opacity="0.54"/><stop offset="0.35" stop-color="#fff" stop-opacity="0.79"/><stop offset="0.44" stop-color="#fff" stop-opacity="0.94"/><stop offset="0.48" stop-color="#fff"/><stop offset="0.53" stop-color="#fff" stop-opacity="0.94"/><stop offset="0.62" stop-color="#fff" stop-opacity="0.79"/><stop offset="0.75" stop-color="#fff" stop-opacity="0.54"/><stop offset="0.91" stop-color="#fff" stop-opacity="0.21"/><stop offset="1" stop-color="#fff" stop-opacity="0"/></linearGradient><linearGradient id="linear-gradient-25" x1="86.12" y1="71.54" x2="95.23" y2="74.5" xlink:href="#linear-gradient-21"/></defs><title>one-view-label-a-soap</title><g id="Label_Soap_A-2" data-name="Label Soap A"><circle id="Backdrop" cx="62.54" cy="78.52" r="62.18" style="fill:#8dcae4"/><path id="Label_Back" data-name="Label Back" d="M93.79,53.09a396.92,396.92,0,0,1,70.43-11.48,441,441,0,0,1,71.85.77l-10.93,65.4A381.64,381.64,0,0,0,164.07,97.1a347.36,347.36,0,0,0-62.45,0Z" style="fill:#ebd900"/><g id="Label"><path d="M125.34,57.88q3.47,15.23,5.49,24.64v0a7.48,7.48,0,0,1-1.5.14,9.34,9.34,0,0,1-1.61-.21h0c-.16-.46-.38-1.27-.66-2.41-.35-1.38-.67-2.51-1-3.4-1.07,0-2.48-.07-4.23-.07h-1.47s-.08.51-.25,1.44c-.21,1.28-.41,2.34-.59,3.17s-.4,1.26-.63,1.31a1.23,1.23,0,0,1-.35,0l-.93,0c-.46,0-1,0-1.56,0h-.38v0a11.19,11.19,0,0,0,.31-1.85q.89-5.53,2.05-11.22a91.92,91.92,0,0,1,3.13-11.36,4.17,4.17,0,0,1,.56,0h.77C123.41,58,124.36,58,125.34,57.88Zm-3.19,16q2.25,0,4,0c-1.3-7.35-2.09-11.15-2.34-11.41a1.78,1.78,0,0,0-.53-.11c-.28,0-.51.23-.7.69a23.19,23.19,0,0,0-.77,3.06c-.32,1.59-.71,3.59-1.15,6l-.32,1.75h.7C121.5,73.84,121.87,73.85,122.15,73.87Z" style="fill:#fff"/><path d="M136.36,70.79l-2.69,0h-.11a10.21,10.21,0,0,1-.1-1.61l0-1.72a5.25,5.25,0,0,0,0-.73,4.8,4.8,0,0,1,1.68-.25,4.16,4.16,0,0,1,1.43.18c0,.12,0,.75-.1,1.89s-.11,1.88-.11,2.2v.07Zm0,11.76-2.66,0h-.11a10.21,10.21,0,0,1-.1-1.61l0-1.72a5.25,5.25,0,0,0,0-.73,4.8,4.8,0,0,1,1.68-.25,3.89,3.89,0,0,1,1.4.18c0,.12,0,.75-.11,1.89s-.1,1.88-.1,2.2v.07Z" style="fill:#fff"/><path d="M163.21,66h0a11.61,11.61,0,0,1-2,.18,5.55,5.55,0,0,1-1.57-.18,5,5,0,0,0,.07-.91,3.29,3.29,0,0,0-.56-1.94A3.24,3.24,0,0,0,157.61,62a4.74,4.74,0,0,0-1.54-.24,5.36,5.36,0,0,0-2.35.54A4.27,4.27,0,0,0,152,63.76a3.16,3.16,0,0,0-.52,2.1q.45,2.65,3.67,2.76a9.84,9.84,0,0,1,6.06,1.86,5.47,5.47,0,0,1,2,4.37,8.88,8.88,0,0,1-1,4.31,6.47,6.47,0,0,1-2.6,2.68,7.57,7.57,0,0,1-3.64.89,10.85,10.85,0,0,1-3.89-.72A7.91,7.91,0,0,1,149,79.89a5.54,5.54,0,0,1-1.43-3.32v0a3.85,3.85,0,0,1-.11-.94v-.25c.51,0,.91-.07,1.19-.07l1.3,0q.38,0,1.08,0a3.26,3.26,0,0,0,.86,2.38,5.23,5.23,0,0,0,2.71,1.44,4.34,4.34,0,0,0,1.09.14,4.07,4.07,0,0,0,2.1-.56,3.66,3.66,0,0,0,1.43-1.54,4,4,0,0,0,.39-2.17,3,3,0,0,0-.9-2,3.76,3.76,0,0,0-1.75-.87,22.14,22.14,0,0,0-2.74-.35l-1.33-.11a5.83,5.83,0,0,1-3-1.38,5.51,5.51,0,0,1-1.71-2.57,7.19,7.19,0,0,1-.32-2.07,6.89,6.89,0,0,1,.32-2.1,7.91,7.91,0,0,1,1.62-2.95,7.27,7.27,0,0,1,2.72-2,8.4,8.4,0,0,1,3.18-.56,11.05,11.05,0,0,1,4.59.94,5.68,5.68,0,0,1,3.18,5.29A10.24,10.24,0,0,1,163.21,66Z" style="fill:#fff"/><path d="M165.52,71.18a18.11,18.11,0,0,1,.12-2.24,11.86,11.86,0,0,1,.61-2.35,3.05,3.05,0,0,1,1.94-1.52,10.17,10.17,0,0,1,3.31-.51,4.23,4.23,0,0,0,.7,0l1.4,0a6.23,6.23,0,0,1,4.52,1.54,2.72,2.72,0,0,1,1,1.58,13.62,13.62,0,0,1,.4,3.1c.05,1.29.07,2,.07,2.25-.09,2.34-.2,4.19-.33,5.57a4.62,4.62,0,0,1-.79,2.66,3.32,3.32,0,0,1-1.84,1.29,9.55,9.55,0,0,1-2.78.35c-.42,0-1.05,0-1.89-.07l-1.61,0a5.15,5.15,0,0,1-3.1-1.51,5.52,5.52,0,0,1-1.33-2.69,19.8,19.8,0,0,1-.29-3.71V73.07C165.59,72.21,165.56,71.58,165.52,71.18Zm7.14-3.33a4.28,4.28,0,0,0-3.43,1.23,2.77,2.77,0,0,0-.58,1.42,14.31,14.31,0,0,0-.09,2.22,11.36,11.36,0,0,0,0,1.4c0,.58,0,1,0,1.36L168.7,77a2.72,2.72,0,0,0,.79,2,3.69,3.69,0,0,0,1.73.79,9.77,9.77,0,0,0,1.44.1,5.38,5.38,0,0,0,2.38-.49,2.33,2.33,0,0,0,1.29-1.61,10.37,10.37,0,0,0,.14-1.43q.18-2.45.18-3.33a7.18,7.18,0,0,0-.84-3.71A3.37,3.37,0,0,0,172.66,67.85Z" style="fill:#fff"/><path d="M193.45,65a17.62,17.62,0,0,1,2.06.07l.91.07a6.9,6.9,0,0,1,.07.84v.35c0,.54,0,1.35,0,2.42,0,.89,0,2.19.07,3.92l0,3.92c0,1.68-.05,3.21-.14,4.58v.46a2.48,2.48,0,0,1-.07.63.46.46,0,0,1-.38.35h-.6l-1.12,0a3.34,3.34,0,0,0-.49,0l-.38,0c-.24-.07-.35-.32-.35-.77a2.24,2.24,0,0,1,0-.63,3.56,3.56,0,0,0,.06-.59,4.35,4.35,0,0,1-2.66,1.57,15.93,15.93,0,0,1-3.57.42A3.53,3.53,0,0,1,184,81.14a9.72,9.72,0,0,1-1.73-3.66,17.11,17.11,0,0,1-.56-4.24,10.46,10.46,0,0,1,.77-4.09,7.12,7.12,0,0,1,2.12-2.89,4.86,4.86,0,0,1,3-1.1l1.12,0a8,8,0,0,1,2.61.37,2.66,2.66,0,0,1,1.52,1.35,5.52,5.52,0,0,1,.07-.81c.05-.46.07-.79.07-1C193,65,193.14,65,193.45,65Zm-3.92,3.15a4.74,4.74,0,0,0-3.07.93,4,4,0,0,0-1.52,2.29,10.53,10.53,0,0,0-.28,2.73c.12,3.76,1.63,5.56,4.55,5.39a4.23,4.23,0,0,0,2.59-.63,2.72,2.72,0,0,0,1-1.78,22.82,22.82,0,0,0,.19-3.47,20.4,20.4,0,0,0-.21-3.55,2,2,0,0,0-.89-1.42A6.08,6.08,0,0,0,189.53,68.13Z" style="fill:#fff"/><path d="M202.83,89.24v.38s-.16.09-.46.13-.64,0-1,0a10.2,10.2,0,0,1-1.51-.11V87.38q0-3.28-.14-9.66c0-1-.05-2.28-.07-3.76s0-3.15,0-5,0-3,0-3.85l2.28,0c.46,0,.8,0,1,0a.74.74,0,0,1,0,.3,4.7,4.7,0,0,1,0,.54c0,.09,0,.2,0,.31a3,3,0,0,1,0,.49c0,.12.07.17.12.16s.14-.1.23-.26a3.47,3.47,0,0,1,1.72-1.16,7.18,7.18,0,0,1,2.2-.35,5.91,5.91,0,0,1,.77,0,5.5,5.5,0,0,1,3.69,1.5,6.65,6.65,0,0,1,1.7,3.36,29,29,0,0,1,.49,5,14.23,14.23,0,0,1-.68,4.62,3.68,3.68,0,0,1-2.15,2.48,7.24,7.24,0,0,1-2.1.46q-.39,0-1.23,0a17.41,17.41,0,0,1-3.25-.28c-1-.18-1.53-.42-1.58-.7l.07,4.27c0,.52,0,1.15-.07,1.89ZM206,79.93a14.24,14.24,0,0,0,2.5-.16A2.78,2.78,0,0,0,210,79a4.23,4.23,0,0,0,1-1.88,12.49,12.49,0,0,0,.28-2.55,10.76,10.76,0,0,0-1-4.83q-1-2-3.83-1.82a3.82,3.82,0,0,0-2.47.93A3.7,3.7,0,0,0,203,71a24.14,24.14,0,0,0-.21,3.64,20.72,20.72,0,0,0,.21,3.55,1.91,1.91,0,0,0,.85,1.42A5,5,0,0,0,206,79.93Z" style="fill:#fff"/></g><g id="Soap_A" data-name="Soap A"><path d="M67.19,76.09c-1.13-6.23-4.41-12.3-4.41-19.3,0-4.42,6.84-10.64,5.6-14.54-2.56-8-11.08-13.48-16.86-15-.69-.18-.65-2.42-1-2.64-.28-.44.49-2.25-.24-2.79-1.88-1.42-9.23-1.91-9.58.24-.13.79-.11,4.39-.24,4.47a17.81,17.81,0,0,1-1.92.64A23.66,23.66,0,0,0,23.33,42.33c-1.21,3.91,5.51,9.87,5.51,14.3,0,6.3-2.3,12.76-3.19,18.55-2.1,13.65-2.44,23.76,1.75,41.25,1.25,2.51,7.85,3.66,19.83,3.66s19.31-1.59,20.21-4.35C70.94,98.94,69.29,87.63,67.19,76.09Z" style="fill:#fff;opacity:0.30000000000000004"/><path d="M40.32,9.54c0,1,1.44,1.68,1.44,2.46s-.1,4.16-.1,4.16l8,.16s0-3.68,0-4.38C49.69,11,51,10.25,51,9.42c0-.52-3.41-2.53-4-2.53s-1.87,0-2.44,0S40.32,9,40.32,9.54Z" style="fill:#c62f00"/><path d="M45.44,11.9a11.08,11.08,0,0,1-2.22-.15c-.48,0-.4,3.57-.34,4.38.09,1.36,2.76,1.52,2.75.47C45.61,15.2,45.82,11.87,45.44,11.9Z" style="opacity:0.4;fill:url(#linear-gradient)"/><path d="M48.65,11.9c-.16,0-.4-.05-.38.07.08.51,0,3.63,0,4.44.09,1.36.55,1.24.53.19C48.82,15.2,49,11.88,48.65,11.9Z" style="fill:#fff;opacity:0.1"/><path d="M46,7.71c-.89.17-1.14-.11-1.56.11s-2.81,1.47-2,1.69,3.44.59,4.39.13C47.29,9.38,46.23,7.65,46,7.71Z" style="opacity:0.4;fill:url(#linear-gradient-2)"/><path d="M47,7.75c-.05,0,0-.15.48.07s2.79,1.43,2,1.69a2.69,2.69,0,0,1-.32.1C48.63,9.74,47.74,8.16,47,7.75Z" style="fill:#fff;opacity:0.1"/><ellipse cx="46.65" cy="114.87" rx="20.26" ry="2.92" style="fill:#dd863e;stroke:#823500;stroke-miterlimit:10;stroke-width:1.38934657847905px;opacity:0.6000000000000001"/><path d="M67.19,76.09c-1.13-6.23-4.41-12.3-4.41-19.3,0-4.42,6.84-10.64,5.6-14.54-.9-2.79-2.08-8.6-5.07-7.87-6,1.46-14,1.59-17.19,1.66a158.63,158.63,0,0,1-18.34-1.31c-3-.45-3.58,4.76-4.45,7.6-1.21,3.91,5.51,9.87,5.51,14.3,0,6.3-2.3,12.76-3.19,18.55-2.1,13.65-2.92,23.24,1.28,40.73,1.24,2.51,8.56,3.23,20.53,3.23s18.23-1.45,19.13-4.21C70.09,98.13,69.29,87.63,67.19,76.09Z" style="fill:#ff6d00;opacity:0.8"/><path d="M28.39,34.85a110.51,110.51,0,0,0,34.43-.27" style="fill:none;stroke:#e55c00;stroke-miterlimit:10;stroke-width:0.694673289239525px"/><path d="M67.19,76.09c-1.13-6.23-4.41-12.3-4.41-19.3,0-4.42,6.84-10.64,5.6-14.54-.94-2.92-2.2-8.53-5.35-7.73C57.5,35.92,50.6,36,46.12,36A116,116,0,0,1,28,34.66c-3-.58-3.79,4.83-4.67,7.67-1.21,3.91,5.51,9.87,5.51,14.3,0,6.3-2.3,12.76-3.19,18.55-2.1,13.65-2.92,23.24,1.28,40.73,1.24,2.51,8.56,3.23,20.53,3.23s18.23-1.45,19.13-4.21C70.09,98.13,69.29,87.63,67.19,76.09Z" style="opacity:0.2;fill:url(#linear-gradient-3)"/><path d="M68.19,75.85c-1.13-6.18-3.48-12.51-3.48-19.45,0-4.4,6.1-10.73,4.87-14.59-2.54-7.94-9-12.5-16-15.28a8.94,8.94,0,0,0-1.39-.41v-1L50.1,25c.11,1.06-.25,2.54-.05,2.85a15.05,15.05,0,0,0,2.14.65,20.86,20.86,0,0,1,14,13.6c1.16,3.63-4.83,10.48-4.83,14.6,0,6.52,2.91,13.9,4,19.69,2,10.76,3.49,21.3.23,36.94-.84,2.58-7.66,4.06-18.82,4.06S29.38,116.31,28.22,114c-3.91-16.29-3.59-25.72-1.64-38.43.83-5.4,3.3-12.61,3.3-18.48,0-4.13-5.86-11-4.73-14.59,2.41-7.82,8-12.65,13-14.14,1.06-.31,2.17-.7,2.94-.83a14.26,14.26,0,0,0,.16-2.39l-2.27,0L39,26a11.24,11.24,0,0,0-2,.58c-5.12,1.95-12,6.95-14.59,15.28-1.2,3.88,4.86,10.88,4.86,15.28,0,6.25-1.89,13-2.78,18.76-2.08,13.54-3.47,23.62.7,41,0,2.31,9.64,4.17,21.53,4.17s21.54-1.86,21.54-4.17C71.66,100.16,70.27,87.31,68.19,75.85Z" style="fill:#c62f00"/><path d="M40.78,27.18a32.89,32.89,0,0,1,10.11.52" style="fill:none;stroke:#c62f00;stroke-miterlimit:10;stroke-width:0.694673289239525px"/><path d="M46.67,27.67c-1.41-.1-3-.12-3.76-.09a12.58,12.58,0,0,1,.26-2.51l3.66-.1S47,27.7,46.67,27.67Z" style="opacity:0.7000000000000001;fill:url(#linear-gradient-4)"/><path d="M53.29,25.17a76.21,76.21,0,0,1-15.4,0,.71.71,0,0,1-.63-.72l.23-7.11A1.4,1.4,0,0,1,38.79,16a119.37,119.37,0,0,1,13.64,0,1.4,1.4,0,0,1,1.32,1.36l.17,7.09A.71.71,0,0,1,53.29,25.17Z" style="fill:#6d6d6d"/><path d="M52,23.31a73.29,73.29,0,0,1-13.13.2l0-6.3a103.31,103.31,0,0,1,13,.21Z" style="fill:#d6d6d6"/><path d="M39.94,17.16v6.43a54.59,54.59,0,0,0,6.25.08V17.14C44.1,17.07,42.09,17.05,39.94,17.16Z" style="fill:#eaeaea"/><path d="M41.59,17.1v6.58c.77,0,1.52.05,2.27.05V17.09C43.11,17.08,42.35,17.08,41.59,17.1Z" style="fill:#fff"/><path d="M50.48,23.42,52,23.31l-.12-5.89-1.36-.07Z" style="fill:#e8e8e8"/><path d="M46.1,87.36c-4.37,0-10.2-.74-13.18-4.24-1.79-2.11-2.39-5-1.79-8.73,1-6.29,2.94-18,7.49-18,1.2,0,2.63.76,4.25,2.27A20.58,20.58,0,0,0,52,63.6c4.1,1.24,7.06,2.13,8.63,10.95.7,3.92.29,6.8-1.27,8.79-1.79,2.29-5.17,3.57-10.32,3.92C48.05,87.33,47.05,87.36,46.1,87.36Z" style="fill:#ff9d00"/><path d="M38.62,57.1h0c1,0,2.31.73,3.77,2.09a21.48,21.48,0,0,0,9.44,5.07c4,1.21,6.65,2,8.15,10.41.66,3.72.29,6.41-1.14,8.24C57.18,85,54,86.23,49,86.57c-1,.06-2,.1-2.92.1-4.22,0-9.85-.7-12.65-4-1.65-1.94-2.2-4.69-1.63-8.17.92-5.65,2.84-17.4,6.8-17.4m0-1.39c-4.73,0-6.67,9.4-8.17,18.56C28.61,85.49,37.73,88.06,46.1,88.06c1,0,2,0,3-.11,11-.74,13.62-5.75,12.24-13.52-2.67-15-9.47-8.26-18-16.25-1.83-1.72-3.39-2.47-4.72-2.47Z" style="fill:#eac69b"/><g style="opacity:0.6000000000000001"><path d="M61.35,74.43C62.73,82.2,60.15,87.21,49.11,88c-9,.6-20.72-1.09-18.66-13.68C32.37,62.52,35,50.39,43.34,58.18,51.88,66.17,58.68,59.47,61.35,74.43Z" style="fill:url(#linear-gradient-5)"/></g><path d="M27.42,41.94c-.26.87,5.47,2.22,5.6,1.4C34.25,35.55,40.25,31,43.84,29.29c1.84-.87-2.27-1.28-7.29,1.58A19,19,0,0,0,27.42,41.94Z" style="opacity:0.5;fill:url(#linear-gradient-6)"/><path d="M38,113.83c-.34,1.21-7.92-.39-8.06-2.63-.08-1.34-3.46-20.18-.85-26.31,2.49,5.26,8.21,4.78,7.93,7C35.7,102.86,38.33,112.61,38,113.83Z" style="opacity:0.5;fill:url(#linear-gradient-7)"/><path d="M48,114.44c4,1.45,14-.42,15.56-1.81,1-.87,3.25-17.38.2-29.88-2.21,9.54-16.11,8.16-16.39,10.4C46.47,100.29,46.82,114,48,114.44Z" style="opacity:0.30000000000000004;fill:url(#linear-gradient-8)"/><path d="M32.17,53.13c10.67-1.7,23.23.1,26.5,1.48,1.41.6,6.15-10,4.7-9.51-4.58,1.65-25.11,2.64-36-.94C26.1,43.73,31.42,53.25,32.17,53.13Z" style="opacity:0.4;fill:url(#linear-gradient-9)"/><path d="M64.17,43.43c-1.47.84-16,2.42-15.87,1.6.53-4.66,5-11.84,2.24-14.55-1.44-1.44,4.75.21,9.4,4C62.65,36.68,65.71,42.55,64.17,43.43Z" style="opacity:0.30000000000000004;fill:url(#linear-gradient-10)"/><path d="M50.33,59.87c2.68.43,7.73,2.1,9.79,4.33.9,1-1.1-5.15-.88-7.41.09-.88-16.48-3.43-15.63-1.34C44.18,56.84,49.1,59.67,50.33,59.87Z" style="opacity:0.30000000000000004;fill:url(#linear-gradient-11)"/></g><g id="Cup_A" data-name="Cup A"><path d="M103.87,75.48c-.68-1.85-2.34-3-8.29-3.76A140.17,140.17,0,0,0,79,70.86a139.44,139.44,0,0,0-16.57.86c-4.06.52-7.53,1.42-8.2,3.8-.38,1.33.19,2.37,2.26,3.2l3.41,41.33c0,.36.75.61,1.07.7l.42,4.06c.51,2.44,7.2,4.26,17.45,4.26s16.55-1.91,17.45-4.26l.5-4c.3-.1,1-.44,1.06-.85l3.79-41.17C103.51,77.93,104.34,76.76,103.87,75.48Z" style="opacity:0.8;fill:url(#linear-gradient-12)"/><path d="M94.83,124.6c0,1.1-7,3-16.06,3s-16.37-1.91-16.37-3,7.4-2.52,16.45-2.52S94.83,123.51,94.83,124.6Z" style="opacity:0.5;fill:url(#radial-gradient)"/><path d="M93.56,74.85c-2-.18-3.64-.35-6.44-.46,0,.66,0,1.45.06,2.34,2.59-.14,4.71-.34,6.42-.56C93.6,75.68,93.58,75.23,93.56,74.85Z" style="opacity:0.30000000000000004;fill:url(#linear-gradient-13)"/><path d="M87.22,79.65c.07,9.17-.14,24.77-.82,37.52-.26,4.94.14,5.46,2.93,5.28,1.26-.09,1.09-2.41,1.42-4.94,1.14-8.52,2.63-28.33,2.84-38.33C91.7,79.39,89.55,79.55,87.22,79.65Z" style="opacity:0.30000000000000004;fill:url(#linear-gradient-14)"/><path d="M60.84,119.57c0-1.58,8.94-2.58,18-2.58s17.86,1.14,17.86,2.58" style="fill:none;stroke-miterlimit:10;stroke-width:1.1149077481622px;opacity:0.35000000000000003;stroke:url(#radial-gradient-2)"/><path d="M96.87,119.54l-1.19.32c-.37.1-.42,4.87-.77,5-10.4,4.69-21.79,4.25-32.48.35-.41-.15-.23-4.89-.66-5l-1-.22L59.2,103.83c3.57-3.73,38.43-3.25,39.28.31Z" style="fill:#ff6d00;opacity:0.7000000000000001"/><g style="opacity:0.9"><ellipse cx="78.81" cy="103.71" rx="18.86" ry="2.46" style="fill:url(#linear-gradient-15)"/><path d="M98,103.71a.89.89,0,0,1-.47.71,3,3,0,0,1-.59.31,8.65,8.65,0,0,1-1.19.38c-.79.21-1.59.35-2.39.48-1.61.25-3.22.42-4.83.55-3.22.24-6.45.33-9.68.33s-6.46-.11-9.68-.37c-1.61-.13-3.22-.29-4.82-.55a24.22,24.22,0,0,1-2.4-.47,10.12,10.12,0,0,1-1.18-.38,3.61,3.61,0,0,1-.58-.31.73.73,0,0,1,0-1.35,2.91,2.91,0,0,1,.58-.3,9,9,0,0,1,1.18-.38c.8-.2,1.6-.35,2.4-.47,1.6-.24,3.21-.4,4.82-.53,3.22-.25,6.45-.35,9.68-.36s6.46.08,9.68.33c1.61.12,3.22.28,4.82.52.81.13,1.61.27,2.4.47a10.27,10.27,0,0,1,1.19.38,2.57,2.57,0,0,1,.59.31A.88.88,0,0,1,98,103.71Zm-.58,0a.49.49,0,0,0-.22-.23,3.05,3.05,0,0,0-.48-.25,9.58,9.58,0,0,0-1.11-.35c-.77-.2-1.55-.34-2.34-.47-1.58-.25-3.18-.41-4.78-.54-3.21-.25-6.43-.36-9.64-.37s-6.44.09-9.64.33c-1.6.13-3.2.3-4.79.54-.79.13-1.57.27-2.34.47a8.13,8.13,0,0,0-1.12.36c-.33.12-.74.4-.72.51s.39.39.72.51a7.27,7.27,0,0,0,1.12.35,23.23,23.23,0,0,0,2.35.46c1.58.25,3.18.4,4.78.53,3.2.24,6.42.33,9.64.33s6.43-.11,9.63-.37c1.6-.12,3.2-.28,4.78-.52.79-.12,1.58-.27,2.35-.46a9.58,9.58,0,0,0,1.11-.35,3.09,3.09,0,0,0,.48-.25C97.31,103.85,97.39,103.73,97.38,103.71Z" style="fill:url(#linear-gradient-16)"/></g><polygon points="88.34 127.57 95.35 125.31 100.72 78.54 90.22 79.97 88.34 127.57" style="opacity:0.4;fill:url(#linear-gradient-17)"/><path d="M95.87,125.06c-10.83,4-22,3.86-34.19-.06L57.84,78.62c14.63,2.18,28.55,2.5,42.32.18Z" style="fill:#fff;opacity:0.15"/><polygon points="69.78 127.07 61.75 125.06 57.83 78.86 67.65 80.04 69.78 127.07" style="opacity:0.4;fill:url(#linear-gradient-18)"/><path d="M96.87,119.54l-1.19.32c-.37.1-.42,4.87-.77,5-10.4,4.69-21.79,4.25-32.48.35-.41-.15-.23-4.89-.66-5l-1-.22L59.2,103.83c7.6,3.66,33.84,2.77,39.3,0Z" style="opacity:0.2;fill:url(#linear-gradient-19)"/><path d="M58.66,75.24c15.55-3,27.5-1.54,40.55,0A117.5,117.5,0,0,1,58.66,75.24Z" style="fill:#fff;opacity:0.30000000000000004"/><path d="M102.59,75.47s-.11-.34-.12-.36c-.25-.82-1-1.84-7.18-2.63a134.5,134.5,0,0,0-16.35-.87,137.59,137.59,0,0,0-16.4.8c-6.2.79-6.81,1.85-7.1,2.66,0,0-.29.05,0,.21l0,.09c-.16-.18,0-.05,0-.05-.56-.17-.16.48-.17.57,0,1.06,2.09,2.3,7.5,3A130.32,130.32,0,0,0,79,79.83,129.89,129.89,0,0,0,95.11,79C100.91,78.22,103,76.59,102.59,75.47ZM79,73.56c11.23,0,18.22.56,20.74,1.45-.54.1-1,.24,0,.1-1,.14-6.43,1.84-20.77,1.84-13.08,0-19.54-1.51-20.72-1.88.81.26,0,0,0,0C60.69,74.17,67.55,73.56,79,73.56Z" style="opacity:0.5;fill:url(#linear-gradient-20)"/><path d="M57.59,75v0c.88.87,8.29,2.15,21.37,2.15,14.34,0,20.44-1.44,21.14-2.14,0,0,0,0,0-.06-2.51-.89-9.94-1.83-21.17-1.83C67.56,73.15,60.05,74.12,57.59,75ZM79,76.63a114.66,114.66,0,0,1-18.68-1.21A114.66,114.66,0,0,1,79,74.21a115.46,115.46,0,0,1,18.74,1.21A115.46,115.46,0,0,1,79,76.63Z" style="fill:#4e8b9b"/><path d="M103.87,75.48c-.68-1.85-2.34-3-8.29-3.76A140.17,140.17,0,0,0,79,70.86a139.44,139.44,0,0,0-16.57.86c-4.06.52-7.53,1.42-8.2,3.8-.38,1.33.19,2.37,2.26,3.2l3.41,41.33c0,.36.75.61,1.07.7l.42,4.06c.51,2.44,7.2,4.26,17.45,4.26s16.55-1.91,17.45-4.26l.5-4c.3-.1,1-.44,1.06-.85l3.79-41.17C103.51,77.93,104.34,76.76,103.87,75.48Zm-10,48.43c-2.4,2.34-8.21,3.16-13.43,3.16-4.45,0-13.32-.26-17-2.73-.57-.38-.57-2-.68-3.29a76.16,76.16,0,0,0,17.71,2,59,59,0,0,0,14-2C94.27,122.22,94.25,123.57,93.89,123.91Zm1.27-4.51c-1.45,1-6.54,2.63-16.43,2.63s-15-1.32-16.49-2.29c-1.07-.72-3-30.6-3.43-40.33,1,.22,2.1.42,3.42.6a122.47,122.47,0,0,0,16.42,1.18,148.6,148.6,0,0,0,17-.8,27.44,27.44,0,0,0,3.22-.59C98.51,91.36,96.24,118.69,95.16,119.4Zm-.07-40.84A129.75,129.75,0,0,1,79,79.41a132.26,132.26,0,0,1-16.23-.85c-5.41-.71-7.23-1.72-7.26-2.77a2.86,2.86,0,0,1,.06-.37h0c.29-.81.84-1.85,7-2.64A136.18,136.18,0,0,1,79,71.93a134.87,134.87,0,0,1,16.33.85c6.13.79,6.64,1.77,6.89,2.59a.49.49,0,0,0,0,.07C102.66,76.57,100.89,77.78,95.09,78.56Z" style="fill:#4e8b9b"/><path d="M75.17,123.33a57.85,57.85,0,0,1-8.51-1,25.87,25.87,0,0,0,.31,4.73,37.32,37.32,0,0,0,8.45,1.09C75.43,127.46,75.29,126.26,75.17,123.33Z" style="opacity:0.6000000000000001;fill:url(#linear-gradient-21)"/><path d="M73,120.15c-1.31-15.63-1.19-31.76-.63-38.56a87,87,0,0,1-10.77-1c0,9.76,1.14,30.08,3.3,38.81a14.53,14.53,0,0,0,.77,2.31c2.91.57,6.26.93,7.46,1C73.15,122,73.1,121.15,73,120.15Z" style="opacity:0.6000000000000001;fill:url(#linear-gradient-22)"/><path d="M69.42,80c.3-1.45.31-2.1,1.4-3-3.23-.16-6.5-.46-9.48-.9-1.29,1.18-.93,1.39-1,2.77A57.51,57.51,0,0,0,69.42,80Z" style="opacity:0.6000000000000001;fill:url(#linear-gradient-23)"/><path d="M59.69,77.49A89.35,89.35,0,0,0,73.8,78.72" style="fill:none;stroke-miterlimit:10;stroke-width:1.1149077481622px;opacity:0.5;stroke:url(#linear-gradient-24)"/><path d="M94.76,74.59A2.73,2.73,0,0,1,96,72.24c-3.23-.39-6.18-.65-9.38-.75a2.61,2.61,0,0,0-1,2.38C87.88,74,92,74.23,94.76,74.59Z" style="opacity:0.4;fill:url(#linear-gradient-25)"/></g></g></svg>