<svg id="Label_Wood_A" data-name="Label Wood A" xmlns="http://www.w3.org/2000/svg" xmlns:xlink="http://www.w3.org/1999/xlink" viewBox="0 0 285 141"><defs><radialGradient id="radial-gradient" cx="102.69" cy="59.64" r="31.6" gradientUnits="userSpaceOnUse"><stop offset="0" stop-color="#ecc8a1"/><stop offset="0.35" stop-color="#ecc69d"/><stop offset="0.67" stop-color="#ecbf93"/><stop offset="0.97" stop-color="#edb481"/><stop offset="1" stop-color="#edb27e"/></radialGradient><radialGradient id="radial-gradient-2" cx="79.48" cy="85.53" r="0.01" gradientUnits="userSpaceOnUse"><stop offset="0" stop-color="#ecc8a1"/><stop offset="0.35" stop-color="#ecc69d"/><stop offset="0.66" stop-color="#ecbf93"/><stop offset="0.95" stop-color="#edb481"/><stop offset="1" stop-color="#edb27d"/></radialGradient><linearGradient id="linear-gradient" x1="63.98" y1="90.44" x2="67.98" y2="74.38" gradientUnits="userSpaceOnUse"><stop offset="0" stop-color="#faf9d7"/><stop offset="0.12" stop-color="#ebe7c5"/><stop offset="0.38" stop-color="#c2b797"/><stop offset="0.73" stop-color="#826c4e"/><stop offset="0.82" stop-color="#71573a"/></linearGradient><linearGradient id="linear-gradient-2" x1="40" y1="116.9" x2="67.78" y2="83.79" gradientUnits="userSpaceOnUse"><stop offset="0" stop-color="#a67c52"/><stop offset="0.08" stop-color="#b18c63"/><stop offset="0.28" stop-color="#cbb38d"/><stop offset="0.48" stop-color="#e0d2ad"/><stop offset="0.67" stop-color="#eee7c4"/><stop offset="0.85" stop-color="#f7f4d2"/><stop offset="1" stop-color="#faf9d7"/></linearGradient><linearGradient id="linear-gradient-3" x1="80.88" y1="100.56" x2="103.71" y2="108.87" gradientUnits="userSpaceOnUse"><stop offset="0" stop-color="#71573a"/><stop offset="0.84" stop-color="#71573a" stop-opacity="0.6"/><stop offset="1" stop-color="#4ec9f5" stop-opacity="0.99"/></linearGradient><linearGradient id="linear-gradient-4" x1="82.36" y1="86.11" x2="24.52" y2="86.11" gradientUnits="userSpaceOnUse"><stop offset="0" stop-color="#faf9d7"/><stop offset="0.25" stop-color="#faf9d7"/><stop offset="1" stop-color="#faf9d7" stop-opacity="0"/></linearGradient><linearGradient id="linear-gradient-5" x1="49.73" y1="92.53" x2="57.14" y2="79.69" gradientUnits="userSpaceOnUse"><stop offset="0" stop-color="#faf9d7" stop-opacity="0.4"/><stop offset="1" stop-color="#faf9d7" stop-opacity="0.4"/></linearGradient><linearGradient id="linear-gradient-6" x1="81.55" y1="94.64" x2="81.55" y2="125.68" gradientUnits="userSpaceOnUse"><stop offset="0" stop-color="#faf9d7"/><stop offset="0.42" stop-color="#faf9d7"/><stop offset="0.7" stop-color="#faf9d7" stop-opacity="0"/><stop offset="1" stop-color="#faf9d7"/></linearGradient><linearGradient id="linear-gradient-7" x1="74.43" y1="122.49" x2="88.67" y2="97.83" gradientUnits="userSpaceOnUse"><stop offset="0" stop-color="#faf9d7" stop-opacity="0.4"/><stop offset="0.42" stop-color="#faf9d7" stop-opacity="0.4"/><stop offset="0.7" stop-color="#faf9d7" stop-opacity="0.4"/><stop offset="1" stop-color="#faf9d7" stop-opacity="0.4"/></linearGradient><linearGradient id="linear-gradient-8" x1="80.53" y1="95.86" x2="102.41" y2="83.23" gradientUnits="userSpaceOnUse"><stop offset="0" stop-color="#faf9d7"/><stop offset="0.32" stop-color="#faf9d7"/><stop offset="1" stop-color="#faf9d7" stop-opacity="0"/></linearGradient><linearGradient id="linear-gradient-9" x1="85.69" y1="99.65" x2="97.35" y2="79.45" xlink:href="#linear-gradient-5"/><linearGradient id="linear-gradient-10" x1="25.11" y1="73.83" x2="25.11" y2="104.87" xlink:href="#linear-gradient-6"/><linearGradient id="linear-gradient-11" x1="17.91" y1="101.64" x2="32.15" y2="76.98" xlink:href="#linear-gradient-7"/><linearGradient id="linear-gradient-12" x1="30.92" y1="60.02" x2="68.33" y2="73.63" xlink:href="#linear-gradient-3"/><linearGradient id="linear-gradient-13" x1="17.9" y1="74.38" x2="32.34" y2="57.17" gradientUnits="userSpaceOnUse"><stop offset="0" stop-color="#a67c52" stop-opacity="0.3"/><stop offset="0.13" stop-color="#b8976e" stop-opacity="0.45"/><stop offset="0.29" stop-color="#ccb48e" stop-opacity="0.62"/><stop offset="0.44" stop-color="#dccda8" stop-opacity="0.75"/><stop offset="0.6" stop-color="#e9e0bd" stop-opacity="0.86"/><stop offset="0.74" stop-color="#f3eecb" stop-opacity="0.94"/><stop offset="0.88" stop-color="#f8f6d4" stop-opacity="0.98"/><stop offset="1" stop-color="#faf9d7"/></linearGradient><linearGradient id="linear-gradient-14" x1="29.62" y1="29.56" x2="29.62" y2="59.37" gradientTransform="matrix(1, 0.02, -0.02, 1.02, -9.52, 13.56)" xlink:href="#linear-gradient-6"/><linearGradient id="linear-gradient-15" x1="11.97" y1="71.74" x2="26.29" y2="47.48" xlink:href="#linear-gradient-7"/><linearGradient id="linear-gradient-16" x1="217.27" y1="-54.97" x2="204.43" y2="-65.26" gradientTransform="matrix(0.93, 0.36, -0.36, 0.93, -192.98, 29.9)" gradientUnits="userSpaceOnUse"><stop offset="0" stop-color="#faf9d7"/><stop offset="0.25" stop-color="#faf9d7"/><stop offset="1" stop-color="#faf9d7"/></linearGradient><linearGradient id="linear-gradient-17" x1="22.92" y1="52.35" x2="27.69" y2="48.52" xlink:href="#linear-gradient-5"/><linearGradient id="linear-gradient-18" x1="31.46" y1="54.67" x2="31.46" y2="85.71" gradientUnits="userSpaceOnUse"><stop offset="0" stop-color="#faf9d7"/><stop offset="0.42" stop-color="#faf9d7"/><stop offset="0.7" stop-color="#faf9d7" stop-opacity="0.3"/><stop offset="1" stop-color="#faf9d7"/></linearGradient><linearGradient id="linear-gradient-19" x1="24.34" y1="82.52" x2="38.58" y2="57.86" xlink:href="#linear-gradient-7"/><linearGradient id="linear-gradient-20" x1="148.03" y1="9.83" x2="169.91" y2="-2.8" gradientTransform="translate(-111.66 13.57) rotate(12.83)" xlink:href="#linear-gradient-8"/><linearGradient id="linear-gradient-21" x1="34.68" y1="60.85" x2="50.53" y2="43.75" xlink:href="#linear-gradient-5"/><linearGradient id="linear-gradient-22" x1="142.22" y1="-5.33" x2="162.31" y2="-16.94" gradientTransform="matrix(0.97, 0.23, -0.23, 0.97, -121, 17.27)" xlink:href="#linear-gradient-8"/><linearGradient id="linear-gradient-23" x1="22.36" y1="49.61" x2="37.11" y2="34.03" xlink:href="#linear-gradient-5"/><radialGradient id="radial-gradient-3" cx="97.37" cy="38.23" r="64.48" gradientUnits="userSpaceOnUse"><stop offset="0" stop-color="#eaa569"/><stop offset="0.26" stop-color="#eaa76c"/><stop offset="0.49" stop-color="#ebae77"/><stop offset="0.71" stop-color="#ecb889"/><stop offset="0.92" stop-color="#edc8a2"/><stop offset="1" stop-color="#eecfae"/></radialGradient><linearGradient id="linear-gradient-24" x1="54.27" y1="27.96" x2="75.35" y2="35.64" xlink:href="#linear-gradient-3"/><linearGradient id="linear-gradient-25" x1="55.31" y1="21.52" x2="55.31" y2="51.65" xlink:href="#linear-gradient-6"/><linearGradient id="linear-gradient-26" x1="48.33" y1="48.6" x2="62.19" y2="24.59" xlink:href="#linear-gradient-7"/><linearGradient id="linear-gradient-27" x1="391.45" y1="-271.26" x2="379.24" y2="-246.9" gradientTransform="matrix(0.7, 0.71, -0.78, 0.77, -428.52, -42.03)" gradientUnits="userSpaceOnUse"><stop offset="0" stop-color="#faf9d7"/><stop offset="0.33" stop-color="#faf9d7"/><stop offset="0.6" stop-color="#faf9d7" stop-opacity="0"/><stop offset="1" stop-color="#faf9d7"/></linearGradient><linearGradient id="linear-gradient-28" x1="28.89" y1="37.64" x2="58.32" y2="28.76" xlink:href="#linear-gradient-7"/><linearGradient id="linear-gradient-29" x1="54.3" y1="22.82" x2="74.39" y2="11.22" xlink:href="#linear-gradient-8"/><linearGradient id="linear-gradient-30" x1="59.03" y1="26.31" x2="69.75" y2="7.74" xlink:href="#linear-gradient-5"/><linearGradient id="linear-gradient-31" x1="40.01" y1="52.49" x2="61.77" y2="26.57" xlink:href="#linear-gradient-2"/><radialGradient id="radial-gradient-4" cx="98.44" cy="21.55" r="0.77" gradientUnits="userSpaceOnUse"><stop offset="0" stop-color="#ecc8a1"/><stop offset="0.32" stop-color="#ecc69d"/><stop offset="0.6" stop-color="#ecbf93"/><stop offset="0.87" stop-color="#ecb481"/><stop offset="1" stop-color="#ecad75"/></radialGradient><linearGradient id="linear-gradient-32" x1="65.42" y1="54.54" x2="98.86" y2="54.54" gradientUnits="userSpaceOnUse"><stop offset="0.19" stop-color="#faf9d7"/><stop offset="0.28" stop-color="#e3debd"/><stop offset="0.48" stop-color="#a89879"/><stop offset="0.65" stop-color="#71573a"/><stop offset="0.73" stop-color="#705b40" stop-opacity="0.97"/><stop offset="0.8" stop-color="#6c6755" stop-opacity="0.89"/><stop offset="0.86" stop-color="#667c76" stop-opacity="0.74"/><stop offset="0.92" stop-color="#5d99a6" stop-opacity="0.54"/><stop offset="0.98" stop-color="#52bee2" stop-opacity="0.28"/><stop offset="1" stop-color="#4ec9f5" stop-opacity="0.2"/></linearGradient><linearGradient id="linear-gradient-33" x1="82.8" y1="25.76" x2="81.61" y2="14.45" gradientUnits="userSpaceOnUse"><stop offset="0" stop-color="#faf9d7" stop-opacity="0.5"/><stop offset="1" stop-color="#fff"/></linearGradient><linearGradient id="linear-gradient-34" x1="65.74" y1="22.61" x2="99.59" y2="22.61" gradientUnits="userSpaceOnUse"><stop offset="0.1" stop-color="#faf9d7" stop-opacity="0.8"/><stop offset="0.25" stop-color="#faf9d7" stop-opacity="0.58"/><stop offset="0.41" stop-color="#faf9d7" stop-opacity="0.38"/><stop offset="0.53" stop-color="#faf9d7" stop-opacity="0.25"/><stop offset="0.6" stop-color="#faf9d7" stop-opacity="0.2"/><stop offset="0.67" stop-color="#f9f9d8" stop-opacity="0.21"/><stop offset="0.72" stop-color="#f4f7d9" stop-opacity="0.25"/><stop offset="0.78" stop-color="#edf5dc" stop-opacity="0.32"/><stop offset="0.83" stop-color="#e3f2e0" stop-opacity="0.42"/><stop offset="0.88" stop-color="#d6ede6" stop-opacity="0.54"/><stop offset="0.92" stop-color="#c5e8ec" stop-opacity="0.69"/><stop offset="0.97" stop-color="#b3e2f4" stop-opacity="0.87"/><stop offset="1" stop-color="#a5def9"/></linearGradient><linearGradient id="linear-gradient-35" x1="65.59" y1="22.76" x2="99.49" y2="22.76" gradientUnits="userSpaceOnUse"><stop offset="0" stop-color="#faf9d7" stop-opacity="0"/><stop offset="0.26" stop-color="#faf9d7"/><stop offset="0.34" stop-color="#faf9d7" stop-opacity="0.67"/><stop offset="0.42" stop-color="#faf9d7" stop-opacity="0.39"/><stop offset="0.48" stop-color="#faf9d7" stop-opacity="0.18"/><stop offset="0.53" stop-color="#faf9d7" stop-opacity="0.05"/><stop offset="0.56" stop-color="#faf9d7" stop-opacity="0"/></linearGradient></defs><title>one-view-label-a-wood</title><g id="Label_Wood_A-2" data-name="Label Wood A"><circle id="Backdrop" cx="62.54" cy="78.52" r="62.18" style="fill:#8dcae4"/><path id="Label_Back" data-name="Label Back" d="M93.74,53.39A378.34,378.34,0,0,1,162.51,42a420.85,420.85,0,0,1,70.19.85l-11.06,64.51a361.05,361.05,0,0,0-59.29-10.59,328,328,0,0,0-60.68,0Z" style="fill:#ebd900"/><g id="Label"><path d="M125.34,57.88q3.47,15.23,5.49,24.64v0a7.48,7.48,0,0,1-1.5.14,9.34,9.34,0,0,1-1.61-.21h0c-.16-.46-.38-1.27-.66-2.41-.35-1.38-.67-2.51-1-3.4-1.07,0-2.48-.07-4.23-.07h-1.47s-.08.51-.25,1.44c-.21,1.28-.41,2.34-.59,3.17s-.4,1.26-.63,1.31a1.23,1.23,0,0,1-.35,0l-.93,0c-.46,0-1,0-1.56,0h-.38v0a11.19,11.19,0,0,0,.31-1.85q.89-5.53,2.05-11.22a91.92,91.92,0,0,1,3.13-11.36,4.17,4.17,0,0,1,.56,0h.77C123.41,58,124.36,58,125.34,57.88Zm-3.19,16q2.25,0,4,0c-1.3-7.35-2.09-11.15-2.34-11.41a1.78,1.78,0,0,0-.53-.11c-.28,0-.51.23-.7.69a23.19,23.19,0,0,0-.77,3.06c-.32,1.59-.71,3.59-1.15,6l-.32,1.75h.7C121.5,73.84,121.87,73.85,122.15,73.87Z" style="fill:#fff"/><path d="M136.36,70.79l-2.69,0h-.11a10.21,10.21,0,0,1-.1-1.61l0-1.72a5.25,5.25,0,0,0,0-.73,4.8,4.8,0,0,1,1.68-.25,4.16,4.16,0,0,1,1.43.18c0,.12,0,.75-.1,1.89s-.11,1.88-.11,2.2v.07Zm0,11.76-2.66,0h-.11a10.21,10.21,0,0,1-.1-1.61l0-1.72a5.25,5.25,0,0,0,0-.73,4.8,4.8,0,0,1,1.68-.25,3.89,3.89,0,0,1,1.4.18c0,.12,0,.75-.11,1.89s-.1,1.88-.1,2.2v.07Z" style="fill:#fff"/><path d="M162.58,58.16l0,0q-.31,3.75-1.08,11.24-.15,1.57-.55,5.62c-.26,2.69-.49,5.14-.68,7.33a2,2,0,0,1-.66.07h-2.21a9.93,9.93,0,0,1-.75-2c-.2-.74-.43-1.7-.68-2.87q-.1-.48-.27-1.17c-.1-.45-.22-1-.36-1.52h0l-.87,3.67c-.19.84-.37,1.62-.55,2.33a5.79,5.79,0,0,1-.47,1.42,9.47,9.47,0,0,1-1.71.17,10.43,10.43,0,0,1-1.33-.1h0l-.42-2.91q-1-6.72-1.5-11.6c-.35-3.25-.56-6.47-.63-9.64v0c.37,0,.93-.09,1.68-.14.49,0,1.08,0,1.78.07.07.68.14,2.1.21,4.27.16,3.57.33,6.53.51,8.86a30.8,30.8,0,0,0,.79,5.46c.35-1.24.66-2.46.94-3.66s.7-3.11,1.26-5.72l0-.14a50.19,50.19,0,0,1,1.54,5.18q.8,3,.87,3.18c0,.24.19.69.42,1.37q.5-5.36.75-9.8c.18-3,.28-4.67.3-5.11q.1-2.65.21-3.75v0a6.78,6.78,0,0,1,1.61-.18C161.19,58.05,161.81,58.09,162.58,58.16Z" style="fill:#fff"/><path d="M164.5,71.18a18.11,18.11,0,0,1,.12-2.24,12.74,12.74,0,0,1,.62-2.35,3.05,3.05,0,0,1,1.94-1.52,10.13,10.13,0,0,1,3.31-.51,4.16,4.16,0,0,0,.7,0l1.4,0a6.21,6.21,0,0,1,4.51,1.54,2.72,2.72,0,0,1,1,1.58,13,13,0,0,1,.41,3.1c0,1.29.07,2,.07,2.25-.1,2.34-.21,4.19-.34,5.57a4.64,4.64,0,0,1-.78,2.66,3.35,3.35,0,0,1-1.84,1.29,9.55,9.55,0,0,1-2.78.35c-.42,0-1.05,0-1.89-.07l-1.61,0a5.15,5.15,0,0,1-3.1-1.51,5.52,5.52,0,0,1-1.33-2.69,19.72,19.72,0,0,1-.3-3.71V73.07A17.23,17.23,0,0,0,164.5,71.18Zm7.14-3.33a4.29,4.29,0,0,0-3.43,1.23,3,3,0,0,0-.58,1.42,13.31,13.31,0,0,0-.08,2.22,11,11,0,0,0,0,1.4c0,.58.06,1,.06,1.36l.07,1.47a2.76,2.76,0,0,0,.78,2,3.78,3.78,0,0,0,1.74.79,9.54,9.54,0,0,0,1.43.1,5.35,5.35,0,0,0,2.38-.49,2.31,2.31,0,0,0,1.3-1.61,10.37,10.37,0,0,0,.14-1.43c.11-1.63.17-2.74.17-3.33a7.18,7.18,0,0,0-.84-3.71A3.37,3.37,0,0,0,171.64,67.85Z" style="fill:#fff"/><path d="M180.88,71.18a18.11,18.11,0,0,1,.12-2.24,12.74,12.74,0,0,1,.62-2.35,3.05,3.05,0,0,1,1.94-1.52,10.13,10.13,0,0,1,3.31-.51,4.16,4.16,0,0,0,.7,0l1.4,0a6.21,6.21,0,0,1,4.51,1.54,2.72,2.72,0,0,1,1,1.58,13,13,0,0,1,.41,3.1c0,1.29.07,2,.07,2.25-.1,2.34-.21,4.19-.34,5.57a4.64,4.64,0,0,1-.78,2.66A3.35,3.35,0,0,1,192,82.55a9.55,9.55,0,0,1-2.78.35c-.42,0-1.05,0-1.89-.07l-1.61,0a5.15,5.15,0,0,1-3.1-1.51,5.52,5.52,0,0,1-1.33-2.69,19.72,19.72,0,0,1-.3-3.71V73.07A17.23,17.23,0,0,0,180.88,71.18ZM188,67.85a4.28,4.28,0,0,0-3.43,1.23A3,3,0,0,0,184,70.5a13.31,13.31,0,0,0-.08,2.22,11,11,0,0,0,0,1.4c0,.58.06,1,.06,1.36l.07,1.47a2.76,2.76,0,0,0,.78,2,3.78,3.78,0,0,0,1.74.79,9.54,9.54,0,0,0,1.43.1,5.35,5.35,0,0,0,2.38-.49,2.31,2.31,0,0,0,1.3-1.61,10.37,10.37,0,0,0,.14-1.43c.11-1.63.17-2.74.17-3.33a7.18,7.18,0,0,0-.84-3.71A3.37,3.37,0,0,0,188,67.85Z" style="fill:#fff"/><path d="M208.18,58.4V58q.07-.18,1.68-.18a11.06,11.06,0,0,1,1.37.07v2.31c0,2.22,0,5.45.14,9.7,0,1,0,2.3.07,3.76s0,3.12,0,5,0,3,0,3.85c-.75,0-1.37.07-1.86.07a9.57,9.57,0,0,1-1.4-.07,4.24,4.24,0,0,1,0-.74,4.28,4.28,0,0,0-.18-1.4,3.52,3.52,0,0,1-.82,1.12,2.29,2.29,0,0,1-1.17.67,6.62,6.62,0,0,1-2.1.31q-.57,0-.84,0a5.38,5.38,0,0,1-3.75-1.56,6.94,6.94,0,0,1-1.66-3.39,28.31,28.31,0,0,1-.47-4.92,12.92,12.92,0,0,1,.78-4.85,4,4,0,0,1,2.75-2.43,11.4,11.4,0,0,1,2.94-.35,9.93,9.93,0,0,1,2.07.17,3.12,3.12,0,0,1,1.26.48,3.51,3.51,0,0,1,.87.77,1.79,1.79,0,0,1,.35.57l0-3c0-.61,0-1.15,0-1.63a9.8,9.8,0,0,1,0-1.14,1.48,1.48,0,0,0,0-.43c0-.18,0-.34,0-.48v-.73C208.15,59,208.16,58.64,208.18,58.4Zm-3.39,9.17-.67,0a3.62,3.62,0,0,0-4.06,3.81,19,19,0,0,0-.1,2.31,11,11,0,0,0,.57,3.59,3.44,3.44,0,0,0,1.4,1.79,4.79,4.79,0,0,0,2.37.5,3.59,3.59,0,0,0,2.52-.78,3.7,3.7,0,0,0,1.08-2.09,19.1,19.1,0,0,0,.25-3.39,22.51,22.51,0,0,0-.23-3.12,3.26,3.26,0,0,0-.91-1.82A3.36,3.36,0,0,0,204.79,67.57Z" style="fill:#fff"/></g><g id="Wood_Blocks_A" data-name="Wood Blocks A"><g id="Rectangle"><polygon points="23.88 74.5 23.71 104.47 81.54 125.81 102.28 113.44 102.12 83.47 46.49 66.2 23.88 74.5" style="fill:#fff;opacity:0.5"/><path d="M56.58,80.52c-10.84-1.24-21.6-3.3-32.51-3.81V80.1c2.71.39,5.42.8,8.12,1.25,7.67,1.31,16.05,1.72,24,2.25,5.56.37,10.14,4.38,15.7,4.67,2.09.12,4,.19,5,.36l2.5.71C71.14,87.89,65.1,81.49,56.58,80.52Z" style="fill:#edb27d"/><path d="M72.22,89.44c-1.17-.35-9.45-1.29-12.19-1.82s-20.54-.7-23-.83c-1-.06-6.58-1.26-13-2.68v2.34c2.5.62,4.59,1.15,5.86,1.51,5.45,1.53,23.69,1.67,26,1.79s10,1.36,13.27,1.54,10,2.18,11.91,2.7l.34.09.74-.32C77.73,92.85,74.51,90.11,72.22,89.44Z" style="fill:#edb27d"/><path d="M79.48,85.53c-2.5.64-4.68,2.41-6.77,2.3-5.56-.29-9.7-3-16-4.69-7.74-2.06-16.82-.48-24.49-1.79-2.7-.45-5.41-.86-8.12-1.25v4c6.39,1.42,12,2.62,13,2.68,2.45.13,20.26.29,23,.83s11,1.75,12.19,1.82c.61,0,5.39,3.44,9.82,4.35l1.33-.66C82.35,93,79.58,85.56,79.48,85.53Z" style="fill:#ecc8a1"/><path d="M76.54,99.55c-2.88-1-19.4-2.69-21.35-2.79s-14.7.87-19.92,1a33.78,33.78,0,0,1-11.2-1.25v4.56a74.21,74.21,0,0,0,9.28,1.85c3.1.17,23,.66,24.83-.37s8.49-1.23,10.26-1.14c1.18.06,8,1.43,13,2.37l1.21.07,2.26-10.17-.07-1.25-1.62-.87-.75,0L84,92.86l0,1.37-1.91,6.21h-.68A33.69,33.69,0,0,1,76.54,99.55Z" style="fill:#e2a471"/><path d="M65.72,94.83c-1.95-.1-24.78.34-28.72,1-2,.31-7.69-1-12.93-2.34v3.07a33.78,33.78,0,0,0,11.2,1.25c5.22-.14,18-1.12,19.92-1s18.47,1.81,21.35,2.79a33.69,33.69,0,0,0,4.87.89l.74.06,1.93-6.24L84,92.87l-1.55-1.36-2.65-.19,3.48,1.85v1.42l-1.33,3.09-.53,0C75.83,96.5,67.16,94.91,65.72,94.83Z" style="fill:#edb27d"/><path d="M81.07,94c-1.92-.52-8.66-2.53-11.91-2.7s-11-1.42-13.27-1.54-20.51-.26-26-1.79c-1.27-.36-3.36-.89-5.86-1.51v2.17c2.91,1.22,8.44,3.62,11.81,3.8,4.22.22,21.5-.1,25.42-.31s7.78.83,9.4.92c.88,0,5.85,1,10.71,2.1H82L82,93.8l-.62.28Z" style="fill:#e2a471"/><path d="M70.7,93c-1.62-.09-5.48-1.12-9.4-.92s-21.2.53-25.42.31c-3.37-.18-8.9-2.58-11.81-3.8v4.83C29.31,94.84,35,96.1,37,95.79c3.94-.62,26.77-1.06,28.72-1,1.44.08,10.11,1.67,15.69,2.9h.52l1.42-3-.09-1.49L82,93.73,82,95.12h-.54C76.55,94.07,71.58,93.07,70.7,93Z" style="fill:#ecc8a1"/><path d="M81.41,71.39v-1.9c-3.3-.27-6.6-.62-9.83-.79-15.83-.84-31.69-1.45-47.51-2.58V72.8c19.13.9,38.21,1.36,57.34,2.3V72.34c-1.39-.08-2.78-.15-4.17-.19A10.53,10.53,0,0,1,81.41,71.39Z" style="fill:#ecc8a1"/><path d="M77.24,72.15c1.39,0,2.78.11,4.17.19v-1A10.53,10.53,0,0,0,77.24,72.15Z" style="fill:url(#radial-gradient)"/><path d="M79.48,85.53h0Z" style="fill:url(#radial-gradient-2)"/><path d="M24.07,76.71c10.91.51,21.79-.36,32.63.88,8.52,1,16.41,1.8,24.71,3.25V75.1c-19.13-.94-38.21-1.4-57.34-2.3Z" style="fill:#edb27d"/><path d="M68.44,101.42c-1.77-.09-8.43.11-10.26,1.14s-21.73.54-24.83.37a74.21,74.21,0,0,1-9.28-1.85l.08,4.2c3.07.06,8.55,4,10.38,3.72,6.25-.8,11.3,5.82,13.72,5.43,4.68-.75,17.26.36,20.32,1.08a71.86,71.86,0,0,0,12.84.94l.81-.13L85.58,92l-1.71-.5H83l1.73.9,0,1.42-2.15,9.93H81.41C76.47,102.85,69.62,101.48,68.44,101.42Z" style="fill:#ecc8a1"/><path d="M68.57,115.51c-3.06-.72-15.83-2.59-20.32-1.08-.28.1,15.41,5.89,16,5.81,2.29-.29,12.15.43,14.79-.26l2.37-.58h.77l4.31-27.8-1.22-.11-1.33.06,1.57.5-3.3,24.21-.8.18A71.86,71.86,0,0,1,68.57,115.51Z" style="fill:#edb27d"/><path d="M79,120a71.54,71.54,0,0,1-12.44.13c-1.78-.09.64,1.32,3.21,1.87a79,79,0,0,0,11.6,1.15l.81-.13,5.37-32-2.25.53,1.13.05-4.31,27.75-.75,0Z" style="fill:#e2a471"/><path d="M69.81,122c-2.57-.55,9.37,3.57,11.6,3.57l2.2.3L88.55,90.1l-.85.05-5.55,32.78-.74.2A79,79,0,0,1,69.81,122Z" style="fill:#ecc8a1"/><path d="M64.93,81.92c-10.12-4.08-21.43-8.08-32.35-8.58v3.39c2.72.38,5.43.79,8.13,1.25,7.67,1.3,14.94,1.76,22.38,4.72,5.5,2.18,6.43,3.72,12,4,2.09.11,3.9,1.16,4.92,1.33L88,86C79.65,84.52,73.67,85.45,64.93,81.92Z" style="fill:#e2a471"/><path d="M69.29,79.8c-10.11-4.08-22.19-6-33.1-6.52v3.39c2.71.39,10.74.22,13.44.67,7.67,1.31,9.63,2.34,17.06,5.3,5.5,2.19,6.43,3.72,12,4,2.09.11,3.9,1.17,4.92,1.34l8-2.09C83.25,84.46,78,83.33,69.29,79.8Z" style="fill:#ecc8a1"/><polygon points="88.42 90.44 83.75 123.69 86.24 121.89 89.73 89.8 88.42 90.44" style="fill:#edb27d"/><polygon points="89.62 89.68 85.53 122.5 86.48 122.18 90.47 89.29 89.62 89.68" style="fill:#e2a471"/><polygon points="90.39 89.16 86.24 121.94 88.72 120.14 92.78 88 90.39 89.16" style="fill:#ecc8a1"/><polygon points="92.48 87.92 88.33 120.71 89.67 119.75 94.52 87.13 92.48 87.92" style="fill:#edb27d"/><polygon points="94.26 86.93 89.54 120.01 90.34 119.44 95.74 86.42 94.26 86.93" style="fill:#e2a471"/><polygon points="95.44 86.24 90.13 119.72 92 118.64 97.83 85.08 95.44 86.24" style="fill:#ecc8a1"/><polygon points="97.22 85.52 91.9 118.99 93.08 118.17 98.35 84.78 97.22 85.52" style="fill:#edb27d"/><polygon points="98.28 85.15 92.97 118.62 93.81 117.86 99.86 84.63 98.28 85.15" style="fill:#e2a471"/><polygon points="99.78 82.93 93.72 117.68 96.52 116.12 101.73 84 99.78 82.93" style="fill:#ecc8a1"/><polygon points="101.27 85.5 95.52 117.89 96.72 116.53 102.22 87.61 101.27 85.5" style="fill:#edb27d"/><polygon points="100.93 92.36 96.53 117.06 97.81 115.59 101.88 94.47 100.93 92.36" style="fill:#e2a471"/><polygon points="101.38 95.96 97.59 116.23 101.81 113.83 102.32 98.06 101.38 95.96" style="fill:#ecc8a1"/><path d="M80.83,94.61,32.76,77.83c-2.56-.94-1.19-5.34,1.51-5.74l13.44-2a2.82,2.82,0,0,1,1.08.06L95.74,81.3c2.29.62,7.78,2.12,5.72,3.28L83.3,94.7A3.31,3.31,0,0,1,80.83,94.61Z" style="opacity:0.6000000000000001;fill:url(#linear-gradient)"/><path d="M82.23,125.37,25.35,104.43a2.44,2.44,0,0,1-1.59-2.31L24,78a2.44,2.44,0,0,1,3.25-2.27L79.69,94.33c1,.35,2.59,1.19,2.59,2.22Z" style="opacity:0.6000000000000001;fill:url(#linear-gradient-2)"/><path d="M101.47,113.65,82.22,125.32c-.28-10.21-.38-19.24.07-28.14a2.46,2.46,0,0,1,1-2.08l19.19-10.94v27.69A2.1,2.1,0,0,1,101.47,113.65Z" style="opacity:0.6000000000000001;fill:url(#linear-gradient-3)"/><g style="opacity:0.7000000000000001"><path d="M81.42,96.45a.79.79,0,0,1-.3,0c-19.26-6.72-38-13-56-18.81a.93.93,0,1,1,.59-1.77q28.05,10.74,56,18.81a.93.93,0,0,1-.3,1.82Z" style="fill:url(#linear-gradient-4)"/><path d="M25.46,75.77a.77.77,0,0,1,.29,0q28.05,10.74,56,18.81a.93.93,0,0,1-.3,1.82.79.79,0,0,1-.3,0c-19.26-6.72-38-13-56-18.81a.92.92,0,0,1-.59-1.18.93.93,0,0,1,.89-.64m0-.63a1.57,1.57,0,0,0-.5,3c17.32,5.56,36.14,11.89,56,18.8a1.47,1.47,0,0,0,.5.09,1.57,1.57,0,0,0,.5-3C63.49,88.72,44.68,82.39,26,75.23a1.72,1.72,0,0,0-.52-.09Z" style="fill:url(#linear-gradient-5)"/></g><g style="opacity:0.7000000000000001"><path d="M81.46,125.68h0a.94.94,0,0,1-.93-.94c.31-9.08.36-18.84.19-29.17a.93.93,0,0,1,.94-.93h0a.94.94,0,0,1,.94.94c-.8,3.59-.83,13.6-.19,29.17A1,1,0,0,1,81.46,125.68Z" style="fill:url(#linear-gradient-6)"/><path d="M81.65,94.64a.94.94,0,0,1,.94.94c-.8,3.59-.83,13.6-.19,29.17a1,1,0,0,1-.94.93h0a.94.94,0,0,1-.93-.94c.31-9.08.36-18.84.19-29.17a.93.93,0,0,1,.94-.93h0m0-.63h0a1.56,1.56,0,0,0-1.56,1.56c.17,10.59.11,20.39-.19,29.15a1.51,1.51,0,0,0,.45,1.12A1.56,1.56,0,0,0,83,124.75c-.64-15.84-.59-25.6.18-29v-.13a1.58,1.58,0,0,0-.45-1.11,1.56,1.56,0,0,0-1.1-.47Z" style="fill:url(#linear-gradient-7)"/></g><g style="opacity:0.7000000000000001"><path d="M81.3,96.21c-.32,0-.74-.13-.81-.47-.18-.86.59-1.28,1-1.53a165,165,0,0,0,19.9-11.11c.45-.26.72-.32,1,.13a.93.93,0,0,1-.35,1.28L81.77,96.09A1,1,0,0,1,81.3,96.21Z" style="fill:url(#linear-gradient-8)"/><path d="M102,82.9c.17,0,.31.1.45.33a.93.93,0,0,1-.35,1.28L81.77,96.09a1,1,0,0,1-.47.12c-.32,0-.74-.13-.81-.47-.18-.86.59-1.28,1-1.53a165,165,0,0,0,19.9-11.11,1.17,1.17,0,0,1,.53-.2m0-.63a1.75,1.75,0,0,0-.84.28A165.67,165.67,0,0,1,81.26,93.64h0l0,0a2.05,2.05,0,0,0-1.34,2.2,1.36,1.36,0,0,0,1.42,1,1.55,1.55,0,0,0,.78-.21l20.29-11.57a1.58,1.58,0,0,0,.73-1,1.55,1.55,0,0,0-.15-1.19,1.12,1.12,0,0,0-1-.65Z" style="fill:url(#linear-gradient-9)"/></g><g style="opacity:0.7000000000000001"><path d="M25,104.87h0a.92.92,0,0,1-.93-.94c.31-9.08.36-18.84.19-29.17a.94.94,0,0,1,.94-.93h0a.94.94,0,0,1,.93,1c-.79,3.58-1.24,13.73-.6,29.3C25.53,104.6,25.53,104.87,25,104.87Z" style="fill:url(#linear-gradient-10)"/><path d="M25.21,73.83a.94.94,0,0,1,.93,1c-.79,3.58-1.24,13.73-.6,29.3,0,.52,0,.79-.52.79h0a.92.92,0,0,1-.93-.94c.31-9.08.36-18.84.19-29.17a.94.94,0,0,1,.94-.93h0m0-.62h0a1.57,1.57,0,0,0-1.57,1.55c.18,10.59.11,20.39-.19,29.15A1.57,1.57,0,0,0,25,105.5c1.14,0,1.15-1,1.15-1.41-.67-16.54-.1-26,.59-29.18l0-.06v-.07a1.56,1.56,0,0,0-1.55-1.57Z" style="fill:url(#linear-gradient-11)"/></g><path d="M103.31,84.4A2.51,2.51,0,0,0,101.54,82L46.66,65.25l-24,8.55-.09,30.48a2.5,2.5,0,0,0,1.65,2.36l56,20.35a2.5,2.5,0,0,0,2.13-.21l19.79-11.85a2.47,2.47,0,0,0,1.21-2.15Zm-2.69,27a2.37,2.37,0,0,1-1.14,2l-17,10a2.39,2.39,0,0,1-2,.19L26.69,104.31a2.34,2.34,0,0,1-1.55-2.22l0-26.95,22.53-8L99.23,82.87a2.35,2.35,0,0,1,1.66,2.24Z" style="fill:#9b5c31"/></g><g id="Rectangle_back" data-name="Rectangle back"><path d="M20.25,76.24a10.35,10.35,0,0,0-2.64-4.35c-.72-.52-.31-4.86.59-3.71a69.4,69.4,0,0,1,5.08,10.6C23.52,80.08,21,78.35,20.25,76.24Z" style="fill:#edb27d"/><path d="M21.81,76.93c-.72-2.1-2.24-6.5-3-7s-.94-4.19,0-3a99.82,99.82,0,0,1,5.81,12.89C24.86,81.05,22.52,79,21.81,76.93Z" style="fill:#ecc8a1"/><path d="M25.24,81.18c-.71-2.1-6.57-14.79-7.29-15.32s-.94-4.19,0-3S26.72,81.64,27,82.94,26,83.29,25.24,81.18Z" style="fill:#e2a471"/><path d="M26,81c-.72-2.11-7.88-17.7-8.59-18.23s-.14-4,.77-2.83S28,81.72,28.2,83,26.75,83.09,26,81Z" style="fill:#edb27d"/><path d="M27.65,82.54c-.72-2.1-9.18-22.27-9.89-22.8s-.15-3,.76-1.83,10.9,24.37,11.14,25.68S28.37,84.65,27.65,82.54Z" style="fill:#ecc8a1"/><path d="M75.25,42.33V38.7l-3.19.84C68,40.63,43.47,46,27.41,51.1c-1,.32-.93,1.71-.83,2.86l2.15,3c-.07,1.37,3.59,1.07,4.24.88C49.23,53.12,68.44,45.05,72.66,44,73.23,43.9,73.88,42.67,75.25,42.33Z" style="fill:#e2a471"/><path d="M73.34,40l0-3.63-3.19.84c-4,1.09-28.61,6.41-44.66,11.56-1,.33-.93,1.71-.84,2.86L27.2,53.9c-.12-1.24.33-2.26,1-2.44,16.27-4.74,38-9.71,42.23-10.72Z" style="fill:#edb27d"/><path d="M68.05,34l-2.23-.71L31.05,40.47,18.37,44l0,2c8.32-2,17.79-4.19,18.73-4.38S52.82,37.81,68.05,34Z" style="fill:#ecc8a1"/><path d="M73.35,33.58l-6-1.91c-15.23,3.79-30.17,7.5-31,7.66S25.9,41.75,17.58,43.72l1.17,2.65L21.66,49c.26-.39.44-2.44,1-2.58,12.28-3.36,28.56-7.33,33.52-8.55C58.13,37.39,64.66,35.76,73.35,33.58Z" style="fill:#e2a471"/><path d="M49.83,68.76c-9.47,1.07-12.15.11-12.26-.42s.62-.6,1.48-1.26a81.5,81.5,0,0,1,11.07-5.37c3-1,14.55-5.38,15.95-5.82.93-.3,4.47-1.31,8-2.32v-2C62.59,55.46,43,62.15,32.32,65.93a4.34,4.34,0,0,1-2.5,0C28.3,65.6,20,45.65,19.21,46.17c-.35.25-1.48.1-1.12.73,4.07,7,10.91,25.45,11.85,25.86a5.19,5.19,0,0,0,2.39.12c1.74,0,3.71,0,5.9-.15C46.6,72.36,68.52,69,70.68,68.6c.37-.07,1.56-.23,3.3-.46V66Z" style="fill:#edb27d"/><path d="M73.36,36.37V33.59h0c-8.69,2.18-15.22,3.81-17.21,4.29-5,1.22-21.29,4.76-33.45,8.53-.65.2-1.11,2.12-1,2.53l3.07,2.75c-.11-1.06.07-2.7.63-2.87,16.14-4.89,40.76-10.5,44.8-11.6Z" style="fill:#ecc8a1"/><path d="M66.07,55.89c-1.4.44-12.92,4.8-15.95,5.82a81.5,81.5,0,0,0-11.07,5.37c-.86.66-1.59.73-1.48,1.26s2.79,1.49,12.26.42L74,66,74,53.57C70.54,54.58,67,55.59,66.07,55.89Z" style="fill:#ecc8a1"/><path d="M80,52.68c-1.4.45-11.33,4-14.35,5a71,71,0,0,0-9.91,4.89c-1.26.73-5.38,2.15-5.19,2.65s3.74,1.4,13.21.32l24.15-2.71L88,50.36C84.47,51.38,80.94,52.39,80,52.68Z" style="fill:#e2a471"/><path d="M90,50.37c-1.4.45-11.33,4-14.35,5a78.91,78.91,0,0,0-9.85,4.09c-1.26.73-5.55,3-5.24,3.46.82,1.11,3.73,1.4,13.2.32l24.16-2.72,0-12.47C94.48,49.06,90.94,50.07,90,50.37Z" style="fill:#edb27d"/><path d="M65.45,76c-9.64,1.58-22.64,3.7-33.26,5.41a4.54,4.54,0,0,1-2.29-.15C29,81,19.72,56.17,18.85,56.31l-.33,1.41L30.57,86Z" style="fill:#e2a471"/><path d="M71.14,43.09c-4,1-22.9,9.43-38.8,13.66a3.9,3.9,0,0,1-2.48,0,4.93,4.93,0,0,1-2.62-2.88S24.51,51,24.69,51.73s3.34,7.8,5.12,8a6.81,6.81,0,0,0,2.54-.32c2.07-.55,3.91-1.09,5.06-1.53,3.69-1.39,28.11-8.32,34.41-10.33.53-.17,1.29-.4,2.25-.68l0-4.53Z" style="fill:#edb27d"/><path d="M71.82,47.56c-6.3,2-30.72,8.94-34.41,10.33-1.15.44-3,1-5.1,1.54a5.57,5.57,0,0,1-2.48.31c-.49-.1-4.29-5-5.11-8.16l-3.15-2.73c1.37,3.61,6.78,12.17,8.28,12.36A5.6,5.6,0,0,0,32.36,61c6.06-1.91,12.1-3.77,18.26-5.69,1.15-.37,3.17-.52,4.66-1.22,1.84-1,5.4-1.64,8.48-2.54l10.31-3V46.88C73.11,47.16,72.35,47.39,71.82,47.56Z" style="fill:#ecc8a1"/><path d="M21.64,48.79c1,2.43,6.45,12.12,8.16,12.38A5.29,5.29,0,0,0,32.26,61c6.08-1.92,12.17-3.79,18.36-5.72,1.15-.37,3.17-.52,4.66-1.22,1.84-1,5.4-1.64,8.48-2.54l10.31-3,0,3.1C62.56,55.48,42.85,62.18,32.22,66a4.78,4.78,0,0,1-2.28.1C28.41,66,19.83,46.13,19,46.45Z" style="fill:#e2a471"/><path d="M18.92,48c.35.26,10.67,24.7,11.12,24.71,2.25.06,4.87.16,8.19,0C46.6,72.36,68.52,69,70.68,68.6c.37-.07,1.56-.23,3.3-.46V71c-1.45.24-2.92.46-4.43.65-1.2.12-2.82.19-4,.43-11.31,2.33-22.35,4-33.21,5.36-.84.1-1.84.39-2.56,0-2-1.25-9.55-27.88-11.78-27.66Z" style="fill:#e2a471"/><path d="M67.49,73.83c-9,1.48-23.85,3.18-35.18,4.74-.89.12-1.58,0-2.42.16-1.82.26-9.48-24.93-11-24.68l-.23,1.63S29.14,81.15,29.82,81.46a3.9,3.9,0,0,0,2.4.07l24.1-3.75Z" style="fill:#edb27d"/><path d="M74,71c-1.45.24-2.92.46-4.43.65-1.2.12-2.82.19-4,.43-11.29,2.33-22.33,3.86-33.19,5.09a8.48,8.48,0,0,1-2.61,0c-1.4-.32-9-27.13-11.27-26.9l.46,3.79c1.47,2.84,9.58,24.83,10.9,24.86a12.87,12.87,0,0,0,2.48-.15c11.75-1.84,23.6-2.24,33.11-3.79L74,73.54Z" style="fill:#ecc8a1"/><path d="M67.35,76.09,32.12,86.91c-.27-10.2-.51-20.6-.06-29.5a2.44,2.44,0,0,1,1-2.07l34.56-8.42.11,23.88C67.73,71.53,68,75.71,67.35,76.09Z" style="opacity:0.6000000000000001;fill:url(#linear-gradient-12)"/><path d="M31.67,85.93,19,73.82a2.44,2.44,0,0,1-1.59-2.31l.23-21.84c0-1.66-.16-4.21,1.41-3.65L29.1,54.78c1.4,1,2.6,1.8,2.61,2.83Z" style="opacity:0.7000000000000001;fill:url(#linear-gradient-13)"/><path d="M29.77,55.23l-8.44-7.18c-2.59-1.89-4.44-4.13-1.74-4.54l35.2-9.78c2.28.61,21.52,10,19.46,11.15l-42,10.44A2.56,2.56,0,0,1,29.77,55.23Z" style="fill:#fff;opacity:0.5"/><g style="opacity:0.7000000000000001"><path d="M18.81,74.91h0a.92.92,0,0,1-.91-1c.48-8.92.72-18.51.75-28.66a.93.93,0,0,1,1-.9h0a.92.92,0,0,1,.91,1c-.86,3.51-1.3,13.15-1,28.47C19.54,74.33,19.33,74.92,18.81,74.91Z" style="fill:url(#linear-gradient-14)"/><path d="M19.58,44.4h0a.92.92,0,0,1,.91,1c-.86,3.51-1.3,13.15-1,28.47,0,.51-.23,1.09-.73,1.09h0a.92.92,0,0,1-.91-1c.48-8.92.72-18.51.75-28.66a.93.93,0,0,1,.93-.9m0-.62A1.53,1.53,0,0,0,18,45.28c0,10.42-.29,20-.75,28.65a1.49,1.49,0,0,0,.43,1.12,1.52,1.52,0,0,0,1.08.48h0c.81,0,1.36-.7,1.39-1.69-.32-14.31,0-24.64.94-28.34l0-.07v-.07a1.55,1.55,0,0,0-1.51-1.58h-.05Z" style="fill:url(#linear-gradient-15)"/></g><g style="opacity:0.7000000000000001"><path d="M30.88,56.3a.76.76,0,0,1-.26-.15C27,53,23,49.54,18.79,46.16A.94.94,0,0,1,20,44.72a78.68,78.68,0,0,0,11.84,10A1,1,0,0,1,32,56,.94.94,0,0,1,30.88,56.3Z" style="fill:url(#linear-gradient-16)"/><path d="M19.39,44.5a.93.93,0,0,1,.6.22,78.68,78.68,0,0,0,11.84,10A1,1,0,0,1,32,56a1,1,0,0,1-.73.34.83.83,0,0,1-.34-.07.76.76,0,0,1-.26-.15C27,53,23,49.54,18.79,46.16a.94.94,0,0,1,.6-1.66m0-.62h0a1.56,1.56,0,0,0-1,2.76C22,49.6,26,53,30.21,56.62a1.5,1.5,0,0,0,.45.27,1.54,1.54,0,0,0,.56.1,1.56,1.56,0,0,0,1-2.76l0,0h0a80.37,80.37,0,0,1-11.75-9.92l0,0,0,0a1.59,1.59,0,0,0-1-.36Z" style="fill:url(#linear-gradient-17)"/></g><g style="opacity:0.7000000000000001"><path d="M31.36,85.71h0a.92.92,0,0,1-.93-.94c.31-9.08.36-18.84.19-29.17a.93.93,0,0,1,.93-.93h0a.94.94,0,0,1,.93.95c-.79,3.58-.82,13.59-.19,29.16A.93.93,0,0,1,31.36,85.71Z" style="fill:url(#linear-gradient-18)"/><path d="M31.56,54.67a.94.94,0,0,1,.93.95c-.79,3.58-.82,13.59-.19,29.16a.93.93,0,0,1-.94.93h0a.92.92,0,0,1-.93-.94c.31-9.08.36-18.84.19-29.17a.93.93,0,0,1,.93-.93h0m0-.62h0A1.57,1.57,0,0,0,30,55.6c.18,10.59.11,20.39-.19,29.15a1.57,1.57,0,1,0,3.13,0c-.65-15.85-.59-25.61.17-29l0-.06v-.07a1.56,1.56,0,0,0-1.55-1.57Z" style="fill:url(#linear-gradient-19)"/></g><g style="opacity:0.7000000000000001"><path d="M31.17,56.53c-.32-.07-.7-.29-.69-.64,0-.88.86-1.11,1.35-1.26A164.38,164.38,0,0,0,53.7,48.21c.49-.15.78-.14.93.35A.94.94,0,0,1,54,49.73L31.65,56.51A.88.88,0,0,1,31.17,56.53Z" style="fill:url(#linear-gradient-20)"/><path d="M54.15,48.13c.23,0,.38.11.48.43A.94.94,0,0,1,54,49.73L31.65,56.51a.9.9,0,0,1-.28,0,.65.65,0,0,1-.2,0c-.32-.07-.7-.29-.69-.64,0-.88.86-1.11,1.35-1.26A164.38,164.38,0,0,0,53.7,48.21a1.65,1.65,0,0,1,.45-.08m0-.63h0a2.29,2.29,0,0,0-.63.11A164.26,164.26,0,0,1,31.7,54h-.05c-.56.17-1.78.53-1.8,1.85A1.36,1.36,0,0,0,31,57.14a1.32,1.32,0,0,0,.34,0,1.43,1.43,0,0,0,.46-.07l22.35-6.78a1.56,1.56,0,0,0,.93-.76,1.54,1.54,0,0,0,.12-1.19,1.09,1.09,0,0,0-1.08-.88Z" style="fill:url(#linear-gradient-21)"/></g><g style="opacity:0.7000000000000001"><path d="M19.21,45.54c-.31-.07-.69-.3-.68-.65,0-.88.87-1.1,1.37-1.24a137.23,137.23,0,0,0,20-5.42c.5-.15.78-.14.93.36a.93.93,0,0,1-.64,1.16L19.69,45.53A.87.87,0,0,1,19.21,45.54Z" style="fill:url(#linear-gradient-22)"/><path d="M40.35,38.15c.24,0,.39.11.49.44a.93.93,0,0,1-.64,1.16L19.69,45.53a.75.75,0,0,1-.26,0,.83.83,0,0,1-.22,0c-.31-.07-.69-.3-.68-.65,0-.88.87-1.1,1.37-1.24a137.23,137.23,0,0,0,20-5.42,1.65,1.65,0,0,1,.44-.08m0-.63h0a2,2,0,0,0-.61.11,135.09,135.09,0,0,1-20,5.4h-.05c-.56.16-1.78.51-1.81,1.83a1.36,1.36,0,0,0,1.16,1.27,1.47,1.47,0,0,0,.36,0,1.61,1.61,0,0,0,.44-.06l20.5-5.78a1.56,1.56,0,0,0,1.07-1.94,1.1,1.1,0,0,0-1.09-.89Z" style="fill:url(#linear-gradient-23)"/></g><path d="M72.55,34.07l-11.1-2.55a3,3,0,0,0-1.51,0l-40.8,11a3.14,3.14,0,0,0-2.31,3l-.3,27.18A3.13,3.13,0,0,0,17.45,75L29.31,86.57c.8.81,2.49.84,3.58.52l40-12c1.33-.39,1.86-.91,1.86-2.29L75,37.13A3.12,3.12,0,0,0,72.55,34.07ZM73,70.19a2.5,2.5,0,0,1-1.79,2.37l-39,11.51a2.5,2.5,0,0,1-2.48-.63L19.61,73.24a2.51,2.51,0,0,1-.73-1.81l.49-24.94a2.5,2.5,0,0,1,1.8-2.35L60,32.85a2.6,2.6,0,0,1,1.27,0l10.07,2.37a2.49,2.49,0,0,1,1.93,2.45Z" style="fill:#9b5c31"/></g><g id="Triangle"><path d="M51,25.45l-1.24,1.13c.69.28,4.68,11.13,4.86,11.12.46,0,1,.16,1.42-.05,8.39-4.32,14.59-7.58,15.91-8.26l1.88-1,0-3L56.05,34.64a1.57,1.57,0,0,1-1.24,0C54.43,34.57,51.31,26.34,51,25.45Z" style="fill:#e2a471"/><path d="M72,29.39c-1.32.68-7.55,3.91-16,8.25a1.36,1.36,0,0,1-1.11,0c-.44-.3-3.2-7.38-4.66-11.52l-1.1.91c1.3,1.49,5.56,13.81,5.71,13.86a1.46,1.46,0,0,0,1.24-.11l17.73-9.23,0-3.13Z" style="fill:#edb27d"/><path d="M65.12,27.45,56.05,32c-.41.2-.78,0-1.19,0-.12,0-2.57-6.73-3.63-7.61a1.27,1.27,0,0,1-.45.91c.21.27,3.58,9.41,4.08,9.37s.7.15,1.13-.07L73.9,25.4l0-2.66Z" style="fill:#ecc8a1"/><path d="M52.05,23.87c-.1-.11-.74.49-.72.76,1.89,2.9,2.72,6.82,3.5,7.43a1.4,1.4,0,0,0,1.22,0l9.07-4.59,8.82-4.71,0-3.18c-5.67,3-12,6.38-17.92,9.57a1.71,1.71,0,0,1-1.26,0C54.42,29.1,53.61,25.64,52.05,23.87Z" style="fill:#edb27d"/><path d="M66.88,19.54,56,25.44a3.3,3.3,0,0,1-1.21.2c-.21,0-1.19-2-1.69-2.5l-1.1.7c.14-.07,2.4,5.46,2.8,5.43s.77.11,1.18-.11c6-3.2,12.29-6.57,18-9.6L74,16C70.57,17.7,67.7,19.12,66.88,19.54Z" style="fill:#e2a471"/><path d="M49.38,26.69l-.82,1.37c1.57,4.1,5.87,15.16,6.27,15.18a2.39,2.39,0,0,0,1.27-.13L73.78,34l0-2.44L56.06,40.75a1.6,1.6,0,0,1-1.2.09C54.7,40.8,51.15,30.43,49.38,26.69Z" style="fill:#ecc8a1"/><path d="M48.53,27.87,47,29c.87,1.23,7.33,17.14,7.89,17.25s.78.23,1.2,0C61.23,43.53,67.69,40.1,73.73,37l0-3L56.05,43.13c-.43.23-.76.1-1.24,0S49.47,29.47,48.53,27.87Z" style="fill:#e2a471"/><path d="M56.2,51.25,73.68,40.31l0-1.18L56,48.53a1.57,1.57,0,0,1-1.13.1c-.47-.08-7.8-19.2-8.22-19s-.2.42-.77.73l8.31,21A2.81,2.81,0,0,0,56.2,51.25Z" style="fill:#ecc8a1"/><path d="M47.69,28.51l-1.06,1.24c.55.87,7.72,18.81,8.24,18.92a1.53,1.53,0,0,0,1.18-.16c6.51-3.47,12.6-6.7,17.65-9.38l0-2.16L56,46.15a1.43,1.43,0,0,1-1.11,0C54.36,46.08,48.55,30.22,47.69,28.51Z" style="fill:#edb27d"/><path d="M73.36,11.36c-5.48,2.92-11.94,6.37-18.63,9.89L52.86,23c.79.08,1.48,1.1,1.92,1a4.18,4.18,0,0,0,1.31-.27l.95-.55c3.79-2.24,10.82-6,17-9.36l0-1.77C74.1,11.77,73.77,11.53,73.36,11.36Z" style="fill:#edb27d"/><path d="M57,23.14l-1,.56a2.76,2.76,0,0,1-1.25.16c-.33,0-.49-.65-1-1.43L53,23.1c.93,1.68,1.49,2.62,1.88,2.56A3.3,3.3,0,0,0,56,25.43c6-3.24,10.21-5.56,10.84-5.89C67.7,19.12,70.57,17.7,74,16l0-2.2C67.86,17.13,60.83,20.9,57,23.14Z" style="fill:#ecc8a1"/><path d="M72,11.18,55.3,20.68l-.57.57c6.69-3.52,13.15-7,18.63-9.89A2,2,0,0,0,72,11.18Z" style="fill:url(#radial-gradient-3)"/><polygon points="54.31 51.14 53.03 50.72 44.78 30.95 45.91 29.88 54.31 51.14" style="fill:#e2a471"/><polygon points="53.39 51.53 52.54 51.05 43.86 31.33 44.99 30.26 53.39 51.53" style="fill:#edb27d"/><polygon points="52.45 50.72 51.44 50.47 43.05 32.9 44.27 31.83 52.45 50.72" style="fill:#ecc8a1"/><polygon points="51.25 50.2 50.59 50.2 42.5 33.62 43.72 32.54 51.25 50.2" style="fill:#e2a471"/><polygon points="50.77 50.2 49.56 50.27 41.65 34.52 42.87 33.44 50.77 50.2" style="fill:#edb27d"/><polygon points="49.75 50.23 48.35 50.1 40.16 35.74 41.72 34.34 49.75 50.23" style="fill:#ecc8a1"/><polygon points="48.38 49.94 47.37 49.73 39.61 36.46 40.83 35.38 48.38 49.94" style="fill:#e2a471"/><polygon points="47.87 49.74 46.13 48.91 39.47 36.83 40.1 35.85 47.87 49.74" style="fill:#edb27d"/><polygon points="46.69 49.81 44.94 49.2 38.28 37.14 39.47 36.16 46.69 49.81" style="fill:#ecc8a1"/><polygon points="45.63 49.23 44.28 49.36 37.5 37.99 38.72 36.91 45.63 49.23" style="fill:#e2a471"/><polygon points="45.19 49.29 43.86 49.25 37.33 37.96 37.96 36.98 45.19 49.29" style="fill:#edb27d"/><polygon points="43.93 49.13 42.38 48.12 36.27 38.72 37.41 37.4 43.93 49.13" style="fill:#ecc8a1"/><polygon points="42.97 48.76 41.77 48.44 35.9 39.74 36.71 38.71 42.97 48.76" style="fill:#e2a471"/><polygon points="42.2 48.37 40.32 47.85 35.32 40.27 36.18 39.07 42.2 48.37" style="fill:#edb27d"/><polygon points="40.94 48.22 39.52 47.86 34.45 41 35.58 39.67 40.94 48.22" style="fill:#ecc8a1"/><polygon points="39.85 48.25 38.98 48.03 33.66 42.06 34.88 40.99 39.85 48.25" style="fill:#e2a471"/><polygon points="38.53 47.41 36.99 46.96 33.49 42.55 34.52 41.61 38.53 47.41" style="fill:#edb27d"/><polygon points="36.6 46.34 34.52 46.54 32.36 43.18 33.49 41.85 36.6 46.34" style="fill:#ecc8a1"/><path d="M73.11,41.25,56,51.12c-.27-10.21-.43-18.76,0-27.66a2.2,2.2,0,0,1,1.06-1.91l16.66-9,0,26.16C73.73,39.44,73.74,40.87,73.11,41.25Z" style="opacity:0.6000000000000001;fill:url(#linear-gradient-24)"/><g style="opacity:0.7000000000000001"><path d="M55.26,51.49l-.23.16c-.52,0-.72-.59-.71-1.11.31-9.08.28-17.77.11-28.09a.93.93,0,0,1,.93-.93h0a.92.92,0,0,1,.93.94c-.79,3.59-.74,12.52-.11,28.09A.94.94,0,0,1,55.26,51.49Z" style="fill:url(#linear-gradient-25)"/><path d="M55.37,21.52a.92.92,0,0,1,.93.94c-.79,3.59-.74,12.52-.11,28.09a.94.94,0,0,1-.93.94l-.23.16c-.52,0-.72-.59-.71-1.11.31-9.08.28-17.77.11-28.09a.93.93,0,0,1,.93-.93h0m0-.63h0a1.57,1.57,0,0,0-1.56,1.55c.15,8.76.23,18.2-.11,28.08,0,1,.54,1.75,1.34,1.76a.68.68,0,0,0,.46-.19,1.56,1.56,0,0,0,1.33-1.53c-.68-16.54-.65-24.63.09-28l0-.07v-.07a1.57,1.57,0,0,0-1.55-1.57Z" style="fill:url(#linear-gradient-26)"/></g><g style="opacity:0.7000000000000001"><path d="M32,44.63l-.29,0c-.36-.38,0-1,.36-1.37,7.27-6.74,14-13.44,21.91-21.49a1,1,0,0,1,1.38,0h0a1,1,0,0,1-.08,1.39C52,25.27,45.07,32.17,33.42,44.58A1,1,0,0,1,32,44.63Z" style="fill:url(#linear-gradient-27)"/><path d="M54.76,21.44a.86.86,0,0,1,.64.26h0a1,1,0,0,1-.08,1.39C52,25.27,45.07,32.17,33.42,44.58a1.09,1.09,0,0,1-.74.31.9.9,0,0,1-.64-.26l-.29,0c-.36-.38,0-1,.36-1.37,7.27-6.74,14-13.44,21.91-21.49a1.08,1.08,0,0,1,.74-.3m0-.66h0a1.71,1.71,0,0,0-1.2.5c-6.7,6.82-14,14.13-21.89,21.48-.81.79-1,1.7-.39,2.29a.71.71,0,0,0,.49.21,1.6,1.6,0,0,0,.91.28,1.77,1.77,0,0,0,1.2-.49c12.37-13.18,18.68-19.38,21.8-21.41l.06,0,0,0a1.64,1.64,0,0,0,.09-2.31,1.52,1.52,0,0,0-1.11-.47Z" style="fill:url(#linear-gradient-28)"/></g><g style="opacity:0.7000000000000001"><path d="M55,23.09c-.33,0-.74-.13-.82-.47-.18-.87.6-1.28,1-1.53a137.6,137.6,0,0,0,18.2-9.92c.45-.26.73-.32,1,.13a1,1,0,0,1-.35,1.28L55.48,23A.93.93,0,0,1,55,23.09Z" style="fill:url(#linear-gradient-29)"/><path d="M74,11c.17,0,.31.09.45.33a1,1,0,0,1-.35,1.28L55.48,23a.93.93,0,0,1-.46.12c-.33,0-.74-.13-.82-.47-.18-.87.6-1.28,1-1.53a137.6,137.6,0,0,0,18.2-9.92A1.13,1.13,0,0,1,74,11m0-.63a1.82,1.82,0,0,0-.85.28A135.23,135.23,0,0,1,55,20.52h0a2.08,2.08,0,0,0-1.35,2.2,1.37,1.37,0,0,0,1.43,1,1.58,1.58,0,0,0,.77-.2l18.6-10.38A1.57,1.57,0,0,0,75,11a1.14,1.14,0,0,0-1-.65Z" style="fill:url(#linear-gradient-30)"/></g><path d="M56.09,51.64,31.13,45c-1-.35,23.46-23.9,23.46-23.9,1.11-.05,1.55.67,1.56,1.69Z" style="opacity:0.6000000000000001;fill:url(#linear-gradient-31)"/><path d="M73.43,9.49,55,19.8l-.13.1L30.32,44a1.25,1.25,0,0,0,.52,2.09l23,6.79a2.52,2.52,0,0,0,2-.23l18.92-11,.52-31A1.25,1.25,0,0,0,73.43,9.49ZM73,40,55.92,50.46a2.23,2.23,0,0,1-1.73.21L33.78,44.59a.75.75,0,0,1-.31-1.25l22-22,16.65-9.14a.68.68,0,0,1,1,.6Z" style="fill:#9b5c31"/></g><g id="Cylinder"><path d="M72.26,24.11c-.76-1.18-4.76-6.54-5-6.61s-.31.63-.53.55,3,4.42,3.59,5.42a.76.76,0,0,1,.11.36c.15,4.51.33,9.85.33,11.08,0,.72-.45,4.11-1,8.33C69,48.6,68.05,55.3,67.53,59.48c-.23,1.85-.37,3.22-.37,3.75,0,1.92,0,15.34-.1,23.47a9.59,9.59,0,0,0,1.75,1.11c.23-7.94.48-15.88.42-23.81a30.85,30.85,0,0,1,.37-4.52,50.3,50.3,0,0,0,.65-6,107.6,107.6,0,0,1,.93-11.11c.23-1.88.47-3.75.67-5.61a115.58,115.58,0,0,0,.52-12.22A.8.8,0,0,0,72.26,24.11Z" style="fill:#e2a471"/><path d="M82,25.81a.44.44,0,0,0-.17-.35c-1-.76-6.21-5.36-9-8a18.71,18.71,0,0,1-1.87-1.85c-.33-.73-1.6.75-1.68.75s1.51,1.34,3.52,3c2.63,2.2,6,5,7.47,6a.65.65,0,0,1,.29.54c.18,8.74.46,21.43.63,24.11.15,2.31.13,6.13,0,9.49a50.8,50.8,0,0,1-.51,6c-.39,2-.63,15.53-.51,24.79l1.29,0h.3c.08-8.07.28-20.6.47-23.41S82.15,39.12,82,25.81Z" style="fill:#edb27d"/><path d="M69.6,59.48A30.85,30.85,0,0,0,69.23,64c.06,7.93-.19,15.87-.42,23.81a16.5,16.5,0,0,0,1.83.78c0-4.11.13-8.21.42-12.28.16-2.33-.13-4.6.39-6.91.75-3.33,3.27-6.27,4.11-9.47a3.26,3.26,0,0,0,.09-.45h0a29.49,29.49,0,0,0,.06-4.8c0-4.3-.81-8.45-1-12.73-.3-5.67-.21-11.4-.11-17.12-.09-.15-.86-1.06-1.85-2.2-2-2.31-5-5.61-5.14-5.65s-.19.38-.44.32,4.4,5.74,5.14,6.83a.55.55,0,0,1,.1.32,116.72,116.72,0,0,1-.52,12.28c-.2,1.86-.44,3.73-.67,5.61a107.6,107.6,0,0,0-.93,11.11,45.82,45.82,0,0,1-.56,5.38S69.62,59.49,69.6,59.48Z" style="fill:#ecc8a1"/><path d="M70.8,59.07a13.34,13.34,0,0,0,.5-2l1.3-2.45c0-1.26-.74-5.34.52-6.3,1.45,1.84,1.17,7,.79,9.15a9.93,9.93,0,0,1-.6,2h0a8.51,8.51,0,0,1-2.53,3.57c-.82-.62-.51-2.15-.1-3.57" style="fill:#ecc8a1"/><path d="M78.39,59.48c-.28,1.67-.82,3.31-1.13,5-.62,3.25-.53,6.79-1,10.12-.39,2.84-1.19,5.67-1.08,8.56a61.83,61.83,0,0,0,.72,6.72c-.6-.09-1.18-.19-1.74-.31q0-3.12,0-6.24A77,77,0,0,1,76,65.68a43.79,43.79,0,0,0,1-6.2l.07-.77a45.33,45.33,0,0,0-.33-9.87,126.22,126.22,0,0,1-1-18.05,50.23,50.23,0,0,1,.41-5.37.69.69,0,0,0-.2-.56c-.51-.53-1.8-1.81-3.2-3.18-2.28-2.25-4.84-4.77-4.76-4.76s.41-.06.4-.2a37.13,37.13,0,0,1,4.38,3.65,47.81,47.81,0,0,1,4.67,4.74.69.69,0,0,1,.15.44c.08,10.48.34,20.94,1,31.35a10.58,10.58,0,0,1-.08,2Z" style="fill:#edb27d"/><path d="M79.82,59c1-6.19-.14-12.66-.49-18.84-.28-4.8-.2-9.64-.11-14.47a.56.56,0,0,0-.18-.42c-.76-.69-3.73-3.24-6.29-5.4-2.11-1.78-4-3.31-4-3.32s-.15.14-.36.12,2.12,2,4.38,4.11c2,1.85,4.08,3.76,4.66,4.33a.57.57,0,0,1,.16.39c.08,10.49.34,21,1,31.39a10.68,10.68,0,0,1-.08,2c0,.33-.09.62-.09.62-.28,1.67-.82,3.31-1.13,5-.62,3.25-.53,6.79-1,10.12-.39,2.84-1.19,5.67-1.08,8.56a61.83,61.83,0,0,0,.72,6.72c.7.1,1.42.19,2.17.26C77.65,80.06,77.63,70,79.64,60c0-.19.07-.37.1-.56C79.74,59.48,79.78,59.28,79.82,59Z" style="fill:#ecc8a1"/><path d="M81.15,50c-.17-2.68-.45-15.4-.63-24.14a.63.63,0,0,0-.25-.5c-1-.77-4.71-4-7.51-6.33-1.8-1.52-3.21-2.71-3.28-2.72s-.63.37-.75.36,1.83,1.56,4,3.38c2.51,2.08,5.42,4.49,6.24,5.2a.66.66,0,0,1,.23.5c-.1,4.82-.17,9.64.11,14.43.35,6.08,1.45,12.44.54,18.55,0,0-.12.75-.13.76,0,.19-.06.37-.1.56-2,10-2,20-1.56,30.08.66.07,1.34.11,2,.14-.12-9.26.12-22.82.51-24.79a50.8,50.8,0,0,0,.51-6l0-.63C81.28,55.65,81.29,52.16,81.15,50Z" style="fill:#e2a471"/><path d="M67.64,17.24l0,0C67.55,17.32,67.58,17.3,67.64,17.24Z" style="fill:#e2a471"/><path d="M77,59.48a43.79,43.79,0,0,1-1,6.2,77,77,0,0,0-1.83,17.63q0,3.12,0,6.24a26.36,26.36,0,0,1-3.53-1c0-4.11.13-8.21.42-12.28.16-2.33-.13-4.6.39-6.91.75-3.33,3.27-6.27,4.11-9.47a3.26,3.26,0,0,0,.09-.45l.09-.7c.11-1.31,0-2.79,0-4.1,0-4.3-.81-8.45-1-12.73-.3-5.6-.22-11.26-.12-16.9a.58.58,0,0,0-.14-.42c-.28-.34-.92-1.07-1.7-1.94-1.93-2.16-4.72-5.2-5.07-5.45.1-.1.28-.28.38-.26s2.53,2.41,4.71,4.6C74.15,23,75.47,24.36,76,24.89a.66.66,0,0,1,.16.5,53.55,53.55,0,0,0-.41,5.4,126.22,126.22,0,0,0,1,18.05,45,45,0,0,1,.31,10S77,59.46,77,59.48Z" style="fill:#e2a471"/><path d="M65.6,38.17a.34.34,0,0,1,0,.11V19.42a2.25,2.25,0,0,1,.08-.58H65.1C65.17,24.1,65.39,37.15,65.6,38.17Z" style="fill:#edb27d"/><path d="M66.16,19.19a.54.54,0,0,0,0,.25A1.87,1.87,0,0,1,66.16,19.19Z" style="fill:#ecc8a1"/><path d="M67.81,22.26c-.32-.53-1.37-3-1.51-3.08s-.11-.05-.14,0a1.87,1.87,0,0,0,0,.25c0,.4.1,1.07,0,.83-.24-.4,0-.17,0-.59a2,2,0,0,1,0-.24.54.54,0,0,1,0-.25,2.3,2.3,0,0,1,.1-.35h-.57a2.25,2.25,0,0,0-.08.58V38.28c0,.25,0,.82,0,1.64V59.48h.17c0-.44,0-.76.08-.94.37-2.31.87-9,1.22-13.63.14-1.87.26-3.38.34-4.09.19-1.8.38-11.92.46-18.32A.4.4,0,0,0,67.81,22.26Z" style="fill:#ecc8a1"/><path d="M65.78,59.48h-.17v4.08C65.67,61.76,65.72,60.37,65.78,59.48Z" style="fill:#ecc8a1"/><path d="M70.45,23.81a.69.69,0,0,0-.08-.28c-.5-.92-3.41-5.3-3.6-5.39-.44-.18-.15,1-.51.76s.76,2,1.53,3.3a.66.66,0,0,1,.09.33c-.09,6.4-.27,16.5-.46,18.29-.08.71-.2,2.22-.34,4.09-.35,4.58-.85,11.32-1.22,13.63,0,.18,0,.5-.08.94-.06.89-.11,2.28-.17,4.08V84.2a3.34,3.34,0,0,0,1.45,2.5c.1-8.13.1-21.55.1-23.47,0-.53.14-1.9.37-3.75C68.05,55.3,69,48.6,69.75,43.24c.58-4.22,1-7.61,1-8.33C70.78,33.68,70.6,28.32,70.45,23.81Z" style="fill:#edb27d"/><path d="M98.75,20.9a2.11,2.11,0,0,1-.21.31l.21,1Z" style="fill:url(#radial-gradient-4)"/><path d="M97,80.71c-.37-1.89-2.41-16.45-2.41-18.78s-.37-18.06-.37-21-.55-12.23-.55-13.54c0-.36-.1-1.32-.25-2.5a1.31,1.31,0,0,0-.73-1c-3.07-1.55-16.3-8.77-16.5-8.72s-.58-.18-.84-.11c-.11,0,12.43,7.56,15.55,9.27a1.32,1.32,0,0,1,.69,1.07c.41,5.43.87,11.87.87,13.82,0,3.56.9,24.17.9,27.49,0,2.58.73,13,1.34,19.41.1,1-.08,2.06.77,1.47l1.4-.65a1.1,1.1,0,0,0,.54-1C97.26,83.52,97.11,81.44,97,80.71Z" style="fill:#e2a471"/><path d="M98.3,80.09a71.25,71.25,0,0,1-2.26-12c-.3-3,.15-6,.15-9,0-6.76-1-13.37-1-20.19,0-1.36.31-2.61.3-4S95,32.08,95,30.66c0-2.14-.29-4.31-.52-6.46a.72.72,0,0,0-.39-.57c-2.37-1.24-16-8.93-16.15-8.88s-1.48.34-1.68.41c0,0,13.57,7.5,16.45,8.79a1,1,0,0,1,.55.66c.17,1.33.39,2.41.39,2.81,0,1.31.55,10.63.55,13.54s.37,18.64.37,21,2,16.89,2.41,18.78c.11.55.22,1.88.32,3.51a.73.73,0,0,0,1.46,0V82.37s0-.08,0-.11A17.75,17.75,0,0,0,98.3,80.09Z" style="fill:#edb27d"/><path d="M93.33,66.7c0-3.32-.9-23.93-.9-27.49,0-2-.47-8.57-.89-14a1,1,0,0,0-.47-.75c-2.54-1.42-15.25-9.2-15.46-9.16s-1-.08-1.3,0c-.08,0,12,7.86,15,9.52a1,1,0,0,1,.48.77c.47,8.58,1.17,20.66,1.41,22,.37,2.06.37,19.11.37,20.28,0,.93.93,14.07,1.32,20.41,0,.64.61.34,1.2.11a.41.41,0,0,0,.11-.07c.4-.15.64-.36.6-.79C94.17,81.17,93.33,69.47,93.33,66.7Z" style="fill:#ecc8a1"/><path d="M98.15,56.17c0-2.78-.76-5.55-1.05-8.3A111.18,111.18,0,0,1,96,36.37c0-4.11.17-8.3-.07-12.43a1.24,1.24,0,0,0-.73-1.07c-3.18-1.5-16.44-8.28-16.61-8.2s-.31.08-.57.18c-.06,0,12.46,7,15.75,8.65a1.26,1.26,0,0,1,.69,1c.22,2.05.47,4.12.49,6.16,0,1.42.43,2.75.45,4.17s-.31,2.64-.3,4c0,6.82,1,13.43,1,20.19,0,3-.45,6-.15,9a71.25,71.25,0,0,0,2.26,12,18.57,18.57,0,0,1,.45,2.22V62.86a1.49,1.49,0,0,0,0-.21A37.36,37.36,0,0,1,98.15,56.17Z" style="fill:#ecc8a1"/><path d="M96.18,22.34a1.56,1.56,0,0,1,.95,1.13c.19.91.38,1.82.52,2.73.29,1.94-.08,3.91.18,5.85.21,1.65.64,3.25.92,4.89V22.19c-.07-.32-.08,0-.15-.35-.2.27-16.5-7.37-16.81-7.12s-.65-.1-.92.07C80.85,14.81,92.58,21,96.18,22.34Z" style="fill:#edb27d"/><path d="M91.57,67.77c0-1.17,0-18.22-.37-20.28C91,46.17,90.26,34,89.78,25.41a.76.76,0,0,0-.36-.61c-2.24-1.35-14.61-9.34-14.74-9.31s-.4,0-.55,0S85.72,23.34,88.32,25a.76.76,0,0,1,.38.58c.57,9,1.41,21.89,1.41,22.87V66.8c0,1,.78,13.71,1.26,21.92,0,.5.53.44,1,.3h0a.77.77,0,0,0,.55-.78C92.57,82.13,91.57,68.74,91.57,67.77Z" style="fill:#edb27d"/><path d="M84,88.29c-.78-5.5-.26-16.5-.26-20V43.47c0-1-.19-10.14-.34-17.33a1.14,1.14,0,0,0-.43-.89c-1.69-1.35-7.92-6.64-10.17-8.5-.47-.39-.77-.63-.82-.66-.22-.12-.65,0-.75,0a19.27,19.27,0,0,0,1.55,1.5c2.49,2.27,7.22,6.46,8.77,7.63a1.2,1.2,0,0,1,.47.93c.13,13.4.35,38.05.16,40.71s-.44,15.19-.53,23.25c.47.47.79-.31,1.25.16h0c.7,0,1.36.49,1.27-.21C84.17,89.85,84,88.51,84,88.29Z" style="fill:#ecc8a1"/><path d="M97.83,32.05c-.26-1.94.11-3.91-.18-5.85-.15-.95-.35-1.9-.55-2.85a1.46,1.46,0,0,0-.82-1.05c-3.06-1.44-15.58-7.68-15.69-7.62s-1.29.14-1.46.23,12.56,6.36,16,7.92A1.47,1.47,0,0,1,96,24.09c.23,4.07.06,8.22.06,12.28a111.18,111.18,0,0,0,1.06,11.5c.29,2.75,1,5.52,1.05,8.3a37.45,37.45,0,0,0,.6,6.58V37.08a1.24,1.24,0,0,0,0-.27C98.44,35.22,98,33.65,97.83,32.05Z" style="fill:#e2a471"/><path d="M90.11,66.8V48.43c0-1-.81-13.88-1.38-22.88a.7.7,0,0,0-.34-.57c-2.12-1.33-14.09-9.38-14.24-9.36s-.51,0-.68,0,11,7.78,13.57,9.5a.81.81,0,0,1,.35.61C88,38.61,89,61.28,89,63.13s.58,17.5.9,25.93c0,.47.46.46.91.36h0a.73.73,0,0,0,.56-.76C90.92,80.44,90.11,67.86,90.11,66.8Z" style="fill:#e2a471"/><path d="M88.46,86.25c0-1.34-1.65-42.12-2.39-60.51a.58.58,0,0,0-.24-.44c-1.75-1.2-12.85-9.42-13-9.41h0c-.15,0-.21,0-.37,0a3.58,3.58,0,0,0,.36.32c1.72,1.44,9,7.23,11.28,8.88a1.39,1.39,0,0,1,.56,1.09l.13,10.31c0,11.35,1.3,22.3,1.3,33.73,0,6.45.18,12.83.57,19.22a.58.58,0,0,0,.64.53l.78-.1a.58.58,0,0,0,.49-.59C88.49,87.63,88.46,86.52,88.46,86.25Z" style="fill:#edb27d"/><path d="M89,63.13c0-1.85-1-24.56-1.54-37.45a.69.69,0,0,0-.31-.54c-2-1.32-13.52-9.5-13.67-9.48s-.46.17-.66.18S83.2,23.55,85.7,25.26a.66.66,0,0,1,.3.52c.75,18.42,2.46,59.13,2.46,60.47,0,.25,0,1.65.05,3.2,0,.42.43.34.84.26h0a.67.67,0,0,0,.56-.7C89.61,80.64,89,65.05,89,63.13Z" style="fill:#ecc8a1"/><path d="M86.07,70.27c0-11.43-1.3-22.38-1.3-33.73L84.64,26a1,1,0,0,0-.38-.76c-1.8-1.36-9.47-7.5-11.46-9a3.51,3.51,0,0,0-.47-.34c-.17,0-.2.16-.37.17,0,0,.3.28.83.74,2.19,1.88,8,6.81,10.15,8.46a1.05,1.05,0,0,1,.42.77c.15,7.21.38,16.45.38,17.43V68.32c0,3.47-.52,14.47.26,20,0,.33.07,1.51.11,1.88s.53.08,1,0l.6,0c.52,0,1,0,1-.53C86.36,83.37,86.07,76.61,86.07,70.27Z" style="fill:#e2a471"/><path d="M73.12,48.37c-1.26,1-.52,5-.52,6.3l-1.3,2.45a20.17,20.17,0,0,1-.62,2.36c-.41,1.42-.72,3,.1,3.57a8.51,8.51,0,0,0,2.53-3.57,9.93,9.93,0,0,0,.6-2C74.29,55.38,74.57,50.21,73.12,48.37Z" style="fill:#edb27d"/><polygon points="81.47 14.45 98.37 22.25 99 21.59 83.62 14.45 81.47 14.45" style="fill:#ecc8a1"/><polygon points="83.01 14.21 98.49 21.65 98.75 20.91 86.5 14.9 83.01 14.21" style="fill:#e2a471"/><polygon points="85.72 14.56 99.03 21.23 99.12 20.11 90.48 15.69 85.72 14.56" style="fill:#edb27d"/><polygon points="88.82 15.08 99.18 20.5 97.23 18.04 90.24 15.11 88.82 15.08" style="fill:#ecc8a1"/><path d="M82.66,25.55a40.39,40.39,0,0,1-10-1.17c-4.2-1.11-6.94-2.89-6.94-4.9,0-.09-.32-1.69-.32-.38,0,0,.12,12.6.25,26.69C65.84,63.68,66,84,66,84c0,3.37,6.79,6.51,15.93,6.51s16.18-3.59,16.18-7l.71-62.29C96.75,23.73,90.3,25.55,82.66,25.55Z" style="opacity:0.5;fill:url(#linear-gradient-32)"/><path d="M98.43,19.08c-2.46-2.32-6.84-4.45-16.18-4.45a35.44,35.44,0,0,0-9.44,1.12,14.2,14.2,0,0,0-6.58,3.49c-.23.25-.72.91-.57,1.23.75,1.65,3.36,3.07,7,4a40.49,40.49,0,0,0,9.67,1.09c7.32,0,13.55-1.67,15.91-4A2,2,0,0,0,98.43,19.08Z" style="opacity:0.6000000000000001;fill:url(#linear-gradient-33)"/><path d="M99.33,18.42c-.53,3.18-7.89,5.71-16.89,5.71A40.35,40.35,0,0,1,72.7,23c-3.58-.91-6.14-2.3-6.92-3.91,0,.12,0,1.49,0,1.62,0,2,2.73,3.79,6.93,4.9a40.41,40.41,0,0,0,10,1.17c9.35,0,16.93-2.72,16.93-6.07A11.2,11.2,0,0,0,99.33,18.42Z" style="opacity:0.7000000000000001;fill:url(#linear-gradient-34)"/><path d="M99.41,19.34c-.53,3.18-8,5.65-17,5.65a41.51,41.51,0,0,1-9.67-1.06c-3.62-.88-6.21-2.26-7-3.88,0,.12-.1-.31-.1-.19,0,2,2.81,3.91,7.09,5.09a38,38,0,0,0,9.92,1.23c9.34,0,16.81-2.68,16.81-6C99.41,19.79,99.58,19.68,99.41,19.34Z" style="fill:url(#linear-gradient-35)"/><path d="M82.17,13.69a43.91,43.91,0,0,0-9.34.94c-5,1.1-8.33,3.06-8.33,5.29V86.08c0,3.44,7.91,6.23,17.67,6.23s17.67-2.79,17.67-6.23V19.92C99.84,16.48,91.93,13.69,82.17,13.69Zm15,70.65c0,3.08-6.69,5.47-15.31,5.47s-15-2.3-15-5.15c0,0-.19-21.38-.36-39.4-.11-13.12-.22-24.46-.22-24.47,0-2,2.54-3.74,6.52-4.75a36,36,0,0,1,8.76-1c8.62,0,16.26,2.49,16.27,5.78Z" style="fill:#9b5c31"/></g></g></g></svg>