<svg id="Label_Air_A" data-name="Label Air A" xmlns="http://www.w3.org/2000/svg" xmlns:xlink="http://www.w3.org/1999/xlink" viewBox="0 0 285 141"><defs><linearGradient id="linear-gradient" x1="0.74" y1="-287.25" x2="91.18" y2="-287.25" gradientTransform="matrix(1, 0, 0, -1, 0, -190.99)" gradientUnits="userSpaceOnUse"><stop offset="0" stop-color="#fff" stop-opacity="0"/><stop offset="1" stop-color="#fff"/></linearGradient><linearGradient id="linear-gradient-2" x1="0.89" y1="-231.37" x2="84.48" y2="-231.37" xlink:href="#linear-gradient"/><linearGradient id="linear-gradient-3" x1="0.61" y1="-245.45" x2="110.5" y2="-245.45" xlink:href="#linear-gradient"/><linearGradient id="linear-gradient-4" x1="0.89" y1="54.46" x2="110.61" y2="54.46" gradientTransform="matrix(1, 0, 0, 1, 0, 0)" xlink:href="#linear-gradient"/><linearGradient id="linear-gradient-5" x1="0.89" y1="40.39" x2="82.43" y2="40.39" gradientTransform="matrix(1, 0, 0, 1, 0, 0)" xlink:href="#linear-gradient"/><linearGradient id="linear-gradient-6" x1="0.74" y1="96.26" x2="91.35" y2="96.26" gradientTransform="matrix(1, 0, 0, 1, 0, 0)" xlink:href="#linear-gradient"/></defs><title>one-view-label-a-air</title><g id="Label_Air_A-2" data-name="Label Air A"><circle id="Backdrop" cx="62.54" cy="78.52" r="62.18" style="fill:#8dcae4"/><path id="Label_Back" data-name="Label Back" d="M93.26,56.13a237.65,237.65,0,0,1,55-11,265.72,265.72,0,0,1,56.58,1.69l-12.42,56.42a214,214,0,0,0-44.33-9.76,193.82,193.82,0,0,0-45.9.5Z" style="fill:#ebd900"/><g id="Label"><path d="M125.34,57.88q3.47,15.23,5.49,24.64v0a7.48,7.48,0,0,1-1.5.14,9.34,9.34,0,0,1-1.61-.21h0c-.16-.46-.38-1.27-.66-2.41-.35-1.38-.67-2.51-1-3.4-1.07,0-2.48-.07-4.23-.07h-1.47s-.08.51-.25,1.44c-.21,1.28-.41,2.34-.59,3.17s-.4,1.26-.63,1.31a1.23,1.23,0,0,1-.35,0l-.93,0c-.46,0-1,0-1.56,0h-.38v0a11.19,11.19,0,0,0,.31-1.85q.89-5.53,2.05-11.22a91.92,91.92,0,0,1,3.13-11.36,4.17,4.17,0,0,1,.56,0h.77C123.41,58,124.36,58,125.34,57.88Zm-3.19,16q2.25,0,4,0c-1.3-7.35-2.09-11.15-2.34-11.41a1.78,1.78,0,0,0-.53-.11c-.28,0-.51.23-.7.69a23.19,23.19,0,0,0-.77,3.06c-.32,1.59-.71,3.59-1.15,6l-.32,1.75h.7C121.5,73.84,121.87,73.85,122.15,73.87Z" style="fill:#fff"/><path d="M136.36,70.79l-2.69,0h-.11a10.21,10.21,0,0,1-.1-1.61l0-1.72a5.25,5.25,0,0,0,0-.73,4.8,4.8,0,0,1,1.68-.25,4.16,4.16,0,0,1,1.43.18c0,.12,0,.75-.1,1.89s-.11,1.88-.11,2.2v.07Zm0,11.76-2.66,0h-.11a10.21,10.21,0,0,1-.1-1.61l0-1.72a5.25,5.25,0,0,0,0-.73,4.8,4.8,0,0,1,1.68-.25,3.89,3.89,0,0,1,1.4.18c0,.12,0,.75-.11,1.89s-.1,1.88-.1,2.2v.07Z" style="fill:#fff"/><path d="M156.24,57.88q3.47,15.23,5.5,24.64v0a7.58,7.58,0,0,1-1.51.14,9.69,9.69,0,0,1-1.61-.21h0c-.17-.46-.39-1.27-.67-2.41-.35-1.38-.66-2.51-.94-3.4-1.08,0-2.49-.07-4.24-.07h-1.47s-.08.51-.24,1.44c-.21,1.28-.41,2.34-.6,3.17s-.4,1.26-.63,1.31a1.19,1.19,0,0,1-.35,0l-.93,0c-.45,0-1,0-1.55,0h-.39v0a10.62,10.62,0,0,0,.32-1.85q.87-5.53,2-11.22a92,92,0,0,1,3.14-11.36,4.07,4.07,0,0,1,.56,0h.77C154.32,58,155.26,58,156.24,57.88Zm-3.18,16q2.24,0,4,0-2-11-2.35-11.41a1.73,1.73,0,0,0-.52-.11c-.28,0-.52.23-.7.69a20.26,20.26,0,0,0-.77,3.06c-.33,1.59-.72,3.59-1.16,6l-.31,1.75h.7C152.4,73.84,152.78,73.85,153.06,73.87Z" style="fill:#fff"/><path d="M164.54,64.88a7.5,7.5,0,0,1,1,0c.7.05,1.47.07,2.31.07v.1c0,1,0,2.68-.07,4.87s-.11,4.5-.11,6.79,0,4.06.14,5.74a7.72,7.72,0,0,1-1.47.1h-1.19a4.81,4.81,0,0,0-.77,0c0-.68,0-1.7,0-3.08V73.42c-.05-1.63-.07-2.89-.07-3.78,0-1.61.07-3.19.21-4.73Zm-.14-7.53c1.44,0,2.54.07,3.29.07l.1,4.62a3,3,0,0,1-1.26.18,6,6,0,0,1-.84,0h-.49a5,5,0,0,0-.66,0c0-.35,0-.92-.07-1.71C164.4,58.93,164.37,57.89,164.4,57.35Z" style="fill:#fff"/><path d="M174.72,65.16c0,.28,0,.5,0,.65s0,.33,0,.54a6.57,6.57,0,0,1,.68-.32l1-.35a9.16,9.16,0,0,1,1.94-.4,19.72,19.72,0,0,1,2-.12c.56,0,.84,0,.84.07l0,2.9q0,.7,0,1.05A11.19,11.19,0,0,0,180,68.8a7.34,7.34,0,0,0-1.68-.18,9.75,9.75,0,0,0-2.13.28,2.23,2.23,0,0,0-1.33.74,3.24,3.24,0,0,0-.32,1.85q.13,4.8.14,10.89v.14a5.5,5.5,0,0,1-1.22.14l-.79,0c-.36,0-.73,0-1.1,0l0-6q-.07-4.12-.07-6.2c0-1.12,0-2.89.07-5.32a4.57,4.57,0,0,0,.75,0l.72,0c.28,0,.65,0,1.12,0S174.72,65.11,174.72,65.16Z" style="fill:#fff"/></g><g id="Air_A" data-name="Air A"><path d="M1,80.65c3.43-.23,6.81-.41,10.2-.56s6.77-.2,10.15-.24c6.77,0,13.53.14,20.22.71,3.35.29,6.68.64,10,1.14s6.55,1.12,9.73,1.89a62.07,62.07,0,0,1,9.16,3A26.57,26.57,0,0,1,78,91.05a13.48,13.48,0,0,1,1.34,1.4c.18.25.39.49.54.74l.26.38.26.46A15.14,15.14,0,0,1,82,97.72a10,10,0,0,1-.44,6.85A12.39,12.39,0,0,1,76.75,110a13.06,13.06,0,0,1-7.55,2,11.69,11.69,0,0,1-7.33-3.06A6.94,6.94,0,0,1,59.33,102a6.85,6.85,0,0,1,5.88-5.21,7.67,7.67,0,0,1,4.45,1,13.82,13.82,0,0,1,3.78,3.28,13.34,13.34,0,0,0-3.12-4.21A10.43,10.43,0,0,0,68,95.37a8.92,8.92,0,0,0-2.78-.74A9.06,9.06,0,0,0,59.52,96,10.35,10.35,0,0,0,55,107a13.29,13.29,0,0,0,2.8,5.66,18,18,0,0,0,10.49,6.21,20.61,20.61,0,0,0,12.3-1.58,18.49,18.49,0,0,0,9.25-9,16.67,16.67,0,0,0,1.55-6.62,19.3,19.3,0,0,0-1-6.52,24.48,24.48,0,0,0-2.66-5.6l-.41-.63-.48-.67c-.32-.46-.67-.87-1-1.29a22.57,22.57,0,0,0-2.27-2.22A33.91,33.91,0,0,0,73.4,79.1a71,71,0,0,0-10.46-2.86c-3.49-.69-7-1.19-10.45-1.57s-7-.67-10.41-.87C28.23,73,14.42,73.36.74,73.7Z" style="opacity:0.8;fill:url(#linear-gradient)"/><path d="M.89,70.39c1.72-.22,3.58-.37,5.41-.52l5.55-.43c3.7-.29,7.42-.57,11.13-.94a216.89,216.89,0,0,0,22.26-3.09q2.79-.52,5.55-1.22c1.86-.44,3.7-.94,5.54-1.51a58.45,58.45,0,0,0,10.88-4.42,31.94,31.94,0,0,0,9.69-7.78,24.4,24.4,0,0,0,5.29-12,23.73,23.73,0,0,0-1.9-13.11,26.28,26.28,0,0,0-8.17-10.25,23.36,23.36,0,0,0-12.6-4.74,19.89,19.89,0,0,0-7,.84,20.7,20.7,0,0,0-6.2,3.09A23.26,23.26,0,0,0,41.56,19a19.14,19.14,0,0,0-3.18,6.09,16.83,16.83,0,0,0-.63,6.94A16,16,0,0,0,40,38.5a14.57,14.57,0,0,0,4.73,4.74,12.08,12.08,0,0,0,6.3,1.84,11.29,11.29,0,0,0,6-1.71,13.61,13.61,0,0,0,4.08-4,15.94,15.94,0,0,1-4.88,2.16,8.9,8.9,0,0,1-4.73-.06,9.32,9.32,0,0,1-6-5.8,10.15,10.15,0,0,1,.33-7.85,12.64,12.64,0,0,1,2.29-3.32,16.87,16.87,0,0,1,3.3-2.67,12.35,12.35,0,0,1,7.52-1.88,15.39,15.39,0,0,1,7.63,2.83,17.88,17.88,0,0,1,5.64,6.45,14.64,14.64,0,0,1,1.57,8.21,15.79,15.79,0,0,1-3.35,7.87,25.35,25.35,0,0,1-7.15,6c-5.68,3.34-12.5,5.37-19.43,6.53A103,103,0,0,1,33.29,59c-3.55.26-7.13.31-10.7.29s-7.17-.2-10.76-.48c-1.8-.12-3.59-.31-5.4-.48L.89,57.72Z" style="opacity:0.8;fill:url(#linear-gradient-2)"/><g style="opacity:0.8"><path d="M.89,72.16c13.74-.72,27.46-.52,41.21-.27,6.88.15,13.76.29,20.69.25A150.78,150.78,0,0,0,83.7,70.81a71.09,71.09,0,0,0,10.49-2.37c.87-.27,1.74-.54,2.6-.88l1.29-.49c.44-.19.89-.36,1.33-.58a23.2,23.2,0,0,0,5.09-3.13,17.94,17.94,0,0,0,4.11-4.81,15.33,15.33,0,0,0,2-6.28,14.92,14.92,0,0,0-4.48-11.91,13.18,13.18,0,0,0-5.68-3.21,12.18,12.18,0,0,0-6.43.1,14.39,14.39,0,0,0-5.28,2.87,9.7,9.7,0,0,0-3.35,5.17,7.92,7.92,0,0,0,1,6,8.29,8.29,0,0,0,4.5,3.53,7.13,7.13,0,0,0,5.45-.45,10.23,10.23,0,0,0,3.8-3.58A9.92,9.92,0,0,1,96,53.63a6,6,0,0,1-4.59-.27,6.41,6.41,0,0,1-3-3.19,5.26,5.26,0,0,1-.12-4,6.34,6.34,0,0,1,2.69-3,10.14,10.14,0,0,1,4-1.44,7,7,0,0,1,3.75.59,7.84,7.84,0,0,1,2.91,2.3,9.37,9.37,0,0,1,2.07,7,10.37,10.37,0,0,1-3.65,6.5,17.88,17.88,0,0,1-3.54,2.44c-.33.19-.68.34-1,.51l-1.1.48c-.72.34-1.48.62-2.23.91a64.15,64.15,0,0,1-9.48,2.69,160.93,160.93,0,0,1-20.08,2.79c-6.8.6-13.66.93-20.53,1.29C28.33,69.87,14.55,70.56.89,72.16Z" style="fill:url(#linear-gradient-3)"/></g><path d="M97.38,39.08a9.81,9.81,0,0,1,2.43.31A10.88,10.88,0,0,1,104.49,42a12.58,12.58,0,0,1,3.76,10.05,13.08,13.08,0,0,1-1.65,5.31A15.45,15.45,0,0,1,103,61.57a21.22,21.22,0,0,1-4.59,2.82l0,0c-.26.13-.52.24-.78.35l-.39.16-1.28.48c-.7.28-1.42.51-2.18.75l-.26.08a68,68,0,0,1-10.13,2.29,132.86,132.86,0,0,1-15.3,1.22,141.41,141.41,0,0,0,15.08-2.32A67.29,67.29,0,0,0,93,64.62l.31-.12c.67-.26,1.37-.53,2-.83l1.09-.48.12-.06.32-.15.75-.39a20.38,20.38,0,0,0,4-2.74,12.68,12.68,0,0,0,4.4-7.92,11.7,11.7,0,0,0-2.57-8.74,10,10,0,0,0-3.76-3,9.2,9.2,0,0,0-4.91-.79,9.62,9.62,0,0,1,2.64-.36m0-2.31a12.06,12.06,0,0,0-3.41.48,14.39,14.39,0,0,0-5.28,2.87,9.7,9.7,0,0,0-3.35,5.17,7.92,7.92,0,0,0,1,6,8.29,8.29,0,0,0,4.5,3.53,7.16,7.16,0,0,0,5.45-.45,10.23,10.23,0,0,0,3.8-3.58A9.92,9.92,0,0,1,96,53.63,6.26,6.26,0,0,1,94,54a5.73,5.73,0,0,1-2.59-.6,6.41,6.41,0,0,1-3-3.19,5.26,5.26,0,0,1-.12-4,6.34,6.34,0,0,1,2.69-3,10.14,10.14,0,0,1,4-1.44,6,6,0,0,1,.84,0,7,7,0,0,1,2.91.64,7.84,7.84,0,0,1,2.91,2.3,9.37,9.37,0,0,1,2.07,7,10.37,10.37,0,0,1-3.65,6.5,17.88,17.88,0,0,1-3.54,2.44c-.33.19-.68.34-1,.51l-1.1.48c-.72.34-1.48.62-2.23.91a64.15,64.15,0,0,1-9.48,2.69,160.93,160.93,0,0,1-20.08,2.79c-6.8.6-13.66.93-20.53,1.29-13.73.64-27.51,1.33-41.17,2.93,7.13-.37,14.26-.5,21.39-.5,6.6,0,13.21.11,19.82.23,6.16.14,12.34.26,18.54.26h2.15A150.78,150.78,0,0,0,83.7,70.81a71.09,71.09,0,0,0,10.49-2.37c.87-.27,1.74-.54,2.6-.88l1.29-.49c.44-.19.89-.36,1.33-.58a23.2,23.2,0,0,0,5.09-3.13,17.94,17.94,0,0,0,4.11-4.81,15.33,15.33,0,0,0,2-6.28,14.92,14.92,0,0,0-4.48-11.91,13.18,13.18,0,0,0-5.68-3.21,11.91,11.91,0,0,0-3-.38Z" style="fill:url(#linear-gradient-4)"/><path d="M58.39,12.71h0l1,0A21,21,0,0,1,70.73,17a24,24,0,0,1,7.45,9.35A21.51,21.51,0,0,1,79.9,38.2,21.88,21.88,0,0,1,75.1,49a29.62,29.62,0,0,1-9,7.21,55.7,55.7,0,0,1-10.46,4.25c-1.84.56-3.65,1.06-5.41,1.47s-3.65.85-5.45,1.2a212.34,212.34,0,0,1-22,3.06c-3.28.32-6.63.59-9.86.84l-1.22.09-5.57.43-.43,0-2.47.21v-7.5l3,.34,1.38.13c1.33.13,2.71.27,4.06.36,3.48.27,7,.43,10.93.49h1.17c3.8,0,6.89-.1,9.68-.3,3.65-.23,7.28-.63,10.81-1.21A59.56,59.56,0,0,0,64.45,53.3a27.8,27.8,0,0,0,7.8-6.57,18.21,18.21,0,0,0,3.83-9,16.87,16.87,0,0,0-1.8-9.51,20.08,20.08,0,0,0-6.39-7.32,17.65,17.65,0,0,0-8.78-3.23c-.37,0-.74,0-1.11,0a14.69,14.69,0,0,0-7.78,2.25,19.71,19.71,0,0,0-3.79,3.07,15,15,0,0,0-2.7,3.92,12.52,12.52,0,0,0-.4,9.63,12.08,12.08,0,0,0,4.21,5.62,10.65,10.65,0,0,1-1.58-.8,12.37,12.37,0,0,1-4-4,13.56,13.56,0,0,1-1.93-5.49,14.55,14.55,0,0,1,.54-6,16.61,16.61,0,0,1,2.8-5.36,20.94,20.94,0,0,1,4.31-4.2,18,18,0,0,1,5.52-2.76,17.48,17.48,0,0,1,5.17-.76m0-2.32a20,20,0,0,0-5.85.87,20.7,20.7,0,0,0-6.2,3.09A23.26,23.26,0,0,0,41.56,19a19.14,19.14,0,0,0-3.18,6.09,16.83,16.83,0,0,0-.63,6.94A16,16,0,0,0,40,38.5a14.57,14.57,0,0,0,4.73,4.74A12.08,12.08,0,0,0,51,45.08h0A11.39,11.39,0,0,0,57,43.37a13.61,13.61,0,0,0,4.08-4,15.94,15.94,0,0,1-4.88,2.16,9.83,9.83,0,0,1-2.32.29,8.31,8.31,0,0,1-2.41-.35,9.32,9.32,0,0,1-6-5.8,10.15,10.15,0,0,1,.33-7.85,12.64,12.64,0,0,1,2.29-3.32,16.87,16.87,0,0,1,3.3-2.67A12.41,12.41,0,0,1,58,19.9c.31,0,.63,0,.94,0a15.39,15.39,0,0,1,7.63,2.83,17.88,17.88,0,0,1,5.64,6.45,14.64,14.64,0,0,1,1.57,8.21,15.79,15.79,0,0,1-3.35,7.87,25.35,25.35,0,0,1-7.15,6c-5.68,3.34-12.5,5.37-19.43,6.53A103,103,0,0,1,33.29,59c-3.16.23-6.35.29-9.54.29H22.59c-3.58-.05-7.17-.2-10.76-.48-1.8-.12-3.59-.31-5.4-.48L.89,57.72V70.39c1.72-.22,3.58-.37,5.41-.52l5.55-.43c3.7-.29,7.42-.57,11.13-.94a216.89,216.89,0,0,0,22.26-3.09q2.79-.52,5.55-1.22c1.86-.44,3.7-.94,5.54-1.51a58.45,58.45,0,0,0,10.88-4.42,31.94,31.94,0,0,0,9.69-7.78,24.4,24.4,0,0,0,5.29-12,23.73,23.73,0,0,0-1.9-13.11,26.28,26.28,0,0,0-8.17-10.25,23.36,23.36,0,0,0-12.6-4.74c-.38,0-.75,0-1.13,0Z" style="fill:url(#linear-gradient-5)"/><path d="M23.7,75.62c6.75,0,12.71.16,18.25.49,3.45.2,6.91.49,10.29.87,3.68.39,7,.89,10.24,1.53a68,68,0,0,1,10.11,2.76A31.46,31.46,0,0,1,82,86.53a20.49,20.49,0,0,1,2,2l.17.21a11.45,11.45,0,0,1,.72.91l.45.64.37.57a21.49,21.49,0,0,1,2.42,5.07,17.15,17.15,0,0,1,.86,5.75,14.47,14.47,0,0,1-1.34,5.7,16.16,16.16,0,0,1-8.1,7.86,18.93,18.93,0,0,1-7.75,1.7,17.55,17.55,0,0,1-3.17-.29,15.81,15.81,0,0,1-9.13-5.4,11.21,11.21,0,0,1-2.33-4.68,9.58,9.58,0,0,1-.17-1.31,10,10,0,0,0,3.29,5.37,14,14,0,0,0,8.74,3.64c.27,0,.54,0,.82,0A15.56,15.56,0,0,0,78,111.93a14.88,14.88,0,0,0,5.71-6.42,12.24,12.24,0,0,0,.55-8.4,17.39,17.39,0,0,0-1.82-4.26l-.27-.46a.61.61,0,0,0-.07-.1l-.23-.35c-.17-.27-.35-.5-.49-.69l-.15-.18L81.15,91a16.38,16.38,0,0,0-1.57-1.64,28.55,28.55,0,0,0-8.21-4.92,63.82,63.82,0,0,0-9.51-3.07c-3.11-.76-6.36-1.4-9.94-1.94-3-.45-6.17-.81-10.12-1.15-7.39-.63-14.79-.72-20.44-.72-3.27,0-6.7.11-10.23.24-2.75.12-5.35.25-7.88.41L3.16,76c6.73-.16,13.68-.33,20.54-.33m0-2.31c-7.68,0-15.34.2-23,.39l.29,7c3.43-.23,6.81-.41,10.2-.56s6.77-.2,10.15-.24c6.77,0,13.53.14,20.22.71,3.35.29,6.68.64,10,1.14s6.55,1.12,9.73,1.89a62.07,62.07,0,0,1,9.16,3A26.57,26.57,0,0,1,78,91.05a13.48,13.48,0,0,1,1.34,1.4c.18.25.39.49.54.74l.26.38.26.46A15.14,15.14,0,0,1,82,97.72a10,10,0,0,1-.44,6.85A12.39,12.39,0,0,1,76.75,110a13.13,13.13,0,0,1-6.86,2l-.69,0a11.69,11.69,0,0,1-7.33-3.06A6.94,6.94,0,0,1,59.33,102a6.85,6.85,0,0,1,5.88-5.21c.21,0,.42,0,.64,0a7.89,7.89,0,0,1,3.81,1.06,13.82,13.82,0,0,1,3.78,3.28,13.34,13.34,0,0,0-3.12-4.21A10.43,10.43,0,0,0,68,95.37a8.92,8.92,0,0,0-2.78-.74,7.87,7.87,0,0,0-.84,0A9.21,9.21,0,0,0,59.52,96,10.35,10.35,0,0,0,55,107a13.29,13.29,0,0,0,2.8,5.66,18,18,0,0,0,10.49,6.21,19,19,0,0,0,3.6.33,21,21,0,0,0,8.7-1.91,18.49,18.49,0,0,0,9.25-9,16.67,16.67,0,0,0,1.55-6.62,19.3,19.3,0,0,0-1-6.52,24.48,24.48,0,0,0-2.66-5.6l-.41-.63-.48-.67c-.32-.46-.67-.87-1-1.29a22.57,22.57,0,0,0-2.27-2.22A33.91,33.91,0,0,0,73.4,79.1a71,71,0,0,0-10.46-2.86c-3.49-.69-7-1.19-10.45-1.57s-7-.67-10.41-.87c-6.13-.37-12.26-.49-18.38-.49Z" style="fill:url(#linear-gradient-6)"/></g></g></svg>