<svg id="Options_Panel" data-name="Options Panel" xmlns="http://www.w3.org/2000/svg" viewBox="0 0 252 724"><title>Options Panel</title><path id="Panel_Back_2" data-name="Panel Back 2" d="M252,724H20.44c-9-124.43-35.27-491.32-8.57-724H252Z" style="fill:#9d9d9d"/><path id="Panel_Back_1" data-name="Panel Back 1" d="M252,697.19c-77.45,17.27-145.74,18.38-214.41,8.93C24.18,527.4,0,293.44,20.44,22.35,87.9,10.48,177.61,7.12,252,13.41Z" style="fill:#c4c4c4"/><g id="Temperature_Scale_Label" data-name="Temperature Scale Label"><path d="M43.13,270.5l2.11,0,2.23,0a50.85,50.85,0,0,1,5.79.27c0,.14,0,.39,0,.74a13.37,13.37,0,0,1-.12,1.73,7,7,0,0,0-1.49-.07c-.51,0-1,0-1.53,0h-.63a.37.37,0,0,1,0,.29c0,.1,0,1.18,0,3.24,0,.5,0,.91,0,1.23.05,4.22.1,7.32.15,9.28v.05a8.61,8.61,0,0,1-1.32.07,8.08,8.08,0,0,0-1.42.1,1.44,1.44,0,0,1,0-.32c0-.16,0-.33,0-.52v-1.46c0-.32,0-.9,0-1.73s0-1.71,0-2.28q0-3.44-.17-7.73v-.1a15.45,15.45,0,0,0-2.66-.19c-.51,0-.79,0-.84,0a3.35,3.35,0,0,1-.1-.91C43.14,271.64,43.13,271.09,43.13,270.5Z" style="fill:#4d4d4d"/><path d="M55.25,281.32v.44l0,.69c0,2,1,3,2.92,3a2.42,2.42,0,0,0,1.74-.54,1.94,1.94,0,0,0,.57-1.48c0-.09,0-.27-.05-.53a8.18,8.18,0,0,1,.94-.07,4,4,0,0,1,.57,0h.35a3.84,3.84,0,0,0,.47,0,14.64,14.64,0,0,1-.1,2.18,4.21,4.21,0,0,1-.57,1.56,2.45,2.45,0,0,1-1.5.92,9.15,9.15,0,0,1-2.34.28c-.39,0-.74,0-1.07,0a3.17,3.17,0,0,1-.61-.09,3.51,3.51,0,0,1-2.72-2.37,11,11,0,0,1-.72-4.69c0-.13,0-.4.08-.8s.07-.83.13-1.26a5.22,5.22,0,0,1,.32-1.28,3.3,3.3,0,0,1,1.66-1.63A6.13,6.13,0,0,1,58,275a7.13,7.13,0,0,1,1.61.19c2.18.37,3.26,2,3.26,4.92,0,.24,0,.58,0,1a15.06,15.06,0,0,1-2.69.24c-.18,0-.56,0-1.15,0-1.27,0-2.2,0-2.81,0A3.78,3.78,0,0,1,55.25,281.32Zm5.83-1.8a3.54,3.54,0,0,0-.37-1.46,2.62,2.62,0,0,0-1-1.13,2.52,2.52,0,0,0-.62-.21,3.21,3.21,0,0,0-.67-.05,2.59,2.59,0,0,0-3.05,2.49,3.65,3.65,0,0,0,0,.39.37.37,0,0,0,.28.38,4.2,4.2,0,0,0,1.19.1c.59,0,1.09,0,1.51,0,1.53,0,2.4,0,2.59,0l.16-.06a.21.21,0,0,0,0-.13Z" style="fill:#4d4d4d"/><path d="M66.79,275.49a3.21,3.21,0,0,1,0,.67v.6A3.77,3.77,0,0,1,69,275.68a7.57,7.57,0,0,1,1.42-.16,3.22,3.22,0,0,1,1.7.4,1.23,1.23,0,0,1,.7.68,5,5,0,0,0,.49-.35,3.63,3.63,0,0,1,.89-.48,4.55,4.55,0,0,1,1.57-.25,7.47,7.47,0,0,1,1.89.1,2.91,2.91,0,0,1,1.23.64,2,2,0,0,1,.43,1.25,22.25,22.25,0,0,1,.12,2.59c0,.61,0,1.57,0,2.88s0,2.19,0,2.74,0,1,0,1.63a10,10,0,0,1-2,.09c0-.43,0-1.22,0-2.37s0-2.21,0-2.88v-1a6.26,6.26,0,0,1,0-.7c0-.33-.05-.7-.1-1.1a2,2,0,0,0-.29-.91c-.09-.32-.4-.51-.93-.55a3.18,3.18,0,0,0-.7-.05,2.79,2.79,0,0,0-1.2.23,1.41,1.41,0,0,0-.72.7c0,.36,0,.64,0,.84l0,.68v.88c0,.55,0,1.38,0,2.5l0,2.4c0,.59,0,1,0,1.27a9.93,9.93,0,0,1-1.37.07h-.74c0-.32,0-.88,0-1.7v-1.27l0-1.78c0-1.1,0-2.08-.09-2.93a2.07,2.07,0,0,0-.34-1.38,1.68,1.68,0,0,0-1.25-.37c-1.69,0-2.6.95-2.73,2.86q0,.36,0,1.05c0,.52,0,1.24,0,2.16l0,1.18c0,.66,0,1.34-.08,2v.1a4.13,4.13,0,0,1-.67.07l-.79,0a4.51,4.51,0,0,0-.58,0l0-4.13c0-1.89,0-3.3,0-4.25,0-.77,0-2,0-3.65.42,0,.66.05.74.05l.53,0,.31,0,.39,0C66.72,275.42,66.79,275.44,66.79,275.49Z" style="fill:#4d4d4d"/><path d="M83.67,292v.26s-.11.06-.32.09-.44,0-.69,0a6.67,6.67,0,0,1-1-.07v-1.58c0-1.51,0-3.71-.1-6.63,0-.7,0-1.56,0-2.58s0-2.16,0-3.44,0-2.06,0-2.64l1.56,0a6.37,6.37,0,0,1,.7,0,.49.49,0,0,1,0,.2c0,.12,0,.25,0,.38a1.62,1.62,0,0,0,0,.21,2.1,2.1,0,0,1,0,.34c0,.08,0,.11.08.11s.09-.07.16-.18a2.35,2.35,0,0,1,1.17-.8,4.91,4.91,0,0,1,1.51-.24,3,3,0,0,1,.53,0,3.71,3.71,0,0,1,2.53,1,4.56,4.56,0,0,1,1.17,2.3,19.75,19.75,0,0,1,.33,3.44,9.66,9.66,0,0,1-.46,3.16,2.56,2.56,0,0,1-1.48,1.71,5.12,5.12,0,0,1-1.44.31c-.18,0-.46,0-.84,0a12,12,0,0,1-2.23-.19q-1-.19-1.08-.48l.05,2.93c0,.35,0,.78-.05,1.3Zm2.18-6.38a10.52,10.52,0,0,0,1.72-.11,1.88,1.88,0,0,0,1-.51,2.88,2.88,0,0,0,.69-1.28,8.57,8.57,0,0,0,.19-1.75,7.49,7.49,0,0,0-.68-3.31,2.43,2.43,0,0,0-2.63-1.25,2.6,2.6,0,0,0-1.69.63,2.57,2.57,0,0,0-.69,1.43,17.57,17.57,0,0,0-.14,2.5,14.94,14.94,0,0,0,.14,2.43,1.33,1.33,0,0,0,.59,1A3.41,3.41,0,0,0,85.85,285.6Z" style="fill:#4d4d4d"/><path d="M94.9,281.32v.44l0,.69c0,2,1,3,2.93,3a2.42,2.42,0,0,0,1.74-.54,1.94,1.94,0,0,0,.57-1.48c0-.09,0-.27,0-.53a8,8,0,0,1,.93-.07,4.1,4.1,0,0,1,.58,0h.35a3.87,3.87,0,0,0,.47,0,14.64,14.64,0,0,1-.1,2.18,4.06,4.06,0,0,1-.58,1.56,2.39,2.39,0,0,1-1.5.92,9,9,0,0,1-2.34.28c-.38,0-.74,0-1.06,0a3.33,3.33,0,0,1-.62-.09,3.51,3.51,0,0,1-2.71-2.37,11,11,0,0,1-.72-4.69c0-.13,0-.4.07-.8s.08-.83.14-1.26a5.22,5.22,0,0,1,.32-1.28A3.26,3.26,0,0,1,95,275.61a6.1,6.1,0,0,1,2.66-.57,7.13,7.13,0,0,1,1.61.19q3.25.56,3.26,4.92c0,.24,0,.58,0,1a14.89,14.89,0,0,1-2.68.24c-.18,0-.56,0-1.16,0-1.26,0-2.2,0-2.8,0A3.78,3.78,0,0,1,94.9,281.32Zm5.83-1.8a3.71,3.71,0,0,0-.37-1.46,2.12,2.12,0,0,0-1.62-1.34,3.21,3.21,0,0,0-.67-.05,2.59,2.59,0,0,0-3,2.49,3.65,3.65,0,0,0,0,.39.37.37,0,0,0,.28.38,4.16,4.16,0,0,0,1.18.1c.6,0,1.1,0,1.52,0,1.53,0,2.4,0,2.59,0a.37.37,0,0,0,.15-.06s0-.07,0-.13Z" style="fill:#4d4d4d"/><path d="M106.44,275.47c0,.19,0,.34,0,.44s0,.23,0,.37l.47-.21.66-.24a6.15,6.15,0,0,1,1.34-.28c.51-.05,1-.08,1.4-.08s.58,0,.58,0l0,2a6.32,6.32,0,0,0,0,.72,6.57,6.57,0,0,0-.82-.27,5.2,5.2,0,0,0-1.15-.12,6.43,6.43,0,0,0-1.47.2,1.54,1.54,0,0,0-.91.5,2.22,2.22,0,0,0-.21,1.27q.09,3.29.09,7.47v.09a3.33,3.33,0,0,1-.84.1h-.54a6.26,6.26,0,0,0-.75,0l0-4.13c0-1.89,0-3.3,0-4.25,0-.77,0-2,0-3.65a4.27,4.27,0,0,0,.52,0l.49,0,.77,0C106.31,275.42,106.44,275.44,106.44,275.47Z" style="fill:#4d4d4d"/><path d="M120.5,275.35a10.63,10.63,0,0,1,1.42,0l.62,0a3.83,3.83,0,0,1,0,.58v.24c0,.37,0,.92,0,1.66s0,1.5.05,2.68l0,2.69c0,1.15,0,2.2-.1,3.15v.31a1.91,1.91,0,0,1,0,.43.32.32,0,0,1-.27.24h-.41l-.76,0a1.78,1.78,0,0,0-.34,0,1.18,1.18,0,0,1-.26,0c-.16,0-.24-.22-.24-.52a1.32,1.32,0,0,1,0-.44,3.28,3.28,0,0,0,0-.4,3,3,0,0,1-1.82,1.08,11,11,0,0,1-2.45.28,2.39,2.39,0,0,1-1.95-1,6.53,6.53,0,0,1-1.19-2.5,11.49,11.49,0,0,1-.39-2.91,7.22,7.22,0,0,1,.53-2.81,5,5,0,0,1,1.45-2,3.36,3.36,0,0,1,2.06-.75l.76,0a5.33,5.33,0,0,1,1.79.26,1.8,1.8,0,0,1,1,.92,3.09,3.09,0,0,1,.05-.55c0-.32,0-.55,0-.67S120.3,275.35,120.5,275.35Zm-2.68,2.16a3.17,3.17,0,0,0-2.1.63,2.69,2.69,0,0,0-1,1.58,7.16,7.16,0,0,0-.19,1.87c.08,2.57,1.12,3.81,3.12,3.69a2.89,2.89,0,0,0,1.78-.43,1.91,1.91,0,0,0,.68-1.22,15.53,15.53,0,0,0,.13-2.38,13.63,13.63,0,0,0-.14-2.43,1.37,1.37,0,0,0-.61-1A4.23,4.23,0,0,0,117.82,277.51Z" style="fill:#4d4d4d"/><path d="M128.88,271v3.67l0,1.34c1,0,2.32-.09,3.86-.17a1.26,1.26,0,0,1,.14.72l0,.56a4.14,4.14,0,0,0,0,.76c-1.75,0-3.05,0-3.92,0v4.49c0,.72,0,1.23.05,1.53a2.94,2.94,0,0,0,.19.8,2.25,2.25,0,0,0,1.55.6,14.35,14.35,0,0,0,2.13.07c.07.64.11,1.05.11,1.22a3.7,3.7,0,0,1-.11.87l-1.59,0a7.48,7.48,0,0,1-2.93-.46,2.34,2.34,0,0,1-1.34-1.82,55.22,55.22,0,0,1-.26-6.07v-1.15c-.1,0-.34,0-.73,0l-1.82,0,.07-2c.36,0,1.19.05,2.52.05l0-2.52v-1.13a11.91,11.91,0,0,1,0-1.42,8,8,0,0,1,1,0l.65,0Z" style="fill:#4d4d4d"/><path d="M141.5,287.4c0-.31,0-.56,0-.76s0-.37,0-.52l-.39.27a3.2,3.2,0,0,1-1.08.41,8.08,8.08,0,0,1-2.71.5,3.08,3.08,0,0,1-2.23-.72,1.87,1.87,0,0,1-.51-1.21q-.09-.86-.12-2.73v-.74c0-.5,0-1.22.05-2.18s.07-1.88.07-2.74c0-.42,0-.93,0-1.54.28,0,.68,0,1.17,0h.79a16.44,16.44,0,0,1,.08,1.7l0,1.94c0,.64,0,1.11,0,1.4l0,.67c0,.57,0,1.25.07,2a2.32,2.32,0,0,0,.33,1.2,1.36,1.36,0,0,0,.82.56,7.38,7.38,0,0,0,.89.07,2.68,2.68,0,0,0,3-2.86c0-.57,0-1.62-.07-3.14,0-.77-.05-1.27-.05-1.51,0-.44,0-1.05.05-1.85v-.1a5.27,5.27,0,0,1,.73-.12l.42,0q.51,0,.87,0l0,4.13c0,1.89,0,3.31,0,4.25,0,.77,0,2,0,3.65a10.13,10.13,0,0,0-1.17.07l-.3,0a2.34,2.34,0,0,1-.38,0C141.58,287.47,141.5,287.44,141.5,287.4Z" style="fill:#4d4d4d"/><path d="M148,275.47c0,.19,0,.34,0,.44s0,.23,0,.37a4.71,4.71,0,0,1,.47-.21l.66-.24a6.18,6.18,0,0,1,1.33-.28c.52-.05,1-.08,1.41-.08s.57,0,.57,0l0,2c0,.32,0,.56,0,.72a6.4,6.4,0,0,0-.81-.27,5.3,5.3,0,0,0-1.16-.12,6.35,6.35,0,0,0-1.46.2,1.54,1.54,0,0,0-.91.5,2.29,2.29,0,0,0-.22,1.27q.1,3.29.1,7.47v.09a3.33,3.33,0,0,1-.84.1h-.54a6.45,6.45,0,0,0-.76,0l0-4.13c0-1.89,0-3.3,0-4.25,0-.77,0-2,0-3.65a4.18,4.18,0,0,0,.51,0l.5,0,.77,0C147.88,275.42,148,275.44,148,275.47Z" style="fill:#4d4d4d"/><path d="M156.22,281.32v.44l0,.69c0,2,1,3,2.93,3a2.45,2.45,0,0,0,1.74-.54,1.93,1.93,0,0,0,.56-1.48,5.18,5.18,0,0,0,0-.53,7.86,7.86,0,0,1,.93-.07,4.1,4.1,0,0,1,.58,0h.35a3.68,3.68,0,0,0,.46,0,13.58,13.58,0,0,1-.09,2.18,4.06,4.06,0,0,1-.58,1.56,2.45,2.45,0,0,1-1.5.92,9,9,0,0,1-2.34.28c-.38,0-.74,0-1.07,0a3.32,3.32,0,0,1-.61-.09,3.5,3.5,0,0,1-2.71-2.37,11,11,0,0,1-.72-4.69c0-.13,0-.4.07-.8s.08-.83.13-1.26a5.74,5.74,0,0,1,.33-1.28,3.24,3.24,0,0,1,1.65-1.63,6.14,6.14,0,0,1,2.67-.57,7.13,7.13,0,0,1,1.61.19q3.26.56,3.26,4.92c0,.24,0,.58-.05,1a14.93,14.93,0,0,1-2.69.24c-.17,0-.56,0-1.15,0-1.26,0-2.2,0-2.81,0A3.68,3.68,0,0,1,156.22,281.32Zm5.83-1.8a3.71,3.71,0,0,0-.37-1.46,2.75,2.75,0,0,0-1-1.13,2.66,2.66,0,0,0-.62-.21,3.25,3.25,0,0,0-.68-.05,2.58,2.58,0,0,0-3,2.49,2.09,2.09,0,0,0-.05.39.37.37,0,0,0,.27.38,4.25,4.25,0,0,0,1.19.1c.59,0,1.1,0,1.51,0,1.54,0,2.4,0,2.6,0a.37.37,0,0,0,.15-.06s0-.07,0-.13Z" style="fill:#4d4d4d"/><path d="M181.1,276h0a8.21,8.21,0,0,1-1.34.12,3.92,3.92,0,0,1-1.08-.12,3.29,3.29,0,0,0,0-.62,2.23,2.23,0,0,0-.38-1.34,2.16,2.16,0,0,0-1.06-.78,3.21,3.21,0,0,0-1-.16,3.62,3.62,0,0,0-1.61.37,3,3,0,0,0-1.2,1A2.14,2.14,0,0,0,173,276c.21,1.21,1.05,1.85,2.52,1.89a6.67,6.67,0,0,1,4.15,1.28,3.73,3.73,0,0,1,1.39,3,6.15,6.15,0,0,1-.66,2.95,4.37,4.37,0,0,1-1.78,1.83,5.18,5.18,0,0,1-2.5.62,7.38,7.38,0,0,1-2.66-.5,5.29,5.29,0,0,1-2.16-1.45,3.82,3.82,0,0,1-1-2.28v0a2.59,2.59,0,0,1-.07-.65v-.17c.35,0,.62-.05.82-.05l.88,0,.75,0a2.21,2.21,0,0,0,.59,1.63,3.58,3.58,0,0,0,1.86,1,3,3,0,0,0,.74.09,2.72,2.72,0,0,0,1.44-.38,2.51,2.51,0,0,0,1-1.06,2.62,2.62,0,0,0,.27-1.48,2.07,2.07,0,0,0-.61-1.37,2.53,2.53,0,0,0-1.2-.6,14.43,14.43,0,0,0-1.89-.24L174,280a4.11,4.11,0,0,1-2.09-.95,3.8,3.8,0,0,1-1.17-1.77,4.7,4.7,0,0,1-.22-1.41,4.52,4.52,0,0,1,.22-1.44,5.39,5.39,0,0,1,1.11-2,5.09,5.09,0,0,1,1.86-1.36,5.87,5.87,0,0,1,2.19-.38,7.61,7.61,0,0,1,3.14.65,3.84,3.84,0,0,1,2.18,3.62A6.59,6.59,0,0,1,181.1,276Z" style="fill:#4d4d4d"/><path d="M190.18,282.69a3.37,3.37,0,0,0,.52.05l.84,0a2.79,2.79,0,0,1,.68.07c-.08,1.1-.17,2-.26,2.57a2.16,2.16,0,0,1-.42,1.2,2.26,2.26,0,0,1-1.26.88,6.65,6.65,0,0,1-1.9.24c-.29,0-.72,0-1.3,0l-1.1,0a3.37,3.37,0,0,1-2.12-1.07,4.18,4.18,0,0,1-.9-2,24,24,0,0,1-.27-3c0-.89,0-1.55,0-2a10.91,10.91,0,0,1,.53-3.14,2.09,2.09,0,0,1,1.33-1,6.8,6.8,0,0,1,2.27-.35l.55,0h.54c.22,0,.48,0,.78,0a4.31,4.31,0,0,1,2.67,1,1.83,1.83,0,0,1,.71,1.22,18.19,18.19,0,0,1,.2,2.52l0,.58a3.51,3.51,0,0,1-.72.07,7,7,0,0,1-1.27-.12,3.52,3.52,0,0,0-.61-2.33,2.47,2.47,0,0,0-1.86-.62l-.94.05a3.85,3.85,0,0,0-1,.12,1.13,1.13,0,0,0-.61.45,2.55,2.55,0,0,0-.38,1.11,13.92,13.92,0,0,0-.08,1.8v1.92a3.18,3.18,0,0,0,.39,1.64,2,2,0,0,0,1.73,1,5.36,5.36,0,0,0,.64,0,2.73,2.73,0,0,0,1.68-.43,1.89,1.89,0,0,0,.71-1A7,7,0,0,0,190.18,282.69Z" style="fill:#4d4d4d"/><path d="M201.7,275.35a10.49,10.49,0,0,1,1.41,0l.63,0a5.22,5.22,0,0,1,0,.58v.24c0,.37,0,.92,0,1.66s0,1.5.05,2.68l0,2.69q0,1.72-.09,3.15v.31a1.88,1.88,0,0,1-.05.43.32.32,0,0,1-.27.24H203l-.77,0a1.78,1.78,0,0,0-.34,0,1.18,1.18,0,0,1-.26,0c-.16,0-.24-.22-.24-.52a1.65,1.65,0,0,1,0-.44,3.58,3.58,0,0,0,0-.4,3.09,3.09,0,0,1-1.83,1.08,11,11,0,0,1-2.45.28,2.41,2.41,0,0,1-2-1,6.53,6.53,0,0,1-1.19-2.5,11.46,11.46,0,0,1-.38-2.91,7.22,7.22,0,0,1,.52-2.81,5,5,0,0,1,1.46-2,3.34,3.34,0,0,1,2.05-.75l.77,0a5.27,5.27,0,0,1,1.78.26,1.8,1.8,0,0,1,1,.92,3.09,3.09,0,0,1,.05-.55c0-.32,0-.55,0-.67S201.49,275.35,201.7,275.35ZM199,277.51a3.2,3.2,0,0,0-2.1.63,2.69,2.69,0,0,0-1,1.58,7.16,7.16,0,0,0-.19,1.87c.08,2.57,1.12,3.81,3.12,3.69a2.89,2.89,0,0,0,1.78-.43,1.86,1.86,0,0,0,.68-1.22,15.53,15.53,0,0,0,.13-2.38,13.63,13.63,0,0,0-.14-2.43,1.37,1.37,0,0,0-.61-1A4.23,4.23,0,0,0,199,277.51Z" style="fill:#4d4d4d"/><path d="M206.57,270l2.18.07c0,.66,0,2.28-.05,4.87q0,4.8,0,7.54c0,2,0,3.62.07,4.82-.1.11-.36.17-.79.17l-.75,0a3.89,3.89,0,0,0-.53,0,.62.62,0,0,0-.24,0c.1-1.3.15-2.6.15-3.92,0-1,0-2.48-.1-4.46s-.09-3.48-.09-4.49C206.38,272.84,206.44,271.31,206.57,270Z" style="fill:#4d4d4d"/><path d="M213.17,281.32v.44l0,.69c0,2,1,3,2.93,3a2.42,2.42,0,0,0,1.74-.54,1.94,1.94,0,0,0,.57-1.48c0-.09,0-.27,0-.53a8,8,0,0,1,.93-.07,4.1,4.1,0,0,1,.58,0h.35a3.87,3.87,0,0,0,.47,0,14.64,14.64,0,0,1-.1,2.18,4.06,4.06,0,0,1-.58,1.56,2.39,2.39,0,0,1-1.5.92,9,9,0,0,1-2.34.28c-.38,0-.74,0-1.06,0a3.33,3.33,0,0,1-.62-.09,3.51,3.51,0,0,1-2.71-2.37,11,11,0,0,1-.72-4.69c0-.13,0-.4.07-.8s.08-.83.14-1.26a5.22,5.22,0,0,1,.32-1.28,3.26,3.26,0,0,1,1.66-1.63,6.1,6.1,0,0,1,2.66-.57,7.13,7.13,0,0,1,1.61.19q3.25.56,3.26,4.92c0,.24,0,.58-.05,1a14.89,14.89,0,0,1-2.68.24c-.18,0-.56,0-1.16,0-1.26,0-2.2,0-2.8,0A3.78,3.78,0,0,1,213.17,281.32Zm5.83-1.8a3.71,3.71,0,0,0-.37-1.46,2.12,2.12,0,0,0-1.62-1.34,3.21,3.21,0,0,0-.67-.05,2.59,2.59,0,0,0-3.05,2.49,2.09,2.09,0,0,0,0,.39.37.37,0,0,0,.28.38,4.16,4.16,0,0,0,1.18.1c.59,0,1.1,0,1.52,0,1.53,0,2.4,0,2.59,0a.37.37,0,0,0,.15-.06s0-.07,0-.13Z" style="fill:#4d4d4d"/></g><g id="Play_Pause_Buttons_Label" data-name="Play/Pause Buttons Label"><path d="M44.54,196v.31a4.94,4.94,0,0,1-2,3.88,8.35,8.35,0,0,1-5.05,1.33l-1,0a5.1,5.1,0,0,1,0,.65v1c0,.6,0,2.08.07,4.41v0l-.07,0a5.82,5.82,0,0,1-1.42.14,8.47,8.47,0,0,1-1.13-.07c0-1.07-.07-2.86-.07-5.37v-4.76q0-3.72-.09-6.4a12.66,12.66,0,0,1,3.5-.46,9.36,9.36,0,0,1,5,1.28A4.73,4.73,0,0,1,44.54,196Zm-2.35-.57a2.72,2.72,0,0,0-1-1.64,4.43,4.43,0,0,0-1.34-.64,6.32,6.32,0,0,0-1.73-.2,8.79,8.79,0,0,0-2,.17c0,.18,0,.41,0,.7v2.47c0,1.55.08,2.56.14,3a22.51,22.51,0,0,0,2.7-.14,5.87,5.87,0,0,0,2.31-.78,2.13,2.13,0,0,0,1.07-2A3.62,3.62,0,0,0,42.19,195.38Z" style="fill:#4d4d4d"/><path d="M46.8,190.29l2.18.07c0,.66,0,2.28,0,4.87,0,3.2,0,5.71,0,7.54,0,2,0,3.62.07,4.82-.1.11-.36.17-.79.17l-.75,0a3.84,3.84,0,0,0-.52,0,.56.56,0,0,0-.24,0c.09-1.3.14-2.6.14-3.92,0-1,0-2.48-.1-4.46s-.09-3.48-.09-4.49C46.61,193.18,46.67,191.65,46.8,190.29Z" style="fill:#4d4d4d"/><path d="M59.26,195.69a10.49,10.49,0,0,1,1.41.05l.63,0a5.22,5.22,0,0,1,0,.58v.24c0,.37,0,.92,0,1.66s0,1.5,0,2.68l0,2.69q0,1.73-.09,3.15v.31a1.88,1.88,0,0,1,0,.43.31.31,0,0,1-.27.24h-.4l-.77,0a1.78,1.78,0,0,0-.34,0,1.18,1.18,0,0,1-.26,0c-.16,0-.24-.22-.24-.52a1.65,1.65,0,0,1,0-.44,3.58,3.58,0,0,0,0-.4,3.09,3.09,0,0,1-1.83,1.08,11,11,0,0,1-2.45.28,2.41,2.41,0,0,1-2-1,6.68,6.68,0,0,1-1.19-2.5,11.46,11.46,0,0,1-.38-2.91,7.22,7.22,0,0,1,.52-2.81,5,5,0,0,1,1.46-2,3.34,3.34,0,0,1,2-.75l.77,0a5.27,5.27,0,0,1,1.78.26,1.77,1.77,0,0,1,1.05.92,3.09,3.09,0,0,1,0-.55c0-.32,0-.55,0-.67S59.05,195.69,59.26,195.69Zm-2.69,2.16a3.2,3.2,0,0,0-2.1.63,2.69,2.69,0,0,0-1,1.58,7.62,7.62,0,0,0-.19,1.87c.08,2.57,1.12,3.81,3.12,3.69a2.89,2.89,0,0,0,1.78-.43,1.86,1.86,0,0,0,.68-1.22,15.53,15.53,0,0,0,.13-2.38,13.63,13.63,0,0,0-.14-2.43,1.37,1.37,0,0,0-.61-1A4.23,4.23,0,0,0,56.57,197.85Z" style="fill:#4d4d4d"/><path d="M62.74,195.74l1.24,0a9.85,9.85,0,0,1,1.16.05L66,199.1q.89,3.38,1.37,5.1a13.2,13.2,0,0,0,.79,2.29,7.44,7.44,0,0,0,.84-2.35q.48-1.92,1.15-5.09c0-.19.17-.73.35-1.61a13.66,13.66,0,0,1,.4-1.63l.93,0a14.12,14.12,0,0,1,1.42,0c-.16.58-.45,1.74-.87,3.5l-.43,1.8c-.06.21-.21.88-.43,2a31.63,31.63,0,0,1-1.31,4.66,7,7,0,0,1-2.31,3A7.31,7.31,0,0,1,63.34,212c-.36,0-.63,0-.82,0a3.44,3.44,0,0,1-.19-1.24,3.91,3.91,0,0,1,.09-.92c.52,0,.88.05,1.11.05q2.73,0,2.73-1.41a2,2,0,0,0,0-.36l-1.71-6Q63.67,199.19,62.74,195.74Z" style="fill:#4d4d4d"/><path d="M74.32,207.18c.12-.33.19-.56.22-.67l.46-1.27c.24-.67.43-1.18.58-1.54s.36-1,.69-1.89q1.28-3.44,2.55-7.27c.52-1.51.92-2.78,1.2-3.82a6.51,6.51,0,0,0,.93.05l.66,0a1.6,1.6,0,0,1,.52.12,1.11,1.11,0,0,0-.07.22,1.45,1.45,0,0,1-.08.21q-.24,1-1.71,5.49c-1,3-1.85,5.43-2.61,7.28l-1.34,3.46a.19.19,0,0,1-.19.14,5.83,5.83,0,0,1-.77,0c-.45,0-.84,0-1.18,0C74.15,207.71,74.2,207.52,74.32,207.18Z" style="fill:#4d4d4d"/><path d="M95.21,196v.31a4.94,4.94,0,0,1-2,3.88,8.37,8.37,0,0,1-5,1.33l-1,0c0,.14,0,.36,0,.65v1c0,.6,0,2.08.07,4.41v0l-.07,0a5.68,5.68,0,0,1-1.41.14,8.36,8.36,0,0,1-1.13-.07c-.05-1.07-.07-2.86-.07-5.37v-4.76c0-2.48,0-4.61-.1-6.4a12.76,12.76,0,0,1,3.5-.46,9.4,9.4,0,0,1,5,1.28A4.78,4.78,0,0,1,95.21,196Zm-2.35-.57a2.77,2.77,0,0,0-1-1.64,4.6,4.6,0,0,0-1.35-.64,6.24,6.24,0,0,0-1.72-.2,8.83,8.83,0,0,0-2,.17,7,7,0,0,1,0,.7v2.47c0,1.55.08,2.56.15,3a22.74,22.74,0,0,0,2.7-.14,5.87,5.87,0,0,0,2.3-.78,2.13,2.13,0,0,0,1.07-2A4,4,0,0,0,92.86,195.38Z" style="fill:#4d4d4d"/><path d="M104,195.69a10.44,10.44,0,0,1,1.41.05l.63,0c0,.26,0,.45,0,.58v.24c0,.37,0,.92,0,1.66s0,1.5,0,2.68l0,2.69q0,1.73-.09,3.15v.31a1.88,1.88,0,0,1-.05.43.31.31,0,0,1-.26.24h-.41l-.77,0a1.78,1.78,0,0,0-.34,0,1.18,1.18,0,0,1-.26,0c-.16,0-.24-.22-.24-.52a1.65,1.65,0,0,1,0-.44,2.15,2.15,0,0,0,0-.4,3.06,3.06,0,0,1-1.83,1.08,10.88,10.88,0,0,1-2.44.28,2.42,2.42,0,0,1-2-1,6.68,6.68,0,0,1-1.19-2.5,11.93,11.93,0,0,1-.38-2.91,7,7,0,0,1,.53-2.81,4.87,4.87,0,0,1,1.45-2,3.34,3.34,0,0,1,2-.75l.77,0a5.38,5.38,0,0,1,1.79.26,1.75,1.75,0,0,1,1,.92,4.44,4.44,0,0,1,0-.55c0-.32,0-.55,0-.67S103.76,195.69,104,195.69Zm-2.69,2.16a3.2,3.2,0,0,0-2.1.63,2.62,2.62,0,0,0-1,1.58,7.09,7.09,0,0,0-.2,1.87c.08,2.57,1.12,3.81,3.12,3.69a2.89,2.89,0,0,0,1.78-.43,1.82,1.82,0,0,0,.68-1.22,15.26,15.26,0,0,0,.14-2.38,13.37,13.37,0,0,0-.15-2.43,1.34,1.34,0,0,0-.61-1A4.23,4.23,0,0,0,101.28,197.85Z" style="fill:#4d4d4d"/><path d="M115.2,207.74c0-.31,0-.56,0-.76a3.94,3.94,0,0,0,0-.52l-.38.27a3.38,3.38,0,0,1-1.08.41,8.08,8.08,0,0,1-2.71.5,3.11,3.11,0,0,1-2.24-.72,1.82,1.82,0,0,1-.5-1.21q-.09-.86-.12-2.73v-.74c0-.5,0-1.22,0-2.18s.07-1.88.07-2.74c0-.42,0-.93,0-1.54.29,0,.68,0,1.18,0h.79a16.73,16.73,0,0,1,.07,1.7l0,1.94c0,.64,0,1.11,0,1.4l0,.67c0,.57,0,1.25.07,2a2.43,2.43,0,0,0,.32,1.2,1.38,1.38,0,0,0,.83.56,7.38,7.38,0,0,0,.89.07,2.92,2.92,0,0,0,2.17-.77,3,3,0,0,0,.78-2.09c0-.57,0-1.62-.07-3.14,0-.77,0-1.27,0-1.51,0-.44,0-1.05,0-1.85v-.1a5,5,0,0,1,.73-.12l.42,0c.34,0,.62,0,.86,0l0,4.13c0,1.89,0,3.31,0,4.25,0,.77,0,2,0,3.65a10.29,10.29,0,0,0-1.18.07l-.3,0a2.22,2.22,0,0,1-.37,0C115.28,207.81,115.2,207.78,115.2,207.74Z" style="fill:#4d4d4d"/><path d="M129.07,198.86q0,.12-.84.12c-.41,0-.72,0-.91,0h-.38a1.57,1.57,0,0,0-.32,0v-.83c0-.53-.46-.86-1.39-1a6.93,6.93,0,0,0-.93-.05,7.43,7.43,0,0,0-1.22.1,2.26,2.26,0,0,0-.8.26,1.51,1.51,0,0,0-.48.7,2.6,2.6,0,0,0-.17.89.71.71,0,0,0,.1.45,1.55,1.55,0,0,0,.69.77,4.67,4.67,0,0,0,1.18.41,7.29,7.29,0,0,0,1.61.26,5.75,5.75,0,0,1,1.74.3,3,3,0,0,1,1.19.76,4,4,0,0,1,.63,1,3,3,0,0,1,.21,1.12,5.71,5.71,0,0,1-.36,1.8,3.43,3.43,0,0,1-1.68,1.66,6,6,0,0,1-2.62.5,7.33,7.33,0,0,1-2.83-.42,4,4,0,0,1-1.9-1.4,3.69,3.69,0,0,1-.67-2.21V204c.29,0,.71-.05,1.27-.05a3.13,3.13,0,0,1,1,.07,2.42,2.42,0,0,1,.2.54,3.31,3.31,0,0,0,.57,1,1.86,1.86,0,0,0,1.39.57c.51,0,.82.05.91.05a2.31,2.31,0,0,0,.64-.07,5.8,5.8,0,0,0,.66-.26,1.72,1.72,0,0,0,1.2-1.61,1.38,1.38,0,0,0-.37-1.08,2,2,0,0,0-1-.52c-.4-.09-.94-.17-1.63-.25l-1.2-.14a3.16,3.16,0,0,1-.82-.24,3.81,3.81,0,0,1-1.91-1.29,3.1,3.1,0,0,1-.66-1.91,3.46,3.46,0,0,1,.66-2.05,3.09,3.09,0,0,1,1.82-1.21,9.74,9.74,0,0,1,2.52-.26c.24,0,.6,0,1.08,0a8.37,8.37,0,0,1,1.92.36,3,3,0,0,1,1.36,1.24A3.65,3.65,0,0,1,129.07,198.86Z" style="fill:#4d4d4d"/><path d="M132.58,201.66v.44l0,.69c0,2,1,3,2.93,3a2.45,2.45,0,0,0,1.74-.54,1.93,1.93,0,0,0,.56-1.48,5.18,5.18,0,0,0,0-.53,7.86,7.86,0,0,1,.93-.07,4.1,4.1,0,0,1,.58,0h.35a3.68,3.68,0,0,0,.46,0,13.58,13.58,0,0,1-.09,2.18,4.06,4.06,0,0,1-.58,1.56,2.45,2.45,0,0,1-1.5.92,9,9,0,0,1-2.34.28c-.38,0-.74,0-1.07-.05a3.32,3.32,0,0,1-.61-.09,3.5,3.5,0,0,1-2.71-2.37,11,11,0,0,1-.72-4.69c0-.13,0-.4.07-.8s.08-.83.13-1.26a5.74,5.74,0,0,1,.33-1.28,3.24,3.24,0,0,1,1.65-1.63,6.14,6.14,0,0,1,2.67-.57,7.13,7.13,0,0,1,1.61.19q3.25.56,3.26,4.92c0,.24,0,.58,0,1a14.93,14.93,0,0,1-2.69.24c-.17,0-.56,0-1.15,0-1.26,0-2.2,0-2.81,0A3.68,3.68,0,0,1,132.58,201.66Zm5.83-1.8a3.71,3.71,0,0,0-.37-1.46,2.75,2.75,0,0,0-1-1.13,2.66,2.66,0,0,0-.62-.21,3.25,3.25,0,0,0-.68-.05,2.58,2.58,0,0,0-3,2.49,2.09,2.09,0,0,0,0,.39.37.37,0,0,0,.27.38,4.25,4.25,0,0,0,1.19.1c.59,0,1.1,0,1.51,0,1.54,0,2.4,0,2.6,0a.37.37,0,0,0,.15-.06s0-.07,0-.13Z" style="fill:#4d4d4d"/><path d="M58.09,225.29a.36.36,0,0,0-.05.19.46.46,0,0,0,.17.31,13.57,13.57,0,0,1,1.3,1.85,3.69,3.69,0,0,1,.41,1.78,5,5,0,0,1-.08.84A3.56,3.56,0,0,1,58,233.09a8.89,8.89,0,0,1-3.88.74l-1.16,0-1-.05c-.64,0-1.24-.07-1.82-.07a.76.76,0,0,1-.31-.05c0-1.26-.07-3.15-.07-5.66l0-7.54c0-1.47,0-2.58,0-3.31l0,0a14,14,0,0,1,3.7-.52,7,7,0,0,1,4.2,1.16,4.36,4.36,0,0,1,1.63,3.8A7.28,7.28,0,0,1,58.09,225.29Zm-4.92,6.36,1.25,0a3.85,3.85,0,0,0,1.64-.3,2.62,2.62,0,0,0,1.12-1.14,1.92,1.92,0,0,0,.19-.87,3.94,3.94,0,0,0-.26-1.29,1.6,1.6,0,0,0-.82-1,2.91,2.91,0,0,0-1.23-.34l-.76,0a3.82,3.82,0,0,0-.62,0L52,226.8a2.78,2.78,0,0,0-.21,1.34,25.21,25.21,0,0,0,.31,3.41C52.45,231.6,52.82,231.63,53.17,231.65Zm0-7.06,1.18,0a3.63,3.63,0,0,0,1.61-.28,1.9,1.9,0,0,0,.86-1,3.22,3.22,0,0,0,.39-1.56,3.53,3.53,0,0,0-.08-.72,2.2,2.2,0,0,0-.91-1.53,3.77,3.77,0,0,0-1.92-.51,6.61,6.61,0,0,0-.74,0,4,4,0,0,0-1.68.22l0,.65,0,1.68v1a8.38,8.38,0,0,0,.15,1.92Z" style="fill:#4d4d4d"/><path d="M68.48,233.74c0-.31,0-.56,0-.76s0-.37,0-.52l-.39.27a3.2,3.2,0,0,1-1.08.41,8.08,8.08,0,0,1-2.71.5,3.08,3.08,0,0,1-2.23-.72,1.87,1.87,0,0,1-.51-1.21q-.09-.86-.12-2.73v-.74c0-.5,0-1.22.05-2.18s.07-1.88.07-2.74c0-.42,0-.93,0-1.54.28,0,.68,0,1.17,0h.79a16.44,16.44,0,0,1,.08,1.7l0,1.94c0,.64,0,1.11,0,1.4l0,.67c0,.57,0,1.25.07,2a2.32,2.32,0,0,0,.33,1.2,1.36,1.36,0,0,0,.82.56,7.38,7.38,0,0,0,.89.07,2.68,2.68,0,0,0,2.95-2.86c0-.57,0-1.62-.07-3.14,0-.77,0-1.27,0-1.51,0-.44,0-1.05,0-1.85v-.1a5.27,5.27,0,0,1,.73-.12l.42,0q.51,0,.87,0l0,4.13c0,1.89.05,3.31.05,4.25,0,.77,0,2-.05,3.65a10.13,10.13,0,0,0-1.17.07l-.3,0a2.34,2.34,0,0,1-.38,0C68.56,233.81,68.48,233.78,68.48,233.74Z" style="fill:#4d4d4d"/><path d="M76.91,217.3V221l0,1.34c1,0,2.33-.09,3.87-.17a1.35,1.35,0,0,1,.14.72l0,.56a4.39,4.39,0,0,0,0,.76c-1.74,0-3,0-3.91,0v4.49c0,.72,0,1.23,0,1.53a2.61,2.61,0,0,0,.19.8,2.25,2.25,0,0,0,1.55.6,14.18,14.18,0,0,0,2.12.07c.08.64.12,1,.12,1.22a3.26,3.26,0,0,1-.12.87l-1.58,0a7.45,7.45,0,0,1-2.93-.46A2.34,2.34,0,0,1,75,231.48a54.84,54.84,0,0,1-.27-6.07v-1.15c-.09,0-.33,0-.72,0l-1.82,0,.07-2c.35,0,1.19.05,2.52.05l0-2.52v-1.13c0-.67,0-1.15,0-1.42a8.13,8.13,0,0,1,1,0l.64,0Z" style="fill:#4d4d4d"/><path d="M86.68,217.3V221l0,1.34c1,0,2.33-.09,3.86-.17a1.24,1.24,0,0,1,.15.72l0,.56a4.14,4.14,0,0,0,0,.76c-1.74,0-3,0-3.91,0v4.49a14,14,0,0,0,0,1.53,2.61,2.61,0,0,0,.19.8,2.23,2.23,0,0,0,1.55.6,14.18,14.18,0,0,0,2.12.07c.08.64.12,1,.12,1.22a3.26,3.26,0,0,1-.12.87l-1.58,0a7.45,7.45,0,0,1-2.93-.46,2.35,2.35,0,0,1-1.35-1.82,57.84,57.84,0,0,1-.26-6.07v-1.15c-.1,0-.34,0-.72,0l-1.82,0,.07-2c.35,0,1.19.05,2.52.05l0-2.52v-1.13c0-.67,0-1.15,0-1.42a8,8,0,0,1,1,0l.65,0Z" style="fill:#4d4d4d"/><path d="M92.05,225.94a11.3,11.3,0,0,1,.09-1.54,7.54,7.54,0,0,1,.42-1.61,2.06,2.06,0,0,1,1.33-1,7,7,0,0,1,2.27-.35,3.11,3.11,0,0,0,.48,0l1,0a4.21,4.21,0,0,1,3.09,1.06,1.83,1.83,0,0,1,.66,1.08,9,9,0,0,1,.28,2.12c0,.89.05,1.4.05,1.55-.07,1.6-.14,2.87-.23,3.81a3.21,3.21,0,0,1-.54,1.83,2.35,2.35,0,0,1-1.26.89,6.73,6.73,0,0,1-1.91.24c-.29,0-.72,0-1.3,0l-1.1,0a3.52,3.52,0,0,1-2.12-1A3.77,3.77,0,0,1,92.3,231a14.14,14.14,0,0,1-.2-2.54v-1.25A12.67,12.67,0,0,0,92.05,225.94Zm4.9-2.28a2.94,2.94,0,0,0-2.35.84,1.94,1.94,0,0,0-.4,1,8.57,8.57,0,0,0-.06,1.52,7.9,7.9,0,0,0,0,1c0,.4,0,.71,0,.94l0,1a1.81,1.81,0,0,0,.54,1.35,2.43,2.43,0,0,0,1.18.54,6.41,6.41,0,0,0,1,.07,3.76,3.76,0,0,0,1.63-.33,1.62,1.62,0,0,0,.89-1.11,7.18,7.18,0,0,0,.09-1q.12-1.68.12-2.28a4.93,4.93,0,0,0-.57-2.54A2.32,2.32,0,0,0,97,223.66Z" style="fill:#4d4d4d"/><path d="M105.85,221.81a4,4,0,0,1,.05.67v.6a10.13,10.13,0,0,1,1.92-.85,6.83,6.83,0,0,1,2.21-.37,3.49,3.49,0,0,1,2.16.74c.38.34.57,1.7.57,4.1,0,.61,0,1.56,0,2.84s0,2.09,0,2.64,0,1.2,0,1.51a8.78,8.78,0,0,1-1.32.07h-.79a13,13,0,0,1,0-1.34v-1l0-1.53c0-1,0-1.79,0-2.23q0-.15-.06-1a5.89,5.89,0,0,0-.28-1.49c0-.56-.44-.81-1.17-.76a5.3,5.3,0,0,0-2.44.45,1.81,1.81,0,0,0-.87,1.56c0,.21,0,.6,0,1.18,0,.89,0,1.85,0,2.88,0,.61,0,1.05,0,1.34,0,.59,0,1.2-.07,1.83v.09a4,4,0,0,1-.9.09l-.64,0a4.54,4.54,0,0,0-.6,0l0-4.13c0-1.89,0-3.3,0-4.25,0-.77,0-2,0-3.65a6.45,6.45,0,0,0,.67,0,5.22,5.22,0,0,0,.62,0,2.12,2.12,0,0,0,.34,0,2.42,2.42,0,0,1,.38,0C105.77,221.74,105.85,221.76,105.85,221.81Z" style="fill:#4d4d4d"/><path d="M124.4,224.86q0,.12-.84.12c-.41,0-.72,0-.91,0h-.38a1.47,1.47,0,0,0-.31,0v-.83c0-.53-.47-.86-1.4-1a6.82,6.82,0,0,0-.93-.05,7.3,7.3,0,0,0-1.21.1,2.33,2.33,0,0,0-.81.26,1.51,1.51,0,0,0-.48.7,2.6,2.6,0,0,0-.17.89.78.78,0,0,0,.1.45,1.57,1.57,0,0,0,.7.77,4.54,4.54,0,0,0,1.17.41,7.39,7.39,0,0,0,1.61.26,5.64,5.64,0,0,1,1.74.3,3,3,0,0,1,1.19.76,3.76,3.76,0,0,1,.63,1,3,3,0,0,1,.21,1.12A5.71,5.71,0,0,1,124,232a3.35,3.35,0,0,1-1.68,1.66,6,6,0,0,1-2.62.5,7.37,7.37,0,0,1-2.83-.42,4,4,0,0,1-1.9-1.4,3.75,3.75,0,0,1-.67-2.21V230c.29,0,.71-.05,1.27-.05a3.13,3.13,0,0,1,1,.07,2.76,2.76,0,0,1,.21.54,3.07,3.07,0,0,0,.56,1,1.88,1.88,0,0,0,1.39.57c.51,0,.82.05.91.05a2.31,2.31,0,0,0,.64-.07,5.8,5.8,0,0,0,.66-.26,1.7,1.7,0,0,0,1.2-1.61,1.35,1.35,0,0,0-.37-1.08,2,2,0,0,0-1-.52c-.4-.09-.94-.17-1.63-.25l-1.2-.14a3.28,3.28,0,0,1-.82-.24,3.78,3.78,0,0,1-1.9-1.29,3.1,3.1,0,0,1-.66-1.91,3.46,3.46,0,0,1,.66-2.05,3.07,3.07,0,0,1,1.81-1.21,9.74,9.74,0,0,1,2.52-.26c.24,0,.6,0,1.08,0a8.18,8.18,0,0,1,1.92.36,3,3,0,0,1,1.37,1.24A3.73,3.73,0,0,1,124.4,224.86Z" style="fill:#4d4d4d"/></g><g id="View_Hide_Buttons_Label" data-name="View/Hide Buttons Label"><path d="M49.07,120.3c.16,0,.45,0,.87,0a8.79,8.79,0,0,1,1.48.1c-.65,3-1.32,5.79-2,8.29s-1.45,5.21-2.33,8.1a3.51,3.51,0,0,0-.46,0l-.62,0a4.39,4.39,0,0,1-1.41-.14q-1.3-4.2-2-7.51t-1.5-8.74v0a.9.9,0,0,1,.56-.21,7.32,7.32,0,0,1,1-.06,5.45,5.45,0,0,1,.8,0q0,.27.33,2.16.41,3,.89,5.65A48.11,48.11,0,0,0,46,133.4c.34-1.28.67-2.63,1-4.06s.52-2.31.6-2.63.29-1.31.6-2.64.6-2.58.91-3.75c0,0,0,0,0,0Z" style="fill:#4d4d4d"/><path d="M53.3,124.72a3.5,3.5,0,0,1,.67,0c.48,0,1,0,1.58,0v.08c0,.72,0,1.83,0,3.33s-.07,3.09-.07,4.66,0,2.78.1,3.93a5,5,0,0,1-1,.08H53.7a2.86,2.86,0,0,0-.52,0c0-.46,0-1.17,0-2.11v-4.18c0-1.12-.05-2-.05-2.59q0-1.65.15-3.24Zm-.1-5.16c1,0,1.74,0,2.26,0l.07,3.17a2.16,2.16,0,0,1-.87.12l-.57,0h-.34a2.32,2.32,0,0,0-.45,0c0-.24,0-.63,0-1.18C53.2,120.64,53.18,119.92,53.2,119.56Z" style="fill:#4d4d4d"/><path d="M59.87,130.76v.44l0,.69c0,2,1,3,2.93,3a2.45,2.45,0,0,0,1.74-.54,2,2,0,0,0,.56-1.48c0-.09,0-.27,0-.53a8.18,8.18,0,0,1,.94-.07,3.94,3.94,0,0,1,.57,0h.35a3.84,3.84,0,0,0,.47,0,13.39,13.39,0,0,1-.1,2.18,4.21,4.21,0,0,1-.57,1.56,2.45,2.45,0,0,1-1.5.92,9,9,0,0,1-2.34.28c-.39,0-.74,0-1.07-.05a3.17,3.17,0,0,1-.61-.09,3.5,3.5,0,0,1-2.71-2.37,11,11,0,0,1-.72-4.69c0-.13,0-.4.07-.8s.07-.83.13-1.26a5.72,5.72,0,0,1,.32-1.28,3.3,3.3,0,0,1,1.66-1.63,6.13,6.13,0,0,1,2.66-.57,7.06,7.06,0,0,1,1.61.19q3.27.56,3.27,4.92c0,.24,0,.58,0,1a15.06,15.06,0,0,1-2.69.24c-.18,0-.56,0-1.15,0-1.27,0-2.2,0-2.81,0A3.78,3.78,0,0,1,59.87,130.76ZM65.7,129a3.54,3.54,0,0,0-.37-1.46,2.66,2.66,0,0,0-1-1.13,2.57,2.57,0,0,0-.63-.21,3.15,3.15,0,0,0-.67,0,2.59,2.59,0,0,0-3,2.49,3.65,3.65,0,0,0-.05.39.38.38,0,0,0,.28.38,4.2,4.2,0,0,0,1.19.1c.59,0,1.09,0,1.51,0,1.54,0,2.4,0,2.59,0a.53.53,0,0,0,.16-.06.21.21,0,0,0,0-.13Z" style="fill:#4d4d4d"/><path d="M68.32,124.84l1.22,0a10.91,10.91,0,0,1,1.18,0l.36,2.21c.42,2.75.87,5.2,1.37,7.34.78-2.22,1.39-4.06,1.81-5.5s.77-2.81,1-4.12c.15,0,.52,0,1.13,0a5.21,5.21,0,0,1,1.27,0l.15.79c.27,1.38.55,2.68.85,3.9s.76,2.81,1.38,4.74q.57-2.21,1.2-5.47c.06-.27.19-.87.38-1.79s.36-1.63.51-2.15c.57,0,1,0,1.41,0s.64,0,.84,0c-.38,1.31-.7,2.5-1,3.56s-.5,2.06-.71,3c-.06.26-.21.9-.44,1.93s-.52,2.21-.88,3.52a3.19,3.19,0,0,1-1,.07l-1.71,0c-.72-2.83-1.5-5.62-2.35-8.35-.62,2-1,3.24-1.13,3.69q-.84,3-1.41,4.63a8.26,8.26,0,0,1-1.18.05l-1.82,0Q69.71,130.69,68.32,124.84Z" style="fill:#4d4d4d"/><path d="M85.35,136.28c.12-.33.19-.56.23-.67l.45-1.27c.24-.67.43-1.18.58-1.54s.36-1,.69-1.89q1.28-3.43,2.55-7.27c.53-1.51.93-2.78,1.2-3.82a6.51,6.51,0,0,0,.93.05l.66,0a1.6,1.6,0,0,1,.52.12,1.11,1.11,0,0,0-.07.22l-.07.21c-.16.66-.74,2.49-1.72,5.49s-1.85,5.43-2.6,7.28l-1.35,3.46c0,.08-.08.13-.19.14a5.83,5.83,0,0,1-.77,0c-.45,0-.84,0-1.17,0C85.18,136.81,85.23,136.62,85.35,136.28Z" style="fill:#4d4d4d"/><path d="M105.23,119.89l.65,16.8a7.64,7.64,0,0,1-1.27.07h-1c-.08-.78-.13-1.48-.16-2.1s0-1.2,0-1.76q0-1.92-.12-3.24h-1.11a16,16,0,0,0-1.6-.07,25.17,25.17,0,0,0-2.52.14c0,.91,0,2,0,3.1l0,2.64c0,.51,0,.93,0,1.27a1.69,1.69,0,0,1-.63.1,5.81,5.81,0,0,1-.62-.05l-.53,0a1.06,1.06,0,0,0-.31.05c-.08-1.18-.16-3.23-.24-6.13s-.12-5.58-.12-8c0-1.2,0-2.05,0-2.57l0,0h0a4.28,4.28,0,0,0,.55,0l.77,0a2.32,2.32,0,0,1,.55,0c.08,1.07.13,2.11.14,3.1q0,.28.09,1.65c0,.92.1,1.74.2,2.48h0c.5,0,1.19,0,2.07,0,1.1,0,2.11,0,3-.12h0c0-1.37,0-2.41,0-3.12s0-2.11,0-4.12a6.37,6.37,0,0,1,1.63-.17Z" style="fill:#4d4d4d"/><path d="M108.59,124.72a3.52,3.52,0,0,1,.67,0c.48,0,1,0,1.59,0v.08c0,.72,0,1.83,0,3.33s-.07,3.09-.07,4.66,0,2.78.09,3.93a4.86,4.86,0,0,1-1,.08H109a3,3,0,0,0-.53,0c0-.46,0-1.17,0-2.11v-4.18c0-1.12,0-2,0-2.59,0-1.1,0-2.18.14-3.24Zm-.09-5.16c1,0,1.74,0,2.25,0l.07,3.17a2.11,2.11,0,0,1-.86.12l-.58,0h-.33a2.43,2.43,0,0,0-.46,0c0-.24,0-.63,0-1.18C108.5,120.64,108.48,119.92,108.5,119.56Z" style="fill:#4d4d4d"/><path d="M120.59,120.28V120c0-.08.42-.12,1.15-.12a7,7,0,0,1,.94,0v1.58q0,2.28.1,6.65c0,.72,0,1.58,0,2.58s0,2.14,0,3.42,0,2.07,0,2.64c-.51,0-.93.05-1.27.05a7.23,7.23,0,0,1-1-.05,3.37,3.37,0,0,1,0-.5,3,3,0,0,0-.12-1,2.5,2.5,0,0,1-.57.77,1.59,1.59,0,0,1-.8.45,4.35,4.35,0,0,1-1.44.22,4.1,4.1,0,0,1-.58,0,3.66,3.66,0,0,1-2.56-1.06,4.74,4.74,0,0,1-1.14-2.33A19.18,19.18,0,0,1,113,130a8.78,8.78,0,0,1,.54-3.33,2.71,2.71,0,0,1,1.89-1.67,7.69,7.69,0,0,1,2-.24,6.5,6.5,0,0,1,1.42.12,2.09,2.09,0,0,1,.86.33,2.27,2.27,0,0,1,.6.53,1,1,0,0,1,.24.39l0-2c0-.41,0-.79,0-1.11a6.27,6.27,0,0,1,0-.78,1.4,1.4,0,0,0,0-.3c0-.12,0-.23,0-.33v-.5C120.57,120.7,120.58,120.44,120.59,120.28Zm-2.33,6.28-.45,0a2.8,2.8,0,0,0-2,.64,2.84,2.84,0,0,0-.8,2,14.64,14.64,0,0,0-.07,1.58,7.46,7.46,0,0,0,.4,2.46,2.3,2.3,0,0,0,1,1.22,3.19,3.19,0,0,0,1.62.35,2.46,2.46,0,0,0,1.73-.54,2.53,2.53,0,0,0,.74-1.43,13,13,0,0,0,.17-2.32,15,15,0,0,0-.16-2.14,2.22,2.22,0,0,0-.62-1.25A2.33,2.33,0,0,0,118.26,126.56Z" style="fill:#4d4d4d"/><path d="M126.76,130.76v.44l0,.69c0,2,1,3,2.92,3a2.42,2.42,0,0,0,1.74-.54,1.94,1.94,0,0,0,.57-1.48c0-.09,0-.27-.05-.53a8.18,8.18,0,0,1,.94-.07,4,4,0,0,1,.57,0h.35a3.84,3.84,0,0,0,.47,0,14.64,14.64,0,0,1-.1,2.18,4.21,4.21,0,0,1-.57,1.56,2.45,2.45,0,0,1-1.5.92,9.15,9.15,0,0,1-2.34.28c-.39,0-.74,0-1.07-.05a3.17,3.17,0,0,1-.61-.09,3.51,3.51,0,0,1-2.72-2.37,11,11,0,0,1-.72-4.69c0-.13,0-.4.08-.8s.07-.83.13-1.26a5.22,5.22,0,0,1,.32-1.28,3.3,3.3,0,0,1,1.66-1.63,6.13,6.13,0,0,1,2.66-.57,7.13,7.13,0,0,1,1.61.19q3.25.56,3.26,4.92c0,.24,0,.58-.05,1a14.77,14.77,0,0,1-2.68.24c-.18,0-.56,0-1.15,0-1.27,0-2.21,0-2.81,0A3.78,3.78,0,0,1,126.76,130.76Zm5.83-1.8a3.54,3.54,0,0,0-.37-1.46,2.62,2.62,0,0,0-1-1.13,2.66,2.66,0,0,0-.62-.21,3.21,3.21,0,0,0-.67,0,2.59,2.59,0,0,0-3.05,2.49,3.65,3.65,0,0,0,0,.39.37.37,0,0,0,.28.38,4.16,4.16,0,0,0,1.18.1c.6,0,1.1,0,1.52,0,1.53,0,2.4,0,2.59,0l.16-.06a.21.21,0,0,0,0-.13Z" style="fill:#4d4d4d"/><path d="M59.09,154.39a.36.36,0,0,0-.05.19.46.46,0,0,0,.17.31,13.57,13.57,0,0,1,1.3,1.85,3.69,3.69,0,0,1,.41,1.78,5,5,0,0,1-.08.84A3.58,3.58,0,0,1,59,162.19a8.9,8.9,0,0,1-3.89.74l-1.15,0-1,0c-.64-.05-1.24-.07-1.82-.07a.76.76,0,0,1-.31,0c0-1.26-.07-3.15-.07-5.66l0-7.54c0-1.47,0-2.58,0-3.31l0,0a14,14,0,0,1,3.7-.52,7,7,0,0,1,4.2,1.16,4.36,4.36,0,0,1,1.63,3.8A7.28,7.28,0,0,1,59.09,154.39Zm-4.92,6.36,1.25.05a3.85,3.85,0,0,0,1.64-.3,2.62,2.62,0,0,0,1.12-1.14,1.92,1.92,0,0,0,.19-.87,3.94,3.94,0,0,0-.26-1.29,1.6,1.6,0,0,0-.82-1,2.91,2.91,0,0,0-1.23-.34l-.76,0a3.91,3.91,0,0,0-.62,0L53,155.9a2.78,2.78,0,0,0-.21,1.34,25.21,25.21,0,0,0,.31,3.41C53.45,160.7,53.82,160.73,54.17,160.75Zm0-7.06,1.18.05a3.63,3.63,0,0,0,1.61-.28,1.9,1.9,0,0,0,.86-1,3.22,3.22,0,0,0,.38-1.56,3.51,3.51,0,0,0-.07-.72,2.2,2.2,0,0,0-.91-1.53,3.77,3.77,0,0,0-1.92-.51,6.61,6.61,0,0,0-.74,0,4,4,0,0,0-1.68.22l0,.65,0,1.68v1a8.38,8.38,0,0,0,.15,1.92Z" style="fill:#4d4d4d"/><path d="M69.48,162.84c0-.31,0-.56,0-.76s0-.37,0-.52l-.39.27a3.2,3.2,0,0,1-1.08.41,8.08,8.08,0,0,1-2.71.5A3.08,3.08,0,0,1,63,162a1.87,1.87,0,0,1-.51-1.21q-.09-.85-.12-2.73v-.74c0-.5,0-1.22.05-2.18s.07-1.88.07-2.74c0-.42,0-.93,0-1.54.28,0,.68,0,1.17,0h.79a16.44,16.44,0,0,1,.08,1.7l0,1.94c0,.64,0,1.11,0,1.4l0,.67c0,.57,0,1.25.07,2a2.32,2.32,0,0,0,.33,1.2,1.36,1.36,0,0,0,.82.56,7.38,7.38,0,0,0,.89.07,2.68,2.68,0,0,0,2.95-2.86c0-.57,0-1.62-.07-3.14,0-.77,0-1.27,0-1.51,0-.44,0-1,0-1.85v-.1a5.27,5.27,0,0,1,.73-.12l.42,0q.51,0,.87,0l0,4.13c0,1.89.05,3.31.05,4.25,0,.77,0,2-.05,3.65a10.13,10.13,0,0,0-1.17.07l-.3,0a2.34,2.34,0,0,1-.38,0C69.56,162.91,69.48,162.88,69.48,162.84Z" style="fill:#4d4d4d"/><path d="M77.91,146.4v3.67l0,1.34c1,0,2.33-.09,3.87-.17a1.35,1.35,0,0,1,.14.72l0,.56a4.39,4.39,0,0,0,0,.76c-1.74,0-3,0-3.91,0v4.49c0,.72,0,1.23,0,1.53a2.61,2.61,0,0,0,.19.8,2.25,2.25,0,0,0,1.55.6,14.18,14.18,0,0,0,2.12.07c.08.64.12,1.05.12,1.22a3.26,3.26,0,0,1-.12.87l-1.58,0a7.45,7.45,0,0,1-2.93-.46A2.34,2.34,0,0,1,76,160.58a54.84,54.84,0,0,1-.27-6.07v-1.15c-.09,0-.33,0-.72,0l-1.82,0,.07-2c.35,0,1.19.05,2.52.05l0-2.52v-1.13c0-.67,0-1.15,0-1.42a8.13,8.13,0,0,1,1,0l.64,0Z" style="fill:#4d4d4d"/><path d="M87.68,146.4v3.67l0,1.34c1,0,2.33-.09,3.86-.17a1.24,1.24,0,0,1,.15.72l0,.56a4.14,4.14,0,0,0,0,.76c-1.74,0-3,0-3.91,0v4.49a14,14,0,0,0,0,1.53,2.61,2.61,0,0,0,.19.8,2.23,2.23,0,0,0,1.55.6,14.18,14.18,0,0,0,2.12.07c.08.64.12,1.05.12,1.22a3.26,3.26,0,0,1-.12.87l-1.58,0a7.45,7.45,0,0,1-2.93-.46,2.35,2.35,0,0,1-1.35-1.82,57.84,57.84,0,0,1-.26-6.07v-1.15c-.1,0-.34,0-.72,0l-1.82,0,.07-2c.35,0,1.19.05,2.52.05l0-2.52v-1.13c0-.67,0-1.15,0-1.42a8,8,0,0,1,1,0l.65,0Z" style="fill:#4d4d4d"/><path d="M93.05,155a11.3,11.3,0,0,1,.09-1.54,7.54,7.54,0,0,1,.42-1.61,2.06,2.06,0,0,1,1.33-1,7,7,0,0,1,2.27-.35,3.11,3.11,0,0,0,.48,0l1,0a4.21,4.21,0,0,1,3.09,1.06,1.83,1.83,0,0,1,.66,1.08,9,9,0,0,1,.28,2.12c0,.89.05,1.4.05,1.55-.07,1.6-.14,2.87-.23,3.81a3.21,3.21,0,0,1-.54,1.83,2.35,2.35,0,0,1-1.26.89,6.73,6.73,0,0,1-1.91.24c-.29,0-.72,0-1.3-.05l-1.1,0a3.52,3.52,0,0,1-2.12-1,3.77,3.77,0,0,1-.92-1.85,14.14,14.14,0,0,1-.2-2.54v-1.25A12.67,12.67,0,0,0,93.05,155Zm4.9-2.28a2.94,2.94,0,0,0-2.35.84,1.94,1.94,0,0,0-.4,1,8.57,8.57,0,0,0-.06,1.52,7.9,7.9,0,0,0,0,1c0,.4,0,.71,0,.94l0,1a1.81,1.81,0,0,0,.54,1.35,2.43,2.43,0,0,0,1.18.54,6.41,6.41,0,0,0,1,.07,3.76,3.76,0,0,0,1.63-.33,1.62,1.62,0,0,0,.89-1.11,7.18,7.18,0,0,0,.09-1q.12-1.68.12-2.28a4.93,4.93,0,0,0-.57-2.54A2.32,2.32,0,0,0,98,152.76Z" style="fill:#4d4d4d"/><path d="M106.85,150.91a4,4,0,0,1,.05.67v.6a10.13,10.13,0,0,1,1.92-.85A6.83,6.83,0,0,1,111,151a3.49,3.49,0,0,1,2.16.74c.38.34.57,1.7.57,4.1,0,.61,0,1.56,0,2.84s0,2.09,0,2.64,0,1.2,0,1.51a8.78,8.78,0,0,1-1.32.07h-.79a13,13,0,0,1,0-1.34v-1l0-1.53c0-1,0-1.79,0-2.23q0-.15-.06-1a5.89,5.89,0,0,0-.28-1.49c0-.56-.44-.81-1.17-.76a5.3,5.3,0,0,0-2.44.45,1.81,1.81,0,0,0-.87,1.56c0,.21,0,.6,0,1.18,0,.89,0,1.85,0,2.88,0,.61,0,1,0,1.34,0,.59,0,1.2-.07,1.83v.09a4,4,0,0,1-.9.09l-.64,0a4.54,4.54,0,0,0-.6,0l0-4.13c0-1.89,0-3.3,0-4.25,0-.77,0-2,0-3.65a6.45,6.45,0,0,0,.67,0,5.22,5.22,0,0,0,.62,0,2.12,2.12,0,0,0,.34,0,2.42,2.42,0,0,1,.38,0C106.77,150.84,106.85,150.86,106.85,150.91Z" style="fill:#4d4d4d"/><path d="M125.4,154q0,.12-.84.12c-.41,0-.72,0-.91,0h-.38a1.47,1.47,0,0,0-.31,0v-.83c0-.53-.47-.86-1.4-1a6.82,6.82,0,0,0-.93-.05,7.3,7.3,0,0,0-1.21.1,2.33,2.33,0,0,0-.81.26,1.51,1.51,0,0,0-.48.7,2.6,2.6,0,0,0-.17.89.78.78,0,0,0,.1.45,1.57,1.57,0,0,0,.7.77,4.54,4.54,0,0,0,1.17.41,7.39,7.39,0,0,0,1.61.26,5.64,5.64,0,0,1,1.74.3,3,3,0,0,1,1.19.76,3.76,3.76,0,0,1,.63,1,3,3,0,0,1,.21,1.12,5.71,5.71,0,0,1-.36,1.8,3.35,3.35,0,0,1-1.68,1.66,6,6,0,0,1-2.62.5,7.37,7.37,0,0,1-2.83-.42,4,4,0,0,1-1.9-1.4,3.75,3.75,0,0,1-.67-2.21v-.12c.29,0,.71,0,1.27,0a3.13,3.13,0,0,1,1,.07,2.76,2.76,0,0,1,.21.54,3.07,3.07,0,0,0,.56,1,1.88,1.88,0,0,0,1.39.57c.51,0,.82.05.91.05a2.31,2.31,0,0,0,.64-.07,5.8,5.8,0,0,0,.66-.26,1.7,1.7,0,0,0,1.2-1.61,1.35,1.35,0,0,0-.37-1.08,2,2,0,0,0-1-.52c-.4-.09-.94-.17-1.63-.25l-1.2-.14a3.28,3.28,0,0,1-.82-.24,3.78,3.78,0,0,1-1.9-1.29,3.1,3.1,0,0,1-.66-1.91,3.46,3.46,0,0,1,.66-2,3.07,3.07,0,0,1,1.81-1.21,9.74,9.74,0,0,1,2.52-.26c.24,0,.6,0,1.08,0a8.18,8.18,0,0,1,1.92.36,3,3,0,0,1,1.37,1.24A3.73,3.73,0,0,1,125.4,154Z" style="fill:#4d4d4d"/></g><path id="Options_Label_Back" data-name="Options Label Back" d="M183.26,73.47a210.68,210.68,0,0,0-50.08-1.31,233.6,233.6,0,0,0-48.67,9.91L73,29.77a282.48,282.48,0,0,1,60-2.43,251.65,251.65,0,0,1,58.56,11Z" style="fill:#9d9d9d"/><g id="Options_Label" data-name="Options Label"><path d="M93,41.39a8.69,8.69,0,0,1,3.81-.81,7.46,7.46,0,0,1,3.4.74,3.84,3.84,0,0,1,2,2.28,7.77,7.77,0,0,1,.54,3.19q0,.9,0,1.32-.06,1-.06,2.88c0,.32,0,.72,0,1.19s0,1-.07,1.67l-.09.92a8.44,8.44,0,0,1-1.06,3.78,4.3,4.3,0,0,1-2.17,1.51,9,9,0,0,1-3,.51q-.58,0-.87,0a4.87,4.87,0,0,1-3.22-1.3A5.52,5.52,0,0,1,91,55.47l-.09-1.76c0-.38,0-1-.08-2s-.06-1.77-.06-2.53,0-1.71.09-2.55a10.83,10.83,0,0,1,.5-3.16A3.58,3.58,0,0,1,93,41.39Zm7.34,9.07,0-2.24c-.07-1.27-.14-2.13-.19-2.59A3.64,3.64,0,0,0,99.26,44a3.48,3.48,0,0,0-5.48.93,14.47,14.47,0,0,0-.85,5.71c0,1.57,0,2.78.1,3.65a7.52,7.52,0,0,0,.4,2.1,2.74,2.74,0,0,0,.95,1.25,3.33,3.33,0,0,0,1.94.47,4.23,4.23,0,0,0,2.88-.81,3.26,3.26,0,0,0,1-2.38c0-.56,0-1.22.06-2s.06-1.26.08-1.48Z" style="fill:#fff"/><path d="M107.6,65.52v.31s-.12.07-.36.1a6.93,6.93,0,0,1-.82,0,9,9,0,0,1-1.2-.08V64q0-2.63-.11-7.73c0-.82,0-1.82-.06-3s0-2.52,0-4,0-2.4,0-3.08l1.82,0,.81,0a.52.52,0,0,1,0,.24c0,.14,0,.29,0,.44a2.26,2.26,0,0,0,0,.25,1.78,1.78,0,0,1,0,.39c0,.09.05.14.1.13s.11-.08.18-.21a2.8,2.8,0,0,1,1.37-.93,6,6,0,0,1,1.77-.28,4.11,4.11,0,0,1,.61,0,4.38,4.38,0,0,1,3,1.2,5.34,5.34,0,0,1,1.35,2.69,22.44,22.44,0,0,1,.4,4,11.29,11.29,0,0,1-.55,3.69,2.94,2.94,0,0,1-1.72,2,5.65,5.65,0,0,1-1.68.36c-.21,0-.53,0-1,0a14.27,14.27,0,0,1-2.61-.22c-.8-.15-1.22-.34-1.26-.56l.06,3.41c0,.41,0,.92-.06,1.52Zm2.55-7.44a12.23,12.23,0,0,0,2-.13,2.25,2.25,0,0,0,1.18-.59,3.33,3.33,0,0,0,.79-1.5,10.12,10.12,0,0,0,.23-2,8.69,8.69,0,0,0-.8-3.86,2.82,2.82,0,0,0-3.07-1.46,3.11,3.11,0,0,0-2,.74,3,3,0,0,0-.8,1.67,19.51,19.51,0,0,0-.17,2.91,16.73,16.73,0,0,0,.17,2.84,1.53,1.53,0,0,0,.69,1.14A4,4,0,0,0,110.15,58.08Z" style="fill:#fff"/><path d="M123.2,41v4.28l0,1.57c1.22,0,2.72-.1,4.51-.2a1.5,1.5,0,0,1,.17.84l0,.65a7.9,7.9,0,0,0,0,.89q-3,0-4.56,0v5.24c0,.84,0,1.44.06,1.79a3,3,0,0,0,.22.93,2.67,2.67,0,0,0,1.81.7,16.3,16.3,0,0,0,2.47.08,13.48,13.48,0,0,1,.14,1.43,3.57,3.57,0,0,1-.14,1l-1.84,0a8.75,8.75,0,0,1-3.42-.53A2.75,2.75,0,0,1,121,57.54a66.67,66.67,0,0,1-.31-7.08V49.12a7.62,7.62,0,0,1-.84,0l-2.12,0,.08-2.3q.62.06,2.94.06l0-2.94V42.62a15.35,15.35,0,0,1,.06-1.65,8.8,8.8,0,0,1,1.2,0l.76,0Z" style="fill:#fff"/><path d="M130.56,46a4.76,4.76,0,0,1,.78,0c.56,0,1.18.05,1.85.05v.09c0,.84,0,2.13-.05,3.89s-.09,3.6-.09,5.43,0,3.25.11,4.59a5.62,5.62,0,0,1-1.17.09h-1a6.14,6.14,0,0,0-.62,0q0-.81,0-2.46V52.87q-.06-2-.06-3c0-1.28.06-2.54.17-3.78Zm-.11-6c1.16,0,2,0,2.63,0l.08,3.7a2.51,2.51,0,0,1-1,.14,5.66,5.66,0,0,1-.68,0h-.39a3.23,3.23,0,0,0-.53,0c0-.28,0-.74-.06-1.37C130.45,41.28,130.43,40.45,130.45,40Z" style="fill:#fff"/><path d="M135.82,51.08a15.43,15.43,0,0,1,.1-1.8,10.24,10.24,0,0,1,.49-1.87A2.43,2.43,0,0,1,138,46.19a8.12,8.12,0,0,1,2.64-.41,4,4,0,0,0,.56,0l1.12,0A5,5,0,0,1,145.9,47a2.09,2.09,0,0,1,.77,1.26,10.53,10.53,0,0,1,.33,2.47c0,1,.05,1.64.05,1.81-.07,1.87-.16,3.35-.26,4.45a3.85,3.85,0,0,1-.63,2.13,2.76,2.76,0,0,1-1.47,1,8.13,8.13,0,0,1-2.23.28c-.34,0-.84,0-1.51-.06l-1.29,0a4.13,4.13,0,0,1-2.48-1.2A4.49,4.49,0,0,1,136.12,57a15.77,15.77,0,0,1-.24-3V52.59A13.35,13.35,0,0,0,135.82,51.08Zm5.72-2.66a3.43,3.43,0,0,0-2.75,1,2.31,2.31,0,0,0-.46,1.13,10.41,10.41,0,0,0-.07,1.78,10.75,10.75,0,0,0,0,1.12c0,.46,0,.83,0,1.09l.05,1.18a2.25,2.25,0,0,0,.63,1.58,3,3,0,0,0,1.39.63,8.53,8.53,0,0,0,1.15.08,4.36,4.36,0,0,0,1.9-.39,1.87,1.87,0,0,0,1-1.29,8.64,8.64,0,0,0,.11-1.15c.09-1.3.14-2.19.14-2.66a5.77,5.77,0,0,0-.67-3A2.69,2.69,0,0,0,141.54,48.42Z" style="fill:#fff"/><path d="M151.92,46.26A4.26,4.26,0,0,1,152,47v.7a12,12,0,0,1,2.24-1,8,8,0,0,1,2.58-.43,4,4,0,0,1,2.52.86c.44.4.67,2,.67,4.79,0,.71,0,1.81-.06,3.31s-.05,2.44-.05,3.08c0,.82,0,1.41,0,1.76a10,10,0,0,1-1.54.08h-.92a13.54,13.54,0,0,1-.06-1.56V57.43l0-1.79c0-1.21.05-2.08,0-2.6,0-.12,0-.5-.07-1.15a7.19,7.19,0,0,0-.32-1.74c-.06-.65-.52-.95-1.37-.89a6.18,6.18,0,0,0-2.85.53,2.13,2.13,0,0,0-1,1.82c0,.24,0,.7,0,1.37q0,1.58.06,3.36c0,.71.06,1.23.06,1.57q0,1-.09,2.13v.11a4.67,4.67,0,0,1-1.05.1l-.74,0a6.29,6.29,0,0,0-.7,0l0-4.82c0-2.2,0-3.85,0-4.95,0-.9,0-2.32,0-4.26.23,0,.49,0,.79,0a7,7,0,0,0,.72,0l.4,0,.44,0C151.83,46.18,151.92,46.2,151.92,46.26Z" style="fill:#fff"/><path d="M173.57,49.82c0,.09-.33.14-1,.14-.49,0-.84,0-1.07,0l-.44,0a2,2,0,0,0-.37,0V49c0-.62-.54-1-1.62-1.13a7.38,7.38,0,0,0-1.09-.06,8.63,8.63,0,0,0-1.42.11,2.85,2.85,0,0,0-.94.31,1.81,1.81,0,0,0-.56.81,3,3,0,0,0-.19,1,.85.85,0,0,0,.11.53,1.85,1.85,0,0,0,.81.9,5.23,5.23,0,0,0,1.37.47,9,9,0,0,0,1.88.31,6.57,6.57,0,0,1,2,.35,3.5,3.5,0,0,1,1.39.88,4.86,4.86,0,0,1,.74,1.22,3.49,3.49,0,0,1,.24,1.3,6.69,6.69,0,0,1-.42,2.1,3.94,3.94,0,0,1-2,1.94,7,7,0,0,1-3.06.58,8.31,8.31,0,0,1-3.3-.49,4.71,4.71,0,0,1-2.21-1.63,4.27,4.27,0,0,1-.79-2.58v-.14a13.68,13.68,0,0,1,1.49-.06,3.37,3.37,0,0,1,1.17.09,2.8,2.8,0,0,1,.24.63,3.53,3.53,0,0,0,.66,1.16,2.19,2.19,0,0,0,1.62.67l1.07.06a2.58,2.58,0,0,0,.74-.09,4.51,4.51,0,0,0,.77-.3,2,2,0,0,0,1.4-1.88,1.62,1.62,0,0,0-.43-1.26,2.34,2.34,0,0,0-1.17-.6c-.46-.1-1.1-.2-1.9-.3-.58,0-1-.11-1.4-.16a3.65,3.65,0,0,1-.95-.28A4.43,4.43,0,0,1,162.8,52a3.63,3.63,0,0,1-.77-2.23,4,4,0,0,1,.77-2.39,3.59,3.59,0,0,1,2.12-1.42,11.86,11.86,0,0,1,2.94-.3c.28,0,.7,0,1.26.05a9.88,9.88,0,0,1,2.24.42A3.43,3.43,0,0,1,173,47.53,4.39,4.39,0,0,1,173.57,49.82Z" style="fill:#fff"/></g></svg>