<svg id="Sensor_Connecting" data-name="Sensor Connecting" xmlns="http://www.w3.org/2000/svg" viewBox="0 0 188 56"><title>Sensor Connecting Label</title><g id="Sensor_Connecting-2" data-name="Sensor Connecting"><path d="M64.1,25.15c0,.84,0,1.41,0,1.73a7.43,7.43,0,0,0,.31,2.43,2,2,0,0,0,1.23,1.22,5.15,5.15,0,0,0,1.17.14,2.73,2.73,0,0,0,2.45-1.2A6.17,6.17,0,0,0,70,26a4.09,4.09,0,0,0,.49,0h.4a4.54,4.54,0,0,1,.6,0,3,3,0,0,1,.64.05,6.06,6.06,0,0,1,.22,1.61,6,6,0,0,1-.62,2.68,5.12,5.12,0,0,1-1.77,2,5,5,0,0,1-2.58.79,5.65,5.65,0,0,1-.93.07,5.56,5.56,0,0,1-3-.82,3.12,3.12,0,0,1-1.48-2.44c-.08-1.6-.12-3.32-.12-5.14,0-.85,0-1.51,0-2l0-2.91a4.72,4.72,0,0,1,.76-2.65,3.51,3.51,0,0,1,2.05-1.52,5.94,5.94,0,0,1,1.92-.31,5.41,5.41,0,0,1,2.9.8,5.94,5.94,0,0,1,2.1,2.18,6,6,0,0,1,.78,3,6.41,6.41,0,0,1-.14,1.36,7.34,7.34,0,0,1-1.15.12,5.26,5.26,0,0,1-1.15-.14V22a6.67,6.67,0,0,0-.27-2.09,2.24,2.24,0,0,0-1.2-1.27,3.41,3.41,0,0,0-1.94-.45,4.9,4.9,0,0,0-.6,0c-.64,0-1.11.5-1.39,1.39a14.89,14.89,0,0,0-.39,4.37Z" style="fill:#fff"/><path d="M73.82,25a13.36,13.36,0,0,1,.08-1.53,9,9,0,0,1,.42-1.61,2.09,2.09,0,0,1,1.33-1,6.8,6.8,0,0,1,2.27-.35l.48,0,1,0a4.26,4.26,0,0,1,3.1,1.05,1.89,1.89,0,0,1,.66,1.08,9.25,9.25,0,0,1,.27,2.13c0,.89,0,1.4,0,1.55-.06,1.6-.14,2.87-.23,3.81A3.09,3.09,0,0,1,82.67,32a2.26,2.26,0,0,1-1.26.88,6.65,6.65,0,0,1-1.9.24c-.29,0-.72,0-1.3,0l-1.1,0A3.52,3.52,0,0,1,75,32a3.84,3.84,0,0,1-.91-1.85,13.27,13.27,0,0,1-.2-2.54V26.33C73.87,25.74,73.85,25.31,73.82,25Zm4.89-2.28a3,3,0,0,0-2.35.84,1.88,1.88,0,0,0-.39,1,8.57,8.57,0,0,0-.06,1.52,6.27,6.27,0,0,0,0,1c0,.4,0,.71,0,.94l0,1a1.91,1.91,0,0,0,.54,1.36,2.67,2.67,0,0,0,1.19.54,6.37,6.37,0,0,0,1,.07,3.81,3.81,0,0,0,1.64-.33,1.6,1.6,0,0,0,.88-1.11,6.07,6.07,0,0,0,.1-1q.12-1.68.12-2.28a4.86,4.86,0,0,0-.58-2.55A2.3,2.3,0,0,0,78.71,22.75Z" style="fill:#fff"/><path d="M87.62,20.91a4,4,0,0,1,0,.67v.6a9.54,9.54,0,0,1,1.92-.85,6.79,6.79,0,0,1,2.2-.38A3.5,3.5,0,0,1,94,21.7c.39.33.58,1.7.58,4.1,0,.61,0,1.55,0,2.83s0,2.1,0,2.64c0,.71,0,1.21,0,1.52a10.62,10.62,0,0,1-1.32.07h-.79a10.77,10.77,0,0,1,0-1.35v-1l0-1.53c0-1,0-1.79,0-2.24,0-.09,0-.42-.06-1A6.27,6.27,0,0,0,92,24.24c-.05-.56-.44-.81-1.18-.77a5.4,5.4,0,0,0-2.43.46,1.84,1.84,0,0,0-.88,1.56c0,.21,0,.6,0,1.18,0,.89,0,1.85,0,2.88,0,.6,0,1.05,0,1.34,0,.59,0,1.2-.07,1.82v.1a3.92,3.92,0,0,1-.9.08H86a4.54,4.54,0,0,0-.6,0l0-4.13c0-1.89,0-3.31,0-4.25,0-.77,0-2,0-3.65a6.59,6.59,0,0,0,.67,0,5.29,5.29,0,0,0,.63,0l.33,0a2.56,2.56,0,0,1,.39,0C87.54,20.83,87.62,20.86,87.62,20.91Z" style="fill:#fff"/><path d="M98.9,20.91a4,4,0,0,1,0,.67v.6a9.54,9.54,0,0,1,1.92-.85,6.79,6.79,0,0,1,2.2-.38,3.5,3.5,0,0,1,2.16.75c.39.33.58,1.7.58,4.1,0,.61,0,1.55,0,2.83s-.05,2.1-.05,2.64c0,.71,0,1.21,0,1.52a10.62,10.62,0,0,1-1.32.07h-.79a10.77,10.77,0,0,1,0-1.35v-1l0-1.53c0-1,0-1.79,0-2.24,0-.09,0-.42-.06-1a6.27,6.27,0,0,0-.28-1.49c-.05-.56-.44-.81-1.18-.77a5.4,5.4,0,0,0-2.43.46,1.84,1.84,0,0,0-.88,1.56c0,.21,0,.6,0,1.18,0,.89,0,1.85,0,2.88,0,.6,0,1.05,0,1.34,0,.59,0,1.2-.07,1.82v.1a3.92,3.92,0,0,1-.9.08h-.63a4.54,4.54,0,0,0-.6,0l0-4.13c0-1.89,0-3.31,0-4.25,0-.77,0-2,0-3.65a6.59,6.59,0,0,0,.67,0,5.29,5.29,0,0,0,.63,0l.33,0a2.56,2.56,0,0,1,.39,0C98.82,20.83,98.9,20.86,98.9,20.91Z" style="fill:#fff"/><path d="M109.67,26.76v.43l0,.7c0,2,1,3,2.93,3a2.45,2.45,0,0,0,1.74-.54,2,2,0,0,0,.56-1.48,3.61,3.61,0,0,0,0-.53,6.41,6.41,0,0,1,.94-.07l.58,0,.34,0a4,4,0,0,0,.47,0,15,15,0,0,1-.09,2.19,4.42,4.42,0,0,1-.58,1.56,2.45,2.45,0,0,1-1.5.92,9,9,0,0,1-2.34.28c-.38,0-.74,0-1.07,0a2.32,2.32,0,0,1-.61-.1,3.47,3.47,0,0,1-2.71-2.36,11,11,0,0,1-.72-4.69c0-.13,0-.4.07-.81s.07-.82.13-1.26a5.8,5.8,0,0,1,.33-1.27,3.2,3.2,0,0,1,1.65-1.63,6.15,6.15,0,0,1,2.67-.58,7.07,7.07,0,0,1,1.6.2q3.27.54,3.27,4.92c0,.24,0,.58-.05,1a17.29,17.29,0,0,1-2.69.24c-.18,0-.56,0-1.15,0-1.27,0-2.2,0-2.81-.05A4,4,0,0,1,109.67,26.76Zm5.84-1.8a3.72,3.72,0,0,0-.38-1.46,2.66,2.66,0,0,0-1-1.13,3.19,3.19,0,0,0-.63-.22,4.14,4.14,0,0,0-.67,0,3.12,3.12,0,0,0-2.22.64,3.13,3.13,0,0,0-.83,1.85,2.75,2.75,0,0,0,0,.39.37.37,0,0,0,.27.38,4.69,4.69,0,0,0,1.19.1c.59,0,1.1,0,1.51,0,1.54,0,2.4,0,2.59,0a.44.44,0,0,0,.16-.06.22.22,0,0,0,0-.13Z" style="fill:#fff"/><path d="M126.23,28.13a3.49,3.49,0,0,0,.53.05l.84,0a2.62,2.62,0,0,1,.67.08c-.08,1.1-.16,2-.25,2.56a2.25,2.25,0,0,1-.42,1.2,2.23,2.23,0,0,1-1.26.89,6.73,6.73,0,0,1-1.91.24c-.29,0-.72,0-1.29,0l-1.11,0A3.39,3.39,0,0,1,119.92,32,4.18,4.18,0,0,1,119,30a20.77,20.77,0,0,1-.27-3c0-.9,0-1.55,0-2a10.91,10.91,0,0,1,.53-3.14,2.1,2.1,0,0,1,1.33-1.05,7.07,7.07,0,0,1,2.27-.34l.55,0h.54a7,7,0,0,1,.78,0,4.26,4.26,0,0,1,2.66,1,1.77,1.77,0,0,1,.71,1.22,17.86,17.86,0,0,1,.21,2.52l0,.58a3.51,3.51,0,0,1-.72.07,6.91,6.91,0,0,1-1.27-.12,3.56,3.56,0,0,0-.61-2.33,2.5,2.5,0,0,0-1.86-.62c-.18,0-.49,0-.94.05a3.78,3.78,0,0,0-1,.12,1.09,1.09,0,0,0-.61.45,2.54,2.54,0,0,0-.39,1.11,14.5,14.5,0,0,0-.07,1.8v1.92a3.21,3.21,0,0,0,.39,1.64A1.94,1.94,0,0,0,123,31a5.55,5.55,0,0,0,.65,0,2.7,2.7,0,0,0,1.68-.44,1.92,1.92,0,0,0,.71-1A7.11,7.11,0,0,0,126.23,28.13Z" style="fill:#fff"/><path d="M134.22,16.39v3.68l0,1.34c1,0,2.33-.09,3.86-.17a1.24,1.24,0,0,1,.15.72l0,.55a4.25,4.25,0,0,0,0,.77l-3.91,0v4.49c0,.72,0,1.23,0,1.53a2.76,2.76,0,0,0,.2.79,2.22,2.22,0,0,0,1.54.6,14.45,14.45,0,0,0,2.13.08c.08.64.12,1,.12,1.22a3.13,3.13,0,0,1-.12.86q-.51,0-1.59,0a7.43,7.43,0,0,1-2.92-.46,2.33,2.33,0,0,1-1.35-1.82,57.84,57.84,0,0,1-.26-6.07V23.35a5,5,0,0,1-.72,0l-1.83,0,.08-2c.35,0,1.19,0,2.52,0l0-2.52V17.79c0-.68,0-1.15,0-1.42a7.57,7.57,0,0,1,1,0l.65,0A1.68,1.68,0,0,0,134.22,16.39Z" style="fill:#fff"/><path d="M140.54,20.71c.11,0,.33,0,.67,0s1,.05,1.58.05v.07c0,.72,0,1.84,0,3.34s-.07,3.09-.07,4.66,0,2.78.1,3.93a5.13,5.13,0,0,1-1,.07h-.82a2.5,2.5,0,0,0-.52,0c0-.47,0-1.17,0-2.11V26.57c0-1.12-.05-2-.05-2.59q0-1.66.15-3.24Zm-.1-5.16c1,0,1.74,0,2.26,0l.07,3.17a2.16,2.16,0,0,1-.87.12l-.57,0-.34,0a3.7,3.7,0,0,0-.45,0c0-.24,0-.64,0-1.18C140.44,16.63,140.42,15.92,140.44,15.55Z" style="fill:#fff"/><path d="M147.62,20.91a4.14,4.14,0,0,1,0,.67v.6a10.07,10.07,0,0,1,1.92-.85,6.89,6.89,0,0,1,2.21-.38,3.5,3.5,0,0,1,2.16.75c.39.33.58,1.7.58,4.1,0,.61,0,1.55-.05,2.83s0,2.1,0,2.64c0,.71,0,1.21,0,1.52a10.62,10.62,0,0,1-1.32.07h-.8c0-.26,0-.71,0-1.35v-1l0-1.53c0-1,0-1.79,0-2.24,0-.09,0-.42-.06-1a6.29,6.29,0,0,0-.27-1.49c0-.56-.44-.81-1.18-.77a5.4,5.4,0,0,0-2.43.46,1.82,1.82,0,0,0-.88,1.56c0,.21,0,.6,0,1.18,0,.89,0,1.85,0,2.88,0,.6.05,1.05.05,1.34,0,.59,0,1.2-.07,1.82v.1a3.92,3.92,0,0,1-.9.08H146a4.75,4.75,0,0,0-.6,0l0-4.13c0-1.89-.05-3.31-.05-4.25,0-.77,0-2,.05-3.65a6.59,6.59,0,0,0,.67,0,5.29,5.29,0,0,0,.63,0l.33,0a2.56,2.56,0,0,1,.39,0C147.54,20.83,147.62,20.86,147.62,20.91Z" style="fill:#fff"/><path d="M165.81,36a2.61,2.61,0,0,1-1.15,1.37,4.43,4.43,0,0,1-1.61.41l-1.32.05c-.31,0-.7,0-1.18-.05a4.43,4.43,0,0,1-2.66-1.06,3,3,0,0,1-1.08-2.35c0-.21,0-.37,0-.48a3,3,0,0,1,.65-.08c.35,0,.69,0,1,0a1,1,0,0,1,.45.05,1.09,1.09,0,0,1,0,.36,2,2,0,0,0,.29,1.1,1.64,1.64,0,0,0,1.22.63l1.25,0a6.59,6.59,0,0,0,1.47-.11.79.79,0,0,0,.6-.38,1.65,1.65,0,0,0,.09-.83V32.88a2.35,2.35,0,0,1,0-.26c0-.1,0-.23,0-.41a1.66,1.66,0,0,1-.95.58,14.6,14.6,0,0,1-2,.09h-.91c-1.6,0-2.64-.5-3.12-1.51a6.57,6.57,0,0,1-.67-2.81,31,31,0,0,1,.18-3.69,5.53,5.53,0,0,1,1.06-2.66,3.49,3.49,0,0,1,2.77-1.3,11.6,11.6,0,0,1,1.93.08,2.23,2.23,0,0,1,1,.37,2,2,0,0,1,.55.75,3,3,0,0,0,.07-.63c0-.09,0-.19,0-.3a1.51,1.51,0,0,1,0-.3c.42,0,.73-.05.94-.05l1.25,0q.09,2.78.09,6.53T166,33.87c0,.16,0,.37,0,.64s0,.54,0,.78A2.13,2.13,0,0,1,165.81,36Zm-7.66-8.83v.29a5.19,5.19,0,0,0,.43,2.42,2,2,0,0,0,1.88,1.2c.24,0,.56,0,1,0a3,3,0,0,0,1.86-.46,2.36,2.36,0,0,0,.64-1.77c0-1.14,0-2,0-2.74q0-2.43-1.08-3a2.82,2.82,0,0,0-1.39-.29,7.3,7.3,0,0,0-.94.07,2.33,2.33,0,0,0-1.84,1.36A7,7,0,0,0,158.15,27.12Z" style="fill:#fff"/></g></svg>