<svg id="Sensor_Modal" data-name="Sensor Modal" xmlns="http://www.w3.org/2000/svg" viewBox="0 0 476 120"><title>sensor-modal-w-text</title><g id="Modal_Background_2" data-name="Modal Background 2"><path d="M465.87,114.77c-100.27,6.49-304.76,6.78-458.45,1.74C-1.71,89.18-3.79,40.28,9.08,4.73,146-2.38,383.31-.33,471.27,3.46,479.15,38.54,477.08,86.65,465.87,114.77Z" style="fill:#9d9d9d;fill-rule:evenodd"/></g><g id="Modal_Background_1" data-name="Modal Background 1"><path d="M455.87,100.77c-100.27,6.49-280.76,10.78-434.45,5.74C12.29,79.18,7.07,52.13,19.08,18.73,156,11.62,369.31,9.67,457.27,13.46,464.55,42.54,464.55,75.41,455.87,100.77Z" style="fill:#c4c4c4;fill-rule:evenodd"/></g><g id="Text"><path d="M104,65.51c0,.14,0,.34,0,.59a2.7,2.7,0,0,0,0,.63,3.71,3.71,0,0,1-.06.81c0,.15-.1.24-.16.26a1.31,1.31,0,0,1-.36,0,3.47,3.47,0,0,0-.47,0l-.51,0c-1.44,0-2.85.07-4.2.07l-3.29,0-1,0v-.43q.2-4.52.19-8c0-1.46,0-3.07-.07-4.85,0-.61,0-1.82,0-3.65a3.09,3.09,0,0,1,1-.12,4.33,4.33,0,0,1,1.61.24c0,1.25-.05,2.2-.05,2.84s0,1.93.05,3.5l0,3.48v1.51c0,1.23,0,2.23,0,3v0l1,0,1.37,0c.49,0,1.35,0,2.56.1s1.79.09,2.09.09A3.16,3.16,0,0,0,104,65.51Z" style="fill:#4d4d4d"/><path d="M105.11,60a11.47,11.47,0,0,1,.08-1.54,9,9,0,0,1,.42-1.61,2.09,2.09,0,0,1,1.33-1,7.07,7.07,0,0,1,2.27-.35,3.11,3.11,0,0,0,.48,0l1,0a4.24,4.24,0,0,1,3.1,1.06,1.93,1.93,0,0,1,.66,1.08,9.08,9.08,0,0,1,.27,2.12c0,.89,0,1.4,0,1.55-.07,1.6-.14,2.87-.23,3.81A3.21,3.21,0,0,1,114,67a2.28,2.28,0,0,1-1.26.89,6.73,6.73,0,0,1-1.91.24c-.28,0-.72,0-1.29,0l-1.11,0a3.52,3.52,0,0,1-2.12-1,3.76,3.76,0,0,1-.91-1.85,13.19,13.19,0,0,1-.21-2.54V61.33C105.15,60.74,105.14,60.31,105.11,60ZM110,57.76a2.94,2.94,0,0,0-2.35.84,1.94,1.94,0,0,0-.4,1,11,11,0,0,0-.06,1.52,8.26,8.26,0,0,0,0,1c0,.4,0,.71,0,.94l.05,1a1.88,1.88,0,0,0,.54,1.35,2.47,2.47,0,0,0,1.19.54,6.37,6.37,0,0,0,1,.07,3.73,3.73,0,0,0,1.63-.33,1.59,1.59,0,0,0,.89-1.11,7.5,7.5,0,0,0,.1-1q.12-1.68.12-2.28a4.83,4.83,0,0,0-.58-2.54A2.3,2.3,0,0,0,110,57.76Z" style="fill:#4d4d4d"/><path d="M126.18,59q0,.12-.84.12c-.42,0-.72,0-.91,0H124a1.47,1.47,0,0,0-.31,0v-.83c0-.53-.46-.86-1.39-1a7,7,0,0,0-.94,0,7.3,7.3,0,0,0-1.21.1,2.19,2.19,0,0,0-.8.26,1.51,1.51,0,0,0-.48.7,2.38,2.38,0,0,0-.17.89.8.8,0,0,0,.09.45,1.57,1.57,0,0,0,.7.77,4.51,4.51,0,0,0,1.18.41,7.31,7.31,0,0,0,1.6.26,5.64,5.64,0,0,1,1.74.3,3,3,0,0,1,1.19.76,4.07,4.07,0,0,1,.64,1,3.18,3.18,0,0,1,.2,1.12,5.71,5.71,0,0,1-.36,1.8A3.35,3.35,0,0,1,124,67.72a5.94,5.94,0,0,1-2.61.5,7.39,7.39,0,0,1-2.84-.42,4,4,0,0,1-1.89-1.4,3.69,3.69,0,0,1-.67-2.21v-.12c.28,0,.71,0,1.27,0a3.18,3.18,0,0,1,1,.07,3.18,3.18,0,0,1,.2.54,3.07,3.07,0,0,0,.56,1,1.9,1.9,0,0,0,1.4.57c.51,0,.81,0,.91,0a2.24,2.24,0,0,0,.63-.07,5.8,5.8,0,0,0,.66-.26,1.7,1.7,0,0,0,1.2-1.61,1.32,1.32,0,0,0-.37-1.08,2,2,0,0,0-1-.52c-.41-.09-1-.17-1.64-.25l-1.2-.14a3.2,3.2,0,0,1-.81-.24A3.76,3.76,0,0,1,117,60.79a3.1,3.1,0,0,1-.66-1.91,3.46,3.46,0,0,1,.66-2.05,3.07,3.07,0,0,1,1.81-1.21,9.85,9.85,0,0,1,2.52-.26c.24,0,.6,0,1.08,0a8.18,8.18,0,0,1,1.92.36A3,3,0,0,1,125.65,57,3.74,3.74,0,0,1,126.18,59Z" style="fill:#4d4d4d"/><path d="M132,51.4v3.67l0,1.34c1,0,2.33-.09,3.87-.17A1.35,1.35,0,0,1,136,57l0,.56a4.39,4.39,0,0,0,0,.76c-1.74,0-3.05,0-3.91,0v4.49c0,.72,0,1.23,0,1.53a2.94,2.94,0,0,0,.19.8,2.25,2.25,0,0,0,1.55.6,14.18,14.18,0,0,0,2.12.07c.08.64.12,1,.12,1.22a3.26,3.26,0,0,1-.12.87l-1.58,0a7.45,7.45,0,0,1-2.93-.46,2.34,2.34,0,0,1-1.34-1.82,54.84,54.84,0,0,1-.27-6.07V58.36c-.09,0-.33,0-.72,0l-1.82,0,.07-2c.35,0,1.19,0,2.52,0l0-2.52V52.79c0-.67,0-1.15,0-1.42a8.13,8.13,0,0,1,1,0l.64,0Z" style="fill:#4d4d4d"/><path d="M150.15,63.13a3.49,3.49,0,0,0,.53,0l.84,0a2.65,2.65,0,0,1,.67.07c-.08,1.1-.16,2-.25,2.57a2.33,2.33,0,0,1-.42,1.2,2.26,2.26,0,0,1-1.26.88,6.73,6.73,0,0,1-1.91.24c-.29,0-.72,0-1.29,0l-1.11,0A3.34,3.34,0,0,1,143.84,67a4.18,4.18,0,0,1-.9-2,21.92,21.92,0,0,1-.28-3c0-.89,0-1.55,0-2a10.91,10.91,0,0,1,.53-3.14,2.09,2.09,0,0,1,1.33-1,6.8,6.8,0,0,1,2.27-.35l.55,0h.54c.22,0,.48,0,.78,0a4.26,4.26,0,0,1,2.66,1A1.79,1.79,0,0,1,152,57.8a17.86,17.86,0,0,1,.21,2.52l0,.58a3.51,3.51,0,0,1-.72.07,6.91,6.91,0,0,1-1.27-.12,3.58,3.58,0,0,0-.61-2.33,2.5,2.5,0,0,0-1.86-.62l-.94.05a3.78,3.78,0,0,0-1,.12,1.09,1.09,0,0,0-.61.45,2.54,2.54,0,0,0-.39,1.11,14.5,14.5,0,0,0-.07,1.8v1.92a3.27,3.27,0,0,0,.38,1.64,2,2,0,0,0,1.73,1,5.55,5.55,0,0,0,.65,0,2.77,2.77,0,0,0,1.68-.43,1.94,1.94,0,0,0,.71-1A7.11,7.11,0,0,0,150.15,63.13Z" style="fill:#4d4d4d"/><path d="M153.75,60a11.3,11.3,0,0,1,.09-1.54,7.54,7.54,0,0,1,.42-1.61,2.06,2.06,0,0,1,1.33-1,7,7,0,0,1,2.27-.35,3.11,3.11,0,0,0,.48,0l1,0a4.21,4.21,0,0,1,3.09,1.06,1.83,1.83,0,0,1,.66,1.08,9,9,0,0,1,.28,2.12c0,.89,0,1.4,0,1.55-.07,1.6-.14,2.87-.23,3.81a3.21,3.21,0,0,1-.54,1.83,2.35,2.35,0,0,1-1.26.89,6.73,6.73,0,0,1-1.91.24c-.29,0-.72,0-1.3,0L157,68a3.52,3.52,0,0,1-2.12-1,3.77,3.77,0,0,1-.92-1.85,14.14,14.14,0,0,1-.2-2.54V61.33A12.67,12.67,0,0,0,153.75,60Zm4.9-2.28a2.94,2.94,0,0,0-2.35.84,1.94,1.94,0,0,0-.4,1,8.57,8.57,0,0,0-.06,1.52,7.9,7.9,0,0,0,0,1c0,.4,0,.71,0,.94l.05,1a1.81,1.81,0,0,0,.54,1.35,2.43,2.43,0,0,0,1.18.54,6.41,6.41,0,0,0,1,.07,3.76,3.76,0,0,0,1.63-.33,1.62,1.62,0,0,0,.89-1.11,7.18,7.18,0,0,0,.09-1q.12-1.68.12-2.28a4.93,4.93,0,0,0-.57-2.54A2.32,2.32,0,0,0,158.65,57.76Z" style="fill:#4d4d4d"/><path d="M167.55,55.91a4,4,0,0,1,0,.67v.6a10.13,10.13,0,0,1,1.92-.85,6.83,6.83,0,0,1,2.21-.37,3.49,3.49,0,0,1,2.16.74c.38.34.57,1.7.57,4.1,0,.61,0,1.56,0,2.84s0,2.09,0,2.64c0,.7,0,1.2,0,1.51a8.78,8.78,0,0,1-1.32.07h-.79a13,13,0,0,1-.05-1.34v-1l0-1.53c0-1,0-1.79,0-2.23q0-.15-.06-1a5.89,5.89,0,0,0-.28-1.49c0-.56-.44-.81-1.17-.76a5.3,5.3,0,0,0-2.44.45,1.81,1.81,0,0,0-.87,1.56c0,.21,0,.6,0,1.18,0,.89,0,1.85,0,2.88,0,.61.05,1,.05,1.34,0,.59,0,1.2-.07,1.83v.09a4,4,0,0,1-.9.09l-.64,0a4.54,4.54,0,0,0-.6,0l0-4.13c0-1.89-.05-3.3-.05-4.25,0-.77,0-2,.05-3.65a6.45,6.45,0,0,0,.67,0,5.22,5.22,0,0,0,.62,0,2.12,2.12,0,0,0,.34,0,2.42,2.42,0,0,1,.38,0C167.47,55.84,167.55,55.86,167.55,55.91Z" style="fill:#4d4d4d"/><path d="M178.83,55.91a4,4,0,0,1,0,.67v.6a10.13,10.13,0,0,1,1.92-.85A6.83,6.83,0,0,1,183,56a3.49,3.49,0,0,1,2.16.74c.38.34.57,1.7.57,4.1,0,.61,0,1.56,0,2.84s0,2.09,0,2.64c0,.7,0,1.2,0,1.51a8.78,8.78,0,0,1-1.32.07h-.79a13,13,0,0,1-.05-1.34v-1l0-1.53c0-1,0-1.79,0-2.23q0-.15-.06-1a5.89,5.89,0,0,0-.28-1.49c0-.56-.44-.81-1.17-.76a5.3,5.3,0,0,0-2.44.45,1.81,1.81,0,0,0-.87,1.56c0,.21,0,.6,0,1.18,0,.89,0,1.85,0,2.88,0,.61.05,1,.05,1.34,0,.59,0,1.2-.07,1.83v.09a4,4,0,0,1-.9.09l-.64,0a4.54,4.54,0,0,0-.6,0l0-4.13c0-1.89-.05-3.3-.05-4.25,0-.77,0-2,.05-3.65a6.45,6.45,0,0,0,.67,0,5.22,5.22,0,0,0,.62,0,2.12,2.12,0,0,0,.34,0,2.42,2.42,0,0,1,.38,0C178.75,55.84,178.83,55.86,178.83,55.91Z" style="fill:#4d4d4d"/><path d="M189.61,61.76v.44l0,.69c0,2,1,3,2.93,3a2.42,2.42,0,0,0,1.74-.54,1.94,1.94,0,0,0,.57-1.48c0-.09,0-.27,0-.53a8,8,0,0,1,.93-.07,4.1,4.1,0,0,1,.58,0h.35a3.87,3.87,0,0,0,.47,0,14.64,14.64,0,0,1-.1,2.18,4.06,4.06,0,0,1-.58,1.56,2.39,2.39,0,0,1-1.5.92,9,9,0,0,1-2.34.28c-.38,0-.74,0-1.06,0a3.33,3.33,0,0,1-.62-.09,3.51,3.51,0,0,1-2.71-2.37,11,11,0,0,1-.72-4.69c0-.13,0-.4.07-.8s.08-.83.14-1.26a5.22,5.22,0,0,1,.32-1.28,3.26,3.26,0,0,1,1.66-1.63,6.1,6.1,0,0,1,2.66-.57,7.13,7.13,0,0,1,1.61.19q3.25.55,3.26,4.92c0,.24,0,.58-.05,1a14.89,14.89,0,0,1-2.68.24c-.18,0-.56,0-1.16,0-1.26,0-2.2,0-2.8,0A3.78,3.78,0,0,1,189.61,61.76Zm5.83-1.8a3.71,3.71,0,0,0-.37-1.46,2.12,2.12,0,0,0-1.62-1.34,3.21,3.21,0,0,0-.67,0,2.59,2.59,0,0,0-3.05,2.49,3.65,3.65,0,0,0,0,.39.37.37,0,0,0,.28.38,4.16,4.16,0,0,0,1.18.1c.6,0,1.1,0,1.52,0,1.53,0,2.4,0,2.59,0a.37.37,0,0,0,.15-.06s0-.07,0-.13Z" style="fill:#4d4d4d"/><path d="M206.17,63.13a3.49,3.49,0,0,0,.53,0l.84,0a2.7,2.7,0,0,1,.67.07c-.08,1.1-.17,2-.25,2.57a2.29,2.29,0,0,1-1.68,2.08,6.78,6.78,0,0,1-1.91.24c-.29,0-.72,0-1.3,0l-1.1,0A3.31,3.31,0,0,1,199.86,67a4,4,0,0,1-.9-2,21.92,21.92,0,0,1-.28-3c0-.89,0-1.55,0-2a10.87,10.87,0,0,1,.52-3.14,2.11,2.11,0,0,1,1.34-1,6.74,6.74,0,0,1,2.26-.35l.56,0h.54c.21,0,.47,0,.78,0a4.28,4.28,0,0,1,2.66,1A1.83,1.83,0,0,1,208,57.8a18.19,18.19,0,0,1,.2,2.52l0,.58a3.51,3.51,0,0,1-.72.07,7.1,7.1,0,0,1-1.28-.12,3.52,3.52,0,0,0-.61-2.33,2.47,2.47,0,0,0-1.86-.62l-.93.05a3.94,3.94,0,0,0-1,.12,1.13,1.13,0,0,0-.61.45,2.69,2.69,0,0,0-.38,1.11,14.5,14.5,0,0,0-.07,1.8v1.92A3.07,3.07,0,0,0,201.2,65a2,2,0,0,0,1.73,1,5.43,5.43,0,0,0,.65,0,2.77,2.77,0,0,0,1.68-.43,1.92,1.92,0,0,0,.7-1A6.4,6.4,0,0,0,206.17,63.13Z" style="fill:#4d4d4d"/><path d="M214.16,51.4v3.67l0,1.34c1,0,2.33-.09,3.87-.17a1.35,1.35,0,0,1,.14.72l0,.56a5.73,5.73,0,0,0,0,.76c-1.74,0-3,0-3.91,0v4.49c0,.72,0,1.23.05,1.53a2.94,2.94,0,0,0,.19.8,2.25,2.25,0,0,0,1.55.6,14.22,14.22,0,0,0,2.12.07c.08.64.12,1,.12,1.22a3.26,3.26,0,0,1-.12.87l-1.58,0a7.48,7.48,0,0,1-2.93-.46,2.34,2.34,0,0,1-1.34-1.82,54.84,54.84,0,0,1-.27-6.07V58.36c-.09,0-.33,0-.72,0l-1.82,0,.07-2c.35,0,1.19,0,2.52,0l0-2.52V52.79a11.91,11.91,0,0,1,0-1.42,8,8,0,0,1,1,0l.65,0Z" style="fill:#4d4d4d"/><path d="M220.47,55.72a3.52,3.52,0,0,1,.67,0c.48,0,1,0,1.59,0v.08c0,.72,0,1.83,0,3.33s-.07,3.09-.07,4.66,0,2.78.09,3.93a4.86,4.86,0,0,1-1,.08h-.82a2.94,2.94,0,0,0-.53,0c0-.46,0-1.17,0-2.11V61.57c0-1.12,0-2,0-2.59,0-1.1,0-2.18.14-3.24Zm-.09-5.16c1,0,1.74,0,2.25,0l.07,3.17a2.11,2.11,0,0,1-.86.12l-.58,0h-.33a2.43,2.43,0,0,0-.46,0c0-.24,0-.63-.05-1.18C220.38,51.64,220.36,50.92,220.38,50.56Z" style="fill:#4d4d4d"/><path d="M225,60a11.3,11.3,0,0,1,.09-1.54,7.54,7.54,0,0,1,.42-1.61,2.06,2.06,0,0,1,1.33-1,7,7,0,0,1,2.27-.35,3.11,3.11,0,0,0,.48,0l1,0a4.21,4.21,0,0,1,3.09,1.06,1.83,1.83,0,0,1,.66,1.08,9,9,0,0,1,.28,2.12c0,.89.05,1.4.05,1.55-.07,1.6-.14,2.87-.23,3.81a3.21,3.21,0,0,1-.54,1.83,2.28,2.28,0,0,1-1.26.89,6.73,6.73,0,0,1-1.91.24c-.29,0-.72,0-1.3,0l-1.1,0a3.52,3.52,0,0,1-2.12-1,3.76,3.76,0,0,1-.91-1.85,13.19,13.19,0,0,1-.21-2.54V61.33A10.26,10.26,0,0,0,225,60Zm4.9-2.28a2.94,2.94,0,0,0-2.35.84,1.94,1.94,0,0,0-.4,1,11,11,0,0,0-.06,1.52c0,.24,0,.56,0,1s0,.71,0,.94l0,1a1.84,1.84,0,0,0,.54,1.35,2.43,2.43,0,0,0,1.18.54,6.5,6.5,0,0,0,1,.07,3.76,3.76,0,0,0,1.63-.33,1.59,1.59,0,0,0,.89-1.11,7.5,7.5,0,0,0,.1-1q.12-1.68.12-2.28a4.92,4.92,0,0,0-.58-2.54A2.31,2.31,0,0,0,229.88,57.76Z" style="fill:#4d4d4d"/><path d="M238.78,55.91a4,4,0,0,1,.05.67v.6a10.43,10.43,0,0,1,1.92-.85A6.83,6.83,0,0,1,243,56a3.49,3.49,0,0,1,2.16.74c.38.34.58,1.7.58,4.1,0,.61,0,1.56,0,2.84s-.05,2.09-.05,2.64c0,.7,0,1.2,0,1.51a8.78,8.78,0,0,1-1.32.07h-.79a13,13,0,0,1,0-1.34v-1l0-1.53c0-1,0-1.79,0-2.23q0-.15-.06-1a6.39,6.39,0,0,0-.27-1.49c-.05-.56-.45-.81-1.18-.76a5.3,5.3,0,0,0-2.44.45,1.81,1.81,0,0,0-.87,1.56c0,.21,0,.6,0,1.18,0,.89,0,1.85.05,2.88,0,.61,0,1,0,1.34,0,.59,0,1.2-.07,1.83v.09a4,4,0,0,1-.9.09l-.64,0a4.64,4.64,0,0,0-.6,0l0-4.13c0-1.89-.05-3.3-.05-4.25,0-.77,0-2,.05-3.65a6.45,6.45,0,0,0,.67,0,5.11,5.11,0,0,0,.62,0,2.12,2.12,0,0,0,.34,0,2.42,2.42,0,0,1,.38,0C238.7,55.84,238.78,55.86,238.78,55.91Z" style="fill:#4d4d4d"/><path d="M256.83,51.4v3.67l0,1.34c1,0,2.32-.09,3.86-.17a1.26,1.26,0,0,1,.14.72l0,.56a4.14,4.14,0,0,0,0,.76c-1.75,0-3.05,0-3.92,0v4.49c0,.72,0,1.23.05,1.53a2.94,2.94,0,0,0,.19.8,2.25,2.25,0,0,0,1.55.6,14.35,14.35,0,0,0,2.13.07c.07.64.11,1,.11,1.22a3.7,3.7,0,0,1-.11.87l-1.59,0a7.48,7.48,0,0,1-2.93-.46A2.34,2.34,0,0,1,255,65.58a55.22,55.22,0,0,1-.26-6.07V58.36c-.1,0-.34,0-.72,0l-1.83,0,.07-2c.36,0,1.19,0,2.52,0l0-2.52V52.79a11.91,11.91,0,0,1,.05-1.42,8,8,0,0,1,1,0l.65,0Z" style="fill:#4d4d4d"/><path d="M262.21,60a11.47,11.47,0,0,1,.08-1.54,9,9,0,0,1,.42-1.61,2.09,2.09,0,0,1,1.33-1,7.07,7.07,0,0,1,2.27-.35,3.11,3.11,0,0,0,.48,0l1,0a4.24,4.24,0,0,1,3.1,1.06,1.93,1.93,0,0,1,.66,1.08,9.08,9.08,0,0,1,.27,2.12c0,.89.05,1.4.05,1.55-.06,1.6-.14,2.87-.23,3.81a3.21,3.21,0,0,1-.54,1.83,2.28,2.28,0,0,1-1.26.89,6.68,6.68,0,0,1-1.91.24c-.28,0-.72,0-1.29,0l-1.11,0a3.52,3.52,0,0,1-2.12-1,3.76,3.76,0,0,1-.91-1.85,13.19,13.19,0,0,1-.21-2.54V61.33C262.25,60.74,262.24,60.31,262.21,60Zm4.89-2.28a2.94,2.94,0,0,0-2.35.84,1.94,1.94,0,0,0-.4,1,11,11,0,0,0-.06,1.52,8.26,8.26,0,0,0,0,1c0,.4,0,.71,0,.94l.05,1a1.88,1.88,0,0,0,.54,1.35,2.47,2.47,0,0,0,1.19.54,6.37,6.37,0,0,0,1,.07,3.73,3.73,0,0,0,1.63-.33,1.59,1.59,0,0,0,.89-1.11,6.07,6.07,0,0,0,.1-1q.12-1.68.12-2.28a4.83,4.83,0,0,0-.58-2.54A2.3,2.3,0,0,0,267.1,57.76Z" style="fill:#4d4d4d"/><path d="M277.93,50.94l2.11,0,2.23,0a51,51,0,0,1,5.79.27c0,.14,0,.39,0,.74a13.37,13.37,0,0,1-.12,1.73,7,7,0,0,0-1.49-.07c-.51,0-1,0-1.54,0h-.62a.48.48,0,0,1,0,.29c0,.1,0,1.18,0,3.24,0,.5,0,.91,0,1.23.05,4.22.1,7.32.15,9.28v0a8.61,8.61,0,0,1-1.32.07,8.08,8.08,0,0,0-1.42.1,1,1,0,0,1,0-.32c0-.16,0-.33,0-.52V65.56c0-.32,0-.9,0-1.73s0-1.71,0-2.28q0-3.44-.17-7.73v-.1a15.56,15.56,0,0,0-2.66-.19c-.52,0-.79,0-.84,0a3.35,3.35,0,0,1-.1-.91C277.93,52.08,277.93,51.53,277.93,50.94Z" style="fill:#4d4d4d"/><path d="M291.82,55v2.14a6.94,6.94,0,0,1,1.14-.83,3.69,3.69,0,0,1,1.45-.35,8.48,8.48,0,0,1,1.08-.07,4.1,4.1,0,0,1,2.74.84,2,2,0,0,1,.43,1.25,22.25,22.25,0,0,1,.12,2.59c0,.61,0,1.57,0,2.88s0,2.19,0,2.74,0,1,0,1.63a10.57,10.57,0,0,1-2.06.09c0-.48-.05-.89-.05-1.24V60.49a2.38,2.38,0,0,0-.72-2,1.91,1.91,0,0,0-.57-.19,3.63,3.63,0,0,0-1-.15,2.69,2.69,0,0,0-1.59.47,2.18,2.18,0,0,0-.85,1.45,11.59,11.59,0,0,0-.17,2.19l0,.81c0,1.06.05,1.93.05,2.62,0,.86,0,1.53-.05,2v.1a3.3,3.3,0,0,1-.77.12l-.72,0a4.22,4.22,0,0,0-.55,0c0-1.84,0-3.36,0-4.56l0-7.35c0-1.79,0-3.63.05-5.52a7.69,7.69,0,0,0,1.2.05l.3,0a2.31,2.31,0,0,1,.37,0c.16,0,.24,0,.24.08s.05,1.12.05,2.92Z" style="fill:#4d4d4d"/><path d="M302.67,61.76v.44l0,.69c0,2,1,3,2.92,3a2.42,2.42,0,0,0,1.74-.54,1.94,1.94,0,0,0,.57-1.48c0-.09,0-.27-.05-.53a8.18,8.18,0,0,1,.94-.07,4,4,0,0,1,.57,0h.35a3.84,3.84,0,0,0,.47,0,14.64,14.64,0,0,1-.1,2.18,4.21,4.21,0,0,1-.57,1.56,2.45,2.45,0,0,1-1.5.92,9.15,9.15,0,0,1-2.34.28c-.39,0-.74,0-1.07,0a3.17,3.17,0,0,1-.61-.09,3.51,3.51,0,0,1-2.72-2.37,11,11,0,0,1-.72-4.69c0-.13,0-.4.08-.8s.07-.83.13-1.26a5.22,5.22,0,0,1,.32-1.28,3.3,3.3,0,0,1,1.66-1.63,6.13,6.13,0,0,1,2.66-.57,7.13,7.13,0,0,1,1.61.19c2.18.37,3.26,2,3.26,4.92,0,.24,0,.58,0,1a15.06,15.06,0,0,1-2.69.24c-.18,0-.56,0-1.15,0-1.27,0-2.2,0-2.81,0A3.78,3.78,0,0,1,302.67,61.76ZM308.5,60a3.54,3.54,0,0,0-.37-1.46,2.62,2.62,0,0,0-1-1.13,2.52,2.52,0,0,0-.62-.21,3.21,3.21,0,0,0-.67,0,2.59,2.59,0,0,0-3,2.49,3.65,3.65,0,0,0-.05.39.37.37,0,0,0,.28.38,4.2,4.2,0,0,0,1.19.1c.59,0,1.09,0,1.51,0,1.53,0,2.4,0,2.59,0l.16-.06a.21.21,0,0,0,0-.13Z" style="fill:#4d4d4d"/><path d="M314.21,55.91c0,.19,0,.34,0,.44s0,.23,0,.37a4.71,4.71,0,0,1,.47-.21l.66-.24A6.05,6.05,0,0,1,316.7,56c.52-.05,1-.08,1.4-.08s.58,0,.58.05l0,2a6.32,6.32,0,0,0,0,.72,6.07,6.07,0,0,0-.82-.27,5.14,5.14,0,0,0-1.15-.12,6.35,6.35,0,0,0-1.46.2,1.57,1.57,0,0,0-.92.5,2.22,2.22,0,0,0-.21,1.27q.09,3.28.09,7.47v.09a3.33,3.33,0,0,1-.84.1h-.54a6.28,6.28,0,0,0-.75,0l0-4.13c0-1.89,0-3.3,0-4.25,0-.77,0-2,0-3.65a4.35,4.35,0,0,0,.52,0l.49,0,.77,0C314.09,55.86,314.21,55.88,314.21,55.91Z" style="fill:#4d4d4d"/><path d="M322.83,55.93a4.08,4.08,0,0,1,.05.67v.6A3.74,3.74,0,0,1,325,56.12a7.49,7.49,0,0,1,1.42-.16,3.27,3.27,0,0,1,1.7.4,1.3,1.3,0,0,1,.7.68c.11-.07.27-.18.49-.35a3.45,3.45,0,0,1,.89-.48,4.5,4.5,0,0,1,1.57-.25,7.35,7.35,0,0,1,1.88.1,2.89,2.89,0,0,1,1.24.64,2,2,0,0,1,.43,1.25,22.25,22.25,0,0,1,.12,2.59c0,.61,0,1.57-.05,2.88s-.05,2.19-.05,2.74,0,1,.05,1.63a9.92,9.92,0,0,1-2,.09c0-.43,0-1.22,0-2.37s0-2.21,0-2.88v-1c0-.13,0-.36,0-.7s0-.7-.09-1.1a2.12,2.12,0,0,0-.29-.91c-.1-.32-.41-.51-.94-.55a3.13,3.13,0,0,0-.69,0,2.73,2.73,0,0,0-1.2.23,1.33,1.33,0,0,0-.72.7c0,.36-.05.64-.05.84l0,.68v.88c0,.55,0,1.38,0,2.5l0,2.4c0,.59,0,1,0,1.27a10,10,0,0,1-1.37.07h-.75c0-.32,0-.88,0-1.7V64.91l0-1.78c0-1.1,0-2.08-.1-2.93a2.14,2.14,0,0,0-.33-1.38,1.69,1.69,0,0,0-1.25-.37c-1.7,0-2.61.95-2.74,2.86,0,.24,0,.59,0,1s0,1.24.05,2.16l0,1.18c0,.66,0,1.34-.07,2v.1a4.13,4.13,0,0,1-.67.07l-.79,0a4.4,4.4,0,0,0-.58,0l0-4.13c0-1.89,0-3.3,0-4.25,0-.77,0-2,0-3.65.41,0,.66,0,.74,0l.53,0,.31,0,.38,0C322.76,55.86,322.83,55.88,322.83,55.93Z" style="fill:#4d4d4d"/><path d="M337.25,60a11.3,11.3,0,0,1,.09-1.54,7.54,7.54,0,0,1,.42-1.61,2.09,2.09,0,0,1,1.33-1,7.07,7.07,0,0,1,2.27-.35,3.11,3.11,0,0,0,.48,0l1,0a4.21,4.21,0,0,1,3.09,1.06,1.83,1.83,0,0,1,.66,1.08,8.5,8.5,0,0,1,.28,2.12c0,.89.05,1.4.05,1.55-.07,1.6-.14,2.87-.23,3.81a3.21,3.21,0,0,1-.54,1.83,2.28,2.28,0,0,1-1.26.89,6.73,6.73,0,0,1-1.91.24c-.29,0-.72,0-1.29,0l-1.11,0a3.52,3.52,0,0,1-2.12-1,3.76,3.76,0,0,1-.91-1.85,13.19,13.19,0,0,1-.21-2.54V61.33A10.26,10.26,0,0,0,337.25,60Zm4.9-2.28a2.94,2.94,0,0,0-2.35.84,1.94,1.94,0,0,0-.4,1,11,11,0,0,0-.06,1.52c0,.24,0,.56,0,1s0,.71,0,.94l.05,1a1.88,1.88,0,0,0,.54,1.35,2.47,2.47,0,0,0,1.19.54,6.28,6.28,0,0,0,1,.07,3.76,3.76,0,0,0,1.63-.33,1.59,1.59,0,0,0,.89-1.11,7.5,7.5,0,0,0,.1-1q.12-1.68.12-2.28a4.92,4.92,0,0,0-.58-2.54A2.3,2.3,0,0,0,342.15,57.76Z" style="fill:#4d4d4d"/><path d="M358.33,59q0,.12-.84.12c-.42,0-.72,0-.92,0h-.38a1.47,1.47,0,0,0-.31,0v-.83c0-.53-.47-.86-1.39-1a7,7,0,0,0-.94,0,7.3,7.3,0,0,0-1.21.1,2.33,2.33,0,0,0-.81.26,1.68,1.68,0,0,0-.48.7,2.58,2.58,0,0,0-.16.89.8.8,0,0,0,.09.45,1.57,1.57,0,0,0,.7.77,4.54,4.54,0,0,0,1.17.41,7.39,7.39,0,0,0,1.61.26,5.64,5.64,0,0,1,1.74.3,3,3,0,0,1,1.19.76,4.07,4.07,0,0,1,.64,1,3.18,3.18,0,0,1,.2,1.12,5.71,5.71,0,0,1-.36,1.8,3.35,3.35,0,0,1-1.68,1.66,6,6,0,0,1-2.62.5,7.37,7.37,0,0,1-2.83-.42,4,4,0,0,1-1.89-1.4,3.69,3.69,0,0,1-.68-2.21v-.12c.29,0,.72,0,1.28,0a3,3,0,0,1,1,.07,2.18,2.18,0,0,1,.21.54,3.07,3.07,0,0,0,.56,1,1.88,1.88,0,0,0,1.39.57c.52,0,.82,0,.92,0a2.28,2.28,0,0,0,.63-.07,5.8,5.8,0,0,0,.66-.26,1.7,1.7,0,0,0,1.2-1.61,1.35,1.35,0,0,0-.37-1.08,2,2,0,0,0-1-.52c-.4-.09-.94-.17-1.63-.25l-1.2-.14a3.2,3.2,0,0,1-.81-.24,3.76,3.76,0,0,1-1.91-1.29,3.1,3.1,0,0,1-.66-1.91,3.46,3.46,0,0,1,.66-2.05,3.07,3.07,0,0,1,1.81-1.21,9.85,9.85,0,0,1,2.52-.26c.24,0,.6,0,1.08,0a8.18,8.18,0,0,1,1.92.36A3,3,0,0,1,357.8,57,3.74,3.74,0,0,1,358.33,59Z" style="fill:#4d4d4d"/><path d="M367.25,63.13a3.61,3.61,0,0,0,.53,0l.84,0a2.65,2.65,0,0,1,.67.07c-.08,1.1-.16,2-.25,2.57a2.33,2.33,0,0,1-.42,1.2,2.26,2.26,0,0,1-1.26.88,6.68,6.68,0,0,1-1.91.24c-.28,0-.72,0-1.29,0l-1.11,0A3.37,3.37,0,0,1,360.94,67a4.18,4.18,0,0,1-.9-2,22.16,22.16,0,0,1-.27-3c0-.89,0-1.55,0-2a10.91,10.91,0,0,1,.53-3.14,2.09,2.09,0,0,1,1.33-1,6.8,6.8,0,0,1,2.27-.35l.55,0H365c.22,0,.48,0,.78,0a4.31,4.31,0,0,1,2.67,1,1.82,1.82,0,0,1,.7,1.22,16.46,16.46,0,0,1,.21,2.52l0,.58a3.51,3.51,0,0,1-.72.07,7,7,0,0,1-1.27-.12,3.58,3.58,0,0,0-.61-2.33,2.47,2.47,0,0,0-1.86-.62l-.94.05a3.85,3.85,0,0,0-1,.12,1.09,1.09,0,0,0-.61.45,2.54,2.54,0,0,0-.39,1.11,16.87,16.87,0,0,0-.07,1.8v1.92a3.18,3.18,0,0,0,.39,1.64A1.94,1.94,0,0,0,364,66a5.55,5.55,0,0,0,.65,0,2.77,2.77,0,0,0,1.68-.43,1.89,1.89,0,0,0,.71-1A7.11,7.11,0,0,0,367.25,63.13Z" style="fill:#4d4d4d"/><path d="M370.85,60a11.3,11.3,0,0,1,.09-1.54,7.54,7.54,0,0,1,.42-1.61,2.06,2.06,0,0,1,1.33-1A7,7,0,0,1,375,55.5a3.11,3.11,0,0,0,.48,0l1,0a4.21,4.21,0,0,1,3.09,1.06,1.83,1.83,0,0,1,.66,1.08,8.5,8.5,0,0,1,.28,2.12c0,.89.05,1.4.05,1.55-.07,1.6-.14,2.87-.23,3.81a3.21,3.21,0,0,1-.54,1.83,2.28,2.28,0,0,1-1.26.89,6.73,6.73,0,0,1-1.91.24c-.29,0-.72,0-1.29,0l-1.11,0A3.52,3.52,0,0,1,372,67a3.76,3.76,0,0,1-.91-1.85,13.19,13.19,0,0,1-.21-2.54V61.33A10.26,10.26,0,0,0,370.85,60Zm4.9-2.28a2.94,2.94,0,0,0-2.35.84,1.94,1.94,0,0,0-.4,1,11,11,0,0,0-.06,1.52c0,.24,0,.56,0,1s0,.71,0,.94l.05,1a1.88,1.88,0,0,0,.54,1.35,2.47,2.47,0,0,0,1.19.54,6.28,6.28,0,0,0,1,.07,3.76,3.76,0,0,0,1.63-.33,1.59,1.59,0,0,0,.89-1.11,7.5,7.5,0,0,0,.1-1q.12-1.68.12-2.28a4.92,4.92,0,0,0-.58-2.54A2.3,2.3,0,0,0,375.75,57.76Z" style="fill:#4d4d4d"/><path d="M384.53,72.42v.26s-.1.06-.31.09-.44,0-.69,0a6.8,6.8,0,0,1-1-.07V71.15c0-1.51,0-3.71-.09-6.63,0-.7,0-1.56,0-2.58s0-2.16,0-3.44,0-2.06,0-2.64l1.56,0a6.37,6.37,0,0,1,.7,0,.8.8,0,0,1,0,.2c0,.12,0,.25,0,.38s0,.13,0,.21a1.35,1.35,0,0,1,0,.34c0,.08.05.11.09.11s.09-.07.15-.18a2.38,2.38,0,0,1,1.18-.8,4.87,4.87,0,0,1,1.51-.24,3.08,3.08,0,0,1,.53,0,3.73,3.73,0,0,1,2.53,1,4.63,4.63,0,0,1,1.17,2.3,19.75,19.75,0,0,1,.33,3.44,9.39,9.39,0,0,1-.47,3.16,2.53,2.53,0,0,1-1.47,1.71,5.12,5.12,0,0,1-1.44.31c-.18,0-.46,0-.84,0a12.15,12.15,0,0,1-2.24-.19c-.68-.13-1-.29-1.07-.48l0,2.93c0,.35,0,.78,0,1.3ZM386.72,66a10.29,10.29,0,0,0,1.71-.11,1.88,1.88,0,0,0,1-.51,2.88,2.88,0,0,0,.69-1.28,9.34,9.34,0,0,0,.19-1.75,7.35,7.35,0,0,0-.69-3.31A2.41,2.41,0,0,0,387,57.83a2.63,2.63,0,0,0-1.7.63,2.56,2.56,0,0,0-.68,1.43,16.19,16.19,0,0,0-.14,2.5,13.85,13.85,0,0,0,.14,2.43,1.33,1.33,0,0,0,.59,1A3.35,3.35,0,0,0,386.72,66Z" style="fill:#4d4d4d"/><path d="M395.77,61.76v.44l0,.69c0,2,1,3,2.93,3a2.45,2.45,0,0,0,1.74-.54,2,2,0,0,0,.56-1.48,3.73,3.73,0,0,0-.05-.53,8.18,8.18,0,0,1,.94-.07,4.1,4.1,0,0,1,.58,0h.35a3.68,3.68,0,0,0,.46,0,13.58,13.58,0,0,1-.09,2.18,4.23,4.23,0,0,1-.58,1.56,2.45,2.45,0,0,1-1.5.92,9,9,0,0,1-2.34.28c-.38,0-.74,0-1.07,0a3.17,3.17,0,0,1-.61-.09,3.5,3.5,0,0,1-2.71-2.37,11,11,0,0,1-.72-4.69c0-.13,0-.4.07-.8s.08-.83.13-1.26a5.74,5.74,0,0,1,.33-1.28,3.24,3.24,0,0,1,1.65-1.63,6.14,6.14,0,0,1,2.67-.57,7,7,0,0,1,1.6.19q3.27.55,3.27,4.92c0,.24,0,.58-.05,1a14.93,14.93,0,0,1-2.69.24c-.17,0-.56,0-1.15,0-1.26,0-2.2,0-2.81,0A3.68,3.68,0,0,1,395.77,61.76ZM401.6,60a3.71,3.71,0,0,0-.37-1.46,2.75,2.75,0,0,0-1-1.13,2.57,2.57,0,0,0-.63-.21,4.2,4.2,0,0,0-2.89.6,3.13,3.13,0,0,0-.83,1.84,2.9,2.9,0,0,0,0,.39.37.37,0,0,0,.27.38,4.25,4.25,0,0,0,1.19.1c.59,0,1.1,0,1.51,0,1.54,0,2.4,0,2.59,0a.44.44,0,0,0,.16-.06.2.2,0,0,0,0-.13Z" style="fill:#4d4d4d"/><path d="M407.45,67.84l-1.82,0h-.07a6.53,6.53,0,0,1-.08-1.1l0-1.18c0-.14,0-.31,0-.5a3.28,3.28,0,0,1,1.15-.17,2.71,2.71,0,0,1,1,.12c0,.08,0,.51-.07,1.3s-.07,1.28-.07,1.51v0Z" style="fill:#4d4d4d"/></g><g id="Icon_Back" data-name="Icon Back"><path d="M36.14,86c14.27,1.29,26.29-.5,40-4.54,5.41-14.59,5.3-33.66,2-43.3-13.25-4.11-31.55-2.39-42,0C31.38,49.34,31.76,70.33,36.14,86Z" style="fill:#9d9d9d"/></g></svg>