<svg id="Sensor_Connecting" data-name="Sensor Connecting" xmlns="http://www.w3.org/2000/svg" viewBox="0 0 188 56"><title>Sensor Connecting</title><path d="M174.83.82c-11,2.69-22.28,4.82-33.68,6.45S118.22,10,106.69,10.63a316.33,316.33,0,0,1-34.43,0c-6.52-.39-13-1-19.35-2,1.76,7.68,2.15,18.48.55,29.11,5.14,1.14,10.3,2.11,15.44,2.94a348.43,348.43,0,0,0,37.81,3.76q18.9.88,37.82.06c12.62-.55,25.25-1.65,38-3.45Z" style="fill:#e2c100"/><g id="Sensor_ICON" data-name="Sensor ICON"><path d="M4.2,54.8c14.27,1.29,26.3-.5,40-4.54,5.41-14.59,5.31-33.67,2-43.3C33,2.85,14.68,4.57,4.2,7-.55,18.19-.18,39.18,4.2,54.8Z" style="fill:#e2c100"/><path id="Connect" d="M24.63,18A11.24,11.24,0,0,0,13.38,29.29h3.21a8,8,0,0,1,16.08,0h3.22A11.24,11.24,0,0,0,24.63,18ZM26.24,33A4,4,0,1,0,23,33v5.3l-5.49,5.49L19.81,46l4.82-4.82L29.46,46l2.27-2.26-5.49-5.49ZM24.63,11.61A17.69,17.69,0,0,0,7,29.29h3.21a14.48,14.48,0,0,1,29,0h3.21A17.69,17.69,0,0,0,24.63,11.61Z" style="fill:#fff"/></g></svg>