<svg id="Tempgauge_Readout_A" data-name="Tempgauge Readout A" xmlns="http://www.w3.org/2000/svg" viewBox="0 0 74 38"><title>tempgauge-readout-placement</title><g id="Readout"><path d="M16.41,30.25,7,30.43l-4,0H1.4a.12.12,0,0,1,0-.1l0-1.05a17.7,17.7,0,0,1,.31-3.38,6.65,6.65,0,0,1,1.4-2.71A15.27,15.27,0,0,1,5.6,21q1.37-1,3.64-2.4l.84-.51a9.86,9.86,0,0,0,.94-.61,3.45,3.45,0,0,0,2.21-2.8l0-.8c0-1.82-.32-3.05-1-3.7a3.53,3.53,0,0,0-2.61-1l-1.57.11A2.71,2.71,0,0,0,5.89,11a6.82,6.82,0,0,0-.71,3.13l0,1.26v.25l0,.07a14.14,14.14,0,0,1-2.31.21c-.26,0-.67,0-1.23-.07l0-.07a12.73,12.73,0,0,1-.21-2.28,8.5,8.5,0,0,1,2-5.81A4.78,4.78,0,0,1,5.84,6.07a12.13,12.13,0,0,1,3.64-.53,10.71,10.71,0,0,1,3.89.63,5.64,5.64,0,0,1,2.85,3.41,16.62,16.62,0,0,1,.65,5.59A5.22,5.22,0,0,1,16,17.7a6.7,6.7,0,0,1-1.72,1.72A30,30,0,0,1,11.65,21c-.93.49-1.69.91-2.27,1.27a9.06,9.06,0,0,0-1.61,1.28c-.61.66-1.12,1.24-1.54,1.75a2.28,2.28,0,0,0-.63,1.26.36.36,0,0,0,.21.35c1.72.05,3.22.07,4.48.07s2.76,0,4.72-.14l1.12,0a4.53,4.53,0,0,1,.21,1.43l0,1.16v.45S16.34,30,16.41,30.25Z" style="fill:#fff"/><path d="M19.56,19.4l0-.91c-.05-.88-.07-1.55-.07-2a19.94,19.94,0,0,1,.4-4.17A10.59,10.59,0,0,1,21.31,8.8a6,6,0,0,1,2.54-2.35,7.76,7.76,0,0,1,3.59-.87,6.68,6.68,0,0,1,4.62,1.64,9.68,9.68,0,0,1,2.66,4.13,15.58,15.58,0,0,1,.84,5c0,.47,0,.8,0,1l0,.95A18.94,18.94,0,0,1,34.7,24,10.91,10.91,0,0,1,32,28.54a6.18,6.18,0,0,1-4.55,1.82,8,8,0,0,1-2.94-.46,6.36,6.36,0,0,1-3.27-2.41A8.59,8.59,0,0,1,19.91,24,37.92,37.92,0,0,1,19.56,19.4Zm3.36-.66a19.08,19.08,0,0,0,.79,5.6A3.29,3.29,0,0,0,27,26.79a4,4,0,0,0,1.51-.14A4.4,4.4,0,0,0,31,24.46a6.52,6.52,0,0,0,.82-3.17c0-1,0-1.57,0-1.64,0-.45,0-.78,0-1l0-1.29c0-.3,0-.92-.07-1.86a9.87,9.87,0,0,0-1-4.2,3.8,3.8,0,0,0-3-2.17c-1.89,0-3.14.56-3.73,1.67a6.61,6.61,0,0,0-.89,3.16c-.05.33-.1.78-.14,1.37C22.91,16.94,22.9,18.08,22.92,18.74Z" style="fill:#fff"/><path d="M51.52,16.22a11,11,0,0,1-1.79.17,7.49,7.49,0,0,1-2.17-.31A3,3,0,0,1,46,14.64a4.76,4.76,0,0,1-.21-1c0-.21-.05-.51-.07-.89s0-.73,0-1a7.66,7.66,0,0,1,.2-1.85,3,3,0,0,1,1-1.39,3.86,3.86,0,0,1,1.68-.71l.46,0c.35,0,.8,0,1.36,0a5.16,5.16,0,0,1,1.44.17l.63.25a2.57,2.57,0,0,1,1,.59,2.52,2.52,0,0,1,.84,1.65,4.22,4.22,0,0,1,.07.91v.63q0,3.39-2.14,4.16A4,4,0,0,1,51.52,16.22Zm.27-6.79a5.77,5.77,0,0,0-1.71-.21,8.06,8.06,0,0,0-1.65.14,1.67,1.67,0,0,0-1.12,1.29c0,.52-.06.9-.06,1.16l0,1.47a1.7,1.7,0,0,0,.35,1.07,1.33,1.33,0,0,0,.94.5,11.29,11.29,0,0,0,2.31-.07.45.45,0,0,0,.18,0,.31.31,0,0,1,.17,0h0a1.25,1.25,0,0,0,1-.47,2.87,2.87,0,0,0,.42-1.1,3.81,3.81,0,0,0,.1-.67c0-.25,0-.48.07-.66a3.8,3.8,0,0,0,.07-.63A1.76,1.76,0,0,0,52.46,10,1.68,1.68,0,0,0,51.79,9.43Z" style="fill:#fff"/><path d="M60.37,19.23c0,1.21-.07,2.05-.07,2.52a10.92,10.92,0,0,0,.45,3.53,3,3,0,0,0,1.79,1.79,8,8,0,0,0,1.71.21,4,4,0,0,0,3.57-1.75,8.93,8.93,0,0,0,1.12-5,4.38,4.38,0,0,0,.72,0h.58a6.66,6.66,0,0,1,.87,0,4.93,4.93,0,0,1,1,.07,9.2,9.2,0,0,1,.31,2.35,8.48,8.48,0,0,1-.91,3.9,7.32,7.32,0,0,1-2.57,2.89,7.15,7.15,0,0,1-3.76,1.15,8.74,8.74,0,0,1-1.37.11,8.19,8.19,0,0,1-4.42-1.19,4.54,4.54,0,0,1-2.16-3.57Q57,22.67,57,18.67q0-1.86,0-2.91l0-4.23a7,7,0,0,1,1.1-3.87,5.11,5.11,0,0,1,3-2.22A8.65,8.65,0,0,1,64,5a7.93,7.93,0,0,1,4.24,1.18,8.65,8.65,0,0,1,3.06,3.18,8.76,8.76,0,0,1,1.14,4.39,9.85,9.85,0,0,1-.21,2,11.52,11.52,0,0,1-1.68.17,8.16,8.16,0,0,1-1.68-.21V14.57a9.72,9.72,0,0,0-.39-3A3.28,3.28,0,0,0,66.7,9.67,5,5,0,0,0,63.87,9C63.5,9,63.2,9,63,9c-.93.05-1.61.73-2,2a22,22,0,0,0-.56,6.37Z" style="fill:#fff"/></g></svg>