<svg id="TempGauge_-_Air" data-name="TempGauge - Air" xmlns="http://www.w3.org/2000/svg" viewBox="0 0 234 155"><title>tempgauge-air</title><g id="Dial"><path id="Face_Back" data-name="Face Back" d="M211.24,121.29c.06-1.42.1-2.85.1-4.29a94.34,94.34,0,0,0-188.68,0c0,1.44,0,2.87.1,4.29Z" style="fill:#e3cafd"/><path id="Face_Top" data-name="Face Top" d="M202.66,121.29c.07-1.42.1-2.85.1-4.29a85.76,85.76,0,0,0-171.52,0c0,1.44,0,2.87.1,4.29Z" style="fill:#a44dff;opacity:0.7000000000000001"/><g id="Ticks"><path d="M52.4,74.75,39.3,67.19,35,74.62,48.1,82.17A79.09,79.09,0,0,1,52.4,74.75Z" style="fill:#e3cafd"/><path d="M82.17,48.1,74.62,35,67.19,39.3l7.56,13.1A79.09,79.09,0,0,1,82.17,48.1Z" style="fill:#e3cafd"/><path d="M117,39.81c1.44,0,2.87,0,4.29.12V24.81h-8.58V39.93C114.13,39.86,115.56,39.81,117,39.81Z" style="fill:#e3cafd"/><path d="M185.9,82.17,199,74.62l-4.29-7.43-13.1,7.56A79.09,79.09,0,0,1,185.9,82.17Z" style="fill:#e3cafd"/><path d="M39.81,117c0-1.44,0-2.87.12-4.29H24.81v8.58H39.93C39.86,119.87,39.81,118.44,39.81,117Z" style="fill:#e3cafd"/><path d="M159.25,52.4l7.56-13.1L159.38,35,151.83,48.1A79.09,79.09,0,0,1,159.25,52.4Z" style="fill:#e3cafd"/><path d="M194.07,112.71c.07,1.42.12,2.85.12,4.29s-.05,2.87-.12,4.29h15.12v-8.58Z" style="fill:#e3cafd"/></g><g id="Temperature_Label" data-name="Temperature Label"><path d="M52.34,86.23c.51-.88.89-1.55,1.13-2l1.21-2.11a58.25,58.25,0,0,1,3.42-5.28,7,7,0,0,1,.71.38,13.1,13.1,0,0,1,1.53,1,8,8,0,0,0-.89,1.36c-.25.49-.52,1-.8,1.46l-.34.59a.49.49,0,0,1,.27.15c.08.07,1.07.66,3,1.78.46.27.84.49,1.14.64q5.91,3.38,8.67,4.9l0,0a11.47,11.47,0,0,1-.66,1.28,8.68,8.68,0,0,0-.69,1.38,1.45,1.45,0,0,1-.31-.17l-.47-.29-1.35-.79q-.43-.28-1.59-1c-.87-.51-1.58-.92-2.12-1.21q-3.2-1.82-7.24-4l-.09,0a16.44,16.44,0,0,0-1.64,2.4,7.83,7.83,0,0,1-.48.77,3.53,3.53,0,0,1-.9-.4C53.4,86.84,52.88,86.55,52.34,86.23Z" style="fill:#e3cafd"/><path d="M69.68,80.56l.35.31.54.51q2.42,2.09,4.5-.31a2.68,2.68,0,0,0,.81-1.8,2.12,2.12,0,0,0-.79-1.51l-.46-.33a7,7,0,0,1,.61-.82,3.9,3.9,0,0,1,.43-.45l.26-.28a2.79,2.79,0,0,0,.32-.39A15.36,15.36,0,0,1,78,77.11a4.5,4.5,0,0,1,.85,1.57,2.68,2.68,0,0,1-.33,1.88A10.08,10.08,0,0,1,77,82.67a10.92,10.92,0,0,1-.8.84,4.08,4.08,0,0,1-.51.44,3.79,3.79,0,0,1-3.85.55,11.61,11.61,0,0,1-4.31-2.71c-.09-.11-.29-.31-.6-.63s-.61-.64-.92-1a6,6,0,0,1-.8-1.17,3.49,3.49,0,0,1-.13-2.5,6.62,6.62,0,0,1,1.44-2.59,7.85,7.85,0,0,1,1.3-1.18c1.85-1.53,4-1.26,6.31.79.19.17.46.42.8.76a17.8,17.8,0,0,1-1.73,2.38c-.11.15-.38.47-.8,1-.91,1-1.59,1.79-2,2.26A3.84,3.84,0,0,1,69.68,80.56Zm2.71-6a3.87,3.87,0,0,0-1.45-.72,2.88,2.88,0,0,0-1.62,0,3.08,3.08,0,0,0-.62.36,4,4,0,0,0-.52.51A3.43,3.43,0,0,0,67.12,77a3.23,3.23,0,0,0,.9,2,1.93,1.93,0,0,0,.28.31.39.39,0,0,0,.5,0,5.09,5.09,0,0,0,.93-.91c.42-.49.78-.9,1.06-1.26,1.1-1.26,1.71-2,1.83-2.14a.32.32,0,0,0,.07-.17.25.25,0,0,0-.08-.12Z" style="fill:#e3cafd"/><path d="M75.39,65.79a3.79,3.79,0,0,1,.44.57l.36.54a4.08,4.08,0,0,1,1.27-2.24,7.76,7.76,0,0,1,1.18-1A3.55,3.55,0,0,1,80.42,63a1.34,1.34,0,0,1,1,.18,3.3,3.3,0,0,0,.24-.6,4.26,4.26,0,0,1,.52-1,5.1,5.1,0,0,1,1.27-1.17,8.49,8.49,0,0,1,1.77-1,3.16,3.16,0,0,1,1.5-.18c.29,0,.67.32,1.13.85a25.92,25.92,0,0,1,1.65,2.24c.36.55.92,1.41,1.67,2.6s1.26,2,1.58,2.47.61.88,1,1.43A11.24,11.24,0,0,1,92,70.11c-.29-.36-.77-1.06-1.46-2.09s-1.27-2-1.67-2.6l-.6-.89q-.14-.16-.45-.6c-.22-.29-.47-.59-.75-.92a2.17,2.17,0,0,0-.8-.64c-.28-.23-.67-.21-1.18.07a3.85,3.85,0,0,0-.65.38,3.22,3.22,0,0,0-1,.92,1.48,1.48,0,0,0-.23,1.07q.27.5.45.78l.42.58.53.79c.33.49.81,1.24,1.44,2.26l1.41,2.15c.35.53.61.91.78,1.13a11.86,11.86,0,0,1-1.2.88l-.67.45c-.22-.26-.57-.76-1.06-1.49l-.75-1.13-1-1.6c-.66-1-1.26-1.84-1.83-2.56a2.22,2.22,0,0,0-1.12-1,1.78,1.78,0,0,0-1.35.42c-1.54,1-1.79,2.42-.78,4.2.13.22.33.54.61.95s.75,1.09,1.33,1.9l.72,1c.39.59.77,1.21,1.15,1.87l0,.08a3.77,3.77,0,0,1-.56.47l-.73.46a5,5,0,0,0-.51.37l-2.48-3.67c-1.15-1.66-2-2.92-2.57-3.76-.45-.69-1.16-1.78-2.12-3.28l.7-.41.46-.34.27-.21.33-.25C75.28,65.77,75.36,65.75,75.39,65.79Z" style="fill:#e3cafd"/><path d="M99,72.53l.09.27s-.08.1-.29.19a6.19,6.19,0,0,1-.71.28,8.24,8.24,0,0,1-1.09.27l-.53-1.61c-.5-1.53-1.28-3.77-2.32-6.71-.25-.71-.56-1.58-.91-2.61s-.76-2.2-1.18-3.5-.69-2.1-.87-2.7l1.61-.55a6.84,6.84,0,0,1,.72-.21s.06.07.11.19.09.25.14.38l.08.21a1.51,1.51,0,0,1,.1.35c0,.07.09.1.12.08s.08-.1.11-.24a2.58,2.58,0,0,1,.94-1.2,5.47,5.47,0,0,1,1.48-.76,4.61,4.61,0,0,1,.56-.16,4.12,4.12,0,0,1,3,.19,4.86,4.86,0,0,1,2,2,20.88,20.88,0,0,1,1.5,3.38,10.23,10.23,0,0,1,.58,3.39,2.71,2.71,0,0,1-1,2.23,5.58,5.58,0,0,1-1.38.81c-.18.08-.47.18-.86.31a14.48,14.48,0,0,1-2.37.57c-.76.1-1.18.06-1.28-.13l1,3c.12.36.25.8.39,1.34Zm.12-7.24a12.73,12.73,0,0,0,1.73-.69,2.27,2.27,0,0,0,.88-.86A3,3,0,0,0,102,62.2a9.56,9.56,0,0,0-.39-1.85,7.83,7.83,0,0,0-1.82-3.14,2.64,2.64,0,0,0-3.13-.38,2.9,2.9,0,0,0-1.53,1.23,2.68,2.68,0,0,0-.23,1.68,17.36,17.36,0,0,0,.69,2.59,14.51,14.51,0,0,0,1,2.44,1.38,1.38,0,0,0,.93.78A3.58,3.58,0,0,0,99.1,65.29Z" style="fill:#e3cafd"/><path d="M107.75,58.42l0,.46,0,.74q.33,3.18,3.5,2.85a2.71,2.71,0,0,0,1.82-.77,2.11,2.11,0,0,0,.45-1.64c0-.1-.05-.29-.12-.56a7,7,0,0,1,1-.18,6,6,0,0,1,.62,0l.38,0a2.5,2.5,0,0,0,.51-.06,15.43,15.43,0,0,1,.14,2.34,4.53,4.53,0,0,1-.45,1.73,2.71,2.71,0,0,1-1.52,1.15,10.42,10.42,0,0,1-2.5.56c-.42,0-.81.06-1.16.07a3.09,3.09,0,0,1-.68,0,3.79,3.79,0,0,1-3.19-2.21,11.61,11.61,0,0,1-1.3-4.92c0-.14,0-.43,0-.87s0-.89,0-1.36a5.57,5.57,0,0,1,.21-1.39,3.49,3.49,0,0,1,1.61-1.93,6.66,6.66,0,0,1,2.82-.91,8,8,0,0,1,1.76,0q3.59.23,4.07,4.88,0,.39.06,1.11A18.25,18.25,0,0,1,113,58l-1.24.15c-1.37.14-2.38.23-3,.27A4.67,4.67,0,0,1,107.75,58.42Zm6.11-2.58a3.78,3.78,0,0,0-.57-1.52,2.93,2.93,0,0,0-1.2-1.09,3.25,3.25,0,0,0-.7-.16,4.91,4.91,0,0,0-.73,0,3.4,3.4,0,0,0-2.33.94,3.28,3.28,0,0,0-.69,2.06c0,.21,0,.35,0,.42a.41.41,0,0,0,.34.38,5.49,5.49,0,0,0,1.3,0c.64-.06,1.18-.13,1.63-.19,1.66-.17,2.6-.28,2.8-.32a.26.26,0,0,0,.16-.08s0-.08,0-.15Z" style="fill:#e3cafd"/><path d="M121.27,51.64c0,.2,0,.36,0,.47s0,.25,0,.4a4.69,4.69,0,0,1,.52-.19l.74-.2a7.37,7.37,0,0,1,1.47-.18c.57,0,1.07,0,1.53,0a1.83,1.83,0,0,1,.62.1l-.2,2.13a5.78,5.78,0,0,0,0,.77,8.27,8.27,0,0,0-.87-.35,5.6,5.6,0,0,0-1.23-.23,7,7,0,0,0-1.61.08,1.65,1.65,0,0,0-1,.46,2.37,2.37,0,0,0-.34,1.34q-.18,3.52-.53,8v.1a4.7,4.7,0,0,1-.92,0l-.58-.06a7.52,7.52,0,0,0-.82,0l.32-4.42c.13-2,.23-3.53.31-4.54q.11-1.23.36-3.9a3.31,3.31,0,0,0,.56.06l.54,0c.21,0,.48,0,.83,0S121.28,51.6,121.27,51.64Z" style="fill:#e3cafd"/><path d="M138,54.67a14.7,14.7,0,0,1,1.47.47l.64.23A4.64,4.64,0,0,1,140,56l-.07.25c-.12.37-.29.94-.5,1.7s-.42,1.56-.73,2.79L138,63.5c-.33,1.19-.67,2.26-1,3.22,0,0,0,.16-.09.32a1.93,1.93,0,0,1-.17.43.35.35,0,0,1-.35.17l-.43-.12-.79-.25a2,2,0,0,0-.36-.07l-.29,0c-.15-.1-.18-.31-.09-.62a1.66,1.66,0,0,1,.13-.44,3.35,3.35,0,0,0,.16-.41,3.3,3.3,0,0,1-2.22.58,12.54,12.54,0,0,1-2.65-.42A2.65,2.65,0,0,1,128,64.21a7,7,0,0,1-.52-2.94,12,12,0,0,1,.44-3.11,7.58,7.58,0,0,1,1.36-2.74,5.24,5.24,0,0,1,2.09-1.62,3.73,3.73,0,0,1,2.37-.18l.81.2a6,6,0,0,1,1.8.79,2,2,0,0,1,.83,1.26,3.73,3.73,0,0,1,.21-.56c.12-.32.2-.55.24-.68S137.79,54.61,138,54.67Zm-3.44,1.45a3.52,3.52,0,0,0-2.38,0,2.83,2.83,0,0,0-1.55,1.31,7.79,7.79,0,0,0-.74,1.88q-1,4,2.2,4.73a3.15,3.15,0,0,0,2,.07,2,2,0,0,0,1.07-1.06,16.38,16.38,0,0,0,.83-2.41,15.36,15.36,0,0,0,.55-2.56,1.4,1.4,0,0,0-.36-1.18A4.27,4.27,0,0,0,134.57,56.12Z" style="fill:#e3cafd"/><path d="M150.25,54.84l-1.81,3.49-.64,1.3q1.53.73,3.81,1.77a1.32,1.32,0,0,1-.22.76l-.29.51a4.09,4.09,0,0,0-.4.72c-1.69-.87-2.94-1.53-3.77-2l-1.81,3.49-.4.78c-.36.68-.6,1.18-.72,1.48a3,3,0,0,0-.2.85,2.43,2.43,0,0,0,1.2,1.35,15,15,0,0,0,2,1.13c-.24.65-.4,1.06-.49,1.23a3.29,3.29,0,0,1-.54.76c-.33-.15-.85-.41-1.54-.77a8.39,8.39,0,0,1-2.6-1.9,2.54,2.54,0,0,1-.4-2.41,61.61,61.61,0,0,1,2.74-5.91l.57-1.1a6.13,6.13,0,0,1-.7-.33l-1.75-.94,1-1.84c.32.21,1.13.65,2.41,1.31L147,56.18l.56-1.07c.33-.64.58-1.08.74-1.33a10.44,10.44,0,0,1,1,.54l.62.35A2,2,0,0,0,150.25,54.84Z" style="fill:#e3cafd"/><path d="M152.81,77.81c.19-.27.35-.48.48-.65a4.17,4.17,0,0,0,.33-.45l-.5,0a3.44,3.44,0,0,1-1.19-.39,9,9,0,0,1-2.64-1.43,3.41,3.41,0,0,1-1.4-2.13,1.93,1.93,0,0,1,.39-1.35c.33-.52.9-1.31,1.73-2.36l.5-.62c.33-.41.84-1,1.51-1.79s1.32-1.51,1.9-2.23q.42-.53,1-1.32a11.26,11.26,0,0,1,1,.76l.67.54a15.84,15.84,0,0,1-1.08,1.47l-1.33,1.61c-.43.53-.74.93-.92,1.18l-.43.58c-.39.48-.82,1-1.3,1.73a2.66,2.66,0,0,0-.53,1.22,1.48,1.48,0,0,0,.33,1,7,7,0,0,0,.7.66,3.15,3.15,0,0,0,2.36.84,3.05,3.05,0,0,0,2.06-1.21c.41-.47,1.09-1.36,2.06-2.67.49-.66.81-1.1,1-1.3.3-.36.72-.86,1.29-1.51l.06-.08a4.6,4.6,0,0,1,.7.4l.38.27c.28.23.53.42.74.57l-2.75,3.46Q158,75,157.1,76.18c-.52.64-1.35,1.64-2.49,3a11.11,11.11,0,0,0-1.05-.74,2.43,2.43,0,0,0-.27-.19A2.19,2.19,0,0,1,153,78C152.82,77.92,152.77,77.85,152.81,77.81Z" style="fill:#e3cafd"/><path d="M167,74.08a3.07,3.07,0,0,0-.35.32l-.3.26a5.15,5.15,0,0,1,.51.24l.66.38a6.63,6.63,0,0,1,1.16.92,14.7,14.7,0,0,1,1.05,1.1c.27.32.4.49.37.51l-1.65,1.36c-.26.23-.45.4-.57.52a8,8,0,0,0-.36-.86,5.77,5.77,0,0,0-.71-1,7.48,7.48,0,0,0-1.18-1.09,1.66,1.66,0,0,0-1.06-.4,2.35,2.35,0,0,0-1.19.7q-2.62,2.35-6,5.25l-.07.07a3.63,3.63,0,0,1-.67-.63c-.08-.09-.21-.24-.37-.45a8,8,0,0,0-.54-.62l3.35-2.89c1.53-1.33,2.67-2.33,3.44-3s1.64-1.36,3-2.49c.1.14.22.29.35.44s.26.28.36.4a8.23,8.23,0,0,1,.56.62C167,73.94,167,74.06,167,74.08Z" style="fill:#e3cafd"/><path d="M167.93,85.67l-.4.22-.66.35c-1.86,1-2.26,2.49-1.22,4.34a2.68,2.68,0,0,0,1.43,1.36,2,2,0,0,0,1.68-.24c.09,0,.25-.16.47-.32a8.94,8.94,0,0,1,.57.84c.13.25.23.43.28.56a3.56,3.56,0,0,1,.17.34,4.81,4.81,0,0,0,.27.44,15.56,15.56,0,0,1-2.09,1,4.36,4.36,0,0,1-1.77.28A2.67,2.67,0,0,1,165,94a9.87,9.87,0,0,1-1.51-2.07c-.2-.36-.38-.71-.52-1a3,3,0,0,1-.24-.63,3.79,3.79,0,0,1,.76-3.82,11.59,11.59,0,0,1,4-3.15l.79-.35c.39-.19.81-.37,1.24-.54a5.36,5.36,0,0,1,1.36-.36,3.43,3.43,0,0,1,2.41.71,6.52,6.52,0,0,1,2,2.22,7.44,7.44,0,0,1,.68,1.62q1.23,3.39-2.85,5.68c-.23.13-.56.29-1,.5a17.12,17.12,0,0,1-1.66-2.42c-.11-.16-.32-.52-.64-1.08-.67-1.2-1.16-2.09-1.45-2.68A4.42,4.42,0,0,1,167.93,85.67Zm4.8,4.57a3.74,3.74,0,0,0,1.16-1.12,2.88,2.88,0,0,0,.53-1.54,3.51,3.51,0,0,0-.13-.7,4.29,4.29,0,0,0-.32-.66,2.81,2.81,0,0,0-4-1.58,3.92,3.92,0,0,0-.38.16.4.4,0,0,0-.21.46,5.22,5.22,0,0,0,.54,1.18c.32.56.59,1,.83,1.42.82,1.45,1.29,2.27,1.41,2.44a.29.29,0,0,0,.14.12.18.18,0,0,0,.14,0Z" style="fill:#e3cafd"/></g><circle id="Pointer_Dial" data-name="Pointer Dial" cx="117" cy="117" r="15.01" style="fill:#e3cafd"/></g></svg>