<svg id="Water_Button_-_hover" data-name="Water Button - hover" xmlns="http://www.w3.org/2000/svg" xmlns:xlink="http://www.w3.org/1999/xlink" viewBox="0 0 307 318"><defs><radialGradient id="radial-gradient" cx="241.16" cy="144.29" r="15.38" gradientTransform="translate(-25.49 29.4) scale(0.95 1.11)" gradientUnits="userSpaceOnUse"><stop offset="0" stop-color="#fff" stop-opacity="0"/><stop offset="1" stop-color="#136999"/></radialGradient><linearGradient id="linear-gradient" x1="202.63" y1="192.95" x2="202.63" y2="68.73" gradientUnits="userSpaceOnUse"><stop offset="0" stop-color="#61e9ff"/><stop offset="1" stop-color="#61e9ff" stop-opacity="0"/></linearGradient><linearGradient id="linear-gradient-2" x1="202.63" y1="192.95" x2="202.63" y2="67.11" gradientUnits="userSpaceOnUse"><stop offset="0" stop-color="#136999"/><stop offset="0.05" stop-color="#1f719e" stop-opacity="0.95"/><stop offset="0.13" stop-color="#4085ac" stop-opacity="0.81"/><stop offset="0.23" stop-color="#75a7c3" stop-opacity="0.58"/><stop offset="0.34" stop-color="#bed6e3" stop-opacity="0.27"/><stop offset="0.42" stop-color="#fff" stop-opacity="0"/><stop offset="1" stop-color="#136999" stop-opacity="0.9"/></linearGradient><linearGradient id="linear-gradient-3" x1="176.16" y1="130.03" x2="229.09" y2="130.03" gradientUnits="userSpaceOnUse"><stop offset="0.42" stop-color="#fff" stop-opacity="0"/><stop offset="1" stop-color="#136999" stop-opacity="0.7"/></linearGradient><linearGradient id="linear-gradient-4" x1="204.81" y1="62.1" x2="208.13" y2="62.1" gradientUnits="userSpaceOnUse"><stop offset="0" stop-color="#fff" stop-opacity="0"/><stop offset="0.77" stop-color="#fff"/></linearGradient><linearGradient id="linear-gradient-5" x1="204.05" y1="175.31" x2="225.67" y2="175.31" xlink:href="#linear-gradient-4"/><linearGradient id="linear-gradient-6" x1="205.71" y1="76.67" x2="224.45" y2="76.67" xlink:href="#linear-gradient-4"/><linearGradient id="linear-gradient-7" x1="203.99" y1="122.82" x2="223.9" y2="122.82" xlink:href="#linear-gradient-4"/><linearGradient id="linear-gradient-8" x1="206.99" y1="143.34" x2="222.95" y2="143.34" xlink:href="#linear-gradient-4"/><linearGradient id="linear-gradient-9" x1="175.4" y1="103.78" x2="230.65" y2="103.78" gradientUnits="userSpaceOnUse"><stop offset="0" stop-opacity="0"/><stop offset="0.02" stop-color="#2f2f2f" stop-opacity="0.19"/><stop offset="0.05" stop-color="#666" stop-opacity="0.4"/><stop offset="0.08" stop-color="#959595" stop-opacity="0.58"/><stop offset="0.11" stop-color="#bbb" stop-opacity="0.73"/><stop offset="0.13" stop-color="#d9d9d9" stop-opacity="0.85"/><stop offset="0.16" stop-color="#eee" stop-opacity="0.93"/><stop offset="0.19" stop-color="#fbfbfb" stop-opacity="0.98"/><stop offset="0.21" stop-color="#fff"/><stop offset="0.22" stop-color="#fff" stop-opacity="0.95"/><stop offset="0.34" stop-color="#fff" stop-opacity="0.55"/><stop offset="0.42" stop-color="#fff" stop-opacity="0.25"/><stop offset="0.49" stop-color="#fff" stop-opacity="0.07"/><stop offset="0.52" stop-color="#fff" stop-opacity="0"/><stop offset="0.68" stop-color="#fff" stop-opacity="0.34"/><stop offset="0.83" stop-color="#fff" stop-opacity="0.7"/><stop offset="0.85" stop-color="#f8f8f8" stop-opacity="0.68"/><stop offset="0.88" stop-color="#e2e2e2" stop-opacity="0.62"/><stop offset="0.91" stop-color="#bfbfbf" stop-opacity="0.52"/><stop offset="0.94" stop-color="#8d8d8d" stop-opacity="0.39"/><stop offset="0.97" stop-color="#4d4d4d" stop-opacity="0.21"/><stop offset="1" stop-color="#010101" stop-opacity="0"/><stop offset="1" stop-opacity="0"/></linearGradient><radialGradient id="radial-gradient-2" cx="139.54" cy="153.53" r="15.38" xlink:href="#radial-gradient"/><linearGradient id="linear-gradient-10" x1="106.57" y1="203.17" x2="106.57" y2="78.94" xlink:href="#linear-gradient"/><linearGradient id="linear-gradient-11" x1="106.57" y1="203.17" x2="106.57" y2="77.33" xlink:href="#linear-gradient-2"/><linearGradient id="linear-gradient-12" x1="80.11" y1="140.25" x2="133.04" y2="140.25" xlink:href="#linear-gradient-3"/><linearGradient id="linear-gradient-13" x1="108.75" y1="72.32" x2="112.08" y2="72.32" xlink:href="#linear-gradient-4"/><linearGradient id="linear-gradient-14" x1="108" y1="185.53" x2="129.62" y2="185.53" xlink:href="#linear-gradient-4"/><linearGradient id="linear-gradient-15" x1="109.66" y1="86.89" x2="128.4" y2="86.89" xlink:href="#linear-gradient-4"/><linearGradient id="linear-gradient-16" x1="107.93" y1="133.04" x2="127.85" y2="133.04" xlink:href="#linear-gradient-4"/><linearGradient id="linear-gradient-17" x1="110.93" y1="153.56" x2="126.9" y2="153.56" xlink:href="#linear-gradient-4"/><linearGradient id="linear-gradient-18" x1="79.35" y1="114" x2="134.59" y2="114" xlink:href="#linear-gradient-9"/></defs><title>Water Button press</title><path id="Button_Back_2" data-name="Button Back 2" d="M303,301.87c6.08-100.33,8.43-203.72-19.2-301.44-96.7,4-188.44,10.76-265,21.2C6.81,108.6,1.1,210.29.17,309.35,114.51,322.78,215.55,319,303,301.87Z" style="fill:#f97216;fill-rule:evenodd"/><path id="Button_Back_1" data-name="Button Back 1" d="M286,291.87c6.08-100.33,15.43-176.72-12.2-274.44-96.7,4-161.44,3.76-238,14.2-12,87-24.69,161.66-25.62,260.72C124.51,305.78,198.55,309,286,291.87Z" style="fill:#f9bb96;fill-rule:evenodd"/><g id="Content"><path id="Backdrop" d="M153.52,192.24c-36.46-46.65-122.43-73-75.79-109.49a107.2,107.2,0,1,1,132,168.92C163.13,288.14,190,238.88,153.52,192.24Z" style="fill:#fff;opacity:0.2"/><path id="Label_Back" data-name="Label Back" d="M94,239.13a274.54,274.54,0,0,1,58.83-11.08,306.25,306.25,0,0,1,60.38,1.43l-12,58.83a251,251,0,0,0-48.56-10,228.53,228.53,0,0,0-50.07.37Z" style="fill:#f97216"/><g id="Label"><path d="M130.91,242l0,0q-.31,3.75-1.09,11.24-.13,1.58-.54,5.61c-.27,2.7-.5,5.14-.68,7.34a2.34,2.34,0,0,1-.67.07h-2.2a9.57,9.57,0,0,1-.76-2c-.2-.75-.42-1.7-.68-2.87-.07-.33-.16-.72-.26-1.17s-.23-1-.37-1.52h0l-.88,3.67c-.19.84-.37,1.62-.54,2.33a6.46,6.46,0,0,1-.47,1.42,10.69,10.69,0,0,1-1.72.17,10.56,10.56,0,0,1-1.33-.1h0l-.42-2.91q-1-6.72-1.51-11.6t-.63-9.64v0c.37,0,.93-.09,1.68-.14.49,0,1.09,0,1.79.07.07.68.14,2.1.21,4.27q.24,5.35.5,8.86a31.76,31.76,0,0,0,.79,5.46c.35-1.24.67-2.46,1-3.66s.7-3.11,1.26-5.72l0-.14a46.93,46.93,0,0,1,1.54,5.18c.54,2,.83,3.07.88,3.18a10.8,10.8,0,0,0,.42,1.37q.48-5.35.75-9.8c.17-3,.27-4.67.3-5.11.07-1.78.14-3,.21-3.75v0a6.72,6.72,0,0,1,1.61-.18C129.52,241.87,130.14,241.91,130.91,242Z" style="fill:#fff"/><path d="M144.25,248.8a17.62,17.62,0,0,1,2.06.07l.91.07a6.76,6.76,0,0,1,.07.84v.35c0,.54,0,1.34,0,2.42,0,.88,0,2.19.07,3.92l0,3.92c0,1.68-.05,3.21-.14,4.58v.46a2.48,2.48,0,0,1-.07.63.47.47,0,0,1-.38.35h-.6l-1.12,0a2.37,2.37,0,0,0-.49,0l-.38,0c-.24-.07-.35-.33-.35-.77a2.24,2.24,0,0,1,0-.63,3.56,3.56,0,0,0,.06-.59,4.35,4.35,0,0,1-2.66,1.57,15.93,15.93,0,0,1-3.57.42,3.51,3.51,0,0,1-2.86-1.49,9.74,9.74,0,0,1-1.73-3.65,17.11,17.11,0,0,1-.56-4.24,10.46,10.46,0,0,1,.77-4.09,7.06,7.06,0,0,1,2.12-2.89,4.86,4.86,0,0,1,3-1.1l1.12,0a7.76,7.76,0,0,1,2.61.37,2.59,2.59,0,0,1,1.52,1.35,5.52,5.52,0,0,1,.07-.81c.05-.46.07-.79.07-1S143.94,248.8,144.25,248.8ZM140.33,252a4.74,4.74,0,0,0-3.07.93,3.87,3.87,0,0,0-1.52,2.29,10.53,10.53,0,0,0-.28,2.73c.12,3.76,1.63,5.56,4.55,5.39a4.23,4.23,0,0,0,2.59-.63,2.72,2.72,0,0,0,1-1.78,22.82,22.82,0,0,0,.19-3.47,20.4,20.4,0,0,0-.21-3.55,2,2,0,0,0-.89-1.42A5.9,5.9,0,0,0,140.33,252Z" style="fill:#fff"/><path d="M156.46,242.4v5.35l0,2c1.51,0,3.39-.13,5.63-.24a1.83,1.83,0,0,1,.21,1.05l0,.8a6.77,6.77,0,0,0,0,1.12q-3.81,0-5.7,0V259c0,1.05,0,1.8.07,2.24a3.8,3.8,0,0,0,.28,1.16,3.29,3.29,0,0,0,2.25.87,21,21,0,0,0,3.1.11c.12.93.18,1.52.18,1.78a4.57,4.57,0,0,1-.18,1.26c-.49,0-1.26,0-2.31,0a11.11,11.11,0,0,1-4.27-.67,3.42,3.42,0,0,1-2-2.66,81,81,0,0,1-.38-8.85v-1.68a10.48,10.48,0,0,1-1,0l-2.66,0,.1-2.87c.51,0,1.74.07,3.68.07l0-3.68v-1.64a19.67,19.67,0,0,1,.07-2.07,12.16,12.16,0,0,1,1.51,0l.94,0A3.69,3.69,0,0,0,156.46,242.4Z" style="fill:#fff"/><path d="M167.31,257.52v.63l0,1c0,2.9,1.42,4.34,4.27,4.34a3.52,3.52,0,0,0,2.53-.79,2.82,2.82,0,0,0,.83-2.15c0-.14,0-.39-.07-.77a9.58,9.58,0,0,1,1.36-.1q.56,0,.84,0l.51,0a5.45,5.45,0,0,0,.68,0,20.55,20.55,0,0,1-.14,3.19,6.08,6.08,0,0,1-.84,2.27,3.58,3.58,0,0,1-2.19,1.35,13.52,13.52,0,0,1-3.41.4,15.17,15.17,0,0,1-1.56-.07,4.43,4.43,0,0,1-.89-.14,5.07,5.07,0,0,1-3.95-3.45,15.85,15.85,0,0,1-1.05-6.84c0-.19.05-.58.1-1.17s.11-1.21.19-1.84a7.53,7.53,0,0,1,.48-1.85,4.66,4.66,0,0,1,2.41-2.38,8.87,8.87,0,0,1,3.89-.84,10.36,10.36,0,0,1,2.34.28c3.17.53,4.76,2.93,4.76,7.17,0,.35,0,.85-.07,1.51a23.84,23.84,0,0,1-3.92.35q-.39,0-1.68,0c-1.84,0-3.21,0-4.09-.07A5.89,5.89,0,0,1,167.31,257.52Zm8.51-2.63a5.34,5.34,0,0,0-.55-2.13,3.94,3.94,0,0,0-1.45-1.65,3.62,3.62,0,0,0-.91-.31,5.33,5.33,0,0,0-1-.07,3.76,3.76,0,0,0-4.44,3.64,3.66,3.66,0,0,0-.07.56.55.55,0,0,0,.4.56,6.72,6.72,0,0,0,1.73.14c.86,0,1.6,0,2.21,0q3.36,0,3.78,0a.59.59,0,0,0,.22-.09.25.25,0,0,0,.06-.19Z" style="fill:#fff"/><path d="M184.14,249c0,.28,0,.49,0,.64s0,.34,0,.55a5,5,0,0,1,.68-.32c.29-.12.62-.23,1-.35a8.46,8.46,0,0,1,1.94-.4,19.72,19.72,0,0,1,2-.12c.55,0,.84,0,.84.07l0,2.9a9.14,9.14,0,0,0,0,1.05,9.29,9.29,0,0,0-1.19-.38,7.46,7.46,0,0,0-1.68-.18,9.26,9.26,0,0,0-2.14.28,2.27,2.27,0,0,0-1.33.74,3.23,3.23,0,0,0-.31,1.85q.13,4.8.13,10.89v.14a5.43,5.43,0,0,1-1.22.14l-.79,0a10.14,10.14,0,0,0-1.1,0l0-6c-.05-2.76-.07-4.82-.07-6.2,0-1.12,0-2.89.07-5.32a4.57,4.57,0,0,0,.75,0l.72,0q.42,0,1.11,0C184,248.91,184.14,248.93,184.14,249Z" style="fill:#fff"/></g><g id="Water_Bottle_2" data-name="Water Bottle 2"><path d="M225.57,186.86c-4.18,5-11.18,6.09-22.88,6.09-10.67,0-20.69-2.28-23.71-7s-3-17.49-2.7-20.54,2.91-14.51,3.45-20,1.69-18-.6-20.45-2-25.14-2-35.74c0-14.7,18.91-24.92,18.91-26.05,0-.81.14-3.78.14-4.94l13.65-.45V63c0,1.14,18.29,11,18.29,26.14,0,11.09.61,31.87-2,34.7s-1.38,15.4-.9,20.34,3.44,17.43,3.7,20.9C229.15,168.13,229.75,181.85,225.57,186.86Z" style="fill:#fff;opacity:0.2"/><path d="M222.72,189c0,2.26-6.7,4.08-19.86,4.08s-20.65-1.82-20.65-4.08S189.7,185,202.86,185,222.72,186.78,222.72,189Z" style="stroke:#136999;stroke-miterlimit:10;stroke-width:1.49603265829128px;fill:url(#radial-gradient)"/><path d="M225.57,186.86c-4.18,5-11.18,6.09-22.88,6.09-10.67,0-20.69-2.28-23.71-7s-3-17.49-2.7-20.54,2.91-14.51,3.45-20,1.69-18-.6-20.45-2-25.14-2-35.74c0-14.7,10.92-18.11,10.92-19.24,0-.81,9.44,1,9.44-.14l7.28-1.07c0,.83,12.81.81,12.81,1.48,0,1.14,10.54,3.79,10.54,19,0,11.09.61,31.87-2,34.7s-1.38,15.4-.9,20.34,3.44,17.43,3.7,20.9C229.15,168.13,229.75,181.85,225.57,186.86Z" style="opacity:0.5;fill:url(#linear-gradient)"/><path d="M191.78,67.26c4.88,2.42,16.47,2.46,22.19.11" style="fill:none;stroke:#545454;stroke-miterlimit:10;stroke-width:0.80000259148066px;opacity:0.7000000000000001"/><path d="M194.6,65.91,196,63.6a100.33,100.33,0,0,0,14.32.11l.5,1.89C209.08,64,197.35,63.92,194.6,65.91Z" style="fill:#136999"/><path d="M225.57,186.86c-4.18,5-11.18,6.09-22.88,6.09-10.67,0-20.69-2.28-23.71-7s-3-17.49-2.7-20.54,2.91-14.51,3.45-20,1.69-18-.6-20.45-2-25.14-2-35.74c0-11.86,13.07-21,14.2-22.07,6.4,3,17.85,2.44,22.94.08,1.13,1.07,13.85,8.09,13.85,22,0,11.09.61,31.87-2,34.7s-1.38,15.4-.9,20.34,3.44,17.43,3.7,20.9C229.15,168.13,229.75,181.85,225.57,186.86Z" style="opacity:0.5;fill:url(#linear-gradient-2)"/><path d="M225.57,186.86c-4.18,5-11.18,6.09-22.88,6.09-10.67,0-20.69-2.28-23.71-7s-3-17.49-2.7-20.54,2.91-14.51,3.45-20,1.69-18-.6-20.45-2-25.14-2-35.74c0-11.86,13.07-21,14.2-22.07,6.4,3,17.85,2.44,22.94.08,1.13,1.07,13.85,8.09,13.85,22,0,11.09.61,31.87-2,34.7s-1.38,15.4-.9,20.34,3.44,17.43,3.7,20.9C229.15,168.13,229.75,181.85,225.57,186.86Z" style="opacity:0.5;fill:url(#linear-gradient-3)"/><path d="M231.3,166.53c-.3-3.58-3.22-16.3-3.76-21.41s-2.2-18.62.72-21.54,2.34-22.21,2.34-33.68c0-15.69-19.46-25.76-19.46-26.94V58.83l-16.2-.2V63c0,1.17-19.36,11.25-19.36,26.46,0,11-1,33.07,1.6,35.63s1.41,15.31.81,21-3.2,17.4-3.49,20.49.05,16.83,3.43,21.74,13,7.36,25,7.36c13.1,0,20.28-2.18,25-7.36S231.56,169.65,231.3,166.53Zm-6.63,18.68c-4.11,4.93-10.49,6.55-22,6.55-10.47,0-19.63-2.4-22.6-7.07s-2.7-16.92-2.44-19.91,2.74-14.3,3.27-19.69,1.81-17.78-.44-20.21-2.12-24.82-2.12-35.23c0-14.44,18.26-24.38,18.26-25.49,0-.79.14-3.71.14-4.85l12.37-.4v5.21c0,1.12,17.75,10.63,17.75,25.53,0,10.9.5,31-2.07,33.8s-1.22,15.83-.74,20.69,2.85,16.88,3.12,20.28C227.4,167.38,228.77,180.29,224.67,185.21Z" style="fill:#136999"/><path d="M196.11,65.82a53.1,53.1,0,0,0-11.23,11.36c-3.57,4.89-4.34,9.91-3.91,10a36.49,36.49,0,0,0,8.51.78c1.42,0-.4-3.36,2.06-10.79,1.15-3.46,4.28-8.19,8.06-12C199.87,64.89,196.68,65.43,196.11,65.82Z" style="fill:#fff;opacity:0.5"/><path d="M220.9,128.4c-6.67,2.75-31.21,3.08-37.12,0-.93-.49-1.75-3.39,0-2.78,7.9,2.76,28.57,2.43,37.12,0C223,125,222.77,127.62,220.9,128.4Z" style="fill:#136999;opacity:0.30000000000000004"/><path d="M182,119.27c-.32-.11.24,3.9.64,4.47s6.15,1.73,7.76,1.73c.58,0,1.13-5.29.52-5.29A66.16,66.16,0,0,1,182,119.27Z" style="fill:#fff;opacity:0.5"/><path d="M198,60.5c-.33-.11-.35,2.84-.08,2.89a9,9,0,0,0,2.33.13c.26,0,.48-2.84.1-2.84A9.19,9.19,0,0,1,198,60.5Z" style="fill:#fff;opacity:0.5"/><path d="M204.91,60.72c-.34,0,.25,2.69.52,2.74a5.6,5.6,0,0,0,2.6-.1,12.29,12.29,0,0,0,.08-2.68C208.11,60.57,206.17,60.77,204.91,60.72Z" style="opacity:0.6000000000000001;fill:url(#linear-gradient-4)"/><path d="M183.9,131.1c.4,5-1.33,18.37-1.85,21.21-.13.72,4.41,2.26,6,2.26.58,0,2.79-22.81,2.17-22.81C187.29,131.76,183.87,130.75,183.9,131.1Z" style="fill:#fff;opacity:0.5"/><path d="M180.87,159.21a28.79,28.79,0,0,0-1.34,7.73,53.58,53.58,0,0,0,1.35,13.66c.92,4.3,8.7,8.83,8,6.11a57.8,57.8,0,0,1-1.9-16.8c0-2.45,1-8.11.15-8.32C182.56,160.46,181.24,158.32,180.87,159.21Z" style="fill:#fff;opacity:0.5"/><path d="M221.39,155.39a66.57,66.57,0,0,1-37.3-.23c-1.57-.46-3.53,1.7-1.91,2.62,8.8,5.05,31,4.82,41.37.31C225.53,157.23,224.17,154.59,221.39,155.39Z" style="fill:#136999;opacity:0.2"/><path d="M223.77,160.6c2.5-.7,2.44,16.93.35,21.63-2.53,5.71-10.22,7.32-18.54,7.81-2.81.17-1.46-26.8,1.72-26.93A88.25,88.25,0,0,0,223.77,160.6Z" style="opacity:0.6000000000000001;fill:url(#linear-gradient-5)"/><path d="M209.56,65.84c3.32,2.62,10,7.3,13,14.25,1,2.38,2.65,6.92,1.58,7.11-4.53.79-13.56,1.17-16.81.71-1.11-.15.39-5.76,0-9.87-.3-3.06-1-9.83-1.58-12.4C205.59,65.12,208.53,65,209.56,65.84Z" style="opacity:0.6000000000000001;fill:url(#linear-gradient-6)"/><path d="M223.57,119.53c.88-.11-.21,3.16-.84,4.11-.41.61-4.64,1.37-7.91,1.79a57.81,57.81,0,0,1-9.77.64c-1.3-.09-1.3-4.91-.59-4.87C211.77,121.61,222.61,119.65,223.57,119.53Z" style="opacity:0.6000000000000001;fill:url(#linear-gradient-7)"/><path d="M221.27,131c-.49,6.66,1.43,21.22,1.68,22.19s-9.47,3.4-12.68,2.7c-2.75-.59-4.67-24.31-2-24C214.25,132.65,221.35,129.88,221.27,131Z" style="opacity:0.6000000000000001;fill:url(#linear-gradient-8)"/><path d="M212.43,59.76a93.72,93.72,0,0,1-19,0,.86.86,0,0,1-.77-.88,40.35,40.35,0,0,1,.14-4.37c.18-.77.72-4.41.72-4.41a1.72,1.72,0,0,1,1.61-1.66,129.81,129.81,0,0,1,15.78,0,1.72,1.72,0,0,1,1.63,1.68s.41,3.48.59,4a43.79,43.79,0,0,1,.1,4.72A.87.87,0,0,1,212.43,59.76Z" style="fill:#1a64ad"/><path d="M210.79,57.46a89.22,89.22,0,0,1-16.22.24l0-3.1.49-4.56a110.55,110.55,0,0,1,15.09.09l.56,4.42Z" style="fill:#347bb7"/><path d="M203.67,49.85c-2.54-.06-4.91,0-7.72.13v6.8a68.93,68.93,0,0,0,7.72.1Z" style="fill:#4d99ce"/><path d="M200.79,49.82l-2.8.06v7c.94,0,1.88.06,2.8,0Z" style="fill:#6ab3db"/><path d="M210.73,54.55l-.56-4.42L209,50.06v6.5l1.81-.14Z" style="fill:#4d99ce"/><path d="M194.57,57.7a89.22,89.22,0,0,0,16.22-.24l-.06-2.82H194.59Z" style="fill:#347bb7"/><path d="M209,56.22,209,57.39c0,.08,0,.14,0,.2l1.83-.13,0-2.4h-.58C209.06,55.06,209,54.87,209,56.22Z" style="fill:#4d99ce"/><path d="M202,58s0-.08,0-.13l-.12-1.5c0-.64-.4-1.11-1.59-1.11h-1.66a1.16,1.16,0,0,0-1.16,1.16l-.05,1.17c0,.14,0,.24,0,.34C199,58,200.45,58,202,58Z" style="fill:#80c6e5"/><path d="M202.15,118.34c-11.73,0-21.56-1.13-25.5-2.89l0-25.88c5,1,16.5,1.47,26.57,1.47,9.48,0,20.85-.41,26.15-1.51l-.33,25.92C224.15,117.21,213.74,118.34,202.15,118.34Z" style="fill:#b6f8ff"/><path d="M203.87,112c7.76,2.66,17,.54,25.42-3.68l-.23,7.33c-5.91,1.67-16.31,2.68-25.78,2.68-10.07,0-21.25-.65-26.2-2.62l-.41-12.76C186.35,99.48,193.91,108.59,203.87,112Z" style="fill:#79d8e2"/><path d="M197.86,106c-6.86-2.83-12.59-10-21.2-8.71l.12-7.36c4.24.36,13.51,1,25.24,1s22-.48,27-1.19l.13,10.25C219.5,108.09,207.08,109.8,197.86,106Z" style="fill:#1ab1c1"/><path d="M230.6,89.9a16.56,16.56,0,0,0-.09-1.73h0l-.78.21-.29.06-.72.15-.13,0c-5.07.93-15.19,1.36-25.31,1.36-9.86,0-19.72-.41-24.9-1.18h0a19.81,19.81,0,0,1-2.7-.56h-.05c0,.4,0,.81,0,1.22,0,7-.39,18.58,0,26.69h0c4,2.2,15.15,3.3,26.57,3.3,10.92,0,22.08-1,27.5-3l.5-.18C230.86,108.77,230.6,97.59,230.6,89.9Zm-51.81,25.17c-.46-7.52-.44-17.61-.44-24.14,6,.86,16.48,1.18,24.93,1.18,4.13,0,16.16-.09,23.59-1.07,0,7,.17,17-.34,24-5.36,1.35-14.4,2.17-24.38,2.17S183.35,116.41,178.79,115.07Z" style="fill:#0092aa"/><g style="opacity:0.45"><path d="M230.6,89.9a16.56,16.56,0,0,0-.09-1.73h0l-.79.21-.29.06-.75.16-.13,0c-10.07,1.82-39.69,1.73-50.17.17h0a21.67,21.67,0,0,1-2.49-.5l-.26-.07h0c0,.4,0,.81,0,1.22,0,7-.39,18.58,0,26.69h0c7.81,4.29,42.93,4.4,54,.28.18-.06.36-.12.52-.19C230.86,108.77,230.6,97.59,230.6,89.9Z" style="fill:url(#linear-gradient-9)"/></g></g><g id="Water_Bottle_1" data-name="Water Bottle 1"><path d="M129.52,197.08c-4.18,5-11.19,6.09-22.89,6.09-10.66,0-20.69-2.29-23.7-7s-3-17.49-2.7-20.54,2.91-14.52,3.45-20,1.69-18-.6-20.45-2-25.14-2-35.74C81.08,84.69,100,74.48,100,73.35c0-.81.13-3.78.13-4.95L113.77,68v5.3c0,1.15,18.3,11,18.3,26.15,0,11.09.61,31.87-2,34.69s-1.39,15.41-.9,20.35,3.43,17.43,3.7,20.9C133.1,178.35,133.7,192.07,129.52,197.08Z" style="fill:#fff;opacity:0.2"/><path d="M126.67,199.25c0,2.26-6.71,4.08-19.87,4.08s-20.65-1.82-20.65-4.08,7.49-4.08,20.65-4.08S126.67,197,126.67,199.25Z" style="stroke:#136999;stroke-miterlimit:10;stroke-width:1.49603265829128px;fill:url(#radial-gradient-2)"/><path d="M129.52,197.08c-4.18,5-11.19,6.09-22.89,6.09-10.66,0-20.69-2.29-23.7-7s-3-17.49-2.7-20.54,2.91-14.52,3.45-20,1.69-18-.6-20.45-2-25.14-2-35.74C81.08,84.69,92,81.29,92,80.16c0-.81,9.44,1,9.44-.14l7.29-1.08c0,.84,12.81.82,12.81,1.49,0,1.14,10.54,3.79,10.54,19,0,11.09.61,31.87-2,34.69s-1.39,15.41-.9,20.35,3.43,17.43,3.7,20.9C133.1,178.35,133.7,192.07,129.52,197.08Z" style="opacity:0.5;fill:url(#linear-gradient-10)"/><path d="M95.73,77.48c4.87,2.42,16.46,2.46,22.18.1" style="fill:none;stroke:#545454;stroke-miterlimit:10;stroke-width:0.80000259148066px;opacity:0.7000000000000001"/><path d="M98.54,76.13l1.36-2.31a100.36,100.36,0,0,0,14.32.11l.51,1.89C113,74.16,101.29,74.14,98.54,76.13Z" style="fill:#136999"/><path d="M129.52,197.08c-4.18,5-11.19,6.09-22.89,6.09-10.66,0-20.69-2.29-23.7-7s-3-17.49-2.7-20.54,2.91-14.52,3.45-20,1.69-18-.6-20.45-2-25.14-2-35.74c0-11.86,13.07-21,14.2-22.07,6.4,3,17.85,2.43,22.94.07,1.13,1.08,13.85,8.1,13.85,22,0,11.09.61,31.87-2,34.69s-1.39,15.41-.9,20.35,3.43,17.43,3.7,20.9C133.1,178.35,133.7,192.07,129.52,197.08Z" style="opacity:0.5;fill:url(#linear-gradient-11)"/><path d="M129.52,197.08c-4.18,5-11.19,6.09-22.89,6.09-10.66,0-20.69-2.29-23.7-7s-3-17.49-2.7-20.54,2.91-14.52,3.45-20,1.69-18-.6-20.45-2-25.14-2-35.74c0-11.86,13.07-21,14.2-22.07,6.4,3,17.85,2.43,22.94.07,1.13,1.08,13.85,8.1,13.85,22,0,11.09.61,31.87-2,34.69s-1.39,15.41-.9,20.35,3.43,17.43,3.7,20.9C133.1,178.35,133.7,192.07,129.52,197.08Z" style="opacity:0.5;fill:url(#linear-gradient-12)"/><path d="M135.25,176.75c-.3-3.58-3.22-16.3-3.77-21.41s-2.2-18.62.72-21.55,2.35-22.2,2.35-33.67c0-15.69-19.47-25.76-19.47-26.94V69.05l-16.2-.2v4.33c0,1.17-19.35,11.25-19.35,26.45,0,11-1,33.07,1.6,35.64s1.41,15.31.81,21-3.2,17.41-3.5,20.5.06,16.83,3.44,21.74,13,7.36,25,7.36c13.1,0,20.28-2.18,25-7.36S135.5,179.87,135.25,176.75Zm-6.64,18.68c-4.1,4.92-10.48,6.54-22,6.54-10.48,0-19.64-2.4-22.6-7.06S81.32,178,81.59,175s2.74-14.29,3.27-19.68,1.8-17.78-.45-20.22S82.3,110.28,82.3,99.87c0-14.44,18.26-24.38,18.26-25.49,0-.79.13-3.71.13-4.85l12.38-.4v5.21c0,1.12,17.74,10.62,17.74,25.53,0,10.9.5,31-2.06,33.8s-1.23,15.83-.75,20.69,2.86,16.88,3.12,20.28C131.35,177.6,132.72,190.51,128.61,195.43Z" style="fill:#136999"/><path d="M100.06,76A53.06,53.06,0,0,0,88.83,87.39c-3.57,4.9-4.35,9.92-3.91,10a36.45,36.45,0,0,0,8.5.78c1.43,0-.39-3.36,2.07-10.79,1.15-3.46,4.27-8.19,8.05-12.05C103.81,75.11,100.63,75.64,100.06,76Z" style="fill:#fff;opacity:0.5"/><path d="M124.85,138.61c-6.67,2.76-31.21,3.09-37.12,0-.93-.48-1.75-3.38,0-2.77,7.9,2.76,28.57,2.43,37.12,0C126.93,135.25,126.72,137.84,124.85,138.61Z" style="fill:#136999;opacity:0.30000000000000004"/><path d="M85.94,129.49c-.33-.12.24,3.9.64,4.47s6.14,1.73,7.75,1.73c.59,0,1.14-5.3.53-5.3A66.64,66.64,0,0,1,85.94,129.49Z" style="fill:#fff;opacity:0.5"/><path d="M102,70.72c-.32-.11-.35,2.84-.08,2.89a9.08,9.08,0,0,0,2.34.13c.25,0,.48-2.84.1-2.84A9.8,9.8,0,0,1,102,70.72Z" style="fill:#fff;opacity:0.5"/><path d="M108.86,70.94c-.34,0,.25,2.69.52,2.74a5.6,5.6,0,0,0,2.6-.1,12.29,12.29,0,0,0,.08-2.68C112.05,70.79,110.12,71,108.86,70.94Z" style="opacity:0.6000000000000001;fill:url(#linear-gradient-13)"/><path d="M87.85,141.32c.4,5-1.33,18.37-1.85,21.21-.14.72,4.41,2.26,6,2.26.58,0,2.78-22.81,2.17-22.81C91.23,142,87.82,141,87.85,141.32Z" style="fill:#fff;opacity:0.5"/><path d="M84.82,169.43a28.33,28.33,0,0,0-1.34,7.73,53.62,53.62,0,0,0,1.35,13.66c.91,4.3,8.7,8.83,8,6.11a57.79,57.79,0,0,1-1.89-16.8c0-2.45,1-8.11.14-8.32C86.51,170.68,85.19,168.53,84.82,169.43Z" style="fill:#fff;opacity:0.5"/><path d="M125.34,165.61a66.66,66.66,0,0,1-37.3-.23c-1.57-.47-3.53,1.7-1.92,2.62,8.81,5.05,31,4.82,41.38.31C129.48,167.45,128.11,164.81,125.34,165.61Z" style="fill:#136999;opacity:0.2"/><path d="M127.72,170.82c2.5-.71,2.44,16.93.35,21.63-2.54,5.71-10.23,7.32-18.55,7.81-2.8.17-1.45-26.8,1.73-26.94A88.2,88.2,0,0,0,127.72,170.82Z" style="opacity:0.6000000000000001;fill:url(#linear-gradient-14)"/><path d="M113.51,76.06c3.32,2.62,10,7.3,13,14.25,1,2.38,2.65,6.92,1.58,7.11-4.53.79-13.56,1.16-16.82.71-1.11-.16.4-5.76,0-9.87-.29-3.06-1-9.83-1.57-12.41C109.54,75.34,112.48,75.24,113.51,76.06Z" style="opacity:0.6000000000000001;fill:url(#linear-gradient-15)"/><path d="M127.52,129.75c.87-.11-.21,3.16-.84,4.11-.41.61-4.64,1.37-7.91,1.79a58,58,0,0,1-9.77.64c-1.3-.09-1.3-4.91-.6-4.87C115.72,131.83,126.55,129.87,127.52,129.75Z" style="opacity:0.6000000000000001;fill:url(#linear-gradient-16)"/><path d="M125.22,141.18c-.49,6.65,1.43,21.21,1.67,22.18s-9.47,3.4-12.67,2.71c-2.75-.59-4.67-24.31-2-24C118.2,142.87,125.3,140.1,125.22,141.18Z" style="opacity:0.6000000000000001;fill:url(#linear-gradient-17)"/><path d="M116.38,70a93,93,0,0,1-19,0,.86.86,0,0,1-.77-.89,40.18,40.18,0,0,1,.14-4.36c.18-.77.72-4.41.72-4.41a1.71,1.71,0,0,1,1.6-1.66,130,130,0,0,1,15.79,0,1.72,1.72,0,0,1,1.62,1.68s.42,3.47.6,4a46.21,46.21,0,0,1,.09,4.72A.85.85,0,0,1,116.38,70Z" style="fill:#1a64ad"/><path d="M114.74,67.68a90.14,90.14,0,0,1-16.22.24l0-3.1L99,60.26a110.56,110.56,0,0,1,15.09.09l.56,4.42Z" style="fill:#347bb7"/><path d="M107.61,60.07c-2.53-.06-4.9,0-7.72.13V67a69,69,0,0,0,7.72.1Z" style="fill:#4d99ce"/><path d="M104.74,60l-2.81.06v7c.95,0,1.88,0,2.81,0Z" style="fill:#6ab3db"/><path d="M114.68,64.77l-.56-4.42-1.22-.07v6.5l1.82-.14Z" style="fill:#4d99ce"/><path d="M98.52,67.92a90.14,90.14,0,0,0,16.22-.24l-.06-2.82H98.54Z" style="fill:#347bb7"/><path d="M113,66.44l0,1.17c0,.08,0,.14,0,.2l1.83-.13,0-2.4h-.59C113,65.28,113,65.09,113,66.44Z" style="fill:#4d99ce"/><path d="M105.89,68.18a.51.51,0,0,0,0-.13l-.12-1.5c0-.64-.4-1.11-1.6-1.11h-1.66a1.15,1.15,0,0,0-1.15,1.16l0,1.17a3.28,3.28,0,0,0,0,.34C102.89,68.19,104.39,68.2,105.89,68.18Z" style="fill:#80c6e5"/><path d="M106.1,128.55c-11.73,0-21.56-1.12-25.5-2.88l.05-25.88c5,1,16.5,1.47,26.57,1.47,9.48,0,20.84-.41,26.15-1.51L133,125.67C128.09,127.43,117.69,128.55,106.1,128.55Z" style="fill:#b6f8ff"/><path d="M107.81,106.1c7.77-2.66,17-.54,25.43,3.68l.13-10c-5.31,1.1-16.67,1.51-26.15,1.51-10.07,0-21.6-.46-26.57-1.47l0,15.36C90.3,118.61,97.86,109.5,107.81,106.1Z" style="fill:#1ab1c1"/><path d="M101.81,112.1c-6.86,2.83-12.59,10-21.2,8.7v4.87c3.94,1.76,13.77,2.88,25.5,2.88s22-1.12,26.94-2.88l.09-7.51C123.45,110,111,108.29,101.81,112.1Z" style="fill:#79d8e2"/><path d="M134.55,100.12c0-.58,0-1.16-.09-1.73h0l-.79.21-.29.06-.71.15-.13,0c-5.08.93-15.2,1.36-25.32,1.36-9.86,0-19.71-.41-24.89-1.18h0a21.08,21.08,0,0,1-2.7-.56h0c0,.4,0,.8,0,1.21,0,7-.4,18.59,0,26.7h0c4,2.2,15.15,3.3,26.58,3.3,10.92,0,22.07-1,27.49-3l.51-.18C134.81,119,134.55,107.81,134.55,100.12ZM82.74,125.29c-.46-7.52-.45-17.61-.44-24.14,5.94.86,16.48,1.18,24.92,1.18,4.14,0,16.16-.09,23.59-1.07,0,7,.17,17-.33,24-5.37,1.34-14.41,2.17-24.38,2.17S87.29,126.63,82.74,125.29Z" style="fill:#0092aa"/><g style="opacity:0.45"><path d="M134.55,100.12c0-.58,0-1.16-.09-1.73h0l-.8.21-.29.06-.74.16-.13,0c-10.07,1.82-39.69,1.73-50.17.17h0a21.67,21.67,0,0,1-2.49-.5l-.26-.07h0c0,.4,0,.8,0,1.21,0,7-.4,18.59,0,26.7h0c7.82,4.29,42.94,4.4,54.06.28l.52-.19C134.81,119,134.55,107.81,134.55,100.12Z" style="fill:url(#linear-gradient-18)"/></g></g></g></svg>