<svg id="Zoom_Circle_-_B_Oil" data-name="Zoom Circle - B Oil" xmlns="http://www.w3.org/2000/svg" xmlns:xlink="http://www.w3.org/1999/xlink" viewBox="0 0 220 167"><defs><radialGradient id="radial-gradient" cx="-602.1" cy="19.33" r="5.44" gradientTransform="matrix(-1.16, 0.21, 0.21, 1.16, -573.81, 137.4)" gradientUnits="userSpaceOnUse"><stop offset="0" stop-color="#fff" stop-opacity="0"/><stop offset="0.88" stop-color="#4c4c4c" stop-opacity="0.7"/><stop offset="1"/></radialGradient></defs><title>zoom-circle-b-oil</title><g id="Zoom_Circle" data-name="Zoom Circle"><path d="M130.36,30.61a3.59,3.59,0,0,1,.62,7.12,4.74,4.74,0,0,1-.65.05,3.59,3.59,0,0,1,0-7.17m0-6.28a9.6,9.6,0,0,0-1.76.16,9.86,9.86,0,0,0,1.73,19.57,9.6,9.6,0,0,0,1.76-.16,9.86,9.86,0,0,0-1.73-19.57Z" style="fill:#707070"/><path d="M130.33,40.63a6.44,6.44,0,0,1-1.12-12.77,7.31,7.31,0,0,1,1.14-.1,6.44,6.44,0,0,1,1.13,12.77,7.31,7.31,0,0,1-1.14.1Z" style="fill-rule:evenodd;fill:url(#radial-gradient)"/><path d="M130.35,29.05a5.15,5.15,0,0,1,.9,10.21,4.67,4.67,0,0,1-.91.08,5.15,5.15,0,0,1-.91-10.21,5.82,5.82,0,0,1,.92-.08m0-2.57a8,8,0,0,0-1.37.12,7.72,7.72,0,0,0,1.36,15.32,7.14,7.14,0,0,0,1.37-.13,7.72,7.72,0,0,0-1.36-15.31Z" style="fill:#fff"/></g></svg>