<svg id="Zoom_Circle_-_A_Coconut" data-name="Zoom Circle - A Coconut" xmlns="http://www.w3.org/2000/svg" xmlns:xlink="http://www.w3.org/1999/xlink" viewBox="0 0 220 167"><defs><radialGradient id="radial-gradient" cx="24.43" cy="-58.98" r="5.44" gradientTransform="matrix(1.18, 0.08, -0.08, 1.18, 35.12, 103.12)" gradientUnits="userSpaceOnUse"><stop offset="0" stop-color="#fff" stop-opacity="0"/><stop offset="0.88" stop-color="#4c4c4c" stop-opacity="0.7"/><stop offset="1"/></radialGradient></defs><title>zoom-circle-a-coconut</title><g id="Zoom_Circle" data-name="Zoom Circle"><path d="M68.62,32h.25a3.58,3.58,0,0,1-.24,7.16h-.25A3.58,3.58,0,0,1,68.62,32m0-6.28A9.87,9.87,0,0,0,68,45.39l.67,0a9.86,9.86,0,0,0,.66-19.7c-.23,0-.45,0-.68,0Z" style="fill:#707070"/><path d="M68.63,42l-.44,0a6.43,6.43,0,0,1,.43-12.85l.44,0A6.43,6.43,0,0,1,75,36,6.45,6.45,0,0,1,68.63,42Z" style="fill-rule:evenodd;fill:url(#radial-gradient)"/><path d="M68.62,30.4H69a5.15,5.15,0,0,1-.34,10.28h-.35a5.15,5.15,0,0,1,.34-10.28m0-2.57a7.72,7.72,0,0,0-.52,15.42l.53,0a7.72,7.72,0,0,0,.52-15.42,4.78,4.78,0,0,0-.53,0Z" style="fill:#fff"/></g></svg>