<svg id="Zoom_Fade_-_B_Soap" data-name="Zoom Fade - B Soap" xmlns="http://www.w3.org/2000/svg" xmlns:xlink="http://www.w3.org/1999/xlink" viewBox="0 0 220 167"><defs><linearGradient id="linear-gradient" x1="-642.9" y1="92.28" x2="-610.94" y2="180.1" gradientTransform="matrix(-0.98, 0.18, 0.18, 0.98, -524.64, 49.26)" gradientUnits="userSpaceOnUse"><stop offset="0" stop-color="#fff"/><stop offset="1" stop-color="#fff" stop-opacity="0"/></linearGradient></defs><title>zoom-fade-b-soap</title><path id="Fade" d="M17.27,83.77,125.58,26.7s-6.12,12.65,4.13,13.51,7.68-11.41,7.68-11.41l65.54,106.14C155.2,68.7,84.38,55.94,17.27,83.77Z" style="opacity:0.7000000000000001;fill:url(#linear-gradient)"/><g id="Dashed_Line_2" data-name="Dashed Line 2"><polygon points="126 27.5 113.95 34.06 112.94 32.14 125.16 25.91 126 27.5" style="fill:#707070"/><polygon points="110.94 35.7 98.88 42.26 97.65 39.92 109.88 33.7 110.94 35.7" style="fill:#707070"/><polygon points="95.87 43.9 83.82 50.46 82.37 47.71 94.59 41.48 95.87 43.9" style="fill:#707070"/><polygon points="80.8 52.1 68.75 58.67 67.08 55.5 79.31 49.27 80.8 52.1" style="fill:#707070"/><polygon points="65.74 60.31 53.69 66.87 51.8 63.29 64.03 57.06 65.74 60.31" style="fill:#707070"/><polygon points="50.67 68.51 38.62 75.07 36.51 71.08 48.74 64.84 50.67 68.51" style="fill:#707070"/><polygon points="35.61 76.71 23.55 83.27 21.23 78.86 33.46 72.63 35.61 76.71" style="fill:#707070"/><polygon points="20.54 84.92 18.47 86.05 16.07 81.49 18.17 80.42 20.54 84.92" style="fill:#707070"/></g><g id="Dashed_Line_1" data-name="Dashed Line 1"><polygon points="138.16 28.32 145.53 39.89 143.66 41.05 136.61 29.28 138.16 28.32" style="fill:#707070"/><polygon points="147.37 42.79 154.74 54.37 152.48 55.76 145.43 43.99 147.37 42.79" style="fill:#707070"/><polygon points="156.58 57.26 163.94 68.84 161.3 70.47 154.24 58.7 156.58 57.26" style="fill:#707070"/><polygon points="165.78 71.74 173.15 83.32 170.12 85.19 163.06 73.42 165.78 71.74" style="fill:#707070"/><polygon points="174.99 86.21 182.35 97.79 178.94 99.9 171.88 88.13 174.99 86.21" style="fill:#707070"/><polygon points="184.2 100.69 191.56 112.27 187.75 114.62 180.7 102.85 184.2 100.69" style="fill:#707070"/><polygon points="193.4 115.16 200.77 126.74 196.57 129.33 189.52 117.56 193.4 115.16" style="fill:#707070"/><polygon points="202.61 129.63 205.12 133.59 200.74 136.29 198.34 132.27 202.61 129.63" style="fill:#707070"/></g></svg>