<svg id="Zoom_Circle_-_A_Oil" data-name="Zoom Circle - A Oil" xmlns="http://www.w3.org/2000/svg" xmlns:xlink="http://www.w3.org/1999/xlink" viewBox="0 0 220 167"><defs><radialGradient id="radial-gradient" cx="75.2" cy="-102.25" r="5.44" gradientTransform="matrix(1.16, 0.21, -0.21, 1.16, -19.8, 137.4)" gradientUnits="userSpaceOnUse"><stop offset="0" stop-color="#fff" stop-opacity="0"/><stop offset="0.88" stop-color="#4c4c4c" stop-opacity="0.7"/><stop offset="1"/></radialGradient></defs><title>zoom-circle-a-oil</title><g id="Zoom_Circle" data-name="Zoom Circle"><path d="M89,30.61h0a3.47,3.47,0,0,1,.64.06,3.59,3.59,0,0,1,2.9,4.16,3.58,3.58,0,0,1-3.52,3,4.6,4.6,0,0,1-.64-.05,3.61,3.61,0,0,1-2.9-4.17,3.58,3.58,0,0,1,3.52-3m0-6.28A9.86,9.86,0,0,0,87.25,43.9a9.5,9.5,0,0,0,1.75.16,9.86,9.86,0,0,0,1.73-19.57A9.5,9.5,0,0,0,89,24.33Z" style="fill:#707070"/><path d="M89,40.63a7.44,7.44,0,0,1-1.15-.1A6.44,6.44,0,0,1,89,27.76a7.44,7.44,0,0,1,1.15.1A6.44,6.44,0,0,1,89,40.63Z" style="fill-rule:evenodd;fill:url(#radial-gradient)"/><path d="M89,29.05h0a5.62,5.62,0,0,1,.92.08A5.15,5.15,0,0,1,89,39.34a4.77,4.77,0,0,1-.92-.08A5.15,5.15,0,0,1,89,29.05m0-2.57a7.71,7.71,0,0,0-1.35,15.31,7.14,7.14,0,0,0,1.37.13A7.72,7.72,0,0,0,90.35,26.6,8,8,0,0,0,89,26.48Z" style="fill:#fff"/></g></svg>