<svg id="Zoom_Circle_-_A_Stone" data-name="Zoom Circle - A Stone" xmlns="http://www.w3.org/2000/svg" xmlns:xlink="http://www.w3.org/1999/xlink" viewBox="0 0 220 167"><defs><radialGradient id="radial-gradient" cx="75.33" cy="-124.44" r="5.44" gradientTransform="matrix(1.16, 0.22, -0.22, 1.16, -26.56, 138.05)" gradientUnits="userSpaceOnUse"><stop offset="0" stop-color="#fff" stop-opacity="0"/><stop offset="0.88" stop-color="#4c4c4c" stop-opacity="0.7"/><stop offset="1"/></radialGradient></defs><title>zoom-circle-a-stone</title><g id="Zoom_Circle" data-name="Zoom Circle"><path d="M88.36,6.7a3.82,3.82,0,0,1,.68.07,3.59,3.59,0,0,1-.66,7.11,3.21,3.21,0,0,1-.68-.07,3.59,3.59,0,0,1,.66-7.11m0-6.27A9.86,9.86,0,0,0,86.53,20a9.74,9.74,0,0,0,1.85.18,9.87,9.87,0,1,0,0-19.73Z" style="fill:#707070"/><path d="M88.38,16.73a6.21,6.21,0,0,1-1.21-.12A6.43,6.43,0,0,1,88.36,3.86,7.1,7.1,0,0,1,89.58,4a6.44,6.44,0,0,1-1.2,12.76Z" style="fill-rule:evenodd;fill:url(#radial-gradient)"/><path d="M88.36,5.14h0a5.43,5.43,0,0,1,1,.1A5.08,5.08,0,0,1,92.63,7.4a5.15,5.15,0,0,1-4.25,8,5.31,5.31,0,0,1-1-.09,5.13,5.13,0,0,1-3.29-2.16,5.08,5.08,0,0,1-.8-3.86,5.14,5.14,0,0,1,5-4.19m0-2.57a7.72,7.72,0,0,0-1.43,15.3,7.19,7.19,0,0,0,1.45.14,7.72,7.72,0,0,0,1.44-15.3,8.11,8.11,0,0,0-1.46-.14Z" style="fill:#fff"/></g></svg>