<svg id="Zoom_Fade_-_A_Water" data-name="Zoom Fade - A Water" xmlns="http://www.w3.org/2000/svg" xmlns:xlink="http://www.w3.org/1999/xlink" viewBox="0 0 220 167"><defs><linearGradient id="linear-gradient" x1="155.78" y1="-57.1" x2="190.25" y2="37.6" gradientTransform="translate(-68.97 49.26) rotate(10.18)" gradientUnits="userSpaceOnUse"><stop offset="0" stop-color="#fff"/><stop offset="1" stop-color="#fff" stop-opacity="0"/></linearGradient></defs><title>zoom-fade-a-water</title><path id="Fade" d="M205.58,86,93.75,20.7s6.12,12.64-4.12,13.51S82,22.79,82,22.79L14.74,136.67C62.58,70.22,133.38,54,205.58,86Z" style="opacity:0.7000000000000001;fill:url(#linear-gradient)"/><g id="Dashed_Line_2" data-name="Dashed Line 2"><polygon points="94.2 19.92 106.14 26.69 105.06 28.55 93.3 21.47 94.2 19.92" style="fill:#707070"/><polygon points="109.13 28.38 121.07 35.15 119.76 37.39 108 30.32 109.13 28.38" style="fill:#707070"/><polygon points="124.05 36.84 135.99 43.6 134.46 46.23 122.7 39.16 124.05 36.84" style="fill:#707070"/><polygon points="138.98 45.3 150.92 52.06 149.16 55.07 137.4 47.99 138.98 45.3" style="fill:#707070"/><polygon points="153.9 53.75 165.84 60.52 163.86 63.91 152.1 56.84 153.9 53.75" style="fill:#707070"/><polygon points="168.82 62.21 180.76 68.97 178.56 72.75 166.8 65.68 168.82 62.21" style="fill:#707070"/><polygon points="183.75 70.67 195.69 77.43 193.26 81.59 181.5 74.52 183.75 70.67" style="fill:#707070"/><polygon points="198.67 79.12 206.88 83.78 204.29 88.22 196.2 83.36 198.67 79.12" style="fill:#707070"/></g><g id="Daahed_Line_1" data-name="Daahed Line 1"><polygon points="82.74 23.26 75.91 35.16 74.04 34.06 81.16 22.33 82.74 23.26" style="fill:#707070"/><polygon points="74.2 38.14 67.38 50.04 65.13 48.72 72.26 36.99 74.2 38.14" style="fill:#707070"/><polygon points="65.67 53.02 58.84 64.92 56.23 63.38 63.35 51.65 65.67 53.02" style="fill:#707070"/><polygon points="57.14 67.9 50.31 79.81 47.33 78.04 54.45 66.31 57.14 67.9" style="fill:#707070"/><polygon points="48.6 82.78 41.78 94.69 38.42 92.71 45.55 80.98 48.6 82.78" style="fill:#707070"/><polygon points="40.07 97.66 33.25 109.57 29.52 107.37 36.64 95.64 40.07 97.66" style="fill:#707070"/><polygon points="31.54 112.54 24.71 124.45 20.62 122.03 27.74 110.3 31.54 112.54" style="fill:#707070"/><polygon points="23.01 127.42 16.96 137.97 12.53 135.36 18.84 124.96 23.01 127.42" style="fill:#707070"/></g></svg>