<svg id="Zoom_Fade_-_A_Oil" data-name="Zoom Fade - A Oil" xmlns="http://www.w3.org/2000/svg" xmlns:xlink="http://www.w3.org/1999/xlink" viewBox="0 0 220 167"><defs><linearGradient id="linear-gradient" x1="156.66" y1="-51.13" x2="188.52" y2="36.43" gradientTransform="translate(-68.97 49.26) rotate(10.18)" gradientUnits="userSpaceOnUse"><stop offset="0" stop-color="#fff"/><stop offset="1" stop-color="#fff" stop-opacity="0"/></linearGradient></defs><title>zoom-fade-a-oil</title><path id="Fade" d="M201.13,83.48,93.75,26.7s6.12,12.65-4.12,13.51S82,28.8,82,28.8L16,134.74C60.78,73.83,126.84,53.69,201.13,83.48Z" style="opacity:0.7000000000000001;fill:url(#linear-gradient)"/><g id="Daahed_Line_2" data-name="Daahed Line 2"><polygon points="94.17 25.91 106.39 32.16 105.37 34.08 93.33 27.5 94.17 25.91" style="fill:#707070"/><polygon points="109.44 33.72 121.66 39.96 120.43 42.3 108.38 35.72 109.44 33.72" style="fill:#707070"/><polygon points="124.72 41.53 136.94 47.77 135.48 50.53 123.44 43.95 124.72 41.53" style="fill:#707070"/><polygon points="139.99 49.33 152.21 55.58 150.53 58.76 138.49 52.18 139.99 49.33" style="fill:#707070"/><polygon points="155.27 57.14 167.49 63.39 165.58 66.98 153.54 60.4 155.27 57.14" style="fill:#707070"/><polygon points="170.54 64.95 182.76 71.2 180.64 75.21 168.59 68.63 170.54 64.95" style="fill:#707070"/><polygon points="185.81 72.76 198.03 79.01 195.69 83.44 183.65 76.86 185.81 72.76" style="fill:#707070"/><polygon points="201.09 80.57 202.33 81.2 199.93 85.75 198.7 85.08 201.09 80.57" style="fill:#707070"/></g><g id="Daahed_Line_1" data-name="Daahed Line 1"><polygon points="82.72 29.28 75.63 41.02 73.76 39.86 81.17 28.31 82.72 29.28" style="fill:#707070"/><polygon points="73.85 43.96 66.75 55.7 64.5 54.3 71.91 42.75 73.85 43.96" style="fill:#707070"/><polygon points="64.97 58.64 57.87 70.38 55.24 68.74 62.65 57.19 64.97 58.64" style="fill:#707070"/><polygon points="56.1 73.32 49 85.06 45.98 83.18 53.38 71.63 56.1 73.32" style="fill:#707070"/><polygon points="47.22 88 40.12 99.74 36.71 97.62 44.12 86.07 47.22 88" style="fill:#707070"/><polygon points="38.35 102.68 31.25 114.42 27.45 112.06 34.86 100.5 38.35 102.68" style="fill:#707070"/><polygon points="29.47 117.36 22.37 129.1 18.19 126.49 25.6 114.94 29.47 117.36" style="fill:#707070"/><polygon points="20.6 132.03 18.14 136.1 13.77 133.38 16.34 129.38 20.6 132.03" style="fill:#707070"/></g></svg>