<svg id="Zoom_Circle_-_B_Stone" data-name="Zoom Circle - B Stone" xmlns="http://www.w3.org/2000/svg" xmlns:xlink="http://www.w3.org/1999/xlink" viewBox="0 0 220 167"><defs><radialGradient id="radial-gradient" cx="-655.87" cy="20.92" r="5.44" gradientTransform="matrix(-1.18, 0.05, 0.05, 1.18, -617.39, 19.26)" gradientUnits="userSpaceOnUse"><stop offset="0" stop-color="#fff" stop-opacity="0"/><stop offset="0.88" stop-color="#4c4c4c" stop-opacity="0.7"/><stop offset="1"/></radialGradient></defs><title>zoom-circle-b-stone</title><g id="Zoom_Circle" data-name="Zoom Circle"><path d="M157.79,6.7a3.59,3.59,0,0,1,.15,7.17h-.17a3.59,3.59,0,0,1-.14-7.17h.16m0-6.27h-.44a9.86,9.86,0,0,0,.42,19.71h.44A9.86,9.86,0,0,0,157.79.43Z" style="fill:#707070"/><path d="M157.78,16.72a6.43,6.43,0,0,1-.28-12.86h.29a6.43,6.43,0,0,1,.27,12.86Z" style="fill-rule:evenodd;fill:url(#radial-gradient)"/><path d="M157.79,5.14A5.15,5.15,0,0,1,158,15.43h-.23a5.15,5.15,0,0,1-.22-10.29h.23m0-2.57h-.34A7.72,7.72,0,0,0,157.78,18h.34a7.72,7.72,0,0,0-.33-15.43Z" style="fill:#fff"/></g></svg>