<svg id="Zoom_Fade_-_B_Coconut" data-name="Zoom Fade - B Coconut" xmlns="http://www.w3.org/2000/svg" xmlns:xlink="http://www.w3.org/1999/xlink" viewBox="0 0 220 167"><defs><linearGradient id="linear-gradient" x1="-741.97" y1="56.79" x2="-707.73" y2="150.86" gradientTransform="matrix(-1, 0.07, 0.07, 1, -598.24, 20.91)" gradientUnits="userSpaceOnUse"><stop offset="0" stop-color="#fff"/><stop offset="1" stop-color="#fff" stop-opacity="0"/></linearGradient></defs><title>zoom-fade-b-coconut</title><path id="Fade" d="M30.36,77.72,146.49,27.58S139,39.47,149.1,41.46,158,31,158,31L211.24,150.5C171.22,81.15,108.88,55.48,30.36,77.72Z" style="opacity:0.7000000000000001;fill:url(#linear-gradient)"/><g id="Dashed_Line_2" data-name="Dashed Line 2"><polygon points="146.84 28.4 134.32 34.01 133.46 32.02 146.13 26.75 146.84 28.4" style="fill:#707070"/><polygon points="131.19 35.41 118.66 41.02 117.62 38.62 130.29 33.34 131.19 35.41" style="fill:#707070"/><polygon points="115.53 42.42 103 48.02 101.79 45.21 114.46 39.94 115.53 42.42" style="fill:#707070"/><polygon points="99.87 49.43 87.35 55.03 85.95 51.8 98.62 46.53 99.87 49.43" style="fill:#707070"/><polygon points="84.22 56.44 71.69 62.04 70.11 58.39 82.78 53.12 84.22 56.44" style="fill:#707070"/><polygon points="68.56 63.44 56.03 69.05 54.28 64.98 66.94 59.71 68.56 63.44" style="fill:#707070"/><polygon points="52.9 70.45 40.38 76.06 38.44 71.58 51.11 66.3 52.9 70.45" style="fill:#707070"/><polygon points="37.24 77.46 31.38 80.08 29.34 75.36 35.27 72.89 37.24 77.46" style="fill:#707070"/></g><g id="Dashed_Line_1" data-name="Dashed Line 1"><polygon points="158.82 30.58 164.57 43.04 162.58 43.93 157.15 31.32 158.82 30.58" style="fill:#707070"/><polygon points="166 46.16 171.75 58.62 169.36 59.69 163.93 47.08 166 46.16" style="fill:#707070"/><polygon points="173.18 61.74 178.92 74.2 176.14 75.44 170.71 62.84 173.18 61.74" style="fill:#707070"/><polygon points="180.36 77.32 186.1 89.78 182.92 91.2 177.5 78.59 180.36 77.32" style="fill:#707070"/><polygon points="187.54 92.9 193.28 105.36 189.7 106.96 184.28 94.35 187.54 92.9" style="fill:#707070"/><polygon points="194.71 108.48 200.46 120.94 196.48 122.71 191.06 110.11 194.71 108.48" style="fill:#707070"/><polygon points="201.89 124.06 207.63 136.52 203.26 138.47 197.84 125.86 201.89 124.06" style="fill:#707070"/><polygon points="209.07 139.64 213.59 149.46 208.89 151.55 204.62 141.62 209.07 139.64" style="fill:#707070"/></g></svg>