<svg id="Zoom_Circle_-_B_Water" data-name="Zoom Circle - B Water" xmlns="http://www.w3.org/2000/svg" xmlns:xlink="http://www.w3.org/1999/xlink" viewBox="0 0 220 167"><defs><radialGradient id="radial-gradient" cx="-595.57" cy="12.99" r="5.44" gradientTransform="matrix(-1.16, 0.21, 0.21, 1.16, -565.39, 137.4)" gradientUnits="userSpaceOnUse"><stop offset="0" stop-color="#fff" stop-opacity="0"/><stop offset="0.88" stop-color="#4c4c4c" stop-opacity="0.7"/><stop offset="1"/></radialGradient></defs><title>zoom-circle-b-water</title><g id="Zoom_Circle" data-name="Zoom Circle"><path d="M129.86,24.6a3.63,3.63,0,1,1-.65.06,3.59,3.59,0,0,1,.65-.06m0-6.27a10.55,10.55,0,0,0-1.76.15,9.87,9.87,0,0,0,1.73,19.58,9.6,9.6,0,0,0,1.76-.16,9.86,9.86,0,0,0-1.73-19.57Z" style="fill:#707070"/><path d="M129.84,34.63a6.44,6.44,0,0,1-1.13-12.77,6.27,6.27,0,0,1,1.14-.1A6.43,6.43,0,0,1,131,34.52a6.29,6.29,0,0,1-1.14.11Z" style="fill-rule:evenodd;fill:url(#radial-gradient)"/><path d="M129.85,23.05a5.14,5.14,0,0,1,.9,10.21,5.59,5.59,0,0,1-.91.08,5.15,5.15,0,0,1-.9-10.21,4.67,4.67,0,0,1,.91-.08m0-2.58a7.14,7.14,0,0,0-1.37.13,7.72,7.72,0,0,0,1.36,15.31,8,8,0,0,0,1.37-.12,7.72,7.72,0,0,0-1.36-15.32Z" style="fill:#fff"/></g></svg>