<svg id="Zoom_Fade_-_A_Soap" data-name="Zoom Fade - A Soap" xmlns="http://www.w3.org/2000/svg" xmlns:xlink="http://www.w3.org/1999/xlink" viewBox="0 0 220 167"><defs><linearGradient id="linear-gradient" x1="157.14" y1="-51.29" x2="189" y2="36.25" gradientTransform="translate(-68.97 49.26) rotate(10.18)" gradientUnits="userSpaceOnUse"><stop offset="0" stop-color="#fff"/><stop offset="1" stop-color="#fff" stop-opacity="0"/></linearGradient></defs><title>zoom-fade-a-soap</title><path id="Fade" d="M201.89,84,93.86,26.7S100,39.35,89.73,40.21,82.05,28.8,82.05,28.8L16.31,134.67C70,63,141.39,59.37,201.89,84Z" style="opacity:0.7000000000000001;fill:url(#linear-gradient)"/><g id="Daahed_Line_2" data-name="Daahed Line 2"><polygon points="94.28 25.91 106.49 32.17 105.47 34.09 93.44 27.5 94.28 25.91" style="fill:#707070"/><polygon points="109.54 33.73 121.75 39.99 120.52 42.33 108.48 35.74 109.54 33.73" style="fill:#707070"/><polygon points="124.81 41.56 137.02 47.82 135.56 50.57 123.53 43.98 124.81 41.56" style="fill:#707070"/><polygon points="140.07 49.39 152.28 55.65 150.6 58.81 138.57 52.22 140.07 49.39" style="fill:#707070"/><polygon points="155.34 57.21 167.55 63.47 165.65 67.05 153.61 60.46 155.34 57.21" style="fill:#707070"/><polygon points="170.6 65.04 182.81 71.3 180.69 75.29 168.66 68.7 170.6 65.04" style="fill:#707070"/><polygon points="185.87 72.86 198.08 79.12 195.74 83.53 183.7 76.94 185.87 72.86" style="fill:#707070"/><polygon points="201.13 80.69 203.09 81.69 200.68 86.24 198.75 85.18 201.13 80.69" style="fill:#707070"/></g><g id="Daahed_Line_1" data-name="Daahed Line 1"><polygon points="82.83 29.28 75.75 41.03 73.88 39.87 81.28 28.31 82.83 29.28" style="fill:#707070"/><polygon points="73.97 43.97 66.89 55.72 64.64 54.33 72.03 42.76 73.97 43.97" style="fill:#707070"/><polygon points="65.12 58.66 58.04 70.42 55.4 68.78 62.79 57.22 65.12 58.66" style="fill:#707070"/><polygon points="56.27 73.35 49.18 85.11 46.15 83.23 53.55 71.67 56.27 73.35" style="fill:#707070"/><polygon points="47.41 88.05 40.33 99.8 36.91 97.68 44.3 86.12 47.41 88.05" style="fill:#707070"/><polygon points="38.55 102.74 31.47 114.49 27.67 112.13 35.06 100.57 38.55 102.74" style="fill:#707070"/><polygon points="29.7 117.43 22.62 129.18 18.43 126.58 25.82 115.02 29.7 117.43" style="fill:#707070"/><polygon points="20.84 132.12 18.49 136.03 14.12 133.31 16.58 129.47 20.84 132.12" style="fill:#707070"/></g></svg>