<svg id="Zoom_Fade_-_B_Wood" data-name="Zoom Fade - B Wood" xmlns="http://www.w3.org/2000/svg" xmlns:xlink="http://www.w3.org/1999/xlink" viewBox="0 0 220 167"><defs><linearGradient id="linear-gradient" x1="-718.54" y1="36.81" x2="-680.82" y2="140.46" gradientTransform="matrix(-1, 0.06, 0.06, 1, -577.27, 17.55)" gradientUnits="userSpaceOnUse"><stop offset="0" stop-color="#fff"/><stop offset="1" stop-color="#fff" stop-opacity="0"/></linearGradient></defs><title>zoom-fade-b-wood</title><path id="Fade" d="M11.71,87,139,11.18s-7.57,11.82,2.5,13.9,9-10.43,9-10.43l59.45,132.84C161.44,71.23,92.15,52.22,11.71,87Z" style="opacity:0.7000000000000001;fill:url(#linear-gradient)"/><g id="Dashed_Line_2" data-name="Dashed Line 2"><polygon points="139.41 11.95 127.7 19.1 126.63 17.29 138.49 10.4 139.41 11.95" style="fill:#707070"/><polygon points="124.78 20.89 113.07 28.05 111.79 25.9 123.66 19.02 124.78 20.89" style="fill:#707070"/><polygon points="110.14 29.84 98.43 36.99 96.95 34.52 108.82 27.63 110.14 29.84" style="fill:#707070"/><polygon points="95.5 38.78 83.79 45.94 82.12 43.13 93.99 36.24 95.5 38.78" style="fill:#707070"/><polygon points="80.87 47.73 69.16 54.88 67.28 51.74 79.15 44.85 80.87 47.73" style="fill:#707070"/><polygon points="66.23 56.67 54.52 63.83 52.45 60.35 64.32 53.46 66.23 56.67" style="fill:#707070"/><polygon points="51.59 65.62 39.88 72.77 37.62 68.96 49.48 62.07 51.59 65.62" style="fill:#707070"/><polygon points="36.96 74.56 25.25 81.72 22.78 77.57 34.65 70.69 36.96 74.56" style="fill:#707070"/><polygon points="22.32 83.51 13.03 89.19 10.39 84.77 19.81 79.3 22.32 83.51" style="fill:#707070"/></g><g id="Dashed_Line_1" data-name="Dashed Line 1"><polygon points="151.26 14.28 157.01 26.74 155.05 27.62 149.59 15.03 151.26 14.28" style="fill:#707070"/><polygon points="158.45 29.86 164.19 42.32 161.88 43.35 156.42 30.76 158.45 29.86" style="fill:#707070"/><polygon points="165.63 45.43 171.38 57.89 168.71 59.09 163.25 46.5 165.63 45.43" style="fill:#707070"/><polygon points="172.82 61.01 178.56 73.47 175.54 74.82 170.07 62.24 172.82 61.01" style="fill:#707070"/><polygon points="180 76.58 185.75 89.05 182.37 90.56 176.9 77.97 180 76.58" style="fill:#707070"/><polygon points="187.19 92.16 192.93 104.62 189.19 106.3 183.73 93.71 187.19 92.16" style="fill:#707070"/><polygon points="194.37 107.74 200.12 120.2 196.02 122.03 190.56 109.44 194.37 107.74" style="fill:#707070"/><polygon points="201.56 123.31 207.3 135.78 202.85 137.77 197.39 125.18 201.56 123.31" style="fill:#707070"/><polygon points="208.74 138.89 212.22 146.44 207.53 148.54 204.22 140.91 208.74 138.89" style="fill:#707070"/></g></svg>