<svg id="Zoom_Fade_-_B_Water" data-name="Zoom Fade - B Water" xmlns="http://www.w3.org/2000/svg" xmlns:xlink="http://www.w3.org/1999/xlink" viewBox="0 0 220 167"><defs><linearGradient id="linear-gradient" x1="-634.9" y1="84.7" x2="-599.9" y2="180.85" gradientTransform="matrix(-0.98, 0.18, 0.18, 0.98, -516.22, 49.26)" gradientUnits="userSpaceOnUse"><stop offset="0" stop-color="#fff"/><stop offset="1" stop-color="#fff" stop-opacity="0"/></linearGradient></defs><title>zoom-fade-b-water</title><path id="Fade" d="M9.87,88,125.08,20.7S119,33.34,129.21,34.21s7.68-11.42,7.68-11.42l68.42,115.64C160.83,75.11,91.88,49.41,9.87,88Z" style="opacity:0.7000000000000001;fill:url(#linear-gradient)"/><g id="Dashed_Line_2" data-name="Dashed Line 2"><polygon points="125.54 21.47 113.78 28.54 112.7 26.7 124.63 19.92 125.54 21.47" style="fill:#707070"/><polygon points="110.83 30.31 99.07 37.38 97.78 35.16 109.71 28.39 110.83 30.31" style="fill:#707070"/><polygon points="96.13 39.15 84.37 46.22 82.86 43.63 94.79 36.85 96.13 39.15" style="fill:#707070"/><polygon points="81.43 47.98 69.67 55.05 67.94 52.09 79.87 45.32 81.43 47.98" style="fill:#707070"/><polygon points="66.73 56.82 54.97 63.89 53.02 60.55 64.95 53.78 66.73 56.82" style="fill:#707070"/><polygon points="52.02 65.66 40.26 72.73 38.1 69.02 50.03 62.25 52.02 65.66" style="fill:#707070"/><polygon points="37.32 74.5 25.56 81.56 23.18 77.48 35.11 70.71 37.32 74.5" style="fill:#707070"/><polygon points="22.62 83.33 11.17 90.22 8.57 85.77 20.19 79.18 22.62 83.33" style="fill:#707070"/></g><g id="Dashed_Line_1" data-name="Dashed Line 1"><polygon points="137.68 22.33 144.81 34.05 142.94 35.15 136.1 23.26 137.68 22.33" style="fill:#707070"/><polygon points="146.59 36.98 153.72 48.7 151.49 50.02 144.65 38.13 146.59 36.98" style="fill:#707070"/><polygon points="155.51 51.63 162.64 63.36 160.05 64.89 153.2 53 155.51 51.63" style="fill:#707070"/><polygon points="164.43 66.29 171.56 78.01 168.6 79.76 161.76 67.87 164.43 66.29" style="fill:#707070"/><polygon points="173.34 80.94 180.47 92.67 177.15 94.63 170.31 82.74 173.34 80.94" style="fill:#707070"/><polygon points="182.26 95.6 189.39 107.32 185.7 109.5 178.86 97.61 182.26 95.6" style="fill:#707070"/><polygon points="191.17 110.25 198.31 121.98 194.25 124.37 187.41 112.48 191.17 110.25" style="fill:#707070"/><polygon points="200.09 124.91 207.22 136.63 202.81 139.24 195.97 127.35 200.09 124.91" style="fill:#707070"/></g></svg>