<svg id="Zoom_Circle_-_A_Water" data-name="Zoom Circle - A Water" xmlns="http://www.w3.org/2000/svg" xmlns:xlink="http://www.w3.org/1999/xlink" viewBox="0 0 220 167"><defs><radialGradient id="radial-gradient" cx="74.3" cy="-107.25" r="5.44" gradientTransform="matrix(1.16, 0.21, -0.21, 1.16, -19.8, 137.4)" gradientUnits="userSpaceOnUse"><stop offset="0" stop-color="#fff" stop-opacity="0"/><stop offset="0.88" stop-color="#4c4c4c" stop-opacity="0.7"/><stop offset="1"/></radialGradient></defs><title>zoom-circle-a-water</title><g id="Zoom_Circle" data-name="Zoom Circle"><path d="M89,24.6h0a3.47,3.47,0,0,1,.64.06A3.59,3.59,0,0,1,89,31.78a3.47,3.47,0,0,1-.64-.06,3.51,3.51,0,0,1-2.31-1.48,3.55,3.55,0,0,1-.59-2.68,3.59,3.59,0,0,1,3.52-3m0-6.27A9.86,9.86,0,0,0,87.25,37.9a9.5,9.5,0,0,0,1.75.16,9.87,9.87,0,0,0,1.73-19.58A10.43,10.43,0,0,0,89,18.33Z" style="fill:#707070"/><path d="M89,34.63a6.44,6.44,0,1,1,6.32-5.3A6.4,6.4,0,0,1,89,34.63Z" style="fill-rule:evenodd;fill:url(#radial-gradient)"/><path d="M89,23.05h0a4.7,4.7,0,0,1,.92.08A5.15,5.15,0,0,1,89,33.34a5.72,5.72,0,0,1-.92-.08A5.15,5.15,0,0,1,89,23.05m0-2.58a7.72,7.72,0,0,0-1.35,15.32,8,8,0,0,0,1.37.12A7.71,7.71,0,0,0,90.35,20.6,7.14,7.14,0,0,0,89,20.47Z" style="fill:#fff"/></g></svg>