<svg id="Zoom_Circle_-_B_Air" data-name="Zoom Circle - B Air" xmlns="http://www.w3.org/2000/svg" xmlns:xlink="http://www.w3.org/1999/xlink" viewBox="0 0 220 167"><defs><radialGradient id="radial-gradient" cx="-578.25" cy="4.52" r="5.44" gradientTransform="matrix(-1.16, 0.22, 0.22, 1.16, -540.68, 138.05)" gradientUnits="userSpaceOnUse"><stop offset="0" stop-color="#fff" stop-opacity="0"/><stop offset="0.88" stop-color="#4c4c4c" stop-opacity="0.7"/><stop offset="1"/></radialGradient></defs><title>zoom-circle-b-air</title><g id="Zoom_Circle" data-name="Zoom Circle"><path d="M131.39,11.85a3.59,3.59,0,0,1,.66,7.11,4,4,0,0,1-.68.07,3.59,3.59,0,0,1-.66-7.12,4,4,0,0,1,.68-.06m0-6.28a9.87,9.87,0,0,0,0,19.73,10.81,10.81,0,0,0,1.86-.17,9.87,9.87,0,0,0-1.84-19.56Z" style="fill:#707070"/><path d="M131.37,21.87a6.43,6.43,0,0,1-1.19-12.75A6.13,6.13,0,0,1,131.39,9a6.44,6.44,0,0,1,1.19,12.76,7,7,0,0,1-1.21.11Z" style="fill-rule:evenodd;fill:url(#radial-gradient)"/><path d="M131.39,10.29a5.14,5.14,0,0,1,1,10.2,5.31,5.31,0,0,1-1,.09,5.15,5.15,0,0,1-1-10.2,5.31,5.31,0,0,1,1-.09m0-2.57a7.13,7.13,0,0,0-1.45.14,7.72,7.72,0,0,0,1.43,15.3,7.91,7.91,0,0,0,1.45-.14,7.72,7.72,0,0,0-1.43-15.3Z" style="fill:#fff"/></g></svg>