<svg id="Zoom_Circle_-_B_Wood" data-name="Zoom Circle - B Wood" xmlns="http://www.w3.org/2000/svg" xmlns:xlink="http://www.w3.org/1999/xlink" viewBox="0 0 220 167"><defs><radialGradient id="radial-gradient" cx="-662.52" cy="-28.95" r="5.44" gradientTransform="matrix(-1.18, 0.07, 0.07, 1.18, -636.55, 99.23)" gradientUnits="userSpaceOnUse"><stop offset="0" stop-color="#fff" stop-opacity="0"/><stop offset="0.88" stop-color="#4c4c4c" stop-opacity="0.7"/><stop offset="1"/></radialGradient></defs><title>zoom-circle-b-wood</title><g id="Zoom_Circle" data-name="Zoom Circle"><path d="M142.8,15.59a3.59,3.59,0,0,1,.2,7.17h-.22a3.59,3.59,0,0,1-.2-7.17h.22m0-6.27c-.19,0-.39,0-.59,0a9.86,9.86,0,0,0,.57,19.7h.59a9.86,9.86,0,0,0-.57-19.71Z" style="fill:#707070"/><path d="M142.79,25.61a6.43,6.43,0,0,1-.38-12.85h.39a6.43,6.43,0,0,1,.37,12.85Z" style="fill-rule:evenodd;fill:url(#radial-gradient)"/><path d="M142.8,14a5.15,5.15,0,0,1,.29,10.29h-.3a5.14,5.14,0,0,1-5.13-4.85A5.15,5.15,0,0,1,142.49,14h.31m0-2.57-.46,0a7.72,7.72,0,0,0,.45,15.42h.45a7.72,7.72,0,0,0-.44-15.43Z" style="fill:#fff"/></g></svg>