<svg id="Zoom_Circle_-_B_Coconut" data-name="Zoom Circle - B Coconut" xmlns="http://www.w3.org/2000/svg" xmlns:xlink="http://www.w3.org/1999/xlink" viewBox="0 0 220 167"><defs><radialGradient id="radial-gradient" cx="-685.55" cy="-10.86" r="5.44" gradientTransform="matrix(-1.18, 0.08, 0.08, 1.18, -656.78, 103.12)" gradientUnits="userSpaceOnUse"><stop offset="0" stop-color="#fff" stop-opacity="0"/><stop offset="0.88" stop-color="#4c4c4c" stop-opacity="0.7"/><stop offset="1"/></radialGradient></defs><title>zoom-circle-b-coconut</title><g id="Zoom_Circle" data-name="Zoom Circle"><path d="M150.41,32a3.58,3.58,0,0,1,.23,7.16h-.25a3.58,3.58,0,0,1-.24-7.16h.26m0-6.28c-.23,0-.45,0-.68,0a9.86,9.86,0,0,0,.66,19.7l.67,0a9.87,9.87,0,0,0-.65-19.71Z" style="fill:#707070"/><path d="M150.39,42A6.45,6.45,0,0,1,144,36a6.43,6.43,0,0,1,6-6.85l.44,0a6.44,6.44,0,0,1,4.84,10.67A6.36,6.36,0,0,1,150.83,42Z" style="fill-rule:evenodd;fill:url(#radial-gradient)"/><path d="M150.4,30.4a5.15,5.15,0,0,1,5.13,4.8,5.15,5.15,0,0,1-4.79,5.48h-.35a5.15,5.15,0,0,1-.34-10.28h.35m0-2.57a4.78,4.78,0,0,0-.53,0,7.72,7.72,0,0,0,.52,15.42l.53,0a7.72,7.72,0,0,0-.52-15.42Z" style="fill:#fff"/></g></svg>