<svg id="Zoom_Fade_-_A_Stone" data-name="Zoom Fade - A Stone" xmlns="http://www.w3.org/2000/svg" xmlns:xlink="http://www.w3.org/1999/xlink" viewBox="0 0 220 167"><defs><linearGradient id="linear-gradient" x1="157.4" y1="-77.56" x2="200.87" y2="41.88" gradientTransform="translate(-74.79 49.4) rotate(10.79)" gradientUnits="userSpaceOnUse"><stop offset="0" stop-color="#fff"/><stop offset="1" stop-color="#fff" stop-opacity="0"/></linearGradient></defs><title>zoom-fade-a-stone</title><path id="Fade" d="M216,92.46,93.21,2.85s6,12.71-4.26,13.46S81.39,4.82,81.39,4.82l-71,140.23C59.18,69,136.85,49.54,216,92.46Z" style="opacity:0.7000000000000001;fill:url(#linear-gradient)"/><g id="Daahed_Line_2" data-name="Daahed Line 2"><polygon points="93.74 2.12 104.92 10.09 103.68 11.79 92.68 3.58 93.74 2.12" style="fill:#707070"/><polygon points="107.71 12.08 118.88 20.05 117.42 22.05 106.43 13.84 107.71 12.08" style="fill:#707070"/><polygon points="121.67 22.05 132.85 30.01 131.16 32.32 120.17 24.11 121.67 22.05" style="fill:#707070"/><polygon points="135.64 32.01 146.81 39.97 144.91 42.58 133.91 34.37 135.64 32.01" style="fill:#707070"/><polygon points="149.6 41.97 160.78 49.93 158.65 52.85 147.65 44.64 149.6 41.97" style="fill:#707070"/><polygon points="163.57 51.93 174.74 59.89 172.39 63.12 161.4 54.9 163.57 51.93" style="fill:#707070"/><polygon points="177.53 61.89 188.71 69.85 186.13 73.38 175.14 65.17 177.53 61.89" style="fill:#707070"/><polygon points="191.5 71.85 202.67 79.81 199.88 83.65 188.88 75.43 191.5 71.85" style="fill:#707070"/><polygon points="205.47 81.81 216.64 89.78 213.62 93.91 202.62 85.7 205.47 81.81" style="fill:#707070"/></g><g id="Daahed_Line_1" data-name="Daahed Line 1"><polygon points="82.2 5.23 76.14 17.54 74.24 16.58 80.57 4.4 82.2 5.23" style="fill:#707070"/><polygon points="74.62 20.61 68.55 32.92 66.33 31.8 72.66 19.62 74.62 20.61" style="fill:#707070"/><polygon points="67.03 36 60.96 48.31 58.42 47.02 64.75 34.84 67.03 36" style="fill:#707070"/><polygon points="59.44 51.38 53.37 63.69 50.51 62.24 56.84 50.07 59.44 51.38" style="fill:#707070"/><polygon points="51.85 66.77 45.78 79.07 42.6 77.46 48.93 65.29 51.85 66.77" style="fill:#707070"/><polygon points="44.27 82.15 38.2 94.46 34.69 92.68 41.02 80.51 44.27 82.15" style="fill:#707070"/><polygon points="36.68 97.53 30.61 109.84 26.78 107.9 33.11 95.73 36.68 97.53" style="fill:#707070"/><polygon points="29.09 112.92 23.02 125.23 18.87 123.12 25.2 110.95 29.09 112.92" style="fill:#707070"/><polygon points="21.5 128.3 15.44 140.61 10.96 138.34 17.29 126.17 21.5 128.3" style="fill:#707070"/><polygon points="13.92 143.69 12.67 146.21 8.08 143.89 9.38 141.39 13.92 143.69" style="fill:#707070"/></g></svg>