<svg id="Zoom_Circle_-_A_Wood" data-name="Zoom Circle - A Wood" xmlns="http://www.w3.org/2000/svg" xmlns:xlink="http://www.w3.org/1999/xlink" viewBox="0 0 220 167"><defs><radialGradient id="radial-gradient" cx="21.51" cy="-68.42" r="5.44" gradientTransform="matrix(1.18, 0.07, -0.07, 1.18, 37.39, 99.23)" gradientUnits="userSpaceOnUse"><stop offset="0" stop-color="#fff" stop-opacity="0"/><stop offset="0.88" stop-color="#4c4c4c" stop-opacity="0.7"/><stop offset="1"/></radialGradient></defs><title>zoom-circle-a-wood</title><g id="Zoom_Circle" data-name="Zoom Circle"><path d="M67.49,16.45h.22a3.54,3.54,0,0,1,2.47,1.2,3.59,3.59,0,0,1-2.67,6h-.22a3.59,3.59,0,0,1,.2-7.17m0-6.27a9.86,9.86,0,0,0-.57,19.7,5.72,5.72,0,0,0,.59,0,9.86,9.86,0,0,0,.56-19.71Z" style="fill:#707070"/><path d="M67.5,26.47h-.38a6.43,6.43,0,0,1,.37-12.85h.38a6.43,6.43,0,0,1-.37,12.85Z" style="fill-rule:evenodd;fill:url(#radial-gradient)"/><path d="M67.49,14.89h.31a5.14,5.14,0,0,1-.3,10.28h-.31a5.15,5.15,0,0,1,.3-10.29m0-2.57A7.72,7.72,0,0,0,67,27.74l.46,0A7.72,7.72,0,0,0,68,12.33Z" style="fill:#fff"/></g></svg>