<svg id="Zoom_Circle_-_A_Air" data-name="Zoom Circle - A Air" xmlns="http://www.w3.org/2000/svg" xmlns:xlink="http://www.w3.org/1999/xlink" viewBox="0 0 220 167"><defs><radialGradient id="radial-gradient" cx="82.47" cy="-121.37" r="5.44" gradientTransform="matrix(1.16, 0.22, -0.22, 1.16, -26.56, 138.05)" gradientUnits="userSpaceOnUse"><stop offset="0" stop-color="#fff" stop-opacity="0"/><stop offset="0.88" stop-color="#4c4c4c" stop-opacity="0.7"/><stop offset="1"/></radialGradient></defs><title>zoom-circle-a-air</title><g id="Zoom_Circle" data-name="Zoom Circle"><path d="M96,11.85a4,4,0,0,1,.68.06A3.59,3.59,0,0,1,96,19a3.82,3.82,0,0,1-.68-.07A3.59,3.59,0,0,1,96,11.85m0-6.28a9.87,9.87,0,0,0-1.84,19.56A10.72,10.72,0,0,0,96,25.3,9.86,9.86,0,0,0,97.83,5.75,9.74,9.74,0,0,0,96,5.57Z" style="fill:#707070"/><path d="M96,21.87a7.1,7.1,0,0,1-1.22-.11A6.44,6.44,0,0,1,96,9a6.21,6.21,0,0,1,1.21.12A6.43,6.43,0,0,1,96,21.87Z" style="fill-rule:evenodd;fill:url(#radial-gradient)"/><path d="M96,10.29h0a5.31,5.31,0,0,1,1,.09,5.15,5.15,0,0,1-1,10.2,5.41,5.41,0,0,1-1-.09,5.06,5.06,0,0,1-3.29-2.16,5.15,5.15,0,0,1,4.25-8m0-2.57A7.72,7.72,0,0,0,94.54,23a8.11,8.11,0,0,0,1.46.14,7.72,7.72,0,0,0,1.43-15.3A7.19,7.19,0,0,0,96,7.72Z" style="fill:#fff"/></g></svg>