<svg id="Zoom_Fade_-_B_Oil" data-name="Zoom Fade - B Oil" xmlns="http://www.w3.org/2000/svg" xmlns:xlink="http://www.w3.org/1999/xlink" viewBox="0 0 220 167"><defs><linearGradient id="linear-gradient" x1="-642.49" y1="92.14" x2="-611.29" y2="177.87" gradientTransform="matrix(-0.98, 0.18, 0.18, 0.98, -524.64, 49.26)" gradientUnits="userSpaceOnUse"><stop offset="0" stop-color="#fff"/><stop offset="1" stop-color="#fff" stop-opacity="0"/></linearGradient></defs><title>zoom-fade-b-oil</title><path id="Fade" d="M18.41,83.14,125.58,26.7s-6.12,12.65,4.13,13.51,7.68-11.41,7.68-11.41l64.07,103.63C159.71,78,95.29,52.66,18.41,83.14Z" style="opacity:0.7000000000000001;fill:url(#linear-gradient)"/><g id="Dashed_Line_2" data-name="Dashed Line 2"><polygon points="126 27.5 113.95 34.06 112.94 32.13 125.16 25.91 126 27.5" style="fill:#707070"/><polygon points="110.94 35.7 98.88 42.26 97.65 39.92 109.88 33.69 110.94 35.7" style="fill:#707070"/><polygon points="95.87 43.9 83.82 50.46 82.36 47.7 94.59 41.47 95.87 43.9" style="fill:#707070"/><polygon points="80.8 52.1 68.75 58.67 67.07 55.48 79.3 49.26 80.8 52.1" style="fill:#707070"/><polygon points="65.74 60.31 53.69 66.87 51.79 63.27 64.02 57.04 65.74 60.31" style="fill:#707070"/><polygon points="50.67 68.51 38.62 75.07 36.5 71.05 48.73 64.82 50.67 68.51" style="fill:#707070"/><polygon points="35.61 76.71 23.55 83.28 21.21 78.83 33.44 72.61 35.61 76.71" style="fill:#707070"/><polygon points="20.54 84.92 19.61 85.42 17.22 80.87 18.16 80.39 20.54 84.92" style="fill:#707070"/></g><g id="Dashed_Line_1" data-name="Dashed Line 1"><polygon points="138.16 28.32 145.54 39.89 143.66 41.05 136.61 29.28 138.16 28.32" style="fill:#707070"/><polygon points="147.38 42.78 154.76 54.35 152.49 55.76 145.43 43.99 147.38 42.78" style="fill:#707070"/><polygon points="156.6 57.25 163.97 68.82 161.31 70.47 154.25 58.7 156.6 57.25" style="fill:#707070"/><polygon points="165.82 71.72 173.19 83.29 170.13 85.18 163.07 73.41 165.82 71.72" style="fill:#707070"/><polygon points="175.04 86.18 182.41 97.76 178.95 99.9 171.89 88.13 175.04 86.18" style="fill:#707070"/><polygon points="184.25 100.65 191.63 112.22 187.77 114.61 180.71 102.84 184.25 100.65" style="fill:#707070"/><polygon points="193.47 115.12 200.85 126.69 196.59 129.32 189.53 117.55 193.47 115.12" style="fill:#707070"/><polygon points="202.69 129.58 203.65 131.08 199.27 133.79 198.35 132.26 202.69 129.58" style="fill:#707070"/></g></svg>