<svg id="Zoom_Fade_-_B_Air" data-name="Zoom Fade - B Air" xmlns="http://www.w3.org/2000/svg" xmlns:xlink="http://www.w3.org/1999/xlink" viewBox="0 0 220 167"><defs><linearGradient id="linear-gradient" x1="-611.14" y1="73.42" x2="-570.78" y2="184.31" gradientTransform="matrix(-0.98, 0.19, 0.19, 0.98, -492.46, 49.4)" gradientUnits="userSpaceOnUse"><stop offset="0" stop-color="#fff"/><stop offset="1" stop-color="#fff" stop-opacity="0"/></linearGradient></defs><title>zoom-fade-b-air</title><path id="Fade" d="M1.21,93.76,126.51,7.93s-6,12.77,4.3,13.53S138.37,10,138.37,10l68,130.46C156.08,69,82.88,49.06,1.21,93.76Z" style="opacity:0.7000000000000001;fill:url(#linear-gradient)"/><g id="Dashed_Line_2" data-name="Dashed Line 2"><polygon points="127.01 8.67 115.78 16.55 114.59 14.82 126 7.19 127.01 8.67" style="fill:#707070"/><polygon points="112.97 18.52 101.73 26.4 100.33 24.36 111.74 16.73 112.97 18.52" style="fill:#707070"/><polygon points="98.93 28.37 87.69 36.25 86.08 33.9 97.48 26.27 98.93 28.37" style="fill:#707070"/><polygon points="84.88 38.22 73.65 46.1 71.82 43.43 83.23 35.8 84.88 38.22" style="fill:#707070"/><polygon points="70.84 48.07 59.6 55.95 57.56 52.97 68.97 45.34 70.84 48.07" style="fill:#707070"/><polygon points="56.8 57.92 45.56 65.8 43.3 62.51 54.71 54.88 56.8 57.92" style="fill:#707070"/><polygon points="42.75 67.77 31.52 75.65 29.05 72.05 40.45 64.42 42.75 67.77" style="fill:#707070"/><polygon points="28.71 77.62 17.47 85.5 14.79 81.58 26.2 73.95 28.71 77.62" style="fill:#707070"/><polygon points="14.66 87.47 3.43 95.35 0.53 91.12 11.94 83.49 14.66 87.47" style="fill:#707070"/></g><g id="Dashed_Line_1" data-name="Dashed Line 1"><polygon points="139.41 9.74 145.88 21.84 143.99 22.83 137.79 10.59 139.41 9.74" style="fill:#707070"/><polygon points="147.5 24.87 153.97 36.97 151.73 38.14 145.53 25.89 147.5 24.87" style="fill:#707070"/><polygon points="155.59 40 162.06 52.1 159.47 53.44 153.28 41.2 155.59 40" style="fill:#707070"/><polygon points="163.68 55.12 170.15 67.22 167.22 68.75 161.02 56.5 163.68 55.12" style="fill:#707070"/><polygon points="171.77 70.25 178.24 82.35 174.97 84.05 168.77 71.81 171.77 70.25" style="fill:#707070"/><polygon points="179.85 85.38 186.33 97.48 182.71 99.36 176.51 87.11 179.85 85.38" style="fill:#707070"/><polygon points="187.94 100.5 194.41 112.61 190.45 114.67 184.26 102.42 187.94 100.5" style="fill:#707070"/><polygon points="196.03 115.63 202.5 127.73 198.2 129.97 192 117.73 196.03 115.63" style="fill:#707070"/><polygon points="204.12 130.76 208.66 139.25 204.09 141.62 199.75 133.03 204.12 130.76" style="fill:#707070"/></g></svg>