<svg id="Zoom_Fade_-_A_Coconut" data-name="Zoom Fade - A Coconut" xmlns="http://www.w3.org/2000/svg" xmlns:xlink="http://www.w3.org/1999/xlink" viewBox="0 0 220 167"><defs><linearGradient id="linear-gradient" x1="97.43" y1="-0.29" x2="131.43" y2="93.11" gradientTransform="translate(-23.42 20.91) rotate(3.88)" gradientUnits="userSpaceOnUse"><stop offset="0" stop-color="#fff"/><stop offset="1" stop-color="#fff" stop-opacity="0"/></linearGradient></defs><title>zoom-fade-a-coconut</title><path id="Fade" d="M189.7,78.18,72.53,27.58S80,39.47,69.92,41.46,61,31,61,31l-53,118.73C45,80.17,116.6,55.56,189.7,78.18Z" style="opacity:0.7000000000000001;fill:url(#linear-gradient)"/><g id="Daahed_Line_2" data-name="Daahed Line 2"><polygon points="72.89 26.75 85.56 32.03 84.7 34.01 72.18 28.4 72.89 26.75" style="fill:#707070"/><polygon points="88.73 33.34 101.39 38.62 100.36 41.01 87.84 35.41 88.73 33.34" style="fill:#707070"/><polygon points="104.56 39.94 117.23 45.22 116.02 48.02 103.49 42.41 104.56 39.94" style="fill:#707070"/><polygon points="120.4 46.53 133.07 51.81 131.68 55.03 119.15 49.42 120.4 46.53" style="fill:#707070"/><polygon points="136.23 53.13 148.9 58.4 147.33 62.04 134.81 56.43 136.23 53.13" style="fill:#707070"/><polygon points="152.07 59.72 164.74 65 162.99 69.04 150.47 63.44 152.07 59.72" style="fill:#707070"/><polygon points="167.91 66.32 180.57 71.59 178.65 76.05 166.12 70.45 167.91 66.32" style="fill:#707070"/><polygon points="183.74 72.91 190.72 75.82 188.68 80.54 181.78 77.45 183.74 72.91" style="fill:#707070"/></g><g id="Daahed_Line_1" data-name="Daahed Line 1"><polygon points="61.87 31.32 56.44 43.93 54.45 43.04 60.2 30.58 61.87 31.32" style="fill:#707070"/><polygon points="55.08 47.08 49.65 59.68 47.26 58.61 53.01 46.15 55.08 47.08" style="fill:#707070"/><polygon points="48.29 62.83 42.86 75.43 40.07 74.19 45.82 61.73 48.29 62.83" style="fill:#707070"/><polygon points="41.5 78.58 36.07 91.19 32.88 89.76 38.63 77.3 41.5 78.58" style="fill:#707070"/><polygon points="34.71 94.34 29.28 106.94 25.69 105.34 31.44 92.88 34.71 94.34" style="fill:#707070"/><polygon points="27.92 110.09 22.49 122.69 18.5 120.91 24.25 108.45 27.92 110.09" style="fill:#707070"/><polygon points="21.13 125.84 15.7 138.44 11.31 136.49 17.06 124.03 21.13 125.84" style="fill:#707070"/><polygon points="14.34 141.59 10.4 150.72 5.7 148.63 9.87 139.6 14.34 141.59" style="fill:#707070"/></g></svg>