<svg id="Zoom_Circle_-_A_Soap" data-name="Zoom Circle - A Soap" xmlns="http://www.w3.org/2000/svg" xmlns:xlink="http://www.w3.org/1999/xlink" viewBox="0 0 220 167"><defs><radialGradient id="radial-gradient" cx="75.29" cy="-102.27" r="5.44" gradientTransform="matrix(1.16, 0.21, -0.21, 1.16, -19.8, 137.4)" gradientUnits="userSpaceOnUse"><stop offset="0" stop-color="#fff" stop-opacity="0"/><stop offset="0.88" stop-color="#4c4c4c" stop-opacity="0.7"/><stop offset="1"/></radialGradient></defs><title>zoom-circle-a-soap</title><g id="Zoom_Circle" data-name="Zoom Circle"><path d="M89.08,30.61h0a3.63,3.63,0,0,1,3,1.54,3.59,3.59,0,0,1-2.93,5.63,4.74,4.74,0,0,1-.65-.05,3.59,3.59,0,0,1,.62-7.12m0-6.28A9.86,9.86,0,0,0,87.35,43.9a9.6,9.6,0,0,0,1.76.16,9.86,9.86,0,0,0,1.73-19.57,9.6,9.6,0,0,0-1.76-.16Z" style="fill:#707070"/><path d="M89.1,40.63a7.31,7.31,0,0,1-1.14-.1,6.44,6.44,0,0,1,1.13-12.77,7.31,7.31,0,0,1,1.14.1A6.44,6.44,0,0,1,89.1,40.63Z" style="fill-rule:evenodd;fill:url(#radial-gradient)"/><path d="M89.09,29.05h0a5.59,5.59,0,0,1,.91.08,5.15,5.15,0,0,1-.9,10.21,4.67,4.67,0,0,1-.91-.08,5.15,5.15,0,0,1,.9-10.21m0-2.57a7.72,7.72,0,0,0-1.36,15.31,7.14,7.14,0,0,0,1.37.13A7.72,7.72,0,0,0,90.46,26.6a8,8,0,0,0-1.37-.12Z" style="fill:#fff"/></g></svg>