<svg id="Zoom_Fade_-_A_Wood" data-name="Zoom Fade - A Wood" xmlns="http://www.w3.org/2000/svg" xmlns:xlink="http://www.w3.org/1999/xlink" viewBox="0 0 220 167"><defs><linearGradient id="linear-gradient" x1="93.04" y1="-11.09" x2="135.44" y2="105.4" gradientTransform="matrix(1, 0.06, -0.06, 1, -21.89, 17.55)" gradientUnits="userSpaceOnUse"><stop offset="0" stop-color="#fff"/><stop offset="1" stop-color="#fff" stop-opacity="0"/></linearGradient></defs><title>zoom-fade-a-wood</title><path id="Fade" d="M207.57,87.21,71.33,12s7.58,11.83-2.49,13.91-9-10.43-9-10.43L3,161.83C44.24,75.86,120.4,48.2,207.57,87.21Z" style="opacity:0.7000000000000001;fill:url(#linear-gradient)"/><g id="Daahed_Line_2" data-name="Daahed Line 2"><polygon points="71.77 11.25 83.85 17.75 82.84 19.58 70.9 12.82 71.77 11.25" style="fill:#707070"/><polygon points="86.88 19.37 98.96 25.87 97.77 28.03 85.83 21.27 86.88 19.37" style="fill:#707070"/><polygon points="101.98 27.5 114.07 34 112.7 36.48 100.76 29.72 101.98 27.5" style="fill:#707070"/><polygon points="117.09 35.62 129.18 42.12 127.63 44.92 115.69 38.16 117.09 35.62" style="fill:#707070"/><polygon points="132.2 43.75 144.28 50.25 142.56 53.37 130.62 46.61 132.2 43.75" style="fill:#707070"/><polygon points="147.3 51.87 159.39 58.37 157.49 61.82 145.54 55.06 147.3 51.87" style="fill:#707070"/><polygon points="162.41 60 174.5 66.5 172.41 70.27 160.47 63.51 162.41 60" style="fill:#707070"/><polygon points="177.52 68.12 189.6 74.62 187.34 78.72 175.4 71.96 177.52 68.12" style="fill:#707070"/><polygon points="192.62 76.25 204.71 82.75 202.27 87.17 190.33 80.41 192.62 76.25" style="fill:#707070"/><polygon points="207.73 84.37 208.81 84.95 206.32 89.46 205.26 88.86 207.73 84.37" style="fill:#707070"/></g><g id="Daahed_Line_1" data-name="Daahed Line 1"><polygon points="60.72 15.84 55.88 28.69 53.91 27.92 59.01 15.18 60.72 15.84" style="fill:#707070"/><polygon points="54.67 31.9 49.84 44.74 47.52 43.84 52.63 31.1 54.67 31.9" style="fill:#707070"/><polygon points="48.63 47.95 43.79 60.79 41.14 59.76 46.25 47.02 48.63 47.95" style="fill:#707070"/><polygon points="42.59 64 37.75 76.85 34.76 75.69 39.87 62.95 42.59 64" style="fill:#707070"/><polygon points="36.54 80.06 31.71 92.9 28.38 91.61 33.48 78.87 36.54 80.06" style="fill:#707070"/><polygon points="30.5 96.11 25.66 108.95 22 107.53 27.1 94.79 30.5 96.11" style="fill:#707070"/><polygon points="24.45 112.16 19.62 125.01 15.62 123.45 20.72 110.71 24.45 112.16" style="fill:#707070"/><polygon points="18.41 128.22 13.57 141.06 9.23 139.37 14.34 126.64 18.41 128.22" style="fill:#707070"/><polygon points="12.37 144.27 7.53 157.11 2.85 155.29 7.96 142.56 12.37 144.27" style="fill:#707070"/><polygon points="6.32 160.32 5.4 162.76 0.61 160.9 1.58 158.48 6.32 160.32" style="fill:#707070"/></g></svg>