<svg id="Zoom_Fade_-_B_Stone" data-name="Zoom Fade - B Stone" xmlns="http://www.w3.org/2000/svg" xmlns:xlink="http://www.w3.org/1999/xlink" viewBox="0 0 220 167"><defs><linearGradient id="linear-gradient" x1="-707.35" y1="94.51" x2="-660.53" y2="223.16" gradientTransform="matrix(-1, 0.04, 0.04, 1, -556.88, -61.51)" gradientUnits="userSpaceOnUse"><stop offset="0" stop-color="#fff"/><stop offset="1" stop-color="#fff" stop-opacity="0"/></linearGradient></defs><title>zoom-fade-b-stone</title><path id="Fade" d="M12.52,86.43,154.07,2.23s-7.76,11.71,2.27,13.94,9.14-10.29,9.14-10.29l51.66,159.8C176.31,78.15,103.16,47.59,12.52,86.43Z" style="opacity:0.7000000000000001;fill:url(#linear-gradient)"/><g id="Dashed_Line_2" data-name="Dashed Line 2"><polygon points="154.53 3 142.8 10.13 141.74 8.35 153.61 1.46 154.53 3" style="fill:#707070"/><polygon points="139.87 11.92 128.15 19.05 126.91 16.97 138.78 10.07 139.87 11.92" style="fill:#707070"/><polygon points="125.22 20.84 113.5 27.97 112.08 25.59 123.95 18.69 125.22 20.84" style="fill:#707070"/><polygon points="110.57 29.76 98.85 36.89 97.25 34.21 109.11 27.31 110.57 29.76" style="fill:#707070"/><polygon points="95.92 38.68 84.19 45.81 82.42 42.83 94.28 35.93 95.92 38.68" style="fill:#707070"/><polygon points="81.26 47.59 69.54 54.73 67.59 51.45 79.45 44.55 81.26 47.59" style="fill:#707070"/><polygon points="66.61 56.51 54.89 63.65 52.76 60.07 64.62 53.17 66.61 56.51" style="fill:#707070"/><polygon points="51.96 65.43 40.24 72.57 37.93 68.69 49.79 61.79 51.96 65.43" style="fill:#707070"/><polygon points="37.31 74.35 25.59 81.49 23.1 77.31 34.96 70.41 37.31 74.35" style="fill:#707070"/><polygon points="22.66 83.27 13.84 88.64 11.21 84.22 20.13 79.03 22.66 83.27" style="fill:#707070"/></g><g id="Dashed_Line_1" data-name="Dashed Line 1"><polygon points="166.35 5.6 170.7 18.61 168.7 19.26 164.61 6.16 166.35 5.6" style="fill:#707070"/><polygon points="171.79 21.87 176.14 34.88 173.82 35.63 169.73 22.54 171.79 21.87" style="fill:#707070"/><polygon points="177.23 38.14 181.58 51.15 178.93 52.01 174.84 38.91 177.23 38.14" style="fill:#707070"/><polygon points="182.66 54.41 187.01 67.42 184.05 68.38 179.96 55.28 182.66 54.41" style="fill:#707070"/><polygon points="188.1 70.67 192.45 83.69 189.16 84.75 185.07 71.65 188.1 70.67" style="fill:#707070"/><polygon points="193.54 86.94 197.89 99.96 194.28 101.13 190.19 88.03 193.54 86.94" style="fill:#707070"/><polygon points="198.98 103.21 203.33 116.23 199.39 117.5 195.3 104.4 198.98 103.21" style="fill:#707070"/><polygon points="204.41 119.48 208.76 132.5 204.51 133.87 200.42 120.77 204.41 119.48" style="fill:#707070"/><polygon points="209.85 135.75 214.2 148.76 209.62 150.24 205.53 137.15 209.85 135.75" style="fill:#707070"/><polygon points="215.29 152.02 219.59 164.89 214.69 166.47 210.65 153.52 215.29 152.02" style="fill:#707070"/></g></svg>