<svg id="Zoom_Fade_-_A_Air" data-name="Zoom Fade - A Air" xmlns="http://www.w3.org/2000/svg" xmlns:xlink="http://www.w3.org/1999/xlink" viewBox="0 0 220 167"><defs><linearGradient id="linear-gradient" x1="162.69" y1="-72.84" x2="201.83" y2="34.68" gradientTransform="translate(-74.79 49.4) rotate(10.79)" gradientUnits="userSpaceOnUse"><stop offset="0" stop-color="#fff"/><stop offset="1" stop-color="#fff" stop-opacity="0"/></linearGradient></defs><title>zoom-fade-a-air</title><path id="Fade" d="M218.14,94,100.86,7.93s6,12.77-4.3,13.53S89,10,89,10L14.12,137.92C70.14,63.38,141.66,51.46,218.14,94Z" style="opacity:0.7000000000000001;fill:url(#linear-gradient)"/><g id="Daahed_Line_2" data-name="Daahed Line 2"><polygon points="101.39 7.21 112.55 15.2 111.3 16.9 100.33 8.65 101.39 7.21" style="fill:#707070"/><polygon points="115.34 17.2 126.49 25.18 125.01 27.21 114.04 18.96 115.34 17.2" style="fill:#707070"/><polygon points="129.28 27.18 140.44 35.17 138.72 37.51 127.75 29.27 129.28 27.18" style="fill:#707070"/><polygon points="143.23 37.17 154.38 45.16 152.43 47.82 141.47 39.57 143.23 37.17" style="fill:#707070"/><polygon points="157.17 47.16 168.33 55.15 166.15 58.13 155.18 49.88 157.17 47.16" style="fill:#707070"/><polygon points="171.12 57.15 182.28 65.14 179.86 68.43 168.89 60.19 171.12 57.15" style="fill:#707070"/><polygon points="185.06 67.14 196.22 75.13 193.57 78.74 182.6 70.5 185.06 67.14" style="fill:#707070"/><polygon points="199.01 77.12 210.17 85.11 207.28 89.05 196.31 80.8 199.01 77.12" style="fill:#707070"/><polygon points="212.96 87.11 219.66 91.91 216.61 96.06 210.02 91.11 212.96 87.11" style="fill:#707070"/></g><g id="Daahed_Line_1" data-name="Daahed Line 1"><polygon points="89.78 10.44 82.98 22.36 81.14 21.29 88.2 9.52 89.78 10.44" style="fill:#707070"/><polygon points="81.28 25.34 74.48 37.27 72.31 35.99 79.37 24.23 81.28 25.34" style="fill:#707070"/><polygon points="72.79 40.24 65.99 52.16 63.48 50.7 70.54 38.93 72.79 40.24" style="fill:#707070"/><polygon points="64.29 55.15 57.49 67.07 54.65 65.41 61.72 53.64 64.29 55.15" style="fill:#707070"/><polygon points="55.79 70.05 48.99 81.97 45.82 80.11 52.89 68.35 55.79 70.05" style="fill:#707070"/><polygon points="47.29 84.95 40.49 96.87 36.99 94.82 44.06 83.05 47.29 84.95" style="fill:#707070"/><polygon points="38.79 99.85 32 111.77 28.16 109.53 35.23 97.76 38.79 99.85" style="fill:#707070"/><polygon points="30.3 114.75 23.5 126.67 19.34 124.23 26.4 112.47 30.3 114.75" style="fill:#707070"/><polygon points="21.8 129.65 16.34 139.22 11.89 136.63 17.57 127.17 21.8 129.65" style="fill:#707070"/></g></svg>