<svg id="Mixing_View_Label_A_B" data-name="Mixing View Label A B" xmlns="http://www.w3.org/2000/svg" xmlns:xlink="http://www.w3.org/1999/xlink" viewBox="0 0 304 129"><defs><linearGradient id="linear-gradient" x1="49.76" y1="88.95" x2="99.67" y2="88.95" gradientUnits="userSpaceOnUse"><stop offset="0" stop-color="#8dd3ca"/><stop offset="0.5" stop-color="#8dd3ca" stop-opacity="0"/><stop offset="1" stop-color="#8dd3ca"/></linearGradient><radialGradient id="radial-gradient" cx="240.43" cy="1007.81" r="21.45" gradientTransform="translate(-110.54 22.39) scale(0.77 0.09)" gradientUnits="userSpaceOnUse"><stop offset="0" stop-color="#fff" stop-opacity="0.4"/><stop offset="1"/></radialGradient><linearGradient id="linear-gradient-2" x1="82.78" y1="64.55" x2="89.25" y2="64.21" gradientUnits="userSpaceOnUse"><stop offset="0" stop-color="#fff" stop-opacity="0"/><stop offset="0.14" stop-color="#fff" stop-opacity="0.15"/><stop offset="0.38" stop-color="#fff" stop-opacity="0.39"/><stop offset="0.56" stop-color="#fff" stop-opacity="0.54"/><stop offset="0.66" stop-color="#fff" stop-opacity="0.6"/><stop offset="0.71" stop-color="#fff" stop-opacity="0.54"/><stop offset="0.8" stop-color="#fff" stop-opacity="0.39"/><stop offset="0.93" stop-color="#fff" stop-opacity="0.15"/><stop offset="1" stop-color="#fff" stop-opacity="0"/></linearGradient><linearGradient id="linear-gradient-3" x1="81.03" y1="90.12" x2="90.38" y2="89.63" xlink:href="#linear-gradient-2"/><linearGradient id="linear-gradient-4" x1="67.11" y1="61.62" x2="77.6" y2="61.62" gradientUnits="userSpaceOnUse"><stop offset="0" stop-color="#fff" stop-opacity="0.4"/><stop offset="0.4" stop-color="#fff" stop-opacity="0.35"/><stop offset="1" stop-color="#fff" stop-opacity="0.52"/></linearGradient><linearGradient id="linear-gradient-5" x1="81.09" y1="87.72" x2="78.18" y2="52.2" gradientUnits="userSpaceOnUse"><stop offset="0" stop-color="#136999" stop-opacity="0"/><stop offset="0.43" stop-color="#136999" stop-opacity="0.27"/><stop offset="1" stop-color="#136999" stop-opacity="0.6"/></linearGradient><linearGradient id="linear-gradient-6" x1="-1486.1" y1="111.69" x2="-1486.1" y2="108.17" gradientTransform="matrix(-1, 0.08, 0.08, 1, -1410.15, 63.81)" gradientUnits="userSpaceOnUse"><stop offset="0" stop-color="#61e9ff" stop-opacity="0"/><stop offset="1" stop-color="#136999" stop-opacity="0.7"/></linearGradient><linearGradient id="linear-gradient-7" x1="-1479.71" y1="151.41" x2="-1479.71" y2="111.36" gradientTransform="matrix(-1, 0.08, 0.08, 1, -1410.15, 63.81)" gradientUnits="userSpaceOnUse"><stop offset="0" stop-color="#61e9ff" stop-opacity="0"/><stop offset="1" stop-color="#136999" stop-opacity="0.5"/></linearGradient><linearGradient id="linear-gradient-8" x1="79.6" y1="90.61" x2="76.26" y2="49.87" gradientUnits="userSpaceOnUse"><stop offset="0" stop-color="#136999" stop-opacity="0"/><stop offset="0.35" stop-color="#136999" stop-opacity="0.5"/><stop offset="0.36" stop-color="#156a9a" stop-opacity="0.5"/><stop offset="0.45" stop-color="#5c97b8" stop-opacity="0.59"/><stop offset="0.53" stop-color="#96bcd2" stop-opacity="0.67"/><stop offset="0.62" stop-color="#c4d9e5" stop-opacity="0.72"/><stop offset="0.69" stop-color="#e4eef3" stop-opacity="0.77"/><stop offset="0.76" stop-color="#f8fbfc" stop-opacity="0.79"/><stop offset="0.81" stop-color="#fff" stop-opacity="0.8"/><stop offset="1" stop-color="#fff" stop-opacity="0.5"/></linearGradient><linearGradient id="linear-gradient-9" x1="64.24" y1="92.25" x2="64.24" y2="57.48" xlink:href="#linear-gradient-5"/><linearGradient id="linear-gradient-10" x1="65.14" y1="59.16" x2="65.14" y2="55.47" gradientTransform="matrix(1, 0, 0, 1, 0, 0)" xlink:href="#linear-gradient-6"/><linearGradient id="linear-gradient-11" x1="69.73" y1="96.77" x2="69.73" y2="58.66" gradientTransform="matrix(1, 0, 0, 1, 0, 0)" xlink:href="#linear-gradient-7"/><linearGradient id="linear-gradient-12" x1="67.66" y1="95.88" x2="67.66" y2="54.59" xlink:href="#linear-gradient-8"/><radialGradient id="radial-gradient-2" cx="74.43" cy="106.98" r="13.11" gradientTransform="translate(0 94.36) scale(1 0.12)" gradientUnits="userSpaceOnUse"><stop offset="0" stop-opacity="0.4"/><stop offset="1" stop-color="#136999"/></radialGradient><linearGradient id="linear-gradient-13" x1="74.47" y1="116.72" x2="74.47" y2="87.15" gradientUnits="userSpaceOnUse"><stop offset="0.23" stop-color="#136999"/><stop offset="1" stop-color="#fff" stop-opacity="0"/></linearGradient><linearGradient id="linear-gradient-14" x1="74.6" y1="85.91" x2="74.6" y2="91.78" gradientUnits="userSpaceOnUse"><stop offset="0.28" stop-color="#136999" stop-opacity="0"/><stop offset="0.42" stop-color="#136999" stop-opacity="0.02"/><stop offset="0.52" stop-color="#136999" stop-opacity="0.08"/><stop offset="0.61" stop-color="#136999" stop-opacity="0.18"/><stop offset="0.69" stop-color="#136999" stop-opacity="0.32"/><stop offset="0.76" stop-color="#136999" stop-opacity="0.5"/><stop offset="0.83" stop-color="#136999" stop-opacity="0.73"/><stop offset="0.89" stop-color="#136999" stop-opacity="0.99"/><stop offset="0.9" stop-color="#136999"/></linearGradient><linearGradient id="linear-gradient-15" x1="64.5" y1="86.85" x2="64.5" y2="90.44" gradientUnits="userSpaceOnUse"><stop offset="0.31" stop-color="#136999"/><stop offset="0.4" stop-color="#136999" stop-opacity="0.93"/><stop offset="0.55" stop-color="#136999" stop-opacity="0.75"/><stop offset="0.74" stop-color="#136999" stop-opacity="0.46"/><stop offset="0.97" stop-color="#136999" stop-opacity="0.05"/><stop offset="1" stop-color="#136999" stop-opacity="0"/></linearGradient><linearGradient id="linear-gradient-16" x1="-964.01" y1="92.04" x2="-976.39" y2="92.04" gradientTransform="matrix(-1, 0, 0, 1, -880, 0)" gradientUnits="userSpaceOnUse"><stop offset="0" stop-color="#fff" stop-opacity="0"/><stop offset="1" stop-color="#fff"/></linearGradient><linearGradient id="linear-gradient-17" x1="65.44" y1="91.95" x2="53.5" y2="91.95" gradientTransform="matrix(1, 0, 0, 1, 0, 0)" xlink:href="#linear-gradient-16"/><linearGradient id="linear-gradient-18" x1="50.71" y1="64.72" x2="98.31" y2="64.72" gradientUnits="userSpaceOnUse"><stop offset="0" stop-color="#fff" stop-opacity="0.8"/><stop offset="0.4" stop-color="#fff" stop-opacity="0.35"/><stop offset="1" stop-color="#fff"/></linearGradient><linearGradient id="linear-gradient-19" x1="62.37" y1="114.35" x2="71.04" y2="114.2" gradientUnits="userSpaceOnUse"><stop offset="0.08" stop-color="#fff" stop-opacity="0"/><stop offset="0.15" stop-color="#fff" stop-opacity="0.21"/><stop offset="0.27" stop-color="#fff" stop-opacity="0.54"/><stop offset="0.37" stop-color="#fff" stop-opacity="0.79"/><stop offset="0.45" stop-color="#fff" stop-opacity="0.94"/><stop offset="0.48" stop-color="#fff"/><stop offset="0.52" stop-color="#fff" stop-opacity="0.94"/><stop offset="0.6" stop-color="#fff" stop-opacity="0.79"/><stop offset="0.7" stop-color="#fff" stop-opacity="0.54"/><stop offset="0.82" stop-color="#fff" stop-opacity="0.21"/><stop offset="0.89" stop-color="#fff" stop-opacity="0"/></linearGradient><linearGradient id="linear-gradient-20" x1="58.23" y1="90.97" x2="69.42" y2="90.19" xlink:href="#linear-gradient-19"/><linearGradient id="linear-gradient-21" x1="56.38" y1="65.34" x2="65.71" y2="68.37" xlink:href="#linear-gradient-19"/><linearGradient id="linear-gradient-22" x1="55.25" y1="67.1" x2="69.47" y2="67.1" gradientUnits="userSpaceOnUse"><stop offset="0" stop-color="#fff" stop-opacity="0"/><stop offset="0.09" stop-color="#fff" stop-opacity="0.21"/><stop offset="0.23" stop-color="#fff" stop-opacity="0.54"/><stop offset="0.35" stop-color="#fff" stop-opacity="0.79"/><stop offset="0.44" stop-color="#fff" stop-opacity="0.94"/><stop offset="0.48" stop-color="#fff"/><stop offset="0.53" stop-color="#fff" stop-opacity="0.94"/><stop offset="0.62" stop-color="#fff" stop-opacity="0.79"/><stop offset="0.75" stop-color="#fff" stop-opacity="0.54"/><stop offset="0.91" stop-color="#fff" stop-opacity="0.21"/><stop offset="1" stop-color="#fff" stop-opacity="0"/></linearGradient><linearGradient id="linear-gradient-23" x1="81.79" y1="60.52" x2="90.9" y2="63.48" xlink:href="#linear-gradient-19"/><linearGradient id="linear-gradient-24" x1="-336.78" y1="996.84" x2="-284.15" y2="996.84" gradientTransform="matrix(-0.4, 0.92, 0.92, 0.4, -924.55, -73.57)" xlink:href="#linear-gradient"/><linearGradient id="linear-gradient-25" x1="-303.8" y1="998.94" x2="-296.73" y2="999.44" gradientTransform="matrix(-0.4, 0.92, 0.92, 0.4, -924.55, -73.57)" xlink:href="#linear-gradient-2"/><radialGradient id="radial-gradient-3" cx="-310.69" cy="-1909.99" r="13.11" gradientTransform="matrix(-0.4, 0.92, -0.11, -0.05, -198.35, 245.35)" xlink:href="#radial-gradient-2"/><linearGradient id="linear-gradient-26" x1="-356.91" y1="951.64" x2="-378.65" y2="942.4" gradientTransform="matrix(-0.38, 0.92, 0.92, 0.38, -904.26, 36.43)" gradientUnits="userSpaceOnUse"><stop offset="0.28" stop-color="#136999"/><stop offset="1" stop-color="#fff" stop-opacity="0"/></linearGradient><linearGradient id="linear-gradient-27" x1="110.75" y1="55.59" x2="110.19" y2="46.78" gradientUnits="userSpaceOnUse"><stop offset="0" stop-color="#666" stop-opacity="0"/><stop offset="0.08" stop-color="#58666e" stop-opacity="0.17"/><stop offset="0.21" stop-color="#43677b" stop-opacity="0.42"/><stop offset="0.35" stop-color="#326886" stop-opacity="0.63"/><stop offset="0.5" stop-color="#24688e" stop-opacity="0.79"/><stop offset="0.65" stop-color="#1b6994" stop-opacity="0.91"/><stop offset="0.81" stop-color="#156998" stop-opacity="0.98"/><stop offset="1" stop-color="#136999"/></linearGradient><radialGradient id="radial-gradient-4" cx="-260.64" cy="3533.4" r="21.08" gradientTransform="matrix(-0.31, 0.7, 0.08, 0.04, -238.08, 107.18)" gradientUnits="userSpaceOnUse"><stop offset="0" stop-color="#fff" stop-opacity="0.4"/><stop offset="0.4" stop-color="#8c8c8c" stop-opacity="0.67"/><stop offset="0.79" stop-color="#272727" stop-opacity="0.91"/><stop offset="1"/></radialGradient><linearGradient id="linear-gradient-28" x1="-268.81" y1="3544.29" x2="-252.42" y2="3522.73" gradientTransform="matrix(-0.31, 0.7, 0.33, 0.14, -1107.61, -274.69)" gradientUnits="userSpaceOnUse"><stop offset="0" stop-color="#fff"/><stop offset="0.07" stop-color="#fff" stop-opacity="0.91"/><stop offset="0.21" stop-color="#fff" stop-opacity="0.76"/><stop offset="0.35" stop-color="#fff" stop-opacity="0.63"/><stop offset="0.5" stop-color="#fff" stop-opacity="0.53"/><stop offset="0.66" stop-color="#fff" stop-opacity="0.46"/><stop offset="0.82" stop-color="#fff" stop-opacity="0.41"/><stop offset="1" stop-color="#fff" stop-opacity="0.4"/></linearGradient><linearGradient id="linear-gradient-29" x1="-578.88" y1="998.22" x2="-591.19" y2="998.22" gradientTransform="translate(-570.7 -879.29) rotate(-66.29)" xlink:href="#linear-gradient-16"/><linearGradient id="linear-gradient-30" x1="-319.59" y1="998.17" x2="-331.62" y2="998.17" gradientTransform="matrix(-0.4, 0.92, 0.92, 0.4, -924.55, -73.57)" xlink:href="#linear-gradient-16"/><linearGradient id="linear-gradient-31" x1="-335" y1="974.73" x2="-285.94" y2="974.73" gradientTransform="matrix(-0.4, 0.92, 0.92, 0.4, -924.55, -73.57)" xlink:href="#linear-gradient-18"/><linearGradient id="linear-gradient-32" x1="-321.45" y1="-1895.31" x2="-307.52" y2="-1895.56" gradientTransform="translate(-1728 -426.42) rotate(113.71)" xlink:href="#linear-gradient-19"/><linearGradient id="linear-gradient-33" x1="-324.49" y1="995.02" x2="-305.96" y2="995.02" gradientTransform="matrix(-0.4, 0.92, 0.92, 0.4, -924.55, -73.57)" xlink:href="#linear-gradient-19"/><linearGradient id="linear-gradient-34" x1="-323.53" y1="-1945.99" x2="-307.16" y2="-1940.67" gradientTransform="translate(-1813.77 -464.09) rotate(113.71)" xlink:href="#linear-gradient-19"/><linearGradient id="linear-gradient-35" x1="-323.87" y1="-1959.66" x2="-307.3" y2="-1959.66" gradientTransform="translate(-1828.29 -470.46) rotate(113.71)" xlink:href="#linear-gradient-22"/><linearGradient id="linear-gradient-36" x1="354.71" y1="-392.83" x2="407.34" y2="-392.83" gradientTransform="matrix(0.48, 0.88, -0.88, 0.48, -495.21, -97.21)" xlink:href="#linear-gradient"/><linearGradient id="linear-gradient-37" x1="387.69" y1="-390.73" x2="394.76" y2="-390.23" gradientTransform="matrix(0.48, 0.88, -0.88, 0.48, -495.21, -97.21)" xlink:href="#linear-gradient-2"/><radialGradient id="radial-gradient-5" cx="380.8" cy="-520.32" r="13.11" gradientTransform="matrix(0.48, 0.88, 0.1, -0.06, -114.76, -302.93)" xlink:href="#radial-gradient-2"/><linearGradient id="linear-gradient-38" x1="301.07" y1="-454.2" x2="279.34" y2="-463.44" gradientTransform="translate(-506.44 14.08) rotate(62.97)" xlink:href="#linear-gradient-26"/><linearGradient id="linear-gradient-39" x1="32.78" y1="58.82" x2="32.78" y2="51.86" xlink:href="#linear-gradient-27"/><radialGradient id="radial-gradient-6" cx="638.9" cy="-332.16" r="21.08" gradientTransform="matrix(0.37, 0.68, -0.08, 0.04, -250.69, -355.09)" xlink:href="#radial-gradient-4"/><linearGradient id="linear-gradient-40" x1="630.72" y1="-321.28" x2="647.11" y2="-342.84" gradientTransform="matrix(0.37, 0.68, -0.32, 0.17, -329.22, -312.63)" xlink:href="#linear-gradient-28"/><linearGradient id="linear-gradient-41" x1="-1270.37" y1="-391.45" x2="-1282.68" y2="-391.45" gradientTransform="matrix(-0.48, -0.88, -0.88, 0.48, -913.77, -871.3)" xlink:href="#linear-gradient-16"/><linearGradient id="linear-gradient-42" x1="371.9" y1="-391.5" x2="359.87" y2="-391.5" gradientTransform="matrix(0.48, 0.88, -0.88, 0.48, -495.21, -97.21)" xlink:href="#linear-gradient-16"/><linearGradient id="linear-gradient-43" x1="356.49" y1="-414.94" x2="405.55" y2="-414.94" gradientTransform="matrix(0.48, 0.88, -0.88, 0.48, -495.21, -97.21)" xlink:href="#linear-gradient-18"/><linearGradient id="linear-gradient-44" x1="370.04" y1="-505.64" x2="383.97" y2="-505.89" gradientTransform="matrix(0.48, 0.88, 0.88, -0.48, 276.69, -514.59)" xlink:href="#linear-gradient-19"/><linearGradient id="linear-gradient-45" x1="367" y1="-394.65" x2="385.53" y2="-394.65" gradientTransform="matrix(0.48, 0.88, -0.88, 0.48, -495.21, -97.21)" xlink:href="#linear-gradient-19"/><linearGradient id="linear-gradient-46" x1="367.96" y1="-556.32" x2="384.33" y2="-551" gradientTransform="matrix(0.48, 0.88, 0.88, -0.48, 359.09, -559.14)" xlink:href="#linear-gradient-19"/><linearGradient id="linear-gradient-47" x1="367.62" y1="-569.99" x2="384.18" y2="-569.99" gradientTransform="matrix(0.48, 0.88, 0.88, -0.48, 373.04, -566.68)" xlink:href="#linear-gradient-22"/></defs><title>mixing-view-label-ab-water</title><g id="Label_Water_A_B" data-name="Label Water A + B"><circle id="Backdrop" cx="87.54" cy="66.52" r="62.18" style="fill:#8dd3ca"/><path id="Label_B_Back" data-name="Label B Back" d="M134.67,57.42a332.25,332.25,0,0,1,41.51-7.68,409.23,409.23,0,0,1,41.73-2.92,375.75,375.75,0,0,1,42.29,1.5,284.12,284.12,0,0,1,43.4,7.31l-20.67,64.18a216.54,216.54,0,0,0-32.45-10.33,312.64,312.64,0,0,0-35.23-6.3,349.78,349.78,0,0,0-36.19-2.59A283.37,283.37,0,0,0,143.22,102Z" style="fill:#00bdff"/><path id="Label_A_Back" data-name="Label A Back" d="M131.73,15.14A365.47,365.47,0,0,1,204.21,1.37a385.72,385.72,0,0,1,74.37,1l-10,60.88a328,328,0,0,0-62.75-8.38,315.38,315.38,0,0,0-63.74,4.46Z" style="fill:#ebd900"/><g id="Label_B" data-name="Label B"><path d="M155.38,85.6c-.49,0-.91,0-1.24,0a4.14,4.14,0,0,0-.72,0,.11.11,0,0,1,0-.1c0-.51-.07-.84-.07-1l0-1.33V82a5,5,0,0,0-.11-1.58h-.07c-.6,0-1.56-.08-2.87-.19a7.05,7.05,0,0,1-2-.26,14.15,14.15,0,0,0,0-1.65c-.05-.79-.07-1.24-.07-1.36a5.13,5.13,0,0,0,.94,0l2-.1a19.56,19.56,0,0,0,2.38-.21c0-1.68,0-2.8,0-3.36a17.29,17.29,0,0,1,.21-2c.11.12.51.18,1.19.18a9.52,9.52,0,0,0,1.08,0h.55a3.6,3.6,0,0,1,.57,0v1c0,2.71,0,4.12.07,4.23a10.59,10.59,0,0,0,1.23,0h1.61a14.39,14.39,0,0,1,2.2.1c0,.33,0,.8,0,1.4s0,1.33-.11,2a14.33,14.33,0,0,1-2.66.11c-.77,0-1.31,0-1.63.05a1.07,1.07,0,0,0-.64.23.75.75,0,0,0-.18.56,3.5,3.5,0,0,0,0,.49c0,.21,0,.48,0,.8,0,.68,0,1.32-.08,1.93s-.09,1-.09,1.15v.07c0,.1-.27.14-.81.14Z" style="fill:#4d4d4d"/><path d="M185.16,77.23a.58.58,0,0,0-.07.28.67.67,0,0,0,.25.46,20.28,20.28,0,0,1,1.89,2.69,5.41,5.41,0,0,1,.59,2.59,7.46,7.46,0,0,1-.1,1.23A5.22,5.22,0,0,1,185,88.61a12.91,12.91,0,0,1-5.67,1.08l-1.68,0c-.66,0-1.15,0-1.47-.07-.94-.07-1.82-.11-2.66-.11a1,1,0,0,1-.46-.07q-.11-2.76-.1-8.26l0-11q0-3.21,0-4.83l0,0a20.45,20.45,0,0,1,5.39-.77,10.33,10.33,0,0,1,6.13,1.7c1.58,1.13,2.38,3,2.38,5.54A10.62,10.62,0,0,1,185.16,77.23ZM178,86.51c.88,0,1.49.07,1.82.07a5.61,5.61,0,0,0,2.39-.44,3.78,3.78,0,0,0,1.63-1.66,2.72,2.72,0,0,0,.28-1.26,5.71,5.71,0,0,0-.38-1.89,2.36,2.36,0,0,0-1.19-1.4,4.27,4.27,0,0,0-1.81-.49l-1.1,0a8.3,8.3,0,0,0-.91,0c-.25,0-1.08,0-2.48.07a3.92,3.92,0,0,0-.32,2,36.52,36.52,0,0,0,.46,5C176.94,86.44,177.47,86.49,178,86.51Zm0-10.29c.88,0,1.46.07,1.71.07a5.4,5.4,0,0,0,2.35-.4,2.84,2.84,0,0,0,1.26-1.46,4.77,4.77,0,0,0,.56-2.27,5.35,5.35,0,0,0-.11-1,3.13,3.13,0,0,0-1.33-2.22,5.46,5.46,0,0,0-2.8-.76q-.34,0-1.08,0a5.83,5.83,0,0,0-2.45.31l0,1-.07,2.45v1.43a12.64,12.64,0,0,0,.21,2.8Z" style="fill:#4d4d4d"/><path d="M193.84,77.79l-2.69,0H191a10.21,10.21,0,0,1-.1-1.61l0-1.72a5.25,5.25,0,0,0,0-.73,4.8,4.8,0,0,1,1.68-.25,4.16,4.16,0,0,1,1.43.18c0,.12,0,.75-.1,1.89s-.11,1.88-.11,2.2v.07Zm0,11.76-2.66,0H191a10.21,10.21,0,0,1-.1-1.61l0-1.72a5.25,5.25,0,0,0,0-.73,4.8,4.8,0,0,1,1.68-.25,3.89,3.89,0,0,1,1.4.18c0,.12,0,.75-.11,1.89s-.1,1.88-.1,2.2v.07Z" style="fill:#4d4d4d"/><path d="M220.06,65.16l0,0q-.32,3.75-1.08,11.24-.15,1.57-.55,5.62c-.26,2.69-.49,5.14-.68,7.33a2,2,0,0,1-.66.07h-2.21a9.93,9.93,0,0,1-.75-2c-.2-.74-.43-1.7-.68-2.87q-.1-.48-.27-1.17c-.1-.45-.22-1-.36-1.52h0l-.87,3.67c-.19.84-.37,1.62-.55,2.33a5.79,5.79,0,0,1-.47,1.42,9.47,9.47,0,0,1-1.71.17,10.43,10.43,0,0,1-1.33-.1h0l-.42-2.91q-1-6.72-1.5-11.6c-.35-3.25-.56-6.47-.63-9.64v0c.37,0,.93-.09,1.68-.14.49,0,1.08,0,1.78.07.07.68.14,2.1.21,4.27.16,3.57.33,6.53.51,8.86a30.8,30.8,0,0,0,.79,5.46c.35-1.24.66-2.46.94-3.66s.7-3.11,1.26-5.72l0-.14A50.19,50.19,0,0,1,214,79.37q.79,3,.87,3.18c.05.24.19.69.42,1.37q.49-5.36.75-9.8c.18-3,.28-4.67.3-5.11q.1-2.66.21-3.75v0a6.78,6.78,0,0,1,1.61-.18C218.67,65.05,219.29,65.09,220.06,65.16Z" style="fill:#4d4d4d"/><path d="M233.39,72a17.72,17.72,0,0,1,2.07.07l.91.07c0,.38.07.66.07.84v.35c0,.54,0,1.35,0,2.42,0,.89,0,2.19.07,3.92l0,3.92c0,1.68,0,3.21-.14,4.58v.46a3,3,0,0,1-.07.63.47.47,0,0,1-.39.35h-.59l-1.12,0a3.34,3.34,0,0,0-.49,0l-.39,0c-.23-.07-.35-.32-.35-.77a2.28,2.28,0,0,1,0-.63,4.84,4.84,0,0,0,0-.59,4.35,4.35,0,0,1-2.66,1.57,15.8,15.8,0,0,1-3.57.42A3.51,3.51,0,0,1,224,88.14a9.72,9.72,0,0,1-1.73-3.66,16.65,16.65,0,0,1-.56-4.24,10.28,10.28,0,0,1,.77-4.09,7.2,7.2,0,0,1,2.11-2.89,4.88,4.88,0,0,1,3-1.1l1.12,0a7.92,7.92,0,0,1,2.6.37,2.68,2.68,0,0,1,1.53,1.35,5.52,5.52,0,0,1,.07-.81c0-.46.07-.79.07-1C232.94,72,233.09,72,233.39,72Zm-3.92,3.15a4.73,4.73,0,0,0-3.06.93,3.85,3.85,0,0,0-1.52,2.29,10.53,10.53,0,0,0-.28,2.73q.16,5.64,4.55,5.39a4.23,4.23,0,0,0,2.59-.63,2.71,2.71,0,0,0,1-1.78,22.54,22.54,0,0,0,.2-3.47,20.4,20.4,0,0,0-.21-3.55,2,2,0,0,0-.9-1.42A6,6,0,0,0,229.47,75.13Z" style="fill:#4d4d4d"/><path d="M245.61,65.58v5.35l0,2q2.28-.06,5.64-.24a1.87,1.87,0,0,1,.21,1l0,.8a5.59,5.59,0,0,0,0,1.12c-2.55,0-4.45,0-5.71,0v6.54c0,1.05,0,1.8.07,2.24a4.11,4.11,0,0,0,.28,1.16,3.23,3.23,0,0,0,2.26.87,19.64,19.64,0,0,0,3.1.11c.11.93.17,1.53.17,1.78a5,5,0,0,1-.17,1.26c-.49,0-1.26,0-2.31,0a10.89,10.89,0,0,1-4.27-.67,3.42,3.42,0,0,1-2-2.66,80.58,80.58,0,0,1-.39-8.85V75.73a10.48,10.48,0,0,1-1.05,0l-2.66,0,.11-2.87c.51,0,1.73.07,3.67.07l0-3.68V67.61a19.67,19.67,0,0,1,.07-2.07,12,12,0,0,1,1.5,0l1,0A3.78,3.78,0,0,0,245.61,65.58Z" style="fill:#4d4d4d"/><path d="M256.46,80.7v.63l0,1c0,2.9,1.42,4.34,4.27,4.34a3.59,3.59,0,0,0,2.54-.78,2.86,2.86,0,0,0,.82-2.16A6.71,6.71,0,0,0,264,83a9.71,9.71,0,0,1,1.37-.1q.56,0,.84,0l.5,0a4.14,4.14,0,0,0,.69,0,21.81,21.81,0,0,1-.14,3.19,6.08,6.08,0,0,1-.84,2.27,3.58,3.58,0,0,1-2.19,1.35,13.57,13.57,0,0,1-3.41.4,15.17,15.17,0,0,1-1.56-.07,3.66,3.66,0,0,1-.89-.14,5.1,5.1,0,0,1-4-3.44,16.07,16.07,0,0,1-1-6.85c0-.18.06-.57.11-1.17s.11-1.21.19-1.84a8.11,8.11,0,0,1,.47-1.85,4.69,4.69,0,0,1,2.42-2.38,8.83,8.83,0,0,1,3.88-.84,10.38,10.38,0,0,1,2.35.28q4.75.81,4.76,7.17c0,.35,0,.86-.07,1.51a22.81,22.81,0,0,1-3.92.35q-.39,0-1.68,0c-1.85,0-3.21,0-4.1-.07A5.85,5.85,0,0,1,256.46,80.7Zm8.5-2.63a5.16,5.16,0,0,0-.54-2.13A3.94,3.94,0,0,0,263,74.29a4.26,4.26,0,0,0-.91-.31,5.4,5.4,0,0,0-1-.07,3.77,3.77,0,0,0-4.45,3.64,3.81,3.81,0,0,0-.07.56.55.55,0,0,0,.4.56,6.81,6.81,0,0,0,1.74.14c.86,0,1.59,0,2.2,0q3.36,0,3.78,0a.42.42,0,0,0,.23-.09.29.29,0,0,0,0-.19Z" style="fill:#4d4d4d"/><path d="M273.29,72.16c0,.28,0,.5,0,.65s0,.33,0,.54A6.57,6.57,0,0,1,274,73l1-.35a9.3,9.3,0,0,1,1.94-.4,19.72,19.72,0,0,1,2-.12c.56,0,.84,0,.84.07l0,2.9q0,.7,0,1.05a11.19,11.19,0,0,0-1.19-.38,7.34,7.34,0,0,0-1.68-.18,9.75,9.75,0,0,0-2.13.28,2.23,2.23,0,0,0-1.33.74,3.24,3.24,0,0,0-.32,1.85q.14,4.8.14,10.89v.14a5.5,5.5,0,0,1-1.22.14l-.79,0c-.36,0-.73,0-1.1,0l0-6q-.08-4.12-.07-6.2c0-1.12,0-2.89.07-5.32a4.57,4.57,0,0,0,.75,0l.72,0c.28,0,.65,0,1.12,0S273.29,72.11,273.29,72.16Z" style="fill:#4d4d4d"/></g><g id="Label_A" data-name="Label A"><path d="M161.34,18.88q3.47,15.23,5.49,24.64v0a7.48,7.48,0,0,1-1.5.14,9.34,9.34,0,0,1-1.61-.21h0c-.16-.46-.38-1.27-.66-2.41-.35-1.38-.67-2.51-1-3.4-1.07,0-2.48-.07-4.23-.07h-1.47s-.08.51-.25,1.44c-.21,1.28-.41,2.34-.59,3.17s-.4,1.26-.63,1.31a1.23,1.23,0,0,1-.35,0l-.93,0c-.46,0-1,0-1.56,0h-.38v0a11.19,11.19,0,0,0,.31-1.85q.88-5.54,2-11.22a91.92,91.92,0,0,1,3.13-11.36,4.17,4.17,0,0,1,.56,0h.77C159.41,19,160.36,19,161.34,18.88Zm-3.19,16q2.25,0,4,0c-1.3-7.35-2.09-11.15-2.34-11.41a1.78,1.78,0,0,0-.53-.11c-.28,0-.51.23-.7.69a23.19,23.19,0,0,0-.77,3.06c-.32,1.59-.71,3.59-1.15,6l-.32,1.75h.7C157.5,34.84,157.87,34.85,158.15,34.87Z" style="fill:#fff"/><path d="M172.36,31.79l-2.69,0h-.11a10.21,10.21,0,0,1-.1-1.61l0-1.72a5.25,5.25,0,0,0,0-.73,4.8,4.8,0,0,1,1.68-.25,4.16,4.16,0,0,1,1.43.18c0,.12,0,.75-.1,1.89s-.11,1.88-.11,2.2v.07Zm0,11.76-2.66,0h-.11a10.21,10.21,0,0,1-.1-1.61l0-1.72a5.25,5.25,0,0,0,0-.73,4.8,4.8,0,0,1,1.68-.25,3.89,3.89,0,0,1,1.4.18c0,.12,0,.75-.11,1.89s-.1,1.88-.1,2.2v.07Z" style="fill:#fff"/><path d="M198.58,19.16l0,0q-.31,3.75-1.08,11.24-.15,1.58-.55,5.62c-.26,2.69-.49,5.14-.68,7.33a2,2,0,0,1-.66.07h-2.21a9.93,9.93,0,0,1-.75-2c-.2-.74-.43-1.7-.68-2.87q-.1-.48-.27-1.17c-.1-.45-.22-1-.36-1.52h0l-.87,3.67c-.19.84-.37,1.62-.55,2.33a5.79,5.79,0,0,1-.47,1.42,9.47,9.47,0,0,1-1.71.17,10.43,10.43,0,0,1-1.33-.1h0l-.42-2.91q-1-6.72-1.5-11.6c-.35-3.25-.56-6.47-.63-9.64v0c.37,0,.93-.09,1.68-.14.49,0,1.08,0,1.78.07.07.68.14,2.1.21,4.27.16,3.57.33,6.53.51,8.86a30.8,30.8,0,0,0,.79,5.46c.35-1.24.66-2.46.94-3.66s.7-3.11,1.26-5.72l0-.14a50.19,50.19,0,0,1,1.54,5.18q.8,3,.87,3.18c0,.24.19.69.42,1.37q.5-5.36.75-9.8c.18-3,.28-4.67.3-5.11q.1-2.66.21-3.75v0a6.78,6.78,0,0,1,1.61-.18C197.19,19.05,197.81,19.09,198.58,19.16Z" style="fill:#fff"/><path d="M211.91,26a17.72,17.72,0,0,1,2.07.07l.91.07c0,.38.07.66.07.84v.35c0,.54,0,1.35,0,2.42,0,.89,0,2.19.07,3.92l0,3.92c0,1.68-.05,3.21-.14,4.58v.46a3,3,0,0,1-.07.63.47.47,0,0,1-.39.35h-.59l-1.12,0a3.34,3.34,0,0,0-.49,0l-.39,0c-.23-.07-.35-.32-.35-.77a2.28,2.28,0,0,1,0-.63,4.84,4.84,0,0,0,.05-.59,4.35,4.35,0,0,1-2.66,1.57,15.8,15.8,0,0,1-3.57.42,3.51,3.51,0,0,1-2.85-1.48,9.72,9.72,0,0,1-1.73-3.66,16.65,16.65,0,0,1-.56-4.24,10.28,10.28,0,0,1,.77-4.09,7.2,7.2,0,0,1,2.11-2.89,4.88,4.88,0,0,1,3-1.1l1.12,0a7.92,7.92,0,0,1,2.6.37,2.68,2.68,0,0,1,1.53,1.35,5.52,5.52,0,0,1,.07-.81c0-.46.07-.79.07-1S211.61,26,211.91,26ZM208,29.13a4.73,4.73,0,0,0-3.06.93,3.85,3.85,0,0,0-1.52,2.29,10.53,10.53,0,0,0-.28,2.73q.17,5.64,4.55,5.39a4.23,4.23,0,0,0,2.59-.63,2.71,2.71,0,0,0,1-1.78,22.54,22.54,0,0,0,.2-3.47,20.4,20.4,0,0,0-.21-3.55,2,2,0,0,0-.9-1.42A6,6,0,0,0,208,29.13Z" style="fill:#fff"/><path d="M224.13,19.58v5.35l0,2q2.28-.06,5.64-.24A1.87,1.87,0,0,1,230,27.7l0,.8a5.59,5.59,0,0,0,0,1.12c-2.55,0-4.45,0-5.71,0v6.54c0,1,0,1.8.07,2.24a4.11,4.11,0,0,0,.28,1.16,3.23,3.23,0,0,0,2.26.87,19.64,19.64,0,0,0,3.1.11c.11.93.17,1.53.17,1.78a5,5,0,0,1-.17,1.26c-.49,0-1.26,0-2.31,0a10.89,10.89,0,0,1-4.27-.67,3.42,3.42,0,0,1-2-2.66,80.58,80.58,0,0,1-.39-8.85V29.73a10.48,10.48,0,0,1-1,0l-2.66,0,.11-2.87c.51.05,1.73.07,3.67.07l0-3.68V21.61a19.67,19.67,0,0,1,.07-2.07,12,12,0,0,1,1.5,0l.95,0A3.78,3.78,0,0,0,224.13,19.58Z" style="fill:#fff"/><path d="M235,34.7v.63l0,1c0,2.9,1.42,4.34,4.27,4.34a3.59,3.59,0,0,0,2.54-.78,2.86,2.86,0,0,0,.82-2.16,6.71,6.71,0,0,0-.07-.77,9.71,9.71,0,0,1,1.37-.1q.56,0,.84,0l.5,0a4.14,4.14,0,0,0,.69,0,21.81,21.81,0,0,1-.14,3.19,6.08,6.08,0,0,1-.84,2.27,3.58,3.58,0,0,1-2.19,1.35,13.57,13.57,0,0,1-3.41.4,15.17,15.17,0,0,1-1.56-.07,3.66,3.66,0,0,1-.89-.14,5.1,5.1,0,0,1-4-3.44,16.07,16.07,0,0,1-1-6.85c0-.18.06-.57.11-1.17s.11-1.21.19-1.84a8.11,8.11,0,0,1,.47-1.85,4.69,4.69,0,0,1,2.42-2.38,8.83,8.83,0,0,1,3.88-.84,10.38,10.38,0,0,1,2.35.28Q246,26.62,246,33c0,.35,0,.86-.07,1.51a22.81,22.81,0,0,1-3.92.35q-.39,0-1.68,0c-1.85,0-3.21,0-4.1-.07A5.85,5.85,0,0,1,235,34.7Zm8.5-2.63a5.16,5.16,0,0,0-.54-2.13,3.94,3.94,0,0,0-1.45-1.65,4.26,4.26,0,0,0-.91-.31,5.4,5.4,0,0,0-1-.07,4.53,4.53,0,0,0-3.24.94,4.53,4.53,0,0,0-1.21,2.7,3.81,3.81,0,0,0-.07.56.55.55,0,0,0,.4.56,6.81,6.81,0,0,0,1.74.14c.86,0,1.59,0,2.2,0q3.36,0,3.78,0a.42.42,0,0,0,.23-.09.29.29,0,0,0,0-.19Z" style="fill:#fff"/><path d="M251.81,26.16c0,.28,0,.5,0,.65s0,.33,0,.54a6.57,6.57,0,0,1,.68-.32l1-.35a9.3,9.3,0,0,1,1.94-.4,19.72,19.72,0,0,1,2.05-.12c.56,0,.84,0,.84.07l0,2.9q0,.71,0,1.05a11.19,11.19,0,0,0-1.19-.38,7.34,7.34,0,0,0-1.68-.18,9.75,9.75,0,0,0-2.13.28,2.23,2.23,0,0,0-1.33.74,3.24,3.24,0,0,0-.32,1.85q.14,4.8.14,10.89v.14a5.5,5.5,0,0,1-1.22.14l-.79,0c-.36,0-.73,0-1.1,0l0-6q-.07-4.12-.07-6.2c0-1.12,0-2.89.07-5.32a4.57,4.57,0,0,0,.75,0l.72,0c.28,0,.65,0,1.12,0S251.81,26.11,251.81,26.16Z" style="fill:#fff"/></g><g id="Cups"><g id="Cup_A_copy_7" data-name="Cup A copy 7"><path d="M99.54,64.47c-.68-1.86-2.35-3-8.29-3.76a138.3,138.3,0,0,0-16.61-.86,137.52,137.52,0,0,0-16.58.86c-4.05.51-7.52,1.42-8.19,3.79-.38,1.33.19,2.38,2.26,3.2L55.54,109c0,.37.75.62,1.07.7l.42,4.06c.51,2.45,7.19,4.27,17.45,4.27s16.55-1.92,17.44-4.27l.51-4c.3-.09,1-.44,1-.84l3.8-41.17C99.18,66.91,100,65.74,99.54,64.47Z" style="opacity:0.8;fill:url(#linear-gradient)"/><path d="M90.5,113.59c0,1.09-7,3-16.07,3s-16.36-1.91-16.36-3,7.39-2.52,16.45-2.52S90.5,112.49,90.5,113.59Z" style="opacity:0.35000000000000003;fill:url(#radial-gradient)"/><path d="M89.23,63.84c-2-.19-3.64-.35-6.44-.47,0,.67,0,1.46.06,2.35,2.59-.15,4.71-.35,6.42-.56C89.26,64.66,89.25,64.22,89.23,63.84Z" style="opacity:0.30000000000000004;fill:url(#linear-gradient-2)"/><path d="M82.88,68.64c.08,9.16-.14,24.76-.81,37.52-.27,4.93.14,5.46,2.93,5.27,1.25-.08,1.08-2.41,1.42-4.94,1.14-8.51,2.63-28.33,2.83-38.32C87.37,68.37,85.22,68.53,82.88,68.64Z" style="opacity:0.30000000000000004;fill:url(#linear-gradient-3)"/><path d="M54.33,64.23c15.55-3,27.5-1.54,40.54,0A117.44,117.44,0,0,1,54.33,64.23Z" style="fill:#fff;opacity:0.30000000000000004"/><path id="lip_back_pour" data-name="lip back pour" d="M74.61,60.59c-2.61,0-5.13,0-7.5.14v1.92c2.24-.07,4.74-.1,7.52-.1h3V60.62C76.62,60.6,75.62,60.59,74.61,60.59Z" style="opacity:0.5;fill:url(#linear-gradient-4)"/><g id="outline_back_behind_pour" data-name="outline back behind pour"><path d="M67.11,62.29v1.06c2.26-.1,4.78-.16,7.53-.16,1,0,2,0,3,0V62.16c-1,0-1.94,0-3,0C71.9,62.13,69.39,62.19,67.11,62.29Z" style="fill:#4e8b9b"/><path d="M67.11,60v1.07c2.38-.1,4.91-.16,7.53-.16,1,0,2,0,3,0V59.87l-3,0C72,59.85,69.5,59.9,67.11,60Z" style="fill:#4e8b9b"/></g><g id="pour_2" data-name="pour 2"><g id="pour_back" data-name="pour back"><path d="M81.81,52.68a5,5,0,0,0-4,1.84,7.73,7.73,0,0,0-1.18,4.4,55.07,55.07,0,0,0,1,9.6c.52,3.2,1.06,6.41,1.31,9.67A25.86,25.86,0,0,1,78.17,88l-.7-.25a24,24,0,0,0,.94-9.48,89.78,89.78,0,0,0-1.31-9.61A57,57,0,0,1,76,58.91a8.49,8.49,0,0,1,1.27-4.86,4.61,4.61,0,0,1,2.06-1.59,6.59,6.59,0,0,1,1.24-.38c.42-.08.84-.09,1.26-.14Z" style="fill:url(#linear-gradient-5)"/></g><path id="pour_under" data-name="pour under" d="M82.1,49.91a11.27,11.27,0,0,0-4.28,3.88,8.55,8.55,0,0,1,3.66-1.4Z" style="fill:url(#linear-gradient-6)"/><path id="pour" d="M72.57,92.42c-1.51,3.66,2.8.37,4.11-1.8,3.76-6.24,1.92-14.31.12-25.6-.64-4.07-1-9.56,1.6-11.61C70.39,59.05,80.21,73.87,72.57,92.42Z" style="opacity:0.7000000000000001;fill:url(#linear-gradient-7)"/><g id="pour_front" data-name="pour front"><path d="M73.43,90.89A76.14,76.14,0,0,0,75.07,80a74,74,0,0,0,0-11C75,68,75,67.09,74.86,66.18s-.22-1.83-.28-2.78a17.11,17.11,0,0,1,.53-5.61,12.48,12.48,0,0,1,7.12-8.42l.24.71a9.82,9.82,0,0,0-4.3,3.09A11.84,11.84,0,0,0,75.72,58a15.82,15.82,0,0,0-.43,5.4c.17,1.8.45,3.68.57,5.52a72.94,72.94,0,0,1,0,11.16,70.72,70.72,0,0,1-1.7,11Z" style="fill:url(#linear-gradient-8)"/></g></g><g id="pour_1" data-name="pour 1"><g id="pour_back-2" data-name="pour back"><path d="M59.43,58.19a14.87,14.87,0,0,1,5.33-.62,6.5,6.5,0,0,1,1.36.3A4.31,4.31,0,0,1,68.77,61a15.05,15.05,0,0,1,.09,5.35c-.21,1.75-.52,3.48-.83,5.2a72.76,72.76,0,0,0-1.37,10.36c-.12,3.43.26,7,2.08,9.93l-.63.38C66.25,89.11,65.9,85.41,66,81.91A84.7,84.7,0,0,1,67.4,71.47c.3-1.72.59-3.45.78-5.17a14.46,14.46,0,0,0-.12-5.09,3.59,3.59,0,0,0-3.4-2.86,15.55,15.55,0,0,0-5,.55Z" style="fill:url(#linear-gradient-9)"/></g><path id="pour_under-2" data-name="pour under" d="M62.92,55.47a12.85,12.85,0,0,1,4.44,3.69,10.63,10.63,0,0,0-3.62-1.27Z" style="fill:url(#linear-gradient-10)"/><path id="pour-2" data-name="pour" d="M72.69,95c1.92,3.47-1.68,1.13-3.16-.92-4.26-5.91-3.94-12.28-1.65-23.17.84-4,1.82-10.41-1-12.24C76.73,65.63,65.21,81.45,72.69,95Z" style="opacity:0.7000000000000001;fill:url(#linear-gradient-11)"/><g id="pour_front-2" data-name="pour front"><path d="M72.3,95.88A30.58,30.58,0,0,1,69.66,85a55.18,55.18,0,0,1,.64-11.2,39.47,39.47,0,0,0,.51-5.49,14.29,14.29,0,0,0-1-5.34,12.33,12.33,0,0,0-3-4.47,24.84,24.84,0,0,0-4.44-3.25l.41-.62A29.92,29.92,0,0,1,67.22,58a14.09,14.09,0,0,1,3.2,4.68,15.44,15.44,0,0,1,1.1,5.57,35.76,35.76,0,0,1-.48,5.6,56.14,56.14,0,0,0-.6,11A30.63,30.63,0,0,0,73,95.58Z" style="fill:url(#linear-gradient-12)"/></g></g><path d="M56.51,108.55c0-1.58,8.94-2.57,18-2.57s17.86,1.14,17.86,2.57" style="fill:none;stroke-miterlimit:10;stroke-width:1.11491666742419px;opacity:0.35000000000000003;stroke:url(#radial-gradient-2)"/><g id="poured_copy" data-name="poured copy"><path d="M91.24,113.94c-11.28,4.36-28.39,3.13-33.75-.57L55.06,87.62c10.35-2.93,26.5,9,38.82,1.5Z" style="opacity:0.5;fill:url(#linear-gradient-13)"/><g style="opacity:0.7000000000000001"><path d="M94.57,88.15c0,1.11-7.68,5.53-20,2-10.62-3-22.48-4.44-19.53-1.07.9,1,10.86.79,23.59-1.82C90.27,84.89,94.57,87,94.57,88.15Z" style="fill:#949b9a"/><path d="M94.84,88.15a1.14,1.14,0,0,1-.43.73,3.71,3.71,0,0,1-.54.44,8.88,8.88,0,0,1-1.16.66,15.76,15.76,0,0,1-2.48.93,24,24,0,0,1-5.18.84,32.7,32.7,0,0,1-10.37-1.28,95.34,95.34,0,0,0-10.1-2.35c-1.7-.3-3.41-.54-5.13-.67a20.08,20.08,0,0,0-2.57,0,6.18,6.18,0,0,0-1.23.18c-.39.09-.79.29-.81.54s.25.7.46.87a3.59,3.59,0,0,0,1.16.3,21.73,21.73,0,0,0,2.56.13c1.73,0,3.46-.09,5.18-.23,3.45-.29,6.88-.78,10.29-1.37,1.7-.29,3.39-.64,5.1-1s3.43-.59,5.17-.75A30.54,30.54,0,0,1,90,86a13.63,13.63,0,0,1,2.6.46,5.91,5.91,0,0,1,1.26.5,3.14,3.14,0,0,1,.59.41A1.14,1.14,0,0,1,94.84,88.15Zm-.54,0c0-.2-.36-.52-.7-.69A5.55,5.55,0,0,0,92.45,87a14.69,14.69,0,0,0-2.5-.45,29.54,29.54,0,0,0-5.15,0c-1.72.15-3.42.41-5.12.72s-3.41.68-5.12,1c-3.42.59-6.86,1-10.32,1.35-1.74.15-3.47.25-5.22.25a21,21,0,0,1-2.62-.13,3.73,3.73,0,0,1-1.35-.36,1.1,1.1,0,0,1-.18-.14l-.11-.14a2.11,2.11,0,0,1-.2-.29,1.16,1.16,0,0,1-.19-.77,1,1,0,0,1,.49-.67,2.63,2.63,0,0,1,.66-.27,6.88,6.88,0,0,1,1.33-.19,20.93,20.93,0,0,1,2.63,0c1.75.12,3.47.37,5.19.66A98.1,98.1,0,0,1,74.82,90,32,32,0,0,0,85,91.17a22.24,22.24,0,0,0,5.06-.8,15.18,15.18,0,0,0,2.39-.88,9.62,9.62,0,0,0,1.09-.62,3.65,3.65,0,0,0,.48-.38A.88.88,0,0,0,94.3,88.15Z" style="fill:url(#linear-gradient-14)"/></g><g style="opacity:0.7000000000000001"><path d="M74.5,90.42c-3.49-.94-7-1.84-10.56-2.43a40.62,40.62,0,0,0-5.38-.6,11.67,11.67,0,0,0-2.65.13,1.6,1.6,0,0,0-1,.48c-.14.22.07.61.35.91l-.4.36a3,3,0,0,1-.42-.64,1,1,0,0,1,0-.88,2,2,0,0,1,1.36-.7,12.21,12.21,0,0,1,2.76-.12,49,49,0,0,1,5.43.6A85.61,85.61,0,0,1,74.65,89.9Z" style="fill:url(#linear-gradient-15)"/></g></g><polygon points="84.01 116.55 91.02 114.3 96.39 67.52 85.89 68.96 84.01 116.55" style="opacity:0.4;fill:url(#linear-gradient-16)"/><path d="M91.53,114.05c-10.82,4-21.94,3.85-34.18-.07L53.5,67.61c14.64,2.17,28.56,2.49,42.33.18Z" style="fill:#fff;opacity:0.15"/><polygon points="65.44 116.05 57.42 114.05 53.5 67.85 63.31 69.02 65.44 116.05" style="opacity:0.4;fill:url(#linear-gradient-17)"/><path id="llip_front_of_pour" data-name="llip front of pour" d="M98.26,64.45s-.11-.34-.12-.36c-.26-.82-1-1.83-7.18-2.63a124,124,0,0,0-13.36-.84v1.94c9.49.09,15.48.63,17.76,1.43-.53.1-1,.24,0,.1-1,.14-6.42,1.84-20.76,1.84-12.71,0-19.15-1.42-20.6-1.84,0,0-.1,0-.1,0,1.86-.67,6.25-1.19,13.21-1.4V60.73c-3.35.13-6.4.34-8.91.66-6.2.8-6.8,1.86-7.09,2.67,0,0-.29,0,0,.2l-.05.1,0-.06c-.53-.16-.14.48-.15.57,0,1.06,2.09,2.31,7.5,3a132.26,132.26,0,0,0,16.34.93A129.76,129.76,0,0,0,90.78,68C96.57,67.21,98.7,65.58,98.26,64.45Z" style="opacity:0.5;fill:url(#linear-gradient-18)"/><g id="outline_front_of_pour" data-name="outline front of pour"><path d="M77.6,62.16v1.06A104.8,104.8,0,0,1,93.37,64.4a115.21,115.21,0,0,1-18.73,1.21A114.56,114.56,0,0,1,56,64.4a87.76,87.76,0,0,1,11.15-1.05V62.29c-7.19.3-12,1-13.85,1.7v0c.89.87,8.3,2.16,21.38,2.16C89,66.17,95.07,64.72,95.78,64c0,0,0,0,0-.06C93.52,63.16,87.17,62.31,77.6,62.16Z" style="fill:#4e8b9b"/><path d="M99.54,64.47c-.68-1.86-2.35-3-8.29-3.76a128.05,128.05,0,0,0-13.65-.84v1.07A124.75,124.75,0,0,1,91,61.76c6.14.79,6.64,1.77,6.9,2.59l0,.08c.44,1.13-1.34,2.34-7.13,3.11a129.61,129.61,0,0,1-16.12.86,130.06,130.06,0,0,1-16.23-.86c-5.41-.71-7.24-1.71-7.26-2.77,0-.09,0-.3.05-.36h0c.29-.81.83-1.85,7-2.64,2.5-.32,5.53-.55,8.87-.69V60c-3.4.14-6.49.38-9,.71-4.05.51-7.52,1.42-8.19,3.79-.38,1.33.19,2.38,2.26,3.2L55.54,109c0,.37.75.62,1.07.7l.42,4.06c.51,2.45,7.19,4.27,17.45,4.27s16.55-1.92,17.44-4.27l.51-4c.3-.09,1-.44,1-.84l3.8-41.17C99.18,66.91,100,65.74,99.54,64.47Zm-10,48.43c-2.41,2.33-8.22,3.15-13.43,3.15-4.45,0-13.33-.25-17-2.73-.57-.38-.57-2-.68-3.29a75.53,75.53,0,0,0,17.71,2,58.86,58.86,0,0,0,14-2C89.94,111.21,89.92,112.55,89.56,112.9Zm1.27-4.51c-1.45,1-6.55,2.63-16.43,2.63s-15-1.33-16.49-2.3c-1.08-.72-3-30.59-3.43-40.33,1,.22,2.1.42,3.42.6a122.28,122.28,0,0,0,16.42,1.19,148.41,148.41,0,0,0,17-.8,29.24,29.24,0,0,0,3.22-.59C94.18,80.35,91.9,107.67,90.83,108.39Z" style="fill:#4e8b9b"/></g><path d="M70.84,112.31a57.52,57.52,0,0,1-8.51-.94,24.89,24.89,0,0,0,.31,4.72,36.81,36.81,0,0,0,8.45,1.1C71.1,116.45,71,115.24,70.84,112.31Z" style="opacity:0.6000000000000001;fill:url(#linear-gradient-19)"/><path d="M68.69,109.13a279.35,279.35,0,0,1-.64-38.55,87.48,87.48,0,0,1-10.77-1c0,9.77,1.15,30.09,3.31,38.81a13.71,13.71,0,0,0,.77,2.32c2.9.56,6.25.92,7.46,1C68.82,111,68.77,110.13,68.69,109.13Z" style="opacity:0.6000000000000001;fill:url(#linear-gradient-20)"/><path d="M65.09,69c.3-1.44.3-2.09,1.39-3-3.22-.17-6.5-.47-9.47-.91-1.29,1.18-.93,1.39-1,2.77A55.27,55.27,0,0,0,65.09,69Z" style="opacity:0.6000000000000001;fill:url(#linear-gradient-21)"/><path d="M55.36,66.47a89,89,0,0,0,14.1,1.24" style="fill:none;stroke-miterlimit:10;stroke-width:1.11491666742419px;opacity:0.5;stroke:url(#linear-gradient-22)"/><path d="M90.43,63.57a2.73,2.73,0,0,1,1.2-2.35c-3.23-.38-6.18-.65-9.39-.74a2.62,2.62,0,0,0-.95,2.37C83.55,62.94,87.65,63.22,90.43,63.57Z" style="opacity:0.4;fill:url(#linear-gradient-23)"/></g><g id="pour_cup_right_copy" data-name="pour cup right copy"><path d="M81.77,48.07A95.15,95.15,0,0,1,87.51,32c.27-.63,2.85-6.25,5.95-11.57,3.25-5.57,8.14-11.16,11.23-9.8,1.06.46,2.45,1.47,2.49,4.61V16.3l32,17.31a2.24,2.24,0,0,1,.59,1.49L143.25,37h0c1.13.5-.88,8.1-4.73,16.85s-8.32,15.48-9.45,15h0l-3.59-1.14a2.48,2.48,0,0,1-1.59.6L89.56,56.84l-.66.61c-.88.81-2.82,2.49-5.12,1.47C80.25,57.34,80.81,52.33,81.77,48.07Z" style="opacity:0.8;fill:url(#linear-gradient-24)"/><path d="M97.7,36.45c-3.43,7.82-7.38,14.64-10.33,17.87l-.87-.81c2.85-3.08,6.73-9.79,10.13-17.53,3.54-8.06,5.93-15.85,6.08-19.83l1.19.05C103.7,20.39,101.28,28.31,97.7,36.45Z" style="fill:#4e8b9b"/><path d="M88.11,55c3-3.3,7-10.23,10.52-18.14,3.68-8.38,6.08-16.26,6.28-20.63l1.83.08c-.17,4.51-2.63,12.67-6.42,21.29-3.56,8.12-7.72,15.27-10.86,18.65Z" style="fill:#4e8b9b"/><path d="M93.19,43.12c8.36,3.76,20.73,9.12,32.68,13.63,4.63,1.74,6.26,1.43,4.47,6-.47,1.17-2.44-.06-4.89-.76-8.25-2.39-26.26-9.3-35.5-13.13C91,47.2,92.16,45.22,93.19,43.12Z" style="opacity:0.30000000000000004;fill:url(#linear-gradient-25)"/><path d="M138.75,34.49c1.44.64-1.24,9.22-4.88,17.51s-8.22,15.89-9.53,15.31" style="fill:none;stroke-miterlimit:10;stroke-width:1.11491666742419px;opacity:0.35000000000000003;stroke:url(#radial-gradient-3)"/><path id="water_slanted" data-name="water slanted" d="M129.19,67.75C134.24,62.8,137,56.53,141,44c-11.17,7.18-43.89,3.89-58.71,5.56-.1,1.5-.48,2.34-.44,3.14l41.37,14.2,2-.42Z" style="opacity:0.5;fill:url(#linear-gradient-26)"/><g id="slanted_water_line" data-name="slanted water line" style="opacity:0.7000000000000001"><path d="M139.05,50.82c-9.11-4.35-20.61.53-32.87,1.56-13.12,1.1-20.19-.21-24.25-.17l.47-2.55c5.52-2.06,9.81-1,21.71,2.19,5.34,1.43,17.61,2.16,23.6,2.16,4.45,0,10-.43,10.75-2.38C138.86,50.64,139.33,51,139.05,50.82Z" style="fill:#949b9a"/><path d="M138.9,51.14a18.68,18.68,0,0,0-6.83-1.67,37,37,0,0,0-7.12.34c-4.73.62-9.43,1.7-14.2,2.4-2.38.36-4.8.57-7.2.72s-4.81.22-7.22.23-4.82-.07-7.23-.22-4.8-.39-7.17-.41h-.38l.07-.37.47-2.56,0-.17.16-.06a16.72,16.72,0,0,1,7.31-1,50,50,0,0,1,7.23,1.29c2.38.57,4.74,1.2,7.09,1.82a50.39,50.39,0,0,0,7.15,1.23c4.83.53,9.69.84,14.55.95a56.64,56.64,0,0,0,7.26-.23,17,17,0,0,0,3.5-.7,3.9,3.9,0,0,0,1.45-.79,1.22,1.22,0,0,0,.23-.29l.08-.15a1.28,1.28,0,0,1,.11-.24,1.51,1.51,0,0,1,.32-.47,1.26,1.26,0,0,1,.28-.2l.18-.06h0c0-.36-.31.81-.11.6l.06,0Zm.3-.64.05,0,.11.06c.22-.2-.07,1-.11.62h-.09l-.09.07a1,1,0,0,0-.19.28,1.42,1.42,0,0,0-.08.18c0,.08-.08.17-.13.25a2.08,2.08,0,0,1-.34.43,4.84,4.84,0,0,1-1.72,1,18,18,0,0,1-3.66.72,56.3,56.3,0,0,1-7.34.21c-4.88-.12-9.76-.44-14.61-1a51,51,0,0,1-7.24-1.26c-2.35-.63-4.7-1.27-7.06-1.84A44.94,44.94,0,0,0,89.56,49a16.11,16.11,0,0,0-7,1l.2-.23-.47,2.55-.31-.37c2.44,0,4.82.26,7.21.38s4.79.21,7.19.2a105.22,105.22,0,0,0,14.31-1c4.74-.7,9.42-1.8,14.22-2.43a38.25,38.25,0,0,1,7.26-.32A19.13,19.13,0,0,1,139.2,50.5Z" style="fill:url(#linear-gradient-27)"/></g><path d="M129.56,67.53c1,.44,4.91-5.68,8.55-14s5.42-15.35,4.42-15.79S137.4,43.71,133.76,52,128.55,67.09,129.56,67.53Z" style="opacity:0.35000000000000003;fill:url(#radial-gradient-4)"/><path id="cup_bottom" data-name="cup bottom" d="M129.56,67.53c1,.44,4.91-5.68,8.55-14s5.42-15.35,4.42-15.79S137.4,43.71,133.76,52,128.55,67.09,129.56,67.53Z" style="opacity:0.4;fill:url(#linear-gradient-28)"/><polygon points="130.71 60.99 129.72 68.22 85.62 54.63 87.79 43.91 130.71 60.99" style="opacity:0.4;fill:url(#linear-gradient-29)"/><path d="M129.29,68.59C136,59.41,140.08,49.35,143,37.66l-41-22.56A127.44,127.44,0,0,0,85.21,53.92Z" style="fill:#fff;opacity:0.15"/><polygon points="138.25 44.12 143 37.35 102.28 15.19 96.72 23.98 138.25 44.12" style="opacity:0.4;fill:url(#linear-gradient-30)"/><path d="M87.54,56c-.44-.15-1.78-.66-2.16-.77a.71.71,0,0,1-.34.11c-1-.84.13-8.89,5.82-21.85s11-19.43,12.33-19.34h0a.7.7,0,0,1,.06.16c.47.26,1.18.56,1.91,1,0-1-.21-2.57-1.18-3-5-2.19-14.56,19.47-15,20.4a92.86,92.86,0,0,0-5.52,15.89c-1.17,5.15-.92,7.88.76,8.64C85.4,57.68,86.91,56.54,87.54,56Z" style="opacity:0.5;fill:url(#linear-gradient-31)"/><path d="M133,54.82c1.29-2.52,4.13-8.63,6.33-11.91a18.24,18.24,0,0,0-4.46-2.17c-2.09,2.51-5.88,10.9-6.53,12.27C129,53.32,130.27,53.76,133,54.82Z" style="opacity:0.6000000000000001;fill:url(#linear-gradient-32)"/><path d="M90.34,38c1-2.57,5.77-12.74,8.32-16.59,9,3.93,36.18,17.71,36.69,18.27-2.08,2.59-6.41,12-6.63,13.32C127,52.35,96.79,40.2,90.34,38Z" style="opacity:0.6000000000000001;fill:url(#linear-gradient-33)"/><path d="M87.09,35.45a6,6,0,0,0,3.39,1.29C91.93,33.85,96.41,25.2,98,22.66,97.45,21,95.87,20.6,94.65,20,93.45,21.43,88,33.4,87.09,35.45Z" style="opacity:0.6000000000000001;fill:url(#linear-gradient-34)"/><path d="M96.64,21.32A56,56,0,0,0,89.31,36" style="fill:none;stroke-miterlimit:10;stroke-width:1.11491666742419px;opacity:0.5;stroke:url(#linear-gradient-35)"/><path d="M83.78,58.92c2.3,1,4.24-.66,5.12-1.47l.66-.61,34.32,11.5a2.48,2.48,0,0,0,1.59-.6l3.59,1.14h0c1.13.5,5.61-6.23,9.45-15s5.86-16.35,4.73-16.85h0l-3.49-1.94a2.24,2.24,0,0,0-.59-1.49l-32-17.31V15.22c0-3.14-1.43-4.15-2.49-4.61-3.09-1.36-8,4.23-11.23,9.8-3.1,5.32-5.68,10.94-5.95,11.57a95.15,95.15,0,0,0-5.74,16.09C80.81,52.33,80.25,57.34,83.78,58.92Zm57.76-20.75c-2,2.17-5.25,7.23-8,13.53a62.25,62.25,0,0,0-4.69,14.73,16.81,16.81,0,0,1-3.22-1,50.71,50.71,0,0,1,3.91-13.56,70,70,0,0,1,8.87-15.42A20.53,20.53,0,0,1,141.54,38.17Zm-11,27.34a63,63,0,0,1,4.14-13.31A64.65,64.65,0,0,1,142,39.67a85.88,85.88,0,0,1-4.87,13.61A73.07,73.07,0,0,1,130.5,65.51ZM86.78,53.16c0-.45.11-1,.22-1.69.29-1.36.58-2.67.89-3.92A91.9,91.9,0,0,1,92.58,34c4.6-10.48,8.46-15.74,10.18-17.48,1.16.58,2.79,1.35,4.35,2.14l.11.06h0c11.33,5.72,31.09,15.85,30.36,16.67-1.55,1.75-4.49,5.36-8.47,14.41s-3.85,14-5.08,15.89C123.19,67,97.4,57.49,86.78,53.16Zm-2.53,4c-1.68-.76-1.93-3.49-.76-8.64A92.86,92.86,0,0,1,89,32.64c.41-.93,10-22.59,15-20.4,1,.43,1.17,2,1.18,3-.73-.41-1.44-.71-1.91-1a.7.7,0,0,0-.06-.16h0c-1.34-.09-6.59,6.28-12.33,19.34S84.09,54.46,85,55.3a.71.71,0,0,0,.34-.11c.38.11,1.72.62,2.16.77C86.91,56.54,85.4,57.68,84.25,57.17Z" style="fill:#4e8b9b"/></g><g id="pour_cup_left_copy" data-name="pour cup left copy"><path d="M63.09,53.62a94,94,0,0,0-7-15.58c-.33-.6-3.35-6-6.88-11-3.69-5.28-9-10.46-12-8.85-1,.55-2.32,1.67-2.1,4.8L35.16,24,4.7,43.9a2.26,2.26,0,0,0-.46,1.53L.92,47.65h0c-1.08.59,1.54,8,6.09,16.4S16.57,78.8,17.66,78.21h0l3.49-1.43a2.49,2.49,0,0,0,1.63.47L56.05,63l.7.55c1,.74,3,2.26,5.23,1.05C65.36,62.73,64.4,57.78,63.09,53.62Z" style="opacity:0.8;fill:url(#linear-gradient-36)"/><path d="M46.27,43.34c4.06,7.51,8.55,14,11.75,17l.81-.88c-3.1-2.83-7.52-9.21-11.53-16.64C43.11,35,40.09,27.47,39.61,23.51l-1.18.15C39,27.82,42,35.51,46.27,43.34Z" style="fill:#4e8b9b"/><path d="M57.34,61c-3.28-3-7.85-9.62-12-17.22-4.36-8-7.39-15.71-8-20L35.61,24c.54,4.48,3.66,12.42,8.14,20.7,4.21,7.8,9,14.58,12.35,17.7Z" style="fill:#4e8b9b"/><path d="M51.31,49.62C43.28,54,31.39,60.4,19.85,65.87c-4.47,2.12-6.12,1.94-4,6.31.56,1.13,2.42-.26,4.8-1.17C28.72,68,46.11,59.61,55,55,53.88,53.49,52.51,51.62,51.31,49.62Z" style="opacity:0.30000000000000004;fill:url(#linear-gradient-37)"/><path d="M5.2,44.74c-1.39.75,2,9.09,6.29,17S21,77,22.25,76.27" style="fill:none;stroke-miterlimit:10;stroke-width:1.11491666742419px;opacity:0.35000000000000003;stroke:url(#radial-gradient-5)"/><path id="water_slanted-2" data-name="water slanted" d="M17.44,77.1C12,72.59,8.73,66.56,3.77,54.38c11.72,6.25,44.06.3,59,.74.22,1.49.66,2.3.7,3.1L23.36,75.76,21.3,75.5Z" style="opacity:0.5;fill:url(#linear-gradient-38)"/><g id="slanted_water_line-2" data-name="slanted water line" style="opacity:0.7000000000000001"><path d="M63.09,55.61c-9.53-4.91-25.88,1.44-39.17,1.68C4,57.67-.49,47.8,3.89,54.72c2.54,4,13.53,1.51,26.71,3.19a104.4,104.4,0,0,0,20.24,0,74.64,74.64,0,0,0,10.84-1.54C62.78,56.11,63.37,55.76,63.09,55.61Z" style="fill:#949b9a"/><path d="M62.92,55.94a18.13,18.13,0,0,0-7.42-1.76,45.85,45.85,0,0,0-7.76.36c-5.17.62-10.3,1.66-15.49,2.38a68.57,68.57,0,0,1-7.85.73,53.25,53.25,0,0,1-7.88-.36,40.11,40.11,0,0,1-7.71-1.71,30.65,30.65,0,0,1-3.67-1.49c-.59-.28-1.18-.59-1.75-.92l-.85-.49-.18-.1h0a.3.3,0,0,0,.17,0,.28.28,0,0,0,.14-.22.17.17,0,0,0,0-.08h0c0,.09.14.24.23.37L4,54.26a3.69,3.69,0,0,0,1.24,1.3,9.19,9.19,0,0,0,3.6,1,69.49,69.49,0,0,0,7.79.31c2.62,0,5.24,0,7.86.15,1.31.07,2.62.16,3.92.28l3.9.42a101.67,101.67,0,0,0,15.61,0c2.61-.16,5.2-.4,7.79-.73,1.29-.17,2.58-.35,3.85-.59.64-.12,1.27-.24,1.89-.4a8.57,8.57,0,0,0,.9-.28,2,2,0,0,0,.39-.18.43.43,0,0,0,.11-.08.27.27,0,0,0,0,.15C62.81,55.88,62.9,55.93,62.92,55.94Zm.34-.66a1.1,1.1,0,0,1,.16.12.47.47,0,0,1,.11.3.5.5,0,0,1-.16.36,1.45,1.45,0,0,1-.28.21,2.78,2.78,0,0,1-.5.23,7.2,7.2,0,0,1-1,.3c-.65.16-1.3.29-1.95.41-1.29.24-2.59.42-3.89.58-2.61.33-5.22.56-7.83.72a103.12,103.12,0,0,1-15.72-.09L28.33,58c-1.29-.12-2.59-.21-3.89-.28-2.61-.14-5.22-.17-7.83-.18a71.64,71.64,0,0,1-7.87-.28A9.87,9.87,0,0,1,4.88,56.1a4.22,4.22,0,0,1-1.45-1.49L2.36,53a3.89,3.89,0,0,1-.28-.47.66.66,0,0,1,0-.11.45.45,0,0,1,0-.14A.39.39,0,0,1,2.2,52a.39.39,0,0,1,.22,0l.09,0,.1,0,.25.13.86.49q.84.48,1.71.9A29.36,29.36,0,0,0,9,54.93a39.28,39.28,0,0,0,7.58,1.65,57.33,57.33,0,0,0,15.53-.41c5.17-.73,10.29-1.8,15.51-2.41a47.19,47.19,0,0,1,7.89-.34A18.92,18.92,0,0,1,63.26,55.28Z" style="fill:url(#linear-gradient-39)"/></g><path d="M17.06,76.92c-1,.52-5.36-5.26-9.67-13.23S.73,48.84,1.7,48.32s5.59,5.5,9.9,13.46S18,76.4,17.06,76.92Z" style="opacity:0.35000000000000003;fill:url(#radial-gradient-6)"/><path id="cup_bottom-2" data-name="cup bottom" d="M17.06,76.92c-1,.52-5.36-5.26-9.67-13.23S.73,48.84,1.7,48.32s5.59,5.5,9.9,13.46S18,76.4,17.06,76.92Z" style="opacity:0.4;fill:url(#linear-gradient-40)"/><polygon points="15.37 70.49 16.95 77.62 59.8 60.46 56.75 49.96 15.37 70.49" style="opacity:0.4;fill:url(#linear-gradient-41)"/><path d="M17.42,78C9.94,69.35,5.09,59.66,1.2,48.25l39-25.84a127.71,127.71,0,0,1,20,37.32Z" style="fill:#fff;opacity:0.15"/><polygon points="6.48 54.3 1.19 47.94 39.96 22.52 46.23 30.82 6.48 54.3" style="opacity:0.4;fill:url(#linear-gradient-42)"/><path d="M58,62c.42-.18,1.72-.8,2.09-.94a.88.88,0,0,0,.35.08c.87-.92-.86-8.85-7.59-21.3S40.3,21.32,39,21.51h0s0,.06,0,.18c-.44.29-1.13.64-1.82,1.12-.07-1,0-2.58.93-3.09,4.79-2.59,16.11,18.22,16.59,19.1a93,93,0,0,1,6.8,15.39c1.59,5,1.56,7.78-.05,8.67C60.26,63.49,58.66,62.47,58,62Z" style="opacity:0.5;fill:url(#linear-gradient-43)"/><path d="M12.59,64.53C11.1,62.12,7.77,56.27,5.3,53.18a18,18,0,0,1,4.28-2.53C11.86,53,16.32,61,17.09,62.35,16.44,62.7,15.22,63.25,12.59,64.53Z" style="opacity:0.6000000000000001;fill:url(#linear-gradient-44)"/><path d="M53.73,44.25C52.5,41.78,46.93,32,44.08,28.4,35.49,33.05,9.47,49,9,49.61,11.29,52,16.38,61,16.7,62.35,18.37,61.58,47.48,47,53.73,44.25Z" style="opacity:0.6000000000000001;fill:url(#linear-gradient-45)"/><path d="M56.76,41.47A6,6,0,0,1,53.49,43c-1.68-2.76-6.86-11-8.65-13.42.42-1.7,2-2.23,3.12-3C49.27,28,55.65,39.51,56.76,41.47Z" style="opacity:0.6000000000000001;fill:url(#linear-gradient-46)"/><path d="M46.08,28.17a55.8,55.8,0,0,1,8.51,14" style="fill:none;stroke-miterlimit:10;stroke-width:1.11491666742419px;opacity:0.5;stroke:url(#linear-gradient-47)"/><path d="M63.09,53.62a94,94,0,0,0-7-15.58c-.33-.6-3.35-6-6.88-11-3.69-5.28-9-10.46-12-8.85-1,.55-2.32,1.67-2.1,4.8L35.16,24,4.7,43.9a2.26,2.26,0,0,0-.46,1.53L.92,47.65h0c-1.08.59,1.54,8,6.09,16.4S16.57,78.8,17.66,78.21h0l3.49-1.43a2.49,2.49,0,0,0,1.63.47L56.05,63l.7.55c1,.74,3,2.26,5.23,1.05C65.36,62.73,64.4,57.78,63.09,53.62Zm-57.37-7A70.46,70.46,0,0,1,15.82,61.3a50.88,50.88,0,0,1,5,13.19,16.22,16.22,0,0,1-3.12,1.27,62.52,62.52,0,0,0-5.89-14.3c-3.27-6.05-6.9-10.83-9.09-12.83A20.26,20.26,0,0,1,5.72,46.65ZM8.34,63.33a86.25,86.25,0,0,1-6-13.17,65.39,65.39,0,0,1,8.37,11.89A63.19,63.19,0,0,1,16,75,72.81,72.81,0,0,1,8.34,63.33ZM22.42,74.64c-1.38-1.77-1.67-6.73-6.37-15.42s-7.92-12-9.61-13.67c-.8-.76,18.07-12.47,28.89-19.09h0l.1-.07c1.5-.91,3.06-1.81,4.17-2.48,1.86,1.59,6.13,6.52,11.58,16.58A93,93,0,0,1,57,53.6c.4,1.22.8,2.5,1.2,3.83.17.66.29,1.22.36,1.67C48.29,64.28,23.36,75.85,22.42,74.64ZM58,62c.42-.18,1.72-.8,2.09-.94a.88.88,0,0,0,.35.08c.87-.92-.86-8.85-7.59-21.3S40.3,21.32,39,21.51h0s0,.06,0,.18c-.44.29-1.13.64-1.82,1.12-.07-1,0-2.58.93-3.09,4.79-2.59,16.11,18.22,16.59,19.1a93,93,0,0,1,6.8,15.39c1.59,5,1.56,7.78-.05,8.67C60.26,63.49,58.66,62.47,58,62Z" style="fill:#4e8b9b"/></g></g></g></svg>