<svg id="Mixing_View_Step_2D" data-name="Mixing View Step 2D" xmlns="http://www.w3.org/2000/svg" xmlns:xlink="http://www.w3.org/1999/xlink" viewBox="0 0 451 314"><defs><linearGradient id="linear-gradient" x1="-707.1" y1="195.6" x2="-595.51" y2="195.6" gradientTransform="translate(996.81)" gradientUnits="userSpaceOnUse"><stop offset="0" stop-color="#8dd3ca"/><stop offset="0.5" stop-color="#8dd3ca" stop-opacity="0"/><stop offset="1" stop-color="#8dd3ca"/></linearGradient><radialGradient id="radial-gradient" cx="-726.67" cy="1224.28" r="47.95" gradientTransform="translate(903.15 140.14) scale(0.77 0.09)" gradientUnits="userSpaceOnUse"><stop offset="0" stop-color="#fff" stop-opacity="0.4"/><stop offset="1"/></radialGradient><linearGradient id="linear-gradient-2" x1="-633.26" y1="141.03" x2="-618.81" y2="140.28" gradientTransform="translate(996.81)" gradientUnits="userSpaceOnUse"><stop offset="0" stop-color="#fff" stop-opacity="0"/><stop offset="0.14" stop-color="#fff" stop-opacity="0.15"/><stop offset="0.38" stop-color="#fff" stop-opacity="0.39"/><stop offset="0.56" stop-color="#fff" stop-opacity="0.54"/><stop offset="0.66" stop-color="#fff" stop-opacity="0.6"/><stop offset="0.71" stop-color="#fff" stop-opacity="0.54"/><stop offset="0.8" stop-color="#fff" stop-opacity="0.39"/><stop offset="0.93" stop-color="#fff" stop-opacity="0.15"/><stop offset="1" stop-color="#fff" stop-opacity="0"/></linearGradient><linearGradient id="linear-gradient-3" x1="-637.19" y1="198.21" x2="-616.28" y2="197.12" xlink:href="#linear-gradient-2"/><radialGradient id="radial-gradient-2" cx="-651.93" cy="235.91" r="29.32" gradientTransform="translate(996.81 208.07) scale(1 0.12)" gradientUnits="userSpaceOnUse"><stop offset="0" stop-opacity="0.4"/><stop offset="1" stop-color="#136999"/></radialGradient><linearGradient id="linear-gradient-4" x1="-652.4" y1="258.91" x2="-652.4" y2="178.08" gradientTransform="translate(996.81)" gradientUnits="userSpaceOnUse"><stop offset="0.28" stop-color="#136999"/><stop offset="1" stop-color="#fff" stop-opacity="0"/></linearGradient><linearGradient id="linear-gradient-5" x1="345.02" y1="177.56" x2="345.02" y2="190.74" gradientUnits="userSpaceOnUse"><stop offset="0" stop-color="#136999" stop-opacity="0"/><stop offset="0.08" stop-color="#136999" stop-opacity="0.17"/><stop offset="0.21" stop-color="#136999" stop-opacity="0.42"/><stop offset="0.35" stop-color="#136999" stop-opacity="0.63"/><stop offset="0.5" stop-color="#136999" stop-opacity="0.79"/><stop offset="0.65" stop-color="#136999" stop-opacity="0.91"/><stop offset="0.81" stop-color="#136999" stop-opacity="0.98"/><stop offset="1" stop-color="#136999"/></linearGradient><linearGradient id="linear-gradient-6" x1="-103.48" y1="202.5" x2="-131.16" y2="202.5" gradientTransform="matrix(-1, 0, 0, 1, 262.81, 0)" gradientUnits="userSpaceOnUse"><stop offset="0" stop-color="#fff" stop-opacity="0"/><stop offset="1" stop-color="#fff"/></linearGradient><linearGradient id="linear-gradient-7" x1="-672.03" y1="202.3" x2="-698.73" y2="202.3" gradientTransform="translate(996.81)" xlink:href="#linear-gradient-6"/><linearGradient id="linear-gradient-8" x1="-704.97" y1="141.38" x2="-598.54" y2="141.38" gradientTransform="translate(996.81)" gradientUnits="userSpaceOnUse"><stop offset="0" stop-color="#fff" stop-opacity="0.8"/><stop offset="0.4" stop-color="#fff" stop-opacity="0.35"/><stop offset="1" stop-color="#fff"/></linearGradient><linearGradient id="linear-gradient-9" x1="-678.9" y1="252.39" x2="-659.51" y2="252.05" gradientTransform="translate(996.81)" gradientUnits="userSpaceOnUse"><stop offset="0.08" stop-color="#fff" stop-opacity="0"/><stop offset="0.15" stop-color="#fff" stop-opacity="0.21"/><stop offset="0.27" stop-color="#fff" stop-opacity="0.54"/><stop offset="0.37" stop-color="#fff" stop-opacity="0.79"/><stop offset="0.45" stop-color="#fff" stop-opacity="0.94"/><stop offset="0.48" stop-color="#fff"/><stop offset="0.52" stop-color="#fff" stop-opacity="0.94"/><stop offset="0.6" stop-color="#fff" stop-opacity="0.79"/><stop offset="0.7" stop-color="#fff" stop-opacity="0.54"/><stop offset="0.82" stop-color="#fff" stop-opacity="0.21"/><stop offset="0.89" stop-color="#fff" stop-opacity="0"/></linearGradient><linearGradient id="linear-gradient-10" x1="-688.15" y1="200.11" x2="-663.13" y2="198.36" xlink:href="#linear-gradient-9"/><linearGradient id="linear-gradient-11" x1="-692.29" y1="142.82" x2="-671.44" y2="149.59" xlink:href="#linear-gradient-9"/><linearGradient id="linear-gradient-12" x1="-694.82" y1="146.73" x2="-663.02" y2="146.73" gradientTransform="translate(996.81)" gradientUnits="userSpaceOnUse"><stop offset="0" stop-color="#fff" stop-opacity="0"/><stop offset="0.09" stop-color="#fff" stop-opacity="0.21"/><stop offset="0.23" stop-color="#fff" stop-opacity="0.54"/><stop offset="0.35" stop-color="#fff" stop-opacity="0.79"/><stop offset="0.44" stop-color="#fff" stop-opacity="0.94"/><stop offset="0.48" stop-color="#fff"/><stop offset="0.53" stop-color="#fff" stop-opacity="0.94"/><stop offset="0.62" stop-color="#fff" stop-opacity="0.79"/><stop offset="0.75" stop-color="#fff" stop-opacity="0.54"/><stop offset="0.91" stop-color="#fff" stop-opacity="0.21"/><stop offset="1" stop-color="#fff" stop-opacity="0"/></linearGradient><linearGradient id="linear-gradient-13" x1="-635.48" y1="132.04" x2="-615.12" y2="138.65" xlink:href="#linear-gradient-9"/><linearGradient id="linear-gradient-14" x1="-946.1" y1="195.6" x2="-834.51" y2="195.6" xlink:href="#linear-gradient"/><radialGradient id="radial-gradient-3" cx="-1037.58" cy="1224.28" r="47.95" xlink:href="#radial-gradient"/><linearGradient id="linear-gradient-15" x1="-872.26" y1="141.03" x2="-857.81" y2="140.28" xlink:href="#linear-gradient-2"/><linearGradient id="linear-gradient-16" x1="-876.19" y1="198.21" x2="-855.28" y2="197.12" xlink:href="#linear-gradient-2"/><radialGradient id="radial-gradient-4" cx="-890.93" cy="235.91" r="29.32" xlink:href="#radial-gradient-2"/><linearGradient id="linear-gradient-17" x1="-891.4" y1="258.91" x2="-891.4" y2="178.08" xlink:href="#linear-gradient-4"/><linearGradient id="linear-gradient-18" x1="106.02" y1="177.56" x2="106.02" y2="190.74" xlink:href="#linear-gradient-5"/><linearGradient id="linear-gradient-19" x1="135.52" y1="202.5" x2="107.84" y2="202.5" xlink:href="#linear-gradient-6"/><linearGradient id="linear-gradient-20" x1="-911.03" y1="202.3" x2="-937.73" y2="202.3" gradientTransform="translate(996.81)" xlink:href="#linear-gradient-6"/><linearGradient id="linear-gradient-21" x1="-943.97" y1="141.38" x2="-837.54" y2="141.38" xlink:href="#linear-gradient-8"/><linearGradient id="linear-gradient-22" x1="-917.9" y1="252.39" x2="-898.51" y2="252.05" xlink:href="#linear-gradient-9"/><linearGradient id="linear-gradient-23" x1="-927.15" y1="200.11" x2="-902.13" y2="198.36" xlink:href="#linear-gradient-9"/><linearGradient id="linear-gradient-24" x1="-931.29" y1="142.82" x2="-910.44" y2="149.59" xlink:href="#linear-gradient-9"/><linearGradient id="linear-gradient-25" x1="-933.82" y1="146.73" x2="-902.02" y2="146.73" xlink:href="#linear-gradient-12"/><linearGradient id="linear-gradient-26" x1="-874.48" y1="132.04" x2="-854.12" y2="138.65" xlink:href="#linear-gradient-9"/><linearGradient id="linear-gradient-27" x1="225.56" y1="313.84" x2="225.56" y2="0.03" gradientUnits="userSpaceOnUse"><stop offset="0.69" stop-color="#6cc7bb" stop-opacity="0"/><stop offset="1" stop-color="#6cc7bb"/></linearGradient></defs><title>mixing-view-step2d</title><path id="Mixing_View_Modal_Back_1" data-name="Mixing View Modal Back 1" d="M443.87,294.57C343.6,312.92,166.11,320.75,12.42,306.48,3.29,229.17-5.79,117.86,7.08,17.31,144-2.8,354.31-4,442.27,6.74,450.15,106,455.08,215,443.87,294.57Z" style="fill:#6cc7bb;fill-rule:evenodd"/><g id="Cup_B_copy_7" data-name="Cup B copy 7"><path d="M401,140.86c-1.53-4.15-5.24-6.73-18.53-8.41a311.62,311.62,0,0,0-37.14-1.92,309.93,309.93,0,0,0-37.06,1.92c-9.07,1.15-16.82,3.17-18.33,8.48-.85,3,.43,5.31,5.06,7.15l7.62,92.42c.09.81,1.67,1.37,2.4,1.56l.93,9.08c1.14,5.46,16.09,9.54,39,9.54s37-4.29,39-9.54l1.13-8.83c.68-.22,2.24-1,2.36-1.89l8.49-92C400.21,146.33,402.06,143.7,401,140.86Z" style="opacity:0.8;fill:url(#linear-gradient)"/><path d="M380.79,250.68c0,2.45-15.67,6.72-35.91,6.72s-36.59-4.27-36.59-6.72S324.82,245,345.06,245,380.79,248.23,380.79,250.68Z" style="opacity:0.35000000000000003;fill:url(#radial-gradient)"/><path d="M378,139.45c-4.58-.42-8.13-.78-14.41-1,.05,1.49.1,3.25.14,5.24,5.79-.32,10.53-.77,14.36-1.25C378,141.3,378,140.3,378,139.45Z" style="opacity:0.30000000000000004;fill:url(#linear-gradient-2)"/><path d="M363.77,150.18c.17,20.49-.31,55.37-1.83,83.88-.58,11,.32,12.22,6.56,11.8,2.81-.19,2.43-5.39,3.18-11.05,2.54-19,5.88-63.34,6.33-85.68C373.8,149.59,369,149.94,363.77,150.18Z" style="opacity:0.30000000000000004;fill:url(#linear-gradient-3)"/><path d="M304.81,239.42c0-3.53,20-5.76,40.21-5.76S385,236.21,385,239.42" style="fill:none;stroke-miterlimit:10;stroke-width:2.49272778653036px;opacity:0.35000000000000003;stroke:url(#radial-gradient-2)"/><path d="M385.35,239.36l-2.65.71c-.83.22-.95,10.89-1.74,11.25-23.23,10.49-48.71,9.5-72.6.78-.93-.34-.51-10.94-1.48-11.13l-2.29-.49L300.1,184.4c11.22-9,86.38-7.85,88.62,0Z" style="opacity:0.5;fill:url(#linear-gradient-4)"/><g style="opacity:0.7000000000000001"><ellipse cx="344.97" cy="184.15" rx="44.87" ry="5.86" style="fill:#85a4b5"/><path d="M390.53,184.15a1.81,1.81,0,0,1-.44,1.09c-.1.11-.22.24-.33.34l-.35.26a7.44,7.44,0,0,1-1.4.72,21.63,21.63,0,0,1-2.83.91c-1.89.49-3.79.84-5.7,1.14-3.81.6-7.64,1-11.48,1.3-7.67.58-15.35.79-23,.79s-15.36-.27-23-.87c-3.83-.32-7.66-.7-11.47-1.3-1.91-.3-3.81-.65-5.7-1.14a21.36,21.36,0,0,1-2.81-.91,7.37,7.37,0,0,1-1.39-.72l-.34-.25c-.11-.1-.22-.22-.32-.33a1.65,1.65,0,0,1-.42-1,1.7,1.7,0,0,1,.42-1,2.57,2.57,0,0,1,.33-.33l.33-.25a8,8,0,0,1,1.39-.72,20.92,20.92,0,0,1,2.82-.89c1.89-.48,3.79-.82,5.69-1.12,3.81-.58,7.64-.95,11.47-1.25,7.66-.61,15.34-.85,23-.87s15.36.2,23,.78c3.83.3,7.66.67,11.47,1.26a56.44,56.44,0,0,1,5.71,1.12,21.51,21.51,0,0,1,2.83.89,7.82,7.82,0,0,1,1.4.73l.35.25c.11.1.22.22.33.34A1.81,1.81,0,0,1,390.53,184.15Zm-1.38,0a1.16,1.16,0,0,0-.52-.55,6.52,6.52,0,0,0-1.15-.59,20.35,20.35,0,0,0-2.64-.85c-1.82-.47-3.69-.81-5.57-1.11-3.76-.59-7.57-1-11.37-1.29-7.62-.6-15.28-.84-22.93-.87s-15.3.21-22.93.79c-3.81.3-7.61.69-11.38,1.28-1.88.3-3.75.65-5.58,1.12a20.49,20.49,0,0,0-2.65.85,6.42,6.42,0,0,0-1.17.6,1.13,1.13,0,0,0-.55.62,1.08,1.08,0,0,0,.56.61,7,7,0,0,0,1.16.6,22.3,22.3,0,0,0,2.66.84c1.82.46,3.7.8,5.58,1.09,3.76.58,7.57,1,11.38,1.25,7.62.57,15.27.78,22.92.78s15.3-.27,22.92-.87c3.81-.3,7.61-.67,11.37-1.25a54.27,54.27,0,0,0,5.57-1.09,20.44,20.44,0,0,0,2.65-.83,7.73,7.73,0,0,0,1.15-.59A1.16,1.16,0,0,0,389.15,184.15Z" style="fill:url(#linear-gradient-5)"/></g><polygon points="366.29 257.31 381.96 252.27 393.97 147.68 370.49 150.9 366.29 257.31" style="opacity:0.4;fill:url(#linear-gradient-6)"/><path d="M383.11,251.7c-24.2,9-49.07,8.62-76.43-.14l-8.6-103.69c32.73,4.87,63.85,5.59,94.63.41Z" style="fill:#fff;opacity:0.15"/><polygon points="324.78 256.19 306.83 251.7 298.08 148.41 320.02 151.04 324.78 256.19" style="opacity:0.4;fill:url(#linear-gradient-7)"/><path d="M299.92,140.32c34.77-6.73,61.49-3.45,90.66-.08C359.29,145.62,331,145.45,299.92,140.32Z" style="fill:#fff;opacity:0.30000000000000004"/><path d="M398.14,140.82s-.24-.76-.26-.8c-.57-1.84-2.33-4.11-16.05-5.88a300.89,300.89,0,0,0-36.55-1.95c-14.09,0-27.13.57-36.69,1.79-13.86,1.78-15.21,4.14-15.86,6,0,0-.65.11,0,.46l-.1.21c-.37-.4-.09-.12-.09-.12-1.25-.38-.35,1.06-.38,1.28.06,2.36,4.67,5.14,16.77,6.74a296,296,0,0,0,36.54,2.07,290.27,290.27,0,0,0,36-1.86C394.38,147,399.13,143.33,398.14,140.82Zm-52.83-4.26c25.11,0,40.75,1.26,46.37,3.24-1.21.22-2.17.52,0,.21-2.2.32-14.37,4.12-46.43,4.12-29.24,0-43.69-3.36-46.34-4.2,1.83.58.07,0,.06,0C304.47,137.93,319.8,136.56,345.31,136.56Z" style="opacity:0.5;fill:url(#linear-gradient-8)"/><path d="M297.53,139.8l0,0c2,1.94,18.54,4.82,47.79,4.82,32.06,0,45.68-3.24,47.26-4.8,0,0,0-.05.06-.13-5.62-2-22.21-4.1-47.32-4.1C319.83,135.63,303,137.8,297.53,139.8Zm47.81,3.61c-19.76,0-34-1.29-41.77-2.7,7.78-1.41,22-2.7,41.77-2.7s34.08,1.29,41.88,2.7C379.42,142.12,365.14,143.41,345.34,143.41Z" style="fill:#4e8b9b"/><path d="M401,140.86c-1.53-4.15-5.24-6.73-18.53-8.41a311.62,311.62,0,0,0-37.14-1.92,309.93,309.93,0,0,0-37.06,1.92c-9.07,1.15-16.82,3.17-18.33,8.48-.85,3,.43,5.31,5.06,7.15l7.62,92.42c.09.81,1.67,1.37,2.4,1.56l.93,9.08c1.14,5.46,16.09,9.54,39,9.54s37-4.29,39-9.54l1.13-8.83c.68-.22,2.24-1,2.36-1.89l8.49-92C400.21,146.33,402.06,143.7,401,140.86ZM378.7,249.14c-5.38,5.22-18.37,7.05-30,7.05-9.95,0-29.79-.57-38.08-6.11-1.27-.84-1.27-4.54-1.51-7.35,8.56,2.24,23.54,4.49,39.59,4.49,11.77,0,21.57-2.27,31.2-4.52C379.55,245.35,379.5,248.36,378.7,249.14Zm2.84-10.09c-3.24,2.17-14.64,5.88-36.74,5.88s-33.63-3-36.87-5.13c-2.4-1.61-6.78-68.4-7.67-90.16,2.17.48,4.69.93,7.65,1.33a273.34,273.34,0,0,0,36.71,2.65c14.2,0,28.18-.55,37.93-1.79a61.39,61.39,0,0,0,7.2-1.32C389,176.36,383.94,237.45,381.54,239.05Zm-.16-91.31a290.15,290.15,0,0,1-36,1.9,295.72,295.72,0,0,1-36.29-1.9c-12.1-1.6-16.18-3.84-16.24-6.21,0-.21.1-.68.13-.81h0c.65-1.81,1.87-4.13,15.73-5.91a307,307,0,0,1,36.66-1.9,302.86,302.86,0,0,1,36.49,1.9c13.72,1.77,14.85,4,15.43,5.8l.05.17C398.3,143.29,394.34,146,381.38,147.74Z" style="fill:#4e8b9b"/><path d="M336.83,247.83a128.82,128.82,0,0,1-19-2.12,56.51,56.51,0,0,0,.7,10.57c7,2,15.5,2.34,18.9,2.44C337.42,257.07,337.1,254.37,336.83,247.83Z" style="opacity:0.6000000000000001;fill:url(#linear-gradient-9)"/><path d="M332,240.72c-2.94-34.94-2.66-71-1.42-86.21a190.67,190.67,0,0,1-24.08-2.27c0,21.84,2.56,67.27,7.39,86.78a32.74,32.74,0,0,0,1.72,5.18c6.5,1.26,14,2.06,16.68,2.28C332.33,244.83,332.22,243,332,240.72Z" style="opacity:0.6000000000000001;fill:url(#linear-gradient-10)"/><path d="M324,150.88c.66-3.23.68-4.68,3.11-6.63-7.21-.36-14.53-1-21.17-2-2.9,2.62-2.09,3.1-2.31,6.18C307.71,149.53,318.93,150.79,324,150.88Z" style="opacity:0.6000000000000001;fill:url(#linear-gradient-11)"/><path d="M302.24,145.33c7.11,1.49,19.47,2.52,31.53,2.77" style="fill:none;stroke-miterlimit:10;stroke-width:2.49272778653036px;opacity:0.5;stroke:url(#linear-gradient-12)"/><path d="M380.64,138.86a6,6,0,0,1,2.69-5.25c-7.23-.87-13.82-1.46-21-1.68-1.77,1.24-2.13,3.16-2.13,5.32C365.26,137.44,374.43,138.06,380.64,138.86Z" style="opacity:0.4;fill:url(#linear-gradient-13)"/></g><g id="Cup_A_copy_14" data-name="Cup A copy 14"><path d="M162,140.86c-1.53-4.15-5.24-6.73-18.53-8.41a311.62,311.62,0,0,0-37.14-1.92,309.93,309.93,0,0,0-37.06,1.92c-9.07,1.15-16.82,3.17-18.33,8.48-.85,3,.43,5.31,5.06,7.15l7.62,92.42c.09.81,1.67,1.37,2.4,1.56l.93,9.08c1.14,5.46,16.09,9.54,39,9.54s37-4.29,39-9.54l1.13-8.83c.68-.22,2.24-1,2.36-1.89l8.49-92C161.21,146.33,163.06,143.7,162,140.86Z" style="opacity:0.8;fill:url(#linear-gradient-14)"/><path d="M141.79,250.68c0,2.45-15.67,6.72-35.91,6.72s-36.59-4.27-36.59-6.72S85.82,245,106.06,245,141.79,248.23,141.79,250.68Z" style="opacity:0.35000000000000003;fill:url(#radial-gradient-3)"/><path d="M139,139.45c-4.58-.42-8.13-.78-14.41-1,0,1.49.1,3.25.14,5.24,5.79-.32,10.53-.77,14.36-1.25C139,141.3,139,140.3,139,139.45Z" style="opacity:0.30000000000000004;fill:url(#linear-gradient-15)"/><path d="M124.77,150.18c.17,20.49-.31,55.37-1.83,83.88-.58,11,.32,12.22,6.56,11.8,2.81-.19,2.43-5.39,3.18-11.05,2.54-19,5.88-63.34,6.33-85.68C134.8,149.59,130,149.94,124.77,150.18Z" style="opacity:0.30000000000000004;fill:url(#linear-gradient-16)"/><path d="M65.81,239.42c0-3.53,20-5.76,40.21-5.76S146,236.21,146,239.42" style="fill:none;stroke-miterlimit:10;stroke-width:2.49272778653036px;opacity:0.35000000000000003;stroke:url(#radial-gradient-4)"/><path d="M60.92,140.32c34.77-6.73,61.49-3.45,90.66-.08C120.29,145.62,92,145.45,60.92,140.32Z" style="fill:#fff;opacity:0.30000000000000004"/><path d="M146.35,239.36l-2.65.71c-.83.22-.95,10.89-1.74,11.25-23.23,10.49-48.71,9.5-72.6.78-.93-.34-.51-10.94-1.48-11.13l-2.29-.49L61.1,184.4c11.22-9,86.38-7.85,88.62,0Z" style="opacity:0.5;fill:url(#linear-gradient-17)"/><g style="opacity:0.7000000000000001"><ellipse cx="105.97" cy="184.15" rx="44.87" ry="5.86" style="fill:#85a4b5"/><path d="M151.53,184.15a1.81,1.81,0,0,1-.44,1.09c-.1.11-.22.24-.33.34l-.35.26a7.44,7.44,0,0,1-1.4.72,21.63,21.63,0,0,1-2.83.91c-1.89.49-3.79.84-5.7,1.14-3.81.6-7.64,1-11.48,1.3-7.67.58-15.35.79-23,.79s-15.36-.27-23-.87c-3.83-.32-7.66-.7-11.47-1.3-1.91-.3-3.81-.65-5.7-1.14a21.36,21.36,0,0,1-2.81-.91,7.37,7.37,0,0,1-1.39-.72l-.34-.25c-.11-.1-.22-.22-.32-.33a1.65,1.65,0,0,1-.42-1,1.7,1.7,0,0,1,.42-1,2.57,2.57,0,0,1,.33-.33l.33-.25a8,8,0,0,1,1.39-.72,20.92,20.92,0,0,1,2.82-.89c1.89-.48,3.79-.82,5.69-1.12,3.81-.58,7.64-.95,11.47-1.25,7.66-.61,15.34-.85,23-.87s15.36.2,23,.78c3.83.3,7.66.67,11.47,1.26a56.44,56.44,0,0,1,5.71,1.12,21.51,21.51,0,0,1,2.83.89,7.82,7.82,0,0,1,1.4.73l.35.25c.11.1.22.22.33.34A1.81,1.81,0,0,1,151.53,184.15Zm-1.38,0a1.16,1.16,0,0,0-.52-.55,6.52,6.52,0,0,0-1.15-.59,20.35,20.35,0,0,0-2.64-.85c-1.82-.47-3.69-.81-5.57-1.11-3.76-.59-7.57-1-11.37-1.29-7.62-.6-15.28-.84-22.93-.87s-15.3.21-22.93.79c-3.81.3-7.61.69-11.38,1.28-1.88.3-3.75.65-5.58,1.12a20.49,20.49,0,0,0-2.65.85,6.42,6.42,0,0,0-1.17.6,1.13,1.13,0,0,0-.55.62,1.08,1.08,0,0,0,.56.61,7,7,0,0,0,1.16.6,22.3,22.3,0,0,0,2.66.84c1.82.46,3.7.8,5.58,1.09,3.76.58,7.57,1,11.38,1.25,7.62.57,15.27.78,22.92.78s15.3-.27,22.92-.87c3.81-.3,7.61-.67,11.37-1.25a54.27,54.27,0,0,0,5.57-1.09,20.44,20.44,0,0,0,2.65-.83,7.73,7.73,0,0,0,1.15-.59A1.16,1.16,0,0,0,150.15,184.15Z" style="fill:url(#linear-gradient-18)"/></g><polygon points="127.28 257.31 142.96 252.27 154.97 147.68 131.49 150.9 127.28 257.31" style="opacity:0.4;fill:url(#linear-gradient-19)"/><path d="M144.11,251.7c-24.2,9-49.07,8.62-76.43-.14l-8.6-103.69c32.73,4.87,63.85,5.59,94.63.41Z" style="fill:#fff;opacity:0.15"/><polygon points="85.78 256.19 67.83 251.7 59.08 148.41 81.02 151.04 85.78 256.19" style="opacity:0.4;fill:url(#linear-gradient-20)"/><path d="M159.14,140.82s-.24-.76-.26-.8c-.57-1.84-2.33-4.11-16-5.88a300.89,300.89,0,0,0-36.55-1.95c-14.09,0-27.13.57-36.69,1.79-13.86,1.78-15.21,4.14-15.86,6,0,0-.65.11,0,.46l-.1.21c-.37-.4-.09-.12-.09-.12-1.25-.38-.35,1.06-.38,1.28.06,2.36,4.67,5.14,16.77,6.74a296,296,0,0,0,36.54,2.07,290.27,290.27,0,0,0,36-1.86C155.38,147,160.13,143.33,159.14,140.82Zm-52.83-4.26c25.11,0,40.75,1.26,46.37,3.24-1.21.22-2.17.52,0,.21-2.2.32-14.37,4.12-46.43,4.12-29.24,0-43.69-3.36-46.34-4.2,1.83.58.07,0,.06,0C65.47,137.93,80.8,136.56,106.31,136.56Z" style="opacity:0.5;fill:url(#linear-gradient-21)"/><path d="M58.53,139.8l0,0c2,1.94,18.54,4.82,47.79,4.82,32.06,0,45.68-3.24,47.26-4.8,0,0,0-.05.06-.13-5.62-2-22.21-4.1-47.32-4.1C80.83,135.63,64,137.8,58.53,139.8Zm47.81,3.61c-19.76,0-34-1.29-41.77-2.7,7.78-1.41,22-2.7,41.77-2.7s34.08,1.29,41.88,2.7C140.42,142.12,126.14,143.41,106.34,143.41Z" style="fill:#4e8b9b"/><path d="M162,140.86c-1.53-4.15-5.24-6.73-18.53-8.41a311.62,311.62,0,0,0-37.14-1.92,309.93,309.93,0,0,0-37.06,1.92c-9.07,1.15-16.82,3.17-18.33,8.48-.85,3,.43,5.31,5.06,7.15l7.62,92.42c.09.81,1.67,1.37,2.4,1.56l.93,9.08c1.14,5.46,16.09,9.54,39,9.54s37-4.29,39-9.54l1.13-8.83c.68-.22,2.24-1,2.36-1.89l8.49-92C161.21,146.33,163.06,143.7,162,140.86ZM139.7,249.14c-5.38,5.22-18.37,7.05-30,7.05-10,0-29.79-.57-38.08-6.11-1.27-.84-1.27-4.54-1.51-7.35,8.56,2.24,23.54,4.49,39.59,4.49,11.77,0,21.57-2.27,31.2-4.52C140.55,245.35,140.5,248.36,139.7,249.14Zm2.84-10.09c-3.24,2.17-14.64,5.88-36.74,5.88s-33.63-3-36.87-5.13c-2.4-1.61-6.78-68.4-7.67-90.16,2.17.48,4.69.93,7.65,1.33a273.34,273.34,0,0,0,36.71,2.65c14.2,0,28.18-.55,37.93-1.79a61.39,61.39,0,0,0,7.2-1.32C150,176.36,144.94,237.45,142.54,239.05Zm-.16-91.31a290.15,290.15,0,0,1-36,1.9,295.72,295.72,0,0,1-36.29-1.9c-12.1-1.6-16.18-3.84-16.24-6.21,0-.21.1-.68.13-.81h0c.65-1.81,1.87-4.13,15.73-5.91a307,307,0,0,1,36.66-1.9,302.86,302.86,0,0,1,36.49,1.9c13.72,1.77,14.85,4,15.43,5.8l.05.17C159.3,143.29,155.34,146,142.38,147.74Z" style="fill:#4e8b9b"/><path d="M97.83,247.83a128.82,128.82,0,0,1-19-2.12,56.51,56.51,0,0,0,.7,10.57c7,2,15.5,2.34,18.9,2.44C98.42,257.07,98.1,254.37,97.83,247.83Z" style="opacity:0.6000000000000001;fill:url(#linear-gradient-22)"/><path d="M93,240.72c-2.94-34.94-2.66-71-1.42-86.21a190.67,190.67,0,0,1-24.08-2.27c0,21.84,2.56,67.27,7.39,86.78a32.74,32.74,0,0,0,1.72,5.18c6.5,1.26,14,2.06,16.68,2.28C93.33,244.83,93.22,243,93,240.72Z" style="opacity:0.6000000000000001;fill:url(#linear-gradient-23)"/><path d="M85,150.88c.66-3.23.68-4.68,3.11-6.63-7.21-.36-14.53-1-21.17-2-2.9,2.62-2.09,3.1-2.31,6.18C68.71,149.53,79.93,150.79,85,150.88Z" style="opacity:0.6000000000000001;fill:url(#linear-gradient-24)"/><path d="M63.24,145.33c7.11,1.49,19.47,2.52,31.53,2.77" style="fill:none;stroke-miterlimit:10;stroke-width:2.49272778653036px;opacity:0.5;stroke:url(#linear-gradient-25)"/><path d="M141.64,138.86a6,6,0,0,1,2.69-5.25c-7.23-.87-13.82-1.46-21-1.68-1.77,1.24-2.13,3.16-2.13,5.32C126.26,137.44,135.43,138.06,141.64,138.86Z" style="opacity:0.4;fill:url(#linear-gradient-26)"/></g><g id="Blue_Probe" data-name="Blue Probe"><path d="M229.9,115.06h-.28a2.5,2.5,0,0,1-2.2-2.77L230.32,87a2.5,2.5,0,1,1,5,.57l-2.89,25.32A2.51,2.51,0,0,1,229.9,115.06Z"/><path d="M230.73,102.34c-.28,1.69-.53,3.38-.76,5.07l-.31,2.55a8.5,8.5,0,0,0-.12,2.57.52.52,0,1,1-1,.18.51.51,0,0,1,0-.3,8.9,8.9,0,0,0,.51-2.52l.3-2.55c.19-1.7.36-3.41.49-5.11a.45.45,0,0,1,.9.07S230.73,102.32,230.73,102.34Z" style="fill:#fff"/><path d="M234.35,104.74c4.63-36,4.17-71.11,2.48-104.16l-7,.16c1.68,32.77,2.15,67.56-2.42,103.1Z" style="fill:#4c4c4c"/><path d="M237.48,87.45c1.6-26.38,3.13-56.81.9-84.08l-10,.81c2.17,26.62.66,56.63-.92,82.67Z" style="fill:#00bdff"/><path d="M239.36,89.57l-14-.85.12-2c1.58-26,3.09-55.89.92-82.37l-.16-2,14-1.13.17,2c2.23,27.4.71,57.91-.9,84.36ZM229.62,85l6,.36c1.52-25.19,2.88-53.87,1-79.8l-6,.49C232.47,31.57,231.12,60,229.62,85Z" style="fill:#0082a0"/></g><g id="Yellow_Probe" data-name="Yellow Probe"><path d="M222.1,115.06a2.51,2.51,0,0,1-2.49-2.21l-2.89-25.32a2.5,2.5,0,1,1,5-.57l2.9,25.32a2.5,2.5,0,0,1-2.2,2.77Z"/><path d="M220.68,102.36c.14,1.71.31,3.41.49,5.11l.31,2.55a9.16,9.16,0,0,0,.5,2.52.52.52,0,1,1-.95.43.48.48,0,0,1,0-.31,8.83,8.83,0,0,0-.12-2.57l-.32-2.54c-.23-1.7-.47-3.39-.76-5.08a.45.45,0,1,1,.89-.15Z" style="fill:#fff"/><path d="M224.59,103.84c-4.71-36.62-4-72.27-2.43-102.91l-7,.19c-1.56,30.83-2.25,66.67,2.51,103.62Z" style="fill:#4c4c4c"/><path d="M212.64,89.57l14-.85-.12-2c-1.58-26-3.09-55.89-.92-82.37l.16-2L211.8,1.22h0l-.16,2c-2.23,27.4-.71,57.91.9,84.36Z" style="fill:#ad9c00"/><path d="M215.45,5.53c-1.93,25.93-.57,54.61.94,79.8l6-.36c-1.5-25-2.85-53.4-.95-78.95Z" style="fill:#ebd900"/></g><path id="FADE_top" data-name="FADE top" d="M443.87,294.57C343.6,312.92,166.11,320.75,12.42,306.48,3.29,229.17-5.79,117.86,7.08,17.31,144-2.8,354.31-4,442.27,6.74,450.15,106,455.08,215,443.87,294.57Z" style="fill-rule:evenodd;fill:url(#linear-gradient-27)"/></svg>