<svg id="arrow" xmlns="http://www.w3.org/2000/svg" viewBox="0 0 51 51"><title>mixing-view-modal-arrow-button</title><g id="Arrow-2" data-name="Arrow"><g id="back"><circle cx="25.63" cy="25.76" r="25" style="fill:#4d4d4d"/></g><path id="arrow-3" data-name="arrow" d="M23.49,11.68a.51.51,0,0,0-.54.8,21.44,21.44,0,0,1,2.93,5.95,20,20,0,0,0-2.76.74,25.74,25.74,0,0,0-3,1.17c-.95.49-1.9.95-2.78,1.52a30,30,0,0,0-4.92,3.78c-.73.72-1.45,1.45-2.11,2.22-.33.39-.66.79-1,1.2s-.6.8-1,1.34l4.55,3.22c.18-.19.49-.53.77-.8s.58-.56.89-.83c.61-.55,1.26-1.06,1.91-1.55a24.07,24.07,0,0,1,6.38-3.28,20.41,20.41,0,0,1,2.25-.54,13.34,13.34,0,0,1,2.07-.27,39.67,39.67,0,0,1-.33,6.5.52.52,0,0,0,.88.45c8.45-8.32,15.14-9.94,15.14-9.94S37,15.29,23.49,11.68Z" style="fill:#afafaf"/></g></svg>