<svg id="Mixing_View_-_Label_Water_A" data-name="Mixing View - Label Water A" xmlns="http://www.w3.org/2000/svg" xmlns:xlink="http://www.w3.org/1999/xlink" viewBox="0 0 285 141"><defs><radialGradient id="radial-gradient" cx="75.97" cy="69.9" r="12.45" gradientTransform="translate(-26.09 38.86) scale(0.95 1.11)" gradientUnits="userSpaceOnUse"><stop offset="0" stop-color="#fff" stop-opacity="0"/><stop offset="1" stop-color="#136999"/></radialGradient><linearGradient id="linear-gradient" x1="45.85" y1="119.36" x2="45.85" y2="18.74" gradientUnits="userSpaceOnUse"><stop offset="0" stop-color="#61e9ff"/><stop offset="1" stop-color="#61e9ff" stop-opacity="0"/></linearGradient><linearGradient id="linear-gradient-2" x1="45.85" y1="119.36" x2="45.85" y2="17.43" gradientUnits="userSpaceOnUse"><stop offset="0" stop-color="#136999"/><stop offset="0.05" stop-color="#1f719e" stop-opacity="0.95"/><stop offset="0.13" stop-color="#4085ac" stop-opacity="0.81"/><stop offset="0.23" stop-color="#75a7c3" stop-opacity="0.58"/><stop offset="0.34" stop-color="#bed6e3" stop-opacity="0.27"/><stop offset="0.42" stop-color="#fff" stop-opacity="0"/><stop offset="1" stop-color="#136999" stop-opacity="0.9"/></linearGradient><linearGradient id="linear-gradient-3" x1="24.42" y1="68.4" x2="67.29" y2="68.4" gradientUnits="userSpaceOnUse"><stop offset="0.42" stop-color="#fff" stop-opacity="0"/><stop offset="1" stop-color="#136999" stop-opacity="0.7"/></linearGradient><linearGradient id="linear-gradient-4" x1="47.62" y1="13.38" x2="50.31" y2="13.38" gradientUnits="userSpaceOnUse"><stop offset="0" stop-color="#fff" stop-opacity="0"/><stop offset="0.77" stop-color="#fff"/></linearGradient><linearGradient id="linear-gradient-5" x1="47.01" y1="105.07" x2="64.52" y2="105.07" xlink:href="#linear-gradient-4"/><linearGradient id="linear-gradient-6" x1="48.35" y1="25.18" x2="63.53" y2="25.18" xlink:href="#linear-gradient-4"/><linearGradient id="linear-gradient-7" x1="46.95" y1="62.55" x2="63.08" y2="62.55" xlink:href="#linear-gradient-4"/><linearGradient id="linear-gradient-8" x1="49.38" y1="79.18" x2="62.31" y2="79.18" xlink:href="#linear-gradient-4"/><linearGradient id="linear-gradient-9" x1="23.8" y1="47.13" x2="68.55" y2="47.13" gradientUnits="userSpaceOnUse"><stop offset="0" stop-opacity="0"/><stop offset="0.02" stop-color="#2f2f2f" stop-opacity="0.19"/><stop offset="0.05" stop-color="#666" stop-opacity="0.4"/><stop offset="0.08" stop-color="#959595" stop-opacity="0.58"/><stop offset="0.11" stop-color="#bbb" stop-opacity="0.73"/><stop offset="0.13" stop-color="#d9d9d9" stop-opacity="0.85"/><stop offset="0.16" stop-color="#eee" stop-opacity="0.93"/><stop offset="0.19" stop-color="#fbfbfb" stop-opacity="0.98"/><stop offset="0.21" stop-color="#fff"/><stop offset="0.22" stop-color="#fff" stop-opacity="0.95"/><stop offset="0.34" stop-color="#fff" stop-opacity="0.55"/><stop offset="0.42" stop-color="#fff" stop-opacity="0.25"/><stop offset="0.49" stop-color="#fff" stop-opacity="0.07"/><stop offset="0.52" stop-color="#fff" stop-opacity="0"/><stop offset="0.68" stop-color="#fff" stop-opacity="0.34"/><stop offset="0.83" stop-color="#fff" stop-opacity="0.7"/><stop offset="0.85" stop-color="#f8f8f8" stop-opacity="0.68"/><stop offset="0.88" stop-color="#e2e2e2" stop-opacity="0.62"/><stop offset="0.91" stop-color="#bfbfbf" stop-opacity="0.52"/><stop offset="0.94" stop-color="#8d8d8d" stop-opacity="0.39"/><stop offset="0.97" stop-color="#4d4d4d" stop-opacity="0.21"/><stop offset="1" stop-color="#010101" stop-opacity="0"/><stop offset="1" stop-opacity="0"/></linearGradient><linearGradient id="linear-gradient-10" x1="53.99" y1="99.97" x2="103.9" y2="99.97" gradientUnits="userSpaceOnUse"><stop offset="0" stop-color="#8dd3ca"/><stop offset="0.5" stop-color="#8dd3ca" stop-opacity="0"/><stop offset="1" stop-color="#8dd3ca"/></linearGradient><radialGradient id="radial-gradient-2" cx="248.94" cy="1027.76" r="21.45" gradientTransform="translate(-112.85 31.6) scale(0.77 0.09)" gradientUnits="userSpaceOnUse"><stop offset="0" stop-color="#fff" stop-opacity="0.4"/><stop offset="1"/></radialGradient><linearGradient id="linear-gradient-11" x1="87.01" y1="75.56" x2="93.48" y2="75.22" gradientUnits="userSpaceOnUse"><stop offset="0" stop-color="#fff" stop-opacity="0"/><stop offset="0.14" stop-color="#fff" stop-opacity="0.15"/><stop offset="0.38" stop-color="#fff" stop-opacity="0.39"/><stop offset="0.56" stop-color="#fff" stop-opacity="0.54"/><stop offset="0.66" stop-color="#fff" stop-opacity="0.6"/><stop offset="0.71" stop-color="#fff" stop-opacity="0.54"/><stop offset="0.8" stop-color="#fff" stop-opacity="0.39"/><stop offset="0.93" stop-color="#fff" stop-opacity="0.15"/><stop offset="1" stop-color="#fff" stop-opacity="0"/></linearGradient><linearGradient id="linear-gradient-12" x1="85.26" y1="101.14" x2="94.61" y2="100.65" xlink:href="#linear-gradient-11"/><radialGradient id="radial-gradient-3" cx="78.66" cy="118" r="13.11" gradientTransform="translate(0 104.07) scale(1 0.12)" gradientUnits="userSpaceOnUse"><stop offset="0" stop-opacity="0.4"/><stop offset="1" stop-color="#136999"/></radialGradient><linearGradient id="linear-gradient-13" x1="78.45" y1="128.29" x2="78.45" y2="92.13" gradientUnits="userSpaceOnUse"><stop offset="0.28" stop-color="#136999"/><stop offset="1" stop-color="#fff" stop-opacity="0"/></linearGradient><linearGradient id="linear-gradient-14" x1="78.72" y1="91.9" x2="78.72" y2="97.8" gradientUnits="userSpaceOnUse"><stop offset="0" stop-color="#136999" stop-opacity="0"/><stop offset="0.08" stop-color="#136999" stop-opacity="0.17"/><stop offset="0.21" stop-color="#136999" stop-opacity="0.42"/><stop offset="0.35" stop-color="#136999" stop-opacity="0.63"/><stop offset="0.5" stop-color="#136999" stop-opacity="0.79"/><stop offset="0.65" stop-color="#136999" stop-opacity="0.91"/><stop offset="0.81" stop-color="#136999" stop-opacity="0.98"/><stop offset="1" stop-color="#136999"/></linearGradient><linearGradient id="linear-gradient-15" x1="-988.24" y1="103.05" x2="-1000.62" y2="103.05" gradientTransform="matrix(-1, 0, 0, 1, -900, 0)" gradientUnits="userSpaceOnUse"><stop offset="0" stop-color="#fff" stop-opacity="0"/><stop offset="1" stop-color="#fff"/></linearGradient><linearGradient id="linear-gradient-16" x1="69.67" y1="102.97" x2="57.73" y2="102.97" gradientTransform="matrix(1, 0, 0, 1, 0, 0)" xlink:href="#linear-gradient-15"/><linearGradient id="linear-gradient-17" x1="54.94" y1="75.72" x2="102.54" y2="75.72" gradientUnits="userSpaceOnUse"><stop offset="0" stop-color="#fff" stop-opacity="0.8"/><stop offset="0.4" stop-color="#fff" stop-opacity="0.35"/><stop offset="1" stop-color="#fff"/></linearGradient><linearGradient id="linear-gradient-18" x1="66.6" y1="125.37" x2="75.27" y2="125.22" gradientUnits="userSpaceOnUse"><stop offset="0.08" stop-color="#fff" stop-opacity="0"/><stop offset="0.15" stop-color="#fff" stop-opacity="0.21"/><stop offset="0.27" stop-color="#fff" stop-opacity="0.54"/><stop offset="0.37" stop-color="#fff" stop-opacity="0.79"/><stop offset="0.45" stop-color="#fff" stop-opacity="0.94"/><stop offset="0.48" stop-color="#fff"/><stop offset="0.52" stop-color="#fff" stop-opacity="0.94"/><stop offset="0.6" stop-color="#fff" stop-opacity="0.79"/><stop offset="0.7" stop-color="#fff" stop-opacity="0.54"/><stop offset="0.82" stop-color="#fff" stop-opacity="0.21"/><stop offset="0.89" stop-color="#fff" stop-opacity="0"/></linearGradient><linearGradient id="linear-gradient-19" x1="62.46" y1="101.99" x2="73.65" y2="101.2" xlink:href="#linear-gradient-18"/><linearGradient id="linear-gradient-20" x1="60.61" y1="76.36" x2="69.94" y2="79.39" xlink:href="#linear-gradient-18"/><linearGradient id="linear-gradient-21" x1="59.48" y1="78.11" x2="73.7" y2="78.11" gradientUnits="userSpaceOnUse"><stop offset="0" stop-color="#fff" stop-opacity="0"/><stop offset="0.09" stop-color="#fff" stop-opacity="0.21"/><stop offset="0.23" stop-color="#fff" stop-opacity="0.54"/><stop offset="0.35" stop-color="#fff" stop-opacity="0.79"/><stop offset="0.44" stop-color="#fff" stop-opacity="0.94"/><stop offset="0.48" stop-color="#fff"/><stop offset="0.53" stop-color="#fff" stop-opacity="0.94"/><stop offset="0.62" stop-color="#fff" stop-opacity="0.79"/><stop offset="0.75" stop-color="#fff" stop-opacity="0.54"/><stop offset="0.91" stop-color="#fff" stop-opacity="0.21"/><stop offset="1" stop-color="#fff" stop-opacity="0"/></linearGradient><linearGradient id="linear-gradient-22" x1="86.02" y1="71.54" x2="95.13" y2="74.5" xlink:href="#linear-gradient-18"/></defs><title>mixing-view-label-a-water</title><g id="Label_Water_A" data-name="Label Water A"><circle id="Backdrop_A" data-name="Backdrop A" cx="62.43" cy="78.52" r="62.18" style="fill:#8dd3ca"/><path id="Label_A_Back" data-name="Label A Back" d="M93.74,52.7a423,423,0,0,1,72.62-11.56,470.07,470.07,0,0,1,74,.66L229.6,108.36a408.56,408.56,0,0,0-63.39-10.79,371.36,371.36,0,0,0-64.75-.11Z" style="fill:#ebd900"/><g id="Label_A" data-name="Label A"><path d="M125.23,57.88q3.46,15.23,5.5,24.64v0a7.51,7.51,0,0,1-1.51.14,4.56,4.56,0,0,1-.8-.07,4.77,4.77,0,0,1-.81-.14h0c-.17-.46-.39-1.27-.67-2.41-.35-1.38-.66-2.51-.94-3.4-1.08,0-2.49-.07-4.24-.07h-1.47s-.08.51-.24,1.44c-.21,1.28-.41,2.34-.6,3.17s-.39,1.26-.63,1.31a1.14,1.14,0,0,1-.35,0l-.92,0q-.69,0-1.56,0h-.39v0a10.62,10.62,0,0,0,.32-1.85q.87-5.53,2-11.22a90.2,90.2,0,0,1,3.13-11.36,4.07,4.07,0,0,1,.56,0h.77C123.31,58,124.25,58,125.23,57.88Zm-3.18,16q2.24,0,4,0-2-11-2.35-11.41a1.73,1.73,0,0,0-.52-.11c-.28,0-.51.23-.7.69a20.26,20.26,0,0,0-.77,3.06c-.33,1.59-.71,3.59-1.16,6l-.31,1.75h.7C121.39,73.84,121.77,73.85,122.05,73.87Z" style="fill:#fff"/><path d="M136.26,70.79l-2.7,0h-.1a10.06,10.06,0,0,1-.11-1.61l0-1.72c0-.21,0-.45,0-.73a4.8,4.8,0,0,1,1.68-.25,4.23,4.23,0,0,1,1.44.18c0,.12,0,.75-.11,1.89s-.1,1.88-.1,2.2v.07Zm0,11.76-2.66,0h-.1a10.06,10.06,0,0,1-.11-1.61l0-1.72c0-.21,0-.45,0-.73a4.8,4.8,0,0,1,1.68-.25,3.85,3.85,0,0,1,1.4.18c0,.12,0,.75-.1,1.89s-.11,1.88-.11,2.2v.07Z" style="fill:#fff"/><path d="M162.47,58.16l0,0q-.31,3.75-1.09,11.24-.13,1.57-.54,5.62c-.27,2.69-.5,5.14-.68,7.33a2,2,0,0,1-.67.07h-2.2a8.86,8.86,0,0,1-.75-2c-.2-.74-.43-1.7-.69-2.87-.07-.32-.16-.71-.26-1.17s-.23-1-.37-1.52h0l-.88,3.67c-.18.84-.37,1.62-.54,2.33a6.27,6.27,0,0,1-.47,1.42,9.66,9.66,0,0,1-1.72.17,10.56,10.56,0,0,1-1.33-.1h0l-.42-2.91q-1-6.72-1.51-11.6c-.35-3.25-.56-6.47-.63-9.64v0c.38,0,.94-.09,1.68-.14.49,0,1.09,0,1.79.07.07.68.14,2.1.21,4.27.16,3.57.33,6.53.5,8.86a31.76,31.76,0,0,0,.79,5.46c.35-1.24.67-2.46,1-3.66s.7-3.11,1.26-5.72l0-.14a47.67,47.67,0,0,1,1.54,5.18c.54,2,.83,3.07.88,3.18a10.32,10.32,0,0,0,.42,1.37c.32-3.57.58-6.84.75-9.8s.27-4.67.3-5.11q.1-2.65.21-3.75v0a6.72,6.72,0,0,1,1.61-.18C161.08,58.05,161.7,58.09,162.47,58.16Z" style="fill:#fff"/><path d="M175.81,65a17.62,17.62,0,0,1,2.06.07l.91.07a6.9,6.9,0,0,1,.07.84v.35c0,.54,0,1.35,0,2.42,0,.89,0,2.19.07,3.92l0,3.92c0,1.68,0,3.21-.14,4.58v.46a2.48,2.48,0,0,1-.07.63.45.45,0,0,1-.38.35h-.6l-1.12,0a3.47,3.47,0,0,0-.49,0l-.38,0c-.24-.07-.35-.32-.35-.77a2.24,2.24,0,0,1,0-.63,3.56,3.56,0,0,0,.06-.59,4.35,4.35,0,0,1-2.66,1.57,15.93,15.93,0,0,1-3.57.42,3.54,3.54,0,0,1-2.86-1.48,9.87,9.87,0,0,1-1.73-3.66,17.11,17.11,0,0,1-.56-4.24,10.46,10.46,0,0,1,.77-4.09A7.21,7.21,0,0,1,167,66.26a4.88,4.88,0,0,1,3-1.1l1.12,0a8,8,0,0,1,2.61.37,2.63,2.63,0,0,1,1.52,1.35,7.37,7.37,0,0,1,.07-.81c.05-.46.07-.79.07-1C175.35,65,175.5,65,175.81,65Zm-3.92,3.15a4.69,4.69,0,0,0-3.06.93,3.92,3.92,0,0,0-1.53,2.29,11,11,0,0,0-.28,2.73q.18,5.64,4.55,5.39a4.21,4.21,0,0,0,2.59-.63,2.72,2.72,0,0,0,1-1.78,22.82,22.82,0,0,0,.19-3.47,20.4,20.4,0,0,0-.21-3.55,2,2,0,0,0-.89-1.42A6.08,6.08,0,0,0,171.89,68.13Z" style="fill:#fff"/><path d="M188,58.58v5.35l0,2c1.51,0,3.39-.12,5.63-.24a1.87,1.87,0,0,1,.21,1l0,.8a6.77,6.77,0,0,0,0,1.12q-3.81,0-5.7,0v6.54c0,1.05,0,1.8.07,2.24a3.8,3.8,0,0,0,.28,1.16,3.21,3.21,0,0,0,2.26.87,19.56,19.56,0,0,0,3.09.11c.12.93.18,1.53.18,1.78a4.57,4.57,0,0,1-.18,1.26c-.49,0-1.26,0-2.31,0a10.92,10.92,0,0,1-4.27-.67,3.44,3.44,0,0,1-2-2.66,83.58,83.58,0,0,1-.38-8.85V68.73a10.48,10.48,0,0,1-1,0l-2.66,0,.1-2.87c.52,0,1.74.07,3.68.07l0-3.68V60.61c0-1,0-1.67.07-2.07a12.16,12.16,0,0,1,1.51,0l.94,0A3.6,3.6,0,0,0,188,58.58Z" style="fill:#fff"/><path d="M198.87,73.7v.63l0,1c0,2.9,1.42,4.34,4.27,4.34a3.59,3.59,0,0,0,2.54-.78,2.89,2.89,0,0,0,.82-2.16c0-.14,0-.39-.07-.77a9.58,9.58,0,0,1,1.36-.1q.57,0,.84,0l.51,0a4,4,0,0,0,.68,0,19.31,19.31,0,0,1-.14,3.19,5.75,5.75,0,0,1-.84,2.27,3.58,3.58,0,0,1-2.18,1.35,13.6,13.6,0,0,1-3.42.4,14.84,14.84,0,0,1-1.55-.07,3.89,3.89,0,0,1-.9-.14,5.07,5.07,0,0,1-3.95-3.44,15.92,15.92,0,0,1-1.05-6.85c0-.18.06-.57.1-1.17s.11-1.21.2-1.84a7.62,7.62,0,0,1,.47-1.85,4.7,4.7,0,0,1,2.41-2.38,8.87,8.87,0,0,1,3.89-.84,10.29,10.29,0,0,1,2.34.28c3.18.54,4.76,2.93,4.76,7.17,0,.35,0,.86-.07,1.51a22.68,22.68,0,0,1-3.92.35q-.37,0-1.68,0c-1.84,0-3.21,0-4.09-.07A5.89,5.89,0,0,1,198.87,73.7Zm8.51-2.63a5.5,5.5,0,0,0-.54-2.13,4,4,0,0,0-1.46-1.65,4.08,4.08,0,0,0-.91-.31,5.26,5.26,0,0,0-1-.07,4.52,4.52,0,0,0-3.23.94,4.47,4.47,0,0,0-1.21,2.7,3.81,3.81,0,0,0-.07.56.54.54,0,0,0,.4.56,6.77,6.77,0,0,0,1.73.14c.87,0,1.6,0,2.21,0q3.36,0,3.78,0a.46.46,0,0,0,.23-.09.29.29,0,0,0,0-.19Z" style="fill:#fff"/><path d="M215.71,65.16c0,.28,0,.5,0,.65a4.36,4.36,0,0,1,0,.54c.17-.09.39-.2.68-.32l1-.35a9,9,0,0,1,1.94-.4,19.72,19.72,0,0,1,2-.12c.56,0,.84,0,.84.07l0,2.9a9.14,9.14,0,0,0,0,1.05A11.19,11.19,0,0,0,221,68.8a7.46,7.46,0,0,0-1.68-.18,9.91,9.91,0,0,0-2.14.28,2.3,2.3,0,0,0-1.33.74,3.25,3.25,0,0,0-.31,1.85q.13,4.8.14,10.89v.14a5.59,5.59,0,0,1-1.23.14l-.79,0c-.36,0-.72,0-1.1,0l0-6q-.08-4.12-.07-6.2c0-1.12,0-2.89.07-5.32a4.57,4.57,0,0,0,.75,0l.72,0c.28,0,.65,0,1.12,0S215.71,65.11,215.71,65.16Z" style="fill:#fff"/></g><g id="Water_Bottle_A" data-name="Water Bottle A"><path d="M64.44,114.43c-3.39,4.06-9.06,4.93-18.54,4.93-8.64,0-16.76-1.85-19.2-5.7S24.29,99.49,24.51,97s2.36-11.76,2.8-16.2,1.37-14.55-.49-16.56S25.2,43.89,25.2,35.31c0-11.91,15.32-20.19,15.32-21.11,0-.65.11-3.06.11-4l11-.36v4.29c0,.93,14.82,8.88,14.82,21.18,0,9,.5,25.81-1.62,28.1s-1.12,12.48-.73,16.48,2.79,14.12,3,16.93C67.34,99.26,67.82,110.37,64.44,114.43Z" style="fill:#fff;opacity:0.2"/><path d="M62.13,116.19c0,1.82-5.43,3.3-16.09,3.3s-16.73-1.48-16.73-3.3,6.07-3.31,16.73-3.31S62.13,114.36,62.13,116.19Z" style="stroke:#136999;stroke-miterlimit:10;stroke-width:1.21178645321594px;fill:url(#radial-gradient)"/><path d="M64.44,114.43c-3.39,4.06-9.06,4.93-18.54,4.93-8.64,0-16.76-1.85-19.2-5.7S24.29,99.49,24.51,97s2.36-11.76,2.8-16.2,1.37-14.55-.49-16.56S25.2,43.89,25.2,35.31C25.2,23.4,34,20.64,34,19.72c0-.65,7.65.84,7.65-.11l5.9-.87c0,.67,10.38.66,10.38,1.2,0,.93,8.53,3.07,8.53,15.37,0,9,.5,25.81-1.62,28.1s-1.12,12.48-.73,16.48,2.79,14.12,3,16.93C67.34,99.26,67.82,110.37,64.44,114.43Z" style="opacity:0.5;fill:url(#linear-gradient)"/><path d="M37.07,17.55c4,2,13.33,2,18,.09" style="fill:none;stroke:#545454;stroke-miterlimit:10;stroke-width:0.648002099099335px;opacity:0.7000000000000001"/><path d="M39.35,16.46l1.1-1.87a81.66,81.66,0,0,0,11.6.09l.41,1.53C51.08,14.87,41.58,14.85,39.35,16.46Z" style="fill:#136999"/><path d="M64.44,114.43c-3.39,4.06-9.06,4.93-18.54,4.93-8.64,0-16.76-1.85-19.2-5.7S24.29,99.49,24.51,97s2.36-11.76,2.8-16.2,1.37-14.55-.49-16.56S25.2,43.89,25.2,35.31c0-9.61,10.59-17,11.5-17.88,5.19,2.4,14.46,2,18.59.06.91.87,11.21,6.56,11.21,17.82,0,9,.5,25.81-1.62,28.1s-1.12,12.48-.73,16.48,2.79,14.12,3,16.93C67.34,99.26,67.82,110.37,64.44,114.43Z" style="opacity:0.5;fill:url(#linear-gradient-2)"/><path d="M64.44,114.43c-3.39,4.06-9.06,4.93-18.54,4.93-8.64,0-16.76-1.85-19.2-5.7S24.29,99.49,24.51,97s2.36-11.76,2.8-16.2,1.37-14.55-.49-16.56S25.2,43.89,25.2,35.31c0-9.61,10.59-17,11.5-17.88,5.19,2.4,14.46,2,18.59.06.91.87,11.21,6.56,11.21,17.82,0,9,.5,25.81-1.62,28.1s-1.12,12.48-.73,16.48,2.79,14.12,3,16.93C67.34,99.26,67.82,110.37,64.44,114.43Z" style="opacity:0.5;fill:url(#linear-gradient-3)"/><path d="M69.08,98c-.25-2.9-2.61-13.2-3-17.34s-1.78-15.09.58-17.45,1.9-18,1.9-27.28c0-12.71-15.76-20.86-15.76-21.82,0-.56,0-2.65,0-3.35l-13.12-.16v3.51c0,.95-15.68,9.11-15.68,21.43,0,8.87-.78,26.78,1.3,28.86s1.14,12.41.66,17S23.31,95.46,23.07,98s0,13.63,2.78,17.61,10.55,6,20.23,6c10.61,0,16.43-1.76,20.22-6S69.29,100.49,69.08,98ZM63.7,113.09c-3.32,4-8.49,5.3-17.8,5.3-8.49,0-15.91-1.94-18.31-5.72s-2.19-13.7-2-16.13,2.22-11.58,2.65-16,1.46-14.4-.36-16.37-1.71-20.1-1.71-28.53C26.19,24,41,15.94,41,15c0-.64.11-3,.11-3.93l10-.32V15c0,.91,14.37,8.6,14.37,20.68,0,8.83.41,25.13-1.66,27.38s-1,12.82-.61,16.75,2.31,13.67,2.53,16.43C65.92,98.65,67,109.11,63.7,113.09Z" style="fill:#136999"/><path d="M40.57,16.39a42.94,42.94,0,0,0-9.09,9.19c-2.89,4-3.52,8-3.17,8.14a29.46,29.46,0,0,0,6.89.63c1.15,0-.32-2.72,1.67-8.74.93-2.8,3.47-6.63,6.53-9.76C43.61,15.63,41,16.07,40.57,16.39Z" style="fill:#fff;opacity:0.5"/><path d="M60.65,67.07c-5.4,2.23-25.28,2.5-30.06,0-.76-.39-1.42-2.74,0-2.24,6.4,2.23,23.14,2,30.06,0C62.34,64.35,62.17,66.45,60.65,67.07Z" style="fill:#136999;opacity:0.30000000000000004"/><path d="M29.14,59.68c-.26-.09.19,3.16.51,3.62s5,1.41,6.29,1.41c.47,0,.92-4.3.42-4.3A53.35,53.35,0,0,1,29.14,59.68Z" style="fill:#fff;opacity:0.5"/><path d="M42.13,12.08c-.26-.1-.28,2.29-.06,2.34a7.32,7.32,0,0,0,1.89.1c.21,0,.39-2.3.08-2.3A7.87,7.87,0,0,1,42.13,12.08Z" style="fill:#fff;opacity:0.5"/><path d="M47.7,12.25c-.28,0,.21,2.18.42,2.23a4.74,4.74,0,0,0,2.11-.09,10,10,0,0,0,.06-2.17C50.29,12.13,48.72,12.29,47.7,12.25Z" style="opacity:0.6000000000000001;fill:url(#linear-gradient-4)"/><path d="M30.68,69.26c.33,4-1.07,14.88-1.5,17.18-.1.59,3.58,1.83,4.88,1.83.47,0,2.26-18.47,1.76-18.47C33.43,69.8,30.66,69,30.68,69.26Z" style="fill:#fff;opacity:0.5"/><path d="M28.23,92a22.93,22.93,0,0,0-1.08,6.26,43.64,43.64,0,0,0,1.09,11.07c.74,3.48,7.05,7.15,6.46,5a47.12,47.12,0,0,1-1.53-13.61c0-2,.83-6.57.12-6.74C29.6,93.05,28.53,91.31,28.23,92Z" style="fill:#fff;opacity:0.5"/><path d="M61.05,88.94a54,54,0,0,1-30.21-.19c-1.27-.38-2.86,1.38-1.55,2.13,7.13,4.09,25.09,3.9,33.51.25C64.4,90.43,63.3,88.29,61.05,88.94Z" style="fill:#136999;opacity:0.2"/><path d="M63,93.16c2-.57,2,13.71.28,17.52-2,4.62-8.28,5.92-15,6.33-2.27.13-1.18-21.71,1.4-21.82A72.43,72.43,0,0,0,63,93.16Z" style="opacity:0.6000000000000001;fill:url(#linear-gradient-5)"/><path d="M51.47,16.4C54.16,18.52,59.54,22.31,62,28c.83,1.92,2.14,5.6,1.28,5.75a64.23,64.23,0,0,1-13.63.58c-.89-.13.32-4.67,0-8-.23-2.48-.77-8-1.27-10C48.25,15.82,50.63,15.74,51.47,16.4Z" style="opacity:0.6000000000000001;fill:url(#linear-gradient-6)"/><path d="M62.82,59.89c.71-.09-.17,2.56-.68,3.33-.33.49-3.76,1.11-6.41,1.45a47.71,47.71,0,0,1-7.92.51c-1.05-.07-1.05-4-.48-3.94C53.26,61.58,62,60,62.82,59.89Z" style="opacity:0.6000000000000001;fill:url(#linear-gradient-7)"/><path d="M61,69.15c-.4,5.39,1.15,17.18,1.35,18S54.64,89.87,52,89.31c-2.22-.48-3.78-19.69-1.63-19.42C55.27,70.52,61,68.27,61,69.15Z" style="opacity:0.6000000000000001;fill:url(#linear-gradient-8)"/><path d="M53.79,11.47a75.49,75.49,0,0,1-15.4,0,.71.71,0,0,1-.63-.72,32,32,0,0,1,.12-3.54c.14-.62.58-3.57.58-3.57a1.39,1.39,0,0,1,1.3-1.34,103,103,0,0,1,12.79,0,1.39,1.39,0,0,1,1.31,1.35s.34,2.82.48,3.26a34.51,34.51,0,0,1,.08,3.83A.69.69,0,0,1,53.79,11.47Z" style="fill:#1a64ad"/><path d="M52.47,9.61a73.41,73.41,0,0,1-13.14.2V7.3l.4-3.7A90.94,90.94,0,0,1,52,3.67l.46,3.59Z" style="fill:#347bb7"/><path d="M46.69,3.45c-2-.05-4,0-6.25.11v5.5a57,57,0,0,0,6.25.08Z" style="fill:#4d99ce"/><path d="M44.36,3.43c-.74,0-1.49,0-2.27,0V9.15c.77,0,1.52,0,2.27,0Z" style="fill:#6ab3db"/><path d="M52.42,7.26,52,3.67l-1,0V8.89l1.47-.12Z" style="fill:#4d99ce"/><path d="M39.33,9.81a73.41,73.41,0,0,0,13.14-.2l0-2.28H39.34Z" style="fill:#347bb7"/><path d="M51,8.61l0,1v.16l1.49-.11,0-1.94H52C51.06,7.67,51,7.51,51,8.61Z" style="fill:#4d99ce"/><path d="M45.3,10s0-.07,0-.11L45.22,8.7c0-.52-.33-.9-1.3-.9H42.58a.94.94,0,0,0-.94.94l0,.95a2.44,2.44,0,0,0,0,.28C42.87,10,44.09,10,45.3,10Z" style="fill:#80c6e5"/><path d="M45.47,58.92C36,58.92,28,58,24.81,56.58l0-20.95c4,.81,13.37,1.18,21.53,1.18,7.67,0,16.88-.33,21.18-1.22l-.27,21C63.28,58,54.86,58.92,45.47,58.92Z" style="fill:#b6f8ff"/><path d="M46.86,40.73c6.28-2.15,13.76-.43,20.59,3l.11-8.12c-4.3.89-13.51,1.22-21.18,1.22-8.16,0-17.5-.37-21.53-1.18l0,12.43C32.67,50.87,38.79,43.49,46.86,40.73Z" style="fill:#1ab1c1"/><path d="M42,45.59c-5.55,2.3-10.19,8.11-17.17,7.06v3.93C28,58,36,58.92,45.47,58.92S63.28,58,67.29,56.59l.07-6.09C59.52,43.89,49.46,42.51,42,45.59Z" style="fill:#79d8e2"/><path d="M68.51,35.89c0-.47,0-.94-.07-1.4h0l-.64.17-.23.05-.58.12-.1,0c-4.12.75-12.32,1.1-20.51,1.1a164.5,164.5,0,0,1-20.16-1h0A15.63,15.63,0,0,1,24,34.52H24c0,.33,0,.66,0,1,0,5.68-.31,15,0,21.62h0c3.24,1.78,12.27,2.67,21.53,2.67,8.84,0,17.88-.82,22.27-2.45l.41-.15C68.72,51.18,68.51,42.12,68.51,35.89Zm-42,20.39c-.37-6.1-.36-14.27-.35-19.55a172.75,172.75,0,0,0,20.19,1,178.09,178.09,0,0,0,19.11-.87c0,5.68.13,13.74-.28,19.49-4.34,1.08-11.66,1.75-19.74,1.75S30.23,57.36,26.54,56.28Z" style="fill:#0092aa"/><g style="opacity:0.45"><path d="M68.51,35.89c0-.47,0-.94-.07-1.4h0c-.19.06-.41.11-.65.17l-.23.05-.6.13-.11,0c-8.16,1.47-32.15,1.4-40.63.13h0a17.68,17.68,0,0,1-2-.41L24,34.51h0c0,.33,0,.66,0,1,0,5.68-.31,15,0,21.62h0c6.33,3.48,34.78,3.56,43.78.23l.43-.16C68.72,51.18,68.51,42.12,68.51,35.89Z" style="fill:url(#linear-gradient-9)"/></g></g><g id="Cup_A" data-name="Cup A"><path d="M103.77,75.48c-.69-1.85-2.35-3-8.29-3.76a140.41,140.41,0,0,0-16.61-.86,139.62,139.62,0,0,0-16.58.86c-4,.52-7.52,1.42-8.2,3.8-.37,1.33.2,2.37,2.27,3.2l3.41,41.33c0,.36.74.61,1.07.7l.42,4.06c.5,2.44,7.19,4.26,17.44,4.26s16.56-1.91,17.45-4.26l.51-4c.3-.1,1-.44,1-.85l3.8-41.17C103.41,77.93,104.24,76.76,103.77,75.48Z" style="opacity:0.8;fill:url(#linear-gradient-10)"/><path d="M94.73,124.6c0,1.1-7,3-16.07,3s-16.36-1.91-16.36-3,7.39-2.52,16.45-2.52S94.73,123.51,94.73,124.6Z" style="opacity:0.35000000000000003;fill:url(#radial-gradient-2)"/><path d="M93.46,74.85c-2-.18-3.64-.35-6.45-.46,0,.66,0,1.45.06,2.34,2.6-.14,4.72-.34,6.43-.56C93.49,75.68,93.48,75.23,93.46,74.85Z" style="opacity:0.30000000000000004;fill:url(#linear-gradient-11)"/><path d="M87.11,79.65c.08,9.17-.14,24.77-.82,37.52-.26,4.94.15,5.46,2.94,5.28,1.25-.09,1.08-2.41,1.42-4.94,1.14-8.52,2.63-28.33,2.83-38.33C91.6,79.39,89.45,79.55,87.11,79.65Z" style="opacity:0.30000000000000004;fill:url(#linear-gradient-12)"/><path d="M60.74,119.57c0-1.58,8.93-2.58,18-2.58s17.85,1.14,17.85,2.58" style="fill:none;stroke-miterlimit:10;stroke-width:1.1149077481622px;opacity:0.35000000000000003;stroke:url(#radial-gradient-3)"/><path d="M96.77,119.54l-1.19.32c-.37.1-.43,4.87-.78,5-10.39,4.69-21.79,4.25-32.47.35-.41-.15-.23-4.89-.66-5l-1-.22L58.64,95c5-4,38.63-3.51,39.63,0Z" style="opacity:0.5;fill:url(#linear-gradient-13)"/><g style="opacity:0.7000000000000001"><ellipse cx="78.7" cy="94.85" rx="20.07" ry="2.62" style="fill:#85a4b5"/><path d="M99.08,94.85a1,1,0,0,1-.5.75,3.81,3.81,0,0,1-.63.33,10.2,10.2,0,0,1-1.26.4,25.56,25.56,0,0,1-2.55.51c-1.71.27-3.42.45-5.13.58-3.43.26-6.87.36-10.31.36s-6.87-.12-10.29-.39c-1.72-.14-3.43-.32-5.13-.59-.86-.13-1.71-.29-2.55-.5a12.32,12.32,0,0,1-1.26-.41,3.32,3.32,0,0,1-.62-.32.78.78,0,0,1,0-1.44,3.05,3.05,0,0,1,.62-.32,10.2,10.2,0,0,1,1.26-.4,25.5,25.5,0,0,1,2.55-.5c1.7-.26,3.42-.43,5.13-.56,3.43-.28,6.86-.38,10.29-.39s6.87.09,10.3.35c1.72.13,3.43.3,5.14.56a25.5,25.5,0,0,1,2.55.5,10.2,10.2,0,0,1,1.26.4,3.74,3.74,0,0,1,.63.32A1,1,0,0,1,99.08,94.85Zm-.62,0s-.07-.15-.23-.25a3.48,3.48,0,0,0-.51-.26A8.11,8.11,0,0,0,96.54,94c-.82-.21-1.66-.37-2.5-.5-1.68-.26-3.38-.44-5.08-.58-3.41-.27-6.83-.37-10.26-.38s-6.84.09-10.25.35c-1.71.13-3.41.31-5.09.57-.84.13-1.68.29-2.5.5a9,9,0,0,0-1.18.38,3.76,3.76,0,0,0-.53.27c-.16.1-.25.24-.24.28s.08.18.25.27a3.17,3.17,0,0,0,.52.27,8.69,8.69,0,0,0,1.19.37c.81.21,1.65.36,2.49.49,1.69.26,3.39.43,5.09.56,3.41.26,6.83.35,10.25.35S85.55,97,89,96.77c1.71-.13,3.41-.3,5.09-.56.84-.13,1.68-.28,2.49-.49a9.15,9.15,0,0,0,1.19-.37,3.48,3.48,0,0,0,.51-.26A.48.48,0,0,0,98.46,94.85Z" style="fill:url(#linear-gradient-14)"/></g><polygon points="88.24 127.57 95.25 125.31 100.62 78.54 90.12 79.97 88.24 127.57" style="opacity:0.4;fill:url(#linear-gradient-15)"/><path d="M95.76,125.06c-10.82,4-22,3.86-34.18-.06L57.73,78.62c14.64,2.18,28.56,2.5,42.33.18Z" style="fill:#fff;opacity:0.15"/><polygon points="69.67 127.07 61.65 125.06 57.73 78.86 67.54 80.04 69.67 127.07" style="opacity:0.4;fill:url(#linear-gradient-16)"/><path d="M58.55,75.24c15.56-3,27.51-1.54,40.55,0A117.5,117.5,0,0,1,58.55,75.24Z" style="fill:#fff;opacity:0.30000000000000004"/><path d="M102.48,75.47s-.1-.34-.11-.36c-.26-.82-1.05-1.84-7.18-2.63a134.74,134.74,0,0,0-16.35-.87,137.89,137.89,0,0,0-16.41.8c-6.2.79-6.8,1.85-7.09,2.66,0,0-.29.05,0,.21l0,.09c-.16-.18,0-.05,0-.05-.55-.17-.15.48-.16.57,0,1.06,2.08,2.3,7.49,3a130.49,130.49,0,0,0,16.35.93A130,130,0,0,0,95,79C100.8,78.22,102.93,76.59,102.48,75.47ZM78.86,73.56c11.22,0,18.22.56,20.73,1.45-.53.1-1,.24,0,.1-1,.14-6.42,1.84-20.76,1.84-13.08,0-19.54-1.51-20.73-1.88.82.26,0,0,0,0C60.59,74.17,67.45,73.56,78.86,73.56Z" style="opacity:0.5;fill:url(#linear-gradient-17)"/><path d="M57.49,75v0c.89.87,8.3,2.15,21.38,2.15C93.21,77.18,99.3,75.74,100,75c0,0,0,0,0-.06-2.51-.89-9.93-1.83-21.16-1.83C67.46,73.15,60,74.12,57.49,75Zm21.38,1.62a114.47,114.47,0,0,1-18.68-1.21,114.47,114.47,0,0,1,18.68-1.21A115.21,115.21,0,0,1,97.6,75.42,115.21,115.21,0,0,1,78.87,76.63Z" style="fill:#4e8b9b"/><path d="M103.77,75.48c-.69-1.85-2.35-3-8.29-3.76a140.41,140.41,0,0,0-16.61-.86,139.62,139.62,0,0,0-16.58.86c-4,.52-7.52,1.42-8.2,3.8-.37,1.33.2,2.37,2.27,3.2l3.41,41.33c0,.36.74.61,1.07.7l.42,4.06c.5,2.44,7.19,4.26,17.44,4.26s16.56-1.91,17.45-4.26l.51-4c.3-.1,1-.44,1-.85l3.8-41.17C103.41,77.93,104.24,76.76,103.77,75.48Zm-10,48.43c-2.41,2.34-8.22,3.16-13.43,3.16-4.45,0-13.33-.26-17-2.73-.56-.38-.56-2-.67-3.29a76.16,76.16,0,0,0,17.71,2,59,59,0,0,0,14-2C94.17,122.22,94.15,123.57,93.79,123.91Zm1.27-4.51c-1.45,1-6.55,2.63-16.43,2.63s-15-1.32-16.49-2.29c-1.08-.72-3-30.6-3.43-40.33q1.44.33,3.42.6a122.34,122.34,0,0,0,16.42,1.18,148.41,148.41,0,0,0,17-.8,27.06,27.06,0,0,0,3.22-.59C98.41,91.36,96.13,118.69,95.06,119.4ZM95,78.56a129.86,129.86,0,0,1-16.12.85,132.26,132.26,0,0,1-16.23-.85c-5.41-.71-7.24-1.72-7.27-2.77,0-.1.05-.31.06-.37h0c.29-.81.83-1.85,7-2.64a136.48,136.48,0,0,1,16.4-.85,134.57,134.57,0,0,1,16.32.85c6.14.79,6.64,1.77,6.9,2.59a.25.25,0,0,1,0,.07C102.56,76.57,100.78,77.78,95,78.56Z" style="fill:#4e8b9b"/><path d="M75.06,123.33a58,58,0,0,1-8.51-1,24.89,24.89,0,0,0,.32,4.73,37.25,37.25,0,0,0,8.45,1.09C75.33,127.46,75.19,126.26,75.06,123.33Z" style="opacity:0.6000000000000001;fill:url(#linear-gradient-18)"/><path d="M72.92,120.15a279.5,279.5,0,0,1-.64-38.56,87.19,87.19,0,0,1-10.77-1c0,9.76,1.15,30.08,3.31,38.81a12.76,12.76,0,0,0,.77,2.31c2.9.57,6.25.93,7.45,1C73.05,122,73,121.15,72.92,120.15Z" style="opacity:0.6000000000000001;fill:url(#linear-gradient-19)"/><path d="M69.32,80c.29-1.45.3-2.1,1.39-3-3.22-.16-6.5-.46-9.47-.9-1.29,1.18-.93,1.39-1,2.77A57.51,57.51,0,0,0,69.32,80Z" style="opacity:0.6000000000000001;fill:url(#linear-gradient-20)"/><path d="M59.59,77.49a89.21,89.21,0,0,0,14.1,1.23" style="fill:none;stroke-miterlimit:10;stroke-width:1.1149077481622px;opacity:0.5;stroke:url(#linear-gradient-21)"/><path d="M94.66,74.59a2.68,2.68,0,0,1,1.2-2.35c-3.23-.39-6.18-.65-9.39-.75a2.64,2.64,0,0,0-1,2.38C87.78,74,91.88,74.23,94.66,74.59Z" style="opacity:0.4;fill:url(#linear-gradient-22)"/></g></g></svg>