<svg id="arrow" xmlns="http://www.w3.org/2000/svg" viewBox="0 0 51 51"><title>aclick</title><g id="Arrow-2" data-name="Arrow"><g id="back"><circle cx="25.63" cy="25.76" r="22.5" style="fill:#686868"/></g><path id="arrow-3" data-name="arrow" d="M23.71,13.09a.47.47,0,0,0-.5.72,18.81,18.81,0,0,1,2.64,5.35,17.81,17.81,0,0,0-2.48.67,25,25,0,0,0-2.69,1.05c-.85.44-1.71.85-2.51,1.37a27.32,27.32,0,0,0-4.42,3.4c-.66.65-1.3,1.3-1.9,2-.3.35-.6.71-.88,1.08s-.54.72-.87,1.21l4.09,2.9c.17-.17.44-.48.69-.72s.53-.51.8-.75c.55-.5,1.14-1,1.73-1.4a20.63,20.63,0,0,1,3.76-2.18c.65-.31,1.32-.52,2-.77s1.34-.4,2-.49A13.15,13.15,0,0,1,27,26.29a35,35,0,0,1-.29,5.85.47.47,0,0,0,.79.41c7.6-7.49,13.63-8.95,13.63-8.95S35.88,16.34,23.71,13.09Z" style="fill:#e5e5e5"/></g></svg>