<svg id="Particle_B" data-name="Particle B" xmlns="http://www.w3.org/2000/svg" xmlns:xlink="http://www.w3.org/1999/xlink" viewBox="0 0 43 43"><defs><radialGradient id="radial-gradient" cx="21.5" cy="21.5" fx="12.78444359096328" fy="12.533682898483802" r="23.96" gradientUnits="userSpaceOnUse"><stop offset="0" stop-color="#fff"/><stop offset="0.51" stop-color="#a6a6a6"/><stop offset="0.76" stop-color="gray"/><stop offset="1" stop-color="#ccc"/></radialGradient></defs><title>particle-b-label-placement</title><g id="Particle"><circle cx="21.5" cy="21.5" r="21.5" style="fill:url(#radial-gradient)"/></g><path id="Label_B" data-name="Label B" d="M25.32,20.79a.36.36,0,0,0-.05.22.53.53,0,0,0,.19.36A15.11,15.11,0,0,1,27,23.53a4.22,4.22,0,0,1,.48,2.07,6.58,6.58,0,0,1-.08,1,4.18,4.18,0,0,1-2.19,3.31,10.39,10.39,0,0,1-4.53.86l-1.35,0-1.17-.06c-.75-.06-1.46-.08-2.13-.08a.86.86,0,0,1-.37-.06c-.05-1.47-.08-3.68-.08-6.61l0-8.79c0-1.72,0-3,0-3.86l0,0a16.26,16.26,0,0,1,4.31-.62A8.21,8.21,0,0,1,24.79,12a5.07,5.07,0,0,1,1.9,4.44A8.51,8.51,0,0,1,25.32,20.79Zm-5.74,7.42,1.46.05A4.45,4.45,0,0,0,23,27.91a3.09,3.09,0,0,0,1.3-1.33,2.21,2.21,0,0,0,.22-1,4.37,4.37,0,0,0-.31-1.51,1.88,1.88,0,0,0-1-1.12,3.41,3.41,0,0,0-1.44-.39l-.88,0a5.4,5.4,0,0,0-.73,0l-2,.06a3.14,3.14,0,0,0-.25,1.57,30.17,30.17,0,0,0,.36,4Q19,28.18,19.58,28.21Zm0-8.24L21,20a4.39,4.39,0,0,0,1.88-.32,2.21,2.21,0,0,0,1-1.16,3.8,3.8,0,0,0,.45-1.82,4,4,0,0,0-.09-.84,2.51,2.51,0,0,0-1.06-1.78,4.27,4.27,0,0,0-2.24-.6q-.28,0-.87,0a4.62,4.62,0,0,0-2,.25l0,.76-.06,2v1.14a10.2,10.2,0,0,0,.17,2.24Z" style="fill:#4d4d4d"/></svg>