<svg id="Particle_A" data-name="Particle A" xmlns="http://www.w3.org/2000/svg" viewBox="0 0 43 43"><title>particle-a-label</title><path id="Label_A" data-name="Label A" d="M23.17,10.9q2.76,12.18,4.39,19.71v0a6,6,0,0,1-1.2.11,3.7,3.7,0,0,1-.65-.05l-.64-.11h0c-.13-.38-.31-1-.53-1.94-.28-1.1-.53-2-.76-2.71-.85,0-2-.06-3.38-.06H19.19s-.07.4-.2,1.15c-.16,1-.32,1.87-.47,2.53s-.32,1-.51,1.05a.74.74,0,0,1-.28,0l-.74,0H15.44v0a9.82,9.82,0,0,0,.25-1.49c.47-3,1-5.94,1.64-9A72.75,72.75,0,0,1,19.83,11a2.81,2.81,0,0,1,.45,0h.62A22.36,22.36,0,0,0,23.17,10.9ZM20.62,23.7c1.19,0,2.26,0,3.19,0-1-5.88-1.67-8.92-1.88-9.13a1.46,1.46,0,0,0-.42-.08c-.22,0-.41.18-.56.54a17.85,17.85,0,0,0-.61,2.45c-.26,1.27-.57,2.88-.93,4.82l-.25,1.4h.56C20.1,23.67,20.39,23.68,20.62,23.7Z" style="fill:#fff"/></svg>