<svg id="Mixed_Zoom_Circle_AB" data-name="Mixed Zoom Circle AB" xmlns="http://www.w3.org/2000/svg" xmlns:xlink="http://www.w3.org/1999/xlink" viewBox="0 0 220 167"><defs><radialGradient id="radial-gradient" cx="16.61" cy="-61.58" r="5.44" gradientTransform="matrix(1.18, 0.08, -0.08, 1.18, 35.12, 103.12)" gradientUnits="userSpaceOnUse"><stop offset="0" stop-color="#fff" stop-opacity="0"/><stop offset="0.88" stop-color="#4c4c4c" stop-opacity="0.7"/><stop offset="1"/></radialGradient></defs><title>zoom-circle-ab-water</title><g id="Zoom_Circle" data-name="Zoom Circle"><path d="M59.62,28.28h.25a3.59,3.59,0,0,1-.24,7.17h-.25a3.58,3.58,0,0,1,.24-7.16m0-6.28A9.86,9.86,0,0,0,59,41.7l.67,0A9.87,9.87,0,0,0,60.29,22l-.68,0Z" style="fill:#707070"/><path d="M59.63,38.3l-.44,0a6.43,6.43,0,0,1,.43-12.85l.44,0a6.43,6.43,0,0,1-.43,12.85Z" style="fill-rule:evenodd;fill:url(#radial-gradient)"/><path d="M59.62,26.72H60A5.15,5.15,0,0,1,59.63,37h-.35a5.15,5.15,0,0,1,.34-10.28m0-2.58a7.72,7.72,0,0,0-.52,15.42,4.78,4.78,0,0,0,.53,0,7.72,7.72,0,0,0,.52-15.42l-.53,0Z" style="fill:#fff"/></g></svg>