<svg id="Mixed_Zoom_Fade_AB" data-name="Mixed Zoom Fade AB" xmlns="http://www.w3.org/2000/svg" xmlns:xlink="http://www.w3.org/1999/xlink" viewBox="0 0 220 167"><defs><linearGradient id="linear-gradient" x1="93.74" y1="-5.37" x2="132.71" y2="101.68" gradientTransform="translate(-23.42 20.91) rotate(3.88)" gradientUnits="userSpaceOnUse"><stop offset="0" stop-color="#fff"/><stop offset="1" stop-color="#fff" stop-opacity="0"/></linearGradient></defs><title>zoom-fade-ab-water</title><path id="Fade" d="M193.41,79.57,63.53,23.89S71,35.79,60.92,37.77,52,27.27,52,27.27L4,159.68C38.4,82.68,117.62,52.38,193.41,79.57Z" style="opacity:0.7000000000000001;fill:url(#linear-gradient)"/><g id="Daahed_Line_2" data-name="Daahed Line 2"><polygon points="63.89 23.07 76.56 28.32 75.73 30.27 63.18 24.72 63.89 23.07" style="fill:#707070"/><polygon points="79.73 29.64 92.41 34.9 91.41 37.22 78.87 31.66 79.73 29.64" style="fill:#707070"/><polygon points="95.58 36.21 108.25 41.47 107.1 44.16 94.55 38.61 95.58 36.21" style="fill:#707070"/><polygon points="111.42 42.78 124.1 48.04 122.78 51.11 110.24 45.55 111.42 42.78" style="fill:#707070"/><polygon points="127.27 49.35 139.94 54.61 138.47 58.05 125.92 52.5 127.27 49.35" style="fill:#707070"/><polygon points="143.11 55.92 155.79 61.18 154.15 65 141.6 59.44 143.11 55.92" style="fill:#707070"/><polygon points="158.96 62.49 171.63 67.75 169.84 71.94 157.29 66.39 158.96 62.49" style="fill:#707070"/><polygon points="174.8 69.07 187.48 74.32 185.52 78.89 172.97 73.33 174.8 69.07" style="fill:#707070"/><polygon points="190.65 75.64 194.42 77.2 192.4 81.93 188.66 80.28 190.65 75.64" style="fill:#707070"/></g><g id="Daahed_Line_1" data-name="Daahed Line 1"><polygon points="52.89 27.58 48.37 40.54 46.34 39.8 51.17 26.96 52.89 27.58" style="fill:#707070"/><polygon points="47.24 43.77 42.71 56.73 40.31 55.86 45.14 43.01 47.24 43.77" style="fill:#707070"/><polygon points="41.58 59.97 37.06 72.92 34.27 71.92 39.1 59.07 41.58 59.97" style="fill:#707070"/><polygon points="35.93 76.16 31.4 89.12 28.24 87.97 33.07 75.13 35.93 76.16" style="fill:#707070"/><polygon points="30.27 92.36 25.75 105.31 22.2 104.03 27.03 91.18 30.27 92.36" style="fill:#707070"/><polygon points="24.62 108.55 20.09 121.51 16.17 120.09 21 107.24 24.62 108.55" style="fill:#707070"/><polygon points="18.96 124.75 14.44 137.7 10.13 136.14 14.96 123.3 18.96 124.75" style="fill:#707070"/><polygon points="13.3 140.94 8.78 153.9 4.1 152.2 8.93 139.35 13.3 140.94" style="fill:#707070"/><polygon points="7.65 157.14 6.46 160.56 1.62 158.8 2.89 155.41 7.65 157.14" style="fill:#707070"/></g></svg>