<svg id="Mixing_View_Step_1B" data-name="Mixing View Step 1B" xmlns="http://www.w3.org/2000/svg" xmlns:xlink="http://www.w3.org/1999/xlink" viewBox="0 0 451 314"><defs><linearGradient id="linear-gradient" x1="-707.1" y1="195.6" x2="-595.51" y2="195.6" gradientTransform="translate(996.81)" gradientUnits="userSpaceOnUse"><stop offset="0" stop-color="#8dd3ca"/><stop offset="0.5" stop-color="#8dd3ca" stop-opacity="0"/><stop offset="1" stop-color="#8dd3ca"/></linearGradient><radialGradient id="radial-gradient" cx="-726.67" cy="1224.28" r="47.95" gradientTransform="translate(903.15 140.14) scale(0.77 0.09)" gradientUnits="userSpaceOnUse"><stop offset="0" stop-color="#fff" stop-opacity="0.4"/><stop offset="1"/></radialGradient><linearGradient id="linear-gradient-2" x1="-633.26" y1="141.03" x2="-618.81" y2="140.28" gradientTransform="translate(996.81)" gradientUnits="userSpaceOnUse"><stop offset="0" stop-color="#fff" stop-opacity="0"/><stop offset="0.14" stop-color="#fff" stop-opacity="0.15"/><stop offset="0.38" stop-color="#fff" stop-opacity="0.39"/><stop offset="0.56" stop-color="#fff" stop-opacity="0.54"/><stop offset="0.66" stop-color="#fff" stop-opacity="0.6"/><stop offset="0.71" stop-color="#fff" stop-opacity="0.54"/><stop offset="0.8" stop-color="#fff" stop-opacity="0.39"/><stop offset="0.93" stop-color="#fff" stop-opacity="0.15"/><stop offset="1" stop-color="#fff" stop-opacity="0"/></linearGradient><linearGradient id="linear-gradient-3" x1="-637.19" y1="198.21" x2="-616.28" y2="197.12" xlink:href="#linear-gradient-2"/><radialGradient id="radial-gradient-2" cx="-651.93" cy="235.91" r="29.32" gradientTransform="translate(996.81 208.07) scale(1 0.12)" gradientUnits="userSpaceOnUse"><stop offset="0" stop-opacity="0.4"/><stop offset="1" stop-color="#136999"/></radialGradient><linearGradient id="linear-gradient-4" x1="-652.4" y1="258.91" x2="-652.4" y2="178.08" gradientTransform="translate(996.81)" gradientUnits="userSpaceOnUse"><stop offset="0.28" stop-color="#136999"/><stop offset="1" stop-color="#fff" stop-opacity="0"/></linearGradient><linearGradient id="Line" x1="343.13" y1="184.81" x2="358.15" y2="184.81" gradientUnits="userSpaceOnUse"><stop offset="0" stop-color="#136999" stop-opacity="0"/><stop offset="0.08" stop-color="#136999" stop-opacity="0.17"/><stop offset="0.21" stop-color="#136999" stop-opacity="0.42"/><stop offset="0.35" stop-color="#136999" stop-opacity="0.63"/><stop offset="0.5" stop-color="#136999" stop-opacity="0.79"/><stop offset="0.65" stop-color="#136999" stop-opacity="0.91"/><stop offset="0.81" stop-color="#136999" stop-opacity="0.98"/><stop offset="1" stop-color="#136999"/></linearGradient><linearGradient id="linear-gradient-5" x1="345.02" y1="177.57" x2="345.02" y2="190.74" xlink:href="#Line"/><linearGradient id="linear-gradient-6" x1="-103.48" y1="202.5" x2="-131.16" y2="202.5" gradientTransform="matrix(-1, 0, 0, 1, 262.81, 0)" gradientUnits="userSpaceOnUse"><stop offset="0" stop-color="#fff" stop-opacity="0"/><stop offset="1" stop-color="#fff"/></linearGradient><linearGradient id="linear-gradient-7" x1="-672.03" y1="202.3" x2="-698.73" y2="202.3" gradientTransform="translate(996.81)" xlink:href="#linear-gradient-6"/><linearGradient id="linear-gradient-8" x1="292.4" y1="140.44" x2="292.5" y2="140.44" gradientUnits="userSpaceOnUse"><stop offset="0" stop-color="#fff" stop-opacity="0.8"/><stop offset="0.4" stop-color="#fff" stop-opacity="0.35"/><stop offset="1" stop-color="#fff"/></linearGradient><linearGradient id="linear-gradient-9" x1="291.84" y1="141.39" x2="398.27" y2="141.39" xlink:href="#linear-gradient-8"/><linearGradient id="linear-gradient-10" x1="-678.9" y1="252.39" x2="-659.51" y2="252.05" gradientTransform="translate(996.81)" gradientUnits="userSpaceOnUse"><stop offset="0.08" stop-color="#fff" stop-opacity="0"/><stop offset="0.15" stop-color="#fff" stop-opacity="0.21"/><stop offset="0.27" stop-color="#fff" stop-opacity="0.54"/><stop offset="0.37" stop-color="#fff" stop-opacity="0.79"/><stop offset="0.45" stop-color="#fff" stop-opacity="0.94"/><stop offset="0.48" stop-color="#fff"/><stop offset="0.52" stop-color="#fff" stop-opacity="0.94"/><stop offset="0.6" stop-color="#fff" stop-opacity="0.79"/><stop offset="0.7" stop-color="#fff" stop-opacity="0.54"/><stop offset="0.82" stop-color="#fff" stop-opacity="0.21"/><stop offset="0.89" stop-color="#fff" stop-opacity="0"/></linearGradient><linearGradient id="linear-gradient-11" x1="-688.15" y1="200.11" x2="-663.13" y2="198.36" xlink:href="#linear-gradient-10"/><linearGradient id="linear-gradient-12" x1="-692.29" y1="142.82" x2="-671.44" y2="149.59" xlink:href="#linear-gradient-10"/><linearGradient id="linear-gradient-13" x1="-694.82" y1="146.73" x2="-663.02" y2="146.73" gradientTransform="translate(996.81)" gradientUnits="userSpaceOnUse"><stop offset="0" stop-color="#fff" stop-opacity="0"/><stop offset="0.09" stop-color="#fff" stop-opacity="0.21"/><stop offset="0.23" stop-color="#fff" stop-opacity="0.54"/><stop offset="0.35" stop-color="#fff" stop-opacity="0.79"/><stop offset="0.44" stop-color="#fff" stop-opacity="0.94"/><stop offset="0.48" stop-color="#fff"/><stop offset="0.53" stop-color="#fff" stop-opacity="0.94"/><stop offset="0.62" stop-color="#fff" stop-opacity="0.79"/><stop offset="0.75" stop-color="#fff" stop-opacity="0.54"/><stop offset="0.91" stop-color="#fff" stop-opacity="0.21"/><stop offset="1" stop-color="#fff" stop-opacity="0"/></linearGradient><linearGradient id="linear-gradient-14" x1="-635.48" y1="132.04" x2="-615.12" y2="138.65" xlink:href="#linear-gradient-10"/><linearGradient id="linear-gradient-15" x1="-946.1" y1="195.6" x2="-834.51" y2="195.6" xlink:href="#linear-gradient"/><radialGradient id="radial-gradient-3" cx="-1037.58" cy="1224.28" r="47.95" xlink:href="#radial-gradient"/><linearGradient id="linear-gradient-16" x1="-872.26" y1="141.03" x2="-857.81" y2="140.28" xlink:href="#linear-gradient-2"/><linearGradient id="linear-gradient-17" x1="-876.19" y1="198.21" x2="-855.28" y2="197.12" xlink:href="#linear-gradient-2"/><radialGradient id="radial-gradient-4" cx="-890.93" cy="235.91" r="29.32" xlink:href="#radial-gradient-2"/><linearGradient id="linear-gradient-18" x1="-891.4" y1="258.91" x2="-891.4" y2="178.08" xlink:href="#linear-gradient-4"/><linearGradient id="Line-2" x1="94.48" y1="184.96" x2="109.51" y2="184.96" xlink:href="#Line"/><linearGradient id="linear-gradient-19" x1="106.02" y1="177.57" x2="106.02" y2="190.74" xlink:href="#Line"/><linearGradient id="linear-gradient-20" x1="135.52" y1="202.5" x2="107.84" y2="202.5" xlink:href="#linear-gradient-6"/><linearGradient id="linear-gradient-21" x1="-911.03" y1="202.3" x2="-937.73" y2="202.3" gradientTransform="translate(996.81)" xlink:href="#linear-gradient-6"/><linearGradient id="linear-gradient-22" x1="53.4" y1="140.44" x2="53.5" y2="140.44" xlink:href="#linear-gradient-8"/><linearGradient id="linear-gradient-23" x1="52.84" y1="141.39" x2="159.27" y2="141.39" xlink:href="#linear-gradient-8"/><linearGradient id="linear-gradient-24" x1="-917.9" y1="252.39" x2="-898.51" y2="252.05" xlink:href="#linear-gradient-10"/><linearGradient id="linear-gradient-25" x1="-927.15" y1="200.11" x2="-902.13" y2="198.36" xlink:href="#linear-gradient-10"/><linearGradient id="linear-gradient-26" x1="-931.29" y1="142.82" x2="-910.44" y2="149.59" xlink:href="#linear-gradient-10"/><linearGradient id="linear-gradient-27" x1="-933.82" y1="146.73" x2="-902.02" y2="146.73" xlink:href="#linear-gradient-13"/><linearGradient id="linear-gradient-28" x1="-874.48" y1="132.04" x2="-854.12" y2="138.65" xlink:href="#linear-gradient-10"/><linearGradient id="linear-gradient-29" x1="225.56" y1="313.84" x2="225.56" y2="0.03" gradientUnits="userSpaceOnUse"><stop offset="0.69" stop-color="#6cc7bb" stop-opacity="0"/><stop offset="1" stop-color="#6cc7bb"/></linearGradient></defs><title>mixing-view-step1b</title><path id="Mixing_View_Modal_Back_1" data-name="Mixing View Modal Back 1" d="M443.87,294.57C343.6,312.92,166.11,320.75,12.42,306.48,3.29,229.17-5.79,117.86,7.08,17.31,144-2.8,354.31-4,442.27,6.74,450.15,106,455.08,215,443.87,294.57Z" style="fill:#6cc7bb;fill-rule:evenodd"/><g id="Step_1b_2a" data-name="Step 1b / 2a"><g id="Cup_B" data-name="Cup B"><path d="M401,140.86c-1.53-4.15-5.24-6.73-18.53-8.41a311.62,311.62,0,0,0-37.14-1.92,309.93,309.93,0,0,0-37.06,1.92c-9.07,1.15-16.82,3.17-18.33,8.48-.85,3,.43,5.31,5.06,7.15l7.62,92.42c.09.81,1.67,1.37,2.4,1.56l.93,9.08c1.14,5.46,16.09,9.54,39,9.54s37-4.29,39-9.54l1.13-8.83c.68-.22,2.24-1,2.36-1.89l8.49-92C400.21,146.33,402.06,143.7,401,140.86Z" style="opacity:0.8;fill:url(#linear-gradient)"/><path d="M380.79,250.68c0,2.45-15.67,6.72-35.91,6.72s-36.59-4.27-36.59-6.72S324.82,245,345.06,245,380.79,248.23,380.79,250.68Z" style="opacity:0.35000000000000003;fill:url(#radial-gradient)"/><path d="M378,139.45c-4.58-.42-8.13-.78-14.41-1,.05,1.49.1,3.25.14,5.24,5.79-.32,10.53-.77,14.36-1.25C378,141.3,378,140.3,378,139.45Z" style="opacity:0.30000000000000004;fill:url(#linear-gradient-2)"/><path d="M363.77,150.18c.17,20.49-.31,55.37-1.83,83.88-.58,11,.32,12.22,6.56,11.8,2.81-.19,2.43-5.39,3.18-11.05,2.54-19,5.88-63.34,6.33-85.68C373.8,149.59,369,149.94,363.77,150.18Z" style="opacity:0.30000000000000004;fill:url(#linear-gradient-3)"/><path d="M304.81,239.42c0-3.53,20-5.76,40.21-5.76S385,236.21,385,239.42" style="fill:none;stroke-miterlimit:10;stroke-width:2.49272778653036px;opacity:0.35000000000000003;stroke:url(#radial-gradient-2)"/><path d="M299.92,140.32c34.77-6.73,61.49-3.45,90.66-.08C359.29,145.62,331,145.45,299.92,140.32Z" style="fill:#fff;opacity:0.30000000000000004"/><g id="Blue_Probe" data-name="Blue Probe"><path d="M346.72,237.06h-.29a2.5,2.5,0,0,1-2.2-2.77l2.9-25.32a2.5,2.5,0,0,1,5,.57l-2.9,25.32A2.5,2.5,0,0,1,346.72,237.06Z"/><path d="M347.54,224.34c-.28,1.69-.52,3.38-.75,5.07l-.32,2.55a8.83,8.83,0,0,0-.12,2.57.52.52,0,1,1-1,.18.51.51,0,0,1,0-.3,8.9,8.9,0,0,0,.51-2.52l.3-2.55c.19-1.7.36-3.41.5-5.11a.44.44,0,0,1,.48-.41.45.45,0,0,1,.41.48A.08.08,0,0,1,347.54,224.34Z" style="fill:#fff"/><path d="M344.22,225.84l6.95.9c6.35-49.41,3.17-96.92.1-142.87C349.42,56.25,347.64,29.62,348,4a25.67,25.67,0,0,0-.11-3.17L341.23.62A20.27,20.27,0,0,0,341,3.45c-.43,26,1.37,53,3.24,80.89C347.33,130,350.49,177.12,344.22,225.84Z" style="fill:#4c4c4c"/><path d="M354.29,209.45c1.61-26.38,3.13-56.81.91-84.08l-10,.81c2.17,26.62.66,56.63-.92,82.67Z" style="fill:#00bdff"/><path d="M356.17,211.57l-14-.85.12-2c1.58-26,3.09-55.89.93-82.37l-.17-2,14-1.13.16,2c2.24,27.4.71,57.91-.9,84.36Zm-9.74-4.6,6,.36c1.51-25.19,2.87-53.87.94-79.8l-6,.49C349.28,153.57,347.93,182,346.43,207Z" style="fill:#0082a0"/></g><path d="M385.35,239.36l-2.65.71c-.83.22-.95,10.89-1.74,11.25-23.23,10.49-48.71,9.5-72.6.78-.93-.34-.51-10.94-1.48-11.13l-2.29-.49L300.1,184.4c11.22-9,86.38-7.85,88.62,0Z" style="opacity:0.5;fill:url(#linear-gradient-4)"/><path d="M357.65,184.07c-.38,1.94-13.86,2-14,.15" style="fill:none;stroke-linecap:round;stroke-miterlimit:10;stroke:url(#Line)"/><path d="M357.86,178.54c-.06,1.84-.13,3.69-.21,5.53-.38,1.94-13.86,2-14,.15.09-2,.16-3.95.23-5.93-24.26.08-43.76,2.67-43.76,5.86S320.19,190,345,190s44.87-2.63,44.87-5.86C389.84,181.5,376.36,179.26,357.86,178.54Z" style="fill:#85a4b5;opacity:0.7000000000000001"/><path d="M390.09,183.06c-.11-.12-.22-.24-.33-.34l-.35-.25a7.82,7.82,0,0,0-1.4-.73,21.51,21.51,0,0,0-2.83-.89,56.44,56.44,0,0,0-5.71-1.12c-3.81-.59-7.64-1-11.47-1.26q-5.06-.37-10.11-.55c0,.42,0,.83-.05,1.25,3.35.14,6.71.33,10.06.59,3.8.31,7.61.7,11.37,1.29,1.88.3,3.75.64,5.57,1.11a20.35,20.35,0,0,1,2.64.85,6.52,6.52,0,0,1,1.15.59.55.55,0,0,1,0,1.09,7.73,7.73,0,0,1-1.15.59,20.44,20.44,0,0,1-2.65.83,54.27,54.27,0,0,1-5.57,1.09c-3.76.58-7.56,1-11.37,1.25-7.62.6-15.27.84-22.92.87s-15.3-.21-22.92-.78c-3.81-.3-7.62-.67-11.38-1.25-1.88-.29-3.76-.63-5.58-1.09a22.3,22.3,0,0,1-2.66-.84,7,7,0,0,1-1.16-.6,1.08,1.08,0,0,1-.56-.61,1.13,1.13,0,0,1,.55-.62,6.42,6.42,0,0,1,1.17-.6,20.49,20.49,0,0,1,2.65-.85c1.83-.47,3.7-.82,5.58-1.12,3.77-.59,7.57-1,11.38-1.28,7.25-.55,14.53-.76,21.8-.78,0-.4,0-.8.05-1.2-7.32,0-14.64.28-21.94.86-3.83.3-7.66.67-11.47,1.25-1.9.3-3.8.64-5.69,1.12a20.92,20.92,0,0,0-2.82.89,8,8,0,0,0-1.39.72l-.33.25a2.57,2.57,0,0,0-.33.33,1.7,1.7,0,0,0-.42,1,1.65,1.65,0,0,0,.42,1c.1.11.21.23.32.33l.34.25a7.37,7.37,0,0,0,1.39.72,21.36,21.36,0,0,0,2.81.91c1.89.49,3.79.84,5.7,1.14,3.81.6,7.64,1,11.47,1.3,7.66.6,15.34.84,23,.87s15.36-.21,23-.79c3.84-.31,7.67-.7,11.48-1.3,1.91-.3,3.81-.65,5.7-1.14a21.63,21.63,0,0,0,2.83-.91,7.44,7.44,0,0,0,1.4-.72l.35-.26c.11-.1.23-.23.33-.34a1.57,1.57,0,0,0,0-2.18Z" style="fill:url(#linear-gradient-5)"/><polygon points="366.29 257.31 381.96 252.27 393.97 147.68 370.49 150.9 366.29 257.31" style="opacity:0.4;fill:url(#linear-gradient-6)"/><path d="M383.11,251.7c-24.2,9-49.07,8.62-76.43-.14l-8.6-103.69c32.73,4.87,63.85,5.59,94.63.41Z" style="fill:#fff;opacity:0.15"/><polygon points="324.78 256.19 306.83 251.7 298.08 148.41 320.02 151.04 324.78 256.19" style="opacity:0.4;fill:url(#linear-gradient-7)"/><path d="M292.47,140.48h0S292.3,140.28,292.47,140.48Z" style="opacity:0.5;fill:url(#linear-gradient-8)"/><path d="M398.14,140.82s-.24-.76-.26-.8c-.57-1.84-2.33-4.11-16.05-5.88-6.6-.85-14.94-1.47-24.15-1.76.08,1.42.14,2.86.21,4.3,17.8.35,29.17,1.49,33.79,3.12-1.21.22-2.17.52,0,.21-2.2.32-14.37,4.12-46.43,4.12-28.15,0-42.58-3.12-46-4.09l-.3-.11c5.39-2,20.26-3.32,44.9-3.37-.07-1.46-.14-2.92-.23-4.37A302.75,302.75,0,0,0,308.59,134c-13.86,1.78-15.21,4.14-15.86,6,0,0-.65.11,0,.46l-.1.21-.12-.13c-1.2-.34-.32,1.08-.35,1.29.06,2.36,4.67,5.14,16.77,6.74a296,296,0,0,0,36.54,2.07,290.27,290.27,0,0,0,36-1.86C394.38,147,399.13,143.33,398.14,140.82Z" style="opacity:0.5;fill:url(#linear-gradient-9)"/><path d="M357.85,135.82c0,.79.07,1.58.11,2.38,13.32.4,23.23,1.42,29.26,2.51-7.8,1.41-22.08,2.7-41.88,2.7s-34-1.29-41.77-2.7c7.59-1.37,21.35-2.64,40.37-2.7,0-.79-.07-1.58-.11-2.37-24.66.08-40.91,2.2-46.3,4.16l0,0c2,1.94,18.54,4.82,47.79,4.82,32.06,0,45.68-3.24,47.26-4.8,0,0,0-.05.06-.13C388,138.1,376,136.38,357.85,135.82Z" style="fill:#4e8b9b"/><path d="M401,140.86c-1.53-4.15-5.24-6.73-18.53-8.41-6.87-.88-15.46-1.47-24.91-1.74.05.79.11,1.58.15,2.38,9.2.27,17.51.86,24.11,1.71,13.72,1.77,14.85,4,15.43,5.8l.05.17c1,2.52-3,5.23-15.93,7a290.15,290.15,0,0,1-36,1.9,295.72,295.72,0,0,1-36.29-1.9c-12.1-1.6-16.18-3.84-16.24-6.21,0-.21.1-.68.13-.81h0c.65-1.81,1.87-4.13,15.73-5.91a301.65,301.65,0,0,1,35-1.89c-.05-.8-.11-1.58-.16-2.37a302,302,0,0,0-35.25,1.91c-9.07,1.15-16.82,3.17-18.33,8.48-.85,3,.43,5.31,5.06,7.15l7.62,92.42c.09.8,1.67,1.37,2.4,1.56l.93,9.08c1.14,5.46,16.09,9.54,39,9.54s37-4.29,39-9.54l1.13-8.83c.68-.22,2.24-1,2.36-1.89l8.49-92C400.21,146.33,402.06,143.7,401,140.86ZM378.7,249.14c-5.38,5.22-18.37,7.05-30,7.05-9.95,0-29.79-.57-38.08-6.11-1.27-.84-1.27-4.54-1.51-7.35,8.56,2.24,23.54,4.49,39.59,4.49,11.77,0,21.57-2.27,31.2-4.52C379.55,245.35,379.5,248.36,378.7,249.14Zm2.84-10.09c-3.24,2.17-14.64,5.88-36.74,5.88s-33.63-3-36.87-5.13c-2.4-1.61-6.78-68.4-7.67-90.16,2.17.48,4.69.93,7.65,1.33a273.34,273.34,0,0,0,36.71,2.65c14.2,0,28.18-.55,37.93-1.79a61.39,61.39,0,0,0,7.2-1.32C389,176.36,383.94,237.45,381.54,239.05Z" style="fill:#4e8b9b"/><path d="M336.83,247.83a128.82,128.82,0,0,1-19-2.12,56.51,56.51,0,0,0,.7,10.57c7,2,15.5,2.34,18.9,2.44C337.42,257.07,337.1,254.37,336.83,247.83Z" style="opacity:0.6000000000000001;fill:url(#linear-gradient-10)"/><path d="M332,240.72c-2.94-34.94-2.66-71-1.42-86.21a190.67,190.67,0,0,1-24.08-2.27c0,21.84,2.56,67.27,7.39,86.78a32.74,32.74,0,0,0,1.72,5.18c6.5,1.26,14,2.06,16.68,2.28C332.33,244.83,332.22,243,332,240.72Z" style="opacity:0.6000000000000001;fill:url(#linear-gradient-11)"/><path d="M324,150.88c.66-3.23.68-4.68,3.11-6.63-7.21-.36-14.53-1-21.17-2-2.9,2.62-2.09,3.1-2.31,6.18C307.71,149.53,318.93,150.79,324,150.88Z" style="opacity:0.6000000000000001;fill:url(#linear-gradient-12)"/><path d="M302.24,145.33c7.11,1.49,19.47,2.52,31.53,2.77" style="fill:none;stroke-miterlimit:10;stroke-width:2.49272778653036px;opacity:0.5;stroke:url(#linear-gradient-13)"/><path d="M380.64,138.86a6,6,0,0,1,2.69-5.25c-7.23-.87-13.82-1.46-21-1.68-1.77,1.24-2.13,3.16-2.13,5.32C365.26,137.44,374.43,138.06,380.64,138.86Z" style="opacity:0.4;fill:url(#linear-gradient-14)"/></g><g id="Cup_A" data-name="Cup A"><path d="M162,140.86c-1.53-4.15-5.24-6.73-18.53-8.41a311.62,311.62,0,0,0-37.14-1.92,309.93,309.93,0,0,0-37.06,1.92c-9.07,1.15-16.82,3.17-18.33,8.48-.85,3,.43,5.31,5.06,7.15l7.62,92.42c.09.81,1.67,1.37,2.4,1.56l.93,9.08c1.14,5.46,16.09,9.54,39,9.54s37-4.29,39-9.54l1.13-8.83c.68-.22,2.24-1,2.36-1.89l8.49-92C161.21,146.33,163.06,143.7,162,140.86Z" style="opacity:0.8;fill:url(#linear-gradient-15)"/><path d="M141.79,250.68c0,2.45-15.67,6.72-35.91,6.72s-36.59-4.27-36.59-6.72S85.82,245,106.06,245,141.79,248.23,141.79,250.68Z" style="opacity:0.35000000000000003;fill:url(#radial-gradient-3)"/><path d="M139,139.45c-4.58-.42-8.13-.78-14.41-1,0,1.49.1,3.25.14,5.24,5.79-.32,10.53-.77,14.36-1.25C139,141.3,139,140.3,139,139.45Z" style="opacity:0.30000000000000004;fill:url(#linear-gradient-16)"/><path d="M124.77,150.18c.17,20.49-.31,55.37-1.83,83.88-.58,11,.32,12.22,6.56,11.8,2.81-.19,2.43-5.39,3.18-11.05,2.54-19,5.88-63.34,6.33-85.68C134.8,149.59,130,149.94,124.77,150.18Z" style="opacity:0.30000000000000004;fill:url(#linear-gradient-17)"/><path d="M65.81,239.42c0-3.53,20-5.76,40.21-5.76S146,236.21,146,239.42" style="fill:none;stroke-miterlimit:10;stroke-width:2.49272778653036px;opacity:0.35000000000000003;stroke:url(#radial-gradient-4)"/><path d="M60.92,140.32c34.77-6.73,61.49-3.45,90.66-.08C120.29,145.62,92,145.45,60.92,140.32Z" style="fill:#fff;opacity:0.30000000000000004"/><g id="Yellow_Probe" data-name="Yellow Probe"><path d="M105.91,237.06a2.49,2.49,0,0,1-2.48-2.21l-2.9-25.32a2.5,2.5,0,0,1,5-.57l2.89,25.32a2.5,2.5,0,0,1-2.19,2.77Z"/><path d="M104.49,224.36c.14,1.71.31,3.41.5,5.11l.3,2.55a8.83,8.83,0,0,0,.51,2.52.53.53,0,0,1-.27.69.52.52,0,0,1-.69-.26.56.56,0,0,1,0-.31,8.83,8.83,0,0,0-.12-2.57l-.32-2.54c-.23-1.7-.47-3.39-.75-5.08A.45.45,0,0,1,104,224a.45.45,0,0,1,.52.37Z" style="fill:#fff"/><path d="M101.36,83.87c-3.08,45.95-6.26,93.46.1,142.87l6.94-.9c-6.27-48.72-3.11-95.89-.06-141.51,1.8-26.9,3.53-52.88,3.28-78l-7,.53C104.85,31.6,103.14,57.28,101.36,83.87Z" style="fill:#4c4c4c"/><path d="M98.33,209.45c-1.6-26.38-3.13-56.81-.9-84.08l10,.81c-2.17,26.62-.66,56.63.92,82.67Z" style="fill:#ebd900"/><path d="M96.46,211.57l-.12-2c-1.61-26.45-3.14-57-.91-84.36l.17-2,14,1.13-.16,2c-2.16,26.48-.66,56.4.92,82.37l.12,2Zm2.81-84c-1.94,25.93-.58,54.61.94,79.8l6-.36c-1.51-25-2.86-53.4-1-78.95Z" style="fill:#ad9c00"/></g><path d="M146.35,239.36l-2.65.71c-.83.22-.95,10.89-1.74,11.25-23.23,10.49-48.71,9.5-72.6.78-.93-.34-.51-10.94-1.48-11.13l-2.29-.49L61.1,184.4c11.22-9,86.38-7.85,88.62,0Z" style="opacity:0.5;fill:url(#linear-gradient-18)"/><path d="M109,184.58c-.12,1.46-13.65,1.5-14-.31" style="fill:none;stroke-linecap:round;stroke-miterlimit:10;stroke:url(#Line-2)"/><path d="M108.78,178.3q.1,3.15.23,6.28c-.12,1.46-13.65,1.5-14-.31-.1-1.92-.18-3.86-.26-5.79-19.34.65-33.62,2.94-33.62,5.67,0,3.23,20.09,5.86,44.87,5.86s44.87-2.63,44.87-5.86S132.25,178.49,108.78,178.3Z" style="fill:#85a4b5;opacity:0.7000000000000001"/><path d="M151.09,183.06c-.11-.12-.22-.24-.33-.34l-.35-.25a7.82,7.82,0,0,0-1.4-.73,21.51,21.51,0,0,0-2.83-.89,56.44,56.44,0,0,0-5.71-1.12c-3.81-.59-7.64-1-11.47-1.26-6.74-.51-13.49-.72-20.24-.77,0,.41,0,.82,0,1.22,6.71.07,13.42.31,20.1.84,3.8.31,7.61.7,11.37,1.29,1.88.3,3.75.64,5.57,1.11a20.35,20.35,0,0,1,2.64.85,6.52,6.52,0,0,1,1.15.59.55.55,0,0,1,0,1.09,7.73,7.73,0,0,1-1.15.59,20.44,20.44,0,0,1-2.65.83,54.27,54.27,0,0,1-5.57,1.09c-3.76.58-7.56,1-11.37,1.25-7.62.6-15.27.84-22.92.87s-15.3-.21-22.92-.78c-3.81-.3-7.62-.67-11.38-1.25-1.88-.29-3.76-.63-5.58-1.09a22.3,22.3,0,0,1-2.66-.84,7,7,0,0,1-1.16-.6,1.08,1.08,0,0,1-.56-.61,1.13,1.13,0,0,1,.55-.62,6.42,6.42,0,0,1,1.17-.6,20.49,20.49,0,0,1,2.65-.85c1.83-.47,3.7-.82,5.58-1.12,3.77-.59,7.57-1,11.38-1.28s7.8-.5,11.7-.62c0-.39,0-.77,0-1.16q-5.88.19-11.74.66c-3.83.3-7.66.67-11.47,1.25-1.9.3-3.8.64-5.69,1.12a20.92,20.92,0,0,0-2.82.89,8,8,0,0,0-1.39.72l-.33.25a2.57,2.57,0,0,0-.33.33,1.7,1.7,0,0,0-.42,1,1.65,1.65,0,0,0,.42,1c.1.11.21.23.32.33l.34.25a7.37,7.37,0,0,0,1.39.72,21.36,21.36,0,0,0,2.81.91c1.89.49,3.79.84,5.7,1.14,3.81.6,7.64,1,11.47,1.3,7.66.6,15.34.84,23,.87s15.37-.21,23-.79c3.84-.31,7.67-.7,11.48-1.3,1.91-.3,3.81-.65,5.7-1.14a21.63,21.63,0,0,0,2.83-.91,7.44,7.44,0,0,0,1.4-.72l.35-.26c.11-.1.23-.23.33-.34a1.57,1.57,0,0,0,0-2.18Z" style="fill:url(#linear-gradient-19)"/><polygon points="127.28 257.31 142.96 252.27 154.97 147.68 131.49 150.9 127.28 257.31" style="opacity:0.4;fill:url(#linear-gradient-20)"/><path d="M144.11,251.7c-24.2,9-49.07,8.62-76.43-.14l-8.6-103.69c32.73,4.87,63.85,5.59,94.63.41Z" style="fill:#fff;opacity:0.15"/><polygon points="85.78 256.19 67.83 251.7 59.08 148.41 81.02 151.04 85.78 256.19" style="opacity:0.4;fill:url(#linear-gradient-21)"/><path d="M53.47,140.48h0S53.3,140.28,53.47,140.48Z" style="opacity:0.5;fill:url(#linear-gradient-22)"/><path d="M159.14,140.82s-.24-.76-.26-.8c-.57-1.84-2.33-4.11-16-5.88A291.06,291.06,0,0,0,109,132.2c-.08,1.44-.15,2.9-.22,4.36,23.67.08,38.48,1.32,43.92,3.24-1.21.22-2.17.52,0,.21-2.2.32-14.37,4.12-46.43,4.12-28.15,0-42.58-3.12-46-4.09l-.3-.11c4.61-1.68,16.12-2.91,34.75-3.27.07-1.45.13-2.9.21-4.34-9.65.23-18.41.78-25.34,1.66-13.86,1.78-15.21,4.14-15.86,6,0,0-.65.11,0,.46l-.1.21-.12-.13c-1.2-.34-.32,1.08-.35,1.29.06,2.36,4.67,5.14,16.77,6.74a296,296,0,0,0,36.54,2.07,290.27,290.27,0,0,0,36-1.86C155.38,147,160.13,143.33,159.14,140.82Z" style="opacity:0.5;fill:url(#linear-gradient-23)"/><path d="M108.8,135.64c0,.79-.08,1.58-.11,2.38,18.58.1,32,1.34,39.53,2.69-7.8,1.41-22.08,2.7-41.88,2.7s-34-1.29-41.77-2.7c6.14-1.11,16.33-2.15,30.07-2.54l.12-2.38c-19,.53-31.61,2.33-36.23,4l0,0c2,1.94,18.54,4.82,47.79,4.82,32.06,0,45.68-3.24,47.26-4.8,0,0,0-.05.06-.13C148.23,137.82,132.53,135.77,108.8,135.64Z" style="fill:#4e8b9b"/><path d="M162,140.86c-1.53-4.15-5.24-6.73-18.53-8.41a301.41,301.41,0,0,0-34.38-1.91c0,.79-.12,1.57-.17,2.37a293.16,293.16,0,0,1,33.9,1.89c13.72,1.77,14.85,4,15.43,5.8l.05.17c1,2.52-3,5.23-15.93,7a290.15,290.15,0,0,1-36,1.9,295.72,295.72,0,0,1-36.29-1.9c-12.1-1.6-16.18-3.84-16.24-6.21,0-.21.1-.68.13-.81h0c.65-1.81,1.87-4.13,15.73-5.91,6.9-.88,15.61-1.48,25.21-1.74,0-.8.11-1.59.16-2.38-9.8.26-18.71.87-25.77,1.77-9.07,1.15-16.82,3.17-18.33,8.48-.85,3,.43,5.31,5.06,7.15l7.62,92.42c.09.8,1.67,1.37,2.4,1.56l.93,9.08c1.14,5.46,16.09,9.54,39,9.54s37-4.29,39-9.54l1.13-8.83c.68-.22,2.24-1,2.36-1.89l8.49-92C161.21,146.33,163.06,143.7,162,140.86ZM139.7,249.14c-5.38,5.22-18.37,7.05-30,7.05-10,0-29.79-.57-38.08-6.11-1.27-.84-1.27-4.54-1.51-7.35,8.56,2.24,23.54,4.49,39.59,4.49,11.77,0,21.57-2.27,31.2-4.52C140.55,245.35,140.5,248.36,139.7,249.14Zm2.84-10.09c-3.24,2.17-14.64,5.88-36.74,5.88s-33.63-3-36.87-5.13c-2.4-1.61-6.78-68.4-7.67-90.16,2.17.48,4.69.93,7.65,1.33a273.34,273.34,0,0,0,36.71,2.65c14.2,0,28.18-.55,37.93-1.79a61.39,61.39,0,0,0,7.2-1.32C150,176.36,144.94,237.45,142.54,239.05Z" style="fill:#4e8b9b"/><path d="M97.83,247.83a128.82,128.82,0,0,1-19-2.12,56.51,56.51,0,0,0,.7,10.57c7,2,15.5,2.34,18.9,2.44C98.42,257.07,98.1,254.37,97.83,247.83Z" style="opacity:0.6000000000000001;fill:url(#linear-gradient-24)"/><path d="M93,240.72c-2.94-34.94-2.66-71-1.42-86.21a190.67,190.67,0,0,1-24.08-2.27c0,21.84,2.56,67.27,7.39,86.78a32.74,32.74,0,0,0,1.72,5.18c6.5,1.26,14,2.06,16.68,2.28C93.33,244.83,93.22,243,93,240.72Z" style="opacity:0.6000000000000001;fill:url(#linear-gradient-25)"/><path d="M85,150.88c.66-3.23.68-4.68,3.11-6.63-7.21-.36-14.53-1-21.17-2-2.9,2.62-2.09,3.1-2.31,6.18C68.71,149.53,79.93,150.79,85,150.88Z" style="opacity:0.6000000000000001;fill:url(#linear-gradient-26)"/><path d="M63.24,145.33c7.11,1.49,19.47,2.52,31.53,2.77" style="fill:none;stroke-miterlimit:10;stroke-width:2.49272778653036px;opacity:0.5;stroke:url(#linear-gradient-27)"/><path d="M141.64,138.86a6,6,0,0,1,2.69-5.25c-7.23-.87-13.82-1.46-21-1.68-1.77,1.24-2.13,3.16-2.13,5.32C126.26,137.44,135.43,138.06,141.64,138.86Z" style="opacity:0.4;fill:url(#linear-gradient-28)"/></g></g><path id="FADE_top" data-name="FADE top" d="M443.87,294.57C343.6,312.92,166.11,320.75,12.42,306.48,3.29,229.17-5.79,117.86,7.08,17.31,144-2.8,354.31-4,442.27,6.74,450.15,106,455.08,215,443.87,294.57Z" style="fill-rule:evenodd;fill:url(#linear-gradient-29)"/></svg>