<svg id="Mixing_View_Step_3B" data-name="Mixing View Step 3B" xmlns="http://www.w3.org/2000/svg" xmlns:xlink="http://www.w3.org/1999/xlink" viewBox="0 0 451 314"><defs><linearGradient id="linear-gradient" x1="170.18" y1="210.8" x2="281.77" y2="210.8" gradientUnits="userSpaceOnUse"><stop offset="0" stop-color="#8dd3ca"/><stop offset="0.5" stop-color="#8dd3ca" stop-opacity="0"/><stop offset="1" stop-color="#8dd3ca"/></linearGradient><radialGradient id="radial-gradient" cx="414.55" cy="1266.56" r="47.95" gradientTransform="translate(-93.65 151.51) scale(0.77 0.09)" gradientUnits="userSpaceOnUse"><stop offset="0" stop-color="#fff" stop-opacity="0.4"/><stop offset="1"/></radialGradient><linearGradient id="linear-gradient-2" x1="244.03" y1="156.23" x2="258.48" y2="155.48" gradientUnits="userSpaceOnUse"><stop offset="0" stop-color="#fff" stop-opacity="0"/><stop offset="0.14" stop-color="#fff" stop-opacity="0.15"/><stop offset="0.38" stop-color="#fff" stop-opacity="0.39"/><stop offset="0.56" stop-color="#fff" stop-opacity="0.54"/><stop offset="0.66" stop-color="#fff" stop-opacity="0.6"/><stop offset="0.71" stop-color="#fff" stop-opacity="0.54"/><stop offset="0.8" stop-color="#fff" stop-opacity="0.39"/><stop offset="0.93" stop-color="#fff" stop-opacity="0.15"/><stop offset="1" stop-color="#fff" stop-opacity="0"/></linearGradient><linearGradient id="linear-gradient-3" x1="240.1" y1="213.41" x2="261" y2="212.32" xlink:href="#linear-gradient-2"/><linearGradient id="linear-gradient-4" x1="208.99" y1="149.69" x2="232.43" y2="149.69" gradientUnits="userSpaceOnUse"><stop offset="0" stop-color="#fff" stop-opacity="0.4"/><stop offset="0.4" stop-color="#fff" stop-opacity="0.35"/><stop offset="1" stop-color="#fff" stop-opacity="0.52"/></linearGradient><radialGradient id="radial-gradient-2" cx="225.35" cy="251.12" r="29.32" gradientTransform="translate(0 221.48) scale(1 0.12)" gradientUnits="userSpaceOnUse"><stop offset="0" stop-opacity="0.4"/><stop offset="1" stop-color="#136999"/></radialGradient><linearGradient id="linear-gradient-5" x1="248.6" y1="150.28" x2="253.57" y2="150.28" gradientUnits="userSpaceOnUse"><stop offset="0" stop-color="#fff" stop-opacity="0.8"/><stop offset="0.4" stop-color="#fff" stop-opacity="0.35"/><stop offset="1" stop-color="#fff"/></linearGradient><linearGradient id="linear-gradient-6" x1="240.52" y1="206.56" x2="271.02" y2="206.56" gradientUnits="userSpaceOnUse"><stop offset="0" stop-color="#136999" stop-opacity="0"/><stop offset="0.1" stop-color="#136999" stop-opacity="0.18"/><stop offset="0.35" stop-color="#136999" stop-opacity="0.62"/><stop offset="0.53" stop-color="#136999" stop-opacity="0.9"/><stop offset="0.62" stop-color="#136999"/></linearGradient><linearGradient id="linear-gradient-7" x1="263.24" y1="211.04" x2="256.73" y2="131.69" gradientUnits="userSpaceOnUse"><stop offset="0" stop-color="#136999" stop-opacity="0"/><stop offset="0.43" stop-color="#136999" stop-opacity="0.27"/><stop offset="1" stop-color="#136999" stop-opacity="0.6"/></linearGradient><linearGradient id="linear-gradient-8" x1="-1521.63" y1="201.73" x2="-1521.63" y2="193.85" gradientTransform="matrix(-1, 0.08, 0.08, 1, -1272, 58.16)" gradientUnits="userSpaceOnUse"><stop offset="0" stop-color="#61e9ff" stop-opacity="0"/><stop offset="1" stop-color="#136999" stop-opacity="0.7"/></linearGradient><linearGradient id="linear-gradient-9" x1="-1507.35" y1="290.52" x2="-1507.35" y2="200.97" gradientTransform="matrix(-1, 0.08, 0.08, 1, -1272, 58.16)" gradientUnits="userSpaceOnUse"><stop offset="0" stop-color="#61e9ff" stop-opacity="0"/><stop offset="1" stop-color="#136999" stop-opacity="0.5"/></linearGradient><linearGradient id="linear-gradient-10" x1="259.91" y1="217.5" x2="252.44" y2="126.41" gradientUnits="userSpaceOnUse"><stop offset="0" stop-color="#136999" stop-opacity="0"/><stop offset="0.35" stop-color="#136999" stop-opacity="0.5"/><stop offset="0.36" stop-color="#156a9a" stop-opacity="0.5"/><stop offset="0.45" stop-color="#5c97b8" stop-opacity="0.59"/><stop offset="0.53" stop-color="#96bcd2" stop-opacity="0.67"/><stop offset="0.62" stop-color="#c4d9e5" stop-opacity="0.72"/><stop offset="0.69" stop-color="#e4eef3" stop-opacity="0.77"/><stop offset="0.76" stop-color="#f8fbfc" stop-opacity="0.79"/><stop offset="0.81" stop-color="#fff" stop-opacity="0.8"/><stop offset="1" stop-color="#fff" stop-opacity="0.5"/></linearGradient><linearGradient id="linear-gradient-11" x1="196.6" y1="150.34" x2="202.47" y2="150.34" xlink:href="#linear-gradient-5"/><linearGradient id="linear-gradient-12" x1="187.57" y1="215.18" x2="187.57" y2="137.47" xlink:href="#linear-gradient-7"/><linearGradient id="linear-gradient-13" x1="189.58" y1="141.19" x2="189.58" y2="132.95" gradientTransform="matrix(1, 0, 0, 1, 0, 0)" xlink:href="#linear-gradient-8"/><linearGradient id="linear-gradient-14" x1="199.84" y1="225.27" x2="199.84" y2="140.06" gradientTransform="matrix(1, 0, 0, 1, 0, 0)" xlink:href="#linear-gradient-9"/><linearGradient id="linear-gradient-15" x1="195.2" y1="223.3" x2="195.2" y2="130.97" xlink:href="#linear-gradient-10"/><linearGradient id="linear-gradient-16" x1="225.43" y1="272.88" x2="225.43" y2="206.76" gradientUnits="userSpaceOnUse"><stop offset="0.23" stop-color="#136999"/><stop offset="1" stop-color="#fff" stop-opacity="0"/></linearGradient><linearGradient id="Line" x1="225.97" y1="211.23" x2="240.98" y2="211.23" gradientUnits="userSpaceOnUse"><stop offset="0" stop-color="#136999" stop-opacity="0"/><stop offset="0.08" stop-color="#136999" stop-opacity="0.17"/><stop offset="0.21" stop-color="#136999" stop-opacity="0.42"/><stop offset="0.35" stop-color="#136999" stop-opacity="0.63"/><stop offset="0.5" stop-color="#136999" stop-opacity="0.79"/><stop offset="0.65" stop-color="#136999" stop-opacity="0.91"/><stop offset="0.81" stop-color="#136999" stop-opacity="0.98"/><stop offset="1" stop-color="#136999"/></linearGradient><linearGradient id="linear-gradient-17" x1="225.72" y1="203.99" x2="225.72" y2="217.13" gradientUnits="userSpaceOnUse"><stop offset="0.2" stop-color="#136999" stop-opacity="0"/><stop offset="0.29" stop-color="#136999" stop-opacity="0.05"/><stop offset="0.42" stop-color="#136999" stop-opacity="0.2"/><stop offset="0.59" stop-color="#136999" stop-opacity="0.44"/><stop offset="0.77" stop-color="#136999" stop-opacity="0.76"/><stop offset="0.9" stop-color="#136999"/></linearGradient><linearGradient id="linear-gradient-18" x1="187.52" y1="223.45" x2="265.85" y2="194.94" gradientUnits="userSpaceOnUse"><stop offset="0" stop-color="#136999" stop-opacity="0"/><stop offset="0.06" stop-color="#136999" stop-opacity="0.19"/><stop offset="0.18" stop-color="#136999" stop-opacity="0.54"/><stop offset="0.28" stop-color="#136999" stop-opacity="0.79"/><stop offset="0.37" stop-color="#136999" stop-opacity="0.94"/><stop offset="0.42" stop-color="#136999"/><stop offset="0.53" stop-color="#136999" stop-opacity="0.98"/><stop offset="0.62" stop-color="#136999" stop-opacity="0.91"/><stop offset="0.71" stop-color="#136999" stop-opacity="0.79"/><stop offset="0.79" stop-color="#136999" stop-opacity="0.63"/><stop offset="0.88" stop-color="#136999" stop-opacity="0.42"/><stop offset="0.96" stop-color="#136999" stop-opacity="0.16"/><stop offset="1" stop-color="#136999" stop-opacity="0"/></linearGradient><linearGradient id="linear-gradient-19" x1="203.13" y1="206.1" x2="203.13" y2="214.12" gradientUnits="userSpaceOnUse"><stop offset="0.31" stop-color="#136999"/><stop offset="0.4" stop-color="#136999" stop-opacity="0.93"/><stop offset="0.55" stop-color="#136999" stop-opacity="0.75"/><stop offset="0.74" stop-color="#136999" stop-opacity="0.46"/><stop offset="0.97" stop-color="#136999" stop-opacity="0.05"/><stop offset="1" stop-color="#136999" stop-opacity="0"/></linearGradient><linearGradient id="linear-gradient-20" x1="-980.76" y1="217.7" x2="-1008.45" y2="217.7" gradientTransform="matrix(-1, 0, 0, 1, -734, 0)" gradientUnits="userSpaceOnUse"><stop offset="0" stop-color="#fff" stop-opacity="0"/><stop offset="1" stop-color="#fff"/></linearGradient><linearGradient id="linear-gradient-21" x1="205.26" y1="217.5" x2="178.55" y2="217.5" gradientTransform="matrix(1, 0, 0, 1, 0, 0)" xlink:href="#linear-gradient-20"/><linearGradient id="linear-gradient-22" x1="200.92" y1="149.97" x2="208.99" y2="149.97" gradientUnits="userSpaceOnUse"><stop offset="0" stop-color="#fff" stop-opacity="0.8"/><stop offset="0.4" stop-color="#fff" stop-opacity="0.35"/><stop offset="1" stop-color="#fff" stop-opacity="0.4"/></linearGradient><linearGradient id="linear-gradient-23" x1="240.69" y1="149.94" x2="248.99" y2="149.94" gradientUnits="userSpaceOnUse"><stop offset="0" stop-color="#fff" stop-opacity="0.68"/><stop offset="1" stop-color="#fff" stop-opacity="0.92"/></linearGradient><linearGradient id="linear-gradient-24" x1="172.31" y1="157.1" x2="278.74" y2="157.1" xlink:href="#linear-gradient-5"/><linearGradient id="linear-gradient-25" x1="198.38" y1="267.59" x2="217.77" y2="267.25" gradientUnits="userSpaceOnUse"><stop offset="0.08" stop-color="#fff" stop-opacity="0"/><stop offset="0.15" stop-color="#fff" stop-opacity="0.21"/><stop offset="0.27" stop-color="#fff" stop-opacity="0.54"/><stop offset="0.37" stop-color="#fff" stop-opacity="0.79"/><stop offset="0.45" stop-color="#fff" stop-opacity="0.94"/><stop offset="0.48" stop-color="#fff"/><stop offset="0.52" stop-color="#fff" stop-opacity="0.94"/><stop offset="0.6" stop-color="#fff" stop-opacity="0.79"/><stop offset="0.7" stop-color="#fff" stop-opacity="0.54"/><stop offset="0.82" stop-color="#fff" stop-opacity="0.21"/><stop offset="0.89" stop-color="#fff" stop-opacity="0"/></linearGradient><linearGradient id="linear-gradient-26" x1="189.13" y1="215.31" x2="214.15" y2="213.56" xlink:href="#linear-gradient-25"/><linearGradient id="linear-gradient-27" x1="184.99" y1="158.02" x2="205.85" y2="164.79" xlink:href="#linear-gradient-25"/><linearGradient id="linear-gradient-28" x1="182.46" y1="161.93" x2="214.27" y2="161.93" gradientUnits="userSpaceOnUse"><stop offset="0" stop-color="#fff" stop-opacity="0"/><stop offset="0.09" stop-color="#fff" stop-opacity="0.21"/><stop offset="0.23" stop-color="#fff" stop-opacity="0.54"/><stop offset="0.35" stop-color="#fff" stop-opacity="0.79"/><stop offset="0.44" stop-color="#fff" stop-opacity="0.94"/><stop offset="0.48" stop-color="#fff"/><stop offset="0.53" stop-color="#fff" stop-opacity="0.94"/><stop offset="0.62" stop-color="#fff" stop-opacity="0.79"/><stop offset="0.75" stop-color="#fff" stop-opacity="0.54"/><stop offset="0.91" stop-color="#fff" stop-opacity="0.21"/><stop offset="1" stop-color="#fff" stop-opacity="0"/></linearGradient><linearGradient id="linear-gradient-29" x1="252.91" y1="149.16" x2="262.66" y2="152.33" gradientUnits="userSpaceOnUse"><stop offset="0.1" stop-color="#fff"/><stop offset="0.17" stop-color="#fff" stop-opacity="0.94"/><stop offset="0.31" stop-color="#fff" stop-opacity="0.79"/><stop offset="0.51" stop-color="#fff" stop-opacity="0.54"/><stop offset="0.75" stop-color="#fff" stop-opacity="0.21"/><stop offset="0.89" stop-color="#fff" stop-opacity="0"/></linearGradient><linearGradient id="linear-gradient-30" x1="241.31" y1="148.77" x2="249.1" y2="151.3" gradientUnits="userSpaceOnUse"><stop offset="0.08" stop-color="#fff" stop-opacity="0"/><stop offset="0.22" stop-color="#fff" stop-opacity="0.21"/><stop offset="0.45" stop-color="#fff" stop-opacity="0.54"/><stop offset="0.65" stop-color="#fff" stop-opacity="0.79"/><stop offset="0.79" stop-color="#fff" stop-opacity="0.94"/><stop offset="0.86" stop-color="#fff"/></linearGradient><linearGradient id="linear-gradient-31" x1="-378.89" y1="1215.83" x2="-261.2" y2="1215.83" gradientTransform="matrix(-0.4, 0.92, 0.92, 0.4, -907.35, -84.8)" xlink:href="#linear-gradient"/><linearGradient id="linear-gradient-32" x1="-305.14" y1="1220.54" x2="-289.33" y2="1221.65" gradientTransform="matrix(-0.4, 0.92, 0.92, 0.4, -907.35, -84.8)" xlink:href="#linear-gradient-2"/><radialGradient id="radial-gradient-3" cx="-320.54" cy="-1969.84" r="29.32" gradientTransform="matrix(-0.4, 0.92, -0.11, -0.05, 37.49, 330.14)" xlink:href="#radial-gradient-2"/><linearGradient id="linear-gradient-33" x1="329.52" y1="139.21" x2="328.27" y2="119.52" gradientUnits="userSpaceOnUse"><stop offset="0" stop-color="#666" stop-opacity="0"/><stop offset="0.08" stop-color="#58666e" stop-opacity="0.17"/><stop offset="0.21" stop-color="#43677b" stop-opacity="0.42"/><stop offset="0.35" stop-color="#326886" stop-opacity="0.63"/><stop offset="0.5" stop-color="#24688e" stop-opacity="0.79"/><stop offset="0.65" stop-color="#1b6994" stop-opacity="0.91"/><stop offset="0.81" stop-color="#156998" stop-opacity="0.98"/><stop offset="1" stop-color="#136999"/></linearGradient><linearGradient id="linear-gradient-34" x1="-333.46" y1="1180.84" x2="-373.87" y2="1163.66" gradientTransform="matrix(-0.38, 0.92, 0.92, 0.38, -889.54, 26.56)" gradientUnits="userSpaceOnUse"><stop offset="0.28" stop-color="#136999"/><stop offset="1" stop-color="#fff" stop-opacity="0"/></linearGradient><radialGradient id="radial-gradient-4" cx="-295.75" cy="4062.63" r="47.14" gradientTransform="matrix(-0.31, 0.7, 0.08, 0.04, -42.89, 192.55)" gradientUnits="userSpaceOnUse"><stop offset="0" stop-color="#fff" stop-opacity="0.4"/><stop offset="0.4" stop-color="#8c8c8c" stop-opacity="0.67"/><stop offset="0.79" stop-color="#272727" stop-opacity="0.91"/><stop offset="1"/></radialGradient><linearGradient id="linear-gradient-35" x1="-314.03" y1="4086.97" x2="-277.38" y2="4038.76" gradientTransform="matrix(-0.31, 0.7, 0.33, 0.14, -1042.65, -246.51)" gradientUnits="userSpaceOnUse"><stop offset="0" stop-color="#fff"/><stop offset="0.07" stop-color="#fff" stop-opacity="0.91"/><stop offset="0.21" stop-color="#fff" stop-opacity="0.76"/><stop offset="0.35" stop-color="#fff" stop-opacity="0.63"/><stop offset="0.5" stop-color="#fff" stop-opacity="0.53"/><stop offset="0.66" stop-color="#fff" stop-opacity="0.46"/><stop offset="0.82" stop-color="#fff" stop-opacity="0.41"/><stop offset="1" stop-color="#fff" stop-opacity="0.4"/></linearGradient><linearGradient id="linear-gradient-36" x1="-434.85" y1="1218.92" x2="-462.37" y2="1218.92" gradientTransform="translate(-612.2 -756.85) rotate(-66.29)" xlink:href="#linear-gradient-20"/><linearGradient id="linear-gradient-37" x1="-340.45" y1="1218.81" x2="-367.34" y2="1218.81" gradientTransform="matrix(-0.4, 0.92, 0.92, 0.4, -907.35, -84.8)" xlink:href="#linear-gradient-20"/><linearGradient id="linear-gradient-38" x1="-374.9" y1="1166.41" x2="-265.2" y2="1166.41" gradientTransform="matrix(-0.4, 0.92, 0.92, 0.4, -907.35, -84.8)" xlink:href="#linear-gradient-5"/><linearGradient id="linear-gradient-39" x1="-344.61" y1="-1954.21" x2="-313.46" y2="-1954.76" gradientTransform="translate(-1540.5 -362.86) rotate(113.71)" xlink:href="#linear-gradient-25"/><linearGradient id="linear-gradient-40" x1="-351.4" y1="1211.76" x2="-309.96" y2="1211.76" gradientTransform="matrix(-0.4, 0.92, 0.92, 0.4, -907.35, -84.8)" xlink:href="#linear-gradient-25"/><linearGradient id="linear-gradient-41" x1="-349.26" y1="-1951.75" x2="-312.64" y2="-1939.85" gradientTransform="translate(-1626.26 -400.53) rotate(113.71)" xlink:href="#linear-gradient-25"/><linearGradient id="linear-gradient-42" x1="-350.02" y1="-1962.71" x2="-312.98" y2="-1962.71" gradientTransform="translate(-1640.78 -406.91) rotate(113.71)" xlink:href="#linear-gradient-28"/><linearGradient id="linear-gradient-43" x1="381.51" y1="-318.53" x2="499.2" y2="-318.53" gradientTransform="matrix(0.48, 0.88, -0.88, 0.48, -375.13, -112.66)" xlink:href="#linear-gradient"/><linearGradient id="linear-gradient-44" x1="455.25" y1="-313.82" x2="471.07" y2="-312.72" gradientTransform="matrix(0.48, 0.88, -0.88, 0.48, -375.13, -112.66)" xlink:href="#linear-gradient-2"/><radialGradient id="radial-gradient-5" cx="439.86" cy="-435.48" r="29.32" gradientTransform="matrix(0.48, 0.88, 0.1, -0.06, -92.46, -265.5)" xlink:href="#radial-gradient-2"/><linearGradient id="linear-gradient-45" x1="117.22" y1="140.43" x2="117.22" y2="124.86" xlink:href="#linear-gradient-33"/><linearGradient id="linear-gradient-46" x1="388.52" y1="-367.94" x2="335.04" y2="-390.67" gradientTransform="translate(-383.77 -0.21) rotate(62.97)" xlink:href="#linear-gradient-34"/><radialGradient id="radial-gradient-6" cx="693.42" cy="-205.42" r="47.14" gradientTransform="matrix(0.37, 0.68, -0.08, 0.04, -204.93, -311.15)" xlink:href="#radial-gradient-4"/><linearGradient id="linear-gradient-47" x1="675.15" y1="-181.08" x2="711.8" y2="-229.29" gradientTransform="matrix(0.37, 0.68, -0.32, 0.17, -253.5, -284.89)" xlink:href="#linear-gradient-35"/><linearGradient id="linear-gradient-48" x1="-1195.25" y1="-315.44" x2="-1222.77" y2="-315.44" gradientTransform="matrix(-0.48, -0.88, -0.88, 0.48, -724.24, -758.32)" xlink:href="#linear-gradient-20"/><linearGradient id="linear-gradient-49" x1="419.94" y1="-315.55" x2="393.06" y2="-315.55" gradientTransform="matrix(0.48, 0.88, -0.88, 0.48, -375.13, -112.66)" xlink:href="#linear-gradient-20"/><linearGradient id="linear-gradient-50" x1="385.5" y1="-367.95" x2="495.19" y2="-367.95" gradientTransform="matrix(0.48, 0.88, -0.88, 0.48, -375.13, -112.66)" xlink:href="#linear-gradient-5"/><linearGradient id="linear-gradient-51" x1="415.79" y1="-419.85" x2="446.94" y2="-420.39" gradientTransform="matrix(0.48, 0.88, 0.88, -0.48, 233.16, -441.57)" xlink:href="#linear-gradient-25"/><linearGradient id="linear-gradient-52" x1="409" y1="-322.6" x2="450.44" y2="-322.6" gradientTransform="matrix(0.48, 0.88, -0.88, 0.48, -375.13, -112.66)" xlink:href="#linear-gradient-25"/><linearGradient id="linear-gradient-53" x1="411.13" y1="-417.39" x2="447.75" y2="-405.49" gradientTransform="matrix(0.48, 0.88, 0.88, -0.48, 315.56, -486.12)" xlink:href="#linear-gradient-25"/><linearGradient id="linear-gradient-54" x1="410.38" y1="-428.35" x2="447.42" y2="-428.35" gradientTransform="matrix(0.48, 0.88, 0.88, -0.48, 329.51, -493.66)" xlink:href="#linear-gradient-28"/><linearGradient id="linear-gradient-55" x1="225.56" y1="313.84" x2="225.56" y2="0.03" gradientUnits="userSpaceOnUse"><stop offset="0.69" stop-color="#6cc7bb" stop-opacity="0"/><stop offset="1" stop-color="#6cc7bb"/></linearGradient></defs><title>mixing-view-step3b</title><path id="Mixing_View_Modal_Back_1" data-name="Mixing View Modal Back 1" d="M443.87,294.57C343.6,312.92,166.11,320.75,12.42,306.48,3.29,229.17-5.79,117.86,7.08,17.31,144-2.8,354.31-4,442.27,6.74,450.15,106,455.08,215,443.87,294.57Z" style="fill:#6cc7bb;fill-rule:evenodd"/><g id="Step_3b" data-name="Step 3b"><g id="Pour_Cup" data-name="Pour Cup"><g id="Cup_Pour" data-name="Cup Pour"><g id="Cup_pour_copy_2" data-name="Cup pour copy 2"><path d="M281.48,156.06c-1.52-4.15-5.24-6.73-18.52-8.41a311.86,311.86,0,0,0-37.14-1.92,310.11,310.11,0,0,0-37.07,1.92c-9.06,1.15-16.82,3.17-18.33,8.48-.84,3,.43,5.32,5.07,7.15l7.61,92.42c.1.81,1.68,1.37,2.4,1.56l.94,9.08c1.13,5.46,16.09,9.54,39,9.54s37-4.29,39-9.54l1.12-8.83c.68-.22,2.25-1,2.37-1.89l8.49-92.05C280.68,161.53,282.53,158.9,281.48,156.06Z" style="opacity:0.8;fill:url(#linear-gradient)"/><path d="M261.27,265.88c0,2.45-15.68,6.72-35.92,6.72s-36.58-4.27-36.58-6.72,16.53-5.64,36.77-5.64S261.27,263.43,261.27,265.88Z" style="opacity:0.35000000000000003;fill:url(#radial-gradient)"/><path d="M258.43,154.65c-4.58-.42-8.13-.78-14.4-1,.05,1.49.1,3.25.13,5.24,5.8-.32,10.53-.77,14.37-1.25C258.51,156.5,258.48,155.5,258.43,154.65Z" style="opacity:0.30000000000000004;fill:url(#linear-gradient-2)"/><path d="M244.25,165.38c.17,20.49-.31,55.37-1.83,83.89-.59,11,.32,12.21,6.55,11.79,2.81-.18,2.43-5.39,3.19-11.05,2.53-19,5.87-63.34,6.33-85.68C254.27,164.79,249.47,165.14,244.25,165.38Z" style="opacity:0.30000000000000004;fill:url(#linear-gradient-3)"/><path d="M180.4,155.52c34.77-6.73,61.49-3.45,90.65-.08C239.77,160.82,211.44,160.65,180.4,155.52Z" style="fill:#fff;opacity:0.30000000000000004"/><path id="lip_back_pour" data-name="lip back pour" d="M225.75,147.39c-5.83,0-11.46.1-16.76.3V152c5-.15,10.59-.23,16.8-.23,2.3,0,4.5,0,6.64,0v-4.34C230.23,147.41,228,147.39,225.75,147.39Z" style="opacity:0.5;fill:url(#linear-gradient-4)"/><g id="outline_back_behind_pour" data-name="outline back behind pour"><path d="M209,151.18v2.37c5-.22,10.67-.34,16.83-.34q3.42,0,6.61,0v-2.37c-2.14,0-4.33,0-6.61,0Q216.63,150.84,209,151.18Z" style="fill:#4e8b9b"/><path d="M209,146.07v2.38c5.32-.22,11-.35,16.83-.35,2.24,0,4.44,0,6.61.06v-2.37q-3.27-.06-6.61-.06C220,145.73,214.32,145.85,209,146.07Z" style="fill:#4e8b9b"/></g><path d="M185.28,254.62c0-3.53,20-5.76,40.22-5.76s39.93,2.55,39.93,5.76" style="fill:none;stroke-miterlimit:10;stroke-width:2.49274772835266px;opacity:0.35000000000000003;stroke:url(#radial-gradient-2)"/><path d="M248.6,152.21c1.74.07,3.4.16,5,.25-.11-1.35-.18-2.69-.2-4L249,148.1A40.24,40.24,0,0,0,248.6,152.21Z" style="opacity:0.5;fill:url(#linear-gradient-5)"/><path d="M248.57,153.86c1.81.11,3.52.23,5.15.36-.08-.79-.15-1.57-.2-2.36-1.55-.13-3.18-.24-4.88-.35C248.59,152.29,248.57,153.07,248.57,153.86Z" style="fill:#4e8b9b"/><path d="M248.89,148.78c1.54.09,3,.2,4.48.31,0-.8,0-1.6,0-2.39l-4.08-.29C249.13,147.2,249,148,248.89,148.78Z" style="fill:#4e8b9b"/><g style="opacity:0.7000000000000001"><path d="M240.52,205.37a72.55,72.55,0,0,1,7.78-1c2.6-.2,5.22-.31,7.84-.26,1.31,0,2.62.1,3.93.23a32.65,32.65,0,0,1,3.92.53,18.94,18.94,0,0,1,3.84,1.13,9.82,9.82,0,0,1,1.82,1,4.22,4.22,0,0,1,.82.77A2,2,0,0,1,271,209h-1.2c0-.26-.35-.77-.81-1.11a7.25,7.25,0,0,0-1.56-.91,19,19,0,0,0-3.62-1.11,36.87,36.87,0,0,0-7.65-.71,71,71,0,0,0-7.72.4c-2.57.26-5.13.64-7.69,1Z" style="fill:url(#linear-gradient-6)"/></g><g id="Pour_Right_copy" data-name="Pour Right copy"><g id="pour_back" data-name="pour back"><path d="M264.86,132.71a16,16,0,0,0-5,1.06,8.94,8.94,0,0,0-3.87,3,12.35,12.35,0,0,0-2,4.63,25.88,25.88,0,0,0-.61,5.23,71.68,71.68,0,0,0,.71,10.72c.46,3.58,1,7.16,1.64,10.74s1.18,7.16,1.69,10.76,1,7.22,1.25,10.86a75.9,75.9,0,0,1,.08,11,44.57,44.57,0,0,1-2,10.87l-1.56-.55c2.39-6.7,2.58-14,2.11-21.2-.24-3.6-.66-7.18-1.17-10.76s-1.15-7.15-1.77-10.73-1.24-7.15-1.74-10.76a74.1,74.1,0,0,1-.84-11,27.74,27.74,0,0,1,.59-5.57,14,14,0,0,1,2.25-5.29,10.66,10.66,0,0,1,4.61-3.58,16.09,16.09,0,0,1,5.6-1.11Z" style="fill:url(#linear-gradient-7)"/></g><path id="pour_under" data-name="pour under" d="M265.49,126.51a25,25,0,0,0-9.56,8.68,19.16,19.16,0,0,1,8.17-3.14Z" style="fill:url(#linear-gradient-8)"/><path id="pour" d="M244.19,221.55c-3.38,8.2,6.26.82,9.18-4,8.41-13.95,4.3-32,.28-57.24-1.44-9.11-2.35-21.37,3.58-26C239.31,147,261.26,180.09,244.19,221.55Z" style="opacity:0.7000000000000001;fill:url(#linear-gradient-9)"/><g id="pour_front" data-name="pour front"><path d="M246.11,218.12a168.79,168.79,0,0,0,3.76-49.1c-.15-2.05-.33-4.1-.56-6.15s-.53-4.08-.65-6.2a37.75,37.75,0,0,1,1.17-12.56,30.87,30.87,0,0,1,5.77-11.23,27,27,0,0,1,4.59-4.41,21.87,21.87,0,0,1,5.6-3.16l.54,1.57a22.3,22.3,0,0,0-9.64,6.91,27.13,27.13,0,0,0-5.5,10.69,35.5,35.5,0,0,0-.95,12.07c.17,2,.5,4.06.72,6.14s.42,4.14.58,6.21a164.92,164.92,0,0,1,0,24.95,159.11,159.11,0,0,1-3.81,24.65Z" style="fill:url(#linear-gradient-10)"/></g></g><path d="M196.74,151.37c0,.4,0,.81,0,1.21q2.68-.18,5.76-.33a29.53,29.53,0,0,0-1.1-3.16c-.14-.33-.3-.66-.45-1-1.49.09-2.92.2-4.32.31A26.55,26.55,0,0,1,196.74,151.37Z" style="opacity:0.5;fill:url(#linear-gradient-11)"/><path d="M202.89,153.87c-.18-.78-.39-1.56-.64-2.33-1.94.13-3.78.27-5.53.42q0,1.18-.09,2.37C198.58,154.16,200.66,154,202.89,153.87Z" style="fill:#4e8b9b"/><path d="M196.66,149.22c1.49-.13,3-.25,4.61-.35-.33-.79-.7-1.55-1.1-2.31q-1.95.13-3.81.3A18.34,18.34,0,0,1,196.66,149.22Z" style="fill:#4e8b9b"/><g id="Pour_Left_copy" data-name="Pour Left copy"><g id="pour_back-2" data-name="pour back"><path d="M176.81,139a47.57,47.57,0,0,1,5.83-1.25,23.73,23.73,0,0,1,6.08-.18,13.79,13.79,0,0,1,3.05.72,9.94,9.94,0,0,1,2.78,1.61,10.31,10.31,0,0,1,3.16,5.43,22.89,22.89,0,0,1,.61,6,55.53,55.53,0,0,1-.42,5.93c-.47,3.93-1.17,7.79-1.86,11.64s-1.4,7.7-2,11.55A110.65,110.65,0,0,0,193,192.11a53.58,53.58,0,0,0,.69,11.54,30.43,30.43,0,0,0,4,10.67l-1.41.86a32.93,32.93,0,0,1-4-11.27,55.44,55.44,0,0,1-.65-11.85,112.39,112.39,0,0,1,1.19-11.75c.55-3.89,1.23-7.75,1.89-11.61s1.33-7.7,1.76-11.56a53.18,53.18,0,0,0,.35-5.77,21.75,21.75,0,0,0-.61-5.61,8.75,8.75,0,0,0-2.67-4.54,8.2,8.2,0,0,0-2.29-1.29,11.8,11.8,0,0,0-2.66-.59c-3.7-.43-7.55.4-11.28,1.28Z" style="fill:url(#linear-gradient-12)"/></g><path id="pour_under-2" data-name="pour under" d="M184.61,133a28.53,28.53,0,0,1,9.93,8.24,23.24,23.24,0,0,0-8.09-2.83Z" style="fill:url(#linear-gradient-13)"/><path id="pour-2" data-name="pour" d="M206.46,221.3c4.29,7.76-3.76,2.52-7.07-2.07-9.52-13.21-8.8-27.43-3.7-51.78,1.89-9,4.08-23.29-2.21-27.39C215.48,155.66,189.72,191,206.46,221.3Z" style="opacity:0.7000000000000001;fill:url(#linear-gradient-14)"/><g id="pour_front-2" data-name="pour front"><path d="M205.58,223.3a68.83,68.83,0,0,1-5.91-24.42c-.55-8.4.3-16.8,1.43-25a87.28,87.28,0,0,0,1.16-12.29,32.56,32.56,0,0,0-2.19-11.93,26.53,26.53,0,0,0-2.86-5.36,31.16,31.16,0,0,0-4-4.63,43.39,43.39,0,0,0-4.74-3.89c-1.67-1.2-3.43-2.26-5.2-3.39l.92-1.38a67.62,67.62,0,0,1,10,7.65,31.5,31.5,0,0,1,7.14,10.47,34.09,34.09,0,0,1,2.47,12.44,43,43,0,0,1-.3,6.32c-.22,2.09-.51,4.15-.77,6.21a125.77,125.77,0,0,0-1.35,24.71,68.54,68.54,0,0,0,5.67,23.85Z" style="fill:url(#linear-gradient-15)"/></g></g><g id="Blue_Probe" data-name="Blue Probe"><path d="M229.9,255.06h-.28a2.5,2.5,0,0,1-2.2-2.77l2.9-25.32a2.5,2.5,0,1,1,5,.57l-2.89,25.32A2.51,2.51,0,0,1,229.9,255.06Z"/><path d="M230.73,242.34c-.28,1.69-.53,3.38-.76,5.07l-.31,2.55a8.5,8.5,0,0,0-.12,2.57.52.52,0,1,1-1,.18.51.51,0,0,1,0-.3,8.9,8.9,0,0,0,.51-2.52l.3-2.55c.19-1.7.36-3.41.49-5.11a.45.45,0,0,1,.9.07S230.73,242.32,230.73,242.34Z" style="fill:#fff"/><path d="M227.41,243.84l6.94.9c6.36-49.41,3.18-96.92.1-142.87-2.37-35.43-4.6-69-2.33-101.19l-7,.17c-2.23,32.41,0,66.05,2.38,101.48C230.52,148,233.68,195.12,227.41,243.84Z" style="fill:#4c4c4c"/><path d="M237.48,227.45c1.6-26.38,3.13-56.81.9-84.08l-10,.81c2.17,26.62.66,56.63-.92,82.67Z" style="fill:#00bdff"/><path d="M239.36,229.57l-14-.85.12-2c1.58-26,3.09-55.89.92-82.37l-.16-2,14-1.13.17,2c2.23,27.4.71,57.91-.9,84.36Zm-9.74-4.6,6,.36c1.52-25.19,2.88-53.87,1-79.8l-6,.49C232.47,171.57,231.12,200,229.62,225Z" style="fill:#0082a0"/></g><g id="Yellow_Probe" data-name="Yellow Probe"><path d="M222.1,255.06a2.51,2.51,0,0,1-2.49-2.21l-2.89-25.32a2.5,2.5,0,1,1,5-.57l2.9,25.32a2.5,2.5,0,0,1-2.2,2.77Z"/><path d="M220.68,242.36c.14,1.71.31,3.41.49,5.11l.31,2.55a9.16,9.16,0,0,0,.5,2.52.52.52,0,1,1-.95.43.48.48,0,0,1,0-.31,8.83,8.83,0,0,0-.12-2.57l-.32-2.54c-.23-1.7-.47-3.39-.76-5.08a.45.45,0,1,1,.89-.15Z" style="fill:#fff"/><path d="M224.59,243.84c-6.27-48.72-3.11-95.89-.06-141.51C226.91,66.84,229.14,33.26,226.9.8l-7,.18c2.24,32.08,0,65.53-2.35,100.89-3.08,45.95-6.26,93.46.1,142.87Z" style="fill:#4c4c4c"/><path d="M214.52,227.45c-1.6-26.38-3.13-56.81-.9-84.08l10,.81c-2.17,26.62-.66,56.63.92,82.67Z" style="fill:#ebd900"/><path d="M212.64,229.57l-.12-2c-1.61-26.45-3.13-57-.9-84.36l.17-2,14,1.13-.16,2c-2.17,26.48-.66,56.4.92,82.37l.12,2Zm2.81-84c-1.93,25.93-.57,54.61.94,79.8l6-.36c-1.5-25-2.85-53.4-.95-78.95Z" style="fill:#ad9c00"/></g><g id="poured_copy_15" data-name="poured copy 15"><path d="M262.94,266.67c-25.23,9.75-63.49,7-75.46-1.27L182,207.82c23.14-6.55,59.25,20.06,86.8,3.35Z" style="opacity:0.5;fill:url(#linear-gradient-16)"/><path d="M240.48,209.68c-.42,4.67-14,3.6-14,0" style="fill:none;stroke-linecap:round;stroke-miterlimit:10;opacity:0.6000000000000001;stroke:url(#Line)"/><path d="M240.69,205.92c-.06,1.3-.11,2.61-.18,3.9-.45,4.47-13.92,3.32-14,.05l.06-1.28-1.05.2c0,.86.17,3.75.24,4.72,27.53,7.87,44.65-2,44.65-4.5C270.37,206.77,261.43,202.75,240.69,205.92Z" style="fill:#949b9a;opacity:0.7000000000000001"/><path d="M211.53,210c-18.44-3.92-34.73-4.8-29.51,1.16,1.39,1.59,13.35,1.7,29.57-.26C211.56,210.46,211.55,210.34,211.53,210Z" style="fill:#949b9a;opacity:0.7000000000000001"/><g style="opacity:0.7000000000000001"><path d="M240.52,205.37a81.71,81.71,0,0,1,19.64-1.17,33.18,33.18,0,0,1,4.92.8,12.93,12.93,0,0,1,4.7,2,3.65,3.65,0,0,1,1,1.11,1.93,1.93,0,0,1,.24.87,1.65,1.65,0,0,1-.12.52,2.28,2.28,0,0,1-.2.38,7.5,7.5,0,0,1-2,1.79,24.13,24.13,0,0,1-4.48,2.26A51.75,51.75,0,0,1,244.78,217,75.48,75.48,0,0,1,225.37,214c-6.25-1.79-12.58-3.32-19-4.55-3.2-.6-6.41-1.12-9.63-1.52a68.39,68.39,0,0,0-9.68-.61,13.68,13.68,0,0,0-4.59.73,2.08,2.08,0,0,0-.78.55.79.79,0,0,0-.16.72,2.79,2.79,0,0,0,.42.9,2.63,2.63,0,0,0,.66.72,8.13,8.13,0,0,0,2.15.57c.79.11,1.58.18,2.39.23,1.6.09,3.22.12,4.84.09a183.34,183.34,0,0,0,19.43-1.51l.15,1.2A185.28,185.28,0,0,1,192,212.92c-1.64,0-3.29,0-4.94-.11-.82-.05-1.64-.13-2.47-.25a8.13,8.13,0,0,1-2.54-.72,3.41,3.41,0,0,1-1-1.05,3.56,3.56,0,0,1-.58-1.31,1.89,1.89,0,0,1,.37-1.58,3,3,0,0,1,1.19-.87,14.44,14.44,0,0,1,5-.81,70,70,0,0,1,9.83.66c3.24.41,6.47,1,9.68,1.57q9.64,1.81,19.08,4.5a74.48,74.48,0,0,0,19.14,3,50.25,50.25,0,0,0,19-3.07,21.84,21.84,0,0,0,4.23-2.15,6.32,6.32,0,0,0,1.64-1.44l.09-.17s0,0,0-.06a.75.75,0,0,0-.1-.3,2.56,2.56,0,0,0-.64-.7,11.6,11.6,0,0,0-4.24-1.78,31.07,31.07,0,0,0-4.73-.75,80.39,80.39,0,0,0-19.32,1.08Z" style="fill:url(#linear-gradient-17)"/></g><g style="opacity:0.7000000000000001"><path d="M271,209a1.78,1.78,0,0,1-.38,1,4.92,4.92,0,0,1-.54.63,10.64,10.64,0,0,1-1.19,1,19.23,19.23,0,0,1-2.56,1.47,34.4,34.4,0,0,1-5.44,2.07,52,52,0,0,1-11.4,1.84,71.89,71.89,0,0,1-22.8-2.68c-3.68-1-7.34-2-11-2.92s-7.43-1.64-11.17-2.31-7.51-1.21-11.28-1.54a53.66,53.66,0,0,0-5.66-.22,23.32,23.32,0,0,0-2.78.2,7.37,7.37,0,0,0-2.5.72l-.62-1a8.59,8.59,0,0,1,3-.84,26.13,26.13,0,0,1,2.92-.17c1.93,0,3.85.11,5.76.28,3.82.35,7.61.92,11.37,1.6,7.52,1.38,15,3.19,22.31,5.24a70.16,70.16,0,0,0,22.46,2.48,49.66,49.66,0,0,0,11.11-1.88,32.16,32.16,0,0,0,5.25-2,17.66,17.66,0,0,0,2.4-1.36,9.64,9.64,0,0,0,1-.82,2.39,2.39,0,0,0,.58-.74Z" style="fill:url(#linear-gradient-18)"/></g><g style="opacity:0.7000000000000001"><path d="M225.51,214.08c-3.91-1.05-7.81-2.09-11.75-3s-7.89-1.75-11.88-2.42a93.71,93.71,0,0,0-12-1.35,27.89,27.89,0,0,0-5.94.3,3.5,3.5,0,0,0-2.26,1.09c-.32.48.18,1.35.8,2l-.91.8a6.05,6.05,0,0,1-.92-1.43,2.12,2.12,0,0,1,.06-2,2.89,2.89,0,0,1,1.46-1.13,8.29,8.29,0,0,1,1.56-.44,28,28,0,0,1,6.19-.27c2,.09,4.07.28,6.09.52s4,.51,6.05.82q6,1,12,2.29c4,.87,7.92,1.84,11.81,3Z" style="fill:url(#linear-gradient-19)"/></g></g><polygon points="246.76 272.51 262.44 267.47 274.45 162.88 250.97 166.1 246.76 272.51" style="opacity:0.4;fill:url(#linear-gradient-20)"/><path d="M263.59,266.9c-24.21,9-49.08,8.63-76.43-.14l-8.6-103.69c32.72,4.87,63.84,5.59,94.63.41Z" style="fill:#fff;opacity:0.15"/><polygon points="205.26 271.39 187.31 266.9 178.55 163.61 200.5 166.24 205.26 271.39" style="opacity:0.4;fill:url(#linear-gradient-21)"/><path d="M209,147.69c-2.8.11-5.5.24-8.07.41.15.33.31.66.45,1a29.53,29.53,0,0,1,1.1,3.16c2.05-.1,4.21-.19,6.52-.26Z" style="opacity:0.5;fill:url(#linear-gradient-22)"/><path d="M248.6,152.21a40.24,40.24,0,0,1,.39-4.11q-4-.25-8.3-.42c.1,1.41.18,2.83.26,4.26C243.67,152,246.21,152.1,248.6,152.21Z" style="opacity:0.5;fill:url(#linear-gradient-23)"/><path d="M278.62,156c0-.05-.25-.75-.26-.8-.58-1.84-2.34-4.11-16.05-5.88-2.71-.35-5.71-.66-8.94-.92,0,1.35.09,2.69.2,4,9.21.56,15.46,1.44,18.58,2.54-1.2.22-2.17.53,0,.21-2.2.32-14.36,4.12-46.42,4.12-28.42,0-42.82-3.17-46-4.12l-.24-.08c2.94-1.07,8.68-1.95,17.27-2.55,0-.4,0-.81,0-1.21a26.55,26.55,0,0,0-.14-3c-2.69.22-5.22.48-7.53.78-13.87,1.77-15.22,4.13-15.87,5.95,0,0-.64.11,0,.46l-.11.21-.11-.13c-1.21-.35-.33,1.08-.35,1.29.06,2.36,4.67,5.14,16.76,6.74a296.11,296.11,0,0,0,36.54,2.07,290.44,290.44,0,0,0,36-1.86C274.86,162.18,279.61,158.54,278.62,156Z" style="opacity:0.5;fill:url(#linear-gradient-24)"/><g id="outline_front_of_pour" data-name="outline front of pour"><path d="M209,151.18c-2.37.1-4.61.22-6.74.36.25.77.46,1.55.64,2.33q2.9-.18,6.1-.32Z" style="fill:#4e8b9b"/><path d="M248.57,153.86c0-.79,0-1.57.07-2.35-2.43-.15-5-.29-7.73-.39l.12,2.37Q245,153.64,248.57,153.86Z" style="fill:#4e8b9b"/><path d="M253.52,151.86c0,.79.12,1.57.2,2.36,5.86.48,10.55,1.07,14,1.69-7.81,1.41-22.08,2.7-41.88,2.7s-34-1.29-41.77-2.7c3.15-.57,7.37-1.12,12.58-1.58q.08-1.19.09-2.37c-9.32.81-15.71,1.95-18.71,3,0,0,0,0,0,0,2,1.94,18.55,4.82,47.8,4.82,32.05,0,45.68-3.24,47.25-4.8a.5.5,0,0,1,.07-.13C270,153.81,263.26,152.66,253.52,151.86Z" style="fill:#4e8b9b"/><path d="M209,146.07c-3.07.13-6,.3-8.82.49.4.76.77,1.52,1.1,2.31,2.47-.17,5-.31,7.72-.42Z" style="fill:#4e8b9b"/><path d="M248.89,148.78c.1-.8.24-1.58.4-2.37-2.79-.17-5.7-.31-8.71-.42,0,.8.11,1.59.16,2.39Q245,148.53,248.89,148.78Z" style="fill:#4e8b9b"/><path d="M281.48,156.06c-1.52-4.15-5.24-6.73-18.52-8.41-2.91-.37-6.13-.69-9.59-1,0,.79,0,1.59,0,2.39,3.23.26,6.23.56,8.94.91,13.72,1.77,14.85,4,15.42,5.8a1.15,1.15,0,0,1,.06.17c1,2.52-3,5.23-15.94,7a289.86,289.86,0,0,1-36,1.9,296,296,0,0,1-36.3-1.9c-12.09-1.6-16.17-3.84-16.23-6.21a6.89,6.89,0,0,1,.13-.81h0c.65-1.81,1.87-4.13,15.74-5.91,2.3-.29,4.82-.55,7.5-.78a18.34,18.34,0,0,0-.3-2.36c-2.71.23-5.27.49-7.61.79-9.06,1.15-16.82,3.17-18.33,8.48-.84,3,.43,5.32,5.07,7.15l7.61,92.42c.1.81,1.68,1.37,2.4,1.56l.94,9.08c1.13,5.46,16.09,9.54,39,9.54s37-4.29,39-9.54l1.12-8.83c.68-.22,2.25-1,2.37-1.89l8.49-92.05C280.68,161.53,282.53,158.9,281.48,156.06ZM259.17,264.34c-5.37,5.22-18.37,7.05-30,7.05-9.95,0-29.79-.57-38.08-6.1-1.26-.85-1.26-4.55-1.51-7.36,8.56,2.24,23.54,4.49,39.59,4.49,11.77,0,21.57-2.27,31.2-4.51C260,260.56,260,263.56,259.17,264.34ZM262,254.25c-3.25,2.18-14.65,5.88-36.75,5.88s-33.62-3-36.87-5.13c-2.39-1.61-6.77-68.4-7.66-90.16,2.16.49,4.69.93,7.65,1.33a273.18,273.18,0,0,0,36.7,2.65c14.21,0,28.19-.55,37.94-1.79a61.39,61.39,0,0,0,7.2-1.32C269.5,191.56,264.42,252.65,262,254.25Z" style="fill:#4e8b9b"/></g><path d="M217.31,263a127.73,127.73,0,0,1-19-2.12,55.49,55.49,0,0,0,.71,10.57c7,2,15.49,2.34,18.89,2.44C217.9,272.27,217.58,269.58,217.31,263Z" style="opacity:0.6000000000000001;fill:url(#linear-gradient-25)"/><path d="M212.5,255.92c-2.93-34.94-2.65-71-1.41-86.2A192.84,192.84,0,0,1,187,167.44c0,21.84,2.56,67.28,7.38,86.78a31.73,31.73,0,0,0,1.73,5.18c6.5,1.26,14,2.06,16.67,2.28C212.81,260,212.69,258.15,212.5,255.92Z" style="opacity:0.6000000000000001;fill:url(#linear-gradient-26)"/><path d="M204.47,166.08c.65-3.23.67-4.68,3.11-6.63-7.22-.36-14.53-1-21.18-2-2.89,2.63-2.09,3.1-2.31,6.18C188.19,164.73,199.41,166,204.47,166.08Z" style="opacity:0.6000000000000001;fill:url(#linear-gradient-27)"/><path d="M182.71,160.53c7.12,1.49,19.47,2.52,31.53,2.77" style="fill:none;stroke-miterlimit:10;stroke-width:2.49274772835266px;opacity:0.5;stroke:url(#linear-gradient-28)"/><path d="M253.37,147.73c0,1.85.1,3.7.26,5.55,2.66.23,5.27.49,7.49.78a6,6,0,0,1,2.68-5.25C260.22,148.38,256.79,148,253.37,147.73Z" style="opacity:0.4;fill:url(#linear-gradient-29)"/><path d="M249.1,147.43c-2.07-.13-4.15-.23-6.29-.3-1.77,1.24-2.12,3.16-2.12,5.32,2.09.08,4.89.23,7.89.44A37,37,0,0,1,249.1,147.43Z" style="opacity:0.4;fill:url(#linear-gradient-30)"/></g></g><g id="pour_cup_right" data-name="pour cup right"><path d="M264.76,122.4c2.3-10.16,7-22.7,12.83-36,.61-1.39,6.36-14,13.31-25.86,7.26-12.44,18.19-24.95,25.1-21.92,2.38,1,5.47,3.3,5.56,10.31l0,2.43,71.5,38.71c.7.41,1.43,2.58,1.31,3.32l7.8,4.34h0c2.52,1.11-2,18.11-10.56,37.66S373,170,370.51,168.9h0l-8-2.55c-.48.54-2.68,1.62-3.55,1.37L282.18,142l-1.48,1.36c-2,1.81-6.31,5.58-11.44,3.29C261.37,143.12,262.6,131.92,264.76,122.4Z" style="opacity:0.8;fill:url(#linear-gradient-31)"/><path d="M300.38,96.42c-7.67,17.47-16.5,32.73-23.1,39.94l-1.95-1.8c6.38-6.89,15.06-21.9,22.65-39.19,7.92-18,13.26-35.44,13.6-44.34l2.66.1C313.79,60.5,308.38,78.21,300.38,96.42Z" style="fill:#4e8b9b"/><path d="M278.93,137.9c6.76-7.39,15.75-22.88,23.52-40.57C310.67,78.59,316,61,316.5,51.22l4.1.15c-.39,10.1-5.89,28.35-14.36,47.62-8,18.15-17.28,34.13-24.29,41.7Z" style="fill:#4e8b9b"/><path d="M290.3,111.34c18.68,8.39,46.34,20.38,73.06,30.46,10.34,3.9,14,3.2,10,13.33-1,2.62-5.44-.13-10.92-1.71-18.45-5.33-58.73-20.78-79.36-29.34C285.28,120.44,288,116,290.3,111.34Z" style="opacity:0.30000000000000004;fill:url(#linear-gradient-32)"/><path d="M392.15,92c3.23,1.42-2.76,20.6-10.9,39.14s-18.39,35.53-21.33,34.24" style="fill:none;stroke-miterlimit:10;stroke-width:2.49274772835266px;opacity:0.35000000000000003;stroke:url(#radial-gradient-3)"/><g id="slanted_water_line" data-name="slanted water line" style="opacity:0.7000000000000001"><path d="M392.83,128.54c-20.38-9.71-46.09,1.2-73.5,3.49-29.32,2.46-45.13-.47-54.22-.37l1.05-5.71c12.35-4.61,21.94-2.25,48.55,4.89,11.93,3.2,39.37,4.84,52.76,4.84,10,0,22.31-1,24-5.33C392.39,128.14,393.44,128.83,392.83,128.54Z" style="fill:#949b9a"/><path d="M392.48,129.26a41.49,41.49,0,0,0-15.26-3.73,83.19,83.19,0,0,0-15.91.75c-10.59,1.4-21.09,3.8-31.76,5.36q-4,.59-8,1c-2.7.27-5.38.43-8.06.62q-8.07.51-16.15.52t-16.16-.49l-8-.54c-2.68-.19-5.35-.38-8-.37h-.86l.15-.84,1.07-5.71.07-.39.37-.13a38.35,38.35,0,0,1,8.05-2,39.64,39.64,0,0,1,8.29-.21,111.17,111.17,0,0,1,16.18,2.89c5.31,1.27,10.58,2.67,15.84,4.07a115.61,115.61,0,0,0,16,2.74c10.8,1.2,21.67,1.87,32.54,2.13a127.07,127.07,0,0,0,16.22-.51,38.39,38.39,0,0,0,7.83-1.56,9.11,9.11,0,0,0,3.25-1.78,3.27,3.27,0,0,0,.5-.64,3.76,3.76,0,0,0,.18-.35,4.86,4.86,0,0,1,.24-.53,3.73,3.73,0,0,1,.73-1,2.36,2.36,0,0,1,.62-.45,2.4,2.4,0,0,1,.4-.14h0c-.07-.85-.72,1.7-.17,1.42l0,0Zm.69-1.44.1,0,.15.08c.58-.27-.08,2.31-.18,1.46l-.09,0-.08,0a.68.68,0,0,0-.2.15,2.4,2.4,0,0,0-.43.62,3.52,3.52,0,0,0-.18.4c-.08.18-.18.39-.28.57a4.51,4.51,0,0,1-.77.95,10.35,10.35,0,0,1-3.84,2.14,39.54,39.54,0,0,1-8.17,1.62,127.13,127.13,0,0,1-16.43.47c-10.91-.28-21.81-1-32.66-2.21a116.42,116.42,0,0,1-16.19-2.81c-5.26-1.42-10.51-2.84-15.79-4.13a100.73,100.73,0,0,0-16-2.85,37.5,37.5,0,0,0-8,.23,37.1,37.1,0,0,0-7.75,2l.44-.52-1,5.71-.71-.84c2.73,0,5.42.17,8.11.34l8,.53c5.35.3,10.71.46,16.06.43s10.71-.22,16.06-.57c2.66-.2,5.35-.37,8-.64s5.31-.61,7.95-1c10.59-1.56,21.07-4,31.79-5.43a84.55,84.55,0,0,1,16.23-.71A43,43,0,0,1,393.17,127.82Z" style="fill:url(#linear-gradient-33)"/></g><path id="water_slanted" data-name="water slanted" d="M370.78,166.4c9.91-10.35,14.35-19.18,22.37-36.92-7.06,10-63.2,5.48-77.75,1.43-20.56-5.73-36.29-10.42-49.49-4.77-.23,3.35-1.15,4.79-1.07,6.59l92.51,31.75,4.55-.95Z" style="opacity:0.5;fill:url(#linear-gradient-34)"/><path d="M371.6,165.91c2.24,1,11-12.71,19.13-31.24s12.11-34.31,9.87-35.3-11.46,13.27-19.6,31.8S369.36,164.92,371.6,165.91Z" style="opacity:0.35000000000000003;fill:url(#radial-gradient-4)"/><path id="cup_bottom" data-name="cup bottom" d="M371.6,165.91c2.24,1,11-12.71,19.13-31.24s12.11-34.31,9.87-35.3-11.46,13.27-19.6,31.8S369.36,164.92,371.6,165.91Z" style="opacity:0.4;fill:url(#linear-gradient-35)"/><polygon points="374.18 151.27 371.97 167.45 273.36 137.05 278.22 113.09 374.18 151.27" style="opacity:0.4;fill:url(#linear-gradient-36)"/><path d="M371,168.27c15.08-20.53,24.13-43,30.72-69.14L310.12,48.67a285.13,285.13,0,0,0-37.68,86.81Z" style="fill:#fff;opacity:0.15"/><polygon points="391.05 113.57 401.67 98.43 310.61 48.88 298.18 68.52 391.05 113.57" style="opacity:0.4;fill:url(#linear-gradient-37)"/><path d="M277.65,140c-1-.33-4-1.48-4.81-1.72a1.79,1.79,0,0,1-.77.25c-2.12-1.89.29-19.89,13-48.86,12.82-29.21,24.56-43.45,27.56-43.25h0s.06.11.14.37c1,.57,2.63,1.24,4.26,2.17,0-2.28-.46-5.75-2.64-6.71-11.14-4.89-32.56,43.53-33.47,45.6-5.72,13-10.11,25.65-12.35,35.54-2.61,11.51-2,17.62,1.71,19.3C272.87,143.88,276.25,141.33,277.65,140Z" style="opacity:0.5;fill:url(#linear-gradient-38)"/><path d="M379.3,137.5c2.87-5.66,9.22-19.31,14.16-26.65-4-2.28-7-4.17-10-4.83-4.67,5.6-13.13,24.35-14.59,27.42C370.38,134.12,373.2,135.11,379.3,137.5Z" style="opacity:0.6000000000000001;fill:url(#linear-gradient-39)"/><path d="M283.92,99.83c2.29-5.73,12.9-28.47,18.61-37.09,20,8.78,80.89,39.6,82,40.84-4.66,5.8-14.34,26.79-14.83,29.8C365.88,132,298.33,104.81,283.92,99.83Z" style="opacity:0.6000000000000001;fill:url(#linear-gradient-40)"/><path d="M276.65,94.19c2.69,1.9,5.33,2.9,7.58,2.86,3.24-6.46,13.26-25.78,16.82-31.48-1.24-3.7-4.77-4.6-7.51-6C290.88,62.83,278.77,89.6,276.65,94.19Z" style="opacity:0.6000000000000001;fill:url(#linear-gradient-41)"/><path d="M298,62.58c-5.63,7.38-12.83,21.53-16.39,32.8" style="fill:none;stroke-miterlimit:10;stroke-width:2.49274772835266px;opacity:0.5;stroke:url(#linear-gradient-42)"/><path d="M269.26,146.65c5.13,2.29,9.47-1.48,11.44-3.29l1.48-1.36,76.73,25.73c.87.25,3.07-.83,3.55-1.37l8,2.55h0C373,170,383.06,155,391.65,135.4s13.08-36.55,10.56-37.66h0l-7.8-4.34c.12-.74-.61-2.91-1.31-3.32L321.6,51.37l0-2.43c-.09-7-3.18-9.26-5.56-10.31-6.91-3-17.84,9.48-25.1,21.92C284,72.45,278.2,85,277.59,86.41c-5.83,13.29-10.53,25.83-12.83,36C262.6,131.92,261.37,143.12,269.26,146.65Zm129.12-46.39c-4.51,4.85-11.74,16.17-17.92,30.24-5.9,13.44-9.58,26-10.49,32.94-1.3.15-5-1.59-7.19-2.25a113.23,113.23,0,0,1,8.73-30.31c6.45-14.7,12.94-25.74,19.83-34.49C393.26,97.43,397.15,99,398.38,100.26ZM373.71,161.4A140.25,140.25,0,0,1,383,131.63a145,145,0,0,1,16.47-28c-1.33,5.9-5.14,17.34-10.89,30.43A164.33,164.33,0,0,1,373.71,161.4ZM276,133.78c.08-1,.25-2.28.51-3.79.64-3,1.3-6,2-8.75A206.35,206.35,0,0,1,288.92,91c10.28-23.42,18.92-35.19,22.76-39.07,2.59,1.29,6.24,3,9.74,4.77l.25.14h0C347,69.58,391.18,92.23,389.54,94.07c-3.47,3.91-10,12-18.93,32.21s-8.62,31.34-11.37,35.53C357.37,164.67,299.7,143.45,276,133.78Zm-5.65,8.95c-3.76-1.68-4.32-7.79-1.71-19.3,2.24-9.89,6.63-22.51,12.35-35.54.91-2.07,22.33-50.49,33.47-45.6,2.18,1,2.61,4.43,2.64,6.71-1.63-.93-3.22-1.6-4.26-2.17-.08-.26-.15-.36-.14-.37h0c-3-.2-14.74,14-27.56,43.25-12.73,29-15.14,47-13,48.86a1.79,1.79,0,0,0,.77-.25c.83.24,3.84,1.39,4.81,1.72C276.25,141.33,272.87,143.88,270.3,142.73Z" style="fill:#4e8b9b"/></g><g id="pour_cup_left" data-name="pour cup left"><path d="M185,128.79c-3.12-9.93-8.83-22-15.73-34.81-.73-1.34-7.48-13.4-15.38-24.69-8.26-11.81-20.17-23.38-26.81-19.79-2.29,1.24-5.18,3.73-4.7,10.73l.17,2.42-68.1,44.42c-.67.47-1.22,2.69-1,3.42l-7.42,5h0c-2.42,1.31,3.45,17.88,13.61,36.67s21.39,33,23.81,31.65h0v0l7.81-3.2c.51.49,2.79,1.39,3.64,1.07l74.37-31.92,1.58,1.24c2.12,1.64,6.75,5,11.68,2.34C190.08,149.17,187.93,138.1,185,128.79Z" style="opacity:0.8;fill:url(#linear-gradient-43)"/><path d="M147.38,105.81c9.07,16.79,19.12,31.27,26.29,37.92l1.79-2c-6.92-6.33-16.8-20.59-25.78-37.2-9.36-17.32-16.11-34.23-17.18-43.08l-2.65.32C131.07,71.11,137.91,88.32,147.38,105.81Z" style="fill:#4e8b9b"/><path d="M172.14,145.4c-7.34-6.81-17.56-21.52-26.75-38.51-9.73-18-16.52-35.12-17.78-44.81l-4.07.49c1.22,10,8.19,27.77,18.2,46.29,9.43,17.44,20,32.6,27.63,39.57Z" style="fill:#4e8b9b"/><path d="M158.64,119.85c-17.93,9.9-44.51,24.11-70.32,36.34-10,4.73-13.68,4.33-8.86,14.1,1.25,2.53,5.41-.57,10.74-2.6,18-6.82,56.83-25.5,76.7-35.73C164.39,128.52,161.34,124.33,158.64,119.85Z" style="opacity:0.30000000000000004;fill:url(#linear-gradient-44)"/><path d="M55.55,109c-3.1,1.68,4.44,20.31,14.07,38.12s21.23,33.9,24,32.38" style="fill:none;stroke-miterlimit:10;stroke-width:2.49274772835266px;opacity:0.35000000000000003;stroke:url(#radial-gradient-5)"/><g id="slanted_water_line-2" data-name="slanted water line"><path d="M185,133.25c-21.3-11-57.86,3.21-87.57,3.77-44.51.83-54.58-21.23-44.79-5.77,5.69,9,30.25,3.39,59.73,7.16,13.46,1.72,30.84,1.29,45.24.07,10.64-.9,19.64-2.23,24.23-3.45C184.31,134.38,185.63,133.58,185,133.25Z" style="fill:#949b9a"/><path d="M184.61,134c-5.08-2.61-10.85-3.65-16.59-4a105,105,0,0,0-17.35.81c-11.55,1.39-23,3.71-34.63,5.34a160.34,160.34,0,0,1-17.54,1.63A119.24,119.24,0,0,1,80.88,137a89.44,89.44,0,0,1-17.24-3.82,67.82,67.82,0,0,1-8.21-3.33c-1.33-.64-2.64-1.33-3.92-2.07l-1.89-1.09-.41-.22h0a.72.72,0,0,0,.39-.11.73.73,0,0,0,.31-.53.49.49,0,0,0,0-.14s0,0,0,0c.1.21.32.55.5.84l2.4,3.68a9.89,9.89,0,0,0,1.2,1.65,7.91,7.91,0,0,0,1.56,1.26,20.74,20.74,0,0,0,8.06,2.36,160.14,160.14,0,0,0,17.43.68c5.84,0,11.7,0,17.56.34,2.93.14,5.85.34,8.77.62s5.84.68,8.72.94a229.83,229.83,0,0,0,34.91.1q8.73-.56,17.4-1.64c2.89-.37,5.77-.79,8.62-1.31,1.43-.27,2.85-.56,4.23-.91a15.06,15.06,0,0,0,2-.62,5.54,5.54,0,0,0,.88-.4,2.25,2.25,0,0,0,.25-.17s-.07,0-.1.33a.62.62,0,0,0,.16.42A.44.44,0,0,0,184.61,134Zm.76-1.48a1.2,1.2,0,0,1,.34.27,1,1,0,0,1,.26.67,1.17,1.17,0,0,1-.34.81,3,3,0,0,1-.63.47,7.73,7.73,0,0,1-1.11.51,17.11,17.11,0,0,1-2.19.67c-1.45.37-2.89.66-4.34.92-2.9.53-5.81.94-8.72,1.31-5.82.72-11.65,1.24-17.5,1.6a233,233,0,0,1-35.15-.2c-2.94-.28-5.82-.72-8.71-1s-5.8-.49-8.71-.64c-5.82-.3-11.65-.37-17.5-.39a164.61,164.61,0,0,1-17.59-.63,22,22,0,0,1-8.64-2.54A9,9,0,0,1,53,132.88,11.35,11.35,0,0,1,51.61,131l-2.41-3.66a10.27,10.27,0,0,1-.61-1,1.13,1.13,0,0,1-.09-.25.62.62,0,0,1,0-.27.78.78,0,0,1,.36-.65.8.8,0,0,1,.52-.13.69.69,0,0,1,.2,0,1.63,1.63,0,0,1,.23.07,4.79,4.79,0,0,1,.56.29l1.9,1.09q1.89,1.08,3.84,2a67.45,67.45,0,0,0,8,3.23,88.21,88.21,0,0,0,16.95,3.69,117.32,117.32,0,0,0,17.38.73,158.1,158.1,0,0,0,17.35-1.65c11.54-1.63,23-4,34.67-5.39a107,107,0,0,1,17.64-.78A42.61,42.61,0,0,1,185.37,132.51Z" style="fill:url(#linear-gradient-45)"/></g><path id="water_slanted-2" data-name="water slanted" d="M82.93,181.31c-12.15-10.1-23-28.64-34.11-55.86,15.49,8.67,29.36,11.8,47.34,11.46,23.67-.44,69.19-15,88.28-3.77.5,3.33,1.25,4.16,1.33,6L96.16,178.3l-4.61-.57Z" style="opacity:0.5;fill:url(#linear-gradient-46)"/><path d="M82.08,180.89c-2.16,1.17-12-11.76-21.62-29.56S45.58,118.12,47.73,117,60.24,129.24,69.86,147,84.23,179.73,82.08,180.89Z" style="opacity:0.35000000000000003;fill:url(#radial-gradient-6)"/><path id="cup_bottom-2" data-name="cup bottom" d="M82.08,180.89c-2.16,1.17-12-11.76-21.62-29.56S45.58,118.12,47.73,117,60.24,129.24,69.86,147,84.23,179.73,82.08,180.89Z" style="opacity:0.4;fill:url(#linear-gradient-47)"/><polygon points="78.31 166.52 81.83 182.46 177.63 144.1 170.82 120.62 78.31 166.52" style="opacity:0.4;fill:url(#linear-gradient-48)"/><path d="M82.87,183.2C66.17,164,55.31,142.3,46.61,116.8L133.77,59a285.44,285.44,0,0,1,44.64,83.43Z" style="fill:#fff;opacity:0.15"/><polygon points="58.41 130.32 46.59 116.1 133.29 59.27 147.29 77.83 58.41 130.32" style="opacity:0.4;fill:url(#linear-gradient-49)"/><path d="M173.6,147.43c.93-.41,3.84-1.8,4.65-2.11a1.81,1.81,0,0,0,.79.19c2-2.06-1.92-19.8-17-47.64-15.17-28.05-28-41.29-31-40.85h0s-.05.12-.11.39c-1,.65-2.52,1.44-4.07,2.51-.16-2.28,0-5.77,2.08-6.91,10.71-5.78,36,40.73,37.09,42.71,6.77,12.52,12.17,24.74,15.21,34.41,3.55,11.26,3.49,17.4-.12,19.38C178.67,150.86,175.1,148.6,173.6,147.43Z" style="opacity:0.5;fill:url(#linear-gradient-50)"/><path d="M72.08,153.21c-3.33-5.4-10.77-18.49-16.29-25.4,3.81-2.6,6.64-4.73,9.56-5.64,5.11,5.2,15.08,23.2,16.79,26.15C80.69,149.12,78,150.33,72.08,153.21Z" style="opacity:0.6000000000000001;fill:url(#linear-gradient-51)"/><path d="M164.06,107.86c-2.76-5.52-15.19-27.32-21.58-35.44C123.27,82.81,65.1,118.5,64.06,119.84c5.12,5.39,16.49,25.52,17.22,28.48C85,146.6,150.1,114,164.06,107.86Z" style="opacity:0.6000000000000001;fill:url(#linear-gradient-52)"/><path d="M170.85,101.65c-2.53,2.11-5.08,3.33-7.33,3.47-3.75-6.17-15.32-24.61-19.34-30,.94-3.8,4.38-5,7-6.65C154.1,71.56,168.36,97.25,170.85,101.65Z" style="opacity:0.6000000000000001;fill:url(#linear-gradient-53)"/><path d="M147,71.9c6.21,6.89,14.55,20.4,19,31.34" style="fill:none;stroke-miterlimit:10;stroke-width:2.49274772835266px;opacity:0.5;stroke:url(#linear-gradient-54)"/><path d="M185,128.79c-3.12-9.93-8.83-22-15.73-34.81-.73-1.34-7.48-13.4-15.38-24.69-8.26-11.81-20.17-23.38-26.81-19.79-2.29,1.24-5.18,3.73-4.7,10.73l.17,2.42-68.1,44.42c-.67.47-1.22,2.69-1,3.42l-7.42,5h0c-2.42,1.31,3.45,17.88,13.61,36.67s21.39,33,23.81,31.65h0v0l7.81-3.2c.51.49,2.79,1.39,3.64,1.07l74.37-31.92,1.58,1.24c2.12,1.64,6.75,5,11.68,2.34C190.08,149.17,187.93,138.1,185,128.79ZM56.71,113.22c7.58,8.15,15,18.63,22.59,32.75a113.1,113.1,0,0,1,11.18,29.5c-2.12.84-5.67,2.87-7,2.83-1.47-6.82-6.17-19.05-13.15-32C63,132.81,54.91,122.12,50,117.65,51.15,116.33,54.89,114.42,56.71,113.22Zm5.87,37.3C55.78,138,51,126.85,49.24,121.08A145.58,145.58,0,0,1,68,147.66a140.89,140.89,0,0,1,11.66,28.91A162.61,162.61,0,0,1,62.58,150.52ZM94.06,175.8c-3.08-4-3.73-15-14.24-34.48S62.1,114.37,58.33,110.77c-1.79-1.71,40.4-27.9,64.59-42.7v0l.23-.16c3.35-2.05,6.85-4.05,9.32-5.56,4.15,3.56,13.72,14.58,25.88,37.08a207.32,207.32,0,0,1,12.93,29.31c.9,2.73,1.79,5.59,2.69,8.56.37,1.47.64,2.72.81,3.73C151.9,152.63,96.15,178.5,94.06,175.8Zm79.54-28.37c.93-.41,3.84-1.8,4.65-2.11a1.81,1.81,0,0,0,.79.19c2-2.06-1.92-19.8-17-47.64-15.17-28.05-28-41.29-31-40.85h0s-.05.12-.11.39c-1,.65-2.52,1.44-4.07,2.51-.16-2.28,0-5.77,2.08-6.91,10.71-5.78,36,40.73,37.09,42.71,6.77,12.52,12.17,24.74,15.21,34.41,3.55,11.26,3.49,17.4-.12,19.38C178.67,150.86,175.1,148.6,173.6,147.43Z" style="fill:#4e8b9b"/></g></g></g><path id="FADE_top" data-name="FADE top" d="M443.87,294.57C343.6,312.92,166.11,320.75,12.42,306.48,3.29,229.17-5.79,117.86,7.08,17.31,144-2.8,354.31-4,442.27,6.74,450.15,106,455.08,215,443.87,294.57Z" style="fill-rule:evenodd;fill:url(#linear-gradient-55)"/></svg>