<?xml version="1.0" encoding="utf-8"?>
<!-- Generator: Adobe Illustrator 23.0.1, SVG Export Plug-In . SVG Version: 6.00 Build 0)  -->
<svg version="1.1" id="container" xmlns="http://www.w3.org/2000/svg" xmlns:xlink="http://www.w3.org/1999/xlink" x="0px" y="0px"
	 viewBox="0 0 646 756" style="enable-background:new 0 0 646 756;" xml:space="preserve">
<path d="M604,756H42c-23.2,0-42-18.8-42-42V3c0-1.66,1.34-3,3-3h28c1.66,0,3,1.34,3,3v711c0,4.42,3.58,8,8,8h562c4.42,0,8-3.58,8-8
	V3c0-1.66,1.34-3,3-3h28c1.66,0,3,1.34,3,3v711C646,737.2,627.2,756,604,756z"/>
</svg>
