<?xml version="1.0" encoding="utf-8"?>
<!-- Generator: Adobe Illustrator 23.0.1, SVG Export Plug-In . SVG Version: 6.00 Build 0)  -->
<svg version="1.1" id="cool_icon" xmlns="http://www.w3.org/2000/svg" xmlns:xlink="http://www.w3.org/1999/xlink" x="0px" y="0px" fill="#ffffff"
	 viewBox="0 0 210 210" style="enable-background:new 0 0 210 210;" xml:space="preserve">
<path d="M198.29,115.91c-0.67-1.52-2.44-2.2-3.96-1.53l-32.97,14.54c-0.88,0.39-1.88,0.33-2.71-0.15l-20.67-11.94
	c-0.93-0.54-1.5-1.53-1.5-2.6V95.76c0-1.07,0.57-2.06,1.5-2.6l20.67-11.94c0.83-0.48,1.84-0.53,2.71-0.15l32.97,14.54
	c1.52,0.67,3.29-0.02,3.96-1.53l2.42-5.49c0.67-1.52-0.02-3.29-1.53-3.96l-24.52-10.81c-0.75-0.33-0.81-1.37-0.1-1.78l17.93-10.35
	c1.43-0.83,1.93-2.66,1.1-4.1l-3-5.2c-0.83-1.43-2.66-1.93-4.1-1.1l-17.93,10.35c-0.71,0.41-1.58-0.16-1.49-0.97l2.9-26.64
	c0.18-1.65-1.01-3.13-2.66-3.31l-5.96-0.65c-1.65-0.18-3.13,1.01-3.31,2.66l-3.89,35.82c-0.1,0.95-0.65,1.8-1.48,2.27l-20.67,11.94
	c-0.93,0.54-2.07,0.54-3,0l-16-9.24c-0.93-0.54-1.5-1.53-1.5-2.6V47.07c0-0.96,0.46-1.86,1.23-2.42l29.09-21.29
	c1.34-0.98,1.63-2.86,0.65-4.19l-3.54-4.84c-0.98-1.34-2.86-1.63-4.19-0.65l-21.64,15.84c-0.66,0.48-1.59,0.01-1.59-0.81V8
	c0-1.66-1.34-3-3-3h-6c-1.66,0-3,1.34-3,3v20.7c0,0.82-0.93,1.29-1.59,0.81L76.26,13.67c-1.34-0.98-3.21-0.69-4.19,0.65l-3.54,4.84
	c-0.98,1.34-0.69,3.21,0.65,4.19l29.09,21.29c0.77,0.56,1.23,1.46,1.23,2.42v23.87c0,1.07-0.57,2.06-1.5,2.6l-16,9.24
	c-0.93,0.54-2.07,0.54-3,0L58.31,70.84c-0.83-0.48-1.38-1.32-1.48-2.27l-3.89-35.82c-0.18-1.65-1.66-2.84-3.31-2.66l-5.96,0.65
	c-1.65,0.18-2.84,1.66-2.66,3.31l2.9,26.64c0.09,0.81-0.79,1.38-1.49,0.97L24.48,51.3c-1.43-0.83-3.27-0.34-4.1,1.1l-3,5.2
	c-0.83,1.43-0.34,3.27,1.1,4.1l17.93,10.35c0.71,0.41,0.65,1.45-0.1,1.78L11.79,84.64c-1.52,0.67-2.2,2.44-1.53,3.96l2.42,5.49
	c0.67,1.52,2.44,2.2,3.96,1.53L49.6,81.08c0.88-0.39,1.88-0.33,2.71,0.15l20.67,11.94c0.93,0.54,1.5,1.53,1.5,2.6v18.47
	c0,1.07-0.57,2.06-1.5,2.6l-20.67,11.94c-0.83,0.48-1.84,0.53-2.71,0.15l-32.97-14.54c-1.52-0.67-3.29,0.02-3.96,1.53l-2.42,5.49
	c-0.67,1.52,0.02,3.29,1.53,3.96l24.52,10.81c0.75,0.33,0.81,1.37,0.1,1.78L18.48,148.3c-1.43,0.83-1.93,2.66-1.1,4.1l3,5.2
	c0.83,1.43,2.66,1.93,4.1,1.1l17.93-10.35c0.71-0.41,1.58,0.16,1.49,0.97l-2.9,26.64c-0.18,1.65,1.01,3.13,2.66,3.31l5.96,0.65
	c1.65,0.18,3.13-1.01,3.31-2.66l3.89-35.82c0.1-0.95,0.65-1.8,1.48-2.27l20.67-11.94c0.93-0.54,2.07-0.54,3,0l16,9.24
	c0.93,0.54,1.5,1.53,1.5,2.6v23.87c0,0.96-0.46,1.86-1.23,2.42l-29.09,21.29c-1.34,0.98-1.63,2.86-0.65,4.19l3.54,4.84
	c0.98,1.34,2.86,1.63,4.19,0.65l21.64-15.84c0.66-0.48,1.59-0.01,1.59,0.81V202c0,1.66,1.34,3,3,3h6c1.66,0,3-1.34,3-3v-20.7
	c0-0.82,0.93-1.29,1.59-0.81l21.64,15.84c1.34,0.98,3.21,0.69,4.19-0.65l3.54-4.84c0.98-1.34,0.69-3.21-0.65-4.19l-29.09-21.29
	c-0.77-0.57-1.23-1.46-1.23-2.42v-23.87c0-1.07,0.57-2.06,1.5-2.6l16-9.24c0.93-0.54,2.07-0.54,3,0l20.67,11.94
	c0.83,0.48,1.38,1.32,1.48,2.27l3.89,35.82c0.18,1.65,1.66,2.84,3.31,2.66l5.96-0.65c1.65-0.18,2.84-1.66,2.66-3.31l-2.9-26.64
	c-0.09-0.81,0.79-1.38,1.49-0.97l17.93,10.35c1.43,0.83,3.27,0.34,4.1-1.1l3-5.2c0.83-1.43,0.34-3.27-1.1-4.1l-17.93-10.35
	c-0.71-0.41-0.65-1.45,0.1-1.78l24.52-10.81c1.52-0.67,2.2-2.44,1.53-3.96L198.29,115.91z M122.98,116.84l-16,9.24
	c-0.93,0.54-2.07,0.54-3,0l-16-9.24c-0.93-0.54-1.5-1.53-1.5-2.6V95.76c0-1.07,0.57-2.06,1.5-2.6l16-9.24c0.93-0.54,2.07-0.54,3,0
	l16,9.24c0.93,0.54,1.5,1.53,1.5,2.6v18.48C124.48,115.31,123.91,116.3,122.98,116.84z"/>
</svg>
