<?xml version="1.0" encoding="utf-8"?>
<!-- Generator: Adobe Illustrator 23.0.1, SVG Export Plug-In . SVG Version: 6.00 Build 0)  -->
<svg version="1.1" id="heat_icon" xmlns="http://www.w3.org/2000/svg" xmlns:xlink="http://www.w3.org/1999/xlink" x="0px" y="0px" fill="#ffffff"
	 viewBox="0 0 210 210" style="enable-background:new 0 0 210 210;" xml:space="preserve">
<g>
	<path d="M59.94,47.21L42.77,30.05c-1.17-1.17-3.07-1.17-4.24,0l-8.49,8.49c-1.17,1.17-1.17,3.07,0,4.24l17.16,17.16
		c1.24,1.24,3.27,1.15,4.4-0.18c2.49-2.93,5.21-5.66,8.15-8.15C61.09,50.48,61.18,48.45,59.94,47.21z"/>
	<path d="M105,35c1.93,0,3.84,0.09,5.72,0.25c1.76,0.15,3.28-1.22,3.28-2.98V8c0-1.66-1.34-3-3-3H99c-1.66,0-3,1.34-3,3v24.26
		c0,1.77,1.52,3.13,3.28,2.98C101.16,35.09,103.07,35,105,35z"/>
	<path d="M162.79,59.94l17.16-17.16c1.17-1.17,1.17-3.07,0-4.24l-8.49-8.49c-1.17-1.17-3.07-1.17-4.24,0l-17.16,17.16
		c-1.24,1.24-1.15,3.27,0.18,4.4c2.93,2.49,5.66,5.21,8.15,8.15C159.52,61.09,161.55,61.18,162.79,59.94z"/>
	<path d="M35,105c0-1.93,0.09-3.84,0.25-5.72c0.15-1.76-1.22-3.28-2.98-3.28H8c-1.66,0-3,1.34-3,3v12c0,1.66,1.34,3,3,3h24.26
		c1.77,0,3.13-1.52,2.98-3.28C35.09,108.84,35,106.93,35,105z"/>
	<path d="M177.74,96c-1.77,0-3.13,1.52-2.98,3.28c0.16,1.89,0.25,3.8,0.25,5.72s-0.09,3.84-0.25,5.72
		c-0.15,1.76,1.22,3.28,2.98,3.28H202c1.66,0,3-1.34,3-3V99c0-1.66-1.34-3-3-3H177.74z"/>
	<path d="M150.06,162.79l17.16,17.16c1.17,1.17,3.07,1.17,4.24,0l8.49-8.49c1.17-1.17,1.17-3.07,0-4.24l-17.16-17.16
		c-1.24-1.24-3.27-1.15-4.4,0.18c-2.49,2.93-5.21,5.66-8.15,8.15C148.91,159.52,148.82,161.55,150.06,162.79z"/>
	<path d="M47.21,150.06l-17.16,17.16c-1.17,1.17-1.17,3.07,0,4.24l8.49,8.49c1.17,1.17,3.07,1.17,4.24,0l17.16-17.16
		c1.24-1.24,1.15-3.27-0.18-4.4c-2.93-2.49-5.66-5.21-8.15-8.15C50.48,148.91,48.45,148.82,47.21,150.06z"/>
	<path d="M105,175c-1.93,0-3.84-0.09-5.72-0.25c-1.76-0.15-3.28,1.22-3.28,2.98V202c0,1.66,1.34,3,3,3h12c1.66,0,3-1.34,3-3v-24.26
		c0-1.77-1.52-3.13-3.28-2.98C108.84,174.91,106.93,175,105,175z"/>
</g>
<g>
	<circle cx="105" cy="105" r="52.5"/>
</g>
</svg>
