<?xml version="1.0" encoding="utf-8"?>
<!-- Generator: Adobe Illustrator 23.0.1, SVG Export Plug-In . SVG Version: 6.00 Build 0)  -->
<svg version="1.1" id="Cool_label_plate" xmlns="http://www.w3.org/2000/svg" xmlns:xlink="http://www.w3.org/1999/xlink" x="0px"
	 y="0px" viewBox="0 0 402 128" style="enable-background:new 0 0 402 128;" fill="#ffffff" xml:space="preserve">
<path d="M401.74,55.76c-3.08-33.19-32.31-57.58-65.31-54.49c-67.96,6.38-179.26,9.99-269.29-0.84C34.22-3.54,4.36,20.1,0.43,53.2
	c-3.93,33.1,19.55,63.14,52.45,67.1c46.25,5.56,97.28,7.7,146.07,7.7c56.06,0,109.15-2.83,148.62-6.53
	C380.57,118.37,404.82,88.95,401.74,55.76z M33.5,70C26.6,70,21,64.4,21,57.5S26.6,45,33.5,45S46,50.6,46,57.5S40.4,70,33.5,70z
	 M368.5,73c-6.9,0-12.5-5.6-12.5-12.5S361.6,48,368.5,48S381,53.6,381,60.5S375.4,73,368.5,73z"/>
</svg>
