<?xml version="1.0" encoding="utf-8"?>
<!-- Generator: Adobe Illustrator 23.0.1, SVG Export Plug-In . SVG Version: 6.00 Build 0)  -->
<svg version="1.1" id="lid_off_icon" xmlns="http://www.w3.org/2000/svg" xmlns:xlink="http://www.w3.org/1999/xlink" x="0px"
	 y="0px" viewBox="0 0 150 164" style="enable-background:new 0 0 150 164;" fill="#ffffff" xml:space="preserve">
<path d="M132.5,163.75h-115c-9.66,0-17.5-7.84-17.5-17.5v-143c0-1.66,1.34-3,3-3h9c1.66,0,3,1.34,3,3v143c0,1.38,1.12,2.5,2.5,2.5
	h115c1.38,0,2.5-1.12,2.5-2.5v-143c0-1.66,1.34-3,3-3h9c1.66,0,3,1.34,3,3v143C150,155.91,142.16,163.75,132.5,163.75z"/>
<g>
	<circle cx="39" cy="89" r="13.5"/>
</g>
<g>
	<circle cx="72" cy="126" r="13.5"/>
</g>
<g>
	<circle cx="112" cy="111" r="13.5"/>
</g>
<g>
	<circle cx="103" cy="52" r="13.5"/>
</g>
<g>
	<circle cx="84" cy="84" r="13.5"/>
</g>
</svg>
