<?xml version="1.0" encoding="utf-8"?>
<!-- Generator: Adobe Illustrator 23.0.1, SVG Export Plug-In . SVG Version: 6.00 Build 0)  -->
<svg version="1.1" id="lid_off_icon" xmlns="http://www.w3.org/2000/svg" xmlns:xlink="http://www.w3.org/1999/xlink" x="0px" fill="#ffffff"
	 y="0px" viewBox="0 0 210 210" style="enable-background:new 0 0 210 210;" xml:space="preserve">
<path d="M162.5,186.75h-115c-9.66,0-17.5-7.84-17.5-17.5v-143c0-1.66,1.34-3,3-3h9c1.66,0,3,1.34,3,3v143c0,1.38,1.12,2.5,2.5,2.5
	h115c1.38,0,2.5-1.12,2.5-2.5v-143c0-1.66,1.34-3,3-3h9c1.66,0,3,1.34,3,3v143C180,178.91,172.16,186.75,162.5,186.75z"/>
<g>
	<circle cx="69" cy="112" r="13.5"/>
</g>
<g>
	<circle cx="102" cy="149" r="13.5"/>
</g>
<g>
	<circle cx="142" cy="134" r="13.5"/>
</g>
<g>
	<circle cx="133" cy="75" r="13.5"/>
</g>
<g>
	<circle cx="114" cy="107" r="13.5"/>
</g>
</svg>
