<?xml version="1.0" encoding="utf-8"?>
<!-- Generator: Adobe Illustrator 23.0.1, SVG Export Plug-In . SVG Version: 6.00 Build 0)  -->
<svg version="1.1" id="lid_on_icon" xmlns="http://www.w3.org/2000/svg" xmlns:xlink="http://www.w3.org/1999/xlink" x="0px"
	 y="0px" viewBox="0 0 150 164" style="enable-background:new 0 0 150 164;" fill="#ffffff" xml:space="preserve">
<path d="M147,0.25h-9c-1.66,0-3,1.34-3,3V14.5H15V3.25c0-1.66-1.34-3-3-3H3c-1.66,0-3,1.34-3,3v143c0,9.67,7.83,17.5,17.5,17.5h115
	c9.67,0,17.5-7.83,17.5-17.5v-143C150,1.59,148.66,0.25,147,0.25z M132.5,148.75h-115c-1.38,0-2.5-1.12-2.5-2.5V29.5h120v116.75
	C135,147.63,133.88,148.75,132.5,148.75z"/>
<g>
	<circle cx="39" cy="89" r="13.5"/>
</g>
<g>
	<circle cx="72" cy="126" r="13.5"/>
</g>
<g>
	<circle cx="112" cy="111" r="13.5"/>
</g>
<g>
	<circle cx="103" cy="52" r="13.5"/>
</g>
<g>
	<circle cx="84" cy="84" r="13.5"/>
</g>
</svg>
