<?xml version="1.0" encoding="utf-8"?>
<!-- Generator: Adobe Illustrator 23.0.1, SVG Export Plug-In . SVG Version: 6.00 Build 0)  -->
<svg version="1.1" id="Lid_label_plate" xmlns="http://www.w3.org/2000/svg" xmlns:xlink="http://www.w3.org/1999/xlink" x="0px"
	 y="0px" viewBox="0 0 402 132" style="enable-background:new 0 0 402 132;" xml:space="preserve">
<path d="M348.24,6.4C269.41-1.85,149.59-4.45,49.7,12.96C17.06,18.65-4.79,49.71,0.9,82.33C5.99,111.47,31.32,132,59.94,132
	c3.42,0,6.89-0.29,10.38-0.9c73.41-12.8,175.12-14.88,265.44-5.43c2.12,0.22,4.23,0.33,6.32,0.33c30.33,0,56.37-22.91,59.6-53.72
	C405.12,39.34,381.2,9.85,348.24,6.4z M36.5,89C29.6,89,24,83.4,24,76.5S29.6,64,36.5,64S49,69.6,49,76.5S43.4,89,36.5,89z
	 M367.5,81c-6.9,0-12.5-5.6-12.5-12.5S360.6,56,367.5,56S380,61.6,380,68.5S374.4,81,367.5,81z"/>
</svg>
