<?xml version="1.0" encoding="utf-8"?>
<!-- Generator: Adobe Illustrator 23.0.1, SVG Export Plug-In . SVG Version: 6.00 Build 0)  -->
<svg version="1.1" id="lid_on_icon" xmlns="http://www.w3.org/2000/svg" xmlns:xlink="http://www.w3.org/1999/xlink" x="0px" fill="#ffffff"
	 y="0px" viewBox="0 0 210 210" style="enable-background:new 0 0 210 210;" xml:space="preserve">
<path d="M177,23.25h-9c-1.66,0-3,1.34-3,3V37.5H45V26.25c0-1.66-1.34-3-3-3h-9c-1.66,0-3,1.34-3,3v143c0,9.67,7.83,17.5,17.5,17.5
	h115c9.67,0,17.5-7.83,17.5-17.5v-143C180,24.59,178.66,23.25,177,23.25z M162.5,171.75h-115c-1.38,0-2.5-1.12-2.5-2.5V52.5h120
	v116.75C165,170.63,163.88,171.75,162.5,171.75z"/>
<g>
	<circle cx="69" cy="112" r="13.5"/>
</g>
<g>
	<circle cx="102" cy="149" r="13.5"/>
</g>
<g>
	<circle cx="142" cy="134" r="13.5"/>
</g>
<g>
	<circle cx="133" cy="75" r="13.5"/>
</g>
<g>
	<circle cx="114" cy="107" r="13.5"/>
</g>
</svg>
