<?xml version="1.0" encoding="utf-8"?>
<!-- Generator: Adobe Illustrator 23.0.1, SVG Export Plug-In . SVG Version: 6.00 Build 0)  -->
<svg version="1.1" id="pause_icon" xmlns="http://www.w3.org/2000/svg" xmlns:xlink="http://www.w3.org/1999/xlink" x="0px" y="0px" fill="#ffffff"
	 viewBox="0 0 210 210" style="enable-background:new 0 0 210 210;" xml:space="preserve">
<path d="M158,182h-24c-1.66,0-3-1.34-3-3V31c0-1.66,1.34-3,3-3h24c1.66,0,3,1.34,3,3v148C161,180.66,159.66,182,158,182z"/>
<path d="M76,182H52c-1.66,0-3-1.34-3-3V31c0-1.66,1.34-3,3-3h24c1.66,0,3,1.34,3,3v148C79,180.66,77.66,182,76,182z"/>
</svg>
