<?xml version="1.0" encoding="utf-8"?>
<!-- Generator: Adobe Illustrator 23.0.1, SVG Export Plug-In . SVG Version: 6.00 Build 0)  -->
<svg version="1.1" id="pause_icon" xmlns="http://www.w3.org/2000/svg" xmlns:xlink="http://www.w3.org/1999/xlink" x="0px" y="0px"
	 viewBox="0 0 112 155" style="enable-background:new 0 0 112 155;" xml:space="preserve">
<path d="M109,154.5H85c-1.66,0-3-1.34-3-3V3.5c0-1.66,1.34-3,3-3h24c1.66,0,3,1.34,3,3v148C112,153.16,110.66,154.5,109,154.5z"/>
<path d="M27,154.5H3c-1.66,0-3-1.34-3-3V3.5c0-1.66,1.34-3,3-3h24c1.66,0,3,1.34,3,3v148C30,153.16,28.66,154.5,27,154.5z"/>
</svg>
