<?xml version="1.0" encoding="utf-8"?>
<!-- Generator: Adobe Illustrator 23.0.1, SVG Export Plug-In . SVG Version: 6.00 Build 0)  -->
<svg version="1.1" id="restart_icon" xmlns="http://www.w3.org/2000/svg" xmlns:xlink="http://www.w3.org/1999/xlink" x="0px" fill="#ffffff"
	 y="0px" viewBox="0 0 210 210" style="enable-background:new 0 0 210 210;" xml:space="preserve">
<path d="M182.74,59.49C161.22,22.23,117.09,6.18,77.7,18.66L68.9,3.42c-1.15-2-4.04-2-5.2,0l-29.44,51c-1.15,2,0.29,4.5,2.6,4.5
	h58.89c2.31,0,3.75-2.5,2.6-4.5l-9.28-16.07c29.48-6.99,61.41,6.41,76.18,34.99c15.99,30.95,5.65,69.54-23.67,88.35
	c-32.02,20.54-74.22,10.72-94.19-20.75c-0.86-1.35-2.63-1.78-4.02-0.98l-13.87,8.01c-1.48,0.85-1.94,2.76-1.03,4.21
	c25.56,40.97,79.19,54.59,121.33,30.26C192.8,157.6,207.57,102.5,182.74,59.49z"/>
</svg>
