<?xml version="1.0" encoding="utf-8"?>
<!-- Generator: Adobe Illustrator 23.0.1, SVG Export Plug-In . SVG Version: 6.00 Build 0)  -->
<svg version="1.1" id="Restart_label_plate" xmlns="http://www.w3.org/2000/svg" xmlns:xlink="http://www.w3.org/1999/xlink"
	 x="0px" y="0px" viewBox="0 0 402 132" style="enable-background:new 0 0 402 132;" xml:space="preserve">
<path d="M401.46,55.99c-4.41-32.81-34.62-55.85-67.44-51.44c-72.57,9.73-185.99,11.68-262.38-3.39C39.12-5.27,7.57,15.86,1.15,48.34
	c-6.42,32.48,14.73,64.01,47.23,70.43C96.25,128.22,153.33,132,208.36,132c52.28,0,102.73-3.42,141.61-8.63
	C382.81,118.97,405.87,88.8,401.46,55.99z M31.5,67C24.6,67,19,61.4,19,54.5S24.6,42,31.5,42S44,47.6,44,54.5S38.4,67,31.5,67z
	 M369.5,73c-6.9,0-12.5-5.6-12.5-12.5S362.6,48,369.5,48S382,53.6,382,60.5S376.4,73,369.5,73z"/>
</svg>
