<?xml version="1.0" encoding="utf-8"?>
<!-- Generator: Adobe Illustrator 23.0.1, SVG Export Plug-In . SVG Version: 6.00 Build 0)  -->
<svg version="1.1" id="Run_label_plate" xmlns="http://www.w3.org/2000/svg" xmlns:xlink="http://www.w3.org/1999/xlink" x="0px"
	 y="0px" viewBox="0 0 402 130" style="enable-background:new 0 0 402 130;" xml:space="preserve">
<path d="M349.05,5.92C267.44-3.7,133.73-1.35,51,11.17C18.24,16.12-4.29,46.59,0.69,79.21C5.2,108.8,30.78,130,59.93,130
	c3,0,6.03-0.22,9.08-0.69c72.64-10.99,194.42-13.15,265.92-4.72c2.4,0.28,4.77,0.42,7.13,0.42c29.98,0,55.89-22.35,59.51-52.73
	C405.47,39.52,381.96,9.8,349.05,5.92z M35.5,85C28.6,85,23,79.4,23,72.5S28.6,60,35.5,60S48,65.6,48,72.5S42.4,85,35.5,85z
	 M367.5,82c-6.9,0-12.5-5.6-12.5-12.5S360.6,57,367.5,57S380,62.6,380,69.5S374.4,82,367.5,82z"/>
</svg>
