<?xml version="1.0" encoding="utf-8"?>
<!-- Generator: Adobe Illustrator 23.0.1, SVG Export Plug-In . SVG Version: 6.00 Build 0)  -->
<svg version="1.1" id="trash_can_design" xmlns="http://www.w3.org/2000/svg" xmlns:xlink="http://www.w3.org/1999/xlink" x="0px" fill="#ffffff"
	 y="0px" viewBox="0 0 125 173" style="enable-background:new 0 0 125 173;" xml:space="preserve">
<path d="M35,153c0,2.21-1.79,4-4,4h-2c-2.21,0-4-1.79-4-4V67c0-2.21,1.79-4,4-4h2c2.21,0,4,1.79,4,4V153z"/>
<path d="M64,153c0,2.21-1.79,4-4,4h-2c-2.21,0-4-1.79-4-4V67c0-2.21,1.79-4,4-4h2c2.21,0,4,1.79,4,4V153z"/>
<path d="M93,153c0,2.21-1.79,4-4,4h-2c-2.21,0-4-1.79-4-4V67c0-2.21,1.79-4,4-4h2c2.21,0,4,1.79,4,4V153z"/>
</svg>
