<?xml version="1.0" encoding="utf-8"?>
<!-- Generator: Adobe Illustrator 23.0.1, SVG Export Plug-In . SVG Version: 6.00 Build 0)  -->
<svg version="1.1" id="trash_can_closed" xmlns="http://www.w3.org/2000/svg" xmlns:xlink="http://www.w3.org/1999/xlink" x="0px"
	 y="0px" viewBox="0 0 125 173" style="enable-background:new 0 0 125 173;"
   fill="#7BCE52" xml:space="preserve">
<path d="M107,49H11c-1.1,0-2,0.9-2,2v107c0,8.28,6.72,15,15,15h70c8.28,0,15-6.72,15-15V51C109,49.9,108.1,49,107,49z M35,153
	c0,2.21-1.79,4-4,4h-2c-2.21,0-4-1.79-4-4V67c0-2.21,1.79-4,4-4h2c2.21,0,4,1.79,4,4V153z M64,153c0,2.21-1.79,4-4,4h-2
	c-2.21,0-4-1.79-4-4V67c0-2.21,1.79-4,4-4h2c2.21,0,4,1.79,4,4V153z M93,153c0,2.21-1.79,4-4,4h-2c-2.21,0-4-1.79-4-4V67
	c0-2.21,1.79-4,4-4h2c2.21,0,4,1.79,4,4V153z"/>
<path d="M103,26H82.72c0.17-0.3,0.28-0.63,0.28-1v-2c0-5.52-4.48-10-10-10H45c-5.52,0-10,4.48-10,10v2c0,0.37,0.11,0.7,0.28,1H15
	C6.72,26,0,32.72,0,41v1c0,1.1,0.9,2,2,2h114c1.1,0,2-0.9,2-2v-1C118,32.72,111.28,26,103,26z M73,26H45c-1.1,0-2-0.9-2-2
	c0-2.21,1.79-4,4-4h24c2.21,0,4,1.79,4,4C75,25.1,74.1,26,73,26z"/>
</svg>
