<?xml version="1.0" encoding="utf-8"?>
<!-- Generator: Adobe Illustrator 23.0.1, SVG Export Plug-In . SVG Version: 6.00 Build 0)  -->
<svg version="1.1" id="trash_can_closed" xmlns="http://www.w3.org/2000/svg" xmlns:xlink="http://www.w3.org/1999/xlink" x="0px"
	 y="0px" viewBox="0 0 125 173" style="enable-background:new 0 0 125 173;"
   fill="#7BCE52" xml:space="preserve">
<path d="M107,49H11c-1.1,0-2,0.9-2,2v107c0,8.28,6.72,15,15,15h70c8.28,0,15-6.72,15-15V51C109,49.9,108.1,49,107,49z M35,153
	c0,2.21-1.79,4-4,4h-2c-2.21,0-4-1.79-4-4V67c0-2.21,1.79-4,4-4h2c2.21,0,4,1.79,4,4V153z M64,153c0,2.21-1.79,4-4,4h-2
	c-2.21,0-4-1.79-4-4V67c0-2.21,1.79-4,4-4h2c2.21,0,4,1.79,4,4V153z M93,153c0,2.21-1.79,4-4,4h-2c-2.21,0-4-1.79-4-4V67
	c0-2.21,1.79-4,4-4h2c2.21,0,4,1.79,4,4V153z"/>
<path d="M112.82,27.26l-19.65-5.02c0.24-0.24,0.43-0.55,0.52-0.9l0.5-1.94c1.37-5.35-1.86-10.8-7.21-12.16L59.84,0.31
	c-5.35-1.37-10.8,1.86-12.16,7.21l-0.5,1.94c-0.09,0.35-0.07,0.71,0.02,1.04L27.56,5.48C19.53,3.43,11.36,8.28,9.31,16.3l-0.25,0.97
	c-0.27,1.07,0.37,2.16,1.44,2.43l110.45,28.22c1.07,0.27,2.16-0.37,2.43-1.44l0.25-0.97C125.69,37.48,120.84,29.31,112.82,27.26z
	 M83.75,19.84l-27.13-6.93c-1.07-0.27-1.72-1.36-1.44-2.43c0.55-2.14,2.73-3.43,4.87-2.89l23.25,5.94c2.14,0.55,3.43,2.73,2.89,4.87
	C85.91,19.47,84.82,20.11,83.75,19.84z"/>
</svg>
